<svg width="15" height="14" viewBox="0 0 15 14" fill="none" xmlns="http://www.w3.org/2000/svg">
<path fill-rule="evenodd" clip-rule="evenodd" d="M7.5 0C3.62083 0 0.5 3.19848 0.5 7.17417C0.5 10.3428 2.5125 13.0331 5.28333 13.9896C5.63333 14.0494 5.75 13.8402 5.75 13.6309C5.75 13.4516 5.75 13.0032 5.75 12.4053C3.79583 12.8537 3.3875 11.4488 3.3875 11.4488C3.06667 10.6118 2.6 10.4025 2.6 10.4025C1.95833 9.95416 2.65833 9.95416 2.65833 9.95416C3.35833 10.0139 3.7375 10.7015 3.7375 10.7015C4.35 11.8075 5.37083 11.4787 5.77917 11.2993C5.8375 10.821 6.0125 10.5221 6.21667 10.3428C4.67083 10.1634 3.0375 9.53567 3.0375 6.78557C3.0375 6.00837 3.3 5.35074 3.76667 4.87246C3.70833 4.6931 3.44583 3.97569 3.825 2.95935C3.825 2.95935 4.40833 2.77999 5.75 3.70665C6.30417 3.55719 6.91667 3.46752 7.5 3.46752C8.08333 3.46752 8.69583 3.55719 9.25 3.70665C10.5917 2.77999 11.175 2.95935 11.175 2.95935C11.5542 3.94579 11.3208 4.66321 11.2333 4.87246C11.6708 5.38063 11.9625 6.00837 11.9625 6.78557C11.9625 9.53567 10.3292 10.1335 8.75417 10.3129C9.01667 10.5221 9.22083 10.9705 9.22083 11.6281C9.22083 12.5847 9.22083 13.3619 9.22083 13.601C9.22083 13.7804 9.3375 14.0195 9.71667 13.9597C12.4875 13.0331 14.5 10.3428 14.5 7.17417C14.5 3.19848 11.3792 0 7.5 0Z" fill="#181713"/>
</svg>
