<svg width="15" height="14" viewBox="0 0 15 14" fill="none" xmlns="http://www.w3.org/2000/svg">
<path d="M7.49967 1.26127C9.36858 1.26127 9.5899 1.26827 10.3282 1.30194C10.7721 1.30737 11.2118 1.38888 11.6281 1.54293C11.9301 1.65937 12.2043 1.83774 12.4331 2.06657C12.6619 2.29539 12.8403 2.5696 12.9567 2.87153C13.1108 3.28788 13.1923 3.72757 13.1977 4.17147C13.2311 4.90977 13.2384 5.13109 13.2384 7C13.2384 8.86891 13.2314 9.09023 13.1977 9.82853C13.1923 10.2724 13.1108 10.7121 12.9567 11.1285C12.8403 11.4304 12.6619 11.7046 12.4331 11.9334C12.2043 12.1623 11.9301 12.3406 11.6281 12.4571C11.2118 12.6111 10.7721 12.6926 10.3282 12.6981C9.59024 12.7314 9.36891 12.7387 7.49967 12.7387C5.63042 12.7387 5.4091 12.7317 4.67114 12.6981C4.22723 12.6926 3.78755 12.6111 3.3712 12.4571C3.06927 12.3406 2.79506 12.1623 2.56624 11.9334C2.33741 11.7046 2.15904 11.4304 2.04259 11.1285C1.88855 10.7121 1.80704 10.2724 1.80161 9.82853C1.76827 9.09023 1.76094 8.86891 1.76094 7C1.76094 5.13109 1.76794 4.90977 1.80161 4.17147C1.80704 3.72757 1.88855 3.28788 2.04259 2.87153C2.15904 2.5696 2.33741 2.29539 2.56624 2.06657C2.79506 1.83774 3.06927 1.65937 3.3712 1.54293C3.78755 1.38888 4.22723 1.30737 4.67114 1.30194C5.40943 1.26861 5.63076 1.26127 7.49967 1.26127ZM7.49967 0C5.59976 0 5.36044 0.0079996 4.61381 0.041998C4.03285 0.0535534 3.45806 0.163552 2.91389 0.367316C2.44707 0.543196 2.02426 0.818816 1.67494 1.17494C1.31849 1.52439 1.04264 1.94744 0.866649 2.41455C0.662886 2.95872 0.552887 3.53351 0.541331 4.11447C0.508 4.86044 0.5 5.09976 0.5 6.99967C0.5 8.89958 0.508 9.1389 0.541998 9.88553C0.553553 10.4665 0.663552 11.0413 0.867316 11.5854C1.04311 12.0525 1.31874 12.4755 1.67494 12.8251C2.02445 13.1813 2.4475 13.4569 2.91455 13.6327C3.45873 13.8364 4.03352 13.9464 4.61447 13.958C5.3611 13.9913 5.59943 14 7.50034 14C9.40125 14 9.63957 13.992 10.3862 13.958C10.9672 13.9464 11.5419 13.8364 12.0861 13.6327C12.551 13.4525 12.9731 13.1773 13.3255 12.8247C13.6779 12.472 13.9528 12.0497 14.1327 11.5848C14.3365 11.0406 14.4465 10.4658 14.458 9.88486C14.4913 9.1389 14.4993 8.89958 14.4993 6.99967C14.4993 5.09976 14.4913 4.86044 14.4573 4.1138C14.4458 3.53285 14.3358 2.95806 14.132 2.41388C13.9562 1.94683 13.6806 1.52378 13.3244 1.17428C12.9749 0.818068 12.5518 0.542444 12.0848 0.366649C11.5406 0.162886 10.9658 0.0528868 10.3849 0.0413314C9.6389 0.00799964 9.39958 0 7.49967 0Z" fill="#181713"/>
<path d="M7.50368 3.40527C6.79275 3.40527 6.09779 3.61609 5.50668 4.01106C4.91557 4.40602 4.45486 4.96741 4.1828 5.62422C3.91074 6.28102 3.83955 7.00376 3.97825 7.70102C4.11694 8.39828 4.45929 9.03876 4.96199 9.54146C5.46468 10.0442 6.10516 10.3865 6.80243 10.5252C7.49969 10.6639 8.22242 10.5927 8.87923 10.3207C9.53604 10.0486 10.0974 9.58788 10.4924 8.99676C10.8874 8.40565 11.0982 7.71069 11.0982 6.99977C11.0982 6.04645 10.7195 5.13218 10.0454 4.45808C9.37127 3.78398 8.457 3.40527 7.50368 3.40527ZM7.50368 9.33299C7.04221 9.33299 6.5911 9.19615 6.20741 8.93977C5.82371 8.6834 5.52466 8.319 5.34806 7.89265C5.17146 7.46631 5.12526 6.99718 5.21529 6.54458C5.30531 6.09198 5.52753 5.67624 5.85384 5.34993C6.18015 5.02363 6.59589 4.80141 7.04849 4.71138C7.50109 4.62135 7.97022 4.66756 8.39656 4.84415C8.8229 5.02075 9.1873 5.3198 9.44368 5.7035C9.70006 6.0872 9.8369 6.5383 9.8369 6.99977C9.8369 7.61858 9.59108 8.21204 9.15352 8.64961C8.71595 9.08717 8.12249 9.33299 7.50368 9.33299Z" fill="#181713"/>
<path d="M11.2384 4.10082C11.7023 4.10082 12.0784 3.72476 12.0784 3.26086C12.0784 2.79696 11.7023 2.4209 11.2384 2.4209C10.7745 2.4209 10.3984 2.79696 10.3984 3.26086C10.3984 3.72476 10.7745 4.10082 11.2384 4.10082Z" fill="#181713"/>
</svg>
