<svg width="18" height="14" viewBox="0 0 18 14" fill="none" xmlns="http://www.w3.org/2000/svg">
<path d="M17.3 1.62371C16.67 1.91237 16.005 2.09278 15.305 2.20103C16.005 1.76804 16.565 1.08247 16.81 0.252577C16.145 0.649485 15.41 0.938144 14.605 1.11856C13.975 0.43299 13.065 0 12.085 0C10.195 0 8.655 1.58763 8.655 3.53608C8.655 3.82474 8.69 4.07732 8.76 4.3299C5.925 4.18557 3.37 2.77835 1.655 0.613402C1.375 1.15464 1.2 1.73196 1.2 2.38144C1.2 3.60825 1.795 4.69072 2.74 5.34021C2.18 5.30412 1.655 5.15979 1.165 4.90722V4.9433C1.165 6.67526 2.355 8.11856 3.93 8.4433C3.65 8.51546 3.335 8.55155 3.02 8.55155C2.81 8.55155 2.565 8.51546 2.355 8.47938C2.81 9.8866 4.07 10.933 5.575 10.933C4.385 11.8711 2.915 12.4485 1.305 12.4485C1.025 12.4485 0.745 12.4485 0.5 12.4124C2.04 13.4227 3.825 14 5.785 14C12.12 14 15.585 8.58763 15.585 3.89691C15.585 3.75258 15.585 3.57216 15.585 3.42783C16.25 2.95876 16.845 2.34536 17.3 1.62371Z" fill="#181713"/>
</svg>
