<svg width="24" height="25" viewBox="0 0 24 25" fill="none" xmlns="http://www.w3.org/2000/svg">
<path fill-rule="evenodd" clip-rule="evenodd" d="M1.5 2.25C1.5 1.69772 1.94772 1.25 2.5 1.25H3.43845C4.81505 1.25 6.015 2.18689 6.34887 3.52239L6.35349 3.54084L8.75951 15.0007C8.87299 15.5412 8.52682 16.0714 7.98632 16.1848C7.44582 16.2983 6.91566 15.9521 6.80218 15.4116L4.40464 3.99218C4.28811 3.55517 3.89205 3.25 3.43845 3.25H2.5C1.94772 3.25 1.5 2.80228 1.5 2.25Z" fill="#181713"/>
<path d="M21.9392 6.70417C21.6333 6.28323 21.2009 6.12453 20.7861 6.05867C20.4157 5.99986 19.9521 5.99993 19.4483 6.00001H5.08203L7.39151 17H15.2636C16.4615 17 17.4602 16.8122 18.2933 16.4256C19.1348 16.035 19.7674 15.46 20.2536 14.7504C21.1921 13.3807 21.5912 11.4813 21.9967 9.4671L22.0061 9.42024C22.1174 8.86746 22.2152 8.38213 22.2424 7.98698C22.2712 7.56751 22.2336 7.10935 21.9392 6.70417Z" fill="#181713"/>
<path fill-rule="evenodd" clip-rule="evenodd" d="M5.96124 16.2353C6.55421 15.538 7.43219 15.01 8.46857 15.01H9C9.55228 15.01 10 15.4577 10 16.01C10 16.5623 9.55228 17.01 9 17.01H8.46857C8.1416 17.01 7.78529 17.1776 7.48481 17.5309C7.30846 17.7383 7.17262 17.9871 7.09019 18.2499H17.5C18.0523 18.2499 18.5 18.6976 18.5 19.2499C18.5 19.8022 18.0523 19.3728 17.5 19.3728L16.0969 20.2499H11.9557L10.5696 19.3728L9.18357 20.2499H6.41143C5.59384 20.2499 5 19.5714 5 18.8213C5 17.8607 5.36948 16.9311 5.96124 16.2353Z" fill="#181713"/>
<path fill-rule="evenodd" clip-rule="evenodd" d="M10.5 19.7473C10.0858 19.7473 9.75 20.0831 9.75 20.4973C9.75 20.9115 10.0858 21.2473 10.5 21.2473C10.9142 21.2473 11.25 20.9115 11.25 20.4973C11.25 20.0831 10.9142 19.7473 10.5 19.7473ZM8.25 20.4973C8.25 19.2547 9.25736 18.2473 10.5 18.2473C11.7426 18.2473 12.75 19.2547 12.75 20.4973C12.75 21.74 11.7426 22.7473 10.5 22.7473C9.25736 22.7473 8.25 21.74 8.25 20.4973Z" fill="#181713"/>
<path fill-rule="evenodd" clip-rule="evenodd" d="M17.5 19.7473C17.0858 19.7473 16.75 20.0831 16.75 20.4973C16.75 20.9115 17.0858 21.2473 17.5 21.2473C17.9142 21.2473 18.25 20.9115 18.25 20.4973C18.25 20.0831 17.9142 19.7473 17.5 19.7473ZM15.25 20.4973C15.25 19.2547 16.2574 18.2473 17.5 18.2473C18.7426 18.2473 19.75 19.2547 19.75 20.4973C19.75 21.74 18.7426 22.7473 17.5 22.7473C16.2574 22.7473 15.25 21.74 15.25 20.4973Z" fill="#181713"/>
</svg>
