<svg width="51" height="60" viewBox="0 0 51 60" fill="none" xmlns="http://www.w3.org/2000/svg">
<path d="M22.976 45.8533C10.2407 45.8533 0 49.1356 0 52.943C0 56.7505 10.3392 59.9999 22.976 59.9999C35.6127 59.9999 45.9519 56.7176 45.9519 52.943C45.9519 49.1684 35.7112 45.8533 22.976 45.8533Z" fill="#D8D9DA"/>
<path d="M36.9261 0.722168H9.55189C6.90527 0.722168 4.75977 2.86767 4.75977 5.51429V47.1336C4.75977 49.7802 6.90527 51.9257 9.55189 51.9257H36.9261C39.5727 51.9257 41.7182 49.7802 41.7182 47.1336V5.51429C41.7182 2.86767 39.5727 0.722168 36.9261 0.722168Z" fill="#E66673"/>
<path d="M36.9264 52.615H9.5522C8.83237 52.615 8.11959 52.4732 7.45455 52.1977C6.78952 51.9222 6.18525 51.5185 5.67626 51.0095C5.16726 50.5005 4.76351 49.8962 4.48805 49.2312C4.21258 48.5662 4.0708 47.8534 4.0708 47.1335V5.48143C4.0708 4.7616 4.21258 4.04881 4.48805 3.38377C4.76351 2.71874 5.16726 2.11448 5.67626 1.60548C6.18525 1.09648 6.78952 0.692713 7.45455 0.417247C8.11959 0.14178 8.83237 0 9.5522 0H36.9264C37.6463 0 38.359 0.14178 39.0241 0.417247C39.6891 0.692713 40.2934 1.09648 40.8024 1.60548C41.3113 2.11448 41.7151 2.71874 41.9906 3.38377C42.2661 4.04881 42.4078 4.7616 42.4078 5.48143V47.1335C42.4078 47.8534 42.2661 48.5662 41.9906 49.2312C41.7151 49.8962 41.3113 50.5005 40.8024 51.0095C40.2934 51.5185 39.6891 51.9222 39.0241 52.1977C38.359 52.4732 37.6463 52.615 36.9264 52.615ZM9.5522 1.41138C8.47276 1.41138 7.43753 1.84019 6.67425 2.60347C5.91097 3.36675 5.48218 4.40199 5.48218 5.48143V47.1335C5.48218 48.213 5.91097 49.2482 6.67425 50.0115C7.43753 50.7748 8.47276 51.2036 9.5522 51.2036H36.9264C38.0089 51.2036 39.0475 50.7758 39.816 50.0135C40.5845 49.2512 41.0206 48.216 41.0293 47.1335V5.48143C41.0206 4.39898 40.5845 3.36382 39.816 2.60147C39.0475 1.83912 38.0089 1.41135 36.9264 1.41138H9.5522Z" fill="#3F232C"/>
<path d="M36.9265 7.54932H9.55225V45.0658H36.9265V7.54932Z" fill="white"/>
<path d="M36.9261 45.7552H9.55182C9.36902 45.7552 9.1937 45.6825 9.06444 45.5533C8.93517 45.424 8.86255 45.2487 8.86255 45.0659V7.54943C8.86255 7.36662 8.93517 7.19131 9.06444 7.06204C9.1937 6.93278 9.36902 6.86016 9.55182 6.86016H36.9261C37.0193 6.85571 37.1125 6.87026 37.1999 6.9029C37.2874 6.93555 37.3673 6.98559 37.4348 7.05005C37.5023 7.1145 37.556 7.19201 37.5927 7.27785C37.6294 7.3637 37.6482 7.45609 37.6481 7.54943V45.0659C37.6482 45.1592 37.6294 45.2516 37.5927 45.3375C37.556 45.4233 37.5023 45.5008 37.4348 45.5653C37.3673 45.6297 37.2874 45.6798 37.1999 45.7124C37.1125 45.7451 37.0193 45.7596 36.9261 45.7552ZM10.1426 44.3766H36.4009V8.27154H10.1426V44.3766Z" fill="#3F232C"/>
<path d="M18.1841 49.2017H16.4445C16.3511 49.2018 16.2587 49.1829 16.1729 49.1462C16.087 49.1095 16.0095 49.0558 15.9451 48.9883C15.8806 48.9208 15.8306 48.8409 15.7979 48.7534C15.7653 48.666 15.7507 48.5728 15.7552 48.4796C15.7552 48.2968 15.8278 48.1214 15.9571 47.9922C16.0863 47.8629 16.2616 47.7903 16.4445 47.7903H18.1841C18.3669 47.7903 18.5422 47.8629 18.6715 47.9922C18.8007 48.1214 18.8734 48.2968 18.8734 48.4796C18.8778 48.5728 18.8633 48.666 18.8306 48.7534C18.798 48.8409 18.7479 48.9208 18.6834 48.9883C18.619 49.0558 18.5415 49.1095 18.4557 49.1462C18.3698 49.1829 18.2774 49.2018 18.1841 49.2017Z" fill="#3F232C"/>
<path d="M24.8492 49.2017H21.8295C21.7361 49.2018 21.6437 49.1829 21.5579 49.1462C21.472 49.1095 21.3946 49.0558 21.3301 48.9883C21.2656 48.9208 21.2156 48.8409 21.1829 48.7534C21.1503 48.666 21.1357 48.5728 21.1402 48.4796C21.1402 48.2968 21.2128 48.1214 21.3421 47.9922C21.4713 47.8629 21.6467 47.7903 21.8295 47.7903H24.8492C25.032 47.7903 25.2073 47.8629 25.3366 47.9922C25.4658 48.1214 25.5385 48.2968 25.5385 48.4796C25.5429 48.5728 25.5284 48.666 25.4957 48.7534C25.4631 48.8409 25.413 48.9208 25.3485 48.9883C25.2841 49.0558 25.2066 49.1095 25.1208 49.1462C25.0349 49.1829 24.9425 49.2018 24.8492 49.2017Z" fill="#3F232C"/>
<path d="M30.2297 49.2017H28.4901C28.3968 49.2018 28.3044 49.1829 28.2185 49.1462C28.1327 49.1095 28.0552 49.0558 27.9907 48.9883C27.9263 48.9208 27.8762 48.8409 27.8436 48.7534C27.8109 48.666 27.7964 48.5728 27.8008 48.4796C27.8008 48.2968 27.8735 48.1214 28.0027 47.9922C28.132 47.8629 28.3073 47.7903 28.4901 47.7903H30.2297C30.4125 47.7903 30.5879 47.8629 30.7171 47.9922C30.8464 48.1214 30.919 48.2968 30.919 48.4796C30.9235 48.5728 30.9089 48.666 30.8763 48.7534C30.8436 48.8409 30.7935 48.9208 30.7291 48.9883C30.6646 49.0558 30.5872 49.1095 30.5013 49.1462C30.4155 49.1829 30.3231 49.2018 30.2297 49.2017Z" fill="#3F232C"/>
<path d="M26.291 4.82508H20.3829C20.2001 4.82508 20.0247 4.75246 19.8955 4.6232C19.7662 4.49393 19.6936 4.31862 19.6936 4.13581C19.6936 3.953 19.7662 3.77769 19.8955 3.64842C20.0247 3.51916 20.2001 3.44653 20.3829 3.44653H26.291C26.4738 3.44653 26.6491 3.51916 26.7784 3.64842C26.9076 3.77769 26.9802 3.953 26.9802 4.13581C26.9802 4.31862 26.9076 4.49393 26.7784 4.6232C26.6491 4.75246 26.4738 4.82508 26.291 4.82508Z" fill="#3F232C"/>
<path d="M49.0703 29.1136C49.2589 29.2971 49.4087 29.5165 49.5111 29.7589C49.6134 30.0014 49.6662 30.2618 49.6662 30.5249C49.6662 30.7881 49.6134 31.0485 49.5111 31.291C49.4087 31.5334 49.2589 31.7528 49.0703 31.9363L43.2278 37.7788C43.0443 37.9674 42.8249 38.1172 42.5824 38.2196C42.34 38.3219 42.0796 38.3747 41.8164 38.3747C41.5533 38.3747 41.2928 38.3219 41.0504 38.2196C40.808 38.1172 40.5886 37.9674 40.4051 37.7788C40.0421 37.4051 39.8391 36.9047 39.8391 36.3838C39.8391 35.8629 40.0421 35.3625 40.4051 34.9889L46.2475 29.1136C46.6226 28.7408 47.13 28.5315 47.6589 28.5315C48.1878 28.5315 48.6952 28.7408 49.0703 29.1136Z" fill="#E66673"/>
<path d="M41.8173 38.9606C41.4638 38.9607 41.1137 38.8912 40.787 38.756C40.4604 38.6209 40.1636 38.4227 39.9135 38.1728C39.6644 37.9257 39.4667 37.6317 39.3318 37.3077C39.1969 36.9838 39.1274 36.6364 39.1274 36.2855C39.1274 35.9346 39.1969 35.5872 39.3318 35.2633C39.4667 34.9393 39.6644 34.6453 39.9135 34.3982L45.7888 28.5229C46.036 28.2738 46.33 28.0761 46.6539 27.9412C46.9778 27.8063 47.3252 27.7368 47.6761 27.7368C48.027 27.7368 48.3745 27.8063 48.6984 27.9412C49.0223 28.0761 49.3163 28.2738 49.5634 28.5229C49.8214 28.7761 50.0257 29.0787 50.1642 29.4126C50.3026 29.7466 50.3724 30.105 50.3694 30.4664C50.3663 30.8279 50.2904 31.185 50.1463 31.5166C50.0022 31.8481 49.7928 32.1472 49.5306 32.396L43.6882 38.2384C43.1808 38.7112 42.5106 38.9699 41.8173 38.9606ZM47.6925 29.1137C47.5224 29.1041 47.3521 29.1313 47.1935 29.1936C47.0348 29.256 46.8916 29.3519 46.7735 29.4748L40.8982 35.3501C40.6597 35.5899 40.5258 35.9144 40.5258 36.2527C40.5258 36.5909 40.6597 36.9154 40.8982 37.1553C41.0176 37.2784 41.1604 37.3762 41.3182 37.4431C41.4761 37.5099 41.6458 37.5443 41.8173 37.5443C41.9887 37.5443 42.1584 37.5099 42.3162 37.4431C42.4741 37.3762 42.617 37.2784 42.7363 37.1553L48.5787 31.3128C48.7018 31.1935 48.7997 31.0507 48.8665 30.8928C48.9333 30.7349 48.9678 30.5652 48.9678 30.3938C48.9678 30.2224 48.9333 30.0527 48.8665 29.8948C48.7997 29.7369 48.7018 29.5941 48.5787 29.4748C48.4657 29.3544 48.328 29.2599 48.175 29.1976C48.0221 29.1353 47.8575 29.1067 47.6925 29.1137Z" fill="#3F232C"/>
<path d="M45.0665 25.044L36.0074 15.9849C35.7152 15.7554 35.3716 15.6002 35.0063 15.5325C34.6409 15.4649 34.2646 15.4869 33.9096 15.5966C33.5546 15.7064 33.2315 15.9005 32.9681 16.1625C32.7046 16.4245 32.5086 16.7465 32.3968 17.1009C31.9682 16.8236 31.4574 16.7017 30.9497 16.7554C30.442 16.8092 29.968 17.0354 29.6069 17.3963C29.4029 17.5919 29.2399 17.8261 29.1272 18.0853C29.0145 18.3445 28.9544 18.6235 28.9505 18.9061C28.6016 18.8593 28.2467 18.891 27.9116 18.9989C27.5766 19.1068 27.2699 19.2882 27.0139 19.5298C26.7661 19.7816 26.5807 20.0878 26.4724 20.4241C26.3641 20.7603 26.336 21.1172 26.3903 21.4663L19.9898 15.1643C19.6052 14.7972 19.0938 14.5923 18.5621 14.5923C18.0303 14.5923 17.5189 14.7972 17.1342 15.1643C16.7594 15.545 16.5493 16.0579 16.5493 16.5921C16.5493 17.1264 16.7594 17.6392 17.1342 18.0199L28.9505 29.8361C27.6956 30.5171 26.5817 31.4304 25.6682 32.5276C24.0271 34.497 23.666 36.5648 24.6179 37.5823C25.0226 38.123 25.5674 38.5429 26.1933 38.7967C27.0011 37.5655 27.9853 36.4596 29.1146 35.5145C32.1014 34.0046 36.7951 34.6283 37.9439 33.4795L44.1802 27.276L44.41 27.0462L44.9023 26.521C45.0229 26.4447 45.1248 26.3422 45.2004 26.2212C45.276 26.1002 45.3234 25.9638 45.3392 25.8219C45.3549 25.6801 45.3386 25.5366 45.2914 25.4019C45.2442 25.2673 45.1673 25.1449 45.0665 25.044Z" fill="#E66673"/>
<path d="M26.3592 39.5188C25.6046 39.2531 24.9433 38.7742 24.4554 38.1403C23.2082 36.7945 23.602 34.3657 25.4401 32.1665C26.2121 31.2374 27.1194 30.4297 28.1316 29.7704L16.7092 18.5779C16.4554 18.324 16.2549 18.0218 16.1197 17.6892C15.9844 17.3566 15.917 17.0003 15.9215 16.6413C15.9138 16.2868 15.9798 15.9345 16.1154 15.6068C16.251 15.279 16.4532 14.9831 16.7092 14.7376C16.9571 14.4848 17.2535 14.2846 17.5806 14.1492C17.9078 14.0139 18.2589 13.946 18.613 13.9499C18.967 13.946 19.3182 14.0139 19.6453 14.1492C19.9725 14.2846 20.2689 14.4848 20.5167 14.7376L25.7027 19.9236C25.8605 19.5861 26.071 19.2759 26.3263 19.0046C26.8208 18.5146 27.471 18.2128 28.1644 18.1512C28.2658 17.7688 28.4438 17.411 28.6876 17.0995C28.9315 16.788 29.236 16.5292 29.5828 16.3389C29.9297 16.1487 30.3115 16.0308 30.7052 15.9925C31.099 15.9542 31.4964 15.9963 31.8734 16.1162C31.9971 15.9269 32.1401 15.7509 32.3001 15.591C32.8094 15.0651 33.4994 14.7523 34.2306 14.7157C34.9618 14.6792 35.6796 14.9216 36.2388 15.3941L45.2979 24.4532C45.6121 24.7663 45.7892 25.1912 45.7902 25.6348C45.7954 25.8552 45.7543 26.0743 45.6695 26.2778C45.5847 26.4814 45.4581 26.6649 45.2979 26.8164L38.3395 33.7748C37.1645 34.5218 35.7924 34.8991 34.4007 34.858C32.6657 34.9225 30.9551 35.289 29.346 35.9412C28.2797 36.8848 27.371 37.9929 26.6545 39.2234C26.5873 39.3489 26.4846 39.4516 26.3592 39.5188ZM17.7267 17.5276L29.543 29.3438C29.6178 29.4213 29.6743 29.5146 29.7084 29.6168C29.7425 29.7191 29.7532 29.8276 29.7399 29.9346C29.7216 30.0389 29.6795 30.1375 29.6168 30.2229C29.5542 30.3083 29.4728 30.3781 29.3788 30.4269C28.2219 31.0987 27.1893 31.9648 26.3263 32.9871C24.9806 34.5954 24.5211 36.2694 25.276 37.1228C25.5207 37.4041 25.7959 37.6573 26.0966 37.8777C26.8456 36.6786 27.8145 35.6318 28.9522 34.7924C30.7104 34.0392 32.5888 33.6057 34.4992 33.5122C35.5636 33.5246 36.6174 33.3004 37.5845 32.8558L44.5758 25.8317C44.5931 25.8018 44.6022 25.7678 44.6022 25.7333C44.6022 25.6987 44.5931 25.6647 44.5758 25.6348C44.6013 25.5716 44.6013 25.501 44.5758 25.4378L35.4839 16.3788C35.2039 16.1157 34.8342 15.9692 34.45 15.9692C34.0658 15.9692 33.696 16.1157 33.416 16.3788C33.2174 16.5494 33.0793 16.7797 33.0222 17.0352C32.9938 17.1412 32.9406 17.2389 32.8668 17.3201C32.7931 17.4014 32.7011 17.4639 32.5983 17.5024C32.4956 17.5409 32.3852 17.5544 32.2762 17.5416C32.1673 17.5289 32.0629 17.4903 31.9719 17.4291C31.6756 17.2344 31.3213 17.1477 30.9686 17.1836C30.6159 17.2194 30.2863 17.3757 30.0353 17.626C29.8895 17.7592 29.7733 17.9215 29.6941 18.1024C29.6149 18.2833 29.5746 18.4789 29.5758 18.6764C29.576 18.7737 29.5521 18.8696 29.5063 18.9555C29.4605 19.0414 29.3941 19.1146 29.3132 19.1687C29.2316 19.2092 29.1417 19.2303 29.0506 19.2303C28.9595 19.2303 28.8696 19.2092 28.788 19.1687C28.5463 19.129 28.2986 19.1474 28.0654 19.2224C27.8322 19.2974 27.6202 19.4269 27.447 19.6001C27.2738 19.7733 27.1443 19.9853 27.0693 20.2185C26.9943 20.4517 26.9759 20.6994 27.0156 20.9411C27.0342 21.0838 27.0097 21.2287 26.9454 21.3574C26.8811 21.486 26.7798 21.5925 26.6545 21.6632C26.5323 21.7424 26.3899 21.7844 26.2443 21.7844C26.0987 21.7844 25.9562 21.7424 25.834 21.6632L19.6633 15.4597C19.4104 15.2326 19.0841 15.1044 18.7443 15.0987C18.5672 15.0968 18.3917 15.1307 18.2281 15.1983C18.0645 15.266 17.9163 15.3661 17.7924 15.4925C17.6669 15.6103 17.5671 15.7527 17.4993 15.9109C17.4316 16.069 17.3972 16.2395 17.3985 16.4116C17.3612 16.6103 17.3715 16.815 17.4285 17.009C17.4856 17.203 17.5878 17.3807 17.7267 17.5276Z" fill="#3F232C"/>
<path d="M16.7067 22.0568C15.8128 21.7073 15.0201 21.1407 14.4001 20.408C13.7801 19.6753 13.3524 18.7996 13.1558 17.8602C12.9591 16.9208 12.9996 15.9471 13.2736 15.0273C13.5476 14.1074 14.0465 13.2703 14.7252 12.5917C15.4039 11.913 16.241 11.4141 17.1608 11.1401C18.0807 10.8661 19.0543 10.8256 19.9937 11.0222C20.9332 11.2189 21.8088 11.6466 22.5415 12.2665C23.2742 12.8865 23.8409 13.6793 24.1903 14.5732C24.2546 14.743 24.2494 14.9313 24.1756 15.0973C24.1019 15.2632 23.9656 15.3933 23.7965 15.4594C23.7106 15.4964 23.618 15.5155 23.5244 15.5156C23.4309 15.5157 23.3383 15.4967 23.2523 15.4599C23.1664 15.423 23.0888 15.369 23.0243 15.3013C22.9599 15.2335 22.9099 15.1533 22.8774 15.0655C22.5635 14.2416 22.0056 13.5331 21.2784 13.0345C20.5511 12.536 19.6891 12.2713 18.8074 12.2756C17.7734 12.2551 16.7657 12.6023 15.9639 13.2553C15.162 13.9084 14.6181 14.825 14.4289 15.8417C14.2398 16.8584 14.4177 17.9093 14.931 18.807C15.4443 19.7048 16.2597 20.3912 17.2319 20.7439C17.4011 20.8099 17.5373 20.9401 17.611 21.106C17.6848 21.2719 17.6901 21.4603 17.6258 21.6301C17.5593 21.8076 17.4256 21.9519 17.2536 22.0317C17.0817 22.1115 16.8853 22.1205 16.7067 22.0568Z" fill="#3F232C"/>
<path d="M26.1595 41.7837C24.8794 41.7822 23.636 41.3556 22.6247 40.5708C21.6133 39.786 20.8913 38.6875 20.572 37.4479C20.2527 36.2082 20.3542 34.8976 20.8606 33.7219C21.3669 32.5462 22.2494 31.5719 23.3695 30.9522C23.449 30.9057 23.5369 30.8757 23.6282 30.8637C23.7194 30.8518 23.8121 30.8582 23.9009 30.8827C23.9896 30.9072 24.0725 30.9492 24.1447 31.0062C24.217 31.0633 24.277 31.1342 24.3214 31.2148C24.4039 31.381 24.4193 31.5726 24.3643 31.7499C24.3093 31.9271 24.1881 32.0764 24.026 32.1667C23.4143 32.5442 22.9044 33.0659 22.541 33.6862C22.1776 34.3065 21.9718 35.0063 21.9416 35.7246C21.9114 36.4428 22.0577 37.1575 22.3676 37.8061C22.6776 38.4546 23.1419 39.0174 23.7197 39.445C24.2976 39.8726 24.9714 40.152 25.6823 40.2589C26.3932 40.3657 27.1194 40.2967 27.7974 40.0578C28.4754 39.819 29.0846 39.4176 29.5715 38.8888C30.0584 38.3599 30.4083 37.7198 30.5906 37.0244C30.6348 36.8512 30.7445 36.7019 30.8967 36.6081C31.0489 36.5142 31.2316 36.4832 31.4062 36.5216C31.5809 36.5599 31.7338 36.6646 31.8327 36.8135C31.9316 36.9625 31.9687 37.144 31.9363 37.3198C31.6736 38.4561 31.0713 39.4855 30.2095 40.2711C29.3476 41.0568 28.267 41.5615 27.1113 41.7181L26.1595 41.7837Z" fill="#3F232C"/>
</svg>
