<svg width="60" height="58" viewBox="0 0 60 58" fill="none" xmlns="http://www.w3.org/2000/svg">
<path d="M29.8736 41.4736C15.8074 41.4736 4.49634 45.099 4.49634 49.3043C4.49634 53.5097 15.9161 57.0988 29.8736 57.0988C43.8311 57.0988 55.2509 53.4735 55.2509 49.3043C55.2509 45.1352 43.9399 41.4736 29.8736 41.4736Z" fill="#D8D9DA"/>
<path d="M59.2377 0.797363H0.76123V7.86675H59.2377V0.797363Z" fill="white"/>
<path d="M5.43852 5.1119C5.33542 5.10865 5.23405 5.08448 5.14057 5.04086C5.04709 4.99723 4.96344 4.93506 4.89472 4.85813C4.82264 4.7876 4.76607 4.7028 4.72861 4.60917C4.69116 4.51553 4.67365 4.41512 4.67721 4.31434C4.67813 4.11204 4.75587 3.91765 4.89472 3.77053C5.04236 3.63292 5.23669 3.5564 5.43852 3.5564C5.64035 3.5564 5.83468 3.63292 5.98233 3.77053C6.12117 3.91765 6.19892 4.11204 6.19984 4.31434C6.20339 4.41512 6.18589 4.51553 6.14843 4.60917C6.11098 4.7028 6.05441 4.7876 5.98233 4.85813C5.83884 5.00728 5.645 5.09773 5.43852 5.1119Z" fill="#3D2139"/>
<path d="M8.73755 4.31406C8.74641 4.115 8.82947 3.92645 8.97037 3.78555C9.11127 3.64465 9.2998 3.56159 9.49886 3.55273C9.70078 3.55273 9.89443 3.63295 10.0372 3.77572C10.18 3.9185 10.2602 4.11215 10.2602 4.31406C10.2651 4.41705 10.249 4.51995 10.213 4.61654C10.1769 4.71314 10.1216 4.8014 10.0504 4.87598C9.97925 4.95056 9.89365 5.00991 9.79884 5.05042C9.70403 5.09092 9.60197 5.11174 9.49886 5.11163C9.29368 5.10229 9.10001 5.01416 8.95819 4.86558C8.81636 4.71701 8.73734 4.51946 8.73755 4.31406Z" fill="#3D2139"/>
<path d="M13.5955 5.1119C13.4924 5.10865 13.391 5.08448 13.2975 5.04086C13.2041 4.99723 13.1204 4.93506 13.0517 4.85813C12.9796 4.7876 12.923 4.7028 12.8856 4.60917C12.8481 4.51553 12.8306 4.41512 12.8342 4.31434C12.8351 4.11204 12.9129 3.91765 13.0517 3.77053C13.1993 3.63292 13.3937 3.5564 13.5955 3.5564C13.7973 3.5564 13.9917 3.63292 14.1393 3.77053C14.2782 3.91765 14.3559 4.11204 14.3568 4.31434C14.3604 4.41512 14.3429 4.51553 14.3054 4.60917C14.268 4.7028 14.2114 4.7876 14.1393 4.85813C13.9958 5.00728 13.802 5.09773 13.5955 5.1119Z" fill="#3D2139"/>
<path d="M59.2377 7.83032H0.76123V46.6938H59.2377V7.83032Z" fill="#AA8FA2"/>
<path d="M59.2387 4.89794e-07H0.762179C0.659076 -0.000116477 0.557029 0.020717 0.462217 0.0612238C0.367404 0.101731 0.281806 0.161075 0.210616 0.235655C0.139426 0.310236 0.0841195 0.39849 0.0480641 0.495083C0.0120086 0.591677 -0.0040458 0.694591 0.000863934 0.797576V7.8307V46.6217C0.000863934 46.8236 0.0810762 47.0172 0.223851 47.16C0.366626 47.3028 0.560265 47.383 0.762179 47.383H59.2387C59.4406 47.383 59.6342 47.3028 59.777 47.16C59.9198 47.0172 60 46.8236 60 46.6217V7.86696V0.797576C60.0002 0.592181 59.9212 0.394615 59.7794 0.246041C59.6375 0.0974676 59.4439 0.00933653 59.2387 4.89794e-07ZM58.4411 1.55889V7.03314H1.52349V1.55889H58.4411ZM1.52349 45.8966V8.62828H58.4411V45.8966H1.52349Z" fill="#3D2139"/>
<path d="M29.9826 13.3772L13.8499 25.232H17.4752V40.2771H21.8981V28.096H28.0611V40.2771H42.8525V25.232H46.4778L29.9826 13.3772ZM38.357 34.2953H32.194V28.096H38.357V34.2953Z" fill="white"/>
<path d="M42.853 41.0387H27.8079C27.606 41.0387 27.4124 40.9584 27.2696 40.8157C27.1268 40.6729 27.0466 40.4793 27.0466 40.2773V28.8938H22.4062V40.2773C22.3973 40.4764 22.3143 40.665 22.1734 40.8059C22.0325 40.9468 21.844 41.0298 21.6449 41.0387H17.222C17.0201 41.0387 16.8264 40.9584 16.6837 40.8157C16.5409 40.6729 16.4607 40.4793 16.4607 40.2773V25.9936H13.8504C13.693 25.99 13.5401 25.9399 13.411 25.8496C13.282 25.7593 13.1826 25.6328 13.1254 25.486C13.066 25.3298 13.0625 25.1578 13.1153 24.9993C13.1682 24.8407 13.2742 24.7053 13.4154 24.6159L29.5481 12.8336C29.6767 12.7307 29.8365 12.6746 30.0013 12.6746C30.166 12.6746 30.3258 12.7307 30.4544 12.8336L46.7684 24.6884C46.8984 24.7871 46.9932 24.925 47.0389 25.0816C47.0845 25.2383 47.0787 25.4054 47.0222 25.5585C46.9693 25.7081 46.871 25.8375 46.741 25.9285C46.611 26.0195 46.4558 26.0676 46.2971 26.0661H43.5418V40.3498C43.5193 40.5246 43.4394 40.687 43.3148 40.8116C43.1902 40.9362 43.0278 41.0161 42.853 41.0387ZM28.6418 39.4798H42.0917V25.2322C42.0917 25.0303 42.1719 24.8367 42.3147 24.6939C42.4575 24.5511 42.6511 24.4709 42.853 24.4709H44.0131L30.0556 14.32L16.0981 24.4709H17.2945C17.4964 24.4709 17.69 24.5511 17.8328 24.6939C17.9756 24.8367 18.0558 25.0303 18.0558 25.2322V39.4798H20.9198V28.0962C20.9292 27.8911 21.0173 27.6974 21.1659 27.5556C21.3144 27.4138 21.512 27.3347 21.7174 27.3349H27.8804C28.0823 27.3349 28.276 27.4151 28.4188 27.5579C28.5616 27.7007 28.6418 27.8943 28.6418 28.0962V39.4798ZM38.4301 35.0569H32.2671C32.1641 35.0618 32.0612 35.0457 31.9646 35.0097C31.868 34.9736 31.7797 34.9183 31.7052 34.8471C31.6306 34.7759 31.5712 34.6903 31.5307 34.5955C31.4902 34.5007 31.4694 34.3987 31.4695 34.2955V28.0962C31.4788 27.8911 31.567 27.6974 31.7156 27.5556C31.8641 27.4138 32.0617 27.3347 32.2671 27.3349H38.4301C38.632 27.3349 38.8257 27.4151 38.9685 27.5579C39.1112 27.7007 39.1915 27.8943 39.1915 28.0962V34.2955C39.1919 34.4019 39.1701 34.5072 39.1274 34.6047C39.0847 34.7021 39.022 34.7895 38.9435 34.8612C38.8649 34.933 38.7722 34.9874 38.6713 35.0211C38.5704 35.0548 38.4635 35.067 38.3576 35.0569H38.4301ZM33.0284 33.5342H37.6688V28.8938H32.9559L33.0284 33.5342Z" fill="#3D2139"/>
</svg>
