<svg width="60" height="46" viewBox="0 0 60 46" fill="none" xmlns="http://www.w3.org/2000/svg">
<path d="M0 46L29 0H47V6.4L22 46" fill="#FBBC04"/>
<path d="M46.9995 46H28.9995V0H46.9995V46Z" fill="#1A73E8"/>
<path d="M59.9995 33.0002C59.9995 40.1802 54.1795 46.0002 46.9995 46.0002V20.0002C54.1795 20.0002 59.9995 25.8202 59.9995 33.0002Z" fill="#34A853"/>
<path d="M47 46.0002C39.82 46.0002 34 40.1802 34 33.0002C34 25.8202 39.82 20.0002 47 20.0002V46.0002Z" fill="#0D652D"/>
<path d="M56.9995 10C56.9995 15.522 52.5235 20 46.9995 20V0C52.5235 0 56.9995 4.478 56.9995 10Z" fill="#1A73E8"/>
<path d="M47 20C41.476 20 37 15.522 37 10C37 4.478 41.476 0 47 0V20Z" fill="#174EA6"/>
<path d="M1 9C1 4.03 5.03 0 10 0C14.97 0 19 4.03 19 9C19 13.97 14.97 18 10 18C5.03 18 1 13.97 1 9Z" fill="#1FA12E"/>
</svg>
