<svg width="49" height="60" viewBox="0 0 49 60" fill="none" xmlns="http://www.w3.org/2000/svg">
<path d="M24.0824 45.241C10.7339 45.241 0 48.6813 0 52.6721C0 56.6629 10.6995 60 24.0824 60C37.4653 60 48.1647 56.5597 48.1647 52.6033C48.1647 48.6469 37.3965 45.241 24.0824 45.241Z" fill="#D8D9DA"/>
<path d="M38.3955 0.723145H9.70309C6.92902 0.723145 4.68018 2.97197 4.68018 5.74603V49.3695C4.68018 52.1436 6.92902 54.3924 9.70309 54.3924H38.3955C41.1696 54.3924 43.4184 52.1436 43.4184 49.3695V5.74603C43.4184 2.97197 41.1696 0.723145 38.3955 0.723145Z" fill="#D9B1B5"/>
<path d="M38.3953 55.1486H9.70293C8.94844 55.1486 8.20133 55 7.50427 54.7113C6.80721 54.4225 6.17382 53.9993 5.64031 53.4658C5.10681 52.9323 4.68359 52.299 4.39486 51.6019C4.10613 50.9048 3.95752 50.1577 3.95752 49.4032V5.74536C3.95752 4.22159 4.56285 2.76024 5.64031 1.68278C6.71778 0.605314 8.17916 0 9.70293 0H38.3953C39.9191 0 41.3804 0.605314 42.4579 1.68278C43.5354 2.76024 44.1407 4.22159 44.1407 5.74536V49.4032C44.1407 50.1577 43.9921 50.9048 43.7034 51.6019C43.4146 52.299 42.9914 52.9323 42.4579 53.4658C41.9244 53.9993 41.2911 54.4225 40.594 54.7113C39.8969 55 39.1498 55.1486 38.3953 55.1486ZM9.70293 1.51374C9.1398 1.51373 8.58223 1.6252 8.0624 1.84174C7.54256 2.05827 7.07075 2.37558 6.67416 2.77537C6.27757 3.17515 5.96406 3.64951 5.75171 4.17106C5.53935 4.69262 5.43235 5.25106 5.43689 5.81417V49.4032C5.43689 50.5347 5.88635 51.6198 6.68639 52.4198C7.48642 53.2198 8.57151 53.6693 9.70293 53.6693H38.3953C39.5299 53.6693 40.6186 53.2209 41.4241 52.4219C42.2296 51.6228 42.6867 50.5378 42.6958 49.4032V5.74536C42.6777 4.61678 42.2166 3.54055 41.4121 2.74888C40.6076 1.95722 39.5241 1.5136 38.3953 1.51374H9.70293Z" fill="#4C3037"/>
<path d="M38.395 7.91309H9.70264V47.2361H38.395V7.91309Z" fill="white"/>
<path d="M38.3962 47.9584H9.70378C9.51217 47.9584 9.32839 47.8823 9.1929 47.7468C9.05741 47.6113 8.98129 47.4276 8.98129 47.2359V7.91288C8.97663 7.81515 8.99185 7.71749 9.02607 7.62583C9.06028 7.53416 9.11279 7.45041 9.18035 7.37964C9.24791 7.30886 9.32913 7.25255 9.4191 7.21411C9.50908 7.17567 9.60594 7.1559 9.70378 7.15601H38.3962C38.5969 7.15601 38.7894 7.23575 38.9314 7.37769C39.0733 7.51964 39.1531 7.71215 39.1531 7.91288V47.2359C39.1532 47.3338 39.1334 47.4306 39.095 47.5206C39.0565 47.6106 39.0002 47.6918 38.9294 47.7594C38.8587 47.8269 38.7749 47.8794 38.6832 47.9136C38.5916 47.9478 38.4939 47.9631 38.3962 47.9584ZM10.323 46.5135H37.8457V8.66976H10.323V46.5135Z" fill="#4C3037"/>
<path d="M28.4537 51.5365H19.8529C19.6613 51.5365 19.4775 51.4604 19.342 51.3249C19.2065 51.1894 19.1304 51.0056 19.1304 50.814C19.1304 50.6224 19.2065 50.4387 19.342 50.3032C19.4775 50.1677 19.6613 50.0916 19.8529 50.0916H28.4537C28.6453 50.0916 28.8291 50.1677 28.9645 50.3032C29.1 50.4387 29.1762 50.6224 29.1762 50.814C29.1762 51.0056 29.1 51.1894 28.9645 51.3249C28.8291 51.4604 28.6453 51.5365 28.4537 51.5365Z" fill="#4C3037"/>
<path d="M19.8869 4.95406C19.698 4.94565 19.519 4.86683 19.3853 4.73312C19.2516 4.59941 19.1728 4.4205 19.1644 4.23159C19.1598 4.13838 19.1741 4.04519 19.2066 3.95769C19.2391 3.8702 19.289 3.79023 19.3534 3.72265C19.4177 3.65506 19.4952 3.60129 19.581 3.56458C19.6668 3.52787 19.7592 3.509 19.8525 3.50912C19.9502 3.50446 20.0479 3.5197 20.1395 3.55391C20.2312 3.58813 20.315 3.6406 20.3857 3.70816C20.4565 3.77571 20.5128 3.85694 20.5513 3.94692C20.5897 4.03689 20.6095 4.13375 20.6094 4.23159C20.601 4.4205 20.5221 4.59941 20.3884 4.73312C20.2547 4.86683 20.0758 4.94565 19.8869 4.95406Z" fill="#4C3037"/>
<path d="M25.6335 4.95421C25.435 4.95496 25.2435 4.88111 25.0969 4.74729C24.9504 4.61347 24.8594 4.42946 24.8422 4.23175C24.8422 4.04013 24.9183 3.85636 25.0538 3.72087C25.1893 3.58538 25.373 3.50928 25.5646 3.50928C25.7562 3.50928 25.94 3.58538 26.0755 3.72087C26.211 3.85636 26.2871 4.04013 26.2871 4.23175C26.2807 4.40986 26.2116 4.57998 26.092 4.71214C25.9724 4.84431 25.81 4.93003 25.6335 4.95421ZM22.778 4.95421C22.5795 4.95496 22.388 4.88111 22.2415 4.74729C22.0949 4.61347 22.004 4.42946 21.9867 4.23175C21.982 4.13853 21.9964 4.04534 22.0289 3.95785C22.0613 3.87036 22.1113 3.79038 22.1756 3.7228C22.24 3.65522 22.3174 3.60145 22.4033 3.56474C22.4891 3.52803 22.5814 3.50916 22.6748 3.50928C22.8664 3.50928 23.0502 3.58538 23.1856 3.72087C23.3211 3.85636 23.3973 4.04013 23.3973 4.23175C23.3923 4.40484 23.3281 4.57098 23.2154 4.70246C23.1027 4.83394 22.9483 4.9228 22.778 4.95421Z" fill="#4C3037"/>
<path d="M28.4541 4.95421C28.2592 4.95441 28.0718 4.87941 27.9308 4.74482C27.7898 4.61024 27.7061 4.42646 27.6973 4.23175C27.6973 4.04013 27.7734 3.85636 27.9089 3.72087C28.0444 3.58538 28.2281 3.50928 28.4197 3.50928C28.6113 3.50928 28.7951 3.58538 28.9306 3.72087C29.0661 3.85636 29.1422 4.04013 29.1422 4.23175C29.1424 4.41754 29.071 4.59628 28.9429 4.73082C28.8147 4.86536 28.6397 4.94537 28.4541 4.95421Z" fill="#4C3037"/>
<path d="M33.6117 22.1559C33.6152 20.4678 33.1718 18.8089 32.3266 17.3476C31.4814 15.8864 30.2646 14.6749 28.7996 13.8361C27.3347 12.9974 25.6738 12.5613 23.9858 12.5722C22.2978 12.5831 20.6427 13.0406 19.1887 13.8982C17.7347 14.7557 16.5336 15.9829 15.7074 17.4549C14.8811 18.9269 14.4592 20.5914 14.4845 22.2793C14.5097 23.9672 14.9813 25.6183 15.8512 27.0649C16.7212 28.5116 17.9584 29.7022 19.4375 30.5159C18.8888 29.7555 18.5994 28.8388 18.6118 27.9012C18.6495 26.7729 18.9642 25.6713 19.5281 24.6933C20.0921 23.7153 20.888 22.8912 21.8457 22.2935C21.129 21.5 20.7254 20.4728 20.7104 19.4036C20.5956 18.8998 20.5957 18.3765 20.7108 17.8728C20.826 17.369 21.0531 16.8977 21.3753 16.4937C21.6976 16.0897 22.1067 15.7635 22.5723 15.5394C23.0379 15.3152 23.548 15.1988 24.0647 15.1988C24.5815 15.1988 25.0916 15.3152 25.5572 15.5394C26.0228 15.7635 26.4319 16.0897 26.7542 16.4937C27.0764 16.8977 27.3035 17.369 27.4187 17.8728C27.5338 18.3765 27.5339 18.8998 27.4191 19.4036C27.4077 20.48 26.9899 21.5123 26.2494 22.2935C27.2455 22.8665 28.0822 23.68 28.6832 24.6595C29.2841 25.6391 29.6302 26.7536 29.6897 27.9012C29.7051 28.8447 29.4021 29.7658 28.8296 30.5159C30.2998 29.6754 31.5184 28.4571 32.3592 26.9872C33.2 25.5172 33.6325 23.8492 33.6117 22.1559Z" fill="#D9B1B5"/>
<path d="M24.0833 12.0066C21.8157 12.0359 19.6208 12.8112 17.8379 14.2127C16.0551 15.6143 14.7834 17.5641 14.2196 19.7607C13.6558 21.9573 13.8311 24.2785 14.7185 26.3655C15.6059 28.4525 17.156 30.1891 19.1292 31.3069C20.7082 32.1709 22.4857 32.607 24.2853 32.5719C26.0849 32.5367 27.844 32.0316 29.388 31.1066C30.9321 30.1815 32.2074 28.8688 33.0873 27.2986C33.9673 25.7284 34.4213 23.9554 34.4043 22.1556C34.3592 19.4482 33.2519 16.867 31.3212 14.9685C29.3905 13.07 26.7911 12.0062 24.0833 12.0066ZM19.9893 30.1028V29.8964V29.6899C19.9764 29.5871 19.9764 29.4831 19.9893 29.3803C19.9744 29.3123 19.9744 29.2419 19.9893 29.1739V28.7954C19.9711 28.6009 19.9711 28.4051 19.9893 28.2106C20.0194 27.2974 20.2545 26.4027 20.6774 25.5928C21.1002 24.7828 21.6999 24.0784 22.432 23.5317L22.948 23.9102C23.4828 24.2164 24.0864 24.3821 24.7026 24.3918C25.32 24.3916 25.9261 24.2253 26.4572 23.9102L26.9732 23.5317C27.7053 24.0784 28.305 24.7828 28.7278 25.5928C29.1506 26.4027 29.3858 27.2974 29.4159 28.2106C29.4341 28.4051 29.4341 28.6009 29.4159 28.7954C29.4159 28.7954 29.4159 28.7954 29.4159 29.0019C29.4159 29.2083 29.4159 29.2427 29.4159 29.3459V29.5523V29.862V30.0684V30.2748C27.9818 31.1374 26.3339 31.5788 24.6607 31.5484C22.9875 31.518 21.3566 31.017 19.9549 30.1028H19.9893ZM25.7691 21.9492L25.3907 22.2932C25.0861 22.5281 24.7229 22.6748 24.3407 22.7173C23.9585 22.7597 23.5719 22.6963 23.2232 22.534C22.9303 22.382 22.6633 22.1846 22.432 21.9492C21.809 21.3028 21.4633 20.4386 21.4687 19.5409C21.4687 18.8475 21.7441 18.1824 22.2345 17.6921C22.7248 17.2017 23.3899 16.9263 24.0833 16.9263C24.7768 16.9263 25.4418 17.2017 25.9322 17.6921C26.4225 18.1824 26.698 18.8475 26.698 19.5409C26.6797 20.434 26.3373 21.2899 25.7347 21.9492H25.7691ZM30.2415 28.6234C30.2415 28.4514 30.2415 28.245 30.2415 28.0386C30.2572 27.7521 30.2572 27.465 30.2415 27.1785C30.2415 27.1785 30.2415 27.0065 30.2415 26.9033C30.2581 26.7087 30.2581 26.513 30.2415 26.3184V25.9744C30.1998 25.7975 30.1422 25.6248 30.0695 25.4583C30.0638 25.3437 30.0638 25.2289 30.0695 25.1143C29.9689 24.9647 29.8879 24.8029 29.8287 24.6326L29.6223 24.323L29.3127 23.8758L29.1062 23.5661L28.7622 23.1533L28.5213 22.8781L28.0741 22.4652L27.5237 22.1556C27.6593 21.9923 27.7642 21.8058 27.8333 21.6051L28.0397 21.0891C28.0397 21.0891 28.0397 20.7106 28.0397 20.4698C28.0566 20.2637 28.0566 20.0566 28.0397 19.8506C28.0918 19.2837 28.0252 18.7122 27.844 18.1726C27.6628 17.633 27.3711 17.137 26.9875 16.7165C26.6038 16.296 26.1367 15.96 25.6159 15.7302C25.0952 15.5004 24.5321 15.3817 23.9629 15.3817C23.3937 15.3817 22.8307 15.5004 22.3099 15.7302C21.7891 15.96 21.322 16.296 20.9384 16.7165C20.5547 17.137 20.263 17.633 20.0818 18.1726C19.9006 18.7122 19.834 19.2837 19.8861 19.8506C19.869 20.0566 19.869 20.2638 19.8861 20.4698C19.8701 20.6759 19.8701 20.883 19.8861 21.0891C19.9183 21.2843 19.9884 21.4713 20.0925 21.6395L20.643 22.1556L20.4366 22.3276L19.9549 22.7404L19.7485 23.0157L19.3701 23.4285L19.1637 23.7381L18.854 24.1854L18.682 24.495C18.682 24.667 18.51 24.8391 18.4412 24.9767C18.4329 25.0912 18.4329 25.2062 18.4412 25.3207C18.3577 25.4865 18.2886 25.6591 18.2348 25.8368V26.1808C18.2182 26.3754 18.2182 26.571 18.2348 26.7656C18.2348 26.7656 18.2348 26.7656 18.2348 27.0409C18.2021 27.3266 18.2021 27.6152 18.2348 27.9009C18.2165 28.0955 18.2165 28.2913 18.2348 28.4858C17.378 27.6687 16.6955 26.6866 16.2284 25.5986C15.7613 24.5107 15.5193 23.3395 15.5169 22.1556C15.5145 20.6954 15.8739 19.2574 16.5628 17.9699C17.2517 16.6825 18.2487 15.5857 19.4649 14.7775C20.681 13.9693 22.0784 13.4749 23.5322 13.3384C24.986 13.202 26.451 13.4277 27.7963 13.9954C29.1416 14.5632 30.3253 15.4553 31.2418 16.592C32.1583 17.7288 32.7789 19.0748 33.0484 20.51C33.3178 21.9451 33.2276 23.4246 32.7859 24.8163C32.3441 26.2081 31.5645 27.4688 30.5167 28.4858L30.2415 28.6234Z" fill="#4C3037"/>
<path d="M19.3354 35.0576V39.1172V43.1768H33.6129V39.1172V35.0576H19.3354Z" fill="#D9B1B5"/>
<path d="M33.6125 34.3345H14.4842C14.2926 34.3345 14.1088 34.4106 13.9733 34.5461C13.8378 34.6816 13.7617 34.8653 13.7617 35.0569V43.1761C13.7617 43.3678 13.8378 43.5515 13.9733 43.687C14.1088 43.8225 14.2926 43.8986 14.4842 43.8986H33.6125C33.8041 43.8986 33.9878 43.8225 34.1233 43.687C34.2588 43.5515 34.3349 43.3678 34.3349 43.1761V35.0569C34.3349 34.8653 34.2588 34.6816 34.1233 34.5461C33.9878 34.4106 33.8041 34.3345 33.6125 34.3345ZM32.89 38.3941H20.0575V35.917H32.89V38.3941ZM15.2067 35.917H18.647V38.5317H15.2067V35.917ZM15.2067 39.9766H18.647V42.5913H15.2067V39.9766ZM32.89 42.5913H20.0575V39.9766H32.89V42.5913Z" fill="#4C3037"/>
</svg>
