<svg width="60" height="59" viewBox="0 0 60 59" fill="none" xmlns="http://www.w3.org/2000/svg">
<path d="M28.9455 44.2295C16.3547 44.2295 6.23022 47.4745 6.23022 51.2388C6.23022 55.003 16.4521 58.2156 28.9455 58.2156C41.4389 58.2156 51.6608 54.9706 51.6608 51.2388C51.6608 47.507 41.5687 44.2295 28.9455 44.2295Z" fill="#D8D9DA"/>
<path d="M46.1096 35.6954V0.681396H0.776367V35.6954H19.338V42.4775H11.0956V45.755H35.7903V42.4775H27.5479V35.6954H46.1096Z" fill="#D9B1B5"/>
<path d="M41.99 4.80249H4.89917V31.5741H41.99V4.80249Z" fill="white"/>
<path d="M41.9903 32.2552H4.89947C4.71874 32.2552 4.54541 32.1834 4.41761 32.0556C4.28982 31.9278 4.21802 31.7545 4.21802 31.5737V4.96441C4.21802 4.78368 4.28982 4.61035 4.41761 4.48256C4.54541 4.35476 4.71874 4.28296 4.89947 4.28296H41.9903C42.171 4.28296 42.3443 4.35476 42.4721 4.48256C42.5999 4.61035 42.6717 4.78368 42.6717 4.96441V31.736C42.6347 31.8874 42.5468 32.0216 42.4228 32.1161C42.2988 32.2105 42.1461 32.2597 41.9903 32.2552ZM5.58093 30.9247H41.2764V5.51606H5.58093V30.9247Z" fill="#4C3037"/>
<path d="M46.112 0H0.681467C0.500734 0 0.327395 0.0717982 0.199596 0.199596C0.0717982 0.327395 0 0.500721 0 0.681455V35.6954C0 35.8762 0.0717982 36.0495 0.199596 36.1773C0.327395 36.3051 0.500734 36.3769 0.681467 36.3769H18.5292V41.7961H11.098C10.9142 41.7959 10.7373 41.8666 10.6044 41.9936C10.4714 42.1205 10.3925 42.2939 10.3841 42.4775V45.7226C10.384 45.8149 10.4027 45.9062 10.4389 45.9911C10.4752 46.076 10.5283 46.1526 10.5951 46.2163C10.6618 46.28 10.7408 46.3295 10.8273 46.3618C10.9137 46.3941 11.0059 46.4084 11.098 46.404H35.955C36.0472 46.4084 36.1393 46.3941 36.2258 46.3618C36.3123 46.3295 36.3913 46.28 36.458 46.2163C36.5248 46.1526 36.5779 46.076 36.6141 45.9911C36.6504 45.9062 36.669 45.8149 36.6689 45.7226V42.4775C36.6606 42.2939 36.5817 42.1205 36.4487 41.9936C36.3157 41.8666 36.1389 41.7959 35.955 41.7961H28.2643V36.3769H46.112C46.2927 36.3769 46.4661 36.3051 46.5939 36.1773C46.7217 36.0495 46.7935 35.8762 46.7935 35.6954V0.681455C46.7935 0.500721 46.7217 0.327395 46.5939 0.199596C46.4661 0.0717982 46.2927 0 46.112 0ZM35.1113 45.0736H11.7795V43.159H35.1113V45.0736ZM26.8689 41.8285H20.0219V36.4093H26.8689V41.8285ZM45.4305 35.0464H1.46027V1.36291H45.4305V35.0464Z" fill="#4C3037"/>
<path d="M56.1706 20.6379H36.96C35.2395 20.6379 33.8447 22.0327 33.8447 23.7532V47.6042C33.8447 49.3247 35.2395 50.7194 36.96 50.7194H56.1706C57.8911 50.7194 59.2858 49.3247 59.2858 47.6042V23.7532C59.2858 22.0327 57.8911 20.6379 56.1706 20.6379Z" fill="#D9B1B5"/>
<path d="M55.7813 51.4012H37.3819C36.263 51.4012 35.19 50.9567 34.3989 50.1656C33.6078 49.3745 33.1633 48.3015 33.1633 47.1827V24.1753C33.1718 23.0591 33.619 21.9911 34.4083 21.2018C35.1976 20.4125 36.2657 19.9653 37.3819 19.9568H55.7813C56.9001 19.9568 57.9731 20.4012 58.7642 21.1924C59.5553 21.9835 59.9998 23.0565 59.9998 24.1753V47.1502C60.0041 47.7069 59.8981 48.259 59.688 48.7745C59.478 49.2901 59.1679 49.759 58.7757 50.1542C58.3836 50.5493 57.9171 50.863 57.4032 51.077C56.8892 51.291 56.338 51.4012 55.7813 51.4012ZM37.3819 21.3522C36.6331 21.3522 35.915 21.6496 35.3856 22.179C34.8561 22.7085 34.5587 23.4266 34.5587 24.1753V47.1502C34.5544 47.5237 34.6243 47.8943 34.7642 48.2406C34.9042 48.5868 35.1114 48.9019 35.374 49.1675C35.6366 49.4331 35.9493 49.644 36.294 49.7879C36.6386 49.9318 37.0084 50.0058 37.3819 50.0058H55.7813C56.159 50.0101 56.5338 49.9394 56.884 49.7978C57.2342 49.6562 57.5529 49.4466 57.8215 49.181C58.0901 48.9154 58.3034 48.5991 58.4489 48.2506C58.5944 47.902 58.6694 47.528 58.6693 47.1502V24.1429C58.6608 23.3912 58.3562 22.6731 57.8216 22.1446C57.2869 21.616 56.5655 21.3196 55.8137 21.3197L37.3819 21.3522Z" fill="#4C3037"/>
<path d="M55.6835 24.2727H37.5112V45.5602H55.6835V24.2727Z" fill="white"/>
<path d="M55.6845 46.2737H37.5123C37.3229 46.2737 37.1413 46.1985 37.0074 46.0646C36.8736 45.9308 36.7983 45.7492 36.7983 45.5598V24.4346C36.8067 24.251 36.8856 24.0776 37.0186 23.9507C37.1516 23.8237 37.3284 23.753 37.5123 23.7532H55.6845C55.8627 23.7611 56.0314 23.8354 56.1575 23.9616C56.2837 24.0877 56.358 24.2564 56.3659 24.4346V45.7221C56.3299 45.8767 56.2433 46.0149 56.1199 46.1149C55.9964 46.2148 55.8432 46.2707 55.6845 46.2737ZM38.1937 44.8784H55.003V24.9863H38.1937V44.8784Z" fill="#4C3037"/>
<path d="M48.9334 48.8051H44.1631C43.9824 48.8051 43.8091 48.7333 43.6813 48.6055C43.5535 48.4777 43.4817 48.3044 43.4817 48.1236C43.4817 47.9429 43.5535 47.7695 43.6813 47.6417C43.8091 47.5139 43.9824 47.4421 44.1631 47.4421H48.9334C49.1141 47.4421 49.2874 47.5139 49.4152 47.6417C49.543 47.7695 49.6148 47.9429 49.6148 48.1236C49.6148 48.3044 49.543 48.4777 49.4152 48.6055C49.2874 48.7333 49.1141 48.8051 48.9334 48.8051Z" fill="#4C3037"/>
<path d="M37.6412 8.69653H9.24707V14.4727H37.6412V8.69653Z" fill="#D9B1B5"/>
<path d="M37.642 15.1217H9.2479C9.06717 15.1217 8.89383 15.0499 8.76603 14.9221C8.63823 14.7943 8.56645 14.621 8.56645 14.4403V8.69658C8.56205 8.6044 8.57642 8.51226 8.6087 8.4258C8.64097 8.33934 8.69047 8.26036 8.7542 8.1936C8.81792 8.12685 8.89453 8.07371 8.97939 8.03746C9.06426 8.0012 9.15561 7.98256 9.2479 7.98267H37.642C37.7343 7.98256 37.8256 8.0012 37.9105 8.03746C37.9954 8.07371 38.072 8.12685 38.1357 8.1936C38.1994 8.26036 38.2489 8.33934 38.2812 8.4258C38.3135 8.51226 38.3278 8.6044 38.3234 8.69658V14.4403C38.3234 14.621 38.2516 14.7943 38.1238 14.9221C37.996 15.0499 37.8227 15.1217 37.642 15.1217ZM9.99426 13.7588H37.0254V9.37803H9.99426V13.7588Z" fill="#4C3037"/>
<path d="M52.2122 27.8418H40.9844V31.5411H52.2122V27.8418Z" fill="#D9B1B5"/>
<path d="M52.1777 32.2229H40.9823C40.8015 32.2229 40.6282 32.1511 40.5004 32.0233C40.3726 31.8955 40.3008 31.7222 40.3008 31.5414V27.8421C40.2964 27.7499 40.3108 27.6578 40.3431 27.5713C40.3753 27.4849 40.4248 27.4058 40.4886 27.3391C40.5523 27.2723 40.6289 27.2192 40.7138 27.183C40.7986 27.1467 40.89 27.1281 40.9823 27.1282H52.1777C52.3613 27.1365 52.5347 27.2154 52.6616 27.3484C52.7886 27.4814 52.8593 27.6582 52.8591 27.8421V31.5414C52.8512 31.7196 52.7769 31.8884 52.6507 32.0145C52.5246 32.1406 52.3558 32.215 52.1777 32.2229ZM41.6637 30.9249H51.3988V28.5884H41.6637V30.9249Z" fill="#4C3037"/>
<path d="M17.5868 17.8477H9.24707V27.6801H17.5868V17.8477Z" fill="#D9B1B5"/>
<path d="M17.5869 28.3934H9.24713C9.0664 28.3934 8.89306 28.3216 8.76526 28.1938C8.63746 28.066 8.56567 27.8927 8.56567 27.712V17.9769C8.56567 17.7961 8.63746 17.6228 8.76526 17.495C8.89306 17.3672 9.0664 17.2954 9.24713 17.2954H17.5869C17.7707 17.2952 17.9476 17.366 18.0805 17.4929C18.2135 17.6198 18.2924 17.7932 18.3008 17.9769V27.712C18.2924 27.8956 18.2135 28.069 18.0805 28.1959C17.9476 28.3229 17.7707 28.3936 17.5869 28.3934ZM9.99349 27.0305H16.9703V18.561H9.99349V27.0305Z" fill="#4C3037"/>
<path d="M30.2408 18.5616H21.2845C21.1251 18.5271 20.9824 18.439 20.8801 18.312C20.7777 18.1851 20.7219 18.027 20.7219 17.8639C20.7219 17.7009 20.7777 17.5427 20.8801 17.4158C20.9824 17.2889 21.1251 17.2008 21.2845 17.1663H30.2408C30.4002 17.2008 30.5429 17.2889 30.6452 17.4158C30.7476 17.5427 30.8034 17.7009 30.8034 17.8639C30.8034 18.027 30.7476 18.1851 30.6452 18.312C30.5429 18.439 30.4002 18.5271 30.2408 18.5616Z" fill="#4C3037"/>
<path d="M30.2425 21.871H21.2862C21.108 21.863 20.9392 21.7887 20.8131 21.6626C20.687 21.5365 20.6127 21.3677 20.6047 21.1895C20.6047 21.0088 20.6765 20.8355 20.8043 20.7077C20.9321 20.5799 21.1055 20.5081 21.2862 20.5081H30.2425C30.4232 20.5081 30.5966 20.5799 30.7244 20.7077C30.8522 20.8355 30.924 21.0088 30.924 21.1895C30.916 21.3677 30.8417 21.5365 30.7156 21.6626C30.5894 21.7887 30.4207 21.863 30.2425 21.871Z" fill="#4C3037"/>
<path d="M30.2425 25.1811H21.2862C21.108 25.1731 20.9392 25.0988 20.8131 24.9726C20.687 24.8465 20.6127 24.6778 20.6047 24.4996C20.6047 24.3188 20.6765 24.1455 20.8043 24.0177C20.9321 23.8899 21.1055 23.8181 21.2862 23.8181H30.2425C30.4232 23.8181 30.5966 23.8899 30.7244 24.0177C30.8522 24.1455 30.924 24.3188 30.924 24.4996C30.916 24.6778 30.8417 24.8465 30.7156 24.9726C30.5894 25.0988 30.4207 25.1731 30.2425 25.1811Z" fill="#4C3037"/>
<path d="M28.0034 28.3934H21.2862C21.108 28.3855 20.9392 28.3112 20.8131 28.185C20.687 28.0589 20.6127 27.8902 20.6047 27.712C20.6047 27.5312 20.6765 27.3579 20.8043 27.2301C20.9321 27.1023 21.1055 27.0305 21.2862 27.0305H28.0034C28.1842 27.0305 28.3575 27.1023 28.4853 27.2301C28.6131 27.3579 28.6849 27.5312 28.6849 27.712C28.6849 27.8927 28.6131 28.066 28.4853 28.1938C28.3575 28.3216 28.1842 28.3934 28.0034 28.3934Z" fill="#4C3037"/>
<path d="M52.6002 35.7924H40.918C40.7373 35.7924 40.564 35.7206 40.4362 35.5928C40.3084 35.465 40.2366 35.2916 40.2366 35.1109C40.2366 34.9302 40.3084 34.7568 40.4362 34.629C40.564 34.5012 40.7373 34.4294 40.918 34.4294H52.6002C52.7809 34.4294 52.9542 34.5012 53.082 34.629C53.2098 34.7568 53.2816 34.9302 53.2816 35.1109C53.2816 35.2916 53.2098 35.465 53.082 35.5928C52.9542 35.7206 52.7809 35.7924 52.6002 35.7924Z" fill="#4C3037"/>
<path d="M52.6009 39.2648H40.9188C40.7381 39.2648 40.5647 39.193 40.4369 39.0652C40.3091 38.9374 40.2373 38.764 40.2373 38.5833C40.233 38.4911 40.2473 38.399 40.2796 38.3125C40.3119 38.2261 40.3614 38.1471 40.4251 38.0803C40.4888 38.0136 40.5654 37.9604 40.6503 37.9242C40.7352 37.8879 40.8265 37.8693 40.9188 37.8694H52.6009C52.6932 37.8693 52.7846 37.8879 52.8694 37.9242C52.9543 37.9604 53.0309 38.0136 53.0947 38.0803C53.1584 38.1471 53.2079 38.2261 53.2402 38.3125C53.2724 38.399 53.2868 38.4911 53.2824 38.5833C53.2824 38.764 53.2106 38.9374 53.0828 39.0652C52.955 39.193 52.7817 39.2648 52.6009 39.2648Z" fill="#4C3037"/>
<path d="M49.5831 42.7368H40.9188C40.8265 42.7369 40.7352 42.7183 40.6503 42.682C40.5654 42.6457 40.4888 42.5926 40.4251 42.5258C40.3614 42.4591 40.3119 42.3801 40.2796 42.2936C40.2473 42.2072 40.233 42.1151 40.2373 42.0229C40.2373 41.8421 40.3091 41.6688 40.4369 41.541C40.5647 41.4132 40.7381 41.3414 40.9188 41.3414H49.5831C49.6872 41.3188 49.7951 41.3198 49.8989 41.3444C50.0026 41.369 50.0995 41.4164 50.1825 41.4834C50.2655 41.5503 50.3324 41.6349 50.3784 41.7311C50.4244 41.8272 50.4483 41.9325 50.4483 42.0391C50.4483 42.1457 50.4244 42.251 50.3784 42.3471C50.3324 42.4433 50.2655 42.5279 50.1825 42.5948C50.0995 42.6618 50.0026 42.7092 49.8989 42.7338C49.7951 42.7584 49.6872 42.7594 49.5831 42.7368Z" fill="#4C3037"/>
</svg>
