<svg width="60" height="57" viewBox="0 0 60 57" fill="none" xmlns="http://www.w3.org/2000/svg">
<path d="M30.0953 42.0518C17.4242 42.0518 7.29395 45.3091 7.29395 49.0876C7.29395 52.8661 17.522 56.0909 30.0953 56.0909C42.6685 56.0909 52.8966 52.8335 52.8966 49.0876C52.8966 45.3417 42.7337 42.0518 30.0953 42.0518Z" fill="#D8D9DA"/>
<path d="M56.9705 0.683838H3.02912C1.73386 0.683838 0.683838 1.73386 0.683838 3.02912V36.6122C0.683838 37.9074 1.73386 38.9575 3.02912 38.9575H56.9705C58.2657 38.9575 59.3158 37.9074 59.3158 36.6122V3.02912C59.3158 1.73386 58.2657 0.683838 56.9705 0.683838Z" fill="#F7BE56"/>
<path d="M44.6578 44.1042H15.3418V48.5994H44.6578V44.1042Z" fill="#F7BE56"/>
<path d="M44.658 49.2836H15.342C15.1606 49.2836 14.9866 49.2115 14.8583 49.0833C14.73 48.955 14.658 48.781 14.658 48.5996V44.1045C14.658 43.9231 14.73 43.749 14.8583 43.6208C14.9866 43.4925 15.1606 43.4204 15.342 43.4204H44.658C44.8394 43.4204 45.0134 43.4925 45.1416 43.6208C45.2699 43.749 45.342 43.9231 45.342 44.1045V48.5996C45.342 48.781 45.2699 48.955 45.1416 49.0833C45.0134 49.2115 44.8394 49.2836 44.658 49.2836ZM16.026 47.9155H43.9739V44.6582H16.026V47.9155Z" fill="#703407"/>
<path d="M55.2776 4.7229H4.72388V33.1268H55.2776V4.7229Z" fill="white"/>
<path d="M55.2744 33.8111H4.72066C4.53924 33.8111 4.36526 33.739 4.23697 33.6107C4.10869 33.4824 4.03662 33.3084 4.03662 33.127V4.7231C4.03662 4.54168 4.10869 4.3677 4.23697 4.23941C4.36526 4.11113 4.53924 4.03906 4.72066 4.03906H55.2744C55.4558 4.03906 55.6298 4.11113 55.7581 4.23941C55.8864 4.3677 55.9585 4.54168 55.9585 4.7231V33.127C55.9585 33.3084 55.8864 33.4824 55.7581 33.6107C55.6298 33.739 55.4558 33.8111 55.2744 33.8111ZM5.40469 32.443H54.6555V5.43972H5.40469V32.443Z" fill="#703407"/>
<path d="M35.1126 36.7422H25.3406C25.1592 36.7422 24.9852 36.6701 24.8569 36.5419C24.7286 36.4136 24.6565 36.2396 24.6565 36.0582C24.6521 35.9656 24.6666 35.8732 24.699 35.7864C24.7314 35.6996 24.781 35.6203 24.845 35.5533C24.9089 35.4863 24.9859 35.4329 25.0711 35.3965C25.1562 35.3602 25.2479 35.3414 25.3406 35.3416H35.1126C35.2052 35.3414 35.2969 35.3602 35.3821 35.3965C35.4673 35.4329 35.5442 35.4863 35.6081 35.5533C35.6721 35.6203 35.7218 35.6996 35.7542 35.7864C35.7866 35.8732 35.801 35.9656 35.7966 36.0582C35.7966 36.2396 35.7245 36.4136 35.5962 36.5419C35.468 36.6701 35.294 36.7422 35.1126 36.7422Z" fill="#703407"/>
<path d="M34.8858 38.9575H25.1138V45.6025H34.8858V38.9575Z" fill="white"/>
<path d="M56.9707 0H3.02932C2.6315 0 2.23758 0.0783592 1.87005 0.230597C1.50251 0.382834 1.16857 0.605948 0.887271 0.887246C0.605973 1.16854 0.382834 1.50251 0.230597 1.87005C0.0783592 2.23758 0 2.6315 0 3.02932V36.6124C0 37.0102 0.0783592 37.4041 0.230597 37.7716C0.382834 38.1392 0.605973 38.4731 0.887271 38.7544C1.16857 39.0357 1.50251 39.2589 1.87005 39.4111C2.23758 39.5633 2.6315 39.6417 3.02932 39.6417H24.43V45.6026C24.4256 45.6951 24.44 45.7876 24.4724 45.8744C24.5048 45.9612 24.5545 46.0405 24.6184 46.1075C24.6824 46.1745 24.7593 46.2278 24.8445 46.2642C24.9297 46.3006 25.0214 46.3193 25.114 46.3192H34.886C34.9786 46.3193 35.0703 46.3006 35.1555 46.2642C35.2407 46.2278 35.3176 46.1745 35.3816 46.1075C35.4455 46.0405 35.4952 45.9612 35.5276 45.8744C35.56 45.7876 35.5744 45.6951 35.57 45.6026V39.6417H56.9707C57.3685 39.6417 57.7624 39.5633 58.13 39.4111C58.4975 39.2589 58.8314 39.0357 59.1127 38.7544C59.394 38.4731 59.6172 38.1392 59.7694 37.7716C59.9216 37.4041 60 37.0102 60 36.6124V3.02932C60 2.22589 59.6808 1.45535 59.1127 0.887246C58.5446 0.319139 57.7741 0 56.9707 0ZM34.1694 44.9186H25.7655V39.6417H34.1694V44.9186ZM58.5993 36.6124C58.5993 37.053 58.4243 37.4755 58.1128 37.7871C57.8012 38.0986 57.3787 38.2736 56.9381 38.2736H3.02932C2.58873 38.2736 2.16618 38.0986 1.85464 37.7871C1.5431 37.4755 1.36807 37.053 1.36807 36.6124V3.02932C1.36803 2.81267 1.41121 2.59819 1.49509 2.39844C1.57897 2.19869 1.70185 2.01766 1.85655 1.866C2.01125 1.71433 2.19468 1.59505 2.39605 1.51514C2.59743 1.43524 2.81271 1.39632 3.02932 1.40065H56.9707C57.1873 1.39632 57.4026 1.43524 57.6039 1.51514C57.8053 1.59505 57.9887 1.71433 58.1434 1.866C58.2981 2.01766 58.421 2.19869 58.5049 2.39844C58.5888 2.59819 58.632 2.81267 58.6319 3.02932L58.5993 36.6124Z" fill="#703407"/>
<path d="M43.9395 24.3321C45.2393 22.2333 45.7225 19.73 45.2972 17.2982C44.8718 14.8665 43.5676 12.6758 41.6325 11.1429C39.6975 9.60994 37.2665 8.84164 34.8019 8.98406C32.3373 9.12647 30.011 10.1697 28.2654 11.9153C26.5198 13.6609 25.4766 15.9872 25.3342 18.4518C25.1917 20.9164 25.9601 23.3473 27.493 25.2824C29.0259 27.2175 31.2166 28.5217 33.6484 28.9471C36.0801 29.3724 38.5834 28.8892 40.6822 27.5894L47.6854 34.5926C48.5493 34.5926 49.3778 34.2495 49.9887 33.6386C50.5996 33.0277 50.9428 32.1992 50.9428 31.3353L43.9395 24.3321Z" fill="#F7BE56"/>
<path d="M35.4395 12.4106C36.7279 12.4106 37.9875 12.7927 39.0588 13.5086C40.1302 14.2244 40.9652 15.2419 41.4582 16.4323C41.9513 17.6227 42.0803 18.9325 41.8289 20.1963C41.5776 21.46 40.9571 22.6208 40.046 23.5319C39.1349 24.443 37.9741 25.0634 36.7104 25.3148C35.4467 25.5662 34.1368 25.4371 32.9464 24.9441C31.756 24.451 30.7386 23.616 30.0227 22.5446C29.3069 21.4733 28.9248 20.2138 28.9248 18.9253C28.9248 17.1975 29.6112 15.5405 30.8329 14.3187C32.0546 13.097 33.7117 12.4106 35.4395 12.4106Z" fill="white"/>
<path d="M47.7529 34.4955L49.3165 36.059C49.5264 36.2798 49.779 36.4555 50.059 36.5756C50.339 36.6958 50.6405 36.7577 50.9451 36.7577C51.2498 36.7577 51.5512 36.6958 51.8312 36.5756C52.1112 36.4555 52.3638 36.2798 52.5738 36.059C52.7988 35.8516 52.9784 35.5998 53.1013 35.3195C53.2241 35.0391 53.2876 34.7364 53.2876 34.4303C53.2876 34.1243 53.2241 33.8215 53.1013 33.5412C52.9784 33.2609 52.7988 33.0091 52.5738 32.8017L50.9777 31.2056C50.982 31.6333 50.902 32.0578 50.7423 32.4546C50.5825 32.8514 50.3462 33.2129 50.0467 33.5184C49.7473 33.8239 49.3906 34.0675 48.997 34.2351C48.6034 34.4027 48.1807 34.4912 47.7529 34.4955Z" fill="white"/>
<path d="M52.9968 32.4099L51.4007 30.8138L44.8861 24.2992C46.0067 22.2517 46.4238 19.8927 46.0732 17.5851C45.7225 15.2774 44.6236 13.1488 42.9453 11.5266C41.267 9.90439 39.1023 8.87837 36.7841 8.60631C34.4659 8.33424 32.1225 8.83119 30.1142 10.0208C28.1059 11.2103 26.544 13.0266 25.6686 15.1904C24.7932 17.3542 24.6528 19.7456 25.2689 21.9969C25.8851 24.2483 27.2237 26.2349 29.079 27.6513C30.9342 29.0677 33.2034 29.8355 35.5375 29.8366C37.3622 29.8262 39.1548 29.3557 40.7493 28.4686L47.2639 34.9832L48.86 36.5793C49.4086 37.1322 50.1543 37.4445 50.9332 37.4476C51.7121 37.4506 52.4602 37.1442 53.0131 36.5956C53.566 36.047 53.8783 35.3013 53.8814 34.5224C53.8844 33.7436 53.578 32.9954 53.0294 32.4425L52.9968 32.4099ZM28.86 25.6021C27.5529 24.305 26.6596 22.6495 26.2928 20.8449C25.9261 19.0403 26.1024 17.1674 26.7995 15.463C27.4967 13.7585 28.6833 12.2989 30.2096 11.2685C31.7358 10.2381 33.5332 9.68317 35.3747 9.67378C37.0369 9.67994 38.6674 10.1292 40.0982 10.9752C41.529 11.8212 42.7083 13.0334 43.5147 14.4869C44.3211 15.9404 44.7254 17.5827 44.6859 19.2444C44.6464 20.9062 44.1645 22.5273 43.29 23.9409C42.9092 24.5335 42.461 25.08 41.9545 25.5695C41.4644 26.066 40.9178 26.5033 40.3258 26.8725C38.5552 27.9967 36.4542 28.4834 34.3696 28.2525C32.2851 28.0215 30.3416 27.0866 28.86 25.6021ZM41.8893 27.4588L42.1174 27.2959L42.8991 26.5793C43.152 26.3416 43.3811 26.0797 43.5831 25.7976V25.6021V25.4392L49.7395 31.5956C49.7547 31.6598 49.7547 31.7268 49.7395 31.791C49.758 31.8769 49.758 31.9657 49.7395 32.0516C49.7454 32.1384 49.7454 32.2254 49.7395 32.3122C49.6717 32.4444 49.5838 32.5653 49.4789 32.6705L49.1532 32.9637H48.8926H48.5994H48.1434L41.9871 26.7748L41.8893 27.4588ZM51.9219 35.5695C51.7767 35.7153 51.6041 35.8309 51.414 35.9099C51.224 35.9888 51.0202 36.0294 50.8144 36.0294C50.6086 36.0294 50.4049 35.9888 50.2148 35.9099C50.0248 35.8309 49.8522 35.7153 49.7069 35.5695L49.0229 34.9181L49.7069 34.5923C50.1435 34.3081 50.5108 33.9297 50.7818 33.4848C50.9204 33.2788 51.0403 33.0608 51.1401 32.8334L51.8242 33.5174C52.1001 33.7776 52.272 34.1292 52.308 34.5067C52.3439 34.8842 52.2415 35.262 52.0196 35.5695H51.9219Z" fill="#703407"/>
<path d="M20.7794 8.99023H9.05298V14.3323H20.7794V8.99023Z" fill="#F7BE56"/>
<path d="M20.7796 15.0157H9.05318C8.87432 15.0078 8.70491 14.9331 8.57832 14.8065C8.45172 14.6799 8.3771 14.5105 8.36914 14.3317V9.15254C8.36914 8.97112 8.44121 8.79714 8.56949 8.66886C8.69778 8.54058 8.87176 8.46851 9.05318 8.46851H20.7796C20.961 8.46851 21.135 8.54058 21.2632 8.66886C21.3915 8.79714 21.4636 8.97112 21.4636 9.15254V14.4946C21.4264 14.6466 21.3382 14.7812 21.2137 14.8761C21.0892 14.9709 20.936 15.0202 20.7796 15.0157ZM9.73721 13.6151H20.0955V9.67373H9.73721V13.6151Z" fill="#703407"/>
<path d="M20.7811 18.6973H9.05469C8.89474 18.6626 8.75148 18.5742 8.64874 18.4468C8.54601 18.3194 8.48999 18.1606 8.48999 17.9969C8.48999 17.8333 8.54601 17.6745 8.64874 17.5471C8.75148 17.4197 8.89474 17.3313 9.05469 17.2966H20.7811C20.9625 17.2966 21.1365 17.3687 21.2648 17.497C21.393 17.6253 21.4651 17.7992 21.4651 17.9807C21.4695 18.0732 21.4551 18.1657 21.4227 18.2524C21.3903 18.3392 21.3406 18.4185 21.2767 18.4855C21.2127 18.5526 21.1358 18.6059 21.0506 18.6423C20.9654 18.6787 20.8737 18.6974 20.7811 18.6973Z" fill="#703407"/>
<path d="M20.7796 22.3451H9.05318C8.87176 22.3451 8.69778 22.2731 8.56949 22.1448C8.44121 22.0165 8.36914 21.8425 8.36914 21.6611C8.3771 21.4822 8.45172 21.3128 8.57832 21.1863C8.70491 21.0597 8.87432 20.985 9.05318 20.9771H20.7796C20.961 20.9771 21.135 21.0491 21.2632 21.1774C21.3915 21.3057 21.4636 21.4797 21.4636 21.6611C21.4636 21.8425 21.3915 22.0165 21.2632 22.1448C21.135 22.2731 20.961 22.3451 20.7796 22.3451Z" fill="#703407"/>
<path d="M20.7796 26.0263H9.05318C8.87176 26.0263 8.69778 25.9542 8.56949 25.8259C8.44121 25.6976 8.36914 25.5237 8.36914 25.3422C8.36914 25.1608 8.44121 24.9868 8.56949 24.8586C8.69778 24.7303 8.87176 24.6582 9.05318 24.6582H20.7796C20.961 24.6582 21.135 24.7303 21.2632 24.8586C21.3915 24.9868 21.4636 25.1608 21.4636 25.3422C21.4636 25.5237 21.3915 25.6976 21.2632 25.8259C21.135 25.9542 20.961 26.0263 20.7796 26.0263Z" fill="#703407"/>
<path d="M18.5972 29.7067H9.05318C8.87176 29.7067 8.69778 29.6346 8.56949 29.5063C8.44121 29.3781 8.36914 29.2041 8.36914 29.0227C8.36914 28.8412 8.44121 28.6673 8.56949 28.539C8.69778 28.4107 8.87176 28.3386 9.05318 28.3386H18.5972C18.7786 28.3386 18.9526 28.4107 19.0808 28.539C19.2091 28.6673 19.2812 28.8412 19.2812 29.0227C19.2812 29.2041 19.2091 29.3781 19.0808 29.5063C18.9526 29.6346 18.7786 29.7067 18.5972 29.7067Z" fill="#703407"/>
<path d="M35.4399 11.791C34.4918 11.791 33.5531 11.9782 32.6776 12.342C31.8021 12.7059 31.007 13.239 30.3381 13.9109C29.6692 14.5828 29.1397 15.3803 28.7798 16.2574C28.42 17.1346 28.2369 18.0742 28.2412 19.0222C28.2288 20.0226 28.4403 21.0131 28.8601 21.9213C29.4206 23.1812 30.3341 24.2518 31.4903 25.0033C32.6465 25.7548 33.9958 26.1552 35.3748 26.1558C37.2046 26.0328 38.9192 25.2192 40.1717 23.8796C41.4242 22.5401 42.121 20.7747 42.121 18.9408C42.121 17.1069 41.4242 15.3415 40.1717 14.002C38.9192 12.6625 37.2046 11.8488 35.3748 11.7258L35.4399 11.791ZM35.4399 13.1591C36.6837 13.164 37.8936 13.5642 38.8949 14.302C39.8961 15.0398 40.6369 16.0768 41.01 17.2633L39.5442 18.8268L38.1435 17.4913C38.0802 17.4265 38.004 17.3757 37.9198 17.3421C37.8357 17.3084 37.7455 17.2927 37.6549 17.2959C37.5623 17.2988 37.4712 17.3205 37.3872 17.3597C37.3032 17.3989 37.2281 17.4547 37.1663 17.5239L34.6908 20.3252L32.4432 18.4033C32.3073 18.2864 32.1339 18.2221 31.9546 18.2221C31.7753 18.2221 31.6019 18.2864 31.466 18.4033L29.7722 20.2926C29.7245 19.8487 29.7245 19.401 29.7722 18.9571C29.7881 17.4467 30.3864 16.0006 31.4423 14.9205C32.4982 13.8403 33.9302 13.2093 35.4399 13.1591ZM35.4399 24.8529C34.3902 24.8533 33.36 24.5686 32.4593 24.0294C31.5587 23.4901 30.8213 22.7165 30.3259 21.791L32.0523 19.9017L34.2999 21.791C34.4325 21.9146 34.6071 21.9834 34.7885 21.9834C34.9698 21.9834 35.1444 21.9146 35.2771 21.791L37.7201 19.0222L39.0882 20.3578C39.1565 20.425 39.2382 20.4772 39.328 20.5109C39.4178 20.5445 39.5136 20.559 39.6093 20.5532C39.6972 20.5498 39.7833 20.5276 39.8619 20.4883C39.9405 20.449 40.0099 20.3934 40.0653 20.3252L41.2706 19.0548C41.2619 20.5955 40.6439 22.0702 39.5513 23.1567C38.4588 24.2431 36.9807 24.8529 35.4399 24.8529Z" fill="#703407"/>
</svg>
