<svg width="60" height="54" viewBox="0 0 60 54" fill="none" xmlns="http://www.w3.org/2000/svg">
<path d="M29.8641 39.6323C17.5696 39.6323 7.68335 42.801 7.68335 46.4767C7.68335 50.1523 17.6647 53.2893 29.8641 53.2893C42.0635 53.2893 52.0448 50.1206 52.0448 46.4767C52.0448 42.8327 42.1585 39.6323 29.8641 39.6323Z" fill="#D8D9DA"/>
<path d="M0.74585 9.68848V40.8683C0.745833 41.3869 0.848504 41.9004 1.04794 42.3792C1.24738 42.858 1.53963 43.2926 1.90785 43.6579C2.27607 44.0231 2.71297 44.3119 3.19334 44.5075C3.67371 44.703 4.18805 44.8016 4.7067 44.7974H46.153V9.68848H0.74585Z" fill="#76C5D4"/>
<path d="M46.1513 45.4947H4.70502C4.09218 45.503 3.48378 45.3896 2.91516 45.1609C2.34654 44.9321 1.82904 44.5927 1.39271 44.1623C0.956389 43.7318 0.609941 43.219 0.373497 42.6535C0.137052 42.0881 0.0153234 41.4813 0.0153809 40.8684V9.68861C0.0161838 9.5118 0.0841438 9.3419 0.205501 9.21331C0.341814 9.10461 0.507131 9.03849 0.680803 9.02319H46.1513C46.325 9.03849 46.4903 9.10461 46.6266 9.21331C46.748 9.3419 46.8159 9.5118 46.8167 9.68861V44.7975C46.8169 44.9771 46.7478 45.1497 46.6239 45.2796C46.4999 45.4095 46.3306 45.4865 46.1513 45.4947ZM1.4096 10.3857V40.8684C1.4096 41.7088 1.74344 42.5147 2.33768 43.109C2.93192 43.7032 3.73789 44.0371 4.57827 44.0371H45.4542V10.3857H1.4096Z" fill="#274242"/>
<path d="M0.746068 40.8682C0.69386 40.2477 0.771009 39.6231 0.972633 39.034C1.17426 38.4449 1.49597 37.904 1.91741 37.4456C2.33885 36.9872 2.85084 36.6213 3.421 36.371C3.99116 36.1207 4.60706 35.9914 5.22974 35.9914C5.85243 35.9914 6.46833 36.1207 7.03849 36.371C7.60865 36.6213 8.12064 36.9872 8.54208 37.4456C8.96352 37.904 9.28523 38.4449 9.48686 39.034C9.68848 39.6231 9.76563 40.2477 9.71342 40.8682V5.56916C9.76563 4.94867 9.68848 4.3241 9.48686 3.73496C9.28523 3.14583 8.96352 2.60495 8.54208 2.14656C8.12064 1.68817 7.60865 1.32224 7.03849 1.07193C6.46833 0.821622 5.85243 0.692383 5.22974 0.692383C4.60706 0.692383 3.99116 0.821622 3.421 1.07193C2.85084 1.32224 2.33885 1.68817 1.91741 2.14656C1.49597 2.60495 1.17426 3.14583 0.972633 3.73496C0.771009 4.3241 0.69386 4.94867 0.746068 5.56916V40.8682Z" fill="#76C5D4"/>
<path d="M9.712 41.5337C9.53551 41.5337 9.36626 41.4636 9.24147 41.3388C9.11668 41.214 9.04657 41.0447 9.04657 40.8682C9.09496 40.3376 9.03221 39.8027 8.86232 39.2976C8.69243 38.7926 8.41913 38.3285 8.05986 37.935C7.70059 37.5414 7.26324 37.2271 6.77571 37.0121C6.28818 36.797 5.76117 36.6859 5.22832 36.6859C4.69546 36.6859 4.16846 36.797 3.68092 37.0121C3.19339 37.2271 2.75604 37.5414 2.39677 37.935C2.0375 38.3285 1.7642 38.7926 1.59431 39.2976C1.42442 39.8027 1.36167 40.3376 1.41006 40.8682C1.41006 41.0447 1.33995 41.214 1.21516 41.3388C1.09037 41.4636 0.92112 41.5337 0.744639 41.5337C0.653072 41.5379 0.561562 41.5241 0.475352 41.4929C0.389141 41.4618 0.309921 41.4139 0.242227 41.3521C0.174532 41.2903 0.119692 41.2157 0.080846 41.1327C0.0420002 41.0497 0.0199116 40.9598 0.0158438 40.8682V5.56919C-0.0399078 4.85904 0.0518403 4.14503 0.28532 3.47205C0.518801 2.79906 0.888965 2.18165 1.37255 1.65862C1.85613 1.13558 2.44268 0.718218 3.09533 0.432782C3.74797 0.147347 4.45261 0 5.16494 0C5.87728 0 6.58191 0.147347 7.23456 0.432782C7.8872 0.718218 8.47375 1.13558 8.95734 1.65862C9.44092 2.18165 9.81108 2.79906 10.0446 3.47205C10.278 4.14503 10.3698 4.85904 10.314 5.56919V40.8682C10.3148 41.0343 10.2535 41.1946 10.1421 41.3177C10.0307 41.4408 9.87727 41.5178 9.712 41.5337ZM5.24416 35.7033C5.95911 35.7084 6.66542 35.86 7.31944 36.1489C7.97346 36.4377 8.56128 36.8576 9.04657 37.3827V5.69593C8.9597 4.74329 8.51986 3.85754 7.8134 3.21258C7.10694 2.56761 6.1849 2.21003 5.22832 2.21003C4.27173 2.21003 3.34969 2.56761 2.64323 3.21258C1.93678 3.85754 1.49693 4.74329 1.41006 5.69593V37.3827C1.90018 36.8553 2.49336 36.4341 3.15286 36.1452C3.81237 35.8563 4.52417 35.7059 5.24416 35.7033Z" fill="#274242"/>
<path d="M57.6858 6.45654C56.0386 6.83703 54.3264 6.83703 52.6793 6.45654L51.2217 9.62522C52.3792 10.4516 53.8002 10.8238 55.2142 10.6709C56.6283 10.8238 58.0492 10.4516 59.2067 9.62522L57.7492 6.45654H57.6858Z" fill="white"/>
<path d="M55.1825 1.06982L52.6792 6.45658C54.3263 6.83706 56.0386 6.83706 57.6857 6.45658L55.1825 1.06982Z" fill="#76C5D4"/>
<path d="M59.176 9.72021C58.0184 10.5466 56.5975 10.9188 55.1835 10.7659C53.7694 10.9188 52.3485 10.5466 51.1909 9.72021V38.777C52.3301 39.6436 53.763 40.0302 55.1835 39.8543C56.6034 40.0235 58.0338 39.6375 59.176 38.777V9.72021Z" fill="#76C5D4"/>
<path d="M55.1835 39.9493C53.763 40.1251 52.3301 39.7385 51.1909 38.8719V43.4348C51.1909 44.1953 52.9654 44.7973 55.1835 44.7973C57.4015 44.7973 59.176 44.1953 59.176 43.4348V38.7769C58.0478 39.6711 56.616 40.0915 55.1835 39.9493Z" fill="white"/>
<path d="M59.8415 9.7206C59.8755 9.62857 59.8755 9.52745 59.8415 9.43542L58.3522 6.26674L55.849 0.911683C55.8073 0.784892 55.7267 0.674498 55.6186 0.596234C55.5104 0.51797 55.3804 0.47583 55.2469 0.47583C55.1135 0.47583 54.9834 0.51797 54.8753 0.596234C54.7672 0.674498 54.6866 0.784892 54.6449 0.911683L52.1416 6.26674L50.6523 9.43542C50.6523 9.43542 50.6523 9.43542 50.6523 9.62554V43.4353C50.6523 44.8612 53.0288 45.495 55.342 45.495C57.6551 45.495 59.9999 44.8612 59.9999 43.4353V9.7206H59.8415ZM55.1836 2.68615L56.7045 5.85482H53.5358L55.1836 2.68615ZM53.0605 7.21734H54.0111H56.2926H57.2432L58.2889 9.53049H58.0987H57.8452H57.4333H57.0531H53.8844H53.5042H53.0605H52.7754H52.5536L53.0605 7.21734ZM51.8881 10.9247L52.6169 11.1465H53.219H53.4725H54.0428H54.3597V38.8724H53.5042H53.1556H52.9655H52.712H52.5219H52.3001H52.1099H51.9198V10.9247H51.8881ZM58.5107 43.4036C57.5032 43.9836 56.3412 44.2382 55.1836 44.1324C54.0255 44.2445 52.8616 43.9896 51.8564 43.4036V39.9498L52.5536 40.1716H52.7437H53.3457H53.5992H54.1696H56.1342H56.7045H57.0531H57.6551H57.8452L58.5423 39.9498L58.5107 43.4036ZM58.5107 38.5239H58.3205H58.1304H57.9086H57.7185H57.465H57.0531H56.7045H55.849V11.4317H56.1658H56.7362H57.0531H57.6551C57.8944 11.3815 58.128 11.3072 58.3522 11.2099V38.809L58.5107 38.5239Z" fill="#274242"/>
<path d="M29.2304 23.4409H14.9397V29.4297H29.2304V23.4409Z" fill="white"/>
<path d="M29.1998 30.0946H14.9408C14.7612 30.0947 14.5886 30.0257 14.4587 29.9017C14.3288 29.7778 14.2518 29.6085 14.2437 29.4291V23.4403C14.2436 23.3502 14.2618 23.261 14.2972 23.1782C14.3326 23.0953 14.3844 23.0205 14.4496 22.9582C14.5148 22.896 14.5919 22.8477 14.6764 22.8162C14.7608 22.7847 14.8507 22.7706 14.9408 22.7749H29.1998C29.3763 22.7749 29.5455 22.845 29.6703 22.9698C29.7951 23.0946 29.8652 23.2639 29.8652 23.4403V29.4291C29.8652 29.6056 29.7951 29.7749 29.6703 29.8997C29.5455 30.0245 29.3763 30.0946 29.1998 30.0946ZM15.6062 28.732H28.5344V24.1058H15.6062V28.732Z" fill="#274242"/>
<path d="M40.9883 23.4409H33.4785V29.4297H40.9883V23.4409Z" fill="white"/>
<path d="M40.9884 30.0945H33.4787C33.3022 30.0945 33.1329 30.0244 33.0081 29.8996C32.8833 29.7748 32.8132 29.6056 32.8132 29.4291V23.4403C32.8132 23.2638 32.8833 23.0946 33.0081 22.9698C33.1329 22.845 33.3022 22.7749 33.4787 22.7749H40.9884C41.1649 22.7749 41.3342 22.845 41.4589 22.9698C41.5837 23.0946 41.6538 23.2638 41.6538 23.4403V29.4291C41.6538 29.6056 41.5837 29.7748 41.4589 29.8996C41.3342 30.0244 41.1649 30.0945 40.9884 30.0945ZM34.1441 28.732H40.323V24.1057H34.1441V28.732Z" fill="#274242"/>
<path d="M40.9862 13.6494H14.9397V19.6382H40.9862V13.6494Z" fill="white"/>
<path d="M40.9873 20.3037H14.9408C14.8492 20.3037 14.7586 20.2857 14.674 20.2507C14.5894 20.2156 14.5126 20.1643 14.4478 20.0996C14.3831 20.0348 14.3317 19.958 14.2967 19.8734C14.2617 19.7888 14.2437 19.6982 14.2437 19.6066V13.6495C14.2437 13.558 14.2617 13.4673 14.2967 13.3827C14.3317 13.2982 14.3831 13.2213 14.4478 13.1566C14.5126 13.0918 14.5894 13.0405 14.674 13.0055C14.7586 12.9704 14.8492 12.9524 14.9408 12.9524H40.9873C41.0774 12.9523 41.1666 12.9705 41.2495 13.0059C41.3323 13.0413 41.4072 13.0932 41.4694 13.1584C41.5316 13.2235 41.5799 13.3007 41.6114 13.3851C41.643 13.4695 41.657 13.5595 41.6527 13.6495V19.6066C41.657 19.6966 41.643 19.7866 41.6114 19.871C41.5799 19.9554 41.5316 20.0326 41.4694 20.0978C41.4072 20.1629 41.3323 20.2148 41.2495 20.2502C41.1666 20.2856 41.0774 20.3038 40.9873 20.3037ZM15.6379 18.9412H40.3535V14.3149H15.6062L15.6379 18.9412Z" fill="#274242"/>
<path d="M29.1989 33.8973H14.9398C14.7634 33.8973 14.5941 33.8271 14.4693 33.7024C14.3445 33.5776 14.2744 33.4083 14.2744 33.2318C14.2744 33.0554 14.3445 32.8861 14.4693 32.7613C14.5941 32.6365 14.7634 32.5664 14.9398 32.5664H29.1989C29.3754 32.5664 29.5446 32.6365 29.6694 32.7613C29.7942 32.8861 29.8643 33.0554 29.8643 33.2318C29.8643 33.4083 29.7942 33.5776 29.6694 33.7024C29.5446 33.8271 29.3754 33.8973 29.1989 33.8973Z" fill="#274242"/>
<path d="M29.1989 37.6995H14.9398C14.7634 37.6995 14.5941 37.6294 14.4693 37.5046C14.3445 37.3798 14.2744 37.2106 14.2744 37.0341C14.2744 36.8576 14.3445 36.6883 14.4693 36.5636C14.5941 36.4388 14.7634 36.3687 14.9398 36.3687H29.1989C29.3754 36.3687 29.5446 36.4388 29.6694 36.5636C29.7942 36.6883 29.8643 36.8576 29.8643 37.0341C29.8643 37.2106 29.7942 37.3798 29.6694 37.5046C29.5446 37.6294 29.3754 37.6995 29.1989 37.6995Z" fill="#274242"/>
<path d="M29.1989 41.5336H14.9399C14.8381 41.5557 14.7328 41.5547 14.6315 41.5307C14.5302 41.5068 14.4355 41.4604 14.3545 41.3951C14.2735 41.3297 14.2081 41.2471 14.1632 41.1532C14.1183 41.0593 14.095 40.9565 14.095 40.8524C14.095 40.7483 14.1183 40.6455 14.1632 40.5516C14.2081 40.4577 14.2735 40.3751 14.3545 40.3097C14.4355 40.2444 14.5302 40.198 14.6315 40.174C14.7328 40.15 14.8381 40.1491 14.9399 40.1711H29.1989C29.289 40.171 29.3782 40.1892 29.4611 40.2246C29.544 40.26 29.6188 40.3119 29.681 40.3771C29.7432 40.4423 29.7915 40.5194 29.8231 40.6038C29.8546 40.6883 29.8686 40.7782 29.8643 40.8682C29.8643 41.0447 29.7942 41.214 29.6694 41.3387C29.5446 41.4635 29.3754 41.5336 29.1989 41.5336Z" fill="#274242"/>
<path d="M40.9884 33.8973H33.4787C33.3022 33.8973 33.1329 33.8271 33.0081 33.7024C32.8833 33.5776 32.8132 33.4083 32.8132 33.2318C32.8132 33.0554 32.8833 32.8861 33.0081 32.7613C33.1329 32.6365 33.3022 32.5664 33.4787 32.5664H40.9884C41.1649 32.5664 41.3342 32.6365 41.4589 32.7613C41.5837 32.8861 41.6538 33.0554 41.6538 33.2318C41.6538 33.4083 41.5837 33.5776 41.4589 33.7024C41.3342 33.8271 41.1649 33.8973 40.9884 33.8973Z" fill="#274242"/>
<path d="M40.9884 37.6995H33.4787C33.3022 37.6995 33.1329 37.6294 33.0081 37.5046C32.8833 37.3798 32.8132 37.2106 32.8132 37.0341C32.8132 36.8576 32.8833 36.6883 33.0081 36.5636C33.1329 36.4388 33.3022 36.3687 33.4787 36.3687H40.9884C41.1649 36.3687 41.3342 36.4388 41.4589 36.5636C41.5837 36.6883 41.6538 36.8576 41.6538 37.0341C41.6538 37.2106 41.5837 37.3798 41.4589 37.5046C41.3342 37.6294 41.1649 37.6995 40.9884 37.6995Z" fill="#274242"/>
<path d="M40.986 41.5334H33.4762C33.2998 41.5334 33.1305 41.4633 33.0057 41.3385C32.8809 41.2137 32.8108 41.0445 32.8108 40.868C32.8065 40.778 32.8206 40.688 32.8521 40.6036C32.8836 40.5192 32.9319 40.442 32.9941 40.3769C33.0564 40.3117 33.1312 40.2598 33.2141 40.2244C33.2969 40.189 33.3861 40.1708 33.4762 40.1709H40.986C41.0761 40.1708 41.1653 40.189 41.2482 40.2244C41.3311 40.2598 41.4059 40.3117 41.4681 40.3769C41.5303 40.442 41.5786 40.5192 41.6102 40.6036C41.6417 40.688 41.6557 40.778 41.6514 40.868C41.6514 41.0445 41.5813 41.2137 41.4565 41.3385C41.3317 41.4633 41.1625 41.5334 40.986 41.5334Z" fill="#274242"/>
</svg>
