<svg width="31" height="32" viewBox="0 0 31 32" fill="none" xmlns="http://www.w3.org/2000/svg">
<path d="M30.5558 9.84747L28.4571 6.14969C28.3224 5.90833 28.1408 5.69624 27.9229 5.52587C27.705 5.3555 27.4552 5.23028 27.1882 5.15756C26.9212 5.08483 26.6423 5.06606 26.3679 5.10235C26.0936 5.13864 25.8292 5.22926 25.5904 5.36889L20.1547 8.60444V2.13333C20.1597 1.57268 19.9414 1.03301 19.5478 0.632973C19.1543 0.232931 18.6177 0.00525708 18.056 0H13.7047C13.143 0.00525708 12.6064 0.232931 12.2128 0.632973C11.8193 1.03301 11.601 1.57268 11.6059 2.13333V8.60444L6.16602 5.37173C5.92719 5.2321 5.66283 5.14148 5.38845 5.10519C5.11407 5.0689 4.8352 5.08767 4.56818 5.1604C4.30116 5.23313 4.05138 5.35835 3.83349 5.52872C3.61561 5.69908 3.43399 5.91117 3.29931 6.15253L1.20485 9.84747C0.925545 10.3369 0.849523 10.9162 0.993089 11.461C1.13666 12.0057 1.48838 12.4727 1.97282 12.7616L7.48681 16L1.96997 19.2384C1.48601 19.5278 1.13489 19.9949 0.991864 20.5397C0.848841 21.0844 0.925299 21.6634 1.20485 22.1525L3.30216 25.8503C3.43684 26.0917 3.61846 26.3038 3.83634 26.4741C4.05423 26.6445 4.30401 26.7697 4.57103 26.8424C4.83804 26.9152 5.11692 26.9339 5.3913 26.8976C5.66568 26.8614 5.93004 26.7707 6.16887 26.6311L11.6059 23.3956V29.8667C11.6097 30.4313 11.836 30.9718 12.236 31.371C12.636 31.7703 13.1775 31.9963 13.7431 32H18.0175C18.5832 31.9963 19.1247 31.7703 19.5246 31.371C19.9246 30.9718 20.151 30.4313 20.1547 29.8667V23.3956L25.5947 26.634C25.8335 26.7736 26.0978 26.8642 26.3722 26.9005C26.6466 26.9368 26.9255 26.918 27.1925 26.8453C27.4595 26.7726 27.7093 26.6473 27.9272 26.477C28.1451 26.3066 28.3267 26.0945 28.4614 25.8532L30.5601 22.1554C30.8394 21.6659 30.9154 21.0867 30.7719 20.5419C30.6283 19.9971 30.2766 19.5302 29.7921 19.2412L24.2753 16L29.7921 12.7616C30.2758 12.472 30.6267 12.0047 30.7694 11.46C30.9122 10.9153 30.8355 10.3364 30.5558 9.84747Z" fill="#181713"/>
</svg>
