<svg width="24" height="24" viewBox="0 0 24 24" fill="none" xmlns="http://www.w3.org/2000/svg">
<path d="M21.3257 18.025C21.1286 17.3601 20.9933 16.8259 20.9795 16.7021C20.9635 16.5143 20.9451 16.321 20.913 16.1447C20.8603 15.8636 20.9841 15.5002 21.1171 15.1141C21.3234 14.5054 21.5573 13.8155 21.273 13.0591C21.0873 12.5707 20.819 12.2873 20.6012 12.0585C20.3513 11.795 20.2917 11.7322 20.3467 11.3537C20.4178 10.8701 20.6241 10.6849 20.9979 10.3485L21.0025 10.3451C21.0506 10.3013 21.1033 10.2534 21.1561 10.2041C21.2317 10.1344 21.3097 10.0608 21.3876 9.9787C21.4564 9.90854 21.5252 9.83356 21.5917 9.75217C21.6605 9.67123 21.727 9.58411 21.7912 9.4901C22.4033 8.59385 22.1465 7.83906 21.9402 7.46923C21.7338 7.09941 21.4014 6.79011 21.0116 6.54157C20.1725 5.98832 19.0444 5.72465 18.3153 5.76064C17.2329 5.81475 16.7557 6.45055 16.4389 6.87265C16.2745 7.09253 16.1711 7.22459 16.0466 7.28375C16.0156 7.28077 15.9624 7.27274 15.9354 7.26839C15.6788 7.23033 15.201 7.15948 14.6743 7.54306C14.2454 7.85603 13.9118 8.39552 13.7425 8.79653C13.5509 9.25165 13.4796 9.67054 13.416 10.0413C13.3216 10.5952 13.259 10.9612 12.8546 11.3347C12.288 11.8572 11.9844 11.8026 11.251 11.6712C10.9499 11.6169 10.6088 11.5555 10.2094 11.5353C8.51521 11.4502 6.38909 12.1309 5.96722 14.3258C5.72854 15.5678 6.1589 16.6147 7.15352 17.2638C7.29636 17.3601 7.45066 17.4495 7.61781 17.5275C7.76523 17.5986 7.90715 17.6628 8.04403 17.7224C8.35264 17.8599 8.60968 17.9769 8.84033 18.1282C8.98271 18.2268 9.11523 18.3414 9.24294 18.4859C9.38119 18.6441 9.49469 18.7885 9.59442 18.9169C9.84388 19.2333 10.0718 19.5245 10.4588 19.7675C10.692 19.9189 10.9841 20.0541 11.3798 20.1665C11.8111 20.288 12.2438 20.5012 12.6606 20.7718C13.4569 21.2968 14.1922 22.0351 14.7452 22.7619C13.8512 22.9889 12.9311 23.1036 12.0005 23.1036C10.4806 23.1036 9.01092 22.8032 7.62584 22.2071C7.64189 22.113 7.65542 22.0214 7.66619 21.9274C7.66665 21.9228 7.66665 21.9181 7.66711 21.9136C7.67834 21.8173 7.68589 21.721 7.69071 21.6224C7.69254 21.5903 7.69302 21.5559 7.69393 21.5238C7.69623 21.455 7.69805 21.3863 7.69714 21.3175C7.69668 21.2785 7.69531 21.2395 7.69393 21.2005C7.6921 21.1363 7.68912 21.0744 7.68453 21.0102C7.68132 20.969 7.67834 20.9277 7.67421 20.8887C7.66848 20.8245 7.66068 20.7603 7.6522 20.6961C7.64692 20.6572 7.64189 20.6159 7.6357 20.5769C7.62492 20.5081 7.61208 20.4393 7.59855 20.3683C7.5919 20.3339 7.58594 20.2995 7.57838 20.2651C7.55637 20.1619 7.53138 20.0587 7.50272 19.9533C7.20764 18.8734 6.59224 18.5524 6.04908 18.2681C5.81269 18.1443 5.58961 18.0273 5.35231 17.8301C4.95336 17.4954 4.98248 17.2501 5.26816 16.4208C5.35896 16.1559 5.45317 15.8822 5.51256 15.5853C5.76155 14.338 5.2771 12.6906 4.33407 11.5788C3.83012 10.9841 3.58937 10.4334 3.68956 10.1055C3.69713 10.0807 3.707 10.0562 3.71961 10.0321C3.75584 9.96173 3.8136 9.89455 3.8911 9.83058C3.97272 9.76318 4.07613 9.69943 4.20246 9.63959C4.24304 9.62033 4.28661 9.6013 4.33224 9.58296V9.58273C4.57413 9.48483 4.97627 9.41352 5.36536 9.34405C6.49433 9.1432 8.38407 8.80708 8.2708 7.05194C8.2332 6.46751 7.8879 6.10548 7.63478 5.84043C7.51441 5.71456 7.41054 5.60565 7.38096 5.51852C7.32226 5.34244 7.34336 5.11041 7.36743 4.83802C7.3922 4.55853 7.4204 4.24167 7.36354 3.90211C7.3468 3.80099 7.32801 3.70722 7.30783 3.61734C7.30118 3.58822 7.29407 3.56163 7.28696 3.53366C7.27206 3.47473 7.25737 3.41695 7.24064 3.36238C7.2317 3.33281 7.22231 3.30461 7.21337 3.2764C7.19686 3.22711 7.17989 3.18011 7.162 3.13494C7.15168 3.10949 7.14136 3.08358 7.13059 3.05927C7.11041 3.01296 7.08886 2.96917 7.06662 2.92721C7.05722 2.90933 7.04829 2.89007 7.03843 2.87287C7.00564 2.81578 6.97124 2.76259 6.93478 2.71375C6.92905 2.70618 6.92241 2.69954 6.91644 2.69197C6.88526 2.65162 6.85247 2.61378 6.81808 2.57916C6.8041 2.56518 6.78943 2.55234 6.77498 2.53904C6.74678 2.51313 6.71812 2.48837 6.68808 2.46544C6.67157 2.4526 6.65461 2.44068 6.63719 2.42876C6.6067 2.40789 6.57482 2.3884 6.54272 2.37052C6.53195 2.36433 6.52207 2.35631 6.51084 2.35034C7.02443 2.05733 7.55912 1.80604 8.11031 1.59968C8.1314 1.60909 8.15295 1.61757 8.1745 1.62536C8.58147 1.76431 8.82726 2.15981 9.14137 2.66514C9.44448 3.15282 9.78794 3.70561 10.3634 4.11213C10.9254 4.50832 11.4667 4.70092 12.0184 4.70092C12.6305 4.70092 13.1487 4.46682 13.6495 4.24029L13.4649 3.83218L13.6708 4.23043C13.9296 4.1135 14.197 3.99267 14.484 3.90348C15.5919 3.55521 16.5352 3.84272 17.7283 4.20636C18.0402 4.30128 18.3222 4.38657 18.6202 4.46682C18.6821 4.48356 18.7441 4.4964 18.8083 4.50648C18.8289 4.50992 18.8495 4.51153 18.8702 4.51428C18.9137 4.52001 18.9573 4.52529 19.0008 4.52827C19.0238 4.5301 19.049 4.53056 19.0765 4.53148C19.1155 4.53331 19.1544 4.53492 19.1957 4.53469C19.2232 4.53469 19.2507 4.53377 19.276 4.53285C19.3172 4.53171 19.3562 4.53056 19.3952 4.52804C19.4227 4.52621 19.4502 4.52414 19.48 4.52185C19.519 4.51841 19.558 4.5152 19.597 4.51084C19.6245 4.50786 19.6543 4.50465 19.6818 4.50098C19.7208 4.49617 19.762 4.49135 19.801 4.48562C19.8285 4.48149 19.8583 4.4776 19.8859 4.47324C19.9271 4.46705 19.9661 4.46086 20.0074 4.45444C20.0372 4.44963 20.067 4.44504 20.0968 4.44C20.106 4.43816 20.1151 4.43701 20.1266 4.43518C22.048 6.49846 23.1049 9.17576 23.1049 12.0005C23.1049 14.1665 22.4928 16.2311 21.3257 18.025ZM20.4613 19.2769C19.2255 20.7122 17.6389 21.8127 15.8765 22.4593C15.8194 22.4799 15.762 22.5006 15.7045 22.5211C14.8195 21.2693 13.2977 19.7744 11.6217 19.3021C10.902 19.1026 10.706 18.8504 10.349 18.3965C10.2415 18.2589 10.1197 18.103 9.96517 17.9264C9.49147 17.3876 8.98982 17.1652 8.40951 16.9039C8.27837 16.8465 8.14262 16.7846 8.00207 16.7181C7.08679 16.2841 6.70436 15.5261 6.89649 14.5265C7.19158 12.9894 8.69245 12.4565 9.98191 12.4565C10.0596 12.4565 10.1371 12.4588 10.2133 12.4625C10.5542 12.4794 10.8644 12.5352 11.1425 12.5851C11.9338 12.7271 12.6177 12.8497 13.511 12.0248C14.1401 11.4445 14.2458 10.824 14.3488 10.2229C14.4088 9.86956 14.4662 9.53596 14.6175 9.17645C14.739 8.88779 14.9891 8.49022 15.2517 8.29922C15.4814 8.13162 15.6458 8.15592 15.8517 8.18642C16.012 8.21164 16.1933 8.23984 16.3971 8.16051C16.7787 8.01102 16.9958 7.72144 17.2058 7.44081C17.483 7.07075 17.7467 6.72087 18.407 6.68762C19.2095 6.64933 20.7136 7.11454 21.1584 7.90739C21.3487 8.24787 21.3143 8.60004 21.0506 8.98385C20.8534 9.27206 20.6241 9.4791 20.4017 9.67949L20.3994 9.68224C19.9959 10.0452 19.5786 10.4201 19.4617 11.2232C19.3425 12.033 19.652 12.3595 19.9523 12.6766C20.1381 12.8722 20.3123 13.0565 20.4338 13.3752C20.6058 13.831 20.443 14.3144 20.2665 14.8268C20.106 15.3028 19.9386 15.7953 20.0303 16.3059C20.0555 16.4439 20.0716 16.6092 20.0876 16.7846C20.1174 17.1079 20.4361 18.2062 20.6906 19.0018C20.6173 19.0935 20.5393 19.1852 20.4613 19.2769ZM6.77773 21.8013C6.75664 21.7898 6.73509 21.7783 6.71468 21.7669C3.12577 19.8226 0.89672 16.0787 0.89672 12.0005C0.89672 8.67341 2.37212 5.54971 4.94487 3.43025C5.10995 3.29406 5.28328 3.15993 5.46166 3.02993C6.11625 3.05377 6.31918 3.0822 6.47945 4.04907C6.51751 4.27606 6.49639 4.51061 6.47461 4.76236C6.44412 5.09963 6.41319 5.44882 6.53104 5.80237C6.62412 6.08049 6.80868 6.27331 6.98729 6.45995C7.21886 6.70275 7.36078 6.86761 7.37637 7.10926C7.43323 7.99474 6.47142 8.23709 5.20809 8.46155C5.09483 8.48196 4.98247 8.50191 4.8731 8.52277C4.54546 8.58422 4.24212 8.65232 3.99542 8.75228C3.35917 9.00999 2.97903 9.36675 2.83252 9.84319C2.58169 10.6631 3.13883 11.5548 3.65058 12.1585C4.40376 13.0465 4.82657 14.4444 4.63397 15.4094C4.58605 15.6472 4.50191 15.8923 4.42005 16.1309C4.15845 16.8901 3.86152 17.7522 4.7768 18.5157C5.08908 18.7771 5.37868 18.9284 5.63501 19.0637C5.78221 19.1393 5.91656 19.2104 6.03739 19.2906C6.30404 19.4718 6.50626 19.7056 6.63856 20.1894C6.78896 20.742 6.83551 21.2739 6.77773 21.8013ZM12.0005 0.896025C14.6865 0.896025 17.2767 1.86886 19.3012 3.63614C19.1338 3.6444 18.9825 3.63614 18.8541 3.60152C18.5675 3.52471 18.2947 3.44171 17.9897 3.34908C16.7546 2.97261 15.588 2.61677 14.2167 3.04804C13.8783 3.15328 13.5848 3.2858 13.3019 3.41397L13.2799 3.42383C12.941 3.57699 12.6365 3.71456 12.3288 3.77394C12.2263 3.79366 12.1231 3.80489 12.0184 3.80489C11.6579 3.80489 11.2854 3.66572 10.8802 3.37958C10.4533 3.07831 10.186 2.64795 9.89983 2.18687C9.68752 1.8457 9.48208 1.51531 9.21383 1.24911C10.1206 1.01502 11.0579 0.896025 12.0005 0.896025ZM19.934 2.99966C17.7398 1.06546 14.9229 0 12.0005 0C10.98 0 9.96472 0.129084 8.98271 0.383354C8.67341 0.463602 8.36022 0.559444 8.02525 0.677294H8.02478C6.97651 1.04552 5.98052 1.56162 5.06524 2.21094C4.82656 2.38015 4.59407 2.55761 4.37465 2.73874C1.59463 5.02901 0 8.40469 0 12.0005C0 16.4079 2.40926 20.4531 6.28729 22.5555C6.47461 22.6565 6.68282 22.7619 6.92379 22.8743C8.52186 23.6217 10.23 24 12.0005 24C13.1774 24 14.3394 23.828 15.4585 23.491C15.48 23.4956 15.5016 23.5003 15.5238 23.5003C15.5688 23.5003 15.6139 23.4934 15.6582 23.4796C15.8356 23.4246 16.011 23.3649 16.1848 23.3007C18.0906 22.6014 19.8056 21.4115 21.1423 19.8616C21.2822 19.6965 21.4174 19.5314 21.5458 19.3663C21.594 19.3021 21.6238 19.2287 21.633 19.1508C23.1806 17.0689 24.0014 14.6028 24.0014 12.0005C24.0014 8.86302 22.7954 5.89454 20.6081 3.64119C20.3926 3.42016 20.1656 3.20418 19.934 2.99966Z" fill="#160911"/>
<path d="M15.5189 19.4512C14.4812 18.6877 12.2991 16.7939 12.2991 15.4095C12.2991 14.7475 12.6628 14.2548 13.2722 14.0918C13.4024 14.0572 13.5446 14.0384 13.6922 14.0384C14.2475 14.0384 14.8808 14.3023 15.26 14.9612L15.5242 15.4205L15.7805 14.9564C16.212 14.1746 17.0975 13.9354 17.7484 14.1033C18.0465 14.1801 18.7389 14.4609 18.7389 15.4095C18.7389 16.7939 16.5564 18.6877 15.5189 19.4512ZM17.8974 13.5246C17.0115 13.2962 16.0884 13.6076 15.5157 14.2906C14.9242 13.5959 13.994 13.2806 13.1177 13.5147C12.2441 13.7481 11.7012 14.4742 11.7012 15.4095C11.7012 17.484 15.1986 19.9602 15.3474 20.0634L15.5189 20.1826L15.6904 20.0634C15.839 19.9602 19.3373 17.484 19.3373 15.4095C19.3373 14.4756 18.7848 13.7534 17.8974 13.5246Z" fill="#160911"/>
</svg>
