<svg width="54" height="44" viewBox="0 0 54 44" fill="none" xmlns="http://www.w3.org/2000/svg">
<path d="M51.5743 12.7981L46.4982 17.8753C46.509 18.2776 46.4982 18.6718 46.4604 19.0579C46.4172 19.5293 46.3362 19.9888 46.2282 20.4365C45.726 22.455 44.5812 24.2349 43.0476 25.8436C40.974 28.0252 38.8032 30.1128 36.675 32.2421C34.4399 34.4761 32.2156 36.7193 29.9638 38.9355C29.5766 39.3162 29.0231 39.9258 28.2244 39.9885C27.6456 40.0338 27.2492 39.8081 26.862 39.4414C26.5148 39.112 26.403 38.2837 26.5369 37.7658C26.6817 37.2042 27.1795 36.6966 27.6126 36.2527C28.6305 35.2099 29.6684 34.1866 30.6966 33.1542C31.1977 32.6519 31.6967 32.147 32.1903 31.6373C32.7157 31.094 34.2509 29.9492 33.3896 29.1425C32.5985 28.4026 31.4667 29.8293 30.9909 30.3083C30.4903 30.8116 29.9881 31.3143 29.4794 31.8106C27.1153 34.1191 24.7819 36.4606 22.3605 38.707C21.2649 39.7233 20.4062 39.6466 19.6572 38.7653C18.9466 37.9305 19.0827 37.0951 20.1141 36.0621C22.7931 33.3788 25.4747 30.6998 28.1548 28.0176C28.5306 27.6407 28.8563 27.395 28.9238 26.8204C28.9745 26.3954 28.8195 26.0196 28.3827 25.9537C27.6455 25.8436 27.3248 26.1249 26.8512 26.5979C23.6965 29.751 20.5461 32.9095 17.3865 36.0572C16.3497 37.0897 15.1914 37.0676 14.4333 36.0329C13.8668 35.2602 14.0239 34.3854 14.9457 33.4598C18.1458 30.2468 21.3534 27.0397 24.567 23.8412C25.0908 23.3196 25.5023 22.7348 24.8602 22.1337C24.2462 21.5586 23.717 22.0678 23.2483 22.5376C20.7826 25.013 18.3127 27.4836 15.8351 29.9487C15.5057 30.2754 15.159 30.6107 14.7573 30.8316C13.849 31.3316 12.7036 30.8764 12.3186 29.9136C11.9244 28.927 12.4314 28.3006 13.0578 27.6763C17.1576 23.5901 21.2584 19.5039 25.3219 15.3826L27.0013 17.0696C27.5726 17.6447 28.3249 17.9319 29.0776 17.9314C29.8256 17.9314 30.5746 17.6474 31.1448 17.0798L31.4677 16.758C32.0212 16.2072 32.3274 15.4722 32.3285 14.6881C32.3306 13.9521 32.0553 13.2631 31.5671 12.7231L27.8426 8.96138L27.1109 8.22643L28.1051 7.22742C29.6441 6.05507 31.0184 5.64305 32.1503 5.58689C34.2239 5.40005 36.0577 6.48383 36.0577 6.48383L37.1588 5.38223L40.6608 1.88299L51.5743 12.7981ZM41.1359 32.417C40.7525 33.3793 39.6077 33.8351 38.6989 33.335C38.6103 33.2864 38.5256 33.2308 38.4414 33.172C39.26 32.3609 40.0722 31.5422 40.8876 30.7268C41.2386 31.1939 41.4168 31.7134 41.1359 32.417ZM39.0224 38.5364C38.2642 39.571 37.1059 39.5937 36.0697 38.5607C35.5534 38.0477 35.0388 37.5314 34.5242 37.0168C35.3741 36.1868 36.2279 35.3612 37.0735 34.5274C37.5514 35.0069 38.032 35.4837 38.5099 35.9627C39.4317 36.8883 39.5878 37.7626 39.0224 38.5364ZM33.7984 41.2688C33.0499 42.149 32.1913 42.2268 31.0956 41.2105C30.9255 41.0528 30.7592 40.8913 30.5891 40.7331C30.8294 40.5754 31.0584 40.3972 31.2706 40.1931C31.8981 39.5878 32.5169 38.9738 33.1428 38.3657C33.2092 38.4327 33.2756 38.4991 33.342 38.5655C34.3735 39.5986 34.5096 40.434 33.7984 41.2688ZM26.5941 41.9449C26.207 42.3116 25.8101 42.5367 25.2312 42.4914C24.4331 42.4293 23.879 41.8196 23.4924 41.4389C23.2559 41.2056 23.0215 40.9702 22.7855 40.7364C23.3401 40.4383 23.9244 40.0268 24.5551 39.4971C24.9444 40.1143 25.073 40.4734 25.8328 40.9081C26.173 41.103 26.5315 41.2477 26.8987 41.3444C26.8366 41.5906 26.7351 41.8104 26.5941 41.9449ZM10.3865 28.326C8.86742 26.7221 7.72855 24.9493 7.22958 22.9399C7.11888 22.4923 7.04004 22.0328 6.99576 21.5608C6.95958 21.1752 6.94716 20.781 6.95958 20.3787L1.88248 15.3021L12.7976 4.38646L16.2968 7.88516L16.528 8.11627L16.5133 8.15246L18.203 8.29339L18.3137 8.02016C18.9801 7.56601 21.7476 6.03077 25.4424 8.8469L30.3299 13.7566C30.5756 14.0029 30.7095 14.3328 30.7085 14.6844C30.7085 15.0359 30.5724 15.3648 30.3256 15.6099L30.0016 15.9318C29.4902 16.441 28.6592 16.4388 28.1499 15.9269L23.1495 10.9032L21.9334 11.7527L23.2866 13.3376L23.8731 13.9267C23.298 14.5008 22.7234 15.0759 22.1483 15.6504C22.0052 15.7935 21.9247 15.9496 21.8837 16.1067C21.8551 16.1364 21.827 16.1667 21.7984 16.1964C18.4379 19.5606 15.0661 22.9156 11.7143 26.2891C11.0436 26.9641 10.6014 27.6461 10.3865 28.326ZM35.6981 4.55169C35.4692 4.52037 35.2402 4.49825 35.0118 4.48204C33.3821 3.82162 30.4806 3.35559 27.0759 5.97515L26.9959 6.0459L25.8786 7.16803C21.6736 4.31464 18.3348 6.07344 17.3952 6.69282L13.2058 2.50346L0 15.7098L5.00528 20.7157C5.04416 22.9594 5.84176 25.2593 7.39211 27.5845C8.0304 28.5414 8.77614 29.4238 9.58398 30.243C10.6165 31.289 11.6614 32.3215 12.7004 33.361C11.5739 35.0026 12.0572 36.3607 13.2323 37.5838C14.45 38.8523 15.5727 39.0008 17.224 38.5229C17.2386 38.5186 17.2548 38.525 17.2629 38.5375C18.4487 40.3119 19.5422 41.1716 20.7205 41.2666C21.2098 41.7419 21.6936 42.2225 22.1856 42.6966C23.643 44.1038 25.8652 44.4181 27.6234 43.411C28.3827 42.9768 28.5112 42.6177 28.9005 42.0005C31.8727 44.4953 33.8556 44.5407 36.1917 41.0409C36.2014 41.028 36.2171 41.022 36.2317 41.0258C37.8835 41.5043 39.0057 41.3563 40.2234 40.0867C41.4654 38.795 41.9352 37.3527 40.5528 35.5826C40.542 35.5696 40.1801 35.1041 40.2017 35.1052C41.19 35.1365 41.973 34.5069 42.405 33.948C43.5552 32.4613 43.485 30.8996 42.2484 29.3628C42.7884 28.8201 43.3338 28.2844 43.8738 27.7395C44.6784 26.9203 45.4236 26.0385 46.0662 25.0811C47.6161 22.7558 48.4098 20.4565 48.453 18.2122L53.4535 13.2064L40.2504 0L35.6981 4.55169Z" fill="#181713"/>
</svg>
