<svg width="24" height="24" viewBox="0 0 24 24" fill="none" xmlns="http://www.w3.org/2000/svg">
<path d="M12.7857 22.8956V14.9522H20.2193V16.5239H15.4194C15.1221 16.5239 14.8668 16.7788 14.8668 17.0761V19.2C14.8668 19.4973 15.1221 19.7522 15.4194 19.7522H20.2193V20.7717H15.4194C15.1221 20.7717 14.8668 21.0266 14.8668 21.3239C14.8668 21.6212 15.1221 21.8761 15.4194 21.8761H20.2193V22.8956H12.7857ZM4.29018 21.8336H9.09012C9.38741 21.8336 9.6423 21.5788 9.6423 21.2814C9.6423 20.9841 9.38741 20.7292 9.09012 20.7292H4.29018V19.6673H5.35213C5.64942 19.6673 5.9043 19.4124 5.9043 19.115V16.9912C5.9043 16.6938 5.64942 16.4389 5.35213 16.4389H4.29018V14.8248H11.7238V22.8956H4.29018V21.8336ZM4.29018 17.5858H4.84235V18.6478H4.29018V17.5858ZM9.81237 11.7664L11.214 13.8903H3.99288L2.59124 11.7664H9.81237ZM14.6547 11.7664H21.8758L20.4742 13.8903H13.2531L14.6547 11.7664ZM20.2193 18.6478H15.9716V17.5858H20.2193V18.6478ZM23.2779 11.5115C23.5324 11.1717 23.2779 10.7044 22.853 10.7044H14.3574C14.1874 10.7044 14.0177 10.7894 13.9329 10.9593L12.2335 13.4655L10.5346 10.9593C10.4494 10.8319 10.2797 10.7044 10.1097 10.7044H1.61412C1.18959 10.7044 0.934706 11.1717 1.18959 11.5115L3.22824 14.5699C3.22824 15.0797 3.22824 22.9805 3.22824 23.4478C3.22824 23.7451 3.48312 24 3.78041 24C4.71512 24 19.8368 24 20.7715 24C21.0688 24 21.3237 23.7451 21.3237 23.4478C21.3237 22.9805 21.3237 15.0797 21.3237 14.5699L23.2779 11.5115Z" fill="#160911"/>
<path d="M13.8481 20.7716C14.1529 20.7716 14.4003 21.0188 14.4003 21.3238C14.4003 21.6288 14.1529 21.876 13.8481 21.876C13.5432 21.876 13.2959 21.6288 13.2959 21.3238C13.2959 21.0188 13.5432 20.7716 13.8481 20.7716Z" fill="#160911"/>
<path d="M10.6625 20.7716C10.9674 20.7716 11.2147 21.0188 11.2147 21.3238C11.2147 21.6288 10.9674 21.876 10.6625 21.876C10.3577 21.876 10.1104 21.6288 10.1104 21.3238C10.1104 21.0188 10.3577 20.7716 10.6625 20.7716Z" fill="#160911"/>
<path d="M22.8528 16.0146C22.8528 15.7172 22.5979 15.4623 22.3006 15.4623C22.0033 15.4623 21.748 15.7172 21.748 16.0146V21.8765C21.748 22.1738 22.0033 22.4287 22.3006 22.4287C22.5979 22.4287 22.8528 22.1738 22.8528 21.8765V16.0146Z" fill="#160911"/>
<path d="M2.16643 15.4623C1.86914 15.4623 1.61426 15.7172 1.61426 16.0146V21.8765C1.61426 22.1738 1.86914 22.4287 2.16643 22.4287C2.46372 22.4287 2.7186 22.1738 2.7186 21.8765V16.0146C2.67619 15.7172 2.42131 15.4623 2.16643 15.4623Z" fill="#160911"/>
<path d="M3.95076 3.18621C3.90834 3.14373 3.86593 3.10125 3.86593 3.01629C3.86593 2.84638 3.99317 2.76143 4.20564 2.76143V3.31364C4.07841 3.27116 3.99317 3.22868 3.95076 3.18621ZM4.41812 4.1632C4.54535 4.20567 4.63058 4.24815 4.67299 4.29063C4.75781 4.33311 4.75781 4.41806 4.75781 4.46054C4.75781 4.63045 4.63059 4.71541 4.41812 4.71541V4.1632ZM3.39858 4.41806C3.35617 4.37559 3.31376 4.37559 3.31376 4.33311L2.97363 5.01275C3.31376 5.22514 3.7807 5.39505 4.16323 5.39505V5.94727H4.46052V5.39505C4.88546 5.39505 5.30999 5.22514 5.48005 4.84284C5.60728 4.58797 5.60728 4.24815 5.48005 3.99328C5.39481 3.82337 5.26758 3.65346 4.97029 3.52603C4.673 3.39859 4.41812 3.35612 4.41812 3.35612V2.71895C4.71541 2.76143 5.09752 2.97382 5.13993 3.01629L5.48005 2.37913C5.3524 2.29417 5.18276 2.25169 5.0127 2.16674C4.84264 2.08178 4.63058 2.0393 4.46052 2.0393V1.57205H4.16323V2.08178C3.4834 2.16674 3.10129 2.59152 3.10129 3.14373C3.10129 3.48355 3.22851 3.73842 3.56864 3.90833C3.82352 4.03576 4.07841 4.07824 4.16323 4.12072V4.71541C3.90835 4.67293 3.56864 4.5455 3.39858 4.41806Z" fill="#160911"/>
<path d="M4.29018 1.14705C5.73424 1.14705 6.96625 2.33643 6.96625 3.82315C6.96625 5.30987 5.77707 6.49925 4.29018 6.49925C2.8033 6.49925 1.61412 5.22492 1.61412 3.78067C1.61412 2.33643 2.8033 1.14705 4.29018 1.14705ZM3.738 7.47624V8.58067C3.738 8.87801 3.99289 9.13288 4.29018 9.13288H9.09012V9.68509C9.09012 9.98244 9.34501 10.2373 9.64231 10.2373C9.94002 10.2373 10.1949 9.98244 10.1949 9.68509V8.62315C10.1949 8.3258 9.94002 8.07093 9.64231 8.07093H4.79994V7.51872C6.58413 7.26386 7.98578 5.69217 7.98578 3.82315C7.98578 1.78421 6.32925 0.0850992 4.24777 0.0850992C2.1663 0.0850992 0.509766 1.74174 0.509766 3.82315C0.552176 5.6497 1.95424 7.22138 3.738 7.47624Z" fill="#160911"/>
<path d="M11.9365 3.18621C11.8941 3.14373 11.8513 3.10125 11.8513 3.01629C11.8513 2.84638 11.9789 2.76143 12.1914 2.76143V3.31364C12.0638 3.27116 11.9789 3.22868 11.9365 3.18621ZM12.3615 4.1632C12.4887 4.20567 12.5735 4.24815 12.6159 4.29063C12.7012 4.33311 12.7012 4.41806 12.7012 4.46054C12.7012 4.63045 12.5735 4.71541 12.3615 4.71541V4.1632ZM11.3415 4.41806C11.2991 4.37559 11.2567 4.37559 11.2567 4.33311L10.917 5.01275C11.2567 5.22514 11.7241 5.39505 12.1062 5.39505V5.94727H12.4039V5.39505C12.8284 5.39505 13.2534 5.22514 13.4234 4.84284C13.5507 4.58797 13.5507 4.24815 13.4234 3.99328C13.3382 3.82337 13.2109 3.65346 12.9136 3.52603C12.6159 3.39859 12.3615 3.35612 12.3615 3.35612V2.71895C12.6588 2.76143 13.0409 2.97382 13.0833 3.01629L13.4234 2.37913C13.2958 2.29417 13.1261 2.25169 12.9561 2.16674C12.786 2.08178 12.5735 2.0393 12.4039 2.0393V1.57205H12.1062V2.08178C11.4268 2.16674 11.0442 2.59152 11.0442 3.14373C11.0442 3.35612 11.0871 3.56851 11.2567 3.69594C11.4268 3.86585 11.6816 3.95081 11.9365 4.03576L12.149 4.12072V4.71541C11.8941 4.67293 11.5116 4.5455 11.3415 4.41806Z" fill="#160911"/>
<path d="M12.2337 1.14756C13.6777 1.14756 14.9097 2.33694 14.9097 3.82367C14.9097 5.31039 13.7206 6.49977 12.2337 6.49977C10.7468 6.49977 9.55762 5.31039 9.55762 3.82367C9.55762 2.33694 10.7896 1.14756 12.2337 1.14756ZM11.7239 7.47676V10.1529C11.7239 10.4502 11.9788 10.7051 12.2761 10.7051C12.5734 10.7051 12.8283 10.4502 12.8283 10.1529V7.47676C14.6124 7.22189 16.0141 5.65021 16.0141 3.78119C16.0141 1.74225 14.3576 0.0431376 12.2761 0.0431376C10.195 0.0431376 8.53809 1.69977 8.53809 3.78119C8.53809 5.65021 9.89775 7.22189 11.7239 7.47676Z" fill="#160911"/>
<path d="M19.8804 3.18621C19.8376 3.14373 19.7952 3.10125 19.7952 3.01629C19.7952 2.84638 19.9228 2.76143 20.1349 2.76143V3.31364C20.0077 3.27116 19.9229 3.22868 19.8804 3.18621ZM20.3474 4.1632C20.475 4.20567 20.5598 4.24815 20.6027 4.29063C20.6875 4.33311 20.6875 4.41806 20.6875 4.46054C20.6875 4.63045 20.5598 4.71541 20.3474 4.71541V4.1632ZM19.3283 4.41806C19.2854 4.37559 19.243 4.37559 19.243 4.33311L18.9033 5.01275C19.243 5.22514 19.7104 5.39505 20.0929 5.39505V5.94727H20.3902V5.39505C20.8147 5.39505 21.2393 5.22514 21.4097 4.84284C21.5366 4.58797 21.5366 4.24815 21.4097 3.99328C21.3245 3.82337 21.1973 3.65346 20.9 3.52603C20.6027 3.39859 20.3474 3.35612 20.3474 3.35612V2.71895C20.6447 2.76143 21.0268 2.97382 21.0696 3.01629L21.4097 2.37913C21.2821 2.29417 21.1124 2.25169 20.942 2.16674C20.7723 2.08178 20.5598 2.0393 20.3902 2.0393V1.57205H20.0929V2.08178C19.4131 2.16674 19.031 2.59152 19.031 3.14373C19.031 3.35612 19.073 3.56851 19.243 3.69594C19.4131 3.86585 19.668 3.95081 19.9229 4.03576L20.1349 4.12072V4.71541C19.8376 4.67293 19.4979 4.5455 19.3283 4.41806Z" fill="#160911"/>
<path d="M20.2193 1.14753C21.6634 1.14753 22.8954 2.33691 22.8954 3.82364C22.8954 5.31036 21.7062 6.49974 20.2193 6.49974C18.7328 6.49974 17.5432 5.31036 17.5432 3.82364C17.5432 2.33691 18.7328 1.14753 20.2193 1.14753ZM19.6671 7.47673V8.02894H14.9096C14.6123 8.02894 14.3574 8.28381 14.3574 8.58115V9.6431C14.3574 9.94045 14.6123 10.1953 14.9096 10.1953C15.2069 10.1953 15.4618 9.94045 15.4618 9.6431V9.09089H20.2617C20.559 9.09089 20.8139 8.83602 20.8139 8.53868V7.43425C22.5981 7.17939 23.9997 5.6077 23.9997 3.73868C23.9997 1.69974 22.3432 0.000628471 20.2617 0.000628471C18.1802 0.000628471 16.4813 1.74222 16.4813 3.78116C16.4813 5.65018 17.883 7.22186 19.6671 7.47673Z" fill="#160911"/>
<path d="M23.4053 7.47663C23.7106 7.47663 23.9579 7.72385 23.9579 8.02884C23.9579 8.33383 23.7106 8.58105 23.4053 8.58105C23.1008 8.58105 22.8535 8.33383 22.8535 8.02884C22.8535 7.72385 23.1008 7.47663 23.4053 7.47663Z" fill="#160911"/>
<path d="M1.61371 8.02839C1.91898 8.02839 2.16588 8.27561 2.16588 8.5806C2.16588 8.88559 1.91898 9.13281 1.61371 9.13281C1.30885 9.13281 1.06152 8.88559 1.06152 8.5806C1.06152 8.27561 1.30885 8.02839 1.61371 8.02839Z" fill="#160911"/>
<path d="M0.552183 13.3389C0.857455 13.3389 1.10478 13.5862 1.10478 13.8911C1.10478 14.1961 0.857455 14.4434 0.552183 14.4434C0.247331 14.4434 0 14.1961 0 13.8911C0 13.5862 0.247331 13.3389 0.552183 13.3389Z" fill="#160911"/>
<path d="M23.4053 22.8956C23.7106 22.8956 23.9579 23.1428 23.9579 23.4478C23.9579 23.7528 23.7106 24 23.4053 24C23.1008 24 22.8535 23.7528 22.8535 23.4478C22.8535 23.1428 23.1008 22.8956 23.4053 22.8956Z" fill="#160911"/>
<path d="M23.4053 13.8487C23.7106 13.8487 23.9579 14.0959 23.9579 14.4009C23.9579 14.7059 23.7106 14.9531 23.4053 14.9531C23.1008 14.9531 22.8535 14.7059 22.8535 14.4009C22.8535 14.0959 23.1008 13.8487 23.4053 13.8487Z" fill="#160911"/>
</svg>
