<svg width="44" height="44" viewBox="0 0 44 44" fill="none" xmlns="http://www.w3.org/2000/svg">
<path d="M42.2468 36.5763C41.4092 36.6653 40.3196 36.8782 38.9939 37.2111C38.9649 37.2188 38.9231 37.2304 38.8948 37.242L38.6115 37.3465C35.222 38.1826 28.4388 39.8934 18.9803 42.3009L18.9354 42.3125C18.5418 42.386 18.1857 42.3667 17.7541 42.2195L2.75636 31.3704C2.72307 31.3433 2.68669 31.3239 2.64953 31.3046C2.49703 31.2233 2.34956 31.1188 2.21215 30.9872C2.20441 30.9794 2.19667 30.9717 2.18854 30.964C1.83826 30.6195 1.64589 30.1627 1.64589 29.6828C1.64589 28.7341 2.36465 27.9569 3.31798 27.8745C3.35049 27.8717 3.38223 27.8667 3.41397 27.8605C3.57885 27.8265 3.74065 27.816 3.9543 27.8481C4.03094 27.8605 4.10564 27.8752 4.16602 27.893C4.2446 27.917 4.32704 27.9519 4.42768 28.0026C4.4807 28.0293 4.53334 28.0575 4.58327 28.0904C4.59411 28.0982 4.60611 28.1055 4.61734 28.1125L6.22324 29.2733C6.23446 29.2814 6.24569 29.2895 6.25769 29.2973L15.4375 35.2487C15.5142 35.299 15.5986 35.3338 15.6872 35.3571C16.0143 35.4383 16.3882 35.4654 16.8294 35.4422C16.8778 35.4383 16.9262 35.4345 16.9734 35.4229C17.3895 35.3222 19.3538 34.8113 22.8044 33.8979L22.9771 33.8514C23.6892 33.6463 24.4103 33.4566 25.1361 33.2786C26.3282 32.965 27.2204 32.7289 27.4054 32.6786C27.4696 32.6593 27.532 32.636 27.59 32.6051C28.6436 32.0245 29.2977 30.9214 29.2977 29.7277C29.2977 28.1051 28.135 26.7381 26.5337 26.4768C26.49 26.4698 26.4455 26.466 26.4006 26.466H20.5723C20.1202 26.466 19.7521 26.0975 19.7521 25.6446C19.7521 25.1918 20.1202 24.8233 20.5723 24.8233L26.8047 24.8229C27.6187 24.7993 28.6053 24.7877 29.8187 24.7877C32.2707 24.7877 33.9695 25.7367 35.4399 26.7621C35.8224 27.0287 36.1939 27.3043 36.5609 27.5776C38.2024 28.7953 39.8934 30.0505 42.2421 30.2943V35.7209L42.2529 36.526C42.2506 36.5415 42.2483 36.5569 42.2468 36.5763ZM43.7427 29.0314C43.5879 28.8185 43.3406 28.6927 43.0774 28.6927C40.8259 28.6927 39.3036 27.5636 37.5424 26.2558C37.1616 25.9736 36.7772 25.6884 36.382 25.4124C34.7715 24.2895 32.7329 23.1419 29.8187 23.1419C28.5886 23.1419 27.5869 23.1535 26.7803 23.1775H20.5723C19.2121 23.1775 18.1063 24.2841 18.1063 25.6446C18.1063 27.0051 19.2121 28.1117 20.5723 28.1117H26.3274C27.0985 28.2658 27.6519 28.9362 27.6519 29.7277C27.6519 30.2905 27.3555 30.8169 26.8732 31.1188C26.5597 31.2001 25.7538 31.4129 24.7331 31.6839C24.0004 31.8619 23.2553 32.0593 22.5439 32.2645L22.3895 32.3032C18.3997 33.3598 17.0586 33.7082 16.6692 33.8011C16.4865 33.8088 16.332 33.8011 16.202 33.7817L7.17037 27.9275L5.52382 26.7369C5.49286 26.7148 5.46035 26.6947 5.42706 26.6769C5.34578 26.6262 5.2583 26.5778 5.16812 26.5329C4.99162 26.4427 4.82286 26.3734 4.64095 26.3169C4.51167 26.2794 4.37155 26.2484 4.20782 26.2221C3.80257 26.1606 3.47009 26.1737 3.12832 26.2391C1.34166 26.4176 0 27.8895 0 29.6828C0 30.5962 0.35892 31.4594 1.01227 32.1135C1.0266 32.129 1.04092 32.1445 1.05601 32.16C1.29638 32.3922 1.55802 32.5857 1.83632 32.7367L16.8128 43.5936C16.884 43.6439 16.961 43.6827 17.0427 43.7097L17.1658 43.7562C17.1793 43.764 17.1921 43.7678 17.206 43.7717C17.6558 43.9265 18.0788 44 18.5007 44C18.755 44 19.0167 43.9769 19.2764 43.9226C19.2942 43.9188 19.3112 43.9188 19.3283 43.911L19.3929 43.8955C28.8836 41.4804 35.6815 39.7657 39.0504 38.9335C39.0825 38.9258 39.1131 38.9181 39.1437 38.9064L39.4383 38.7941C41.0744 38.3877 42.3276 38.171 43.0654 38.171C43.5198 38.171 43.8879 37.8033 43.8879 37.3465V36.8008C43.8972 36.7505 43.9007 36.7002 43.8999 36.646L43.8879 29.6572C43.9266 29.4393 43.8751 29.2133 43.7427 29.0314Z" fill="#181713"/>
<path d="M15.1606 13.1235C15.1939 12.6664 15.2546 12.1988 15.3444 11.7111V11.7108C16.3651 6.14369 21.0415 2.03353 26.6237 1.67124C26.232 7.83398 21.3682 12.7256 15.1606 13.1235ZM24.2158 17.7303C20.5782 20.8012 15.1621 20.7722 11.5404 17.5437C11.5009 17.5085 11.4603 17.4756 11.42 17.4423C11.3945 17.421 11.3682 17.4005 11.3477 17.3812C11.3066 17.3421 11.2637 17.3037 11.2207 17.2658C11.189 17.2376 11.1557 17.2097 11.0988 17.1528C11.0198 17.0723 10.9471 16.9879 10.8735 16.9039L10.7458 16.7584C7.51423 13.1328 7.49101 7.7047 10.5766 4.06403C13.5485 7.37609 13.8887 12.3188 11.3364 16.0183C11.1112 16.3454 11.151 16.7862 11.4316 17.0673C11.7126 17.3483 12.1535 17.3881 12.481 17.1629C16.1058 14.6636 20.9219 14.9388 24.2158 17.7303ZM28.2942 0.84564L28.2938 0.802677C28.2822 0.373816 27.9428 0.0254631 27.5139 0.00301361L27.4713 0.000692368C27.457 -8.01086e-05 27.4423 -0.000469208 27.428 -0.000469208C21.6771 -0.000469208 16.6341 3.50976 14.5324 8.66035C14.1554 6.3976 13.0975 4.23743 11.3763 2.5158C11.3175 2.45735 11.2571 2.40355 11.1955 2.35014C11.1692 2.3273 11.1429 2.30446 11.117 2.28047C10.8124 1.99482 10.327 1.99404 10.0073 2.26343C9.98908 2.27853 9.97166 2.2944 9.9554 2.31143C5.71789 6.54933 5.52591 13.3763 9.51881 17.8549L9.54899 17.889L4.54395 22.8936L5.40051 23.751L10.4094 18.7424L10.4458 18.7726C12.6002 20.6928 15.2968 21.6454 17.9873 21.6454C20.8902 21.6454 23.7858 20.5365 25.9831 18.3391C25.9885 18.3337 26.0172 18.3031 26.0226 18.2981C26.3136 17.9908 26.3009 17.4853 26.0234 17.1656C26.0106 17.1512 25.997 17.1369 25.9831 17.1234C24.1334 15.2717 21.7754 14.1852 19.3276 13.8911C24.6036 11.9008 28.2954 6.83459 28.2942 0.84564Z" fill="#181713"/>
</svg>
