<svg width="40" height="39" viewBox="0 0 40 39" fill="none" xmlns="http://www.w3.org/2000/svg">
<path d="M11.9927 22.7929C15.7171 21.9735 18.9946 25.4 18.1752 29.0499C14.5998 29.8693 11.1733 26.8153 11.9927 22.7929Z" fill="#AEEF66"/>
<path d="M32.5507 31.2111C33.5935 31.2111 34.4129 32.0305 34.4129 33.0733C34.4129 34.1162 33.5935 34.9355 32.5507 34.9355C31.5079 34.9355 30.6885 34.1162 30.6885 33.0733C30.6885 32.0305 31.5079 31.2111 32.5507 31.2111Z" fill="#FFE44C"/>
<path d="M37.1695 15.3456C38.4358 15.3456 39.4787 16.3884 39.4787 17.6547C39.4787 18.921 38.4358 19.9639 37.1695 19.9639C35.9032 19.9639 34.8604 18.9955 34.8604 17.6547C34.8604 16.3884 35.9032 15.3456 37.1695 15.3456Z" fill="#FFE44C"/>
<path d="M9.23658 0.446788C9.98146 0.446788 10.6519 1.04269 10.6519 1.86207C10.6519 2.68144 10.056 3.27734 9.23658 3.27734C8.4172 3.27734 7.82129 2.68144 7.82129 1.86207C7.82129 1.04269 8.49169 0.446788 9.23658 0.446788Z" fill="#FFE44C"/>
<path d="M4.61833 26.5183C6.4284 26.5183 7.89583 27.9857 7.89583 29.7958C7.89583 31.6059 6.4284 33.0732 4.61833 33.0732C2.80825 33.0732 1.34082 31.6059 1.34082 29.7958C1.34082 27.9857 2.80825 26.5183 4.61833 26.5183Z" fill="#FFE44C"/>
<path d="M20.4834 8.34283C22.4164 8.34283 23.9844 9.9108 23.9844 11.8438C23.9844 13.7775 22.4164 15.3447 20.4834 15.3447C18.5497 15.3447 16.9824 13.7775 16.9824 11.8438C16.9824 9.9108 18.5497 8.34283 20.4834 8.34283Z" fill="#F0ADA1"/>
<path d="M25.4751 8.93923C25.4751 12.8126 22.3466 16.0156 18.3987 16.0156C14.4508 16.0156 11.3223 12.8871 11.3223 8.93923C11.3223 5.06584 14.5253 1.86284 18.3987 1.86284C22.3466 1.86284 25.4751 4.99135 25.4751 8.93923ZM20.4844 15.2707C22.4211 15.2707 23.9854 13.7065 23.9854 11.7698C23.9854 9.83309 22.4211 8.26884 20.4844 8.26884C18.5477 8.26884 16.9834 9.83309 16.9834 11.7698C16.9834 13.7065 18.6222 15.2707 20.4844 15.2707Z" fill="#D83C39"/>
<path d="M10.2051 11.1737C10.2051 7.89618 11.8438 4.99114 14.302 3.20342C12.5142 4.46972 11.3969 6.5554 11.3969 8.93902C11.3969 12.8124 14.5254 16.0154 18.4733 16.0154C22.4212 16.0154 25.5498 12.8869 25.5498 8.93902C25.5498 4.99114 22.4212 1.86263 18.4733 1.86263C17.058 1.86263 15.7917 2.23507 14.6744 2.97996C16.2387 2.01161 18.0264 1.4157 20.0376 1.4157C25.4008 1.4157 29.7956 5.81051 29.7956 11.1737C29.7956 16.5368 25.3263 20.9316 19.9631 20.9316C14.5999 20.9316 10.2051 16.5368 10.2051 11.1737Z" fill="#F95948"/>
<path d="M21.6012 29.1248C21.2287 27.4116 21.7501 25.6239 23.0165 24.2831C24.3573 22.9423 26.294 22.4954 27.9327 22.8678C28.4541 25.3259 27.0389 27.933 24.6552 28.9014C23.6869 29.1993 22.644 29.3483 21.6012 29.1248Z" fill="#86BC31"/>
<path d="M18.2494 34.7865C16.5361 35.159 14.7484 34.6375 13.4076 33.3712C12.0668 32.0305 11.6199 30.2427 11.9923 28.5295C15.7168 27.7101 18.9943 31.0621 18.2494 34.7865Z" fill="#86BC31"/>
<path d="M21.6021 34.7866C20.7827 31.0621 24.1347 27.7102 27.8592 28.5295C28.6785 32.254 25.401 35.6059 21.6021 34.7866Z" fill="#AEEF66"/>
<path d="M39.2554 33.5205C39.6256 33.5205 39.9258 33.8209 39.9258 34.1909C39.9258 34.5611 39.6256 34.8613 39.2554 34.8613C38.8852 34.8613 38.585 34.5611 38.585 34.1909C38.585 33.8209 38.8852 33.5205 39.2554 33.5205Z" fill="#101608"/>
<path d="M37.9145 7.44827C38.2847 7.44827 38.5849 7.74846 38.5849 8.11867C38.5849 8.48887 38.2847 8.78906 37.9145 8.78906C37.5443 8.78906 37.2441 8.48887 37.2441 8.11867C37.2441 7.74846 37.5443 7.44827 37.9145 7.44827Z" fill="#101608"/>
<path d="M31.8071 23.3155C32.1773 23.3155 32.4775 23.6158 32.4775 23.9859C32.4775 24.356 32.1773 24.6562 31.8071 24.6562C31.4369 24.6562 31.1367 24.356 31.1367 23.9859C31.1367 23.6158 31.4369 23.3155 31.8071 23.3155Z" fill="#101608"/>
<path d="M29.0513 0.00100732C29.4215 0.00100732 29.7217 0.301195 29.7217 0.671402C29.7217 1.04161 29.4215 1.3418 29.0513 1.3418C28.681 1.3418 28.3809 1.04161 28.3809 0.671402C28.3809 0.301195 28.681 0.00100732 29.0513 0.00100732Z" fill="#101608"/>
<path d="M10.8755 36.3496C11.2457 36.3496 11.5459 36.65 11.5459 37.02C11.5459 37.3902 11.2457 37.6904 10.8755 37.6904C10.5053 37.6904 10.2051 37.3902 10.2051 37.02C10.2051 36.65 10.5053 36.3496 10.8755 36.3496Z" fill="#101608"/>
<path d="M8.11962 16.7598C8.48983 16.7598 8.79002 17.06 8.79002 17.4302C8.79002 17.8004 8.48983 18.1006 8.11962 18.1006C7.74941 18.1006 7.44922 17.8004 7.44922 17.4302C7.44922 17.06 7.74941 16.7598 8.11962 16.7598Z" fill="#101608"/>
<path d="M2.53173 4.17191C2.90194 4.17191 3.20213 4.47209 3.20213 4.8423C3.20213 5.21251 2.90194 5.5127 2.53173 5.5127C2.16152 5.5127 1.86133 5.21251 1.86133 4.8423C1.86133 4.47209 2.16152 4.17191 2.53173 4.17191Z" fill="#101608"/>
<path d="M0.670399 22.794C1.04061 22.794 1.3408 23.0943 1.3408 23.4644C1.3408 23.8345 1.04061 24.1348 0.670399 24.1348C0.30019 24.1348 0 23.8345 0 23.4644C0 23.0943 0.30019 22.794 0.670399 22.794Z" fill="#101608"/>
<path d="M19.9626 38.1377C19.7391 38.1377 19.5156 37.9142 19.5156 37.6908V20.9309C19.5156 20.7074 19.7391 20.484 19.9626 20.484C20.186 20.484 20.4095 20.7074 20.4095 20.9309V37.6908C20.4095 37.9142 20.186 38.1377 19.9626 38.1377Z" fill="#101608"/>
<path d="M21.9739 28.6781C22.1973 28.6781 22.4208 28.7526 22.6443 28.7526C23.2402 28.7526 23.9106 28.6036 24.432 28.3802C25.0279 28.1567 25.5493 27.7843 26.0707 27.3373C27.1881 26.22 27.7095 24.6558 27.486 23.2405C27.2626 23.2405 27.0391 23.166 26.7411 23.166C25.4003 23.166 24.134 23.6874 23.2402 24.5813C22.2718 25.6986 21.8249 27.1884 21.9739 28.6781ZM22.7187 29.6465C22.3463 29.6465 21.8994 29.572 21.5269 29.4975C21.3779 29.423 21.229 29.3485 21.1545 29.1251C20.782 27.1884 21.3035 25.2517 22.7187 23.8364C23.7616 22.7936 25.3258 22.1232 26.8901 22.1232C27.2626 22.1232 27.7095 22.1977 28.0819 22.2721C28.2309 22.3466 28.3799 22.4211 28.4544 22.6446C28.8268 24.5068 28.2309 26.518 26.8156 27.9333C26.2942 28.4547 25.6238 28.9016 24.8789 29.1996C24.2085 29.572 23.4636 29.6465 22.7187 29.6465Z" fill="#101608"/>
<path d="M19.9634 31.2109C19.8144 31.2109 19.7399 31.1364 19.6654 31.062C19.5165 30.913 19.5165 30.615 19.6654 30.3916L24.6562 25.4008C24.8052 25.2519 25.1031 25.2519 25.3266 25.4008C25.4756 25.5498 25.4756 25.8478 25.3266 26.0712L20.3358 31.062C20.1869 31.1364 20.1124 31.2109 19.9634 31.2109Z" fill="#101608"/>
<path d="M21.9739 34.4145C22.1973 34.4145 22.4208 34.489 22.6443 34.489C23.9106 34.489 25.1769 33.9675 26.0707 33.0737C27.1881 31.9564 27.635 30.4666 27.4115 28.9768C27.1881 28.9768 26.9646 28.9023 26.7411 28.9023C26.0707 28.9023 25.4003 29.0513 24.8044 29.2748C24.2085 29.4982 23.7616 29.8707 23.3146 30.3176C22.2718 31.3604 21.8249 32.9247 21.9739 34.4145ZM22.7187 35.3828C22.3463 35.3828 21.9739 35.3083 21.6014 35.2338H21.5269C21.3779 35.1593 21.229 35.0849 21.1545 34.8614C20.782 32.9247 21.3035 30.988 22.7187 29.5727C23.2402 29.0513 23.8361 28.6044 24.5065 28.3809C25.2514 28.083 25.9962 27.934 26.8156 27.934C27.1881 27.934 27.635 28.0085 28.0074 28.083C28.1564 28.1574 28.3054 28.2319 28.3799 28.4554C28.7523 30.3921 28.2309 32.3288 26.8156 33.7441C25.6983 34.7869 24.283 35.3828 22.7187 35.3828Z" fill="#101608"/>
<path d="M20.0376 36.9463C19.8886 36.9463 19.8142 36.8718 19.7397 36.7973C19.5907 36.6483 19.5907 36.3504 19.7397 36.1269L24.6559 31.1362C24.8049 30.9872 25.1029 30.9872 25.3263 31.1362C25.4753 31.2852 25.4753 31.5831 25.3263 31.8066L20.4101 36.7973C20.2611 36.8718 20.1866 36.9463 20.0376 36.9463Z" fill="#101608"/>
<path d="M12.4396 23.2405C12.2162 24.8047 12.6631 26.2945 13.706 27.3373C14.1529 27.7843 14.6743 28.1567 15.1957 28.3802C15.7916 28.6036 16.462 28.7526 17.1324 28.7526C17.3559 28.7526 17.5794 28.7526 17.8028 28.6781C18.0263 27.3373 17.6539 25.9966 16.76 24.9537C15.8661 23.8364 14.5253 23.166 13.11 23.166C12.8866 23.166 12.6631 23.166 12.4396 23.2405ZM17.1324 29.6465C16.3131 29.6465 15.5682 29.4975 14.8233 29.1996C14.1529 28.9016 13.557 28.5292 13.0356 28.0077C11.6948 26.667 11.1733 24.7303 11.5458 22.7191C11.6203 22.5701 11.6948 22.4211 11.9182 22.3466C12.2907 22.2721 12.7376 22.1977 13.11 22.1977C14.8233 22.1977 16.3876 22.9425 17.5049 24.3578C18.6222 25.6986 19.0691 27.4863 18.6967 29.1996C18.6222 29.3485 18.5477 29.4975 18.3243 29.572C17.9518 29.6465 17.5049 29.6465 17.1324 29.6465Z" fill="#101608"/>
<path d="M19.8877 31.2109C19.7388 31.2109 19.6643 31.1364 19.5898 31.062L14.599 26.0712C14.4501 25.9223 14.4501 25.6243 14.599 25.4008C14.748 25.2519 15.046 25.2519 15.2694 25.4008L20.2602 30.3916C20.4092 30.5405 20.4092 30.8385 20.2602 31.062C20.1112 31.1364 19.9622 31.2109 19.8877 31.2109Z" fill="#101608"/>
<path d="M12.3638 28.9023C12.1403 30.3921 12.6617 31.9564 13.7046 32.9992C14.5984 33.893 15.8647 34.4145 17.1311 34.4145C17.3545 34.4145 17.578 34.4145 17.8015 34.34C18.0249 32.8502 17.5035 31.286 16.4607 30.2431C16.0137 29.7962 15.4923 29.4237 14.8964 29.2003C14.3005 28.9768 13.7046 28.8278 13.1087 28.8278C12.8107 28.9023 12.5872 28.9023 12.3638 28.9023ZM17.1311 35.3828C15.5668 35.3828 14.1515 34.7869 13.0342 33.6696C11.6189 32.2543 11.0975 30.3176 11.4699 28.3809C11.5444 28.2319 11.6189 28.083 11.8423 28.0085C12.2148 27.934 12.6617 27.8595 13.0342 27.8595C13.7791 27.8595 14.5239 28.0085 15.1943 28.3064C15.9392 28.6044 16.5351 29.0513 17.1311 29.5727C18.4718 30.9135 19.0678 32.9247 18.6953 34.7869V34.8614C18.6208 35.0104 18.5463 35.1593 18.3229 35.2338C17.9504 35.3828 17.5035 35.3828 17.1311 35.3828Z" fill="#101608"/>
<path d="M19.9622 36.9463C19.8133 36.9463 19.7388 36.8718 19.6643 36.7973L14.599 31.8066C14.4501 31.6576 14.4501 31.3597 14.599 31.1362C14.748 30.9872 15.046 30.9872 15.2694 31.1362L20.3347 36.1269C20.4837 36.2759 20.4837 36.5738 20.3347 36.7973C20.1857 36.8718 20.1112 36.9463 19.9622 36.9463Z" fill="#101608"/>
<path d="M14.3013 3.65039C14.1523 3.65039 14.0034 3.5759 13.9289 3.42693C13.7799 3.20346 13.8544 2.90551 14.0034 2.75653C14.0778 2.75653 14.0778 2.68204 14.1523 2.68204H14.2268C14.4503 2.53307 14.7482 2.60755 14.8972 2.83102C15.0462 3.05448 14.9717 3.35244 14.7482 3.50141H14.6737L14.5993 3.5759C14.5248 3.5759 14.4503 3.65039 14.3013 3.65039Z" fill="#101608"/>
<path d="M14.6734 3.42625C14.6734 3.50073 14.5989 3.50073 14.5244 3.57522C12.0663 5.28845 10.5765 8.1935 10.5765 11.173C10.5765 16.3127 14.7479 20.4841 19.8876 20.4841C25.0273 20.4841 29.1987 16.3127 29.1987 11.173C29.1987 6.03334 25.1018 1.86199 19.9621 1.86199C18.1743 1.86199 16.3866 2.38341 14.8968 3.35176C14.8223 3.35176 14.7479 3.42625 14.6734 3.42625ZM19.9621 21.3779C14.3009 21.3779 9.68262 16.7597 9.68262 11.0985C9.68262 7.82106 11.3214 4.69255 14.003 2.75585C14.0775 2.68136 14.1519 2.68136 14.2264 2.68136C14.2264 2.60687 14.3009 2.60687 14.3754 2.53239C16.0142 1.41506 17.9509 0.893644 19.9621 0.893644C25.6232 0.893644 30.2415 5.51192 30.2415 11.173C30.2415 16.8341 25.6232 21.3779 19.9621 21.3779Z" fill="#101608"/>
<path d="M19.9626 19.0684C19.7391 19.0684 19.5156 18.8449 19.5156 18.6214C19.5156 18.398 19.7391 18.1745 19.9626 18.1745C23.836 18.1745 26.9645 15.046 26.9645 11.1726C26.9645 10.9491 27.188 10.7257 27.4114 10.7257C27.6349 10.7257 27.8584 10.9491 27.8584 11.1726C27.8584 15.4929 24.3574 19.0684 19.9626 19.0684Z" fill="#101608"/>
<path d="M14.5994 3.57571C12.8862 4.84201 11.8434 6.7787 11.8434 8.93886C11.8434 12.5888 14.8229 15.4938 18.3984 15.4938C22.0483 15.4938 24.9534 12.5143 24.9534 8.93886C24.9534 5.36343 21.9738 2.38389 18.3984 2.38389C17.1321 2.38389 15.9402 2.75633 14.8229 3.42673C14.7484 3.42673 14.7484 3.50122 14.6739 3.50122H14.5994C14.6739 3.50122 14.5994 3.50122 14.5994 3.57571ZM18.3984 16.3877C14.227 16.3877 10.875 13.0357 10.875 8.86438C10.875 6.48075 12.0668 4.17161 14.0035 2.75633C14.078 2.75633 14.078 2.68185 14.1525 2.68185H14.227C14.3015 2.60736 14.3015 2.60736 14.376 2.60736C15.5678 1.86247 16.9831 1.41554 18.3984 1.41554C22.5697 1.41554 25.9217 4.76752 25.9217 8.93886C25.9217 13.0357 22.5697 16.3877 18.3984 16.3877Z" fill="#101608"/>
<path d="M20.484 8.79036C18.8453 8.79036 17.5045 10.1311 17.5045 11.7699C17.5045 13.4086 18.8453 14.7494 20.484 14.7494C22.1228 14.7494 23.4636 13.4086 23.4636 11.7699C23.4636 10.1311 22.1973 8.79036 20.484 8.79036ZM20.484 15.7178C18.3239 15.7178 16.5361 13.9301 16.5361 11.7699C16.5361 9.60973 18.3239 7.82201 20.484 7.82201C22.6442 7.82201 24.4319 9.60973 24.4319 11.7699C24.4319 13.9301 22.7187 15.7178 20.484 15.7178Z" fill="#101608"/>
<path d="M37.1694 15.7916C36.1266 15.7916 35.3072 16.611 35.3072 17.6538C35.3072 18.6967 36.1266 19.516 37.1694 19.516C38.2123 19.516 39.0317 18.6967 39.0317 17.6538C39.0317 16.611 38.2123 15.7916 37.1694 15.7916ZM37.1694 20.4844C35.6052 20.4844 34.3389 19.2181 34.3389 17.6538C34.3389 16.0896 35.6052 14.8233 37.1694 14.8233C38.7337 14.8233 40 16.0896 40 17.6538C40 19.2181 38.7337 20.4844 37.1694 20.4844Z" fill="#101608"/>
<path d="M9.23624 0.894053C8.71482 0.894053 8.26789 1.34098 8.26789 1.8624C8.26789 2.38382 8.71482 2.83075 9.23624 2.83075C9.75766 2.83075 10.2046 2.38382 10.2046 1.8624C10.2046 1.34098 9.75766 0.894053 9.23624 0.894053ZM9.23624 3.72461C8.1934 3.72461 7.37402 2.90524 7.37402 1.8624C7.37402 0.819565 8.1934 0.000193834 9.23624 0.000193834C10.2791 0.000193834 11.0985 0.819565 11.0985 1.8624C11.0985 2.90524 10.2791 3.72461 9.23624 3.72461Z" fill="#101608"/>
<path d="M4.61799 26.9646C3.05373 26.9646 1.78742 28.2309 1.78742 29.7951C1.78742 31.3594 3.05373 32.6257 4.61799 32.6257C6.18226 32.6257 7.44857 31.3594 7.44857 29.7951C7.44857 28.2309 6.10777 26.9646 4.61799 26.9646ZM4.61799 33.5195C2.53231 33.5195 0.893555 31.8808 0.893555 29.7951C0.893555 27.7094 2.53231 26.0707 4.61799 26.0707C6.70368 26.0707 8.34243 27.7094 8.34243 29.7951C8.34243 31.8063 6.62919 33.5195 4.61799 33.5195Z" fill="#101608"/>
<path d="M32.5513 31.6584C31.8065 31.6584 31.1361 32.2543 31.1361 33.0737C31.1361 33.893 31.732 34.489 32.5513 34.489C33.3707 34.489 33.9666 33.893 33.9666 33.0737C33.9666 32.2543 33.2962 31.6584 32.5513 31.6584ZM32.5513 35.3828C31.285 35.3828 30.2422 34.34 30.2422 33.0737C30.2422 31.8074 31.285 30.7645 32.5513 30.7645C33.8176 30.7645 34.8605 31.7329 34.8605 33.0737C34.8605 34.34 33.8176 35.3828 32.5513 35.3828Z" fill="#101608"/>
</svg>
