<svg width="21" height="21" viewBox="0 0 21 21" fill="none" xmlns="http://www.w3.org/2000/svg">
<path d="M6.33333 9.65H8V11.35H6.33333V9.65ZM18 5.4V17.3C18 18.235 17.25 19 16.3333 19H4.66667C4.22464 19 3.80072 18.8209 3.48816 18.5021C3.17559 18.1833 3 17.7509 3 17.3L3.00833 5.4C3.00833 4.465 3.74167 3.7 4.66667 3.7H5.5V2H7.16667V3.7H13.8333V2H15.5V3.7H16.3333C17.25 3.7 18 4.465 18 5.4ZM4.66667 7.1H16.3333V5.4H4.66667V7.1ZM16.3333 17.3V8.8H4.66667V17.3H16.3333ZM13 11.35H14.6667V9.65H13V11.35ZM9.66667 11.35H11.3333V9.65H9.66667V11.35Z" fill="white"/>
</svg>
