<svg width="101" height="100" viewBox="0 0 101 100" fill="none" xmlns="http://www.w3.org/2000/svg">
<path d="M27.5005 17.0969C27.1527 16.0095 26.9764 14.8664 26.9764 13.6985C26.9764 10.9657 27.9403 8.39497 29.6879 6.459C31.4289 4.53298 33.7361 3.47147 36.188 3.46849C39.782 3.46849 43.0761 5.82626 44.5766 9.47635C44.865 10.1757 45.5031 10.6274 46.2054 10.6274C46.9049 10.6274 47.543 10.1747 47.8295 9.47535C49.3319 5.82626 52.6241 3.46849 56.2209 3.46849C58.6719 3.47147 60.981 4.53298 62.72 6.458C64.4677 8.39696 65.4297 10.9676 65.4297 13.6985C65.4297 14.8953 65.2467 16.0632 64.8835 17.1695C64.4265 18.5663 63.682 19.8645 62.7124 20.9449L46.2294 39.073L30.3376 21.5936L30.2475 21.505C29.8805 21.1598 29.5327 20.7768 29.2127 20.3669C28.4567 19.391 27.8809 18.2907 27.5005 17.0969ZM44.8841 42.5052L44.888 42.5082C45.2559 42.9121 45.7522 43.1201 46.2313 43.1171C46.7065 43.123 47.2096 42.9091 47.5727 42.5082L47.5765 42.5052L64.9697 23.3734C64.9803 23.3624 64.986 23.3475 64.9956 23.3365C66.2498 21.9368 67.2377 20.2396 67.8586 18.3444C68.3319 16.89 68.5906 15.3241 68.5906 13.6985C68.5887 6.14065 63.0477 0.00342941 56.2209 0.00044632C52.0884 0.00044632 48.4504 2.27068 46.2054 5.7228C43.9576 2.27068 40.3195 0.00044632 36.188 0.00044632C29.3641 0.00342941 23.8193 6.14065 23.8174 13.6985C23.8174 15.2873 24.0646 16.8203 24.5178 18.2429C25.0361 19.8675 25.8218 21.3479 26.8135 22.6232L26.8154 22.6262C27.214 23.1376 27.6519 23.6141 28.1166 24.0578L28.1128 24.0608L44.8841 42.5052Z" fill="white"/>
<path d="M96.4104 81.2571C94.5075 81.4939 92.0652 82.0271 89.1179 82.8498C89.0451 82.8697 88.9694 82.8946 88.8985 82.9245L88.2422 83.1921C77.7438 86.0602 55.8463 92.2193 43.6923 95.6446L43.5964 95.6714C42.7351 95.8485 41.9379 95.7779 41.111 95.4605L40.9481 95.3919L7.0767 68.2037C6.99239 68.1361 6.90234 68.0734 6.80844 68.0207C6.47596 67.8307 6.15403 67.573 5.85029 67.2536C5.83592 67.2347 5.81865 67.2179 5.80428 67.1999C5.00998 66.3344 4.57404 65.1854 4.57404 63.9657C4.57404 61.6 6.14635 59.664 8.22935 59.463C8.30984 59.4561 8.39032 59.4421 8.46889 59.4252C8.86173 59.3377 9.28045 59.3466 9.60814 59.3974C9.76719 59.4242 9.92241 59.46 10.0403 59.4978C10.2012 59.5535 10.3794 59.6361 10.5739 59.7446C10.6975 59.8142 10.8231 59.8848 10.9371 59.9684C10.9524 59.9793 10.9668 59.9893 10.9821 60.0002L14.648 62.934C14.6758 62.9559 14.7045 62.9768 14.7323 62.9977L35.5739 77.9582C35.7684 78.0975 35.9859 78.2019 36.2158 78.2636C36.9881 78.4735 37.8629 78.5452 38.8881 78.4885C39.0175 78.4805 39.1439 78.4596 39.2694 78.4278C40.2238 78.181 44.6839 76.8887 52.5283 74.5916L52.9087 74.4792C54.6132 73.937 56.1999 73.4715 57.8096 73.0447L62.9596 71.5325C63.1263 71.4817 63.2873 71.4111 63.4368 71.3196C65.8503 69.8413 67.3498 67.0666 67.3498 64.0771C67.3498 59.9903 64.6603 56.5352 60.9552 55.8637C60.8392 55.8408 60.7214 55.8299 60.6035 55.8299H47.3706C46.4373 55.8299 45.6775 54.9255 45.6775 53.8143C45.6775 52.7011 46.4373 51.7967 47.3706 51.7967L61.53 51.7957C63.3352 51.7361 65.5715 51.7072 68.3645 51.7072C73.8547 51.7072 77.6719 54.071 80.9775 56.6237C81.8437 57.2933 82.684 57.9837 83.5166 58.6691C87.2352 61.7253 91.0678 64.875 96.397 65.5355V79.147L96.4219 81.1696C96.418 81.1984 96.4142 81.2272 96.4104 81.2571ZM100.108 62.3003C99.7246 61.7542 99.1143 61.4308 98.4637 61.4308C93.4401 61.4308 90.0138 58.6144 86.0452 55.3523C85.18 54.642 84.3081 53.9257 83.4103 53.2313C79.7272 50.386 75.0581 47.4771 68.3645 47.4771C65.4882 47.4771 63.2758 47.506 61.4659 47.5667H47.3706C44.1914 47.5667 41.6035 50.3691 41.6035 53.8143C41.6035 57.2584 44.1914 60.0609 47.3706 60.0609H60.4071C62.0781 60.4479 63.2758 62.1093 63.2758 64.0771C63.2758 65.4898 62.6262 66.796 61.5655 67.5452L56.7518 68.9598C55.1297 69.3896 53.4807 69.8721 51.7579 70.4212L51.4226 70.5207C42.4677 73.1441 39.395 74.0236 38.4742 74.2723C38.1187 74.2852 37.8102 74.2723 37.5496 74.2325L17.0922 59.5496L13.3583 56.562C13.2912 56.5063 13.2203 56.4566 13.1456 56.4128C12.9454 56.2755 12.7355 56.1502 12.5161 56.0258C12.1012 55.793 11.7103 55.6169 11.2868 55.4697C10.9725 55.3692 10.6324 55.2867 10.2558 55.221C9.268 55.0618 8.5398 55.0986 7.73304 55.2628C3.60152 55.7274 0.5 59.4451 0.5 63.9657C0.5 66.2519 1.31826 68.4156 2.80626 70.0651C2.83788 70.1039 2.8714 70.1417 2.90685 70.1785C3.45683 70.7655 4.0576 71.2569 4.69764 71.6409L38.6879 98.9236C38.8728 99.0718 39.0769 99.1842 39.2924 99.2569L39.6307 99.4011C40.6789 99.805 41.6744 100 42.6699 100C43.263 100 43.8753 99.9323 44.4875 99.8C44.5306 99.7911 44.5718 99.7811 44.6121 99.7682L44.7683 99.7234C56.952 96.2902 78.9539 90.1033 89.3929 87.251C89.4677 87.2311 89.5405 87.2053 89.6114 87.1764L90.2831 86.9038C93.9087 85.8981 96.7994 85.3439 98.435 85.3439C99.5598 85.3439 100.471 84.3978 100.471 83.2289V81.85C100.492 81.7257 100.502 81.5983 100.5 81.469L100.471 63.9C100.563 63.3409 100.434 62.7649 100.108 62.3003Z" fill="white"/>
</svg>
