<svg width="25" height="24" viewBox="0 0 25 24" fill="none" xmlns="http://www.w3.org/2000/svg">
<path d="M13.2488 3.93957C14.2488 3.21957 15.4088 2.85957 16.7188 2.85957C17.4388 2.85957 18.2288 3.04957 19.0888 3.44957C19.9488 3.83957 20.6288 4.29957 21.1288 4.82957C22.1588 6.10957 22.5888 7.59957 22.4388 9.29957C22.2788 10.9996 21.7188 12.3296 20.7488 13.2696L13.1588 20.8596C12.9688 21.0496 12.7288 21.1396 12.4488 21.1396C12.1688 21.1396 11.9388 21.0496 11.7488 20.8596C11.6564 20.7685 11.5838 20.6593 11.5356 20.5389C11.4874 20.4184 11.4647 20.2893 11.4688 20.1596C11.4688 19.8796 11.5588 19.6396 11.7488 19.4496L16.3388 14.8596C16.5888 14.6396 16.5888 14.4096 16.3388 14.1596C16.0888 13.9096 15.8588 13.9096 15.6388 14.1596L11.0488 18.7496C10.9563 18.8428 10.8454 18.9158 10.7232 18.964C10.601 19.0122 10.4701 19.0345 10.3388 19.0296C10.0588 19.0296 9.82883 18.9396 9.63883 18.7496C9.54637 18.6585 9.47376 18.5493 9.42557 18.4289C9.37738 18.3084 9.35466 18.1793 9.35883 18.0496C9.35883 17.7696 9.44883 17.5296 9.63883 17.3396L14.2288 12.7496C14.4988 12.4996 14.4988 12.2496 14.2288 11.9996C13.9988 11.7496 13.7788 11.7496 13.5288 11.9996L8.93883 16.6396C8.84522 16.7314 8.73416 16.8034 8.6122 16.8515C8.49025 16.8996 8.35988 16.9228 8.22883 16.9196C7.94883 16.9196 7.70883 16.8296 7.49883 16.6396C7.29883 16.4496 7.19883 16.2196 7.19883 15.9396C7.19883 15.6596 7.30883 15.4096 7.52883 15.1896L12.1288 10.5896C12.3788 10.3396 12.3788 10.1096 12.1288 9.88957C11.8788 9.66957 11.6388 9.66957 11.4188 9.88957L6.77883 14.4996C6.55883 14.6996 6.32883 14.8096 6.07883 14.8096C5.79883 14.8096 5.55883 14.7096 5.37883 14.4996C5.18883 14.2996 5.08883 14.0596 5.08883 13.7796C5.08883 13.4996 5.18883 13.2696 5.37883 13.0796C8.43883 9.99957 10.3288 8.13957 11.0488 7.44957L14.6088 10.9696C14.9988 11.3396 15.4488 11.5296 15.9988 11.5296C16.6988 11.5296 17.2488 11.2496 17.6588 10.6896C17.9388 10.2796 18.0388 9.82957 17.9588 9.32957C17.8788 8.82957 17.6688 8.40957 17.3288 8.05957L13.2488 3.93957ZM15.3088 10.2696L11.0488 5.99957L3.96883 13.0796C3.12883 12.2296 2.64883 10.9296 2.53883 9.15957C2.42883 7.39957 2.90883 5.86957 3.96883 4.58957C5.15883 3.40957 6.57883 2.80957 8.22883 2.80957C9.88883 2.80957 11.2988 3.40957 12.4488 4.58957L16.7188 8.85957C16.9088 9.04957 16.9988 9.27957 16.9988 9.55957C16.9988 9.83957 16.9088 10.0796 16.7188 10.2696C16.5288 10.4496 16.2988 10.5496 15.9988 10.5496C15.7288 10.5496 15.4988 10.4496 15.3088 10.2696Z" fill="white"/>
</svg>
