<svg width="32" height="32" viewBox="0 0 32 32" fill="none" xmlns="http://www.w3.org/2000/svg">
<path d="M19.0338 5.741C19.0677 5.61409 19.1263 5.49511 19.2063 5.39086C19.2862 5.28661 19.3859 5.19914 19.4997 5.13344C19.6134 5.06773 19.739 5.02509 19.8693 5.00794C19.9995 4.99079 20.1319 4.99948 20.2588 5.0335C22.1126 5.51718 23.804 6.4863 25.1587 7.84104C26.5135 9.19578 27.4826 10.8872 27.9663 12.741C28.0003 12.8679 28.009 13.0002 27.9918 13.1305C27.9747 13.2607 27.932 13.3863 27.8663 13.5001C27.8006 13.6138 27.7131 13.7135 27.6089 13.7935C27.5047 13.8734 27.3857 13.9321 27.2588 13.966C27.1743 13.9882 27.0873 13.9995 27 13.9997C26.7796 13.9997 26.5655 13.9269 26.3907 13.7927C26.216 13.6584 26.0905 13.4702 26.0338 13.2572C25.6393 11.7439 24.8483 10.3631 23.7425 9.25728C22.6366 8.15142 21.2559 7.36048 19.7425 6.966C19.6155 6.93219 19.4964 6.87366 19.392 6.79378C19.2876 6.71389 19.2 6.61421 19.1342 6.50044C19.0683 6.38666 19.0256 6.26102 19.0084 6.13071C18.9911 6.0004 18.9998 5.86797 19.0338 5.741ZM18.7425 10.966C20.4663 11.426 21.5738 12.5335 22.0338 14.2572C22.0905 14.4702 22.216 14.6584 22.3907 14.7927C22.5655 14.9269 22.7796 14.9997 23 14.9997C23.0873 14.9995 23.1743 14.9882 23.2588 14.966C23.3857 14.9321 23.5047 14.8734 23.6089 14.7935C23.7131 14.7135 23.8006 14.6138 23.8663 14.5001C23.932 14.3863 23.9747 14.2607 23.9918 14.1305C24.009 14.0002 24.0003 13.8679 23.9663 13.741C23.3263 11.346 21.6538 9.6735 19.2588 9.0335C19.1319 8.9996 18.9995 8.99103 18.8693 9.00827C18.7391 9.02551 18.6136 9.06823 18.4999 9.13398C18.3862 9.19974 18.2866 9.28724 18.2067 9.3915C18.1268 9.49576 18.0683 9.61473 18.0344 9.74162C18.0005 9.86851 17.9919 10.0008 18.0092 10.131C18.0264 10.2612 18.0691 10.3868 18.1349 10.5005C18.2006 10.6142 18.2881 10.7138 18.3924 10.7937C18.4967 10.8735 18.6156 10.9321 18.7425 10.966ZM28.985 22.8847C28.7621 24.5785 27.9303 26.1333 26.6449 27.2586C25.3595 28.3839 23.7084 29.0028 22 28.9997C12.075 28.9997 4.00001 20.9247 4.00001 10.9997C3.99695 9.29136 4.61587 7.64028 5.74118 6.35487C6.86649 5.06946 8.42122 4.23763 10.115 4.01475C10.5433 3.96245 10.9771 4.05007 11.3515 4.26455C11.7259 4.47902 12.0209 4.80883 12.1925 5.20475L14.8325 11.0985V11.1135C14.9639 11.4166 15.0181 11.7474 14.9904 12.0766C14.9627 12.4057 14.8539 12.7229 14.6738 12.9997C14.6513 13.0335 14.6275 13.0647 14.6025 13.096L12 16.181C12.9363 18.0835 14.9263 20.056 16.8538 20.9947L19.8963 18.406C19.9261 18.3809 19.9574 18.3575 19.99 18.336C20.2666 18.1515 20.5849 18.0389 20.916 18.0083C21.2471 17.9778 21.5806 18.0302 21.8863 18.161L21.9025 18.1685L27.7913 20.8072C28.1879 20.9782 28.5185 21.273 28.7337 21.6474C28.9489 22.0219 29.037 22.456 28.985 22.8847ZM27 22.6347H26.9863L21.1113 20.0035L18.0675 22.5922C18.038 22.6173 18.0071 22.6406 17.975 22.6622C17.6872 22.8543 17.3545 22.9683 17.0094 22.9933C16.6644 23.0183 16.3187 22.9533 16.0063 22.8047C13.665 21.6735 11.3313 19.3572 10.1988 17.041C10.0488 16.7308 9.9815 16.3872 10.0034 16.0433C10.0253 15.6995 10.1357 15.3671 10.3238 15.0785C10.345 15.0446 10.3688 15.0124 10.395 14.9822L13 11.8935L10.375 6.0185C10.3745 6.01351 10.3745 6.00848 10.375 6.0035C9.16283 6.16162 8.04986 6.7562 7.24453 7.67589C6.43919 8.59558 5.99674 9.7773 6.00001 10.9997C6.00464 15.2418 7.69184 19.3088 10.6914 22.3083C13.691 25.3079 17.758 26.9951 22 26.9997C23.2217 27.0039 24.4031 26.563 25.3233 25.7594C26.2436 24.9559 26.8396 23.8446 27 22.6335V22.6347Z" fill="white"/>
</svg>
