<svg width="32" height="32" viewBox="0 0 32 32" fill="none" xmlns="http://www.w3.org/2000/svg">
<path d="M16.0013 29.3327C23.3651 29.3327 29.3346 23.3631 29.3346 15.9993C29.3346 8.63555 23.3651 2.66602 16.0013 2.66602C8.63751 2.66602 2.66797 8.63555 2.66797 15.9993C2.66797 23.3631 8.63751 29.3327 16.0013 29.3327Z" stroke="white" stroke-width="2.5"/>
<path d="M16.6314 9.15785C16.6314 8.51839 16.113 8 15.4735 8C14.8341 8 14.3157 8.51839 14.3157 9.15785H16.6314ZM18.6079 18.3738C18.1557 17.9217 17.4227 17.9217 16.9706 18.3738C16.5184 18.826 16.5184 19.559 16.9706 20.0112L18.6079 18.3738ZM19.2862 22.3269C19.7384 22.7791 20.4714 22.7791 20.9236 22.3269C21.3758 21.8747 21.3758 21.1417 20.9236 20.6895L19.2862 22.3269ZM14.3157 9.15785V14.5611H16.6314V9.15785H14.3157ZM16.9706 20.0112L19.2862 22.3269L20.9236 20.6895L18.6079 18.3738L16.9706 20.0112ZM16.6314 16.8768C16.6314 17.5163 16.113 18.0347 15.4735 18.0347V20.3504C17.3919 20.3504 18.9471 18.7951 18.9471 16.8768H16.6314ZM15.4735 18.0347C14.8341 18.0347 14.3157 17.5163 14.3157 16.8768H12C12 18.7951 13.5552 20.3504 15.4735 20.3504V18.0347ZM14.3157 16.8768C14.3157 16.2374 14.8341 15.719 15.4735 15.719V13.4033C13.5552 13.4033 12 14.9585 12 16.8768H14.3157ZM15.4735 15.719C16.113 15.719 16.6314 16.2374 16.6314 16.8768H18.9471C18.9471 14.9585 17.3919 13.4033 15.4735 13.4033V15.719Z" fill="white"/>
</svg>
