<svg width="24" height="24" viewBox="0 0 24 24" fill="none" xmlns="http://www.w3.org/2000/svg">
<circle cx="12" cy="12" r="12" fill="#F5F3F4"/>
<path fill-rule="evenodd" clip-rule="evenodd" d="M7.82255 19.7332C7.78597 19.7332 7.75405 19.7293 7.71747 19.7207C7.60849 19.6927 7.51508 19.6234 7.45825 19.5261L5.45772 16.1237C5.40089 16.0264 5.38455 15.9088 5.41335 15.7998C5.44137 15.6909 5.51454 15.5975 5.61573 15.5406L6.96473 14.7871C7.16323 14.6781 7.41466 14.7428 7.53143 14.9374L9.5483 18.2706C9.60513 18.3679 9.62536 18.4816 9.59656 18.5906C9.56854 18.6996 9.50315 18.793 9.40585 18.8498L8.04127 19.6718C7.97199 19.7131 7.89962 19.7332 7.82255 19.7332ZM5.88663 15.926L7.83891 19.2475L9.12719 18.4699L7.15468 15.2137L5.88663 15.926Z" fill="#181713"/>
<path fill-rule="evenodd" clip-rule="evenodd" d="M9.19956 18.3802C9.14274 18.3802 9.08591 18.36 9.04154 18.3195C8.94813 18.2308 8.94035 18.0844 9.02909 17.9918C9.13807 17.8743 9.45022 17.5746 9.95695 17.3761C10.4995 17.1651 11.0833 17.1332 11.6983 17.2874C13.2575 17.668 16.34 16.8904 17.8182 14.7482C18.0533 14.408 18.1623 14.0032 18.1257 13.6062C18.1218 13.5533 18.1133 13.5011 18.1055 13.4521C18.0814 13.3307 17.9879 13.2816 17.9475 13.27C17.8626 13.2419 17.7731 13.2575 17.7046 13.3143C17.5995 13.4031 17.4897 13.4926 17.3847 13.5735C16.6802 14.1083 15.5701 14.724 14.2943 14.6182C14.1643 14.6057 14.0717 14.4968 14.0794 14.3668C14.0919 14.2368 14.2009 14.1441 14.3309 14.1519C15.4611 14.2453 16.4613 13.6864 17.1012 13.1999C17.2024 13.1229 17.3036 13.0419 17.4009 12.957C17.5955 12.7866 17.8586 12.7383 18.1015 12.8232C18.3443 12.908 18.5187 13.1065 18.567 13.3579C18.5794 13.4225 18.5872 13.4918 18.595 13.5603C18.6393 14.0663 18.5016 14.5808 18.2058 15.0066C17.8251 15.5616 17.3269 16.0513 16.7315 16.4732C16.1967 16.8538 15.5934 17.1621 14.9411 17.3964C13.7423 17.8261 12.4868 17.9514 11.5877 17.7327C10.2791 17.4127 9.514 18.1499 9.37232 18.2993C9.32483 18.3523 9.26417 18.3802 9.19956 18.3802Z" fill="#181713"/>
<path fill-rule="evenodd" clip-rule="evenodd" d="M7.58759 15.7107C7.51053 15.7107 7.43736 15.6742 7.39299 15.6057C7.31982 15.5006 7.34862 15.3542 7.4576 15.2818L9.41377 13.9694C9.57179 13.8643 9.7298 13.7507 9.8995 13.6254C10.2194 13.3864 10.8795 12.9972 11.6813 13.0462H11.6891C11.7335 13.0501 11.7778 13.054 11.8269 13.0587C12.4667 13.1396 13.1712 13.3786 13.6453 13.5647C13.7589 13.609 13.8718 13.6534 13.9777 13.7024C14.2446 13.8161 14.4478 14.0387 14.5327 14.3096C14.5366 14.3174 14.5366 14.326 14.5405 14.3337V14.3376C14.609 14.5805 14.5732 14.8117 14.4393 15.0063C14.2851 15.2289 14.0586 15.3667 13.7792 15.3994C13.5807 15.4235 13.4265 15.387 13.411 15.3831C13.4071 15.3831 13.4032 15.3792 13.3946 15.3792L11.4867 14.7837C11.3653 14.7471 11.296 14.6132 11.3326 14.4918C11.3692 14.3703 11.5031 14.3011 11.6245 14.3376L13.5238 14.9293C13.5721 14.937 13.8803 14.99 14.0547 14.7385C14.0913 14.6856 14.1318 14.6047 14.0913 14.463C14.0913 14.4591 14.0874 14.4552 14.0874 14.4505V14.4466C14.043 14.305 13.9333 14.1874 13.7916 14.1267C13.6904 14.0823 13.5853 14.038 13.4717 13.9967C13.0217 13.8185 12.3577 13.5958 11.7661 13.5188C11.7296 13.5149 11.6891 13.511 11.6525 13.511H11.6447C10.9683 13.4744 10.3891 13.8434 10.1704 14.0014C9.99602 14.1314 9.83022 14.2481 9.6644 14.3579L7.70823 15.6703C7.6771 15.6991 7.63196 15.7107 7.58759 15.7107Z" fill="#181713"/>
<path fill-rule="evenodd" clip-rule="evenodd" d="M8.20378 8.82944C8.10259 8.82944 8.00918 8.76094 7.98115 8.66364C7.80289 8.06814 7.6978 7.95916 7.09842 7.78091C7.00112 7.75288 6.93262 7.65947 6.93262 7.55828C6.93262 7.45708 7.00112 7.36367 7.09842 7.33564C7.69392 7.15739 7.8029 7.05229 7.98115 6.45291C8.00917 6.35561 8.10259 6.28711 8.20378 6.28711C8.30498 6.28711 8.39839 6.35561 8.42641 6.45291C8.60467 7.04841 8.70976 7.15739 9.30915 7.33564C9.40645 7.36367 9.47495 7.45708 9.47495 7.55828C9.47495 7.65947 9.40645 7.75288 9.30915 7.78091C8.71365 7.95916 8.60467 8.06426 8.42641 8.66364C8.39839 8.76094 8.30887 8.82944 8.20378 8.82944ZM7.79433 7.5575C7.87918 7.60577 7.95624 7.66648 8.02553 7.73576C8.09403 7.80426 8.15086 7.88133 8.20379 7.96696C8.25205 7.88211 8.31277 7.80505 8.38205 7.73576C8.45055 7.66726 8.52761 7.61044 8.61325 7.5575C8.5284 7.50924 8.45134 7.44852 8.38205 7.37925C8.31355 7.31075 8.25672 7.23368 8.20379 7.14805C8.15553 7.23289 8.09481 7.30996 8.02553 7.37925C7.95703 7.44853 7.87997 7.50924 7.79433 7.5575Z" fill="#181713"/>
<path fill-rule="evenodd" clip-rule="evenodd" d="M17.4704 8.66342C16.9761 8.66342 16.5752 8.26254 16.5752 7.76823C16.5752 7.27393 16.9761 6.87305 17.4704 6.87305C17.9647 6.87305 18.3656 7.27393 18.3656 7.76823C18.3656 8.26254 17.9647 8.66342 17.4704 8.66342ZM17.4704 7.33856C17.2353 7.33856 17.0407 7.52927 17.0407 7.76823C17.0407 8.00332 17.2314 8.19791 17.4704 8.19791C17.7055 8.19791 17.9001 8.0072 17.9001 7.76823C17.9001 7.52927 17.7055 7.33856 17.4704 7.33856Z" fill="#181713"/>
<path fill-rule="evenodd" clip-rule="evenodd" d="M13.5617 14.0176C13.4807 14.0176 13.4037 13.9772 13.3593 13.904C13.2947 13.795 13.3313 13.6487 13.4403 13.584C13.5703 13.507 13.7236 13.4182 13.8007 13.3778C14.214 13.1427 14.7083 12.7052 14.72 11.9478C14.72 11.9276 14.7075 11.7571 14.6266 11.5874C14.5176 11.3648 14.3308 11.2394 14.0599 11.2067C13.7843 11.174 13.5695 11.2597 13.4037 11.4659C13.2737 11.6279 13.2254 11.7983 13.2254 11.8022C13.1974 11.9034 13.1079 11.9766 12.9989 11.9766C12.8938 11.9766 12.8004 11.9034 12.7763 11.8022C12.7724 11.7898 12.7233 11.6162 12.5902 11.4582C12.4244 11.2597 12.2135 11.1787 11.9418 11.2114C11.6662 11.2441 11.4802 11.3733 11.3704 11.6045C11.2895 11.7703 11.2817 11.9369 11.2817 11.9525C11.2895 12.4102 11.4724 12.7986 11.8243 13.1146C11.8282 13.1185 11.8321 13.1185 11.8321 13.1224C11.9208 13.2112 11.9255 13.3614 11.8321 13.4501C11.7433 13.5389 11.6009 13.5389 11.5121 13.4579C11.0622 13.057 10.8232 12.5347 10.8154 11.9509V11.947C10.8154 11.919 10.8232 11.6714 10.9493 11.4005C11.0746 11.1374 11.3385 10.8089 11.8889 10.7443C12.44 10.6797 12.7763 10.9428 12.9623 11.174C12.9748 11.1903 12.9864 11.2067 12.9989 11.2223C13.0113 11.2059 13.023 11.1896 13.0355 11.174C13.2215 10.9428 13.5578 10.6758 14.1089 10.7443C14.66 10.8089 14.9231 11.1374 15.0485 11.4005C15.1785 11.6675 15.1823 11.919 15.1823 11.947V11.9509C15.1785 12.3922 15.0407 12.7892 14.7815 13.1333C14.5869 13.3886 14.3362 13.6074 14.0241 13.7856C13.947 13.83 13.8014 13.9156 13.6714 13.988C13.6426 14.0059 13.6022 14.0176 13.5617 14.0176Z" fill="#181713"/>
<path fill-rule="evenodd" clip-rule="evenodd" d="M11.2804 8.6438C11.1146 8.6438 10.9566 8.59087 10.8188 8.48967C10.6569 8.36824 10.5518 8.1861 10.523 7.98369L10.5152 7.93543C10.4872 7.73305 10.5393 7.53066 10.6654 7.36873C10.7908 7.20682 10.969 7.10174 11.1714 7.07292L14.6183 6.59887C15.0355 6.54204 15.42 6.83395 15.4808 7.25118L15.4886 7.29944C15.5166 7.50182 15.4644 7.70421 15.3383 7.86614C15.2169 8.02805 15.0347 8.13313 14.8323 8.16194L11.3855 8.636C11.3497 8.63989 11.317 8.6438 11.2804 8.6438ZM14.7195 7.05581C14.707 7.05581 14.6915 7.05581 14.679 7.0597L11.2321 7.53376C11.1551 7.54622 11.0819 7.58669 11.0336 7.64741C10.9854 7.71202 10.9651 7.78908 10.9768 7.86616L10.9846 7.91442C10.9971 7.99148 11.0375 8.06465 11.0982 8.11292C11.1629 8.16118 11.2399 8.18142 11.317 8.16974L14.7639 7.69568C14.8409 7.68323 14.9141 7.64275 14.9624 7.58203C15.0106 7.51743 15.0309 7.44036 15.0192 7.36329L15.0114 7.31503C14.9951 7.16557 14.8697 7.05581 14.7195 7.05581Z" fill="#181713"/>
<path fill-rule="evenodd" clip-rule="evenodd" d="M11.6828 7.469H11.6587C11.5287 7.45654 11.4361 7.339 11.4524 7.21369C11.4649 7.08836 11.4602 6.96226 11.4322 6.83694C11.4283 6.8128 11.4197 6.78867 11.4158 6.77233L10.9215 5.10339C10.9013 5.03489 10.9137 4.95783 10.9581 4.8971C11.0025 4.83638 11.0718 4.80369 11.1442 4.80369H11.8977C11.9623 4.80369 12.0191 4.82782 12.0635 4.87219L12.6955 5.52062L13.344 4.86831C13.3883 4.82393 13.4452 4.7998 13.5098 4.7998H15.1904C15.2674 4.7998 15.3406 4.83639 15.385 4.901C15.4294 4.96561 15.4379 5.04656 15.4091 5.11584L14.8058 6.65478C14.7817 6.73185 14.7615 6.80891 14.7451 6.88987C14.721 7.0152 14.5996 7.10082 14.4735 7.07591C14.3481 7.05178 14.2625 6.93035 14.2874 6.80424C14.3077 6.70305 14.3318 6.60186 14.3684 6.50455C14.3684 6.50066 14.3723 6.49676 14.3723 6.49209L14.8541 5.2692H13.6149L12.8652 6.01881C12.8209 6.06318 12.764 6.08732 12.6994 6.08732C12.6387 6.08732 12.578 6.06318 12.5336 6.01881L11.8042 5.2692H11.4641L11.8689 6.64233C11.8766 6.67502 11.8852 6.70694 11.893 6.74352C11.9296 6.914 11.9374 7.08759 11.9171 7.26196C11.9015 7.3795 11.7996 7.469 11.6828 7.469Z" fill="#181713"/>
<path fill-rule="evenodd" clip-rule="evenodd" d="M9.18749 14.6495C9.10653 14.6495 9.02947 14.609 8.9851 14.532C8.58811 13.8391 8.37793 13.0452 8.37793 12.2435C8.37793 10.5465 9.3058 8.9873 10.8003 8.17705C10.8245 8.16459 10.8533 8.14903 10.8774 8.13268C10.9864 8.06418 11.1288 8.09609 11.2012 8.20585C11.2697 8.31483 11.2378 8.45728 11.128 8.52967C11.0915 8.54991 11.0595 8.57404 11.023 8.59039C9.68251 9.31978 8.84806 10.7208 8.84806 12.2481C8.84806 12.9689 9.03877 13.6819 9.39451 14.3054C9.45912 14.4191 9.41864 14.5607 9.30967 14.6254C9.26841 14.6378 9.22796 14.6495 9.18749 14.6495Z" fill="#181713"/>
<path fill-rule="evenodd" clip-rule="evenodd" d="M17.244 13.6176C17.2238 13.6176 17.2035 13.6137 17.1833 13.6099C17.058 13.5772 16.9848 13.4479 17.0175 13.3226C17.1109 12.97 17.1592 12.6057 17.1592 12.2414C17.1592 10.7671 16.3691 9.38995 15.0933 8.64904C14.8504 8.50737 14.648 8.30497 14.4978 8.066C14.4293 7.95702 14.4651 7.81069 14.5749 7.74606C14.6838 7.68145 14.8302 7.71337 14.8948 7.82313C14.9999 7.99749 15.1501 8.14306 15.3245 8.24426C16.0087 8.64514 16.5878 9.2165 16.9895 9.90462C17.4029 10.6091 17.6216 11.4194 17.6216 12.2415C17.6216 12.651 17.5687 13.0557 17.4636 13.4442C17.4379 13.5493 17.3452 13.6176 17.244 13.6176Z" fill="#181713"/>
</svg>
