<svg width="24" height="24" viewBox="0 0 24 24" fill="none" xmlns="http://www.w3.org/2000/svg">
<path d="M12.7488 3.93957C13.7488 3.21957 14.9088 2.85957 16.2188 2.85957C16.9388 2.85957 17.7288 3.04957 18.5888 3.44957C19.4488 3.83957 20.1288 4.29957 20.6288 4.82957C21.6588 6.10957 22.0888 7.59957 21.9388 9.29957C21.7788 10.9996 21.2188 12.3296 20.2488 13.2696L12.6588 20.8596C12.4688 21.0496 12.2288 21.1396 11.9488 21.1396C11.6688 21.1396 11.4388 21.0496 11.2488 20.8596C11.1564 20.7685 11.0838 20.6593 11.0356 20.5389C10.9874 20.4184 10.9647 20.2893 10.9688 20.1596C10.9688 19.8796 11.0588 19.6396 11.2488 19.4496L15.8388 14.8596C16.0888 14.6396 16.0888 14.4096 15.8388 14.1596C15.5888 13.9096 15.3588 13.9096 15.1388 14.1596L10.5488 18.7496C10.4563 18.8428 10.3454 18.9158 10.2232 18.964C10.101 19.0122 9.9701 19.0345 9.83883 19.0296C9.55883 19.0296 9.32883 18.9396 9.13883 18.7496C9.04637 18.6585 8.97376 18.5493 8.92557 18.4289C8.87738 18.3084 8.85466 18.1793 8.85883 18.0496C8.85883 17.7696 8.94883 17.5296 9.13883 17.3396L13.7288 12.7496C13.9988 12.4996 13.9988 12.2496 13.7288 11.9996C13.4988 11.7496 13.2788 11.7496 13.0288 11.9996L8.43883 16.6396C8.34522 16.7314 8.23416 16.8034 8.1122 16.8515C7.99025 16.8996 7.85988 16.9228 7.72883 16.9196C7.44883 16.9196 7.20883 16.8296 6.99883 16.6396C6.79883 16.4496 6.69883 16.2196 6.69883 15.9396C6.69883 15.6596 6.80883 15.4096 7.02883 15.1896L11.6288 10.5896C11.8788 10.3396 11.8788 10.1096 11.6288 9.88957C11.3788 9.66957 11.1388 9.66957 10.9188 9.88957L6.27883 14.4996C6.05883 14.6996 5.82883 14.8096 5.57883 14.8096C5.29883 14.8096 5.05883 14.7096 4.87883 14.4996C4.68883 14.2996 4.58883 14.0596 4.58883 13.7796C4.58883 13.4996 4.68883 13.2696 4.87883 13.0796C7.93883 9.99957 9.82883 8.13957 10.5488 7.44957L14.1088 10.9696C14.4988 11.3396 14.9488 11.5296 15.4988 11.5296C16.1988 11.5296 16.7488 11.2496 17.1588 10.6896C17.4388 10.2796 17.5388 9.82957 17.4588 9.32957C17.3788 8.82957 17.1688 8.40957 16.8288 8.05957L12.7488 3.93957ZM14.8088 10.2696L10.5488 5.99957L3.46883 13.0796C2.62883 12.2296 2.14883 10.9296 2.03883 9.15957C1.92883 7.39957 2.40883 5.86957 3.46883 4.58957C4.65883 3.40957 6.07883 2.80957 7.72883 2.80957C9.38883 2.80957 10.7988 3.40957 11.9488 4.58957L16.2188 8.85957C16.4088 9.04957 16.4988 9.27957 16.4988 9.55957C16.4988 9.83957 16.4088 10.0796 16.2188 10.2696C16.0288 10.4496 15.7988 10.5496 15.4988 10.5496C15.2288 10.5496 14.9988 10.4496 14.8088 10.2696Z" fill="#122F2A"/>
</svg>
