<svg width="104" height="95" viewBox="0 0 104 95" fill="none" xmlns="http://www.w3.org/2000/svg">
<path d="M2.17255 86.3434L2.17219 86.3433L2.17032 86.343L2.04555 86.32L1.90966 86.3002L-4.49336 85.3661L10.9512 -20.4961L95.8812 -8.10547C95.975 -6.74221 96.0357 -5.21219 96.0197 -3.61667C95.9926 -0.920124 95.7472 1.74222 95.1838 4.01408C94.6053 6.34637 93.8289 7.7122 93.1508 8.41209C91.7076 9.90158 88.166 11.323 83.4344 12.1883C81.3225 12.5746 79.3596 12.7842 77.9199 12.8957C77.2056 12.9511 76.6343 12.9812 76.2548 12.9973C76.0654 13.0054 75.9248 13.0098 75.8392 13.0122C75.7964 13.0134 75.7675 13.014 75.7532 13.0143L75.7522 13.0144L75.7497 13.0144L75.746 13.0145L75.7428 13.0145L67.003 13.1399L68.467 21.7615L68.4673 21.7634L68.4675 21.7641L68.4679 21.7663L68.4683 21.7691L68.4726 21.7953C68.4781 21.8291 68.4874 21.8872 68.5 21.9686C68.5253 22.1314 68.5636 22.3866 68.6105 22.724C68.7043 23.3994 68.8316 24.3994 68.9563 25.6422C69.2071 28.1416 69.4403 31.5539 69.3852 35.2463C69.3296 38.9692 68.9829 42.7702 68.1666 46.1214C67.3354 49.5341 66.1454 51.9484 64.7871 53.4335C62.1854 56.2779 56.5596 58.5589 50.0734 60.0135C47.076 60.6856 44.2969 61.0968 42.2627 61.3388C41.2511 61.4591 40.4375 61.536 39.89 61.582C39.6166 61.6049 39.4105 61.6201 39.2803 61.6291C39.2153 61.6336 39.1693 61.6366 39.1435 61.6382L39.1276 61.6392L39.1249 61.6394L39.1227 61.6395L39.12 61.6397C39.1186 61.6397 39.1186 61.6397 39.1198 61.6397L33.7872 61.9388L32.3338 67.0755L32.3332 67.0774L32.3323 67.0807L32.3317 67.0829L32.331 67.0855L32.3297 67.0898C32.3277 67.0964 32.3252 67.1053 32.3219 67.1165C32.3166 67.1346 32.3096 67.1585 32.3008 67.1881C32.2723 67.2839 32.2257 67.4383 32.1612 67.6446C32.032 68.0577 31.8321 68.6747 31.5638 69.4401C31.0235 70.981 30.2238 73.0714 29.1873 75.2858C26.9057 80.1601 24.2489 83.9286 21.9077 85.3192C19.6849 86.6394 15.3608 87.2474 10.3297 87.1166C8.04072 87.0571 5.96181 86.8586 4.45309 86.6733C3.70367 86.5813 3.10744 86.494 2.71107 86.4321C2.51318 86.4012 2.36601 86.3767 2.27544 86.3612C2.23019 86.3535 2.19915 86.3481 2.18308 86.3452L2.17255 86.3434Z" fill="white" stroke="white" stroke-width="15" stroke-linecap="round"/>
</svg>
