<svg width="20" height="20" viewBox="0 0 20 20" fill="none" xmlns="http://www.w3.org/2000/svg">
<g clip-path="url(#clip0_2094_8878)">
<path fill-rule="evenodd" clip-rule="evenodd" d="M9.9974 1.66797C14.5999 1.66797 18.3307 5.3988 18.3307 10.0013C18.3337 11.9245 17.6686 13.7891 16.4491 15.2763L16.4657 15.2946L16.3557 15.388C15.5743 16.3123 14.6004 17.0549 13.5022 17.5639C12.4039 18.0728 11.2078 18.3359 9.9974 18.3346C7.53907 18.3346 5.33074 17.2705 3.80574 15.5788L3.63907 15.3871L3.52907 15.2955L3.54574 15.2755C2.32637 13.7885 1.66126 11.9243 1.66407 10.0013C1.66407 5.3988 5.3949 1.66797 9.9974 1.66797ZM9.9974 14.168C8.4474 14.168 7.04657 14.6613 6.00324 15.3388C7.15515 16.2035 8.55707 16.67 9.9974 16.668C11.4377 16.67 12.8397 16.2035 13.9916 15.3388C12.7993 14.5752 11.4133 14.1689 9.9974 14.168ZM9.9974 3.33464C8.74284 3.3346 7.51373 3.68856 6.45134 4.35584C5.38895 5.02312 4.53641 5.97663 3.9917 7.10678C3.447 8.23692 3.23224 9.49783 3.37211 10.7446C3.51199 11.9913 4.00081 13.1733 4.7824 14.1546C6.13324 13.1855 7.97657 12.5013 9.9974 12.5013C12.0182 12.5013 13.8616 13.1855 15.2124 14.1546C15.994 13.1733 16.4828 11.9913 16.6227 10.7446C16.7626 9.49783 16.5478 8.23692 16.0031 7.10678C15.4584 5.97663 14.6059 5.02312 13.5435 4.35584C12.4811 3.68856 11.252 3.3346 9.9974 3.33464ZM9.9974 5.0013C10.8815 5.0013 11.7293 5.35249 12.3544 5.97761C12.9795 6.60273 13.3307 7.45058 13.3307 8.33464C13.3307 9.21869 12.9795 10.0665 12.3544 10.6917C11.7293 11.3168 10.8815 11.668 9.9974 11.668C9.11335 11.668 8.2655 11.3168 7.64038 10.6917C7.01526 10.0665 6.66407 9.21869 6.66407 8.33464C6.66407 7.45058 7.01526 6.60273 7.64038 5.97761C8.2655 5.35249 9.11335 5.0013 9.9974 5.0013ZM9.9974 6.66797C9.55538 6.66797 9.13145 6.84356 8.81889 7.15612C8.50633 7.46869 8.33074 7.89261 8.33074 8.33464C8.33074 8.77666 8.50633 9.20059 8.81889 9.51315C9.13145 9.82571 9.55538 10.0013 9.9974 10.0013C10.4394 10.0013 10.8634 9.82571 11.1759 9.51315C11.4885 9.20059 11.6641 8.77666 11.6641 8.33464C11.6641 7.89261 11.4885 7.46869 11.1759 7.15612C10.8634 6.84356 10.4394 6.66797 9.9974 6.66797Z" fill="#160911"/>
</g>
<defs>
<clipPath id="clip0_2094_8878">
<rect width="20" height="20" fill="white"/>
</clipPath>
</defs>
</svg>
