<svg width="40" height="41" viewBox="0 0 40 41" fill="none" xmlns="http://www.w3.org/2000/svg">
<path d="M23.802 28.4487C26.2666 26.4065 30.0693 27.2515 31.3368 30.2796C34.0128 28.5895 37.6041 29.8571 38.59 32.9556C39.2942 33.6598 39.6463 34.6457 39.6463 35.702C39.6463 37.885 37.8858 39.6455 35.7028 39.6455H4.43665C2.25365 39.6455 0.493164 37.885 0.493164 35.702C0.493164 33.5894 2.11281 31.8993 4.22539 31.7584C4.78874 29.7162 6.69006 28.2374 8.87306 28.2374C9.78851 28.2374 10.6335 28.5191 11.3377 28.9416C12.1828 26.2657 14.6474 24.2939 17.6755 24.2939C18.8726 24.2939 19.9993 24.646 20.9852 25.2093C22.2527 25.8431 23.2386 27.0403 23.802 28.4487Z" fill="#B79C79"/>
<path d="M26.4766 32.6033C27.1808 32.6033 27.8146 33.1667 27.8146 33.9413C27.8146 34.6455 27.2513 35.2793 26.4766 35.2793C25.702 35.2793 25.1387 34.7159 25.1387 33.9413C25.1387 33.2371 25.702 32.6033 26.4766 32.6033Z" fill="#FFE44C"/>
<path d="M14.9985 34.3644C15.4914 34.3644 15.9139 34.7869 15.9139 35.2798C15.9139 35.7728 15.4914 36.1953 14.9985 36.1953C14.5055 36.1953 14.083 35.7728 14.083 35.2798C14.1534 34.7869 14.5055 34.3644 14.9985 34.3644Z" fill="#FFE44C"/>
<path d="M7.95775 32.1811C8.94362 32.1811 9.71823 32.9558 9.71823 33.9416C9.71823 34.9275 8.94362 35.7021 7.95775 35.7021C6.97188 35.7021 6.19727 34.9275 6.19727 33.9416C6.19727 32.9558 6.97188 32.1811 7.95775 32.1811Z" fill="#FFE44C"/>
<path d="M33.9421 21.6177C34.928 21.6177 35.7026 22.3923 35.7026 23.3782C35.7026 24.364 34.928 25.1387 33.9421 25.1387C32.9563 25.1387 32.1816 24.364 32.1816 23.3782C32.1816 22.3923 32.9563 21.6177 33.9421 21.6177Z" fill="#FFE44C"/>
<path d="M5.77351 22.4627C6.47771 22.4627 7.11148 23.0261 7.11148 23.8007C7.11148 24.5753 6.54813 25.1387 5.77351 25.1387C4.9989 25.1387 4.43555 24.5753 4.43555 23.8007C4.43555 23.0261 5.06932 22.4627 5.77351 22.4627Z" fill="#FFE44C"/>
<path d="M22.0412 0.421494C23.5193 0.421494 24.7171 1.61934 24.7171 3.09747C24.7171 4.57488 23.5193 5.77344 22.0412 5.77344C20.5638 5.77344 19.3652 4.57488 19.3652 3.09747C19.3652 1.61934 20.5638 0.421494 22.0412 0.421494Z" fill="#FFE44C"/>
<path d="M23.8722 16.9709C22.8159 13.0274 23.8018 8.59093 26.9707 5.49244C30.0691 2.39394 34.4351 1.33764 38.449 2.39394C39.5053 6.33748 38.5194 10.774 35.3506 13.8724C32.1817 16.9709 27.8157 18.0272 23.8722 16.9709Z" fill="#AEEF66"/>
<path d="M18.0267 16.901C14.0833 17.9573 9.64685 16.9714 6.5484 13.8729C3.44995 10.7744 2.39366 6.40838 3.44995 2.39442C7.39343 1.33812 11.8298 2.324 14.9283 5.49292C18.0972 8.59141 19.083 12.9575 18.0267 16.901Z" fill="#AEEF66"/>
<path d="M38.0957 16.8301C38.4457 16.8301 38.7295 17.1139 38.7295 17.4639C38.7295 17.8139 38.4457 18.0977 38.0957 18.0977C37.7457 18.0977 37.4619 17.8139 37.4619 17.4639C37.4619 17.1139 37.7457 16.8301 38.0957 16.8301Z" fill="black"/>
<path d="M32.3926 36.6182C32.7425 36.6182 33.0263 36.902 33.0263 37.252C33.0263 37.6019 32.7425 37.8857 32.3926 37.8857C32.0419 37.8857 31.7588 37.6019 31.7588 37.252C31.7588 36.902 32.0419 36.6182 32.3926 36.6182Z" fill="black"/>
<path d="M27.5332 21.6182C27.8832 21.6182 28.167 21.902 28.167 22.252C28.167 22.6019 27.8832 22.8857 27.5332 22.8857C27.1832 22.8857 26.8994 22.6019 26.8994 22.252C26.8994 21.902 27.1832 21.6182 27.5332 21.6182Z" fill="black"/>
<path d="M21.4072 8.87208C21.7572 8.87208 22.041 9.15588 22.041 9.50587C22.041 9.85585 21.7572 10.1396 21.4072 10.1396C21.0572 10.1396 20.7734 9.85585 20.7734 9.50587C20.7734 9.15588 21.0572 8.87208 21.4072 8.87208Z" fill="black"/>
<path d="M18.3086 29.9981C18.6586 29.9981 18.9424 30.2819 18.9424 30.6318C18.9424 30.9818 18.6586 31.2656 18.3086 31.2656C17.9579 31.2656 17.6748 30.9818 17.6748 30.6318C17.6748 30.2819 17.9579 29.9981 18.3086 29.9981Z" fill="black"/>
<path d="M14.7881 0.4922C15.1381 0.4922 15.4218 0.775994 15.4218 1.12598C15.4218 1.47597 15.1381 1.75977 14.7881 1.75977C14.4374 1.75977 14.1543 1.47597 14.1543 1.12598C14.1543 0.775994 14.4374 0.4922 14.7881 0.4922Z" fill="black"/>
<path d="M14.7881 20.3506C15.1381 20.3506 15.4218 20.6344 15.4218 20.9844C15.4218 21.3344 15.1381 21.6182 14.7881 21.6182C14.4374 21.6182 14.1543 21.3344 14.1543 20.9844C14.1543 20.6344 14.4374 20.3506 14.7881 20.3506Z" fill="black"/>
<path d="M2.88768 15.4922C3.23766 15.4922 3.52145 15.776 3.52145 16.126C3.52145 16.476 3.23766 16.7598 2.88768 16.7598C2.5377 16.7598 2.25391 16.476 2.25391 16.126C2.25391 15.776 2.5377 15.4922 2.88768 15.4922Z" fill="black"/>
<path d="M8.87283 28.6603C6.90109 28.6603 5.14061 29.9983 4.64767 31.8996C4.57726 32.1109 4.43642 32.1813 4.22516 32.2517C2.39426 32.3925 0.915451 33.9418 0.915451 35.7727C0.915451 37.7445 2.46468 39.2937 4.43642 39.2937H35.7026C37.6743 39.2937 39.2236 37.7445 39.2236 35.7727C39.2236 34.8573 38.8715 34.0122 38.2377 33.3784C38.1673 33.308 38.1673 33.2376 38.1673 33.2376C37.6039 31.3362 35.9138 30.1391 33.9421 30.1391C33.0971 30.1391 32.3225 30.3504 31.6183 30.8433C31.4774 30.9137 31.407 30.9137 31.2662 30.9137C31.1253 30.8433 31.0549 30.7729 30.9845 30.632C30.2803 29.0124 28.7311 27.9561 26.9002 27.9561C25.8439 27.9561 24.9284 28.3082 24.0834 28.942C23.9426 29.0124 23.8017 29.0828 23.6609 29.0124C23.5201 29.0124 23.3792 28.8715 23.3792 28.7307C22.8863 27.4631 21.9004 26.3364 20.7033 25.6322C19.7878 25.0688 18.7315 24.7872 17.6048 24.7872C14.8585 24.7872 12.5346 26.5477 11.6896 29.1532C11.6192 29.2941 11.5488 29.3645 11.4079 29.4349C11.2671 29.5053 11.1263 29.5053 11.0558 29.4349C10.4221 28.8715 9.64745 28.6603 8.87283 28.6603ZM35.7026 40.0684H4.43642C2.04216 40.0684 0 38.0966 0 35.6319C0 33.4489 1.61964 31.5475 3.80264 31.2658C4.50684 29.1532 6.549 27.6744 8.80241 27.6744C9.57703 27.6744 10.3516 27.8152 11.0558 28.1673C11.5488 26.9702 12.3234 25.9139 13.3797 25.1393C14.5768 24.2238 16.0556 23.7309 17.6048 23.7309C18.8724 23.7309 20.0695 24.083 21.1258 24.6463C22.3229 25.3505 23.3088 26.4068 23.9426 27.6744C24.7876 27.111 25.8439 26.8293 26.8298 26.8293C28.8015 26.8293 30.562 27.8856 31.4774 29.5757C32.1816 29.2236 33.0267 29.0124 33.8717 29.0124C36.1955 29.0124 38.1673 30.4912 38.8715 32.6742C39.5757 33.5193 39.9982 34.5052 39.9982 35.6319C40.0686 38.0966 38.0968 40.0684 35.7026 40.0684Z" fill="black"/>
<path d="M3.87415 2.81601C2.9587 6.68913 4.0854 10.7735 6.90218 13.5903C9.71895 16.4071 13.8033 17.5339 17.6763 16.6184C18.5918 12.7453 17.4651 8.6609 14.6483 5.84409C11.8315 2.95685 7.74721 1.83013 3.87415 2.81601ZM15.0004 17.7451C11.7611 17.7451 8.59224 16.4776 6.2684 14.1537C3.16995 11.0552 1.97282 6.47787 3.09953 2.25265C3.16995 2.11181 3.24037 1.97097 3.38121 1.97097C7.60637 0.844246 12.1836 2.04139 15.2821 5.13988C18.3805 8.23838 19.5777 12.7453 18.4509 16.9705C18.4509 17.1113 18.3101 17.2522 18.1693 17.3226C17.113 17.6747 16.0567 17.7451 15.0004 17.7451Z" fill="black"/>
<path d="M20.9133 20.2803C20.7725 20.2803 20.7021 20.2099 20.6317 20.1394L17.7445 17.2522L6.68864 6.26663C6.5478 6.12579 6.5478 5.84411 6.68864 5.63285C6.82948 5.42159 7.11115 5.49201 7.32241 5.63285L18.3078 16.6184L21.195 19.5057C21.3359 19.6465 21.3359 19.9282 21.195 20.1394C21.195 20.2803 21.0542 20.2803 20.9133 20.2803Z" fill="black"/>
<path d="M15.8451 15.209L10.2116 14.8569C10.0003 14.8569 9.78906 14.6456 9.78906 14.3639C9.78906 14.1527 10.0003 13.9414 10.282 13.9414L15.9155 14.2935C16.1268 14.2935 16.3381 14.5048 16.3381 14.7865C16.2676 14.9977 16.0564 15.209 15.8451 15.209Z" fill="black"/>
<path d="M13.4503 12.8154L9.29556 12.5337C9.0843 12.5337 8.87305 12.3225 8.87305 12.0408C8.87305 11.8295 9.0843 11.6183 9.36598 11.6183L13.5207 11.9C13.732 11.9 13.9432 12.1112 13.9432 12.3929C13.8728 12.6042 13.6616 12.8154 13.4503 12.8154Z" fill="black"/>
<path d="M11.0558 10.4219L8.8024 10.281C8.59114 10.281 8.37988 10.0698 8.37988 9.78809C8.37988 9.57683 8.59114 9.36557 8.87282 9.36557L11.1262 9.50641C11.3375 9.50641 11.5488 9.71767 11.5488 9.99935C11.4783 10.2106 11.3375 10.4219 11.0558 10.4219Z" fill="black"/>
<path d="M9.15414 8.44922C9.08372 8.44922 9.08372 8.44922 9.15414 8.44922L7.74576 8.3788C7.5345 8.3788 7.32324 8.16754 7.32324 7.88586C7.32324 7.6746 7.5345 7.46333 7.81618 7.46333L9.22456 7.53375C9.43582 7.53375 9.64708 7.74502 9.64708 8.0267C9.57666 8.30838 9.3654 8.44922 9.15414 8.44922Z" fill="black"/>
<path d="M15.8439 15.209C15.6327 15.209 15.4214 14.9977 15.4214 14.7865L15.0693 9.15284C15.0693 8.94158 15.2102 8.73032 15.4919 8.6599C15.7031 8.6599 15.9144 8.80074 15.9848 9.08242L16.3369 14.716C16.2665 14.9273 16.1256 15.1386 15.8439 15.209Z" fill="black"/>
<path d="M13.4493 12.8154C13.2381 12.8154 13.0268 12.6042 13.0268 12.3929L12.7451 8.23811C12.7451 8.02685 12.886 7.81559 13.1676 7.74517C13.3789 7.74517 13.5901 7.88601 13.6606 8.16769L13.9422 12.3225C13.9422 12.6042 13.731 12.8154 13.4493 12.8154Z" fill="black"/>
<path d="M11.0555 10.4219C10.8443 10.4219 10.633 10.2106 10.633 9.99935L10.4922 7.7459C10.4922 7.53464 10.633 7.32338 10.9147 7.25296C11.126 7.25296 11.3372 7.3938 11.4076 7.67548L11.5485 9.92893C11.5485 10.2106 11.3372 10.4219 11.0555 10.4219Z" fill="black"/>
<path d="M9.15407 8.44922C8.94281 8.44922 8.73155 8.23796 8.73155 8.0267L8.66113 6.61829C8.66113 6.40703 8.80197 6.19577 9.08365 6.12535C9.29491 6.12535 9.50616 6.26619 9.57658 6.54787L9.647 7.95628C9.57658 8.23796 9.36533 8.44922 9.15407 8.44922Z" fill="black"/>
<path d="M24.2238 16.5479C25.1392 16.7591 26.0547 16.9 26.9701 16.9C29.9981 16.9 32.8853 15.7028 35.0683 13.5902C37.8851 10.7734 39.0118 6.68902 38.0964 2.81591C37.1809 2.60465 36.2655 2.46381 35.35 2.46381C32.322 2.46381 29.4348 3.66095 27.2518 5.77356C24.435 8.59037 23.3083 12.7452 24.2238 16.5479ZM26.8997 17.8154C25.8434 17.8154 24.7167 17.6746 23.7308 17.3929C23.59 17.3225 23.4491 17.2521 23.4491 17.1112C22.3224 12.886 23.5196 8.30869 26.618 5.2102C28.9418 2.88633 32.0403 1.61876 35.2796 1.61876C36.3359 1.61876 37.4626 1.7596 38.4485 2.04128C38.5893 2.1117 38.7301 2.18212 38.7301 2.32296C39.8568 6.54818 38.6597 11.1255 35.5613 14.224C33.3078 16.4774 30.2094 17.8154 26.8997 17.8154Z" fill="black"/>
<path d="M20.9147 25.5625C20.7034 25.5625 20.4922 25.3512 20.4922 25.14V19.8585C20.4922 19.7176 20.5626 19.6472 20.633 19.5768L25.7032 14.4361C25.8441 14.2953 26.1257 14.2953 26.337 14.4361C26.4778 14.5769 26.4778 14.8586 26.337 15.0699L21.3372 20.0697V25.14C21.4076 25.3512 21.1964 25.5625 20.9147 25.5625Z" fill="black"/>
<path d="M26.0553 15.209C25.9144 15.209 25.844 15.1386 25.7736 15.0681C25.6328 14.9273 25.6328 14.6456 25.7736 14.4344L32.4634 7.74443C32.6043 7.60359 32.8859 7.60359 33.0972 7.74443C33.238 7.88527 33.238 8.16695 33.0972 8.37821L26.4074 15.0681C26.2665 15.1386 26.1961 15.209 26.0553 15.209Z" fill="black"/>
<path d="M32.7447 8.44922C32.6039 8.44922 32.5335 8.3788 32.4631 8.30838C32.3222 8.16754 32.3222 7.88586 32.4631 7.6746L34.5756 5.56199C34.7165 5.42115 34.9981 5.42115 35.2094 5.56199C35.3502 5.70283 35.3502 5.98451 35.2094 6.19577L33.0968 8.30838C32.956 8.44922 32.8856 8.44922 32.7447 8.44922Z" fill="black"/>
<path d="M26.0553 15.209C25.8441 15.209 25.6328 14.9977 25.6328 14.7865C25.6328 14.5752 25.8441 14.3639 26.0553 14.3639L31.6889 14.0118C31.9001 14.0118 32.1114 14.1527 32.1818 14.4344C32.1818 14.6456 32.041 14.8569 31.7593 14.9273L26.0553 15.209Z" fill="black"/>
<path d="M28.4499 12.8154C28.2386 12.8154 28.0273 12.6042 28.0273 12.3929C28.0273 12.1816 28.1682 11.9704 28.4499 11.9L32.6046 11.6183C32.8159 11.6183 33.0271 11.7591 33.0975 12.0408C33.0975 12.2521 32.9567 12.4633 32.675 12.5337L28.4499 12.8154Z" fill="black"/>
<path d="M30.8434 10.4219C30.6322 10.4219 30.4209 10.2106 30.4209 9.99935C30.4209 9.78809 30.5617 9.57683 30.8434 9.50641L33.0968 9.36557C33.3081 9.36557 33.5193 9.50641 33.5898 9.78809C33.5898 9.99935 33.4489 10.2106 33.1673 10.281L30.8434 10.4219Z" fill="black"/>
<path d="M32.7448 8.44922C32.5335 8.44922 32.3223 8.23796 32.3223 8.0267C32.3223 7.81544 32.4631 7.60418 32.7448 7.53375L34.1532 7.46333C34.3644 7.46333 34.5757 7.60418 34.6461 7.88586C34.6461 8.09712 34.5053 8.30838 34.2236 8.3788L32.7448 8.44922Z" fill="black"/>
<path d="M26.0553 15.209C25.7737 15.209 25.6328 14.9977 25.6328 14.716L25.9849 9.08242C25.9849 8.87116 26.1962 8.6599 26.4778 8.6599C26.6891 8.6599 26.9004 8.87116 26.9004 9.15284L26.5483 14.7865C26.4778 14.9977 26.2666 15.209 26.0553 15.209Z" fill="black"/>
<path d="M28.4499 12.8154C28.2386 12.8154 28.0273 12.6042 28.0273 12.3929L28.309 8.23811C28.309 8.02685 28.5203 7.81559 28.802 7.81559C29.0132 7.81559 29.2245 8.02685 29.2245 8.30853L28.9428 12.4633C28.8724 12.6042 28.6611 12.8154 28.4499 12.8154Z" fill="black"/>
<path d="M30.8434 10.4219C30.773 10.4219 30.773 10.4219 30.8434 10.4219C30.5617 10.4219 30.4209 10.2106 30.4209 9.92893L30.5617 7.67548C30.5617 7.46422 30.773 7.25296 31.0547 7.25296C31.2659 7.25296 31.4772 7.46422 31.4772 7.7459L31.3363 9.99935C31.2659 10.2106 31.0547 10.4219 30.8434 10.4219Z" fill="black"/>
<path d="M32.7448 8.44922C32.5335 8.44922 32.3223 8.23796 32.3223 8.0267L32.3927 6.61829C32.3927 6.40703 32.6039 6.19577 32.8856 6.19577C33.0969 6.19577 33.3081 6.40703 33.3081 6.68871L33.2377 8.09712C33.1673 8.30838 33.0265 8.44922 32.7448 8.44922Z" fill="black"/>
<path d="M26.4773 33.0262C25.9843 33.0262 25.5618 33.4487 25.5618 33.9416C25.5618 34.4346 25.9843 34.8571 26.4773 34.8571C26.9702 34.8571 27.3927 34.4346 27.3927 33.9416C27.3223 33.4487 26.9702 33.0262 26.4773 33.0262ZM26.4773 35.7021C25.4914 35.7021 24.7168 34.9275 24.7168 33.9416C24.7168 32.9558 25.4914 32.1811 26.4773 32.1811C27.4632 32.1811 28.2378 32.9558 28.2378 33.9416C28.2378 34.9275 27.3927 35.7021 26.4773 35.7021Z" fill="black"/>
<path d="M14.9991 34.7873C14.7878 34.7873 14.5766 34.9986 14.5766 35.2099C14.5766 35.4211 14.7878 35.6324 14.9991 35.6324C15.2104 35.6324 15.4216 35.4211 15.4216 35.2099C15.4216 34.9986 15.2808 34.7873 14.9991 34.7873ZM14.9991 36.5479C14.2949 36.5479 13.6611 35.9845 13.6611 35.2099C13.6611 34.4352 14.2245 33.8719 14.9991 33.8719C15.7737 33.8719 16.3371 34.4352 16.3371 35.2099C16.3371 35.9845 15.7033 36.5479 14.9991 36.5479Z" fill="black"/>
<path d="M7.95644 32.604C7.25224 32.604 6.61847 33.1673 6.61847 33.942C6.61847 34.7166 7.18182 35.28 7.95644 35.28C8.73105 35.28 9.2944 34.7166 9.2944 33.942C9.2944 33.1673 8.66063 32.604 7.95644 32.604ZM7.95644 36.125C6.75931 36.125 5.77344 35.1391 5.77344 33.942C5.77344 32.7448 6.75931 31.7589 7.95644 31.7589C9.15356 31.7589 10.1394 32.7448 10.1394 33.942C10.1394 35.1391 9.15356 36.125 7.95644 36.125Z" fill="black"/>
<path d="M33.9418 22.0415C33.2376 22.0415 32.6038 22.6048 32.6038 23.3795C32.6038 24.1541 33.1672 24.7175 33.9418 24.7175C34.7164 24.7175 35.2798 24.1541 35.2798 23.3795C35.2798 22.6048 34.646 22.0415 33.9418 22.0415ZM33.9418 25.5625C32.7447 25.5625 31.7588 24.5766 31.7588 23.3795C31.7588 22.1823 32.7447 21.1964 33.9418 21.1964C35.1389 21.1964 36.1248 22.1823 36.1248 23.3795C36.1248 24.5766 35.1389 25.5625 33.9418 25.5625Z" fill="black"/>
<path d="M5.77415 22.9569C5.28122 22.9569 4.8587 23.3795 4.8587 23.8724C4.8587 24.3654 5.28122 24.7879 5.77415 24.7879C6.26709 24.7879 6.68961 24.3654 6.68961 23.8724C6.68961 23.3795 6.26709 22.9569 5.77415 22.9569ZM5.77415 25.5625C4.78828 25.5625 4.01367 24.7879 4.01367 23.802C4.01367 22.8161 4.78828 22.0415 5.77415 22.0415C6.76003 22.0415 7.53464 22.8161 7.53464 23.802C7.53464 24.7879 6.76003 25.5625 5.77415 25.5625Z" fill="black"/>
<path d="M22.0418 0.915743C20.8447 0.915743 19.8588 1.90163 19.8588 3.09877C19.8588 4.29592 20.8447 5.2818 22.0418 5.2818C23.2389 5.2818 24.2248 4.29592 24.2248 3.09877C24.2248 1.90163 23.2389 0.915743 22.0418 0.915743ZM22.0418 6.19727C20.3517 6.19727 18.9434 4.78886 18.9434 3.09877C18.9434 1.40869 20.3517 0.000279427 22.0418 0.000279427C23.7319 0.000279427 25.1403 1.40869 25.1403 3.09877C25.1403 4.78886 23.7319 6.19727 22.0418 6.19727Z" fill="black"/>
</svg>
