<svg width="30" height="32" viewBox="0 0 30 32" fill="none" xmlns="http://www.w3.org/2000/svg">
<path d="M19.7409 28.0955C19.9708 27.9424 20.0397 27.6361 19.8986 27.3994L19.4154 26.5912L23.2325 27.0223L21.8214 30.6085L21.2182 29.7368C21.0725 29.5261 20.7939 29.4538 20.5645 29.5672C19.3945 30.1436 18.3161 30.53 17.267 30.7487C16.0904 30.9949 14.9591 31.0309 13.809 30.8584C12.2754 30.6285 10.6894 30.01 9.01276 28.9831C10.493 29.558 12.5686 30.0967 14.834 29.8731C16.5765 29.701 18.2273 29.103 19.7409 28.0955ZM8.88819 27.814C8.10233 27.4739 7.47266 27.1189 7.08338 26.8812C6.87243 26.7522 6.70894 26.644 6.60067 26.57C6.54739 26.5328 6.50651 26.5043 6.46855 26.4768L6.44617 26.4602C6.10311 26.2016 5.62552 26.2634 5.35934 26.5997C5.09706 26.9306 5.14742 27.4196 5.47248 27.6904C8.40305 30.1246 11.0799 31.4954 13.6555 31.8815C14.1829 31.9606 14.7063 32 15.2303 32C15.9727 32 16.7172 31.9207 17.4785 31.7616C18.4906 31.5501 19.5217 31.1981 20.6185 30.6881L21.2372 31.5825C21.4022 31.8214 21.6839 31.9489 21.972 31.9153C22.2603 31.8822 22.5056 31.6937 22.6121 31.4236L24.3147 27.0979C24.404 26.8717 24.3821 26.6123 24.2576 26.4075C24.1328 26.1987 23.914 26.0581 23.6732 26.0311L19.03 25.5065C18.7307 25.472 18.4451 25.6087 18.2831 25.8603C18.122 26.1089 18.1161 26.4342 18.2682 26.6885L18.7519 27.4975C17.4969 28.2515 16.1469 28.7037 14.7323 28.8434C12.3995 29.0733 10.2663 28.4106 8.88819 27.814Z" fill="#181713"/>
<path d="M14.6816 2.12738C12.9391 2.29769 11.2883 2.89621 9.77419 3.90348C9.54476 4.05676 9.47517 4.36331 9.61678 4.59932L10.1002 5.40951L6.28281 4.97643L7.6942 1.39018L8.29735 2.26362C8.44309 2.47286 8.72167 2.54586 8.9511 2.43151C10.1207 1.85731 11.1987 1.47046 12.2486 1.25149C13.4262 1.00332 14.5565 0.969261 15.7066 1.14201C17.2399 1.37071 18.8262 1.9887 20.5028 3.01543C19.0226 2.44124 16.9467 1.90354 14.6816 2.12738ZM22.4325 5.11754C22.6432 5.24649 22.8064 5.356 22.9149 5.42899C22.9675 5.46548 23.0084 5.49466 23.0417 5.51899L23.0692 5.53848C23.4125 5.79881 23.8901 5.73554 24.156 5.39979C24.4227 5.06403 24.3733 4.58473 24.0429 4.3098C21.1123 1.87435 18.4357 0.50454 15.8597 0.117691C14.5869 -0.0720849 13.3364 -0.0331569 12.0371 0.239341C11.0245 0.448581 9.99316 0.801383 8.89684 1.31232L8.27813 0.416971C8.11341 0.178535 7.83069 0.0495801 7.54408 0.0836425C7.25553 0.117705 7.01004 0.305052 6.90347 0.575117L5.20085 4.90102C5.11156 5.12729 5.13345 5.38761 5.25778 5.59198C5.38283 5.80122 5.60181 5.94234 5.84243 5.9691L10.4861 6.4922C10.516 6.49707 10.5459 6.49707 10.5754 6.49707C10.8406 6.49707 11.087 6.36568 11.2325 6.13941C11.3931 5.89124 11.399 5.56522 11.2474 5.31219L10.7635 4.50199C12.0189 3.74776 13.3685 3.29522 14.7833 3.15654C17.1161 2.9254 19.2486 3.58961 20.6272 4.1857C21.4137 4.52633 22.0434 4.88154 22.4325 5.11754Z" fill="#181713"/>
<path d="M3.21309 10.7774C3.81088 10.1789 4.60502 9.84946 5.44855 9.84922C7.19157 9.84922 8.6105 11.2677 8.61148 13.0112C8.61196 13.8542 8.28204 14.6481 7.68376 15.2469C7.08597 15.8451 6.29281 16.1743 5.45001 16.1743H5.44855C3.70554 16.1743 2.2866 14.7564 2.28563 13.0136C2.28563 12.1698 2.61481 11.3757 3.21309 10.7774ZM5.44855 17.3125H5.45001C6.59694 17.3125 7.67622 16.8646 8.48885 16.0512C9.30245 15.2376 9.74989 14.1579 9.7494 13.0109C9.74867 10.64 7.8188 8.71104 5.44855 8.71104C4.3009 8.71104 3.22064 9.15873 2.40825 9.97281C1.59514 10.7864 1.14746 11.8662 1.14746 13.0139C1.14843 15.3841 3.07806 17.3125 5.44855 17.3125Z" fill="#181713"/>
<path d="M1.16476 22.7583C1.3392 20.5876 2.28297 19.2195 2.78417 18.6351C4.83716 19.9983 7.03977 19.3518 8.25092 18.6232C9.40855 19.9331 9.67886 21.8306 9.74115 22.7566L1.16476 22.7583ZM10.8959 23.3442C10.9007 23.1907 10.9934 19.5594 8.70955 17.4675C8.50566 17.2806 8.1974 17.2675 7.97818 17.4358C7.95312 17.4553 5.4274 19.3528 3.0793 17.4402C2.86495 17.2655 2.55571 17.2706 2.34672 17.4519C2.25353 17.5334 0.0548152 19.4874 7.22333e-05 23.3194C-0.00236079 23.4717 0.0567609 23.6186 0.16357 23.7269C0.27038 23.8354 0.416359 23.8965 0.568909 23.8965L10.327 23.8948C10.6341 23.8948 10.8854 23.6512 10.8959 23.3442Z" fill="#181713"/>
<path d="M27.6425 13.0112C27.6425 13.8542 27.3133 14.6481 26.7145 15.2469C26.1172 15.8451 25.3236 16.1743 24.4805 16.1743H24.4796C22.7361 16.1743 21.3171 14.7564 21.3166 13.0136C21.3166 12.1698 21.6461 11.3757 22.2439 10.7774C22.8421 10.1789 23.6363 9.84946 24.4796 9.84922C26.2226 9.84922 27.6415 11.2677 27.6425 13.0112ZM21.4388 9.97281C20.6259 10.7864 20.1787 11.8662 20.1787 13.0139C20.1797 15.3841 22.1088 17.3125 24.4796 17.3125H24.4805C25.6282 17.3125 26.7075 16.8646 27.5196 16.0512C28.333 15.2376 28.7811 14.1579 28.7807 13.0109C28.7792 10.64 26.85 8.71104 24.4796 8.71104C23.3317 8.71104 22.2519 9.15873 21.4388 9.97281Z" fill="#181713"/>
<path d="M20.1965 22.7583C20.3704 20.5876 21.3142 19.2195 21.8154 18.6351C23.8684 19.9983 26.0712 19.3518 27.2826 18.6232C28.4398 19.9331 28.7106 21.8306 28.7724 22.7566L20.1965 22.7583ZM27.7408 17.4675C27.5374 17.2806 27.2289 17.2675 27.0099 17.4358C26.9846 17.4553 24.4589 19.3528 22.111 17.4402C21.8962 17.2655 21.5869 17.2706 21.3782 17.4519C21.2848 17.5334 19.0858 19.4874 19.0313 23.3194C19.0294 23.4717 19.0882 23.6186 19.1953 23.7269C19.3021 23.8354 19.4481 23.8965 19.6001 23.8965H19.6006L29.3587 23.8948C29.6653 23.8948 29.9171 23.6512 29.9271 23.3442C29.9324 23.1907 30.0249 19.5594 27.7408 17.4675Z" fill="#181713"/>
</svg>
