<svg width="31" height="32" viewBox="0 0 31 32" fill="none" xmlns="http://www.w3.org/2000/svg">
<path d="M1.77596 26.3088V22.6489C3.36774 22.4705 4.51576 21.6187 5.63003 20.7918C5.88079 20.6056 6.13385 20.4175 6.39462 20.2359C7.39081 19.5408 8.54167 18.8975 10.2015 18.8975C11.0313 18.8975 11.7032 18.9052 12.2556 18.9215L16.5066 18.9218C16.7896 18.9218 17.0204 19.1522 17.0204 19.4353C17.0204 19.7178 16.7896 19.948 16.5066 19.948H12.5324C12.4995 19.948 12.4667 19.9506 12.4338 19.9557C11.3189 20.139 10.5097 21.0911 10.5097 22.2194C10.5097 23.0503 10.9655 23.8178 11.6992 24.2221C11.7418 24.2455 11.7876 24.2638 11.835 24.2767C11.9611 24.3107 12.5693 24.4726 13.3831 24.6876C13.87 24.8051 14.3615 24.9349 14.8556 25.077L14.9668 25.107C17.3615 25.7407 18.6645 26.0809 18.951 26.1478C18.9862 26.1564 19.0214 26.1613 19.0571 26.1633C19.3625 26.1799 19.6221 26.1598 19.85 26.1035C19.9154 26.0869 19.9781 26.0603 20.0344 26.0235L26.296 21.9649C26.3017 21.9595 26.3132 21.9535 26.3218 21.9481L27.4226 21.1509C27.4255 21.1475 27.4312 21.1443 27.4369 21.1412C27.4684 21.1192 27.5027 21.1023 27.5398 21.0846C27.6056 21.05 27.6571 21.0282 27.7057 21.0139C27.7486 21.0005 27.7943 20.9919 27.8401 20.9851C27.9601 20.9668 28.0831 20.9679 28.2003 20.9919C28.2232 20.9971 28.2461 21.0002 28.269 21.0022C28.8951 21.0565 29.3669 21.5666 29.3669 22.1891C29.3669 22.5042 29.2411 22.8027 29.0124 23.0292C29.0067 23.0332 29.0038 23.0366 29.0009 23.0406C28.9094 23.1284 28.8122 23.1993 28.7093 23.2511C28.6807 23.2654 28.6549 23.2822 28.6292 23.3008L28.1975 23.6148L18.4549 30.6773C18.4395 30.6833 18.4238 30.6893 18.4086 30.6956C18.1278 30.7914 17.8936 30.8054 17.6329 30.7568L17.6028 30.749C11.1471 29.1061 6.52184 27.9383 4.21866 27.3702L4.01993 27.2973C3.99935 27.2893 3.97792 27.2827 3.95619 27.2773C3.06951 27.0545 2.33724 26.9104 1.76881 26.8467L1.77596 26.3088ZM1.16835 28.0244C1.65987 28.0244 2.53281 28.1748 3.62907 28.4484L3.83293 28.5236C3.85295 28.5308 3.87354 28.5374 3.8947 28.5422C6.18387 29.1069 10.8191 30.2773 17.2995 31.9265L17.3452 31.9382C17.3575 31.9417 17.3698 31.9445 17.3815 31.9468C17.5625 31.9823 17.7435 32 17.9194 32C18.215 32 18.5093 31.9477 18.8198 31.8399C18.8286 31.8367 18.8375 31.833 18.8464 31.8296L18.9218 31.8007C18.9845 31.7815 19.0442 31.7518 19.0983 31.7124L29.3069 24.3099C29.5013 24.2055 29.6815 24.072 29.8473 23.9116C29.8559 23.9036 29.8644 23.8947 29.873 23.8861C30.3305 23.4301 30.5822 22.8282 30.5822 22.1891C30.5822 20.9424 29.65 19.9191 28.4091 19.7944C28.1717 19.749 27.9401 19.7407 27.6599 19.7827C27.5484 19.799 27.4483 19.8213 27.3511 19.8505C27.2339 19.8859 27.1166 19.9351 26.9908 20C26.9279 20.0303 26.865 20.0646 26.8021 20.1038C26.7821 20.1153 26.7621 20.1284 26.7421 20.1421L25.6212 20.9533L19.4708 24.9401C19.3882 24.9518 19.2898 24.9549 19.1749 24.9515C18.8103 24.8623 17.5011 24.5197 15.2791 23.9319L15.1801 23.9056C14.6803 23.7617 14.1717 23.6271 13.6807 23.509C12.9928 23.3268 12.4478 23.1819 12.2293 23.1235C11.9171 22.9265 11.7255 22.5857 11.7255 22.2194C11.7255 21.7036 12.0852 21.2667 12.5873 21.1638H16.5066C17.4604 21.1638 18.2362 20.3883 18.2362 19.4353C18.2362 18.4817 17.4604 17.706 16.5066 17.706H12.2734C11.7267 17.6897 11.043 17.6817 10.2015 17.6817C8.20055 17.6817 6.80206 18.4689 5.69922 19.2386C5.42845 19.4273 5.16596 19.622 4.90576 19.8156C3.71114 20.7017 2.6792 21.4671 1.15947 21.4671C0.96361 21.4671 0.779776 21.5618 0.665403 21.7216C0.570474 21.8543 0.533569 22.0181 0.560161 22.1768L0.551868 26.9373C0.551296 26.975 0.554156 27.0119 0.560161 27.0477V27.4165C0.560161 27.7522 0.832383 28.0244 1.16835 28.0244Z" fill="#181713"/>
<path d="M9.60316 9.40628L9.28378 9.08689C8.98784 8.79067 8.98784 8.30858 9.28378 8.01236L15.1068 2.18908C15.1213 2.17507 15.1342 2.16048 15.1471 2.14533L15.8548 1.43765C16.1413 1.15086 16.6454 1.15087 16.933 1.43794L17.6373 2.14161C17.6507 2.1582 17.6647 2.17422 17.6796 2.18908L23.5023 8.01236C23.7997 8.30858 23.7997 8.79067 23.5023 9.08689L23.1849 9.40657L16.8235 3.04573C16.7091 2.93193 16.555 2.8676 16.3935 2.8676C16.2322 2.8676 16.0775 2.93193 15.9634 3.04573L9.60316 9.40628ZM21.2554 14.5491C21.2554 14.9205 20.9529 15.2227 20.5815 15.2227H19.016C19.0612 15.1378 19.0864 15.0411 19.0864 14.9379V9.92353C19.0864 9.58785 18.8145 9.31564 18.4788 9.31564H14.3082C13.9728 9.31564 13.7 9.58785 13.7 9.92353V14.9379C13.7 15.0411 13.7257 15.1378 13.7709 15.2227H12.2063C11.8343 15.2227 11.5315 14.9205 11.5315 14.5491V9.19698L16.3935 4.33527L19.4981 7.44022L21.2554 9.19726V14.5491ZM17.8706 14.33H14.9158V10.5314H17.8706V14.33ZM12.2063 16.4385H20.5815C21.6235 16.4385 22.4701 15.5907 22.4701 14.5491V10.413L22.7531 10.6956C22.9905 10.9332 23.3765 10.9329 23.6138 10.6958L24.363 9.94668V9.9464C25.1321 9.17639 25.1321 7.92286 24.363 7.15285L18.5849 1.37503C18.5717 1.35816 18.5571 1.34214 18.542 1.32699L17.7925 0.577856C17.4188 0.205002 16.9219 -0.000583649 16.3935 -0.000583649C15.8648 -0.000583649 15.3675 0.204994 14.9947 0.578135L14.2458 1.32728C14.2318 1.34101 14.2184 1.35587 14.2061 1.37102L8.42426 7.15257C7.65424 7.92287 7.65425 9.17639 8.4237 9.9464L9.17312 10.6958C9.29207 10.8145 9.44733 10.8737 9.60316 10.8737C9.75843 10.8737 9.91426 10.8145 10.0332 10.6958L10.316 10.4128V14.5491C10.316 15.5907 11.1641 16.4385 12.2063 16.4385Z" fill="#181713"/>
</svg>
