<svg width="40" height="42" viewBox="0 0 40 42" fill="none" xmlns="http://www.w3.org/2000/svg">
<path d="M2.39288 9.6401C3.35008 9.6401 4.10216 10.3922 4.10216 11.3493C4.10216 12.3065 3.35008 13.0586 2.39288 13.0586C1.43568 13.0586 0.683594 12.3065 0.683594 11.3493C0.683594 10.3922 1.43568 9.6401 2.39288 9.6401Z" fill="#AFF2D8"/>
<path d="M36.1692 26.732C36.8529 26.732 37.4682 27.279 37.4682 28.031C37.4682 28.7831 36.9213 29.3301 36.1692 29.3301C35.4855 29.3301 34.8701 28.7831 34.8701 28.031C34.8701 27.279 35.4855 26.732 36.1692 26.732Z" fill="#AFF2D8"/>
<path d="M4.58031 27.5523C5.26402 27.5523 5.87936 28.0993 5.87936 28.8514C5.87936 29.6034 5.33239 30.1504 4.58031 30.1504C3.82822 30.1504 3.28125 29.6034 3.28125 28.8514C3.28125 28.0993 3.82822 27.5523 4.58031 27.5523Z" fill="#FFFE81"/>
<path d="M35.7571 4.51119C36.7143 4.51119 37.4664 5.26326 37.4664 6.22044C37.4664 7.17762 36.7143 7.92969 35.7571 7.92969C34.7999 7.92969 34.0479 7.17762 34.0479 6.22044C34.0479 5.26326 34.7999 4.51119 35.7571 4.51119Z" fill="#FFFE81"/>
<path d="M15.9302 25.57L20.3743 40.4062C17.4344 40.4062 14.7679 39.3807 13.0586 37.6715C12.7851 37.1929 12.5116 36.7826 12.1014 36.5092C11.7595 35.9622 11.486 35.3469 11.2809 34.6632L7.52051 19.0065C11.7595 19.8269 14.973 22.3566 15.9302 25.57Z" fill="#6E9137"/>
<path d="M21.2638 40.3369C20.9903 40.3369 20.6485 40.3369 20.375 40.3369L24.8191 25.5006C25.7763 22.2873 28.9898 19.8259 33.2288 19.0055L29.4684 34.6622C29.2633 35.4143 28.9898 36.098 28.5112 36.7133C28.3061 36.9184 28.101 37.1235 27.9642 37.397C26.3917 39.0379 23.9987 40.1318 21.2638 40.3369Z" fill="#8EC155"/>
<path d="M20.4421 10.4605C20.5105 10.3921 20.5105 10.3237 20.4421 10.2554C20.3737 10.187 20.3054 10.187 20.237 10.2554C20.1686 10.3237 20.1686 10.3921 20.237 10.4605C20.3054 10.4605 20.3737 10.4605 20.4421 10.4605ZM29.1936 4.78576C30.1508 5.67457 30.1508 7.17871 29.1936 8.13589C28.0313 9.29818 26.3904 9.29818 24.3393 9.22981C23.7239 9.22981 23.177 9.7084 23.177 10.3237C23.177 10.9391 23.7239 11.486 24.3393 11.4176C26.3904 11.2809 27.963 11.2809 29.1936 12.5116C30.1508 13.4687 30.0825 14.9729 29.1936 15.8617C28.3732 16.6821 27.5527 16.6821 26.322 16.2719C26.7323 17.5026 26.7323 18.323 25.9118 19.1434C25.023 20.1006 23.5188 20.1006 22.5616 19.1434C21.3993 17.9812 21.3993 16.3403 21.4677 14.2892C21.4677 13.6739 20.9891 13.1269 20.3737 13.1269C19.7584 13.1269 19.2114 13.6739 19.2798 14.2892C19.4165 16.3403 19.4165 17.9128 18.1859 19.1434C17.2287 20.1006 15.7245 20.0323 14.8357 19.1434C14.0152 18.323 14.0152 17.5026 14.4254 16.2719C13.1947 16.6821 12.3743 16.6821 11.5538 15.8617C10.5966 14.9729 10.5966 13.4687 11.5538 12.5116C12.7161 11.3493 14.3571 11.3493 16.4082 11.4176C17.0235 11.4176 17.5705 10.9391 17.5705 10.3237C17.5705 9.7084 17.0235 9.16144 16.4082 9.22981C14.3571 9.36655 12.7845 9.36655 11.5538 8.13589C10.5966 7.17871 10.665 5.67457 11.5538 4.78576C12.3743 3.96532 13.1947 3.96532 14.4254 4.37554C14.0152 3.14488 14.0152 2.32444 14.8357 1.50401C15.7245 0.546827 17.2287 0.546827 18.1859 1.50401C19.3482 2.66629 19.3482 4.30717 19.2798 6.35827C19.2798 6.9736 19.7584 7.52056 20.3737 7.52056C20.9891 7.52056 21.5361 6.9736 21.4677 6.35827C21.3309 4.30717 21.3309 2.73466 22.5616 1.50401C23.5188 0.546827 25.023 0.615196 25.9118 1.50401C26.7323 2.32444 26.7323 3.14488 26.322 4.37554C27.5527 3.96532 28.3732 3.96532 29.1936 4.78576Z" fill="#FF99A7"/>
<path d="M20.3756 9.77713C20.2389 9.77713 20.1022 9.8455 19.9654 9.91387L20.3756 10.3241L20.7859 9.91387C20.6491 9.8455 20.5124 9.77713 20.3756 9.77713ZM19.9654 9.91387C19.7603 10.119 19.7603 10.4608 19.9654 10.6659C20.0338 10.7343 20.1705 10.8027 20.3756 10.8027C20.5808 10.8027 20.6491 10.7343 20.7859 10.6659C20.991 10.4608 20.991 10.119 20.7859 9.91387L20.3756 10.3241L20.2389 10.3925L20.3073 10.2557L19.9654 9.91387ZM20.3756 11.1445C20.1705 11.1445 19.9654 11.0762 19.7603 10.9394C19.4184 10.5976 19.4184 10.119 19.7603 9.77713C19.897 9.64039 20.1022 9.50365 20.3756 9.50365C20.5808 9.50365 20.7859 9.57202 20.991 9.77713C21.3328 10.119 21.3328 10.5976 20.991 10.9394C20.7859 11.0762 20.5808 11.1445 20.3756 11.1445Z" fill="black"/>
<path d="M20.3739 12.5115C20.9208 12.5115 21.3994 12.7166 21.7413 13.0584C22.0832 13.4003 22.2883 13.8789 22.2199 14.3574C22.1515 16.2718 22.1515 17.7076 23.1087 18.6647C23.4506 19.0066 23.8608 19.1433 24.271 19.1433C24.7496 19.1433 25.1599 18.9382 25.5017 18.6647C26.0487 18.1178 26.1171 17.5708 25.7068 16.4769C25.6385 16.2034 25.7068 15.9299 25.8436 15.7932C26.0487 15.5881 26.3222 15.5197 26.5273 15.6565C27.0059 15.7932 27.4161 15.8616 27.6896 15.8616C28.0998 15.8616 28.3733 15.7248 28.7152 15.383C29.057 15.0411 29.1938 14.6309 29.1938 14.1523C29.1938 13.6737 29.057 13.2635 28.7152 12.99C28.0998 12.3747 27.211 12.1012 25.7068 12.1012C25.2966 12.1012 24.818 12.1012 24.4078 12.1696H24.3394C23.8608 12.1696 23.3822 11.9645 23.0404 11.6226C22.6985 11.2808 22.4934 10.8022 22.4934 10.3236C22.4934 9.84503 22.6985 9.36644 23.0404 9.02459C23.3822 8.68274 23.8608 8.47763 24.4078 8.47763C24.818 8.47763 25.2966 8.546 25.7068 8.546C27.211 8.546 28.0315 8.27252 28.7152 7.65719C29.057 7.31534 29.1938 6.90512 29.1938 6.4949C29.1938 6.01631 28.9887 5.60609 28.7152 5.26424C28.3733 4.92239 28.0315 4.78565 27.6896 4.78565C27.4161 4.78565 27.0059 4.85402 26.5273 4.99076C26.2538 5.05913 25.9803 4.99076 25.8436 4.85402C25.7068 4.71728 25.5701 4.37543 25.7068 4.17032C26.0487 3.0764 26.0487 2.52945 25.5017 1.98249C25.1599 1.64064 24.7496 1.5039 24.271 1.5039C23.8608 1.5039 23.3822 1.70901 23.1087 1.98249C22.1515 2.93966 22.1515 4.37543 22.2199 6.28979C22.2199 6.76838 22.0832 7.24697 21.7413 7.58882C21.3994 7.93067 20.9208 8.13578 20.4423 8.13578C19.9637 8.13578 19.4851 7.93067 19.1432 7.58882C18.8013 7.24697 18.5962 6.76838 18.6646 6.28979C18.733 4.37543 18.733 2.93966 17.7758 1.98249C17.4339 1.64064 17.0237 1.5039 16.6135 1.5039C16.1349 1.5039 15.7246 1.70901 15.3828 1.98249C14.8358 2.52945 14.7674 3.0764 15.1777 4.17032C15.246 4.4438 15.1777 4.71728 15.0409 4.85402C14.8358 5.05913 14.5623 5.1275 14.3572 4.99076C13.8786 4.85402 13.4684 4.78565 13.1949 4.78565C12.7847 4.78565 12.5112 4.92239 12.1693 5.26424C11.8275 5.60609 11.6907 6.01631 11.6907 6.4949C11.6907 6.97349 11.8275 7.38371 12.1693 7.65719C12.7847 8.27252 13.6735 8.546 15.1777 8.546C15.5879 8.546 16.0665 8.546 16.4767 8.47763H16.5451C17.0237 8.47763 17.5023 8.68274 17.8441 9.02459C18.186 9.36644 18.3911 9.84503 18.3911 10.3236C18.3911 10.8022 18.186 11.2808 17.8441 11.6226C17.5023 11.9645 17.0237 12.1696 16.4767 12.1696C16.0665 12.1696 15.5879 12.1012 15.1777 12.1012C13.6735 12.1012 12.853 12.3747 12.1693 12.99C11.8275 13.3319 11.6907 13.7421 11.6907 14.1523C11.6907 14.6309 11.8958 15.0411 12.1693 15.383C12.5112 15.7248 12.853 15.8616 13.1949 15.8616C13.4684 15.8616 13.8786 15.7932 14.3572 15.6565C14.6307 15.5881 14.9042 15.6565 15.0409 15.7932C15.246 15.9983 15.3144 16.2718 15.1777 16.4769C14.8358 17.5708 14.8358 18.1178 15.3828 18.6647C15.7246 19.0066 16.1349 19.1433 16.6135 19.1433C17.0237 19.1433 17.5023 18.9382 17.7758 18.6647C18.733 17.7076 18.733 16.2718 18.6646 14.3574C18.6646 13.8789 18.8013 13.4003 19.1432 13.0584C19.3483 12.7166 19.8269 12.5115 20.3739 12.5115ZM24.2027 20.5791C23.3822 20.5791 22.6301 20.2373 22.0832 19.6903C20.7157 18.3229 20.7157 16.5453 20.7841 14.3574C20.7841 14.2207 20.7157 14.084 20.6474 14.0156C20.579 13.9472 20.4423 13.8789 20.3055 13.8789C20.1688 13.8789 20.032 13.9472 19.9637 14.0156C19.8953 14.084 19.8269 14.1523 19.8269 14.3574C19.9637 16.5453 19.8953 18.3229 18.5279 19.6903C17.9809 20.2373 17.1604 20.5791 16.4083 20.5791C15.5879 20.5791 14.8358 20.2373 14.2205 19.6903C13.4684 18.8699 13.2633 18.0494 13.4 17.229C13.2633 17.229 13.1265 17.229 12.9898 17.229C12.2377 17.229 11.554 16.9555 11.007 16.3402C10.3917 15.7932 10.1182 14.9728 10.1182 14.1523C10.1182 13.3319 10.46 12.5798 11.007 11.9645C12.1693 10.8022 13.6735 10.6655 14.9725 10.6655C15.4511 10.6655 15.9297 10.6655 16.34 10.7338C16.4767 10.7338 16.5451 10.6655 16.6135 10.5971C16.6818 10.5287 16.7502 10.392 16.7502 10.3236V10.2552C16.7502 10.1185 16.6818 10.0501 16.6135 9.98177C16.5451 9.9134 16.4083 9.84503 16.2716 9.84503C15.8614 9.84503 15.3828 9.9134 14.9042 9.9134C13.6051 9.9134 12.1009 9.77666 10.9386 8.61437C10.3917 8.06741 10.0498 7.24697 10.0498 6.42653C10.0498 5.60609 10.3917 4.85402 10.9386 4.23869C11.554 3.62336 12.1693 3.34988 12.9214 3.34988C13.0581 3.34988 13.1949 3.34988 13.3316 3.34988C13.1949 2.52945 13.4 1.70901 14.1521 0.888567C14.7674 0.273239 15.5195 -0.000242233 16.34 -0.000242233C17.1604 -0.000242233 17.9125 0.341608 18.4595 0.888567C19.8269 2.25597 19.8269 4.03358 19.7585 6.22142C19.7585 6.35816 19.8269 6.4949 19.8953 6.56327C19.9637 6.63164 20.1004 6.70001 20.2371 6.70001C20.3739 6.70001 20.5106 6.63164 20.579 6.56327C20.6474 6.4949 20.7157 6.42653 20.7157 6.22142C20.579 4.03358 20.6474 2.25597 22.0148 0.888567C22.5618 0.341608 23.3822 -0.000242233 24.1343 -0.000242233C24.9548 -0.000242233 25.7068 0.341608 26.3222 0.888567C27.0743 1.70901 27.2794 2.52945 27.1426 3.34988C27.2794 3.34988 27.4161 3.34988 27.5529 3.34988C28.305 3.34988 28.9887 3.62336 29.5356 4.23869C30.151 4.78565 30.4245 5.60609 30.4245 6.42653C30.4245 7.24697 30.0826 7.99904 29.5356 8.61437C28.3733 9.77666 26.8692 9.9134 25.5701 9.9134C25.0915 9.9134 24.6129 9.9134 24.2027 9.84503C24.0659 9.84503 23.9976 9.9134 23.9292 9.98177C23.8608 10.0501 23.7924 10.1869 23.7924 10.2552V10.3236C23.7924 10.4604 23.8608 10.5287 23.9292 10.5971C23.9976 10.6655 24.1343 10.7338 24.271 10.7338C24.6813 10.7338 25.1599 10.6655 25.6385 10.6655C26.9375 10.6655 28.4417 10.8022 29.604 11.9645C30.151 12.5115 30.4928 13.3319 30.4928 14.1523C30.4928 14.9728 30.151 15.7248 29.604 16.3402C28.9887 16.9555 28.3733 17.229 27.6212 17.229C27.4845 17.229 27.3478 17.229 27.211 17.229C27.3478 18.0494 27.1426 18.8699 26.3906 19.6903C25.8436 20.2373 25.0231 20.5791 24.2027 20.5791Z" fill="black"/>
<path d="M32.2708 19.9635C28.8522 20.9207 26.2541 23.0402 25.4336 25.775L21.263 39.7224C23.7243 39.5173 25.9806 38.5602 27.4164 36.9876C27.6215 36.7825 27.7583 36.5774 27.895 36.3723C28.3052 35.8254 28.5787 35.21 28.7838 34.5263L32.2708 19.9635ZM20.3741 41.0898C20.169 41.0898 19.9639 41.0215 19.8272 40.8164C19.6904 40.6113 19.6904 40.4061 19.6904 40.201L24.1346 25.3648C25.1601 21.8779 28.5787 19.2115 33.0228 18.391C33.228 18.3227 33.5014 18.391 33.6382 18.5961C33.7749 18.7329 33.8433 19.0064 33.7749 19.2115L30.0145 34.8682C29.8094 35.6886 29.4675 36.4407 28.9206 37.1928C28.7154 37.4662 28.5103 37.6713 28.3052 37.9448C26.6643 39.7224 24.0662 40.8847 21.1946 41.0898C20.9895 41.0898 20.716 41.0898 20.3741 41.0898Z" fill="black"/>
<path d="M8.47828 19.9635L11.9652 34.5263C12.102 35.0733 12.3071 35.6203 12.6489 36.1672C12.9224 36.5774 13.1959 36.9193 13.5378 37.2611C14.9736 38.6285 17.0931 39.5173 19.4177 39.7224L15.247 25.7066C14.495 23.0402 11.8968 20.8524 8.47828 19.9635ZM20.3749 41.0898C17.2982 41.0898 14.495 40.0643 12.5806 38.2183C12.1703 37.8081 11.8285 37.3295 11.4866 36.8509C11.0764 36.2356 10.8029 35.5519 10.5978 34.7998L6.83737 19.1431C6.769 18.938 6.83737 18.6645 6.97411 18.5278C7.11085 18.391 7.38434 18.2543 7.58945 18.3227C12.0336 19.1431 15.4522 21.8095 16.4777 25.2964L20.9219 40.1327C20.9902 40.3378 20.9219 40.5429 20.7851 40.748C20.7851 40.9531 20.58 41.0898 20.3749 41.0898Z" fill="black"/>
<path d="M20.3741 41.0898C19.9639 41.0898 19.6904 40.8164 19.6904 40.4061V19.8952C19.6904 19.485 19.9639 19.2115 20.3741 19.2115C20.7844 19.2115 21.0579 19.485 21.0579 19.8952V40.4061C21.0579 40.748 20.716 41.0898 20.3741 41.0898Z" fill="black"/>
<path d="M21.1946 41.0898C20.9895 41.0898 20.716 40.9531 20.6476 40.748C20.4425 40.4061 20.5109 39.9959 20.8527 39.7908C20.8527 39.7908 20.8527 39.7908 20.9211 39.7224C21.5364 39.3806 26.3224 36.1672 26.5275 31.7232C26.5275 31.3129 26.8694 31.0395 27.2113 31.1078C27.6215 31.1078 27.895 31.4497 27.8266 31.7915C27.5531 36.8509 22.2201 40.4745 21.6048 40.8164H21.5364C21.4681 41.0215 21.3313 41.0898 21.1946 41.0898Z" fill="black"/>
<path d="M12.6494 27.416C12.376 27.416 12.1025 27.2109 11.9657 26.9374C10.4616 22.2199 8.00019 20.5107 7.93182 20.4423C7.58996 20.2372 7.52159 19.827 7.7267 19.4851C7.93182 19.1433 8.34205 19.0749 8.6839 19.28C8.82065 19.3484 11.6239 21.3311 13.1964 26.4588C13.3332 26.8007 13.128 27.2109 12.7178 27.3476C12.7862 27.416 12.7178 27.416 12.6494 27.416Z" fill="black"/>
<path d="M2.393 10.3237C1.84603 10.3237 1.36743 10.8023 1.36743 11.3492C1.36743 11.8962 1.84603 12.3748 2.393 12.3748C2.93997 12.3748 3.41857 11.8962 3.41857 11.3492C3.41857 10.8023 3.00834 10.3237 2.393 10.3237ZM2.393 13.7422C1.09394 13.7422 0 12.6483 0 11.3492C0 10.0502 1.09394 8.95629 2.393 8.95629C3.69205 8.95629 4.786 10.0502 4.786 11.3492C4.786 12.6483 3.76042 13.7422 2.393 13.7422Z" fill="black"/>
<path d="M35.7573 5.19479C35.2103 5.19479 34.7317 5.67338 34.7317 6.22033C34.7317 6.76729 35.2103 7.24588 35.7573 7.24588C36.3042 7.24588 36.7828 6.76729 36.7828 6.22033C36.7828 5.67338 36.3042 5.19479 35.7573 5.19479ZM35.7573 8.61328C34.4582 8.61328 33.3643 7.51936 33.3643 6.22033C33.3643 4.92131 34.4582 3.82739 35.7573 3.82739C37.0563 3.82739 38.1503 4.92131 38.1503 6.22033C38.1503 7.51936 37.0563 8.61328 35.7573 8.61328Z" fill="black"/>
<path d="M36.1673 27.4156C35.8255 27.4156 35.552 27.6891 35.552 28.031C35.552 28.3728 35.8255 28.6463 36.1673 28.6463C36.5092 28.6463 36.7827 28.3728 36.7827 28.031C36.7827 27.6891 36.5092 27.4156 36.1673 27.4156ZM36.1673 29.9453C35.0734 29.9453 34.1846 29.0565 34.1846 27.9626C34.1846 26.8687 35.0734 25.9799 36.1673 25.9799C37.2613 25.9799 38.1501 26.8687 38.1501 27.9626C38.1501 29.0565 37.2613 29.9453 36.1673 29.9453Z" fill="black"/>
<path d="M27.4162 41.0898C27.0743 41.0898 26.8008 40.8847 26.7324 40.5429C26.459 39.3122 26.6641 38.0816 27.3478 37.056C27.5529 36.7825 27.758 36.5091 27.9631 36.2356C28.5101 35.6886 29.2622 35.2784 30.0826 35.0733C31.245 34.7998 32.4756 35.0049 33.5012 35.6203C34.5268 36.2356 35.2789 37.2611 35.5523 38.4234C35.6207 38.7653 35.4156 39.1755 35.0737 39.2439C34.7319 39.3122 34.3217 39.1071 34.2533 38.7653C34.0482 37.9448 33.5696 37.2611 32.8175 36.7825C32.0654 36.3723 31.245 36.2356 30.4245 36.4407C29.8775 36.5774 29.3306 36.8509 28.9887 37.2611C28.7836 37.3979 28.6468 37.603 28.5101 37.8081C28.0315 38.5602 27.8948 39.3806 28.0999 40.2694C28.1682 40.6113 27.9631 41.0215 27.6213 41.0898C27.5529 41.0898 27.4845 41.0898 27.4162 41.0898Z" fill="black"/>
<path d="M35.4159 40.8848C35.2108 40.8848 35.0057 40.8164 34.869 40.6113C33.775 39.2439 33.9801 37.1928 35.4159 36.0989C36.0996 35.5519 36.9201 35.3468 37.7405 35.4152C38.561 35.4835 39.3131 35.9621 39.8601 36.5775C40.0652 36.8509 40.0652 37.3295 39.7233 37.5346C39.4498 37.7397 38.9712 37.7397 38.7661 37.3979C38.4926 36.9877 38.014 36.7826 37.5354 36.7142C37.0568 36.6458 36.5782 36.7826 36.168 37.1244C35.3476 37.7397 35.2792 38.902 35.8945 39.6541C36.0996 39.9276 36.0996 40.4062 35.7578 40.6113C35.7578 40.8164 35.5527 40.8848 35.4159 40.8848Z" fill="black"/>
<path d="M13.4007 41.0898C13.3323 41.0898 13.2639 41.0898 13.2639 41.0898C12.9221 41.0215 12.6486 40.6113 12.7853 40.2694C12.9904 39.5173 12.8537 38.6969 12.5118 38.0132C12.3067 37.603 12.0332 37.3295 11.6914 37.056C11.3495 36.7825 10.9393 36.5774 10.4607 36.4407C9.64023 36.2356 8.81977 36.3723 8.06769 36.7825C7.3156 37.1928 6.83701 37.9448 6.63189 38.7653C6.56352 39.1071 6.15329 39.3806 5.81144 39.2439C5.46958 39.1755 5.19609 38.7653 5.33284 38.4234C5.60632 37.2611 6.35841 36.2356 7.38398 35.6203C8.40955 35.0049 9.64023 34.7998 10.8025 35.0733C11.4863 35.21 12.0332 35.5519 12.5802 35.9621C13.0588 36.3723 13.469 36.8509 13.7425 37.3295C14.2895 38.2867 14.4262 39.449 14.1527 40.5429C14.016 40.8847 13.7425 41.0898 13.4007 41.0898Z" fill="black"/>
<path d="M5.40129 40.8848C5.26455 40.8848 5.12781 40.8164 4.99106 40.748C4.71758 40.5429 4.64921 40.0643 4.85432 39.7908C5.46966 38.9704 5.33292 37.8765 4.58083 37.2612C3.76038 36.6458 2.66644 36.7826 2.05109 37.5346C1.84598 37.8081 1.36738 37.8765 1.0939 37.6714C0.82041 37.4663 0.752039 36.9877 0.957153 36.7142C2.05109 35.3468 4.03386 35.0733 5.46966 36.1672C6.83709 37.2612 7.11057 39.2439 6.01663 40.6797C5.81152 40.8164 5.60641 40.8848 5.40129 40.8848Z" fill="black"/>
<path d="M4.58043 28.2359C4.23857 28.2359 3.96508 28.5094 3.96508 28.8513C3.96508 29.1931 4.23857 29.4666 4.58043 29.4666C4.92228 29.4666 5.19577 29.1931 5.19577 28.8513C5.19577 28.5094 4.85391 28.2359 4.58043 28.2359ZM4.58043 30.834C3.48648 30.834 2.59766 29.9452 2.59766 28.8513C2.59766 27.7573 3.48648 26.8685 4.58043 26.8685C5.67437 26.8685 6.56319 27.7573 6.56319 28.8513C6.56319 29.9452 5.606 30.834 4.58043 30.834Z" fill="black"/>
</svg>
