<svg width="232" height="145" viewBox="0 0 232 145" fill="none" xmlns="http://www.w3.org/2000/svg">
<mask id="mask0_2337_9582" style="mask-type:luminance" maskUnits="userSpaceOnUse" x="0" y="0" width="233" height="145">
<path d="M231.786 0.364258V144.245H0.364258V0.364258H231.786Z" fill="white" stroke="white" stroke-width="0.728109"/>
</mask>
<g mask="url(#mask0_2337_9582)">
<path d="M25.7383 60.7676C26.3017 60.578 26.9188 60.6807 27.4199 61.0674C27.9201 61.4534 28.3253 62.1412 28.4023 63.1494C28.9183 69.8997 28.8447 77.0377 28.9395 81.7373C28.9631 82.9098 28.9966 83.9332 29.0537 84.7588C29.1101 85.5743 29.191 86.2285 29.3174 86.6445C29.3756 86.8361 29.4667 87.0623 29.6396 87.1963C29.7421 87.2756 29.8758 87.3241 30.0254 87.3066C30.163 87.2905 30.2735 87.2233 30.3535 87.1562C30.5076 87.0272 30.6421 86.8195 30.7676 86.5801C30.8982 86.3307 31.0392 86.007 31.1904 85.6074C32.0507 83.3345 32.8866 78.4235 33.5078 74.1182C33.8198 71.956 34.0797 69.9315 34.2627 68.4434C34.3542 67.6992 34.4265 67.0883 34.4766 66.6621C34.5022 66.4434 34.52 66.2884 34.5342 66.168C34.5409 66.1106 34.5462 66.0668 34.5498 66.0371C34.5504 66.0321 34.5503 66.0274 34.5508 66.0234C34.8319 65.0384 35.5993 64.6106 36.3076 64.6426C37.017 64.6747 37.7027 65.1672 37.8252 66.1514C38.3728 70.5513 37.5789 76.7994 36.7881 82.8359C36.3943 85.8423 36.0019 88.791 35.7861 91.4043C35.5709 94.0109 35.5276 96.3189 35.8447 98.0342C35.9364 98.5301 36.0382 98.9363 36.1533 99.2559C36.2662 99.5691 36.4027 99.8312 36.5801 100.01C36.773 100.204 37.0224 100.304 37.2998 100.249C37.5448 100.201 37.7555 100.041 37.9297 99.8643C38.2814 99.5071 38.6465 98.9087 39.0234 98.1963C39.4055 97.4742 39.8204 96.595 40.2646 95.6494C41.1574 93.749 42.1745 91.5692 43.3281 89.7383C44.4927 87.8901 45.7442 86.4843 47.0693 86.0234C47.6231 85.8309 48.357 85.9146 48.8086 86.2129C49.0253 86.3561 49.1541 86.5325 49.1943 86.7295C49.2345 86.9265 49.1995 87.2085 48.9609 87.5879C48.241 88.7328 47.3725 90.9531 46.4004 93.668C45.9115 95.0333 45.3919 96.5355 44.8486 98.1055C44.3051 99.6761 43.7367 101.316 43.1484 102.96C41.9714 106.249 40.7168 109.548 39.4238 112.335C38.1249 115.135 36.8083 117.371 35.5215 118.576C34.4596 119.57 33.7149 121.207 33.2012 123.263C32.6851 125.328 32.39 127.867 32.2646 130.718C32.0139 136.421 32.4383 143.426 33.1562 150.508C34.5577 164.332 37.0831 178.511 37.9277 183.959L16.207 185.724C16.8473 162.192 18.4601 140.533 18.2959 116.982H18.2969L18.2959 116.978C18.1968 112.306 17.2894 108.506 16.1953 105.012C15.0951 101.498 13.8334 98.364 12.9795 94.9092C12.4869 92.9162 11.824 90.6524 11.1699 88.3809C10.5146 86.1049 9.86689 83.8188 9.39941 81.7646C8.93024 79.703 8.65085 77.9085 8.71289 76.6055C8.74395 75.9531 8.85894 75.4604 9.0498 75.125C9.23072 74.8071 9.48096 74.6243 9.83691 74.5693C10.1482 74.5214 10.3872 74.5557 10.5771 74.6357C10.7681 74.7163 10.9348 74.8539 11.083 75.0498C11.3124 75.3532 11.4829 75.7742 11.6221 76.2695L11.752 76.7881C12.5062 80.1465 13.3328 82.9828 14.1289 85.0557C14.5266 86.0912 14.9204 86.9461 15.2979 87.583C15.4866 87.9015 15.6758 88.1724 15.8643 88.3867C16.05 88.598 16.2512 88.7721 16.4688 88.8721C16.697 88.977 16.9515 89.0025 17.1982 88.8936C17.4305 88.791 17.603 88.592 17.7344 88.3604C17.9942 87.902 18.1731 87.1681 18.2852 86.1777C18.5114 84.1786 18.4833 80.947 18.1035 76.2617L17.1191 65.3369C16.9811 63.8525 17.5886 63.038 18.2129 62.7461C18.8533 62.4466 19.5504 62.6493 19.8467 63.2812C20.0426 63.6992 20.2291 64.3523 20.4053 65.2002C20.5801 66.0418 20.7399 67.0522 20.8906 68.1719C21.1922 70.4125 21.4535 73.0677 21.7207 75.6475C21.9872 78.2213 22.2604 80.7227 22.585 82.6377C22.747 83.5939 22.9238 84.4189 23.124 85.0381C23.224 85.347 23.3344 85.618 23.458 85.833C23.5617 86.0134 23.695 86.19 23.8721 86.3008L23.9512 86.3447C24.1621 86.4453 24.3998 86.4527 24.6133 86.3203C24.798 86.2056 24.9162 86.0141 24.9971 85.8291C25.1611 85.4537 25.261 84.8926 25.3232 84.2305C25.4493 82.8893 25.4352 80.9648 25.3574 78.8379C25.2795 76.7067 25.137 74.353 25.002 72.1455C24.8667 69.9346 24.7387 67.8732 24.6904 66.3174C24.6657 65.5196 24.6125 64.7829 24.5781 64.1406C24.5433 63.4899 24.5283 62.935 24.5723 62.4648C24.6163 61.9954 24.7169 61.6411 24.8916 61.374C25.0607 61.1155 25.3187 60.9088 25.7383 60.7676ZM31.4941 95.8613C30.4136 95.0205 28.8492 95.1258 27.6318 96.0039C27.0547 96.4203 26.6073 97.0694 26.2871 97.7568C26.135 98.0834 26.0089 98.4256 25.9092 98.7666C24.7192 96.4446 23.1872 95.4506 21.8066 95.5391C20.2179 95.6409 19.1344 97.1495 19.2705 99.0381C19.419 101.095 20.5271 103.14 21.9375 105.054C23.351 106.972 25.1083 108.81 26.6045 110.439L26.9297 110.793L27.1826 110.385C29.862 106.06 31.5869 103.076 32.29 100.801C33.0303 98.4057 32.5884 96.713 31.4941 95.8613Z" stroke="#FF5528" stroke-width="0.728109"/>
<path opacity="0.5" d="M183.413 60.1064C183.921 59.9062 184.492 59.971 184.971 60.3027C185.448 60.6338 185.855 61.2483 185.974 62.1777C186.776 68.4381 187.047 75.087 187.359 79.46C187.437 80.5509 187.519 81.5029 187.611 82.2695C187.703 83.0262 187.809 83.6342 187.947 84.0186C188.011 84.1944 188.108 84.407 188.282 84.5283C188.386 84.6005 188.519 84.6418 188.665 84.6172C188.799 84.5946 188.902 84.5232 188.976 84.4551C189.117 84.3241 189.235 84.1212 189.341 83.8916C189.451 83.6519 189.567 83.3417 189.688 82.9619C190.382 80.8011 190.927 76.1861 191.3 72.1484C191.487 70.1198 191.633 68.2218 191.732 66.8271C191.782 66.1298 191.82 65.5575 191.847 65.1582C191.86 64.9555 191.87 64.8059 191.877 64.6953C191.88 64.6415 191.883 64.6001 191.885 64.5723C191.885 64.5688 191.885 64.5655 191.885 64.5625C192.097 63.6439 192.781 63.217 193.431 63.2129C194.081 63.209 194.733 63.627 194.892 64.5254C195.611 68.5927 195.169 74.4453 194.721 80.1055C194.497 82.9237 194.273 85.6892 194.196 88.1338C194.12 90.5718 194.189 92.7259 194.567 94.3115C194.677 94.7696 194.792 95.1438 194.915 95.4375C195.036 95.7249 195.176 95.9665 195.354 96.1279C195.548 96.3044 195.793 96.389 196.059 96.3223C196.291 96.2637 196.484 96.1011 196.639 95.9268C196.952 95.5745 197.265 94.9968 197.582 94.3154C197.904 93.6241 198.248 92.7845 198.616 91.8828C199.357 90.0702 200.2 87.9937 201.187 86.2354C202.183 84.459 203.278 83.0971 204.481 82.6084C204.981 82.4054 205.66 82.4482 206.088 82.7002C206.292 82.8207 206.415 82.9739 206.46 83.1475C206.505 83.3212 206.488 83.5794 206.286 83.9404C205.669 85.0438 204.965 87.1558 204.189 89.7295C203.799 91.0243 203.387 92.4478 202.956 93.9355C202.525 95.4241 202.074 96.9782 201.604 98.5371C200.665 101.656 199.655 104.787 198.584 107.443C197.508 110.112 196.389 112.253 195.252 113.433C194.306 114.414 193.689 115.979 193.309 117.92C192.926 119.87 192.773 122.25 192.792 124.911C192.83 130.236 193.559 136.741 194.565 143.302C196.526 156.086 199.547 169.148 200.598 174.199L180.508 176.871C179.983 154.94 180.454 134.699 179.179 112.785L179.178 112.78C178.862 108.432 177.835 104.934 176.649 101.731C175.456 98.5096 174.133 95.6533 173.174 92.4775C172.62 90.6446 171.894 88.5682 171.177 86.4844C170.458 84.3962 169.747 82.2989 169.214 80.4092C168.679 78.5119 168.333 76.8564 168.329 75.6436C168.327 75.0365 168.411 74.5772 168.57 74.2607C168.721 73.9622 168.939 73.7852 169.26 73.7188C169.544 73.6601 169.763 73.6804 169.938 73.7441C170.115 73.8083 170.274 73.9249 170.419 74.0977C170.72 74.4553 170.934 75.013 171.119 75.6758C171.982 78.768 172.888 81.3708 173.729 83.2646C174.148 84.2104 174.557 84.9887 174.939 85.5654C175.131 85.8537 175.321 86.099 175.508 86.291C175.692 86.4801 175.891 86.6352 176.103 86.7197C176.325 86.8086 176.571 86.821 176.803 86.7041C177.021 86.5942 177.175 86.3956 177.288 86.1709C177.511 85.727 177.643 85.0315 177.7 84.1035C177.816 82.2287 177.635 79.2183 177.058 74.873V74.8721L175.62 64.7461C175.422 63.3784 175.946 62.6024 176.502 62.3066C177.074 62.0026 177.717 62.1563 178.016 62.7168C178.217 63.094 178.421 63.6907 178.625 64.4717C178.828 65.2464 179.025 66.1794 179.219 67.2148C179.606 69.2865 179.976 71.7459 180.348 74.1357C180.719 76.5198 181.093 78.8368 181.486 80.6055C181.683 81.4885 181.887 82.2496 182.104 82.8184C182.212 83.1019 182.328 83.3506 182.454 83.5469C182.575 83.7347 182.735 83.9197 182.949 84.0088C183.157 84.0952 183.388 84.0914 183.589 83.9521C183.761 83.8322 183.865 83.6428 183.932 83.4648C184.068 83.1034 184.134 82.573 184.16 81.9531C184.214 80.6965 184.109 78.9045 183.936 76.9277C183.761 74.9463 183.516 72.7603 183.285 70.7109C183.054 68.6585 182.837 66.7458 182.718 65.2998C182.657 64.5577 182.571 63.8732 182.509 63.2773C182.445 62.6732 182.405 62.1595 182.424 61.7217C182.442 61.2843 182.519 60.9535 182.666 60.7012C182.808 60.4579 183.034 60.2562 183.413 60.1064ZM190.451 92.4697C189.394 91.7304 187.93 91.9063 186.832 92.7871C186.31 93.2059 185.923 93.8356 185.656 94.4932C185.538 94.7862 185.44 95.091 185.365 95.3945C184.15 93.3238 182.682 92.4775 181.397 92.626C179.905 92.7986 178.963 94.2717 179.181 96.0332C179.418 97.9486 180.552 99.8046 181.957 101.521C183.366 103.24 185.091 104.869 186.562 106.314L186.904 106.651L187.136 106.23C189.424 102.077 190.89 99.213 191.438 97.0576C192.014 94.787 191.523 93.2191 190.451 92.4697Z" stroke="#FF5528" stroke-width="0.728109"/>
<path opacity="0.5" d="M117.557 5.8252C118.236 5.64237 118.958 5.80901 119.52 6.30078C120.08 6.79172 120.501 7.6269 120.519 8.80371C120.632 16.5988 120.04 24.7986 119.815 30.2031C119.759 31.5519 119.726 32.7294 119.733 33.6807C119.74 34.6221 119.786 35.3742 119.9 35.8545C119.953 36.0779 120.04 36.3286 120.215 36.4824C120.318 36.5725 120.454 36.6306 120.61 36.6221C120.755 36.6142 120.877 36.551 120.969 36.4834C121.146 36.3528 121.311 36.1321 121.472 35.8672C121.638 35.5926 121.821 35.2324 122.022 34.7852C123.169 32.2412 124.477 26.6646 125.497 21.7598C126.009 19.2978 126.451 16.9897 126.767 15.293C126.925 14.4446 127.051 13.7488 127.139 13.2627C127.183 13.016 127.216 12.8326 127.24 12.6982C127.252 12.6328 127.261 12.5828 127.268 12.5488C127.269 12.5401 127.27 12.5326 127.271 12.5264C127.673 11.3893 128.609 10.9368 129.446 11.0264C130.285 11.1163 131.06 11.7525 131.133 12.9199C131.45 18.0231 130.092 25.1538 128.756 32.0312C128.09 35.4584 127.43 38.8177 126.997 41.8037C126.565 44.7831 126.352 47.4255 126.594 49.4111C126.664 49.9857 126.752 50.4558 126.86 50.8271C126.967 51.1921 127.102 51.4942 127.285 51.7031C127.483 51.9287 127.745 52.0512 128.047 52.0107C128.316 51.9746 128.559 51.8151 128.769 51.627C129.191 51.2475 129.649 50.5916 130.133 49.7998C130.622 48.9986 131.161 48.0191 131.738 46.9639C132.899 44.8443 134.225 42.409 135.683 40.3838C137.153 38.3419 138.7 36.8002 140.275 36.3594C140.941 36.1733 141.794 36.3243 142.307 36.71C142.554 36.8965 142.701 37.12 142.735 37.3672C142.77 37.6143 142.702 37.9499 142.396 38.377C141.491 39.6358 140.339 42.1198 139.028 45.1719C138.37 46.7056 137.666 48.3938 136.931 50.1592C136.195 51.9254 135.426 53.7696 134.633 55.6172C133.047 59.3138 131.37 63.0169 129.686 66.1299C127.994 69.2552 126.318 71.7403 124.745 73.041C123.467 74.098 122.499 75.9129 121.764 78.2354C121.026 80.5671 120.507 83.4586 120.161 86.7236C119.469 93.2551 119.459 101.332 119.781 109.52C120.412 125.551 122.317 142.073 122.895 148.351L97.6895 148.839C100.096 121.818 103.492 97.0336 104.976 69.9414V69.9365C105.193 64.5685 104.421 60.1429 103.412 56.0537C102.399 51.9445 101.169 48.2449 100.433 44.2129C100.008 41.8892 99.4078 39.2429 98.8174 36.5859C98.2259 33.9243 97.6446 31.2498 97.2529 28.8545C96.8601 26.4519 96.6645 24.3641 96.8291 22.8633C96.9115 22.1122 97.0803 21.5444 97.3301 21.1621C97.569 20.7966 97.8844 20.5932 98.3154 20.5537C98.6849 20.5199 98.9674 20.5778 99.1904 20.6885C99.4144 20.7997 99.603 20.9768 99.7637 21.2188C100.094 21.7157 100.282 22.4454 100.417 23.2852C101.045 27.1961 101.794 30.5113 102.561 32.9463C102.944 34.1628 103.334 35.1699 103.721 35.9248C103.914 36.3021 104.11 36.6239 104.309 36.8799C104.505 37.1327 104.718 37.3405 104.951 37.4658C105.195 37.5965 105.469 37.64 105.742 37.5391C106.001 37.4434 106.206 37.2379 106.37 36.9863C106.695 36.4879 106.952 35.6667 107.15 34.5381C107.501 32.5469 107.695 29.4565 107.669 25.0908L107.645 23.1406L107.288 10.5186C107.234 8.78558 107.999 7.86785 108.764 7.56641C109.545 7.25854 110.366 7.54861 110.675 8.32812C110.873 8.82857 111.041 9.59723 111.184 10.585C111.325 11.5664 111.437 12.7409 111.531 14.0391C111.719 16.6362 111.83 19.7068 111.954 22.6895C112.078 25.6663 112.213 28.558 112.45 30.7793C112.568 31.8886 112.713 32.8456 112.898 33.5674C112.991 33.9276 113.096 34.2431 113.221 34.4941C113.341 34.7362 113.502 34.9665 113.729 35.0928C113.951 35.2156 114.204 35.2384 114.439 35.1113C114.645 35.0003 114.788 34.8007 114.893 34.5977C115.103 34.1862 115.256 33.5557 115.374 32.7998C115.613 31.2715 115.734 29.0634 115.796 26.6143C115.858 24.1605 115.861 21.4459 115.862 18.8994C115.864 16.35 115.863 13.9718 115.918 12.1797C115.946 11.2621 115.937 10.4136 115.943 9.67188C115.95 8.92171 115.971 8.27969 116.056 7.73828C116.14 7.19744 116.284 6.7871 116.511 6.48242C116.732 6.18604 117.054 5.9604 117.557 5.8252ZM110.586 45.6084C108.793 45.6126 107.456 47.2348 107.479 49.3936C107.503 51.7516 108.624 54.1692 110.107 56.4658C111.593 58.7667 113.479 61.0009 115.084 62.9805L115.387 63.3535L115.664 62.9619C119.051 58.1812 121.241 54.8802 122.207 52.3242C123.224 49.6353 122.831 47.6881 121.658 46.6533C120.499 45.63 118.721 45.635 117.275 46.5479C116.594 46.9785 116.039 47.6838 115.625 48.4463C115.406 48.8499 115.222 49.278 115.076 49.7041C113.875 46.8714 112.171 45.6048 110.586 45.6084Z" stroke="#FF5528" stroke-width="0.728109"/>
<path d="M176.747 9.13281C177.439 9.00482 178.144 9.22865 178.665 9.76367C179.185 10.2978 179.538 11.1635 179.461 12.3379C178.952 20.1172 177.707 28.2439 177.052 33.6133C176.888 34.9533 176.761 36.1244 176.692 37.0732C176.624 38.012 176.609 38.765 176.685 39.2529C176.72 39.4798 176.785 39.737 176.947 39.9043C177.042 40.0025 177.174 40.0711 177.331 40.0752C177.476 40.0789 177.602 40.0259 177.699 39.9658C177.886 39.8498 178.069 39.6429 178.25 39.3916C178.438 39.1311 178.649 38.7863 178.886 38.3564C180.232 35.912 181.981 30.458 183.39 25.6504C184.096 23.2374 184.722 20.9727 185.172 19.3066C185.397 18.4738 185.578 17.7901 185.704 17.3125C185.768 17.0709 185.816 16.8892 185.851 16.7578C185.868 16.6934 185.881 16.6438 185.89 16.6104C185.892 16.6034 185.892 16.5971 185.894 16.5918C186.384 15.4876 187.355 15.1111 188.184 15.2676C189.012 15.4243 189.734 16.1197 189.713 17.2891C189.622 22.4013 187.699 29.4007 185.817 36.1494C184.88 39.5124 183.954 42.8081 183.283 45.75C182.614 48.6855 182.192 51.303 182.274 53.3018C182.298 53.8801 182.348 54.3556 182.427 54.7344C182.504 55.1066 182.614 55.4177 182.78 55.6406C182.96 55.8815 183.212 56.0251 183.516 56.0088C183.786 55.9941 184.041 55.8543 184.265 55.6836C184.716 55.3391 185.225 54.7224 185.771 53.9717C186.322 53.212 186.937 52.2783 187.598 51.2725C188.924 49.2524 190.44 46.9306 192.055 45.0283C193.683 43.1104 195.349 41.6974 196.954 41.3838C197.632 41.2514 198.471 41.4701 198.951 41.8955C199.183 42.1012 199.311 42.3358 199.326 42.585C199.341 42.8341 199.247 43.1633 198.907 43.5645C197.905 44.7469 196.557 47.1304 195.007 50.0684C194.228 51.5446 193.393 53.172 192.519 54.873C191.644 56.5748 190.73 58.3515 189.792 60.1299C187.916 63.6881 185.949 67.2454 184.021 70.2139C182.085 73.194 180.216 75.5371 178.544 76.708C177.185 77.6596 176.075 79.3912 175.156 81.6475C174.234 83.9128 173.488 86.7545 172.882 89.9814C171.67 96.4367 171.014 104.487 170.682 112.674C170.03 128.704 170.61 145.325 170.685 151.629L145.521 150.104C150.078 123.361 155.442 98.9273 159.085 72.04V72.0352C159.73 66.7016 159.314 62.228 158.636 58.0713C157.954 53.8943 157.023 50.1083 156.611 46.0303C156.374 43.6802 155.987 40.9945 155.61 38.2988C155.233 35.5985 154.867 32.8866 154.668 30.4678C154.468 28.0412 154.441 25.9439 154.725 24.4609C154.867 23.7188 155.081 23.1668 155.36 22.8057C155.628 22.4604 155.958 22.2833 156.391 22.2783C156.762 22.2742 157.038 22.3543 157.252 22.4824C157.466 22.6112 157.64 22.8026 157.781 23.0566C158.07 23.5785 158.2 24.3211 158.268 25.1689C158.581 29.1175 159.063 32.4813 159.633 34.9697C159.917 36.213 160.226 37.2479 160.551 38.0312C160.713 38.4228 160.883 38.7592 161.061 39.0303C161.236 39.2979 161.432 39.5225 161.654 39.666C161.887 39.8159 162.157 39.8807 162.438 39.8018C162.703 39.727 162.924 39.5386 163.107 39.3008C163.471 38.8299 163.792 38.032 164.08 36.9229C164.661 34.6865 165.154 31.0027 165.482 25.6016C165.489 25.4922 166.131 13.0831 166.136 12.9922C166.22 11.2598 167.057 10.4065 167.843 10.167C168.646 9.92242 169.441 10.2765 169.687 11.0781C169.844 11.5927 169.951 12.3723 170.014 13.3682C170.076 14.3577 170.094 15.5374 170.084 16.8389C170.064 19.4427 169.93 22.5129 169.815 25.4961C169.701 28.4733 169.604 31.3665 169.663 33.5996C169.692 34.7148 169.761 35.6798 169.888 36.4141C169.951 36.7805 170.032 37.1031 170.136 37.3633C170.236 37.6141 170.377 37.8569 170.594 38.001C170.805 38.1413 171.055 38.1839 171.3 38.0762C171.514 37.982 171.673 37.7947 171.793 37.6006C172.036 37.2073 172.239 36.5916 172.417 35.8477C172.778 34.3434 173.074 32.1514 173.331 29.7148C173.588 27.2739 173.808 24.5685 174.013 22.0303C174.218 19.4889 174.409 17.118 174.606 15.3359C174.708 14.4235 174.767 13.5768 174.832 12.8379C174.898 12.0906 174.971 11.4528 175.099 10.9199C175.226 10.3875 175.402 9.98967 175.652 9.7041C175.896 9.4265 176.236 9.22741 176.747 9.13281ZM166.621 48.2324C164.833 48.0933 163.371 49.6032 163.221 51.7568C163.057 54.1093 163.981 56.6089 165.276 59.0166C166.574 61.4289 168.276 63.8067 169.718 65.9082L169.989 66.3037L170.297 65.9355C174.055 61.4407 176.501 58.3251 177.668 55.8545C178.896 53.2554 178.66 51.2833 177.574 50.1582C176.5 49.0456 174.729 48.9089 173.215 49.7031C172.501 50.0778 171.892 50.736 171.418 51.4629C171.167 51.8477 170.949 52.2598 170.77 52.6729C169.798 49.7536 168.201 48.3554 166.621 48.2324Z" stroke="#FF5528" stroke-width="0.728109"/>
<path opacity="0.7" d="M56.7305 24.8701C57.3215 24.414 58.052 24.2922 58.7188 24.5166C59.2116 24.6825 59.5194 24.9279 59.7217 25.2373C59.9296 25.5554 60.0476 25.9735 60.0986 26.5186C60.1497 27.0642 60.1318 27.7059 60.0918 28.4551C60.0522 29.1959 59.9904 30.0423 59.9619 30.96C59.9063 32.7521 59.7602 35.126 59.6045 37.6709C59.449 40.2127 59.2841 42.9221 59.1943 45.375C59.1048 47.8235 59.0887 50.0351 59.2334 51.5752C59.305 52.3369 59.4194 52.9748 59.6045 53.3984C59.6959 53.6076 59.8257 53.8159 60.0244 53.9395C60.2519 54.0808 60.5055 54.0739 60.7344 53.9648C60.9692 53.8528 61.1437 53.6326 61.2783 53.3984C61.418 53.1555 61.5428 52.8471 61.6572 52.4932C61.8865 51.7841 62.09 50.8382 62.2764 49.7383C62.6496 47.5357 62.9636 44.6579 63.2705 41.6943C63.578 38.7249 63.8792 35.6666 64.2266 33.0859C64.4002 31.7961 64.5845 30.6309 64.7861 29.6602C64.9891 28.6832 65.2052 27.9267 65.4336 27.4395C65.7895 26.6804 66.6273 26.4414 67.3877 26.7969C68.132 27.1449 68.8394 28.1083 68.6787 29.835C68.6701 29.9266 67.5522 42.3221 67.5449 42.4111C67.1077 47.8043 67.0752 51.5204 67.335 53.8164C67.4638 54.9551 67.6696 55.7901 67.9629 56.3076C68.111 56.5689 68.3022 56.7869 68.5547 56.8984C68.8216 57.0163 69.0982 56.9905 69.3496 56.875C69.5903 56.7644 69.8161 56.5693 70.0273 56.3291C70.2412 56.0858 70.4568 55.7767 70.6729 55.4121C71.1052 54.6825 71.5564 53.7014 72.0137 52.5107C72.9289 50.1277 73.8811 46.8656 74.749 43.001C74.9355 42.171 75.1693 41.4543 75.5293 40.9785C75.7044 40.747 75.9025 40.5816 76.1328 40.4844C76.3623 40.3875 76.6486 40.3477 77.0156 40.4043C77.4433 40.4703 77.745 40.6918 77.9609 41.0713C78.1868 41.4682 78.3205 42.045 78.3564 42.7998C78.4282 44.308 78.1048 46.3808 77.5645 48.7549C77.0259 51.1213 76.2798 53.7541 75.5254 56.374C74.7722 58.9897 74.0102 61.5946 73.4434 63.8877C72.4598 67.8667 71.004 71.4826 69.7393 75.5215C68.4806 79.5408 67.4372 83.911 67.3232 89.2822V89.2871C67.1342 116.419 68.9934 141.365 69.7295 168.483L44.6025 166.442C45.566 160.213 48.4872 143.839 50.1055 127.877C50.932 119.725 51.4204 111.662 51.1318 105.101C50.9876 101.82 50.6486 98.9021 50.0557 96.5293C49.4651 94.166 48.6112 92.295 47.4004 91.1611C45.9105 89.766 44.3901 87.1827 42.8945 83.959C41.405 80.7481 39.9606 76.9485 38.6055 73.1611C37.9281 71.2682 37.2732 69.3805 36.6475 67.5723C36.022 65.7649 35.4249 64.0362 34.8623 62.4648C33.7425 59.3374 32.745 56.7867 31.9199 55.4746C31.64 55.0294 31.5937 54.6908 31.6436 54.4463C31.6935 54.2017 31.8526 53.9873 32.1113 53.8164C32.6464 53.463 33.5087 53.3659 34.1611 53.5928C35.7062 54.13 37.1558 55.7639 38.4971 57.8926C39.8272 60.0038 41 62.5162 42.0273 64.7031C42.5389 65.792 43.016 66.803 43.4551 67.6328C43.889 68.4529 44.3055 69.1352 44.7041 69.54C44.9018 69.7407 45.1345 69.9151 45.4004 69.9678C45.6991 70.0269 45.9681 69.9201 46.1797 69.707C46.3754 69.5099 46.5294 69.2179 46.6582 68.8604C46.7893 68.4964 46.9064 68.0322 47.0117 67.4629C47.3755 65.4959 47.3258 62.8451 47.0781 59.8447C46.8298 56.8377 46.3792 53.4441 45.9258 49.9824C45.0158 43.0355 44.1 35.8347 44.7314 30.7607C44.8758 29.6001 45.6876 29.0137 46.5303 28.9756C47.3714 28.9376 48.277 29.4468 48.6074 30.6064C48.6082 30.6127 48.6103 30.6201 48.6113 30.6289C48.6155 30.6633 48.6211 30.7141 48.6289 30.7803C48.6448 30.9154 48.6672 31.1014 48.6963 31.3496C48.7539 31.8402 48.8371 32.543 48.9424 33.3994C49.153 35.1124 49.4515 37.443 49.8105 39.9316C50.526 44.8897 51.4879 50.5356 52.4756 53.1455C52.6494 53.6047 52.8099 53.9763 52.959 54.2607C53.1027 54.535 53.2543 54.765 53.4229 54.9062C53.5103 54.9794 53.6282 55.0506 53.7725 55.0674C53.9285 55.0854 54.0678 55.0349 54.1758 54.9512C54.36 54.8084 54.4606 54.5634 54.5273 54.3438C54.6708 53.8714 54.7632 53.1236 54.8281 52.1846C54.8938 51.2356 54.9337 50.0585 54.9609 48.709C55.07 43.3009 54.985 35.0799 55.5791 27.3066C55.6688 26.133 56.1405 25.3255 56.7305 24.8701ZM56.4883 65.1797C55.1017 64.1795 53.3278 64.0639 52.1074 65.0137C50.8734 65.9742 50.362 67.8941 51.2109 70.6406C52.0178 73.2515 53.9994 76.6808 57.085 81.6611L57.3379 82.0693L57.6621 81.7158C59.3857 79.8389 61.4072 77.7255 63.0322 75.5205C64.6542 73.3197 65.9222 70.9752 66.0918 68.623C66.2468 66.4699 65.0132 64.7692 63.2236 64.6543C61.6416 64.553 59.8618 65.7119 58.4883 68.4658C58.369 68.0314 58.2126 67.5924 58.0186 67.1758C57.6522 66.3892 57.1422 65.6515 56.4883 65.1797Z" stroke="#FF5528" stroke-width="0.728109"/>
<path d="M79.9453 54.8887C80.3919 54.4427 80.99 54.2629 81.5713 54.3789C82.0043 54.4654 82.2864 54.6378 82.4863 54.8721C82.6929 55.1142 82.8374 55.4522 82.9404 55.9111C83.0436 56.3707 83.0984 56.9211 83.1465 57.5693C83.1939 58.2093 83.2349 58.9456 83.3115 59.7383C83.4609 61.284 83.5958 63.34 83.7422 65.5449C83.8883 67.7468 84.0453 70.0948 84.2383 72.2139C84.4309 74.3283 84.6613 76.2337 84.9561 77.5449C85.1016 78.1923 85.2705 78.735 85.4805 79.0859C85.5839 79.2588 85.7254 79.4331 85.9229 79.5234C86.1514 79.6279 86.3866 79.5904 86.583 79.4639C86.785 79.3337 86.9156 79.1138 87.0068 78.8945C87.1019 78.666 87.1756 78.3838 87.2354 78.0654C87.3551 77.4272 87.4267 76.5889 87.4658 75.6221C87.5442 73.6858 87.497 71.1757 87.4346 68.5947C87.372 66.0079 87.2931 63.3474 87.3076 61.0918C87.3149 59.9644 87.3458 58.944 87.4121 58.0889C87.479 57.2273 87.5808 56.5575 87.7217 56.1191C87.9347 55.4569 88.5983 55.1688 89.2695 55.3838C89.8831 55.5804 90.541 56.233 90.6631 57.5391L90.6797 57.8086C90.6835 57.9185 91.0862 68.6664 91.0898 68.7441C91.3078 73.4287 91.6898 76.6303 92.167 78.5801C92.4034 79.5459 92.6739 80.2501 92.9893 80.6709C93.1487 80.8835 93.3449 81.0587 93.5879 81.1309C93.846 81.2074 94.0949 81.1503 94.3076 81.0176C94.5104 80.891 94.6876 80.6926 94.8447 80.46C95.0041 80.2239 95.1573 79.9309 95.3037 79.5918C95.5964 78.9137 95.8774 78.0182 96.1396 76.9434C96.6647 74.791 97.1236 71.8792 97.4443 68.46C97.5132 67.7267 97.6344 67.0941 97.8857 66.6553C98.0075 66.4428 98.1545 66.2855 98.333 66.1816C98.5107 66.0783 98.7434 66.0144 99.0576 66.0225C99.4165 66.0318 99.6871 66.1812 99.9062 66.4727C100.137 66.7803 100.314 67.2531 100.428 67.8945C100.654 69.1761 100.604 70.9874 100.401 73.0869C100.199 75.1789 99.8483 77.523 99.4883 79.8584C99.1289 82.1892 98.7603 84.5131 98.5254 86.5479C98.1182 90.075 97.2665 93.3368 96.623 96.9531C95.9832 100.549 95.5665 104.426 96.0605 109.062V109.066C98.8832 132.393 103.224 153.621 106.841 176.827L85.124 177.834C85.2694 172.335 85.9717 157.984 85.6064 144.127C85.4193 137.027 84.9516 130.041 83.9805 124.429C83.495 121.623 82.881 119.149 82.1084 117.17C81.3394 115.2 80.3948 113.676 79.2178 112.826C77.7917 111.797 76.2057 109.751 74.5654 107.145C72.9326 104.55 71.2722 101.445 69.6904 98.3389C68.9 96.7867 68.1304 95.2362 67.3936 93.751C66.6569 92.2662 65.9527 90.8448 65.2959 89.5557C63.9897 86.9921 62.8489 84.9042 61.9912 83.8623C61.7073 83.5173 61.6367 83.2437 61.6514 83.0439C61.6662 82.8442 61.7707 82.6535 61.9668 82.4844C62.3756 82.1322 63.0909 81.9559 63.6631 82.0762C65.0326 82.3641 66.4492 83.5968 67.8359 85.2783C69.2096 86.9439 70.4928 88.9717 71.6172 90.7393C72.1766 91.6187 72.6984 92.4364 73.168 93.1025C73.6313 93.7598 74.0684 94.3063 74.4619 94.6152C74.6567 94.7682 74.8851 94.899 75.1338 94.916C75.4158 94.9352 75.6508 94.8049 75.8174 94.5879C75.9704 94.3885 76.0716 94.1115 76.1436 93.7871C76.217 93.4562 76.267 93.0414 76.2949 92.5391C76.3913 90.8013 76.0561 88.523 75.5127 85.9707C74.9679 83.4119 74.2064 80.5434 73.4355 77.6182C71.8878 71.7445 70.3098 65.6618 70.2939 61.2383C70.2906 60.2494 70.906 59.6753 71.6035 59.5537C72.3002 59.4323 73.1127 59.7589 73.5156 60.6982C73.5165 60.7018 73.5184 60.7056 73.5195 60.71C73.5269 60.7389 73.5368 60.782 73.5508 60.8379C73.5797 60.954 73.618 61.1082 73.6709 61.3203C73.7744 61.7357 73.9236 62.3301 74.1084 63.0547C74.4781 64.5041 74.9914 66.4751 75.5742 68.5752C76.7347 72.757 78.1847 77.511 79.3242 79.6514C79.5246 80.0278 79.7042 80.3312 79.8652 80.5615C80.0198 80.7827 80.1806 80.9709 80.3496 81.0791C80.4374 81.1352 80.555 81.1871 80.6934 81.1855C80.844 81.1838 80.9701 81.119 81.0615 81.0273C81.2157 80.8727 81.2773 80.6373 81.3105 80.4404C81.3828 80.0126 81.3795 79.355 81.332 78.541C81.2839 77.7168 81.1887 76.6994 81.0635 75.5361C80.5616 70.8733 79.5834 63.8188 79.2383 57.0732C79.1867 56.066 79.4995 55.3339 79.9453 54.8887ZM89.8691 88.2891C88.4917 88.3767 87.101 89.5545 86.2178 92.002C86.0761 91.678 85.9092 91.3558 85.7178 91.0527C85.3137 90.4129 84.7881 89.8272 84.1641 89.4883C82.8478 88.7735 81.2863 88.8675 80.3232 89.8369C79.348 90.8188 79.125 92.5498 80.1611 94.8262C81.1453 96.9882 83.2312 99.7232 86.4307 103.663L86.7334 104.036L87.0107 103.645C88.2849 101.843 89.7915 99.7999 90.9473 97.7227C92.1004 95.65 92.9382 93.4852 92.8242 91.4307C92.7194 89.5442 91.4549 88.1884 89.8691 88.2891Z" stroke="#FF5528" stroke-width="0.728109"/>
<path opacity="0.8" d="M214.487 84.3311C214.881 84.0805 215.338 84.0464 215.736 84.2217C216.038 84.3543 216.207 84.5219 216.311 84.7158C216.419 84.9189 216.472 85.1856 216.473 85.5459C216.474 85.9068 216.424 86.3304 216.352 86.832C216.28 87.3253 216.187 87.8952 216.111 88.5127V88.5137C215.965 89.7146 215.721 91.3016 215.461 93.0059C215.201 94.7072 214.926 96.5225 214.716 98.1699C214.506 99.8129 214.36 101.307 214.363 102.361C214.365 102.88 214.403 103.333 214.508 103.648C214.559 103.803 214.644 103.978 214.799 104.095C214.98 104.232 215.194 104.243 215.387 104.172C215.585 104.098 215.733 103.937 215.843 103.78C215.958 103.616 216.065 103.408 216.165 103.173C216.366 102.702 216.563 102.071 216.756 101.34C217.143 99.8755 217.53 97.9532 217.917 95.9775C218.305 93.9963 218.693 91.9588 219.084 90.2451C219.279 89.3887 219.474 88.6189 219.668 87.9814C219.864 87.3381 220.051 86.8525 220.228 86.5508C220.476 86.1263 220.978 86.0215 221.421 86.2793C221.822 86.5129 222.204 87.0871 222.08 88.0771L222.049 88.2803C222.034 88.3593 220.536 96.5805 220.519 96.6777C219.895 100.283 219.645 102.793 219.681 104.366C219.698 105.144 219.785 105.739 219.961 106.128C220.05 106.325 220.18 106.509 220.374 106.616C220.581 106.731 220.805 106.728 221.007 106.656C221.197 106.589 221.375 106.459 221.538 106.305C221.704 106.147 221.873 105.946 222.044 105.71C222.385 105.238 222.752 104.599 223.134 103.822C223.899 102.267 224.74 100.123 225.561 97.5703C225.736 97.0246 225.932 96.5779 226.185 96.2998C226.306 96.1668 226.432 96.081 226.569 96.0371C226.706 95.9936 226.879 95.983 227.104 96.0391C227.351 96.1002 227.513 96.2421 227.621 96.4805C227.738 96.7372 227.793 97.1123 227.771 97.6143C227.729 98.6168 227.389 99.979 226.881 101.543C226.375 103.1 225.714 104.824 225.046 106.542C224.38 108.256 223.707 109.966 223.185 111.478C222.281 114.093 221.088 116.423 219.985 119.077C218.891 121.712 217.917 124.601 217.512 128.225L217.511 128.23C215.734 146.442 215.461 163.321 214.311 181.563L197.774 178.702C198.829 174.482 201.758 163.739 203.801 153.192C204.854 147.753 205.676 142.349 205.882 137.905C205.985 135.684 205.935 133.69 205.679 132.046C205.424 130.411 204.959 129.072 204.19 128.21C203.289 127.198 202.429 125.386 201.619 123.126C200.814 120.879 200.074 118.237 199.393 115.605C199.052 114.291 198.727 112.98 198.416 111.725C198.105 110.47 197.808 109.27 197.524 108.177C196.962 106.007 196.443 104.215 195.961 103.268C195.809 102.969 195.808 102.77 195.846 102.646C195.883 102.521 195.978 102.409 196.142 102.32C196.489 102.134 197.036 102.119 197.431 102.298V102.299C198.398 102.736 199.259 103.89 200.031 105.403C200.794 106.898 201.428 108.653 201.987 110.189C202.265 110.953 202.525 111.666 202.771 112.255C203.014 112.833 203.258 113.333 203.514 113.645C203.64 113.798 203.805 113.951 204.015 114.013C204.256 114.084 204.484 114.014 204.664 113.862C204.827 113.725 204.957 113.519 205.068 113.28C205.183 113.035 205.292 112.723 205.398 112.343C205.768 111.025 205.896 109.224 205.912 107.188C205.928 105.145 205.832 102.83 205.737 100.473C205.548 95.735 205.372 90.8494 206.103 87.4902C206.258 86.7756 206.788 86.467 207.302 86.4902C207.815 86.5134 208.345 86.8707 208.488 87.6133C208.488 87.6142 208.489 87.6152 208.489 87.6162C208.49 87.6393 208.491 87.6738 208.492 87.7188C208.495 87.8102 208.497 87.9378 208.502 88.1064C208.511 88.4404 208.524 88.9188 208.543 89.502C208.58 90.6684 208.639 92.256 208.729 93.9541C208.909 97.3315 209.213 101.206 209.723 103.038C209.812 103.36 209.899 103.625 209.984 103.832C210.066 104.028 210.161 104.211 210.283 104.333C210.347 104.397 210.441 104.468 210.567 104.494C210.705 104.523 210.833 104.489 210.934 104.425C211.1 104.318 211.195 104.128 211.254 103.982C211.385 103.659 211.494 103.149 211.595 102.521C211.697 101.884 211.796 101.092 211.896 100.185C212.3 96.5454 212.743 91.0127 213.616 85.8203C213.744 85.0634 214.095 84.581 214.487 84.3311ZM211.881 111.263C210.979 110.479 209.734 110.274 208.801 110.874C207.853 111.483 207.394 112.807 207.803 114.731C208.191 116.556 209.323 119 211.095 122.536L211.311 122.966L211.665 122.643C212.937 121.487 214.433 120.181 215.667 118.79C216.897 117.403 217.912 115.881 218.175 114.274C218.418 112.79 217.669 111.491 216.388 111.292C215.313 111.125 214.078 111.77 213.008 113.38C212.959 113.167 212.897 112.955 212.823 112.749C212.621 112.187 212.313 111.638 211.881 111.263Z" stroke="#FF5528" stroke-width="0.728109"/>
<path opacity="0.8" d="M142.543 51.5684C143.096 51.2317 143.736 51.1974 144.288 51.4541C144.698 51.645 144.938 51.8844 145.081 52.167C145.229 52.4589 145.292 52.8311 145.283 53.3125C145.275 53.7945 145.197 54.3552 145.088 55.0107C144.981 55.6579 144.844 56.3985 144.729 57.2041C144.504 58.7755 144.142 60.85 143.756 63.0752C143.37 65.2972 142.96 67.6664 142.641 69.8174C142.322 71.964 142.091 73.9123 142.067 75.2852C142.056 75.9631 142.093 76.5417 142.217 76.9395C142.278 77.1356 142.375 77.3407 142.548 77.4766C142.747 77.6334 142.987 77.6528 143.21 77.5752C143.439 77.4954 143.621 77.3105 143.764 77.1152C143.913 76.9119 144.054 76.6502 144.19 76.3486C144.463 75.7442 144.736 74.929 145.008 73.9785C145.553 72.0748 146.11 69.5706 146.671 66.9922C147.233 64.4081 147.797 61.7466 148.355 59.5098C148.635 58.3919 148.91 57.3852 149.183 56.5518C149.457 55.7121 149.72 55.0702 149.966 54.668C150.34 54.0573 151.074 53.9312 151.692 54.3086C152.295 54.6768 152.819 55.5738 152.512 57.0645C152.495 57.1442 150.3 67.9328 150.282 68.0244C149.369 72.7295 148.976 76.001 148.979 78.0518C148.981 79.0678 149.08 79.8308 149.291 80.3232C149.398 80.5721 149.549 80.7918 149.771 80.9209C150.007 81.0579 150.266 81.0605 150.508 80.9805C150.738 80.9041 150.96 80.7512 151.172 80.5586C151.387 80.3631 151.609 80.1099 151.836 79.8086C152.29 79.2061 152.785 78.3842 153.305 77.3799C154.345 75.3694 155.504 72.5894 156.646 69.2715C156.892 68.5596 157.165 67.9586 157.521 67.582C157.694 67.3996 157.879 67.2783 158.083 67.2178C158.286 67.1576 158.534 67.1495 158.845 67.2334C159.202 67.3298 159.437 67.5453 159.585 67.8896C159.741 68.2526 159.803 68.7665 159.761 69.4316C159.677 70.7603 159.189 72.5485 158.481 74.585C157.776 76.614 156.862 78.8575 155.941 81.0898C155.022 83.3181 154.096 85.537 153.372 87.501C152.117 90.9061 150.484 93.9413 148.973 97.377C147.47 100.794 146.122 104.542 145.495 109.265L145.494 109.27C142.672 133.12 141.863 155.252 139.857 179.176L118.028 174.935C119.497 169.515 123.659 155.424 126.64 141.566C128.166 134.471 129.386 127.42 129.775 121.612C129.97 118.709 129.957 116.104 129.667 113.953C129.378 111.812 128.808 110.072 127.846 108.946C126.677 107.579 125.594 105.163 124.594 102.179C123.598 99.2081 122.698 95.7233 121.876 92.2568C121.465 90.5244 121.074 88.7985 120.7 87.1455C120.327 85.4934 119.97 83.9131 119.629 82.4746C118.95 79.6132 118.321 77.2652 117.721 76.0244C117.521 75.6119 117.516 75.3204 117.58 75.123C117.644 74.9256 117.796 74.7601 118.033 74.6387C118.526 74.3863 119.281 74.3841 119.822 74.6426C121.116 75.26 122.226 76.8284 123.198 78.833C124.161 80.8189 124.946 83.1426 125.637 85.1689C125.98 86.1775 126.302 87.1159 126.607 87.8906C126.909 88.6549 127.211 89.3015 127.526 89.7021C127.683 89.9005 127.877 90.084 128.117 90.1602C128.39 90.2463 128.652 90.1751 128.868 90.001C129.067 89.8409 129.233 89.5914 129.383 89.2871C129.535 88.9768 129.684 88.5778 129.833 88.0859C130.348 86.3843 130.564 84.041 130.64 81.375C130.716 78.7025 130.652 75.6703 130.592 72.5791C130.471 66.3727 130.371 59.9501 131.422 55.5518C131.658 54.5647 132.412 54.1407 133.138 54.1885C133.861 54.2361 134.591 54.756 134.768 55.7842C134.768 55.7901 134.768 55.7976 134.769 55.8066C134.769 55.8372 134.769 55.8824 134.77 55.9414C134.77 56.0652 134.771 56.2243 134.772 56.4492C134.775 56.8868 134.779 57.5139 134.788 58.2783C134.806 59.807 134.841 61.8881 134.913 64.1143C135.057 68.5476 135.351 73.6172 135.966 76.0166C136.074 76.4385 136.179 76.7827 136.283 77.0498C136.383 77.3065 136.497 77.5307 136.638 77.6777C136.711 77.7541 136.813 77.8338 136.949 77.8652C137.097 77.8993 137.236 77.8659 137.348 77.7979C137.536 77.6829 137.653 77.4657 137.733 77.2783C137.908 76.8718 138.063 76.2185 138.212 75.3984C138.363 74.5684 138.514 73.5352 138.67 72.3496C139.296 67.5979 140.025 60.3552 141.31 53.5723C141.502 52.5576 141.991 51.9044 142.543 51.5684ZM138.388 86.9609C137.255 85.9353 135.685 85.6536 134.498 86.3818C133.297 87.1193 132.658 88.7809 133.138 91.29C133.594 93.6735 135.005 96.8921 137.232 101.577L137.438 102.011L137.801 101.695C139.501 100.213 141.489 98.5486 143.138 96.7646C144.783 94.9845 146.135 93.0375 146.517 90.9717C146.867 89.0758 145.94 87.4298 144.347 87.1484C142.959 86.9034 141.292 87.7397 139.822 89.9688C139.76 89.6064 139.67 89.2393 139.551 88.8857C139.304 88.1536 138.924 87.4468 138.388 86.9609Z" stroke="#FF5528" stroke-width="0.728109"/>
</g>
</svg>
