<svg width="61" height="171" viewBox="0 0 61 171" fill="none" xmlns="http://www.w3.org/2000/svg">
<path d="M32.7295 46.1029C32.9796 41.4771 32.2302 21.1141 32.2302 16.4729C32.2302 15.848 25.2287 13.3472 20.9777 13.3472C15.1781 13.3472 12.9771 14.473 8.22565 16.2233C8.22565 28.5151 7.78148 41.535 8.60094 47.1036C8.60094 47.1036 13.6014 55.1053 16.6015 58.8554C18.8521 59.4809 23.8526 59.1051 24.1028 58.7304C24.8534 58.6047 32.6754 47.1097 32.7295 46.1029Z" fill="#82B6E0"/>
<path d="M21.182 23.3573C19.2185 26.7233 14.7327 33.8879 15.4304 38.3654C16.4135 44.6758 22.0235 43.6933 24.8285 41.1688C28.475 37.8033 23.2861 27.4248 21.3231 23.2173" fill="#FEFFFA"/>
<path d="M59.933 163.607C59.598 161.404 58.1955 159.875 56.3097 159.192C56.7428 152.654 55.7679 145.961 48.0864 144.937C41.4161 144.048 33.6387 146.898 27.724 142.815C22.6116 139.285 21.0476 131.779 20.2905 126.053C19.4368 119.591 19.6077 112.992 20.1433 106.502C21.0036 106.556 21.8649 106.604 22.7273 106.617C23.4801 106.629 24.1023 105.981 24.105 105.239C24.1375 95.7991 24.935 86.3761 24.6699 76.9339C25.863 76.9449 27.0528 76.973 28.2381 77.0419C29.0664 77.0904 29.5007 76.5156 29.5558 75.8797C29.5905 75.7573 29.6153 75.6273 29.6158 75.4807C29.6257 73.0846 29.7123 70.7034 29.5177 68.3178C30.0137 67.5672 29.6439 66.1669 28.42 66.0225C28.3164 66.0104 28.2128 66.0054 28.1086 65.9939C32.6247 60.7189 36.6526 54.9557 40.3669 49.1087C40.4595 48.9616 40.5135 48.8177 40.5471 48.6756C40.622 48.5202 40.6738 48.3449 40.6887 48.1438C41.0695 42.854 40.6154 37.4038 40.4677 32.1123C40.266 24.8777 40.0484 17.6332 39.5706 10.4102C39.4725 8.93381 39.618 6.88268 38.922 5.52262C38.5307 4.75882 37.3844 4.43368 36.6592 4.13224C34.7409 3.33483 32.7724 2.66857 30.794 2.03759C26.7568 0.749157 22.9285 -0.300656 18.678 0.0784873C12.593 0.621302 6.80219 2.73911 1.01199 4.54721C0.431697 4.72851 -0.0108202 5.24873 0.000201451 5.87586C0.252045 20.6922 -0.191584 35.5152 0.813587 50.3117C0.82516 50.4776 0.865945 50.6225 0.918849 50.7581C0.929871 50.9681 0.9927 51.188 1.13819 51.4128C4.39232 56.4144 7.73131 61.4055 11.5316 66.0159C11.4048 66.0175 11.2786 66.0219 11.1519 66.0231C10.5804 66.0269 10.1952 66.3168 9.99184 66.7053C9.39998 66.9384 8.92772 67.5203 9.09084 68.3156C9.53887 70.5 8.94424 72.8223 9.24679 75.0514C9.23852 75.3209 9.3063 75.5816 9.46225 75.7959C9.67993 76.1393 10.0392 76.2908 10.42 76.2897C11.7333 76.5272 13.0553 76.6788 14.384 76.7747C14.3768 76.8331 14.3663 76.8893 14.3663 76.9526C14.3658 86.2615 14.357 95.5709 13.9988 104.874C13.9695 105.633 14.6479 106.24 15.3765 106.251C16.0504 106.262 16.7227 106.293 17.3956 106.331C16.3816 118.058 15.8217 132.875 23.4547 142.511C27.2666 147.325 32.8524 147.938 38.577 147.634C42.4059 147.431 46.4916 146.999 50.1866 148.258C54.1588 149.61 53.8926 155.189 53.5873 158.88C53.4743 158.923 53.3718 158.978 53.2831 159.047C49.6906 160.225 47.0686 163.728 48.6816 167.489C49.9496 170.441 54.2773 171.895 57.0437 170.414C59.3748 169.168 60.3078 166.068 59.933 163.607ZM11.8385 73.7481C11.7178 72.0965 11.9967 70.4207 11.8925 68.7652C16.8594 68.6892 21.828 68.245 26.7844 68.6297C26.9177 70.4945 26.8907 72.3583 26.8703 74.2281C21.8809 74.0672 16.7701 74.5174 11.8385 73.7481ZM36.4845 6.91795C36.3842 6.74712 36.419 6.65178 36.4845 6.91795V6.91795ZM3.55413 50.0786C2.59194 35.6943 2.98486 21.2852 2.76994 6.88214C7.99584 5.22614 13.2024 3.43953 18.6774 2.83445C22.6717 2.39303 26.2757 3.51393 30.0617 4.69489C31.7546 5.22283 33.431 5.80642 35.0848 6.44678C35.5736 6.6358 36.0514 6.84852 36.5187 7.08328C36.5198 7.09099 36.5209 7.0943 36.5225 7.10257C36.8642 9.1074 36.873 11.2125 36.9849 13.2383C37.3618 20.0783 37.5735 26.9288 37.7575 33.7765C37.8821 38.3968 38.2496 43.1466 37.9526 47.7724C34.0708 53.8789 29.8611 59.9011 25.0595 65.3248C24.9355 65.4648 24.8528 65.6125 24.7939 65.7618C21.4472 65.6401 18.0961 65.8158 14.7438 65.9354C14.7124 65.6819 14.6105 65.4257 14.4088 65.1887C10.3837 60.472 6.93225 55.2704 3.55413 50.0786ZM16.7993 103.549C17.1096 94.6875 17.1212 85.8201 17.1217 76.9532C17.1217 76.9361 17.1173 76.9218 17.1168 76.9053C18.7133 76.946 20.3147 76.9383 21.915 76.9323C22.1669 85.8989 21.467 94.849 21.3673 103.812C19.8441 103.741 18.3225 103.622 16.7993 103.549ZM56.2705 167.532C55.1546 168.794 53.5906 168.257 52.3578 167.48C49.3892 165.607 51.5875 162.449 54.1511 161.655C54.2255 161.632 54.2894 161.6 54.3544 161.569C57.3352 161.819 58.1878 165.365 56.2705 167.532Z" fill="#82B6E0"/>
</svg>
