<svg width="236" height="418" viewBox="0 0 236 418" fill="none" xmlns="http://www.w3.org/2000/svg">
<path d="M-444.609 -106.352L-437.996 -103.707L-426.092 -99.7387L-418.156 -96.7627L-412.204 -93.4557L-404.929 -87.5037L-400.63 -83.8667L-396.662 -81.2217L-389.057 -77.2537L-384.758 -75.6007L-381.121 -73.9477L-377.814 -72.6247V-73.2857L-377.153 -74.9387L-377.021 -75.0047L-376.525 -76.0797L-376.492 -76.2617L-376.248 -76.6797L-376.208 -76.7657L-376.161 -76.9227L-376.114 -76.9697L-375.831 -77.5837L-374.949 -78.9067L-374.177 -80.2297L-374.012 -80.3127L-373.847 -80.5607L-373.186 -82.2137H-373.847L-377.484 -84.5287L-381.783 -87.8357L-384.098 -90.4807L-384.718 -91.5137L-384.759 -91.4727L-386.082 -93.7877L-388.066 -98.0867L-390.711 -99.0787L-392.034 -99.7397L-394.679 -101.063L-395.34 -101.394L-397.434 -102.717L-399.638 -104.04L-400.655 -104.752L-401.622 -105.362V-105.428L-402.343 -105.933L-402.614 -106.023L-405.259 -107.346L-405.335 -107.497L-410.55 -109.991L-412.865 -111.975L-413.196 -113.628H-411.543L-407.906 -111.975L-401.623 -108.999L-393.832 -106.312L-391.567 -105.809L-391.111 -105.923L-392.034 -108.999L-391.703 -111.314L-390.711 -113.298L-390.38 -113.959L-389.057 -115.502L-388.726 -115.943L-388.666 -115.958L-388.395 -116.274L-385.816 -119.845L-383.876 -122.593L-382.113 -125.532L-382.444 -127.185L-385.089 -133.798V-135.782L-384.891 -135.98L-384.759 -137.435L-387.735 -138.427L-394.348 -141.072L-403.606 -145.04L-408.169 -147.024H-408.235L-420.139 -152.315L-420.5 -152.585L-425.099 -154.629L-430.72 -156.613L-437.333 -156.944L-437.994 -157.275L-439.978 -158.267L-441.631 -160.251L-441.962 -161.904L-440.97 -162.896L-440.255 -163.209L-440.309 -163.227L-435.68 -165.211L-433.365 -165.542L-433.034 -165.211V-162.896L-432.373 -162.235L-429.728 -160.912L-425.76 -160.251L-419.477 -159.259L-411.21 -158.267L-405.589 -157.275L-398.645 -156.283L-390.709 -154.96L-380.458 -152.976L-372.853 -151.323L-364.256 -149.67L-357.312 -147.686L-343.094 -143.057L-336.481 -140.412L-331.521 -138.097L-325.238 -134.79L-323.254 -134.459V-135.451L-323.915 -137.104L-324.246 -138.757H-323.254L-321.27 -137.021L-319.617 -135.781L-316.972 -134.017L-314.327 -132.474L-312.674 -132.143L-313.666 -138.426V-143.717L-313.335 -145.04L-312.343 -147.685L-310.69 -148.016L-308.375 -145.04L-306.722 -143.387L-304.077 -142.064L-300.77 -141.733L-300.109 -142.725L-299.778 -147.024L-299.117 -150.331L-297.794 -150.662L-296.802 -149.009L-294.487 -147.686L-292.503 -147.355L-291.511 -148.347L-291.18 -151.323L-290.188 -151.984H-288.204L-286.551 -152.976L-284.567 -153.968L-284.898 -155.291L-285.559 -156.944L-287.543 -157.605L-292.834 -160.581L-297.133 -163.557L-300.77 -165.872L-305.069 -168.517L-309.037 -170.17L-308.376 -167.855V-165.54L-310.029 -163.887H-312.344L-313.336 -164.218L-314.989 -165.871V-168.186L-314.099 -169.254L-313.997 -169.508L-313.844 -169.559L-313.335 -170.169L-309.367 -171.161V-171.492L-312.012 -173.807L-315.98 -176.452L-320.609 -179.428L-322.924 -180.751L-327.553 -183.396L-333.836 -186.372L-336.196 -187.09L-337.473 -187.364L-340.314 -188.344L-341.441 -188.687L-344.447 -189.769L-347.062 -190.671L-347.191 -190.757L-348.912 -191.377L-349.045 -191.332L-351.029 -192.324L-351.194 -192.489L-352.682 -193.316L-354.005 -195.3V-197.615L-353.674 -198.607H-353.58L-353.013 -199.93L-351.029 -202.575L-348.384 -204.89L-341.771 -209.85L-340.779 -210.346L-340.448 -211.173L-341.44 -212.165L-345.077 -214.48L-348.053 -217.125L-350.698 -220.432V-222.416L-350.367 -222.747L-347.391 -222.416L-343.092 -220.101L-337.14 -216.133L-335.817 -215.802L-333.833 -217.455V-218.888L-335.817 -219.77L-336.67 -220.501L-336.809 -220.431L-338.132 -221.754L-339.455 -224.399L-342.762 -226.052L-345.407 -228.367L-347.722 -231.012L-348.053 -233.327L-347.722 -233.658H-346.069L-344.085 -232.997L-341.109 -231.344L-338.464 -229.029L-337.211 -225.896L-336.582 -225.518L-335.323 -225.06H-335.158L-333.505 -224.399L-330.86 -222.746L-330.529 -225.061L-328.876 -226.053L-327.884 -227.045L-326.561 -227.706V-228.367L-324.577 -230.351L-320.94 -233.327L-318.625 -232.996V-236.964L-318.956 -237.956V-241.593L-318.625 -242.585L-317.633 -243.908L-315.649 -244.9H-312.012L-306.06 -244.239L-298.785 -243.247H-295.809L-295.148 -243.908H-293.164L-290.849 -242.585L-288.534 -241.593L-281.921 -240.932L-272.993 -240.601L-269.025 -241.262V-242.254H-269.686L-271.009 -243.246L-279.937 -249.198L-281.921 -250.521L-285.228 -252.67L-289.196 -255.15L-291.889 -256.851L-296.14 -259.449L-296.234 -259.543L-300.769 -262.094L-303.018 -263.417L-305.399 -264.74L-305.588 -264.929L-306.391 -265.401L-306.92 -265.798L-307.052 -265.732L-309.036 -267.385L-310.359 -269.369V-271.684L-309.698 -272.015L-309.651 -271.968L-308.706 -272.346L-307.053 -272.015L-304.408 -270.692L-300.771 -268.377L-294.819 -264.078L-289.528 -260.11L-282.253 -255.15L-277.624 -251.843L-271.341 -247.544L-266.381 -243.907L-263.074 -241.592L-257.122 -237.293L-253.485 -234.978L-251.17 -232.663L-246.871 -229.356L-240.919 -224.727L-235.628 -220.759L-231.329 -217.452L-225.046 -212.823L-220.417 -209.516L-216.449 -206.54L-210.497 -202.572L-207.19 -203.233L-206.859 -202.241L-207.851 -201.249L-207.52 -200.257L-202.229 -196.289L-196.608 -192.321L-192.309 -189.014L-187.018 -185.046L-182.389 -181.739L-178.752 -179.094L-177.099 -178.102L-176.768 -177.11L-175.445 -176.779L-174.453 -175.787L-171.808 -173.803L-166.848 -170.166V-169.505H-166.187L-160.896 -165.537L-159.33 -164.398L-157.338 -163.402L-153.701 -161.087L-147.749 -156.788L-142.458 -152.82L-135.183 -147.86L-130.554 -144.553L-124.271 -140.254L-119.311 -136.617L-116.004 -134.302L-113.512 -132.502L-112.619 -132.8L-112.288 -131.808L-112.483 -131.759L-110.052 -130.003L-106.415 -127.688L-104.1 -125.373L-99.8006 -122.066L-93.8486 -117.437L-88.5576 -113.469L-84.2586 -110.162L-77.9756 -105.533L-73.3466 -102.226L-69.3786 -99.2497L-63.4266 -95.2817L-60.1196 -95.9427L-59.7886 -94.9507L-60.7806 -93.9587L-60.4496 -92.9667L-55.1586 -88.9987L-49.5376 -85.0307L-45.2386 -81.7237L-43.8366 -80.6727V-80.8827L-42.8446 -81.2137L-42.1836 -79.8907L-42.0756 -79.3517L-39.9476 -77.7557L-35.3186 -74.4487L-31.6816 -71.8037L-30.0286 -70.8117L-29.6976 -69.8197L-28.7346 -69.5787L-29.2886 -70.9627H-27.9656L-27.3046 -70.3017L-24.3286 -68.6487L-23.9976 -67.6567L-22.0136 -66.9957L-19.0376 -64.3507L-17.3846 -63.3587V-64.0197L-16.0616 -64.3507L-14.7386 -63.6897L-12.4236 -61.7057L-9.77859 -59.7217L-6.80261 -57.7377L-2.83459 -54.4307L0.472382 -51.7857L1.46439 -50.1327L3.1174 -50.4637L3.44839 -49.8027L4.77139 -48.4797L5.10239 -47.4877H5.7634L7.41638 -46.1647L7.74741 -45.1727L6.7554 -43.8497H7.41638L8.73941 -42.1967L10.3924 -40.8737L12.0454 -40.5427L13.3684 -41.5347L14.3604 -41.2037L14.6914 -39.8807H14.0304L14.3614 -38.2277H15.0224L16.0144 -37.2357L16.6754 -35.9127H16.2434L16.5964 -35.7617L17.5884 -34.1087L19.9034 -32.4557L23.5404 -29.4797L26.1854 -27.1647L26.5164 -26.1727L27.8394 -25.5117H30.1544L30.4854 -23.8587L32.8004 -22.8667L36.1074 -20.8827L37.4304 -19.5597L39.4144 -18.2367L39.7454 -17.2447H40.4064V-16.5837H41.0674L43.7124 -14.2687L46.6884 -12.2847H49.3334L52.3094 -9.9697L52.9704 -8.6467H53.6314L55.6154 -7.3237L55.2844 -6.0007L53.3004 -5.66971L53.6314 -4.01669H54.2924L54.6234 -3.02472L52.9704 -1.04071H53.6314L54.2924 -0.0487061L55.6154 1.60431L54.6234 1.9353L51.3164 -0.3797L47.6794 -3.02472L43.7114 -5.66971L40.4044 -6.66171L40.7354 -5.66971L42.7194 -3.35471L47.6794 0.282288L48.6714 1.27429H47.3484L44.3724 -0.378693L38.0894 -4.34671L34.7824 -5.99969V-5.33871L35.7744 -5.00769L39.0814 -2.69272L42.3884 -0.047699L43.0494 1.2753H42.3884L39.4124 -0.047699L35.7754 -2.69272L33.7914 -3.68469L30.1544 -5.99969L28.5014 -6.66071V-5.99969L31.1464 -4.01572L33.1304 -3.02371L35.4454 -0.70871L35.7764 0.944305H34.7844L31.1474 -1.3707L26.5184 -4.34671L23.2114 -6.33072L19.5744 -8.64569L16.2674 -10.6297L14.6144 -11.9527L12.2994 -12.6137L11.6384 -13.6057L10.6464 -13.9367L10.9774 -12.6137L13.2924 -10.9607L26.1884 -2.36371L29.4954 -0.0487061L33.1324 1.9353L36.4394 4.25031L38.7544 6.89529L40.0774 7.5563L40.7384 5.90329L42.3914 6.23428H45.0364L45.3674 6.56531L55.2874 14.1703L58.9244 16.4853L63.5534 19.7923V20.4533H64.2144L64.8754 21.7763H64.2144V21.1153H63.5534L61.5694 19.7923L60.5774 19.1313L59.9164 18.6353L58.2634 17.4783L58.1974 17.3463L57.9324 17.1483L53.6334 14.8333L50.3264 14.5023L48.6734 13.8413L47.0204 13.5103L47.3514 14.5023L52.6424 18.8013L57.2714 22.1083L60.5784 24.4233L63.8424 26.7273L63.8854 26.7383L63.9244 26.7853L66.1994 28.3913L69.5064 30.7063L73.1434 33.0213L79.0954 37.3203L84.3864 41.2883L89.0154 44.5953L93.6444 48.2323L97.9434 51.8693L100.498 53.5223H100.588L101.878 54.4153L103.564 55.5063L104.381 56.1483L104.887 56.4983L109.002 59.7313L111.831 61.7883L114.356 63.7523L114.476 63.7723L115.748 64.7893L115.799 64.7643L117.783 66.4173L122.412 70.0543L126.049 73.3613L126.132 73.7743L126.38 74.0223L126.27 74.4633L126.38 75.0143L126.097 75.1563L126.05 75.3453L125.852 75.2793L125.72 75.3453L125.555 75.1803L125.059 75.0153L123.94 73.6163L122.414 72.7003L121.312 72.0393L121.228 71.9933L121.091 72.0393L119.107 70.7163L116.627 68.4843L116.131 68.0713L114.478 66.7483L110.51 63.7723L108.195 62.1193L108.085 62.0093L106.873 61.1273L104.228 60.1353L102.244 58.4823L100.591 57.1593L99.5994 56.2773L98.2764 55.1753L96.6464 53.8413L96.6234 53.8523L94.6394 52.1993L91.3324 49.5543L89.3484 48.8933L86.0414 46.3493L82.0734 43.6023L81.0814 42.9413L78.7664 41.1223L78.1054 40.6263L77.3784 40.0313L76.4524 39.3043L75.3774 38.3953L74.4684 37.6513L73.9964 37.2263L72.1544 35.6673L68.8474 33.0223L65.2104 29.7153L63.2264 28.3923L61.2424 27.0693L57.6054 23.7623L55.6214 22.4393V21.7783L54.6294 21.4473L52.9764 20.4553L49.0084 17.8103L44.7094 14.5033L41.0724 11.5273L36.1124 8.5513L32.4754 6.2363L27.8464 2.5993L22.8864 -1.03772L17.9264 -3.68271L16.9344 -5.33569L14.9504 -6.3277L10.6514 -9.6347L7.67538 -11.6187L5.0304 -13.6027L2.71539 -13.2717L2.3844 -15.9167H1.72339L0.400391 -16.9087L-2.90662 -19.2237L-5.55161 -21.5387L-7.53561 -22.5307L-10.5116 -24.8457L-15.8026 -28.4827L-20.7856 -32.2197L-20.9666 -32.1287L-21.0136 -31.9397L-21.2116 -32.0057L-21.3436 -31.9397L-21.5086 -32.1047L-22.0046 -32.2697L-23.1236 -33.6687L-24.6496 -34.5847L-25.7516 -35.2457L-25.8356 -35.2917L-25.9726 -35.2457L-27.9566 -36.5687L-29.9296 -38.3437L-30.0196 -38.4007L-29.6886 -37.7397L-26.0516 -34.7637L-21.4226 -31.1267L-18.1156 -28.4817L-14.4786 -25.8367V-25.1757L-13.4866 -24.8447L-7.8656 -20.5457L-3.2366 -16.9087L0.731384 -13.2717L4.03839 -10.6267L9.65939 -5.99771L12.9664 -3.35269L17.2654 0.284302L21.8944 4.25229L25.5314 7.2283L26.3134 7.94528L26.9334 7.73828L27.9254 8.39929L30.9014 10.7143L34.8094 13.7203L34.8694 13.6903L35.2004 14.0213L37.8454 16.3363L38.0104 16.8323L38.1754 16.9973L38.1094 17.1293L38.1754 17.3273L37.9774 17.3933L37.8454 17.6583L37.5444 17.5383L37.1834 17.6583L36.3894 17.0763L36.1914 16.9973L36.2154 16.9493L35.0804 16.1173L35.4514 16.4873L38.4274 18.8023L40.1114 19.2233L40.1594 18.9823H41.1514L42.8044 19.9743L43.7964 21.6273L43.1354 22.6193L43.0514 22.6023L44.0484 23.1013L45.7014 24.0933V23.4323L47.0244 22.1093H49.3394L52.6464 23.1013L54.6304 24.0933L54.2994 25.7463L50.9924 27.3993L48.3474 28.0603L48.0164 29.0523L49.0084 29.7133L52.3154 32.3583L56.9444 35.9953L60.5814 36.3263L63.8884 37.3183L65.5414 39.3023L65.2104 40.6253L63.5574 41.2863L63.8884 42.6093L67.1954 45.2543L70.5024 46.9073L73.4784 50.2143L76.4544 50.8753L77.9754 53.3093L79.4304 54.1823L82.0754 55.5053L83.3984 56.4973L84.3904 58.8123L86.0434 59.8043L86.6494 60.2453L86.7044 60.1353L89.6804 62.4503L91.0034 62.7813L91.6644 62.1203L92.9874 62.7813L93.6124 65.5953L95.6324 66.7493L96.2934 67.7413L98.2774 68.7333L98.3084 68.8263L99.4544 69.4433L99.6004 69.3943L101.253 70.3863L102.245 71.6263L103.568 72.7833L105.221 74.0233L106.874 75.3463L108.197 76.3383L110.677 78.3223L112.826 79.9753L112.847 80.0163L115.802 82.2893L120.431 85.9263L123.076 88.9023L123.884 92.1353L124.427 93.0853L125.721 93.8613L128.697 94.5223L129.358 96.1753L131.673 99.1513L131.644 99.1613L132.279 99.9783L132.334 99.8133L132.665 100.474L134.98 101.466L136.303 103.45L138.618 104.773L139.004 105.104H139.262L140.915 106.757L144.222 108.741L147.529 112.048L149.844 114.693L152.489 117.338L155.134 119.653L159.433 123.29L160.756 124.282L161.858 125.274L163.07 126.266L165.715 128.911V129.187L166.046 129.573L165.715 129.656V129.904L165.164 129.794L164.723 129.904L164.189 129.599L164.062 129.574L163.671 129.303L162.408 128.582L160.991 127.448L159.763 126.598L157.158 124.594L157.118 124.614L155.465 123.291L149.513 117.339L146.868 115.024L141.577 109.733L139.097 107.749L136.948 106.096L136.617 105.765L135.294 104.442L130.334 101.135L127.027 100.474L125.374 99.4823L124.713 97.1673H121.076L119.753 95.8443L117.438 95.1833L117.24 94.5883L113.801 92.8693L112.809 92.2083L110.825 91.2163L110.494 90.5553L108.51 88.9023L106.857 88.2413L107.188 88.9023L107.519 89.5633L107.399 90.1643L107.519 90.8853L106.858 91.8773H109.173L110.496 92.2083L112.149 93.8613L112.48 96.1763L112.149 96.5073L111.818 98.8223L110.884 99.0563L114.464 101.694V100.807L115.456 100.476L116.448 101.468L116.779 103.121H116.36L118.333 104.943L118.101 103.783L119.093 103.452L121.077 105.105L121.738 106.428H120.415L119.552 105.997L120.493 106.938L121.154 108.261H119.831L116.194 105.616L111.565 102.309L110.494 101.485V102.46L108.841 102.791L107.518 102.13L107.077 101.689L106.857 101.799L106.196 100.807L104.212 99.4843L103.551 98.1613H101.567L99.9144 95.8463L97.4014 94.5893L97.2544 94.5683L96.9384 95.5153L97.2694 96.8383L99.2534 99.4833L100.576 100.144L100.907 101.136L102.891 103.451L105.867 103.12L106.859 104.773L108.843 106.096L109.504 107.419L109.835 108.742L111.819 110.065L114.778 112.432L114.795 112.38L115.126 112.711L118.763 115.687L121.078 118.002L124.715 120.978L125.046 122.301H122.731L122.4 121.97V121.929L122.069 121.557V121.64L120.967 120.317L120.364 119.638L117.44 118.663L117.357 118.58L116.448 118.332L111.819 114.695L109.174 112.38V111.719H108.513L108.182 111.058L105.206 109.074L101.899 107.751L100.907 104.444H100.246L96.9394 101.468L95.2864 99.8153V100.807L96.6094 102.791L97.9324 105.106L100.577 107.421L103.884 110.728L106.529 113.043V113.704H107.19L112.481 118.333V118.994H113.142V119.655H113.803L116.118 121.97L116.969 122.666L117.11 122.631L119.755 124.946V125.607H120.416L122.069 127.26L125.706 130.236L129.013 133.212L131.658 135.527V136.188H132.319L136.287 139.825L138.932 142.14L143.892 146.769L143.561 146.108L142.9 145.447V144.455L143.892 145.447L147.529 149.415H146.868H146.831L146.868 149.448V149.415L147.199 149.746L150.175 152.061L153.151 153.384L153.2 153.457L154.474 154.045L155.797 155.037L155.921 155.202L157.12 156.161V156.029L158.773 157.352L158.902 157.467L162.079 159.667L167.7 162.312L168.361 163.635L165.385 164.627L164.393 165.288L166.708 167.603L169.353 169.918V170.579L170.345 170.91L169.684 171.571V172.563L171.337 174.878L171.998 176.201H172.659L175.304 178.516V179.177H175.965L176.296 179.838L178.941 182.483L178.28 183.806H176.627L174.974 182.814L170.675 178.846H168.36L164.723 179.838H162.078L160.755 179.177L160.677 179.021L159.829 178.526L159.763 178.515L159.291 178.232L159.102 178.185L159.083 178.107L158.11 177.523L153.15 173.886L148.521 170.91L142.9 167.273L139.593 163.966L138.954 163.236L138.931 163.304L137.278 161.32L134.633 158.675L134.302 158.344L133.012 157.352H132.979L130.003 155.037L125.374 152.392L120.083 150.408L116.776 148.424L112.808 144.125L109.171 138.504L106.195 138.173L105.203 137.181L105.534 135.197L104.542 133.874L102.227 131.559L99.9124 130.567L96.6054 128.583L96.0774 128.319L96.3534 129.424H95.3614L92.7164 126.779L92.6764 126.619L91.3154 125.938L91.9764 128.914L92.3074 129.079L92.6384 128.914L93.2994 129.575L95.9444 130.898L97.2674 132.221L96.6064 133.213L96.9374 134.536L95.6144 134.205L94.2914 132.882L92.9684 132.221L91.3154 131.56L92.9684 133.875L94.9174 135.546L94.9524 135.529L97.5974 137.844L101.896 141.481L103.632 143.465H103.88L104.211 144.126L106.526 146.11L107.187 147.433H105.864L105.533 146.772L104.21 146.111L103.549 145.119L101.896 143.796L99.6294 141.812L97.9284 140.489L94.6214 137.844L91.3144 135.529L86.3544 131.892L82.7174 129.908L81.0644 129.247L82.3874 130.239L86.3554 134.538L89.0004 136.853L92.6374 140.16L95.9444 142.805V143.325L96.1924 143.467H96.6054L97.2664 143.996L97.5974 144.128L98.4184 144.812L98.5894 144.128L99.2504 144.459L99.7054 144.872L100.573 145.451L105.153 149.762L106.525 150.742L107.848 151.073L109.171 150.081V148.758L107.848 148.427L108.179 147.435L110.163 149.088L112.808 151.403L113.139 152.726L111.486 151.734L110.163 152.065V152.726L110.824 153.718L112.147 155.041V155.702L111.816 155.768L112.973 157.157L113.91 157.907L117.768 160.662L120.413 163.307L122.728 164.299L124.051 165.622L125.704 166.945L127.688 166.614V165.291H127.027V164.63H126.366L125.705 163.307H125.044L124.713 162.646L123.06 161.323V160.662H122.399L120.084 159.339L119.919 159.215L118.431 158.347L117.439 157.355L117.373 157.024L117.109 156.693L117.219 156.252L117.109 155.701L117.37 155.649L117.44 155.371L118.161 155.491L118.762 155.371L119.423 155.702L123.722 158.678L125.486 160.735L127.029 162.15L128.352 163.307L128.428 163.409L128.682 163.638L129.653 164.31L129.674 164.299L132.981 166.614L135.296 168.598L137.611 171.243L139.595 172.896L142.24 175.872L142.429 176.25L143.563 177.195V177.856H144.224L145.877 179.179L146.538 180.502H147.199L147.86 181.494L147.728 181.56L147.86 181.825L147.493 181.678L147.199 181.825L146.443 181.258L146.207 181.164L143.892 179.345L139.263 175.873L137.61 175.212L138.602 177.196L140.255 178.684V178.519L140.727 179.109L141.908 180.172L144.553 182.487L147.86 185.463L148.191 186.786H147.199L145.876 185.794L143.694 184.339L141.578 183.81L140.586 183.149L140.255 181.826L138.602 179.842L137.61 178.85L136.618 179.181L134.634 178.85L133.311 177.197L130.996 176.205L127.689 172.898L125.044 170.583L123.721 168.599L123.06 167.276L120.745 166.615L118.43 164.631L115.123 162.647L112.147 159.01L110.494 158.018L108.179 157.026L107.518 156.365L106.857 154.712L103.55 153.059L99.5824 150.083L96.2754 147.438L93.6304 146.115L90.9854 144.131L88.6704 143.47L88.0094 142.147L84.7024 142.808L85.0334 139.832L81.3964 139.501L80.7354 139.832L79.0824 138.179L76.7674 137.518L75.4444 136.195L72.7994 134.872L72.4684 133.88H69.8234V134.211L72.7994 135.534L73.1304 136.195L75.4454 138.179L76.1064 139.832H78.7514L79.7434 140.824L81.3964 142.147V142.808H82.0574V143.469H83.0494L84.3724 144.461L86.0254 146.114L89.3324 148.759L91.3164 149.42L91.9774 151.073L95.9454 154.049L97.9294 155.372V156.033H98.5904L99.9134 157.025L103.22 159.34V160.001L101.897 160.332L99.5824 159.34L96.9374 157.025L93.9614 154.71L90.3244 152.395L85.0334 148.427L82.7184 147.104L80.7344 145.451L79.4764 145.703L79.8214 145.962L84.1204 149.599L87.7574 152.575V153.236H88.4184L92.7174 156.873L97.3464 160.841L99.9914 163.156L103.298 166.132L106.935 169.108V169.769H107.596L111.895 173.737L114.21 176.382L113.549 177.705H111.896L108.92 175.39L104.291 171.091L99.0004 166.131L96.3554 163.816L93.3794 160.84L92.1244 159.742L90.6554 159.008L90.4684 158.26L88.9014 156.693H87.3484L84.7034 155.37L85.0344 156.693L88.3414 160.661L90.6564 161.984L94.2934 164.299L93.3014 164.63L91.3174 163.638L91.6484 164.63L95.9474 168.267L101.238 171.574L102.891 174.219L105.536 174.88L107.851 177.525L111.819 180.501L117.44 186.122L119.424 187.114L120.416 188.106L120.813 188.701L121.739 189.759L121.812 190.2L122.4 191.082V193.066L124.384 194.719L126.368 196.042L129.675 196.373L132.32 198.688L134.635 201.995L134.966 203.648H133.974L130.667 202.656L131.328 204.309L136.619 209.269L139.926 211.914L142.902 213.898L146.539 215.882L151.168 218.858L155.467 222.495L156.79 224.479L156.761 224.565L157.12 225.14L159.104 227.455H160.757L162.741 228.116L166.709 231.753L167.04 234.068L168.363 235.391L169.355 236.383L170.347 237.517L172.992 240.351L173.984 241.343L174.976 242.618L175.307 242.996L178.944 245.311L179.936 246.964L185.227 247.625L186.219 247.956L189.856 250.601L192.501 253.577L195.477 253.908L196.138 254.239L201.759 259.86L205.066 263.167L205.727 264.49H206.388L207.522 265.813L208.913 267.031L212.34 268.459L214.985 270.774L219.614 274.411L230.195 284.992L230.856 286.315H231.517L233.501 288.63L234.824 289.953L235.185 290.554L235.816 291.275L235.651 291.33L235.816 291.606L235.249 291.464L234.824 291.606L231.848 289.291L231.082 288.595L229.864 287.638L227.841 285.771L227.549 285.654L225.565 283.67L220.936 280.033L222.259 281.686L223.747 283.505L224.574 284.332L224.507 284.433L225.236 285.324L227.551 287.639L228.212 288.962H228.872L230.195 290.615L231.187 292.599L230.195 292.93L226.227 289.954L221.928 286.317L215.645 282.018L212.008 279.703L212.339 280.364L214.323 283.009L215.165 284.332L215.646 284.993L215.62 285.046L216.638 286.646L219.283 289.291L222.259 292.598L224.574 295.243L226.558 296.566L226.889 298.219H228.542L229.865 299.211L231.518 300.864L231.738 301.525H232.179L234.494 304.17L234.163 305.493H232.51L231.518 304.832L231.353 304.667L228.873 303.179L227.22 301.856L225.567 300.203L223.252 298.55L217.631 292.929L216.97 291.606H216.309L213.664 289.622L212.08 288.282L212.01 288.299L210.593 287.024L209.365 285.985L209.916 286.867L210.026 286.977L210.099 287.161L211.017 288.631L213.332 291.607L216.639 294.583L220.938 297.89L222.922 299.543L225.567 301.527V302.188H226.228L228.873 304.833L234.164 308.14V309.463H232.841L230.196 308.471L225.567 306.156L221.268 304.503L218.292 302.519L215.977 299.212L213.001 297.559L211.017 296.236L207.71 293.26L204.403 292.268L202.088 290.284L202.069 290.226L201.758 289.954V289.293L201.427 288.301L199.774 286.978L197.79 284.663L195.145 282.348L193.492 280.695L190.847 279.703L190.186 278.05L187.871 277.389L187.54 276.066H186.548L182.58 273.421L178.943 270.776L178.282 269.453H176.959L175.306 267.8L173.322 266.477L171.999 264.493L170.015 264.162L168.692 263.17L166.708 262.178L165.055 260.855L160.426 257.548L157.119 255.233L156.127 253.58L155.135 252.588L152.82 251.927L150.836 250.935L147.529 248.29L142.238 245.645L140.254 243.992L138.601 242.669L136.948 242.338L137.94 244.322L136.948 244.653V245.645L135.625 245.976L134.964 244.984L135.956 244.653V243.992H133.972L131.657 242.008L131.326 240.355L134.302 240.686L134.633 242.009H136.286L135.625 240.025L133.641 239.694L131.988 238.041L130.996 236.388L130.004 236.057L127.689 235.396L127.358 232.089H125.705L124.382 231.758L123.39 230.105L120.745 227.79L118.761 226.798L117.769 225.145H115.124L112.479 224.153L112.148 222.5L111.487 221.508L108.18 220.185V219.193L109.172 218.862L108.841 217.87L107.518 216.878L105.865 216.217V215.556L102.889 215.887L101.897 213.903H99.9134L97.9294 214.564L98.2604 215.556L99.9134 216.879L99.8724 216.9L100.244 217.21L100.87 217.558L100.905 217.541L103.22 218.864L103.551 219.525L105.204 220.517L107.519 222.832L109.172 223.824L109.833 224.155L109.569 224.221L110.826 225.477L113.141 226.8L114.133 227.792L115.456 227.461L115.55 227.508L115.786 227.461L117.109 228.288L118.101 228.784L118.317 229.043L118.432 229.115L121.408 232.752L124.715 234.075L126.368 235.398L127.691 237.051L129.344 239.035L129.675 240.358L128.683 240.689H126.368L125.376 238.705L122.731 237.382L119.755 236.059L117.96 233.965L116.826 233.083L114.464 231.43L112.48 230.438V231.43H113.141L113.802 232.091L114.794 233.083L115.786 235.728L118.101 236.72L118.432 238.373L116.779 238.704L117.11 239.365L119.094 240.357H121.739L122.4 241.349L124.715 241.018L126.368 243.333L129.013 245.648L130.666 247.963L131.658 249.947L133.642 251.27V252.262L132.319 252.923L133.311 254.907L132.98 255.899H130.996L129.673 254.576L130.004 252.592L129.673 249.616L128.681 249.285L128.02 247.962L126.367 247.631V249.615L125.375 250.276L123.722 249.945L123.465 249.798L122.73 249.614L122.565 249.283L121.986 248.952H121.738L121.407 248.621L116.447 245.645L113.802 245.314L114.133 246.967L115.786 247.298L116.447 247.959L117.108 249.282L119.092 249.943L121.6 251.995L121.737 251.927L122.729 252.919L123.06 254.572L121.407 254.903L121.738 255.564L123.061 256.225L126.368 258.87L128.021 259.862L129.344 259.531L129.853 259.633L130.667 259.531L131.328 260.192V261.184L131.644 262.447L132.486 263.168L134.966 265.152L137.611 267.136L137.942 269.12L137.281 269.781L137.116 269.809L135.959 270.773V271.434L136.62 271.765L137.281 272.757L137.612 273.088L138.651 273.608L138.934 273.551V273.088L139.926 272.096L141.249 271.765L142.241 272.757V274.741L141.249 276.064L141.58 277.056L144.887 278.379L150.839 281.024L153.154 283.339L154.807 284L155.468 284.661L156.791 287.306L159.767 288.959L163.404 292.266L164.065 293.919L163.073 294.25L161.089 292.927L157.782 290.943L155.798 288.628L153.483 287.967L150.838 286.314L146.87 283.338L144.225 283.007V283.668L145.49 285.214L148.855 287.967L153.484 291.604L156.791 294.249L159.436 296.233L164.065 299.87L168.033 302.846L172.001 305.932L173.324 306.814L174.887 308.257L178.945 311.774L183.574 315.411L184.235 316.734L181.259 316.073L178.614 313.758L175.638 311.113L174.398 310.286L171.67 308.798L167.702 305.491L165.387 305.16L164.726 303.507H164.065L159.436 300.531L156.129 297.555L154.145 296.563L154.476 297.886L156.129 299.209L158.774 301.524L162.081 304.5L164.065 305.823L165.388 307.807L167.372 309.46V310.121L168.695 310.782L171.34 313.097L174.977 316.734L177.181 318.718L178.945 320.041L180.298 321.664L181.26 322.466L182.583 323.348L184.236 325.332L185.889 326.655L188.841 329.312L188.865 329.3L189.196 329.631L190.849 331.284L191.18 332.607H190.519L189.819 332.062L189.527 331.945L185.89 328.969L185.559 328.668L183.906 327.315L180.599 324.339L179.979 323.802L178.615 322.686L175.639 320.041L174.316 318.983L170.348 316.073L167.041 313.097L164.396 310.782L160.759 307.475L157.122 304.499L152.823 300.531L148.855 297.555L147.532 296.563L143.564 292.926L140.919 290.942L136.29 286.643L133.975 285.651L132.652 283.998L130.007 281.683L128.459 280.307L128.353 280.36L126.149 278.376L124.385 277.053L120.086 273.416L117.11 271.101L115.126 269.448L113.803 269.779L112.15 268.126L110.166 267.795L109.745 266.322L108.96 265.014L107.653 263.894L106.293 262.836H106.199L102.892 260.191L97.6014 256.554L94.2944 254.074L91.9794 252.917V256.224L94.2944 257.547L97.6014 259.2L99.2544 260.853L97.9314 261.184L94.6244 259.531L93.7924 259.147L93.6324 259.2L90.9874 257.877L89.3344 257.216L86.0274 255.232H85.0354L85.3664 256.555L88.0114 259.2L90.3264 260.523L91.3184 261.184L93.3024 262.176L94.6254 262.837L96.2784 264.49L98.5934 265.151L99.2544 266.804L98.5934 267.135L97.9324 266.804L94.9564 266.143L95.6174 267.135L98.9244 269.119L102.892 271.764L103.553 273.087L101.9 273.418V273.749L103.884 275.072L105.537 278.048L107.19 277.717L106.859 276.064L106.528 275.733V275.402L106.197 274.741L106.528 274.906V274.741L109.504 276.394L109.835 277.717L108.512 278.048V280.363L109.107 282.149L109.669 282.43L109.834 282.347L110.165 282.678L110.826 284.993L111.818 285.324V286.647H110.165L109.834 287.639L108.511 287.97L108.18 286.978L106.527 286.317V284.994H105.535L105.287 284.746L104.874 284.663L104.764 284.222L104.544 284.002L103.883 280.695L101.568 281.026L99.5844 281.357L97.6004 279.704L95.9474 277.72L94.2944 277.059L93.9634 276.728L93.3024 276.067L92.3104 275.736H91.3184L90.9874 276.067L89.3344 276.398L88.6734 275.075L87.8614 273.722L87.3974 273.374L86.0934 273.157L84.7044 273.752L83.0514 272.429L78.4224 269.453L78.7534 270.445L80.7374 272.098L85.0364 275.735L85.6974 277.719L86.0284 278.711L87.3514 278.05L87.6824 278.16L88.0134 278.05L88.2024 278.333L88.3444 278.38L88.3994 278.628L88.6754 279.041V279.868L89.0064 281.356L90.6594 282.348L91.9824 283.009L92.6434 285.985L93.9664 286.316L94.6274 284.663L95.9504 284.332L97.2734 286.977L96.9424 289.953L98.2654 290.945L99.9184 291.276L100.249 290.615L101.902 290.284L102.894 290.945L102.913 291.042L103.224 291.275L103.518 292.01L103.555 291.937L103.886 292.929L105.209 293.26L105.044 293.315L105.871 293.591V294.252H106.532L108.516 296.236L110.831 297.228L111.492 297.889V299.873L113.807 300.865L116.452 303.51L119.097 302.849V305.164L122.404 307.479L124.057 309.463L127.033 310.786L127.694 311.778L129.678 313.431L132.985 316.738L133.316 318.391L131.332 319.714H129.679L128.026 317.399L126.373 316.076L125.712 314.423L123.102 314.162L122.028 314.281L121.083 314.753L120.752 317.398L121.083 317.729L121.744 319.052H120.421L119.098 319.383L118.767 320.706L120.09 321.698L121.743 321.367L123.314 322.938L125.05 323.682L125.381 324.343L126.042 325.666L125.711 326.989L126.042 328.312H128.026L128.423 328.444L128.688 328.312L129.019 328.643V330.627H130.011V328.643H131.334L131.665 329.304V331.288L134.31 333.272V333.933H134.971L136.955 336.909L139.27 337.901L142.246 339.554L142.577 340.546L138.609 340.215L139.27 341.207L142.246 342.86L142.577 343.852L141.916 344.183V344.844H144.231L143.57 343.191L143.239 341.868H144.231L144.562 342.199L146.215 343.191L147.207 344.183L149.522 344.514V345.837L151.175 346.168L152.828 348.152L151.175 348.483V350.136L149.191 349.805L147.868 348.152L145.884 346.829L143.569 346.498L143.238 347.49H144.561L146.876 349.143L147.868 350.135L151.175 353.111L154.482 354.434V357.079L157.789 360.055H159.442L159.773 359.724L159.112 358.732L158.781 357.409L160.104 357.74L160.435 359.063H161.096L163.741 361.708L164.402 363.361H162.749L161.757 361.377L159.442 360.716L159.111 362.7H158.45L158.399 362.497L156.797 362.039L156.136 360.716H155.144H153.491L154.152 362.369L156.136 363.03L156.467 364.683L158.12 364.022L160.435 363.691L160.766 365.014L158.782 365.675V366.667L160.435 368.651L163.08 369.974V371.297L157.459 369.313L156.467 367.99L155.144 367.329L154.483 365.676L153.491 365.345L152.499 365.014L150.846 363.691L149.193 363.03L149.524 365.014H148.532L147.209 363.03L143.572 361.707L143.241 360.384L143.902 359.392L146.878 361.376L146.547 359.392L145.555 358.731L143.902 357.408L140.265 355.093L135.966 352.448L133.321 350.464L132.99 349.141L134.313 348.48L133.982 346.827H133.321L132.99 348.48H130.345L128.692 347.157L127.039 346.826L125.716 345.834L124.063 344.181H122.74V345.173L123.656 345.86L123.732 345.835L124.063 346.166L125.055 347.819L124.063 348.811V350.134H125.386L125.717 349.142H126.709L129.354 351.457L129.023 352.449L127.7 352.78L127.971 353.862L129.684 354.433L130.015 353.11L131.668 353.441V356.417L132.66 355.425L133.983 355.094L136.298 356.417L136.629 357.74L135.968 358.401V360.385L136.629 361.377H139.605L139.936 364.353L142.581 364.022L142.912 366.006L144.896 366.667L145.041 366.791L145.558 366.998L146.321 367.888L147.211 368.651L147.268 368.993L147.542 369.312L147.422 369.913L147.542 370.634L146.55 371.626H146.302L145.889 371.957V372.618L148.582 374.862L148.865 374.933L149.857 375.925H154.156L154.487 377.578H155.148L155.479 379.231H157.463L158.124 380.223L158.308 381.142L158.455 381.215L158.367 381.435L158.455 381.876L157.794 382.868L158.455 382.537L160.108 382.206L160.439 383.529L161.762 384.521L163.415 385.513L164.407 387.497H163.084L162.092 386.836L160.439 386.175L159.778 385.514H157.463L156.14 384.522L155.633 382.327L154.41 380.859L153.675 380.614L151.511 380.885L150.85 382.208L149.527 381.877V381.83L148.535 381.547L147.874 380.886L145.229 379.233V379.167L144.237 378.572L142.914 377.911L142.253 379.895H141.592L141.923 377.58L140.27 376.919L140.24 376.859L139.609 376.588L139.94 377.58V379.564L136.964 380.225V381.217L137.625 381.878L136.964 383.201L135.641 384.524L133.657 384.193V385.295L134.318 385.515L134.649 386.176L136.302 387.499L137.294 387.168L136.963 384.192L139.278 383.861L140.931 385.514L142.915 385.183L143.246 386.506H144.569L145.363 387.829H146.223L146.884 387.168L148.207 387.829L148.868 387.168L150.191 387.499V390.144L148.538 390.475L148.207 391.467L149.199 391.798L149.53 393.121L147.546 394.113L146.885 393.121L144.901 391.468H143.248L142.917 392.791L145.893 396.098L149.2 397.421L149.531 395.437H150.523L151.184 396.098L149.531 397.751V398.743L150.192 399.074L152.176 401.389L154.16 402.05L156.475 400.397V398.744L157.136 398.413L157.797 396.76L159.12 397.091L159.451 398.744L161.435 398.413L161.104 400.728L163.088 401.059L163.419 402.382H164.062L166.707 404.035L167.368 406.019L166.045 406.35L165.053 405.358L163.069 406.019V404.366L160.754 404.035V404.696H159.431L159.1 404.035L159.431 402.712H157.116L156.785 403.043V405.027L158.108 405.358L158.769 407.342H156.785L156.124 406.019L154.801 405.358L153.148 404.366L152.156 403.043H150.503L149.18 401.72L148.519 400.397H147.527L145.212 399.074L143.889 397.09L141.244 395.106L138.599 393.783L137.276 392.46L133.639 389.484V388.823H132.978L130.994 387.5L128.75 385.481L128.679 385.516L127.687 384.524L125.042 382.871L121.735 379.895L118.428 377.58L116.113 375.265L113.881 373.529L112.145 372.289L112.035 372.124L111.815 371.959L110.492 370.636L109.434 369.71L107.252 367.924L104.871 366.337L103.472 365.192L103.218 365.014L102.41 364.426L102.226 364.353L102.006 364.133L99.5814 362.369L98.2584 362.038L98.5894 363.691L101.896 366.336L103.549 367.989L105.202 369.312L109.501 372.949L111.154 374.602L113.138 376.255L116.114 379.892L117.106 380.223L118.429 381.546L119.09 382.869H120.082L123.389 385.514L124.712 387.167L123.389 387.498L121.405 386.175L118.098 384.852L117.767 382.537L116.114 382.206L115.453 380.883L113.469 379.891L113.26 379.63L113.138 379.56L111.485 377.907L109.832 376.584L109.171 374.931H107.187L106.195 373.278L104.542 371.625L101.897 369.641L98.9214 366.665L96.6064 364.02L94.2914 362.036L91.3154 360.383L90.6544 360.052L88.4504 358.068L86.6864 356.745L83.3794 357.076L82.7184 356.415L82.0574 355.092H81.3964L74.7834 351.455L67.9684 347.785L67.8394 347.817L66.1864 346.825L60.8954 343.518L60.3474 343.131L60.2344 343.187L56.5974 340.542L55.6764 339.863L55.6054 339.881L55.3404 339.616L50.3144 335.913L50.3064 335.89L48.9914 334.921L45.3544 332.276L38.0794 327.647L32.4584 324.34L31.1984 324.088L31.1354 324.34V324.671L32.0174 325.773L33.1194 326.655L33.3954 327.206L33.4504 326.986L33.7814 327.978H34.4424L35.7654 329.631V329.741L36.4264 330.623L37.0874 332.276H40.0634L40.7244 332.937V335.582L43.0394 337.566L44.0314 336.905L45.6844 336.574L46.3454 337.235L46.0144 340.211L47.9984 341.864L50.9744 344.179L53.2894 344.51L53.9504 345.502L54.6114 346.494L56.2644 346.825L56.9254 346.164L58.2484 346.825L57.9174 348.478V350.462H58.5784L60.2314 351.454L63.2074 352.115L64.1994 353.438L65.8524 354.761L66.1834 356.084L64.8604 355.753L62.5454 354.761L59.9414 352.736L58.0814 351.62L56.5934 350.793L55.0344 349.754L54.9404 349.801L52.6254 348.148L51.6334 347.487L48.3264 345.172L44.3584 342.527L43.6974 341.535L43.3664 341.204L43.3194 340.968L43.0364 340.543L41.0524 338.89L39.0684 337.567L36.4234 337.236V339.551L37.0844 340.874L37.7454 342.527H38.4064L39.7294 343.519L42.0444 344.511L43.3674 345.834L43.6984 347.157L42.0454 348.48L42.3764 350.464L43.3684 350.133L43.6994 349.472L45.3524 349.141L48.3284 351.125L51.3044 353.109L54.9414 356.085V357.738L59.5704 358.399L62.2154 359.722L65.1914 361.706L68.8284 364.682L71.4734 366.997L74.1184 367.658L75.7714 368.319L77.0944 369.972L79.7394 372.287L84.6994 377.578L85.3604 378.901H86.0214V379.562L87.0134 379.893L88.6664 380.885L91.9734 382.538L95.9414 385.845L100.57 389.482L105.199 394.111L105.86 395.434H106.521L108.505 397.749L111.481 401.056L112.142 402.709H111.481L111.163 402.464L110.82 402.378L108.042 400.063L107.182 399.402L106.851 399.071L101.891 394.442L99.2464 392.789L100.899 395.104L103.544 398.411L105.528 401.056L109.165 405.355L108.504 406.016L106.52 404.363L104.205 403.371V404.032H101.89L100.618 403.015L98.0544 401.519L96.5994 400.725L96.5294 400.551L96.2684 400.394L92.9614 398.741L91.5724 397.749L90.9774 397.418L90.6464 397.087L88.6624 396.426L89.6544 398.741L90.3154 400.064H90.9764L92.6294 401.387L93.2904 403.371L94.6134 404.032L97.9204 406.016L98.9124 407.669L100.565 408.992L103.21 411.307L103.541 409.984L104.864 410.645L105.525 411.968H104.533L105.194 413.291L107.839 415.606V417.259L107.508 417.59L105.855 417.259L100.564 413.622L91.3054 407.339L87.0064 404.032L82.7074 400.064L82.0464 398.741H81.3854V398.08H80.7244V397.419H80.0634L77.4184 394.774L74.4664 392.117L74.4424 392.129L72.4584 390.806L70.8054 389.814L68.8214 388.491L66.1764 386.838L66.1294 386.696L65.8464 386.507L59.2334 382.539L57.2494 382.208L57.9104 383.861L61.2174 386.837L64.8544 389.813L68.8224 393.781L69.1534 395.434H68.1614L61.8784 392.127L57.5794 389.151L53.9424 386.175L51.6274 383.86L48.9824 381.545L45.3454 377.577L42.3694 375.262L41.3774 376.585L39.7244 376.254L39.0634 374.931L40.3864 374.27L40.0554 373.278L38.4274 371.955H38.4024L37.0794 370.963L36.7854 370.632L35.5174 369.594L35.4264 369.64L32.7214 367.536L29.1444 365.011L27.8844 364.003L27.8214 364.019L24.5144 361.374L24.3114 361.145L24.1844 361.043L22.5544 359.709L22.5314 359.72L21.4564 358.811L20.5474 358.067L16.2484 354.43L13.2724 352.115L11.9494 351.123L8.51041 348.213L7.98138 347.816L5.3364 345.832L3.7244 344.592L1.36841 342.856L-0.863617 341.182L-0.946594 341.203L-2.59961 339.88L-3.92261 338.557L-6.5676 337.234L-6.89859 335.911L-8.22162 334.919L-10.8666 334.258L-11.1976 333.266L-12.5206 332.605L-13.8436 331.613V329.96L-13.1826 329.629L-14.1746 328.637V329.629L-15.8276 329.96L-17.1506 328.307L-19.1346 327.646L-19.4656 326.323L-20.7886 325.992L-21.2296 325.551L-21.4496 325.661L-22.4416 324.338L-24.0946 323.677L-26.4096 321.032L-27.4016 320.701L-27.7986 320.37H-28.0636L-29.3866 319.047L-30.0476 316.732L-31.7006 316.401L-32.6926 315.409L-34.6766 314.417L-34.8376 313.935H-35.5906L-36.2546 313.603L-37.3226 313.756L-36.6616 315.409L-34.6776 317.393L-34.3466 317.724L-31.4806 320.369L-29.5516 322.022H-29.3866L-28.3946 323.014L-26.4106 325.99L-26.1216 326.569L-25.7496 326.321L-24.7576 327.313L-24.4266 328.966L-25.0216 329.561L-25.4186 330.95L-24.4266 329.958L-24.0956 329.848L-23.4346 329.297L-22.1116 329.628L-20.7886 331.281V334.257L-19.1356 334.588L-18.8766 334.804L-18.4736 334.919L-17.8726 335.64L-17.1516 336.241L-17.1946 336.454L-16.8216 336.902L-14.8376 339.217L-13.1846 341.862L-12.8536 343.515H-14.5066L-15.1676 343.846L-15.0926 344.021L-15.0886 344.025L-15.0866 344.033L-14.1756 346.16L-14.2466 346.302L-14.1756 346.491L-14.3736 346.557L-14.5056 346.821L-14.8066 346.701L-15.1676 346.821L-18.1436 344.837L-18.8046 343.184H-19.7966L-19.9046 343.13L-19.7176 343.363L-18.0646 345.016L-17.4036 346.339L-24.3476 341.71L-25.0266 341.322L-24.0956 343.184L-21.4506 346.491L-20.4586 347.483L-19.1356 350.128L-16.8206 349.797L-15.8286 350.458L-14.6166 351.56L-13.5146 352.442L-13.1616 352.883L-12.1916 353.765L-12.0266 354.426L-11.8616 354.095V355.087L-12.5226 355.418V356.41L-11.8616 356.741L-10.2086 357.072L-9.87759 356.411H-8.88559L-7.2326 357.734L-4.25659 360.379L-1.6116 362.363L3.0174 365.67L5.66238 366.993L7.3154 370.3L9.96039 371.623L12.2754 373.607L14.5904 376.583L14.2594 377.906L12.2754 377.245L8.96838 374.6L7.5134 373.41L4.71539 371.271L4.6694 371.294L-2.2746 366.003L-7.23459 362.366L-9.65961 360.823L-11.8636 359.721L-14.6976 357.737H-14.8396L-16.4926 356.414L-18.7406 354.728L-18.8066 354.761L-20.5926 353.372L-22.7746 351.785L-28.0656 347.486L-31.3726 345.833L-31.5796 345.626L-33.6876 344.51L-34.2716 345.677L-34.2706 345.681H-34.2736L-34.3496 345.832L-36.0026 346.163L-36.3336 348.478L-37.6566 349.139L-39.3096 348.808L-41.9546 345.501L-42.2856 344.178L-38.9786 344.509L-39.4016 343.451L-42.8676 341.052L-45.8436 338.737L-48.1586 336.092L-49.0696 335.181L-49.2296 335.582L-49.8906 337.897H-51.5436L-52.5356 336.244V334.26L-52.8666 331.945L-52.4456 331.805L-54.7716 329.479L-57.0866 326.834V324.686L-57.1656 324.67L-59.4806 322.686L-64.1096 319.71L-66.4246 318.718L-69.0696 316.734L-71.3846 314.089L-73.0376 313.758L-73.6986 312.766L-75.0216 311.443L-75.6826 311.112L-78.4106 308.632L-78.6186 308.453L-78.6586 308.466L-80.1016 307.203L-83.3116 304.734L-86.9256 302.183L-87.0226 302.066L-88.2476 301.191L-91.8846 298.215L-96.1836 294.578L-100.813 290.61L-104.12 287.965L-105.112 287.304L-108.088 285.32L-110.072 283.997L-114.371 280.69L-117.678 278.706L-118.009 280.359L-119.111 280.138L-118.591 280.538L-117.599 281.365L-113.998 284.194L-113.961 284.176L-112.638 285.168L-111.872 285.864L-110.654 286.821L-108.056 289.159L-108.009 289.135L-107.826 289.292L-107.427 288.294H-105.443L-104.451 288.955V289.616H-103.79V290.277H-103.129V290.938H-102.468L-102.137 291.599L-101.476 293.252L-102.375 293.926L-101.397 294.754L-98.0896 297.399L-96.7666 298.533L-96.1056 299.053L-95.3116 299.78L-93.4596 301.367L-93.5476 301.396L-93.2986 301.625L-93.1296 301.698L-92.1376 302.69L-91.4766 304.013H-92.4686L-94.4526 303.021L-95.2466 302.624L-95.4446 302.69L-97.7596 301.367L-103.777 296.554L-103.791 296.559L-106.436 294.906L-109.412 292.261L-109.478 291.931L-109.664 291.779L-111.979 290.456V291.448L-113.302 291.779L-114.294 290.456L-114.955 288.803L-113.963 288.142V287.481L-114.485 287.183L-114.373 287.632L-116.026 286.971L-117.349 285.648L-117.069 285.368L-117.601 284.836L-118.341 284.244V284.657H-119.002L-122.309 282.342L-126.608 279.035L-131.899 275.067L-134.214 273.744L-137.521 271.099L-139.174 270.438L-141.819 268.785L-145.126 266.47L-147.441 265.147L-148.102 263.824L-149.425 263.493L-150.748 263.162L-151.409 262.17L-154.054 260.847L-153.393 262.5L-150.748 263.492L-150.087 265.145L-148.434 266.468L-145.789 268.783L-144.136 270.106L-140.499 272.421L-139.105 273.6L-138.436 272.931H-136.783L-136.452 273.262L-135.129 275.246V276.862L-132.232 279.035L-127.933 282.342L-114.707 292.262L-111.4 294.907L-107.763 297.552L-106.44 299.205L-107.101 300.528L-108.424 300.197L-110.077 299.536L-109.746 300.859L-108.754 301.52L-106.109 303.835L-105.117 304.827L-103.133 305.488L-102.472 307.141L-97.8426 311.109L-93.5436 314.746L-89.9066 317.722L-85.6076 321.029L-81.9706 324.005L-77.3416 327.973L-73.7046 330.949L-68.4136 335.248L-63.7846 338.555L-59.4856 342.192L-55.8486 345.168L-55.5656 345.404L-54.8566 345.829L-52.3766 348.061L-51.8806 348.474L-51.0196 349.179L-50.8886 349.135L-48.2436 351.45L-45.9286 353.765L-44.2986 355.099L-44.2756 355.088L-42.2916 356.741L-38.4426 359.765L-38.5756 359.565L-37.9146 358.904L-36.9226 359.565L-36.7316 359.791L-36.5926 359.895L-36.5196 360.042L-35.1056 361.714L-34.2786 362.541L-34.1486 362.846L-33.2876 363.864L-33.1926 364.246L-28.7376 367.653L-25.7616 369.968L-16.5026 377.243L-13.1956 379.888L-11.2116 380.88L-10.2196 383.195L-6.58261 385.51L-3.93759 388.486L-2.28461 390.139L-1.95361 391.462L-4.5986 390.139L-6.25162 389.808L-6.9126 387.824L-11.2116 384.517L-11.8726 382.864L-12.8646 381.872L-15.8406 379.888L-19.1476 377.243L-21.7926 375.259L-27.4136 370.96L-31.3816 367.323L-33.0346 366.331L-33.8626 365.641L-34.2786 365.849L-35.2706 364.526L-35.3536 364.401L-40.6396 360.048L-44.2766 357.403L-46.5916 357.072L-46.9226 355.419L-52.8746 350.79L-54.5276 349.137L-56.1806 347.814L-57.8336 346.491L-59.4866 345.83V347.814L-59.8176 348.475L-61.1406 350.128L-61.2846 350.56L-59.7386 351.63L-57.0936 354.275L-56.4326 355.598H-55.7716L-53.1266 357.251L-51.1426 359.566L-47.1746 361.881L-43.8676 364.526L-40.2306 367.502L-36.5936 370.809L-33.6176 373.124L-32.2946 376.1L-31.3026 377.092L-30.3106 380.068V381.391H-31.9636L-33.2866 380.399L-35.1536 379.258L-35.3486 381.212L-34.6876 382.204L-33.3646 382.535L-32.3726 381.874L-31.0496 381.543L-29.7266 382.866L-29.3956 385.842L-31.0486 389.149H-31.7096L-32.3706 387.826L-33.3626 388.157L-33.6936 391.794L-34.3546 395.101L-36.0076 395.432L-36.6686 394.771H-38.3216V395.432L-39.3136 397.085L-38.9826 398.738V401.053L-39.9746 403.368L-41.2976 404.029L-42.2896 402.376V400.061L-41.9586 398.738L-41.6276 396.754L-42.6196 394.439L-42.2886 392.124L-40.6356 390.801L-37.9906 386.172L-37.6596 382.535V379.559L-37.9906 377.906L-38.0506 377.486L-39.2346 376.763L-43.2026 373.456L-48.4936 370.149L-54.7766 363.866L-56.7606 362.543L-59.4056 360.559L-63.0426 358.906L-66.6796 355.599L-68.9946 352.292L-72.3016 349.647L-76.2696 347.663L-77.2616 345.679L-80.2376 344.026L-81.5606 342.042L-83.5446 341.381L-84.0226 339.708L-84.9466 341.863L-86.2696 341.532L-86.6006 339.879L-85.9216 338.013L-86.5216 337.413L-89.1666 336.09L-92.1426 334.106L-96.1106 330.799L-97.7636 327.823L-101.071 326.5L-102.724 324.516L-104.047 323.855L-105.7 322.532L-108.345 320.879L-109.337 318.895L-110.329 318.564L-110.99 317.572L-113.305 316.58L-114.297 314.596L-115.62 313.604L-117.604 310.959L-119.588 309.636L-120.911 308.313L-122.895 306.66L-126.202 304.345L-127.855 301.369L-128.15 300.189L-128.827 299.867H-128.926L-130.91 298.875L-132.24 298.062H-132.485L-132.444 297.938L-136.863 295.238L-143.146 291.27L-149.429 287.302L-158.026 281.681L-161.663 279.366L-163.931 278.032L-163.977 278.044L-166.292 276.721L-166.773 276.36L-167.284 276.059L-168.937 274.736L-170.26 273.744L-172.046 272.355L-173.824 271.062L-173.897 271.099L-176.807 268.983L-178.526 267.793H-181.833L-183.156 266.801L-183.454 266.404L-184.148 265.809L-184.809 264.597L-185.14 264.156L-185.282 263.731L-186.132 262.172L-187.785 261.18L-189.769 261.841H-192.414L-192.745 261.18V257.858L-195.721 255.874L-197.976 254.521L-198.036 254.551L-203.657 251.244L-205.393 250.252H-205.641L-210.27 247.937L-210.408 247.799L-210.659 247.679L-211.514 248.778L-212.837 249.109L-214.16 246.464L-214.103 246.066L-221.513 242.978L-222.307 242.581L-224.489 241.655L-229.449 239.01L-231.543 237.687L-235.401 235.372L-235.732 235.041L-241.401 231.734L-245.398 229.496L-249.29 227.436L-248.629 228.428L-246.314 232.396L-244.33 234.711L-241.023 237.356L-237.386 239.671L-233.087 242.647L-232.095 243.529L-231.434 243.97L-228.789 246.285L-226.474 248.93L-226.143 249.261L-225.812 249.592L-222.836 251.576L-216.553 255.213L-216.222 256.866H-218.867L-221.182 255.874L-221.761 255.419L-222.174 255.212L-227.058 251.244H-227.134L-227.795 250.748L-230.11 249.591L-231.763 248.93L-231.928 248.765L-233.747 247.938L-238.376 244.631L-241.021 242.647L-245.65 239.34L-248.957 238.017L-249.949 237.025L-251.933 235.702L-255.24 235.371L-256.563 234.379L-258.878 232.064L-261.193 227.765L-263.177 224.458L-263.413 224.033L-264.169 222.805L-264.229 222.564L-264.83 221.482L-266.483 219.498L-270.451 217.514L-273.427 216.191L-278.056 213.546V213.468L-279.048 212.885L-279.142 212.79L-281.693 211.231L-286.984 208.916L-287.645 207.593H-286.322L-283.015 208.254L-279.874 208.915H-279.378L-276.733 209.576L-272.765 210.899L-270.793 211.181L-271.017 210.285L-271.332 209.576L-272.434 207.923L-276.402 207.262L-277.725 206.27L-279.709 202.633V198.334L-279.048 196.35L-278.916 196.218L-278.718 195.689L-277.789 191.664L-277.978 191.57L-283.93 187.933L-290.213 183.965L-296.496 179.997L-305.093 174.376L-308.73 172.061L-310.998 170.727L-311.044 170.739L-313.359 169.416L-313.84 169.055L-314.351 168.754L-316.004 167.431L-317.327 166.439L-319.113 165.05L-320.891 163.757L-320.964 163.794L-323.874 161.678L-325.593 160.488H-328.9L-330.223 159.496L-330.521 159.099L-331.215 158.504L-331.876 157.292L-332.207 156.851L-332.349 156.426L-333.199 154.867L-334.852 153.875L-336.836 154.536H-339.481L-339.812 153.875V150.568L-342.788 148.584L-345.042 147.231L-345.102 147.261L-350.723 143.954L-352.459 142.962H-352.707L-357.336 140.647L-357.474 140.509L-360.643 138.993L-368.579 135.686L-369.373 135.289L-371.555 134.363L-376.515 131.718L-378.609 130.395L-382.467 128.08L-382.798 127.749L-388.466 124.442L-392.463 122.204L-396.355 120.144L-395.694 121.136L-393.379 125.104L-391.395 127.419L-388.088 130.064L-384.451 132.379L-380.152 135.355L-379.16 136.237L-378.499 136.678L-375.854 138.993L-373.539 141.638L-373.208 141.969L-372.877 142.3L-369.901 144.284L-363.618 147.921L-363.287 149.574H-365.932L-368.247 148.582L-368.826 148.127L-369.239 147.92L-374.123 143.952H-374.199L-374.86 143.456L-377.175 142.299L-378.828 141.638L-378.993 141.473L-380.812 140.646L-385.441 137.339L-388.086 135.355L-392.715 132.048L-396.022 130.725L-397.014 129.733L-398.998 128.41L-402.305 128.079L-403.628 127.087L-405.943 124.772L-408.258 120.473L-410.242 117.166L-410.478 116.741L-411.234 115.513L-411.294 115.272L-411.895 114.19L-413.548 112.206L-417.516 110.222L-420.492 108.899L-425.121 106.254V106.176L-426.113 105.592L-426.207 105.498L-428.758 103.939L-434.049 101.624L-434.71 100.301H-433.387L-430.08 100.962L-426.939 101.623H-426.443L-423.798 102.284L-419.83 103.607L-417.858 103.889L-418.082 102.993L-418.397 102.284L-419.499 100.631L-423.467 99.9703L-424.79 98.9783L-426.774 95.3413V91.0423L-426.113 89.0583L-425.981 88.9263L-425.783 88.3973L-424.791 84.0983L-423.468 83.4373L-420.9 82.5033L-420.822 82.4453L-418.413 81.4533L-414.87 79.8003L-414.539 78.4773L-416.192 77.4853L-417.184 74.8403L-416.853 73.5173L-414.869 73.1863L-413.767 74.7293L-413.133 75.5213L-411.893 75.8313L-411.562 74.5083L-410.57 74.1773L-409.247 75.1693L-407.263 75.8303L-406.932 75.1693L-407.263 71.8623L-407.924 70.2093L-408.008 69.6183L-408.254 69.5483V67.8953H-407.593L-405.609 69.2183L-402.964 69.8793V69.2183L-402.633 68.5573L-402.302 67.2343H-401.31L-400.649 67.8953L-399.988 69.5483L-398.996 71.2013L-397.343 71.5323L-396.351 66.5723L-395.69 65.9113L-393.375 64.9193L-392.052 63.9273L-390.729 63.2663L-391.06 62.2743L-392.052 61.9433L-393.705 61.3923L-394.366 61.2823L-396.681 60.4003L-397.012 60.2903L-397.523 60.0803L-401.311 58.6373L-402.634 57.9763L-406.602 55.9923L-407.925 55.3313L-410.129 54.0083L-411.892 53.0163L-412.057 52.8513L-412.884 52.3553L-418.505 49.7103L-420.158 48.3873L-422.473 43.7583L-422.804 43.0973L-422.686 42.2703L-422.804 41.4433L-421.812 39.1283L-420.489 35.8213L-419.98 35.4143L-419.827 35.1603L-419.216 34.8043L-418.834 34.4993L-418.586 34.4373L-415.858 32.8463L-412.551 30.5313L-410.898 28.8783L-409.575 25.9023L-406.599 26.2333L-404.615 25.2413L-400.647 21.2733L-397.01 19.2893L-394.034 15.9823L-391.719 15.3213L-390.727 14.3293L-388.743 11.3533L-387.09 11.0223L-386.098 11.6833H-383.783V9.69928V6.3923L-381.799 3.41629L-379.815 2.09329L-377.17 1.10129H-369.565L-367.25 0.770294L-365.597 0.109283L-365.266 -0.551697L-371.879 -3.19672L-382.129 -6.83371L-390.396 -10.8017L-394.364 -12.4547L-401.639 -13.7777L-403.292 -15.1007V-15.1557L-403.623 -15.4317V-17.4157L-402.962 -18.0767L-399.986 -18.7377H-397.671L-396.679 -18.4067L-390.727 -18.0757L-391.388 -19.7287L-391.989 -20.0497L-392.049 -20.0597L-396.348 -22.3747L-406.599 -26.6737L-409.458 -28.0357L-409.575 -27.9967L-413.543 -29.9807L-416.85 -30.9727L-419.826 -31.9647L-420.157 -33.2877H-418.504L-415.799 -32.4757L-412.222 -31.6337V-31.6177L-410.899 -31.3027L-402.963 -28.6577L-395.688 -25.6817L-390.067 -24.0287L-386.76 -23.3677L-365.267 -22.3757L-363.944 -22.0447L-362.952 -21.0527L-359.976 -17.4157L-357 -14.4397L-354.355 -12.1247L-352.04 -11.4637L-352.371 -14.1087L-353.363 -17.0847L-355.678 -20.3917L-359.977 -24.6907L-363.945 -28.3277L-365.02 -29.2367L-365.929 -29.9807L-365.992 -30.0597L-368.244 -31.9647L-372.212 -34.9407L-377.833 -39.2397L-381.47 -42.8767L-384.446 -46.1837L-386.43 -49.8207L-388.414 -55.7727L-389.359 -55.8667L-389.737 -55.7727L-391.721 -56.1037L-393.705 -57.7567V-59.7407L-393.044 -60.4017L-389.737 -60.0707V-61.3937V-66.0227L-390.068 -68.3377L-391.391 -68.9987L-391.832 -69.4397L-392.714 -69.9907L-392.494 -70.1007L-392.714 -70.3207L-392.163 -70.2657L-392.053 -70.3207L-389.408 -69.9897L-388.747 -71.3127H-387.755L-386.432 -68.3367L-385.109 -66.6837L-380.81 -66.3527L-379.818 -67.3447V-69.6597L-380.479 -69.9907L-389.076 -73.6277L-394.697 -76.6037L-401.641 -79.9107L-408.655 -82.5157L-408.915 -82.5557L-413.214 -84.2087L-415.288 -85.2007H-415.528L-420.157 -87.5157L-420.153 -87.5277L-420.818 -87.8457L-426.77 -91.1527L-432.391 -94.7897L-435.337 -96.7887L-435.367 -96.7737L-441.65 -101.073L-443.844 -102.105L-443.965 -102.065L-445.398 -102.837L-447.272 -103.719L-447.32 -103.759L-447.933 -104.049L-448.164 -104.326L-448.264 -104.38L-448.234 -104.41L-448.535 -104.771L-449.256 -105.372V-105.637L-449.587 -106.034L-449.918 -108.018L-448.265 -108.349L-444.609 -106.352ZM-348.717 -198.938H-349.709L-350.37 -197.946L-350.701 -195.631H-349.378L-348.055 -196.623L-347.724 -197.946L-348.717 -198.938ZM-343.426 -198.276H-343.757L-344.088 -197.284H-343.096L-343.426 -198.276ZM46.6774 -6.3407L48.3304 -4.35672L50.3144 -4.0257V-5.0177L48.9914 -6.3407L48.3304 -7.6637H46.6774V-6.3407ZM37.0874 -8.32471L38.0794 -7.3327L39.4024 -7.6637L38.0794 -8.98669H37.0874V-8.32471ZM33.1204 -10.6397L34.7734 -10.3087L34.1124 -11.6317H33.1204V-10.6397ZM102.559 93.5193L102.713 93.6733L103.63 93.3673L104.291 94.6903H103.694L104.873 96.1643L105.762 96.6093L105.613 96.0133H106.478L106.196 93.1883H103.881L102.558 92.8573V93.5193H102.559ZM99.5834 90.8743L99.6624 90.9533V90.0623L100.323 90.3933V91.0543H99.7624L101.071 92.3623L101.898 92.8583L102.229 90.8743L101.295 90.1263L99.5844 89.8823V90.8743H99.5834ZM130.004 170.233L132.319 173.209L133.972 172.878L133.641 171.886L130.996 169.571H130.004V170.233ZM197.128 275.053L197.459 275.714L198.12 276.375H198.451L200.435 278.359L202.419 280.178L203.742 281.335L204.403 281.996L206.056 283.649L209.032 285.633L209.002 285.573L208.701 285.302V284.971L208.37 284.31L204.843 280.783L204.733 281.003L198.45 274.72L196.797 273.728L197.128 275.053ZM192.664 277.698H192.829V277.037H192.333L192.664 277.698ZM187.208 275.053V275.714H189.192L187.906 274.061H187.208V275.053ZM183.571 272.738H185.224L186.547 273.399V272.407L184.894 271.084L183.241 271.415L183.571 272.738ZM181.256 270.423H181.917V269.762H181.256V270.423ZM181.256 269.101H182.248L181.587 267.778H180.926L181.256 269.101ZM159.763 246.616L159.322 246.175L158.771 245.955L153.811 240.995L151.166 238.68L149.084 236.39L147.859 236.696L148.19 238.349L151.166 240.994L153.811 243.309L156.456 245.293L158.109 245.954V246.615L158.605 246.946H158.77L160.423 247.938L159.763 246.616ZM142.569 239.341L143.892 240.002L145.215 241.655L148.191 243.97L152.159 246.615L156.127 249.922L159.103 251.906L162.41 254.551L166.378 257.527L171.338 261.164L173.983 264.14L175.967 263.479L175.636 262.818L173.652 261.495L172.329 259.842L170.014 257.858L167.038 254.221V253.659L166.707 253.229L165.384 252.568V251.907L163.4 251.246L165.384 253.561L164.392 253.892L163.731 253.231H163.4L163.235 252.735L163.07 252.57L161.086 251.578L159.102 249.925L155.795 247.28L153.15 244.965L150.174 242.981L145.875 240.666L143.891 238.351H142.568V239.341H142.569ZM142.899 231.736V230.744L140.254 228.099H139.593L139.924 230.083L141.247 231.736H142.899ZM138.27 235.704L138.601 236.365L140.254 236.696L140.585 234.712L139.262 233.72H138.27V235.704ZM139.262 278.359L143.561 282.327L143.23 280.343L141.907 279.351L138.931 277.698L139.298 277.514L139.063 277.367H138.269L136.946 276.375L139.262 278.359ZM130.665 267.778H132.318V268.77L133.31 269.431L134.633 269.762V268.439H133.972L132.319 267.778V266.455L130.666 266.124L130.513 265.946L130.004 266.455L130.665 267.778ZM118.761 257.528L120.414 258.851L120.249 258.934L120.309 258.988L120.745 259.182L122.398 260.505L122.625 261.073L122.728 261.166L123.059 261.331L123.39 261.166L126.366 262.819L128.019 263.811L127.771 265.299L128.019 265.795H130.334L128.681 263.811L125.374 260.835L125.43 260.666L125.081 260.412L124.712 260.504L122.445 258.803L121.736 258.52V258.272L120.744 257.528L117.437 255.544L117.826 255.447L117.437 255.214L116.908 254.817L117.106 255.214L116.445 254.883L115.122 254.552L118.761 257.528ZM146.206 376.566L148.19 377.227L148.521 377.888L149.844 379.541V378.88L149.91 379.078L150.024 378.278L149.954 377.997L149.513 377.556L148.521 377.225V377.115L147.86 376.895L147.199 374.911L145.876 374.58L145.545 373.919L145.178 373.735L144.884 374.911L146.206 376.566ZM139.923 389.462L140.386 389.925L140.584 389.131L139.923 388.8V389.462ZM139.923 370.283V371.936H140.254H140.585L142.569 371.605L142.238 370.282L141.246 369.951L139.923 368.849V369.621L138.931 369.952L139.923 370.283ZM138.27 372.267L138.931 372.047V371.606H138.27V372.267ZM134.633 378.55L135.749 379.666L136.617 379.542L135.956 377.227H137.609V374.582L137.014 374.185L136.617 374.582V376.897L134.633 377.228V378.55ZM130.004 371.606L130.959 372.561L131.988 372.267L132.319 370.944L133.687 372.084L133.972 370.944L135.956 372.597H136.948H137.279V371.605H135.626L135.336 369.863L134.304 369.716V369.952L131.989 369.621L131.448 368.9L130.005 369.621V371.606H130.004ZM125.705 367.638L127.255 367.948L127.358 367.638L127.437 367.654L127.689 366.646H127.028L125.705 366.977V367.638ZM124.052 376.566V376.235L123.91 376.141L124.052 376.566ZM121.328 371.291L121.407 371.275L121.155 370.267L121.076 370.283L121.328 371.291ZM119.753 366.646L121.076 366.793V365.654L120.782 365.507L119.753 365.654V366.646ZM117.438 369.622L117.521 369.643L118.43 368.961V368.382L117.438 368.63V369.622ZM117.438 364.332L117.816 364.521L118.099 364.332L117.855 363.601L117.437 363.671V364.332H117.438ZM114.462 366.977L115.312 367.544L115.454 366.977L114.462 366.779V366.977ZM113.801 365.324V364.993L113.08 364.512L112.809 365.324H113.801ZM33.1204 341.846L34.7734 343.169H35.7654L35.4344 341.846L33.7814 340.193L33.8414 340.163L33.8164 340.141L33.2944 339.932L33.1504 339.953L32.7894 340.193L33.1204 341.846ZM32.3114 345.227L32.4584 344.492L32.3484 344.382L32.1284 344.492L32.3114 345.227ZM32.4584 335.895V334.903L33.7814 334.572L33.9464 334.076L33.7814 333.58L32.4974 332.51L31.4664 334.572L32.4584 335.895ZM-271.326 188.75L-270.847 188.527L-271.672 187.938L-275.309 185.293L-275.97 185.624L-273.655 187.939L-273.324 188.27L-272.561 189.261L-271.326 188.75ZM-270.978 182.245L-269.72 183.144L-270.098 182.137L-269.767 180.814L-269.357 180.746L-270.986 179.525L-270.429 181.476L-270.978 182.245ZM-91.2086 287.287L-90.8776 287.397V287.121L-91.2086 287.287ZM-89.2246 288.94H-88.7996L-89.1056 288.702L-89.2246 288.94ZM107.188 236.365L105.865 237.026L106.196 238.018L107.519 237.687L107.188 236.365ZM109.833 239.984V239.672L109.511 239.626L109.833 239.984ZM107.913 239.453L108.12 240.904L108.852 240.66L107.913 239.453ZM93.6314 216.195H92.9704L90.6554 216.526L89.9944 217.518L90.9864 218.51H93.6314V218.841L95.6154 218.51L95.9464 217.187L93.6314 216.195ZM96.1114 213.384L96.2764 213.549L97.5994 213.218L96.4974 210.463L95.9464 209.912H95.2854V212.557L95.4504 212.722L95.9464 212.887L96.1114 213.384ZM89.0724 202.354L89.0804 202.359V202.322L89.0724 202.354ZM77.0984 113.689L77.4814 113.842L77.0984 113.459V113.689ZM77.8384 126.103L78.4084 127.243L78.4204 127.246V125.923H77.6584L77.8384 126.103ZM-166.27 247.277L-165.609 249.261L-163.625 249.592L-163.512 249.138L-163.547 249.11L-165.796 247.424L-165.862 247.457L-166.271 247.139V247.277H-166.27ZM-157.011 255.213L-155.027 256.205V254.591L-155.409 254.348L-155.358 254.552H-156.681V253.539L-156.712 253.519L-158.84 252.455L-158.995 253.229L-157.011 255.213ZM84.0424 204.622H85.0344V203.63H84.3734L84.0424 204.622ZM67.8394 124.932H67.1784L66.8474 126.255H67.5084L67.8394 124.932ZM-33.6736 -41.3527L-35.0466 -42.3827H-35.9886L-35.3276 -41.3907L-33.6746 -40.7297L-33.6736 -41.3527ZM-146.761 -123.726L-145.108 -122.073L-144.477 -121.442L-144.699 -123.217H-145.36L-146.683 -124.209L-149.5 -126.181L-149.407 -126.042L-146.761 -123.726ZM-133.289 -114.516L-134.085 -115.129H-134.195V-115.214L-136.431 -116.934L-139.407 -118.918L-142.052 -120.902L-143.7 -120.667L-142.792 -119.759L-142.461 -119.428V-118.803L-142.13 -118.436L-138.823 -115.46L-134.194 -113.145L-132.871 -113.476L-133.289 -114.516ZM-250.179 171.735V172.396L-249.653 172.847L-249.848 172.065H-248.856L-247.794 172.861L-247.411 172.697L-248.855 171.734L-249.068 171.467L-249.419 171.209L-249.516 171.403L-250.179 171.735L-250.51 170.412L-250.841 171.404L-251.006 171.459L-250.179 171.735ZM-251.833 169.751L-252.164 169.09L-252.263 168.892L-252.415 168.805L-252.826 169.421L-252.528 169.867L-251.833 169.751ZM76.4724 192.7L77.0974 192.387L76.1774 191.237L75.7244 190.784L75.1134 191.395L76.2564 192.538L76.4724 192.7ZM-161.751 250.433H-161.893L-161.972 250.37V251.576L-160.319 251.907L-160.236 251.494L-161.751 250.433ZM-167.646 246.068L-168.36 245.549L-168.585 245.624L-168.254 246.947L-166.939 246.618L-167.646 246.068ZM78.7514 147.417H79.3124L78.8454 146.95L78.7514 147.417ZM87.3484 214.872L86.7534 214.277L86.6044 214.211H85.3644L84.3724 213.55L82.4664 212.461L82.2394 212.423L83.4594 213.399L87.7104 216.669L87.9624 215.156L87.8444 215.038L87.3484 214.872ZM87.6794 201.315L88.0104 200.323H87.6794V201.315ZM104.212 234.712H103.881L102.228 235.043L102.724 236.531L103.22 237.027L105.204 235.704L104.212 234.712ZM92.9694 229.421L92.3084 228.098H91.8264L92.3874 228.939L92.8954 229.384L92.9694 229.421ZM79.5224 210.537L78.5854 209.912H77.4284L77.7594 211.235L78.7624 211.402L79.1604 211.084L79.6074 211.158L79.4124 210.573L79.5224 210.537ZM-138.163 263.149H-138.824L-140.08 262.311L-139.737 262.997L-138.163 263.784V263.149ZM-280.6 -222.415H-281.261V-223.076L-282.914 -224.399L-285.559 -226.714L-289.858 -230.021L-291.167 -230.917L-291.842 -231.013L-294.157 -232.666L-297.133 -234.319L-296.472 -233.327L-293.827 -231.012L-292.174 -229.359L-289.859 -227.044L-289.528 -226.713V-226.088L-289.197 -225.721L-285.89 -222.745L-281.261 -220.43L-279.938 -220.761L-280.6 -222.415ZM-180.74 -148.677L-182.063 -149.669H-183.055L-182.394 -148.677L-180.741 -148.016V-148.677H-180.74ZM-168.175 -139.749L-173.466 -143.386L-177.103 -145.701L-176.772 -145.04L-173.135 -142.064L-168.506 -138.427L-167.49 -137.615H-165.328L-168.175 -139.749ZM-27.7726 -68.8867L-27.3916 -68.5057L-25.1486 -66.8237L-26.6516 -68.3267L-27.7726 -68.8867ZM-24.7466 -66.5217L-22.6436 -64.9797L-23.3446 -65.6807L-24.7466 -66.5217ZM-9.4566 -56.4217L-10.7796 -58.4057L-12.4326 -59.0667V-60.0587L-13.0936 -60.7197L-14.4166 -60.3887L-14.0856 -59.0657L-12.4326 -58.0737L-10.4116 -55.7647L-10.1966 -55.6087L-10.0176 -55.4297H-9.4566V-56.4217ZM27.1684 -11.3007L25.8454 -11.9617L25.5144 -11.3007L26.5064 -10.3087L27.8294 -9.97769L27.1684 -11.3007ZM25.5144 -7.00171H27.1674L27.4984 -7.3327L26.8374 -8.6557H25.1844L25.5144 -7.00171ZM22.2084 -9.64771L23.8614 -9.31671L23.5304 -10.6397H22.2074V-9.64771H22.2084ZM21.8774 -13.9457H22.8694L21.8774 -14.9377H21.2164L21.8774 -13.9457ZM6.66739 -23.5347L7.99039 -22.8737V-23.8657L7.32941 -24.5267H6.6684V-23.5347H6.66739ZM87.0174 93.8503L86.3564 93.1893L85.3644 93.5203L85.6954 94.5123L87.0184 94.8433V93.8503H87.0174ZM94.2924 78.9703H93.6314V79.9623L94.6234 80.2933L94.2924 78.9703ZM84.7034 138.82L86.0264 139.481V138.82H85.6954L85.2704 138.253L84.9684 138.026L84.7034 138.158V138.82ZM82.7194 136.836L84.0424 137.497L83.7114 136.174H82.7194V136.836ZM77.4284 134.852L77.7594 135.183V134.852L78.0904 135.183L79.7434 135.844L80.0744 135.183L79.4134 133.53H77.4294V134.852H77.4284ZM73.4604 132.207L74.1214 132.868H75.7744L76.1054 131.215L75.1134 130.223L73.4604 130.554V132.207ZM70.4844 130.884V129.892L69.8234 129.231H69.1624L69.4934 130.884H70.4844ZM89.9934 195.694L87.6784 195.363L86.9064 194.849L86.0244 194.702V195.264L86.4654 195.768L88.0084 196.025L89.6614 197.678H89.3304L91.6454 198.009L91.9764 197.017L89.9934 195.694ZM119.092 190.072L114.463 186.104L114.563 186.054L114.042 185.653L113.801 185.773L112.478 184.781V185.773L112.875 185.905L113.14 185.773L113.471 186.104L116.557 188.749L117.769 189.741L117.934 189.93L118.099 190.072L118.347 190.403L118.879 191.011L119.752 191.725L121.405 192.386L119.092 190.072ZM134.302 231.736L135.294 232.397L135.955 232.066L135.294 230.743H134.302V231.736ZM129.012 229.752L130.996 230.413L132.319 232.397H132.98L132.649 230.413H133.31V229.421L132.649 228.098L130.004 226.114H129.343L128.682 227.106L128.021 228.759L129.012 229.752ZM122.729 223.139L123.06 221.816L121.737 222.147L122.729 223.139ZM114.793 217.517L116.116 217.848L115.785 216.525H114.462L114.793 217.517ZM102.228 208.59L104.873 210.905L106.098 212.403L108.51 214.212L110.163 214.543V211.567L110.824 211.236L111.485 209.913H112.146L115.122 211.897L115.232 212.007L115.783 212.227V212.558L116.114 212.889L119.09 214.873L119.751 216.196L122.066 216.527L124.711 218.511L128.018 219.172L129.01 219.833L130.002 222.148L131.655 221.156L131.853 221.222L131.985 221.156L132.646 221.487L134.299 223.471V225.455L136.614 225.786L136.945 224.794L135.622 223.471L132.977 221.156L131.324 219.172L131.474 219.022L131.324 218.842L128.017 216.858L124.71 213.551L121.403 210.906L118.096 209.253L117.765 208.592L116.442 207.269L116.69 207.186L116.442 206.938L114.127 207.599L110.82 204.623L111.051 204.546L109.875 203.631H109.497L108.174 202.639L106.19 201.316V201.25L104.867 200.324L104.272 199.729L103.875 199.828L103.214 200.324L101.23 199.663L100.899 198.01H100.238L99.9074 197.018L97.9234 196.687L97.6754 196.439L95.6084 196.026L95.9394 197.679L99.9074 200.324L101.891 202.639L103.544 203.631L107.843 206.276L108.174 207.599L105.529 207.268L105.198 208.591H103.875L103.214 208.308L102.883 208.261L102.846 208.151L101.56 207.6L102.228 208.59ZM98.5914 204.952H100.244L101.897 204.621L101.236 203.298L98.5914 201.975L98.2604 201.314L96.6074 200.653L95.9464 199.992L93.3014 198.339H92.6404L92.3094 199.992L93.3014 200.653L93.9624 202.306L92.3094 202.637V201.645L91.6484 201.314H89.3334L89.1274 202.14L90.0744 201.824L90.7354 202.485L90.5744 202.967H91.9784L92.6394 204.29L92.6654 204.311L92.3874 203.478H93.0484L93.7094 204.139L92.8204 204.435L94.2514 205.58L96.9374 205.282V204.29L95.9454 203.629L94.9534 201.976L97.2684 203.299L98.5914 204.952ZM111.487 228.429L109.834 226.776L107.519 225.123L105.866 224.462L104.213 223.47L101.568 221.817L100.576 220.164L97.9314 219.503L97.7664 219.834L97.6014 220.495L95.9484 221.156V222.148H96.9404L97.9324 223.471L98.5234 226.132L98.9244 226.447H99.9154L100.246 224.794L101.899 225.455L102.119 225.896L102.229 225.951L102.56 225.786L102.891 226.117L103.552 228.101H104.213L106.858 229.424L107.189 230.416L108.512 229.755L111.819 229.424L111.487 228.429ZM114.132 244.632V243.971L113.471 243.31H113.14L112.479 242.649L111.193 242.906L111.235 243.158H110.621L110.164 244.301L111.487 244.962L114.132 244.632ZM28.8214 339.201L29.9884 340.135L30.8054 339.863L30.4744 338.54L29.1514 337.548L29.4054 337.421L29.1514 337.218L28.8204 337.549V339.201H28.8214ZM28.1604 322.668L29.2844 323.792L29.4824 322.998L28.1594 322.006V322.668H28.1604ZM24.0264 353.089L24.1404 352.631L23.8904 352.548L24.0264 353.089ZM22.1604 319.503L22.2074 319.361L22.0834 319.196L22.1604 319.503ZM-4.60861 331.232L-4.58762 331.23L-4.7966 330.604L-4.90662 330.935L-4.60861 331.232ZM-21.5966 341.695L-22.1006 340.854L-22.1156 340.845L-21.6906 341.695H-21.5966ZM-41.8616 337.727V338.388H-41.2006V339.049H-40.5396L-39.5786 340.01L-38.3036 340.192L-38.6346 338.869L-41.9416 336.224L-42.5386 335.802L-43.5156 335.411L-43.1846 336.403L-42.5236 337.726L-41.8616 337.727ZM-69.0546 305.804L-68.3456 306.749L-68.7236 305.804H-68.0626L-65.4176 307.457V308.118H-64.7566L-62.7726 309.441V310.102H-62.1116L-61.7806 310.763L-62.4416 311.424L-65.7486 309.44L-67.3686 308.051L-67.0706 308.448L-65.4176 310.101L-62.1106 312.416L-58.8036 315.061L-57.8116 316.714L-55.8276 317.706L-52.4626 319.869H-50.1276L-46.1596 322.184L-46.0816 322.176L-47.4506 321.123L-49.8756 319.36L-51.1986 318.037L-51.7276 317.772L-52.5216 318.037L-52.6866 317.706H-52.8516L-53.5126 315.722L-55.1656 314.399L-58.8026 311.754L-62.7706 308.778V308.702L-63.1016 308.448L-62.9596 308.306L-65.1516 306.662L-65.4166 306.794L-69.0536 303.818L-68.9506 303.715L-69.4276 303.344L-69.7156 303.488L-69.8716 303.352L-69.0546 305.804ZM-103.113 279.021V279.682L-102.587 280.133L-102.782 279.351H-101.79L-100.467 280.343L-100.151 281.924L-99.1446 282.327L-98.7476 283.121L-97.8216 282.989L-97.2776 283.478L-96.1676 283.319L-93.1916 285.964L-92.8606 289.271L-92.1996 289.932L-89.5546 290.924L-85.5866 293.569L-80.6266 297.537L-79.3036 298.198L-78.6426 298.529L-76.9896 300.182L-73.3526 303.158L-73.2496 303.179L-73.0226 302.497L-71.6996 302.828L-71.5346 303.159L-71.3696 302.828H-70.4716L-72.3616 301.175L-72.2786 301.092L-74.0976 299.604L-75.3376 298.86L-76.8806 297.574L-76.6596 297.868H-77.6516L-78.4636 297.327L-77.9826 297.868L-79.3056 298.199L-83.2736 294.892L-89.8866 289.601L-92.5316 288.278V286.625L-91.9366 286.327L-94.1856 284.641L-98.4846 281.334L-100.138 280.122L-101.791 279.02L-102.004 278.753L-102.355 278.495L-102.452 278.689L-103.113 279.021L-103.444 277.698L-103.775 278.69L-103.94 278.745L-103.113 279.021ZM-105.461 277.152L-104.767 277.036L-105.098 276.375L-105.197 276.177L-105.349 276.09L-105.76 276.706L-105.461 277.152ZM-152.713 257.858L-151.39 259.511L-148.745 261.164L-145.438 263.479L-142.462 265.794L-137.502 269.101L-130.889 274.392L-127.252 277.368L-123.209 280.256L-126.181 277.878L-127.059 277.16L-127.173 277.217L-129.818 274.902L-131.141 272.587L-131.802 270.934H-130.81L-129.818 271.595V272.256H-129.157L-128.165 273.083L-126.181 274.571L-126.071 274.736L-124.925 275.596L-124.859 275.563L-123.206 276.886L-123.092 277.023L-121.442 278.319L-119.828 279.56L-120.308 278.36L-118.655 278.029L-118.986 277.368L-121.301 275.715L-126.592 272.078L-132.544 268.11L-134.859 266.126L-135.571 265.628L-134.78 266.306L-132.465 269.282L-132.796 270.605L-134.78 269.944L-138.087 267.299L-139.542 266.109L-142.34 263.97L-142.386 263.993L-149.33 258.702L-151.949 256.781L-152.054 257.2H-152.715V257.858H-152.713ZM-152.713 256.536V256.217L-153.873 255.366L-153.705 256.205L-152.713 256.536ZM-113.364 295.223L-115.017 293.57L-119.316 290.263L-124.607 286.295L-128.906 283.319L-132.213 281.004L-135.255 279.366L-135.383 280.388L-134.528 280.673L-132.544 282.988L-129.237 285.303L-124.277 289.271L-119.648 292.578L-116.011 295.223L-113.052 297.106L-113.364 295.223ZM-111.049 297.868L-110.822 298.55L-110.719 298.529L-111.049 297.868ZM-117.253 307.306L-114.277 309.621L-112.293 311.936H-110.64L-108.987 312.267L-108.326 313.92L-105.681 315.904L-102.374 318.88L-99.0666 321.195L-96.0906 323.84L-94.1066 324.501V322.848L-92.4536 323.179L-91.7926 324.502L-92.7846 324.833L-92.4536 325.825L-91.4616 326.817L-87.4936 329.793L-86.1706 331.777L-84.1866 333.43L-78.2346 337.729V338.39L-76.5816 339.051L-72.2826 342.688L-67.9836 346.656L-64.2216 348.537L-63.7636 347.469L-62.4406 344.824L-62.1096 343.501L-63.1016 342.84L-67.0696 339.533L-71.0376 336.557L-75.3366 333.25L-81.2886 328.951L-84.9256 325.975L-86.5786 325.644L-87.2396 324.652L-88.8926 322.999L-92.5296 320.354L-97.8206 316.386L-102.45 312.749L-107.741 308.781L-108.594 308.059L-108.654 308.299L-109.977 308.63L-110.969 307.969L-112.292 305.654L-112.953 305.323L-114.276 304L-113.661 303.846L-115.347 302.498L-118.323 300.183V300.032H-118.905L-120.889 299.371L-125.178 296.958L-123.66 298.932L-122.455 300.287L-120.591 301.918L-119.896 301.686V302.347L-120.305 302.211V302.829H-119.644L-119.313 303.49L-119.407 303.773L-119.313 304.151L-119.578 304.283L-119.644 304.481L-119.794 304.391L-119.974 304.481L-120.966 303.687L-121.297 303.489L-122.141 303.067L-117.253 307.306ZM-127.705 294.109L-128.605 292.759L-128.905 292.909L-127.705 294.109ZM-276.453 177.911L-275.719 177.177H-274.32L-275.971 176.034L-279.278 173.719L-283.302 171.552L-283.325 171.555L-283.359 171.521L-283.577 171.404L-285.12 170.522L-284.9 171.404L-283.577 172.727L-281.593 173.388L-279.609 175.703L-276.453 177.911ZM-304.077 147.927L-302.093 148.919V147.266H-301.101L-300.77 148.919L-299.778 149.25V148.589H-298.786L-299.117 149.912H-299.778V150.573L-298.455 152.226L-295.81 153.879L-292.503 156.194L-289.527 158.509L-284.567 161.816L-277.954 167.107L-274.317 170.083L-269.688 173.39L-267.081 175.194H-266.129L-265.798 175.525V176.082L-265.389 176.366V177.358H-266.05L-266.173 177.272L-267.121 177.509L-268.113 176.517L-267.985 176.004L-269.357 175.044L-273.656 171.737L-278.947 167.769L-281.262 166.446L-284.569 163.801L-286.222 163.14L-288.867 161.487L-292.174 159.172L-294.489 157.849L-295.15 156.526L-296.473 156.195L-297.796 155.864L-298.457 154.872L-301.102 153.549L-300.441 155.202L-297.796 156.194L-297.135 157.847L-295.482 159.17L-292.837 161.485L-291.184 162.808L-287.547 165.123L-284.284 167.884L-283.989 167.589H-282.336L-280.683 169.242L-280.897 170.525L-279.282 171.736L-274.983 175.043L-264.715 182.744L-264.481 181.807L-263.489 181.476L-262.166 182.468L-260.182 183.129L-259.851 182.468L-259.913 181.845L-260.433 181.325L-261.094 180.002L-260.433 179.671L-260.136 179.612L-260.181 179.161L-260.842 177.508L-260.926 176.917L-261.172 176.847V175.194H-260.511L-258.527 176.517L-256.715 176.97L-257.125 176.697L-261.424 173.39L-264.731 171.406L-265.062 173.059L-266.715 172.728L-267.376 171.075L-265.723 170.744L-266.054 170.083L-268.369 168.43L-273.358 165L-274.73 165.275L-275.722 164.614L-275.946 163.269L-279.611 160.826L-281.926 158.842L-285.233 156.527V155.866H-285.894L-288.87 153.882L-291.846 151.898L-293.83 150.575L-295.153 149.914L-300.444 147.269L-301.105 146.938L-301.646 146.307L-302.097 145.946L-304.081 144.954L-305.734 144.293L-306.065 145.946L-304.077 147.927ZM-309.037 144.29L-307.384 144.621L-307.053 142.968L-308.376 141.976H-309.037V144.29ZM-313.336 139.991L-312.675 141.975L-310.691 142.306L-310.36 140.983L-312.344 139.33H-313.336V139.991ZM-315.32 139.661L-313.997 139.33L-314.658 138.007L-315.65 138.338L-315.32 139.661Z" fill="white"/>
</svg>
