<svg width="37" height="37" viewBox="0 0 37 37" fill="none" xmlns="http://www.w3.org/2000/svg">
<path fill-rule="evenodd" clip-rule="evenodd" d="M30.3955 5.07415C30.6866 5.06398 30.9699 5.16988 31.1829 5.36856C31.396 5.56723 31.5214 5.84241 31.5316 6.13354L31.9916 19.3063C32.0017 19.5974 31.8958 19.8807 31.6971 20.0937C31.4985 20.3068 31.2233 20.4322 30.9322 20.4423C30.641 20.4525 30.3578 20.3466 30.1447 20.1479C29.9317 19.9493 29.8063 19.6741 29.7961 19.383L29.4286 8.86012L7.93147 31.9153C7.83297 32.0209 7.71463 32.1061 7.58321 32.166C7.45179 32.2259 7.30986 32.2593 7.16552 32.2644C7.02118 32.2694 6.87727 32.246 6.74199 32.1954C6.60671 32.1448 6.48271 32.0681 6.37709 31.9696C6.27146 31.8711 6.18627 31.7527 6.12638 31.6213C6.06649 31.4899 6.03306 31.348 6.02802 31.2036C6.02298 31.0593 6.04642 30.9154 6.097 30.7801C6.14758 30.6448 6.22431 30.5208 6.32281 30.4152L27.8222 7.36214L17.2994 7.72961C17.0083 7.73977 16.725 7.63387 16.512 7.4352C16.2989 7.23652 16.1735 6.96135 16.1634 6.67021C16.1532 6.37908 16.2591 6.09583 16.4578 5.88277C16.6564 5.66972 16.9316 5.54432 17.2228 5.53415L30.3955 5.07415Z" fill="#181713"/>
</svg>
