<svg width="1440" height="126" viewBox="0 0 1440 126" fill="none" xmlns="http://www.w3.org/2000/svg">
<path d="M1440 90.292C1439.74 90.3107 1439.47 90.3377 1439.18 90.3779L1437.39 92.8848L1436.05 90.3779H1433.37L1434.27 89.124C1432.79 88.3048 1433.65 86.9837 1433.37 85.7822C1433.3 85.4664 1432.59 85.2858 1432.48 84.9463C1432.13 83.8177 1434.35 83.3852 1432.04 82.0215L1431.59 83.6924C1429.71 83.8562 1428.96 81.8326 1427.57 83.6924C1426.66 82.4098 1425.12 82.9149 1423.56 82.8564L1421.77 79.5146L1424.9 82.0215H1425.79L1428.02 80.3506L1425.34 79.9326C1425.98 78.6868 1424.45 77.5695 1424.45 77.4258C1424.45 77.2619 1426.02 76.0119 1425.34 74.501C1422.91 73.8021 1418.13 73.4164 1418.2 70.3232H1416.42L1418.2 68.2344L1417.31 65.7275L1419.09 65.3096L1417.31 62.3848L1418.2 60.7139L1416.42 57.3711L1418.2 54.4473L1415.52 56.9531L1412.85 54.4473L1413.29 52.7764L1417.31 53.6113C1417.6 51.8039 1415.67 51.0325 1414.63 49.8525C1415.26 49.1244 1416.73 48.4521 1416.42 47.3457C1415.62 44.5953 1413.04 48.3965 1411.95 48.5986C1412.1 46.9175 1411.34 45.0232 1412.85 44.0029C1412.43 43.5661 1411.91 43.1953 1411.51 42.749C1410.15 41.2555 1412.82 42.445 1412.85 41.4961L1407.49 40.2422C1407.58 37.8906 1407.95 36.222 1405.71 34.8115C1407.28 33.8609 1406.31 32.1155 1406.6 30.6338C1406.66 30.303 1407.98 29.8878 1407.49 28.5449H1404.81V26.874C1403.66 26.7648 1402.35 27.0434 1401.24 26.874C1401.3 27.8895 1400.01 28.1626 1399.46 28.5449C1399.37 28.6106 1399.44 29.8564 1397.67 29.3809L1398.57 32.7227H1395L1397.67 34.8115C1396.84 35.8096 1395.98 36.4214 1394.55 36.0645C1392.44 35.5379 1394.21 33.6368 1394.1 33.5576H1391.43L1390.53 38.5713C1392.33 38.4352 1394.35 39.1427 1395.44 37.7354C1396.64 38.3242 1396.5 39.2575 1396.78 39.8242C1397.14 40.5532 1398.38 40.3934 1396.78 41.4951L1397.67 42.748H1395.44L1394.1 44.002L1395 49.4326H1396.78V52.7744H1400.35C1397.93 55.631 1401.09 56.11 1401.24 58.623L1404.37 57.7871L1406.6 59.458L1403.92 59.876L1404.81 61.5469C1403.44 62.4049 1403.98 63.8407 1403.92 65.3066C1401.49 65.6919 1399.69 63.0517 1397.67 65.7246L1401.24 66.9775H1396.78L1398.57 69.4844L1393.21 70.3203C1393.87 68.7493 1392.06 67.4257 1392.32 66.5605C1392.42 66.2329 1393.1 66.0602 1393.21 65.7256C1393.37 65.2476 1393.1 64.6134 1393.21 64.0547L1392.32 61.9658C1390.04 63.9499 1388.24 63.7942 1385.18 63.6367L1386.07 58.623L1384.29 58.2051L1387.86 56.9521L1386.07 54.0273L1386.96 53.1914L1386.07 49.4316L1384.29 50.2666V47.7598C1382.65 47.9505 1381.69 47.7923 1380.71 46.5068L1383.39 44L1381.61 40.2402L1379.38 41.0762C1377.66 40.287 1378.36 38.8162 1378.04 38.1514C1376.87 35.7137 1376.23 33.3008 1374.47 31.4678L1375.36 30.6318L1374.02 29.3789L1372.24 30.2148L1371.34 29.3789C1369.83 31.2097 1366.62 29.2198 1365.1 31.0498L1361.53 28.543L1360.19 29.3789V24.3652C1362.42 24.7902 1363.26 23.7034 1364.65 22.2764L1362.87 19.3516H1361.53L1361.97 17.6807L1358.41 18.5156L1361.08 22.6934L1358.41 21.4395V21.0215C1356.9 19.7519 1353.37 24.9135 1357.51 24.3643L1355.73 25.2002C1357.98 28.0433 1353.54 30.6618 1357.51 33.1377L1356.17 34.3906L1354.39 33.5547L1353.05 34.8076L1353.94 36.0605L1349.93 37.7314C1348.57 35.9554 1347.29 35.8469 1345.02 36.0605V34.3896H1341.45L1342.34 30.6299L1341.45 28.541H1337.88V26.8701H1336.09V28.541H1334.31V30.2119H1336.09C1336.58 31.5543 1335.26 31.9739 1335.2 32.3008C1334.9 33.917 1334.87 37.1552 1336.09 38.1494C1334.05 39.2061 1335.01 41.7097 1332.52 41.0742L1334.31 41.9102L1333.42 43.999L1334.31 44.834L1333.42 47.7588H1335.2L1334.31 51.1016C1331.72 50.3734 1331.32 52.8584 1328.96 52.7725L1330.74 51.9365V49.4307H1328.06L1328.96 47.7598H1323.6L1324.49 50.2656L1320.03 51.1016V48.5947H1322.71L1316.46 46.9238C1316.38 46.1104 1316.6 45.1942 1316.46 44.418C1315.3 43.8782 1315.63 43.6042 1315.57 43.582C1315.2 43.4419 1313.7 43.313 1313.78 44L1312.89 49.4307L1306.65 48.5947L1307.54 51.1016H1302.18C1302.6 53.0776 1301.45 54.4686 1299.51 55.2783V53.6074L1295.94 52.7725L1299.51 51.9365L1300.4 46.5059L1302.18 46.0889L1301.74 44.418L1298.61 43.582L1303.07 41.9111H1298.61V40.6582L1296.83 40.2402C1297.52 41.6981 1295.93 43.0098 1295.93 43.1641C1295.95 43.3944 1297.32 43.9535 1296.83 45.2529L1298.61 45.6709L1295.93 48.1777L1298.61 49.0137L1294.15 49.4316V52.3564L1292.36 52.7744L1295.04 55.2813L1289.69 54.4453L1291.47 58.2051L1289.69 59.458L1289.24 56.9512C1288.14 58.0973 1287.45 58.9696 1285.67 58.6221L1284.78 61.1289C1282.75 59.7445 1283.83 59.4729 1285.23 58.2041C1283.75 55.893 1281.42 56.5695 1279.87 54.8623C1281.14 54.0122 1281.25 52.5035 1279.87 51.5205H1282.55L1277.19 48.5957L1278.98 47.7598C1278.91 47.0776 1279.1 46.3016 1278.98 45.6709C1278.87 45.1284 1277.53 45.3079 1278.98 43.582L1275.86 44.418L1274.52 41.9111L1274.07 44.418H1272.73L1271.84 49.4316H1273.62C1271.96 50.8619 1273.04 53.8863 1274.96 54.4443C1275.84 54.6981 1277.44 53.7545 1277.19 55.2803C1275.41 55.1457 1275.32 56.5576 1273.62 55.2803L1272.73 56.9512L1272.29 53.6094C1270.57 55.198 1267.06 55.0382 1267.38 57.7871C1265.93 58.243 1265.55 57.0422 1265.15 56.9512C1264.35 56.7749 1263.22 57.1426 1262.47 56.9512C1261.14 56.6124 1260.26 52.3038 1258.45 51.5205L1261.58 52.7734L1263.36 51.9385C1265.15 53.8714 1266.25 54.9361 1269.16 54.4453C1269.3 53.0974 1269.33 50.6554 1267.83 50.2676C1267.08 50.0752 1265.94 50.4433 1265.15 50.2676C1264.8 50.1896 1264.6 49.4961 1264.26 49.4326C1263.34 49.2609 1262.13 49.541 1261.13 49.4326C1262.27 47.795 1262.43 47.3522 1260.69 46.0898L1258.01 48.5967C1257.34 47.6001 1254.21 45.558 1253.99 44.8369C1253.82 44.2853 1254.2 43.5832 1253.99 43.166C1253.42 42.012 1251.9 40.8144 1252.21 39.4063C1251.62 39.3754 1251 39.4727 1250.42 39.4063C1250.54 38.9575 1250.36 38.2743 1250.42 37.7354H1248.64V39.4063C1249.22 39.437 1249.85 39.3398 1250.42 39.4063C1250.15 40.3797 1249.3 40.8098 1248.64 41.4951L1249.08 43.584C1248.44 42.3358 1246.94 42.2289 1246.41 41.9131C1244.57 40.8255 1245.02 37.687 1241.5 38.5703C1241.99 37.304 1240.61 36.6564 1240.61 36.4814C1240.61 36.2399 1242.65 34.6435 1240.61 32.7217L1242.39 31.0508L1239.27 31.8867L1240.61 29.7979C1239.12 28.6549 1238.14 26.6049 1236.14 26.873L1237.03 22.2783C1235.41 20.9288 1235.74 18.1061 1235.25 16.4297C1235.13 16.0244 1233.84 15.3073 1233.46 14.7588L1231.23 16.0117L1231.68 13.5049C1230.79 13.4899 1229.89 13.5294 1229 13.5049C1229.04 12.9667 1229.07 12.3627 1229 11.834C1229.99 11.9902 1230.89 13.2128 1232.57 12.6699V10.1631L1228.11 9.32715C1228.76 10.3331 1228.84 10.6712 1229 11.834C1227.91 11.6622 1226.58 11.9448 1225.43 11.834V13.5049C1226.61 13.5263 1227.82 13.4716 1229 13.5049C1228.97 14.0549 1229.02 14.6241 1229 15.1758H1224.54L1229.89 20.6064L1227.66 25.2021L1225.43 24.3662L1224.54 26.4551L1226.33 26.873L1225.43 28.9619L1221.42 27.709L1219.63 26.0381L1217.4 25.6201L1222.31 25.2021C1224.38 23.6959 1225.97 21.736 1222.31 21.0244C1221.86 20.9375 1221.38 21.0899 1220.97 21.0244L1220.52 16.0107L1218.29 19.7705C1219.16 21.0091 1219.73 20.8248 1220.97 21.0234V21.8594L1218.29 22.6953C1218.54 21.3767 1217.57 21.0661 1217.4 19.7705C1217.17 17.988 1218.1 15.8681 1216.51 14.7568L1220.97 14.3389L1218.29 12.668L1220.97 11.832L1220.08 8.49023H1217.4C1217.46 9.35529 1218.22 9.07077 1217.85 10.1611C1217.45 11.3421 1216.27 12.1805 1216.51 13.5039C1214.83 12.3934 1212.59 13.0701 1212.05 10.9971C1213.9 11.0525 1215.36 11.3572 1216.51 9.74414V7.65527L1213.83 8.07324V9.32617H1212.94V7.65527H1212.05L1211.6 9.32617L1211.16 7.65527C1208.94 8.07532 1206.67 6.59511 1206.69 4.3125L1210.26 1.80566L1206.69 2.6416V0.134766C1206.05 -0.546448 1203.47 1.53616 1203.12 2.22363C1202.21 4.06596 1205.3 3.16153 1204.91 3.89453C1203.49 5.02478 1202.32 6.66743 1202.23 8.49023C1201.95 8.80447 1199.18 6.60422 1199.49 5.3252L1198.66 7.6543L1194.2 6.81836C1193.29 7.60909 1197.23 11.6586 1198.66 10.9961C1197.56 12.7216 1198 14.3657 1195.98 15.5918L1196.88 17.2627L1195.98 18.9336C1196.79 19.2359 1197.52 20.8257 1197.77 21.0225H1195.09V23.1113L1196.43 24.3643L1197.77 23.1113V21.0225C1198.75 21.7855 1200.66 21.4738 1200.45 22.6934C1197.87 22.2446 1199.06 23.317 1198.66 23.9463C1198.21 24.6484 1197.01 25.3014 1196.43 26.0352L1194.65 24.3643L1192.41 25.2002L1193.31 21.0225H1189.74C1189.05 17.4387 1192.61 20.8832 1193.31 20.1875V16.4277L1191.97 15.1748L1187.06 14.3389L1185.28 16.0098V18.5166L1189.74 18.0986C1187.86 20.709 1185.62 20.2793 1182.6 20.1875L1181.7 17.2627L1183.49 14.7559L1181.7 13.5029L1185.28 13.085L1182.15 9.3252C1180.58 9.86256 1179.6 8.22804 1178.58 8.49023C1178.23 8.58205 1178.03 9.25148 1177.69 9.3252C1175.51 9.79614 1173.39 9.00533 1173.67 6.81836C1171.88 6.95448 1169.86 6.24748 1168.77 7.6543L1165.64 5.14746L1167.43 8.90723L1166.53 12.667H1163.86C1163.3 14.797 1164.76 15.2522 1165.64 16.8447H1163.86L1162.96 21.0225H1166.53L1165.64 23.5293L1169.21 22.6943L1170.1 26.0361L1166.98 24.3652L1165.19 25.2012L1163.41 23.5303L1162.96 25.2012L1160.29 24.3652L1160.73 26.8721L1163.86 26.0361C1163.7 27.0009 1163.86 27.5844 1164.75 28.125C1166.4 29.1286 1166.62 27.3659 1168.32 27.707L1166.09 29.3779C1164.04 28.8652 1163.66 30.4496 1162.07 31.0488L1160.73 28.542L1154.93 27.7061L1159.39 24.7813L1157.61 24.3633C1157.31 22.6023 1158.82 21.8675 1160.29 21.4385C1161.45 21.0968 1161.15 21.8018 1162.07 21.8564V19.3496C1159.86 19.7881 1158.55 18.6904 1156.71 18.5146V20.1855C1155.43 20.3105 1153.92 19.9964 1152.7 20.1855C1152.36 20.2379 1152.11 21.0086 1151.81 21.0205C1151.66 21.0236 1150.9 19.7277 1149.58 20.1855L1150.47 17.6787L1152.7 19.3496L1154.04 17.2607L1153.15 15.1719H1149.58V16.8428H1147.79V21.0205H1146.01L1145.11 24.3623H1143.33V30.2109H1145.56L1149.58 32.7178L1145.11 33.5537V35.2246C1143.76 34.7663 1143.07 36.0605 1142.88 36.0605C1142.69 36.0597 1142 34.7674 1140.65 35.2246C1140.16 36.4907 1141.54 37.1383 1141.54 37.3135C1141.54 37.4765 1139.97 38.7271 1140.65 40.2373H1142.88L1143.33 43.5801L1140.65 41.9092C1141.32 44.2797 1139.13 43.1346 1137.97 44.834L1139.31 46.9229L1136.19 46.0869V44.416L1130.83 41.9092L1132.62 46.5049L1135.3 46.9229L1133.51 49.4297L1137.97 48.5938L1136.19 50.2646L1139.76 51.5176L1137.08 52.3535C1136.23 50.7445 1134.71 51.4019 1133.96 51.1006C1132.45 50.4974 1131.35 48.5297 1129.94 50.6826L1129.05 57.7852L1131.28 54.4424L1130.83 57.7852L1133.51 56.9492C1133.45 58.415 1133.99 59.851 1132.62 60.709L1133.96 62.7979H1137.08L1137.97 61.127L1137.08 65.3037H1138.87L1137.97 68.6455L1136.63 67.8105L1137.08 67.3926L1134.4 66.1396L1135.3 68.6455L1134.4 70.3164C1131.27 70.9796 1133 67.4481 1132.62 65.7217L1129.94 65.3037L1131.73 63.6328L1129.94 60.29L1126.37 61.9609V60.29H1124.59C1124.94 58.9826 1123.48 55.5952 1122.36 55.2764C1121.41 55.0112 1120 55.5786 1119.23 54.0234C1117.77 51.0712 1124.05 54.9144 1124.59 54.4414C1125.02 52.8283 1123.51 52.4846 1122.8 51.5166C1122.65 51.3132 1122.93 50.8453 1122.8 50.6807C1122.2 49.9359 1121.23 49.3294 1120.57 48.5918C1119.59 49.988 1118.33 48.0361 1116.55 48.5918C1116.35 47.1317 1118.59 47.7788 1119.68 47.7559C1120.87 47.7313 1122.06 47.7772 1123.25 47.7559C1124 47.7424 1126.37 48.1342 1125.48 46.5029C1124.48 44.6801 1121.74 43.8814 1119.68 44.4141C1118.63 44.6848 1117.36 47.9293 1114.77 46.9209L1118.34 45.25L1117.45 43.5791H1119.23V41.0723L1116.55 41.4902C1117.79 40.9013 1118.97 38.9382 1117 38.5654C1115.83 38.3448 1114.25 38.7118 1112.99 38.5654C1112.69 40.5403 1113.3 42.5146 1114.77 43.9971C1113.03 45.064 1112.43 47.1333 1112.99 49.0107C1113.12 49.469 1114.62 50.2107 1114.77 50.6816C1115.04 51.5436 1114.65 52.5253 1115.66 53.6064L1112.54 51.0996L1111.2 54.4414L1109.41 52.3525V51.0996C1107.14 50.574 1106.65 51.9426 1104.95 52.7705C1105.41 50.6778 1104.25 49.9003 1102.72 48.5928L1101.83 49.4287L1102.28 46.9219L1098.71 48.5928V45.25C1097.15 44.5965 1095.74 46.0954 1095.58 46.0859C1095.41 46.0731 1094.05 44.6153 1092.46 45.25L1091.57 47.7568C1092.21 43.8009 1090.51 45.8626 1088.44 45.25C1084.99 44.2275 1085.58 45.25 1084.87 45.25C1084.47 45.25 1080.58 42.4604 1079.52 42.7432C1078.72 43.4397 1078.18 43.6814 1078.18 44.832C1078.18 47.5095 1080.72 46.6013 1082.19 46.9209C1082.52 46.9921 1083.12 48.2521 1084.87 47.7559C1085.23 47.6545 1085.41 47.0143 1085.76 46.9209C1086.48 46.7309 1089.02 48.4808 1090.67 47.7559C1090.04 49.1276 1088.67 50.5215 1087.1 50.2627L1087.55 52.7695L1085.32 52.3516V53.6045H1083.53L1084.43 57.7822L1083.09 56.1113C1082.67 56.5847 1082.43 56.8315 1081.75 56.9463C1081.62 55.5841 1081.83 54.1426 1081.75 52.7686L1076.39 51.9336L1079.07 56.9463C1079.94 56.8649 1080.93 57.084 1081.75 56.9463C1081.84 57.9646 1082.04 60.1388 1082.19 60.2891C1084.65 62.5853 1079.81 62.1633 1078.18 59.8711L1080.86 57.7822L1077.73 58.6182C1077.27 57.5449 1075.6 57.8748 1075.5 57.7822C1075.33 57.6259 1075.74 56.9225 1075.5 56.5293C1074.76 55.2915 1073.22 55.4448 1072.38 54.4404L1069.7 56.9473L1066.58 56.1123C1066.5 55.59 1066.73 54.7289 1066.58 54.4414C1067.63 54.7034 1067.91 55.6253 1069.25 55.2773V52.7705H1066.58V54.4414C1066.43 54.1557 1063.79 53.376 1064.79 51.0996L1063.45 51.9355L1059.44 51.0996L1060.33 48.5928L1055.87 49.4287V48.1758L1054.08 47.7578C1054.28 49.2878 1054.12 50.1833 1052.74 51.1006H1051.85C1049.94 49.1717 1047.3 50.7776 1045.16 51.1006L1046.05 54.4424C1043.57 54.0055 1041.6 52.485 1039.8 54.8604L1040.25 56.9492L1039.36 56.1143L1035.34 57.7852L1037.13 55.2783L1034 56.1143L1032.66 54.8604L1034.45 53.6074L1026.86 51.1016L1025.52 48.5947H1022.85V45.252H1020.17V46.9229H1019.28C1019.53 45.3311 1018.3 44.1762 1016.6 44.416V46.9229H1019.28C1019.33 47.321 1019.12 47.8157 1019.28 48.1758C1019.43 48.5406 1020.16 48.7426 1020.17 49.0117C1020.17 49.1532 1018.79 49.861 1019.28 51.1006L1017.05 51.9365L1013.92 50.2656L1015.71 55.2783L1011.24 53.1895L1012.14 51.5186C1011.02 50.5949 1010.32 49.1223 1008.57 49.4307C1008.89 51.7636 1005.42 52.2692 1005.89 54.4434H1007.68L1010.35 60.709C1008.98 61.5677 1009.52 63.003 1009.46 64.4688C1008.29 64.2273 1008.32 63.0161 1007.23 64.4688L1006.34 63.6338L1005.89 65.3047L1004.11 63.2158L1005 61.5449L1003.66 60.292L999.198 61.1279L997.859 58.6211H996.074L996.966 56.1143L992.504 56.9492L993.395 54.4434H990.719L991.61 53.1895C990.536 51.4529 988.702 52.4355 987.595 51.1016L982.686 53.1895L986.702 54.4434C987.619 55.7262 989.153 55.2205 990.719 55.2783L989.826 57.7852L987.149 56.9492V61.9629C988.438 62.0863 989.94 61.7761 991.165 61.9629C991.929 62.0792 994.098 64.0905 995.628 61.9629L999.643 64.4697H993.396L996.074 65.3057V69.4834C995.096 69.5515 994.407 67.9581 993.844 67.8125C992.551 67.4801 990.966 67.8329 989.381 66.9766C988.779 66.6513 988.231 65.7394 987.596 65.3057L987.149 66.9766C984.779 67.4142 984.233 65.9469 982.241 65.3057C981.18 64.9637 983.286 63.8745 982.687 62.7988L980.902 64.4697L976.439 63.6348V66.1416C973.963 66.0126 971.442 66.6884 969.3 65.3057C968.758 67.1997 970.821 68.1987 969.3 69.0654L971.085 74.4961C970.077 74.5942 968.906 74.341 967.961 74.4961C967.617 74.5523 967.365 75.332 967.068 75.332C966.881 75.3303 966.189 74.0389 964.838 74.4961V71.9893L963.499 72.8252L962.607 71.9893L960.376 72.8252L962.16 67.8115C958.913 66.9269 958.038 69.8829 955.02 69.4824L957.698 68.6465L957.252 65.3047C955.745 67.4006 953.963 67.0547 951.451 66.9756L953.236 71.1533C951.142 69.4769 949.828 69.1832 946.989 69.4824V71.9893H952.344V74.0781L953.682 75.3311L956.807 76.584C955.28 78.8682 952.462 76.9383 951.006 78.6729L946.543 77.002L943.419 79.5088L945.204 76.584C945.258 75.7847 942.516 76.7303 943.419 74.9131C944.044 73.6531 945.625 73.4869 946.988 73.6602L945.203 68.6465C942.938 68.4146 941.241 68.7543 939.403 69.4824C938.944 68.4099 937.269 68.7391 937.172 68.6465C937.058 68.5375 937.255 66.6594 935.833 66.1396L929.14 66.9756V69.4824C930.611 69.0415 930.842 70.1379 931.371 70.3184C932.008 70.5352 935.121 70.9058 935.387 71.1543C935.573 71.3292 935.483 74.3561 938.064 73.6611V74.4971C934.579 74.0182 936.539 77.3256 938.956 77.0039C939.099 77.9157 938.728 79.1563 938.956 79.9287C939.034 80.1875 942.656 83.5524 942.973 83.6885C945.032 84.5737 943.596 81.6307 945.203 82.0166L944.757 84.5234L944.31 87.8662L943.418 85.3594L942.079 87.0303C940.555 85.7229 939.394 84.9452 939.849 82.8525L934.494 83.6885L936.279 82.0176V79.9287C936.377 79.0192 938.754 80.2664 938.064 78.2578C937.105 75.4666 934.556 79.5242 933.601 79.5107L935.387 73.6621L928.247 74.498L930.924 73.6621C932.151 72.4646 928.411 68.151 926.462 68.6494V65.3076C924.446 65.6361 922.135 66.7536 919.768 66.1436C919.278 66.0169 918.474 64.5999 917.983 64.4727C916.831 64.175 914.862 64.676 913.52 64.4727C911.449 65.8269 913.108 67.9877 910.396 66.1436L912.182 69.0674L911.29 69.9033L912.182 71.9922H909.505V73.6631H908.612C908.868 72.0715 907.635 70.9164 905.934 71.1563L906.827 68.6494L904.149 70.7383L903.703 73.6631L903.257 71.1563L900.579 71.5742L901.472 73.6631C899.657 73.9361 899.399 72.1302 898.348 73.6631L894.332 72.8271V76.5869L897.901 79.0938L895.67 81.1826L890.762 76.5869L889.87 73.6621C888.068 73.5798 888.923 76.1199 889.87 76.5869L887.639 78.6758L885.408 74.498H887.193V72.4092L885.408 71.9912L886.747 70.3203L891.655 71.9912L888.977 69.0674L891.655 68.6494V65.3076C889.376 64.7749 888.856 66.1854 887.192 66.9785C887.472 65.1469 885.766 64.0158 884.068 64.4717C882.851 64.7989 882.67 67.269 881.391 67.8145C879.206 67.8342 877.383 67.4417 875.591 68.6494V66.9785L872.021 67.8145C872.764 65.3976 869.53 65.4825 869.344 65.3076C869.178 65.151 869.578 64.4502 869.344 64.0547C867.973 61.7522 863.237 61.073 860.865 60.2949C860.349 60.1255 860.105 59.0159 858.635 59.459V61.5479L857.296 62.8008C855.021 62.5902 852.339 63.0999 850.156 62.8008C849.828 62.7557 849.617 62.0424 849.264 61.9648C846.058 61.2636 845.103 64.5064 841.678 63.6357L840.34 61.1289C838.966 61.3687 835.587 59.473 834.538 60.293C834.389 60.4102 834.685 60.9809 834.538 61.1289H837.216V64.4707H834.538V61.1289C833.974 61.6965 831.49 63.288 830.969 62.7998V61.1289L827.399 61.9639V59.457L826.06 60.293L822.044 59.457L824.722 61.1279V63.6348H822.044C822.761 61.3314 820.589 60.9625 820.259 59.0391C820.263 58.3261 818.487 58.4929 818.028 58.6211C817.115 58.876 815.381 62.4086 815.798 62.7988H817.583V65.3057H815.798L814.013 59.874C814.267 58.6338 815.539 61.119 815.798 59.874C816.345 57.242 813.531 59.6555 812.227 59.4561L814.013 61.5449L813.121 64.8867L815.798 65.3047V66.9756H813.567L810.89 65.3047L805.981 66.1406C805.592 63.7776 806.347 64.8708 807.32 64.4697C807.921 64.222 808.082 63.2081 809.552 63.6348L806.428 61.1279L805.981 63.6348C805.015 63.8999 803.525 63.0901 803.304 62.3809C802.796 60.7567 807.447 59.107 806.873 56.9502L801.518 57.7861V59.457C799.665 59.2694 798.915 61.3274 797.502 59.457L796.164 60.293V59.04L793.486 56.9512V60.2939H795.271C794.47 61.0847 794.482 62.7034 794.379 62.8008C794.238 62.9279 791.855 62.9691 791.256 64.4717L791.702 63.2188L789.024 61.9658L787.685 67.8145L785.455 65.7256L788.133 64.0547L785.455 60.7129L787.24 58.2061L786.348 56.5352L787.24 53.6104L784.562 54.0283L787.24 50.2686C786.784 49.8072 785.481 51.813 785.01 51.9395C783.844 52.2513 782.223 52.4515 780.993 52.7744V54.4453L778.763 53.6104L777.424 54.8633L778.316 56.1162L775.639 57.3691V59.458L780.993 57.7871L781.886 62.8008L777.423 63.6367L779.208 60.2939H773.853L775.639 61.1299V61.9648L773.408 62.8008L768.5 59.041L773.408 59.459L774.3 57.7881L772.069 54.4453C774.77 53.4411 773.087 56.9924 775.193 56.1162C776.53 55.5595 777.173 53.0853 777.424 51.9385C777.033 51.8831 776.695 52.0279 776.531 51.5205C776.531 50.9871 777.376 51.1461 777.424 51.1025C778.419 50.1963 778.52 50.026 780.101 50.2666L780.993 44.418L779.654 46.0889L777.869 45.2529L776.977 46.0889L774.746 45.2529L775.639 42.7471H772.961V46.0889C771.953 46.1869 770.782 45.9337 769.838 46.0889C769.242 46.1875 769.2 47.6993 768.053 46.0889L764.93 46.9248L765.376 48.5957H766.715V51.1025L773.853 50.2666L767.606 51.9375L769.838 53.6084L771.176 53.0518V57.3682L769.391 55.2793L768.5 56.5322L766.715 56.9502L765.822 53.1904L763.144 51.9375L764.037 54.8623L762.252 54.4443L761.359 56.1152L760.468 53.6084L761.359 57.7861L759.574 58.2041L758.682 60.293L757.344 57.7861L754.22 58.6221L757.789 55.6973V54.4443L755.112 55.6973L756.897 51.9375L755.112 51.1016L758.682 50.2656L753.327 48.5947L757.789 49.4307C757.82 48.717 757.07 48.6034 756.897 47.7598C758.212 47.9924 759.943 47.6039 761.359 47.7598V45.6709L764.037 45.2529L762.252 49.8486L764.93 50.2666L763.143 48.1777L765.821 43.582L763.591 42.7471L760.467 43.582L758.682 41.9111L760.02 44.418L756.896 45.2529C756.987 46.0673 756.744 47.0134 756.896 47.7598C755.533 47.5184 755.132 45.6286 753.327 46.0889C753.81 48.1309 752.434 50.0654 750.203 49.4316C749.788 49.3137 749.591 48.2936 748.418 48.5957C748.068 48.6859 747.883 49.3295 747.525 49.4316C745.88 49.8994 744.982 48.8206 743.956 47.7607C743.073 47.3415 744.612 46.1504 744.848 46.0898C746.745 45.6118 748.207 46.9194 750.203 46.9258C752.027 46.9313 751.991 46.2782 751.542 44.8369C751.241 43.872 750.392 43.4066 749.31 44.4189C747.283 46.3161 747.026 43.6333 745.741 45.2539L741.724 43.583L742.617 41.0762H739.048L739.939 39.8232C738.807 38.2288 737.391 38.5068 735.477 38.5693V37.3164L732.8 37.7344L735.031 36.0635C736.068 37.4542 736.316 36.5138 737.262 35.6455L736.369 32.7217L735.477 34.3926L732.353 36.0635C730.633 34.9958 730.954 33.6143 731.015 31.8857H726.552C726.388 30.7072 726.799 29.1985 726.552 28.126C726.483 27.8268 725.025 26.14 724.766 25.6191C724.559 25.2005 724.935 24.4991 724.766 23.9482C724.41 22.7871 720.403 20.1323 721.197 23.5303L718.52 22.6953L716.735 28.126L717.627 31.8857L714.949 29.7969C714.224 26.6736 710.19 25.9626 707.364 25.2012C706.301 24.9147 706.239 23.5454 706.025 23.1123C705.165 21.371 705.526 22.9838 706.025 21.4414C706.344 20.4576 705.281 19.9683 704.686 19.3525L700.671 20.1885C700.408 19.9376 701.424 16.8569 699.332 16.0107C696.013 14.6691 697.225 19.0803 697.101 20.1885L695.316 17.6816H691.746C691.392 19.5249 692.088 20.346 693.531 21.4414L691.746 22.6953C692.968 22.8497 694.633 21.1701 695.316 23.1133C696.114 25.3813 691.897 25.0652 691.746 25.2021C691.505 25.4218 691.284 26.904 690.854 25.2021C690.836 25.2456 690.113 25.048 689.962 25.6201C689.602 26.9796 690.219 27.7486 691.301 28.5439L695.316 27.291L693.531 30.2158H689.069L688.177 34.3936C684.781 34.8581 686.498 31.6548 688.177 30.6338L686.391 26.874H687.73L688.177 25.2031L683.268 24.3672L681.038 25.2031L681.93 28.127L678.36 36.0645H680.145L679.254 38.5713L675.683 37.7354L676.131 39.4063C673.966 38.4651 675.914 37.0815 675.683 36.8994L673.453 37.7354L671.223 34.3936L674.792 35.2295L675.683 31.8877L672.559 33.5586C671.606 32.3692 670.847 32.3573 669.883 33.5586L671.222 30.6338L670.329 28.5449H668.099L664.082 31.4697L664.974 35.2295L667.651 34.3936L665.421 36.9004H664.082V38.9893L668.545 44.0029L664.082 44.4209L666.76 45.2559L664.082 47.3447C665.821 49.8638 667.401 47.4864 667.651 47.7627C667.532 48.6966 667.839 49.8351 667.651 50.6875C667.578 51.0133 666.801 51.2173 666.76 51.5234C666.526 53.2242 666.922 55.2026 666.76 56.9531C664.381 57.7605 663.742 55.6558 662.743 55.2822C662.347 55.1346 661.822 55.3612 661.405 55.2822C661.528 55.0399 661.262 54.5596 661.405 54.4473H664.974L663.19 51.5225L664.082 48.5977C661.626 48.1743 662.267 49.2951 662.297 51.1045L659.62 52.3574L660.512 53.1934L659.62 55.2822C660.202 55.3296 660.886 55.1841 661.405 55.2822C660.89 56.2858 659.697 57.1083 659.62 57.3711C659.321 58.3911 659.942 61.66 659.62 61.9658L656.496 62.8018C654.635 61.1982 653.817 58.8337 654.265 56.5361C654.311 56.2955 655.686 55.6604 655.157 54.0293L654.265 51.9404H650.695C652.77 55.2241 651.526 56.3892 648.018 54.4473L648.91 60.2949L645.341 59.46L647.126 61.9658L644.895 62.8018L642.664 61.1309L643.557 64.4727H644.895L647.126 66.9795L645.341 65.3086H644.002L639.986 67.3975L643.109 69.4863L645.341 68.6504V71.1572C643.278 70.7535 642.693 73.1068 640.879 73.6641V71.9932L636.863 71.1572L633.739 66.1436H629.276V67.8145H627.491V69.4854H624.813C624.49 69.1797 625.113 65.91 624.813 64.8906C624.584 64.1134 622.205 63.5802 623.028 60.7129C624.667 58.7816 624.256 59.9134 625.26 60.2949C626.72 60.8503 626.841 59.6766 626.599 58.624L622.582 57.7881L617.674 58.624L620.798 61.1309L619.905 62.8018C618.131 60.5317 614.039 61.3172 614.104 57.7881C610.599 58.1664 608.843 56.1464 605.626 55.2813C604.589 55.0026 602.373 51.4187 600.718 51.1035L602.503 55.2813H600.714V58.2061L598.929 60.2949L598.482 57.7881L599.821 54.4453L596.252 56.1162L598.037 54.4453L597.144 53.1924L598.037 52.3564C596.971 51.3702 596.818 48.2729 594.913 47.7607C593.855 47.4766 592.763 48.1114 591.789 46.5078C591.551 46.1176 591.956 45.4106 591.789 45.2539C591.632 45.1086 590.931 45.4414 590.45 45.2539C589.832 45.0131 589.522 43.957 587.773 44.4189C587.199 44.5701 586.4 46.556 585.542 45.6719L586.434 42.7471H588.22V41.9121C585.501 42.1923 584.69 38.2899 581.973 38.5693C583.749 36.3326 586.926 33.9358 582.419 32.7217C582.103 32.6663 581.797 32.6418 581.527 32.7217C581.168 32.8285 580.984 33.4624 580.635 33.5566C579.717 33.802 578.243 32.0926 576.619 32.7217C576.31 35.9006 580.995 35.1433 581.974 37.7344L576.619 36.8984C576.393 37.0939 577.37 40.3242 575.28 39.4053C575.048 39.3024 573.243 37.8604 574.388 37.7344C577.749 37.6434 574.474 34.3857 572.157 35.2275V33.5566H570.372V34.8096L568.587 35.2275V31.8857L565.017 31.0508L564.125 32.7217C563.874 31.0429 565.23 29.9513 566.803 30.2148C567.344 28.3041 565.278 27.3321 566.803 26.4551C566.562 23.7045 563.749 24.3717 561.447 24.3662L561.001 29.3799L560.109 26.873C555.377 23.8518 556.214 29.5302 560.109 30.2148L562.34 32.7217H558.77V30.2148L553.415 31.0508V33.9746L556.985 34.3926L556.093 37.7344L557.878 37.3164C557.655 38.6659 556.83 38.9923 556.986 40.6582C557.108 41.9586 558.153 42.2423 557.878 43.583C555.422 44.0064 556.063 42.8856 556.093 41.0762C554.392 41.316 553.159 40.1611 553.415 38.5693L549.846 39.4053L550.292 36.8984H551.631L550.739 35.6455L551.631 33.5566C549.356 34.0821 548.87 32.7137 547.169 31.8857L546.722 33.5566H545.384V38.5703L543.152 33.5566L542.706 36.8984C541.121 36.5615 540.217 34.6565 539.316 33.7285L539.137 33.5566C538.978 33.4209 538.37 33.6966 538.245 33.5566C538.099 33.3924 538.421 32.7744 538.245 32.3037C538.111 31.9454 537.364 31.7423 537.352 31.4678C537.349 31.3258 538.733 30.6186 538.245 29.3799L536.46 29.7969V31.0508L531.997 30.2148L532.89 27.708C531.567 27.251 530.81 28.5467 530.659 28.5439C530.436 28.5352 529.803 27.2489 528.428 27.708L527.981 29.3789L527.535 26.8721C525.211 26.4644 525.086 27.742 526.642 28.9609L522.18 33.1387C523.91 34.5032 526.16 32.8195 525.75 31.0498C527.443 32.3269 527.539 30.9153 529.319 31.0498L526.641 33.1387L527.534 34.8096C525.424 36.2359 527.223 37.2609 527.534 38.1514C527.713 38.6627 527.347 39.338 527.534 39.8223C527.725 40.3151 528.898 40.5342 528.426 41.9111H530.211V43.582L531.996 45.2529H527.534V48.5947H529.319V50.2656C530.799 50.3504 533.231 51.1381 533.782 52.7725H528.427V51.1016H525.75L526.641 47.3418C524.264 44.9065 519.056 43.7945 522.18 48.1777L520.394 50.2666L518.608 46.5068L519.501 44.418H515.932V42.7471H513.7L512.362 41.4941L513.254 40.2402C511.281 39.9158 510.434 40.5382 509.238 41.9111L507.899 40.6582V38.5693L505.669 37.7344L506.115 35.2275L504.33 36.8984C502.572 37.4311 501.966 36.3594 501.206 36.0625C500.724 35.8749 500.023 36.2087 499.867 36.0625C499.68 35.8876 499.771 32.8607 497.189 33.5557V31.8848L491.835 31.0488V33.5557L493.62 33.1377V34.3906H495.405C495.335 36.5466 497.539 38.155 499.867 37.7324C499.652 39.8385 501.291 40.5447 503.436 40.2393V42.7461H502.099L501.651 44.417C503.197 45.0698 504.612 43.5788 504.775 43.5811C504.984 43.5858 505.643 44.8769 507.007 44.417V46.9238L504.775 46.0879L502.545 49.0127L502.991 51.1016L499.867 50.2656C499.616 51.9442 500.972 53.036 502.545 52.7725L502.099 56.1143C500.463 55.261 501.064 53.8901 500.312 52.7725C499.498 51.563 496.873 49.2257 495.404 49.4307V48.1768L498.082 48.5947L495.404 45.2529C497.13 45.8259 497.786 43.7789 498.528 43.582C500.01 43.1902 501.88 43.7772 501.652 41.0752H498.083L496.298 42.7461L497.637 39.4043L494.513 40.2393V41.9102L491.835 41.0742V42.3281L489.158 42.7461L490.943 39.8223L490.051 37.7334H491.836C492.085 35.0328 492.035 33.5105 489.605 31.8848C488.63 32.4601 486.744 35.0358 486.036 35.2266C483.462 35.9184 483.246 32.6271 481.127 34.3906V32.3018C480.502 31.1772 479.487 31.3084 478.896 31.0488C478.216 30.7488 477.927 29.7538 476.219 30.2129C475.436 30.4241 474.785 32.4951 473.096 31.8838V34.3906H476.219L481.127 37.3154C478.518 40.4419 477.328 36.8685 474.881 36.8975V35.2266L471.757 36.0625L468.187 34.3916L464.171 36.0625L468.634 38.5693C468.715 39.8996 469.053 40.4927 467.295 40.2402C466.354 40.1049 461.494 37.1405 461.494 36.4805C463.473 34.5041 464.57 32.963 467.74 33.5557C468.069 31.9149 466.496 31.2641 465.51 30.2139C462.848 30.2012 459.899 27.343 460.601 31.8848L459.709 28.543L454.354 30.2139C454.022 32.331 456.575 33.1552 458.371 33.5557C459.87 33.8901 461.033 32.6536 460.601 35.2266L453.462 34.3906L452.569 36.0615C452.822 34.5965 451.189 33.8791 451.677 32.3018C451.894 31.5997 454.072 30.9964 453.462 29.377C451.647 29.65 451.389 27.8441 450.338 29.377L447.214 28.541V31.0479H442.751C442.662 29.1617 443.537 26.7703 440.966 26.0342L441.412 29.377L440.52 28.541L439.182 31.0479C441.962 30.6798 443.141 31.8829 442.751 34.3896L448.998 33.1367L446.32 34.8076C446.504 35.6529 446.046 37.1506 446.32 37.7324C446.36 37.8179 448.19 38.1077 446.32 38.5684V40.2393L448.106 41.9102C445.514 42.9186 444.248 39.6748 443.197 39.4033C442.151 39.1337 440.402 39.5822 439.182 39.4033L440.074 36.4785L436.504 33.9717V31.8828L438.289 31.0469L433.827 31.8828V35.2246H435.612L434.72 39.4023C436.649 39.5013 438.423 41.1976 440.075 42.3271L437.397 42.7451C437.345 45.2399 440.952 45.6288 437.844 47.7588L436.058 46.0879C434.078 48.443 432.822 45.5837 434.273 45.252L435.612 43.5811L430.258 44.417C430.44 42.6978 428.523 40.904 426.687 41.0742V39.4033H422.225L421.333 41.4922C421.457 44.1499 424.188 42.9423 425.796 44.834C426.709 45.9087 426.566 46.6323 425.349 46.9229C423.855 47.2798 422.267 46.968 421.333 45.6699L422.225 43.5811C420.562 44.3742 420.042 45.7854 417.763 45.252L416.87 46.9229H419.101L420.44 48.1758L421.332 53.6064L426.687 52.7705L426.24 51.0996H424.902V49.4287L426.687 48.5928L424.01 47.7568C425.234 47.5804 426.969 48.0234 428.025 47.7568C428.753 47.5732 429.427 45.5091 431.149 46.0859L432.042 48.5928C431.802 48.8049 428.362 47.9066 429.364 49.8457C430.299 51.655 432.688 52.2866 434.719 51.9346L433.827 55.2764C431.335 55.1537 429.704 52.9423 427.134 53.6055C426.701 53.7171 425.935 54.9264 425.349 55.2764C425.051 55.2764 424.799 54.4958 424.456 54.4404C422.364 54.1033 421.421 55.1094 419.548 55.2764L421.333 56.9473L418.656 60.29L417.764 56.9473L414.194 57.7832L416.871 54.4404L411.516 55.2764V57.7832H413.302V59.8721L415.087 60.29C415.222 61.8569 413.474 61.2176 412.856 60.29L411.517 61.543L413.303 62.7959L407.502 61.125L404.379 61.96L405.27 59.8711L402.593 58.6182L400.807 61.543L403.485 64.0498C402.314 64.8097 402.35 66.8622 402.593 68.2275C402.691 68.7774 404.315 68.8253 402.593 69.8984L405.349 72.4805C404.35 71.8545 403.163 71.5743 402.146 71.1514C401.779 70.9986 401.603 70.4415 401.255 70.3154C400.527 70.0542 399.289 70.757 398.577 69.4795L395.453 71.9863L396.346 68.6445L398.131 66.9736C396.23 68.2574 395.373 69.0876 392.776 68.6445V67.8086H394.561V67.3906L391.884 65.3018C391.578 65.8772 392.615 67.735 392.776 67.8086C391.031 67.0693 388.979 68.6445 388.76 68.6445C388.475 68.6442 388.251 67.934 387.868 67.8086C387.364 67.644 386.704 67.9452 386.529 67.8086C386.38 67.6915 386.676 67.1208 386.529 66.9727L390.099 66.9727V64.4658H391.437L391.884 62.7949L385.637 60.2881L384.745 63.2129L387.422 64.4658L386.53 66.9727C386.209 66.6505 384.675 66.0877 384.299 65.3018L382.96 67.8086C386.303 66.6586 386.506 70.7935 387.868 71.1504C388.946 71.433 391.167 70.3503 390.992 71.9863L385.638 71.9863V69.4795L379.391 68.6436L381.176 66.9727C379.993 66.9568 378.789 66.998 377.606 66.9727C377.714 65.764 377.2 64.8038 378.499 64.0479V63.2129L375.821 61.124V64.4658L372.252 63.6309L371.359 66.9727C373.432 67.0027 375.534 66.9283 377.606 66.9727C377.582 67.2489 377.625 67.5308 377.606 67.8086H376.267L376.714 69.4795L374.929 68.2266L372.252 67.8086L372.698 70.3154C371.286 69.1923 369.612 68.4094 367.79 68.6445L366.005 66.9736L366.897 71.1514L366.005 67.8096L360.65 66.9736L359.758 63.6318H361.543C362.23 58.3374 358.219 58.2738 353.511 58.6182C353.259 60.2962 354.615 61.3886 356.188 61.125V62.7959L354.403 64.4668L357.973 62.7959C358.116 64.4628 356.608 64.5523 357.973 66.1377H356.634L352.618 69.0625L358.865 70.7334L352.618 71.1514L356.187 73.6582H350.833L351.279 69.4805L349.94 74.4941C348.388 74.3288 346.495 74.7371 345.032 74.4941C344.705 74.4394 344.509 73.767 344.141 73.6582C342.542 73.1912 341.092 75.043 339.232 74.4941L341.463 73.6582L343.248 71.9873L348.156 73.6582L346.372 70.7334C347.818 69.6348 348.509 68.8162 348.156 66.9736L350.387 68.6445C351.856 67.0291 349.168 65.6709 347.264 66.1377V64.4668L341.908 65.3027L342.801 62.7959H341.016V61.125H339.23L337.891 58.6182L333.876 57.7822V55.2754L331.198 56.1113C331.252 54.6423 330.502 53.2151 332.537 53.6045L334.767 51.9336C331.673 51.5673 330.879 54.4925 327.628 53.6045V56.1113H325.843V57.7822H327.628L328.519 61.125C327 60.9336 324.999 61.406 323.611 61.125C323.274 61.0557 321.327 59.5542 320.934 59.4541C320.185 59.2626 319.05 59.6306 318.257 59.4541C317.848 59.3628 317.478 58.1626 316.026 58.6191V60.29C314.563 60.0684 312.379 60.6152 311.118 60.29C310.628 60.1634 309.83 58.7533 309.333 58.6191C307.225 58.0524 305.115 58.1291 303.086 57.7832C302.728 57.7223 301.547 56.2974 299.962 56.9473C301.547 59.4381 300.692 58.1189 299.516 58.6182C298.907 58.8762 298.754 59.8758 297.284 59.4531C297.592 62.2693 297.383 62.1958 294.607 61.96C294.293 60.3896 296.01 61.7083 296.392 60.707C297.18 58.6444 298.578 58.3449 299.069 57.3643C299.904 55.6997 297.102 56.241 296.839 55.2754L293.715 56.1113L295.5 59.4531L290.145 56.9463L291.931 60.7061L290.145 61.542L292.823 62.7949L291.484 65.3018L290.145 64.4658H291.931V63.6309H289.253V61.96C286.539 61.4395 284.402 63.4994 281.668 62.7959C280.874 62.5917 279.83 60.5985 279.436 60.2891H282.114V59.8711L280.775 58.6182H279.436V60.2891C278.884 59.8562 277.519 59.3187 276.76 59.0361C275.096 58.4172 275.17 58.7598 274.082 59.8711C274.073 60.8106 275.505 59.7367 275.867 60.707C276.264 61.774 276.401 62.3852 277.652 63.2139L276.761 66.1387C279.349 65.4107 279.754 67.8958 282.115 67.8096L281.223 64.0498L283.008 63.6318C282.707 65.426 284.636 66.2044 285.685 67.3916L283.901 70.3164C285.685 69.7007 288.016 72.5945 288.809 72.8232C289.687 73.0762 291.287 72.1337 291.04 73.6582L284.793 74.4941L283.901 71.9873L282.116 74.4941L282.562 71.9873L281.67 71.1523L283.009 70.3164L281.67 68.6455L278.1 71.1523L275.424 70.3164C273.609 72.2048 271.016 70.7076 268.73 70.3164L270.516 69.4805C269.693 67.7114 268.183 66.5732 266.053 66.9736L265.16 70.3154L266.945 71.9863C266.117 71.6646 263.894 69.2478 263.376 71.5684C263.138 72.6353 263.156 74.2392 264.268 74.9111C265.231 75.4919 265.987 75.269 266.054 75.3291C266.144 75.4155 265.802 76.9854 266.945 77.418L264.268 77.8359L264.715 79.5068L262.93 77.8359L258.913 78.6709V76.1641H255.344V77.835L251.774 76.999L253.559 76.1631L251.329 74.4922C250.59 75.738 249.56 75.101 248.651 75.3281C248.286 75.4193 248.05 76.1641 247.759 76.1641C247.462 76.1632 247.211 75.3852 246.867 75.3281C245.922 75.173 244.751 75.4263 243.743 75.3281L244.636 77.835H241.065V80.3418H245.082L245.528 82.0127L246.421 78.6699L248.206 79.0879V80.3408L252.222 79.5049L253.114 81.1758C251.897 82.0552 251.588 82.6268 251.775 84.1006C251.875 84.8831 253.496 84.2384 254.006 85.3535L253.559 81.1758L256.237 82.0117C254.259 84.224 256.488 85.4051 256.237 87.8604L253.559 86.1895L252.668 89.1143L257.13 93.709C255.316 93.7525 253.765 94.0842 252.668 92.4561C252.524 92.2423 252.797 91.7927 252.668 91.6201C251.337 89.8535 249.155 89.4918 247.759 87.8613L245.528 88.6963V87.0254C243.679 87.3308 242.849 85.5871 241.513 84.5186L238.835 85.3545L237.496 84.1016L238.389 82.0127L234.819 82.8486V81.1777H231.695L230.356 79.9238C229.895 79.0681 232.666 80.4087 232.141 78.2529C231.943 77.4407 231.006 77.8944 230.356 77.8359L228.571 80.7598C229.545 82.0452 230.502 82.2034 232.14 82.0127L231.249 84.9375L232.587 86.1904L235.711 85.3545V87.4434C236.843 89.0383 238.26 88.7596 240.174 88.6963L239.281 90.7852L241.513 92.874L245.528 93.71L244.637 95.7988C244.985 96.9188 249.502 97.5299 245.974 97.8877L242.405 93.71H239.727L238.39 92.457L239.281 91.6211C236.825 89.9613 234.206 87.4759 230.803 87.8613L230.356 85.3545L226.787 87.0254V83.6836L224.556 84.5195L221.432 82.4307L222.324 81.5947L221.432 80.7598L222.324 79.5068H220.094L218.755 78.2529V76.165H212.953L209.384 71.9873L208.045 73.6582C208.66 71.5015 206.339 71.5597 205.814 71.1514C205.094 70.5918 203.568 68.7561 203.137 68.6445C200.862 68.0574 198.634 69.3391 199.121 65.3027C196.623 65.989 194.705 63.5448 193.319 65.3027L190.196 63.2139L191.088 60.2891L188.411 61.125V63.6318H186.626V61.9609L182.163 61.126L181.27 57.7832H178.594L179.485 56.1123L176.808 54.4414C178.272 54.2199 180.456 54.7667 181.717 54.4414C182.406 54.2626 184.322 51.6686 185.286 51.0996C185.724 52.0374 186.837 51.7955 187.071 51.9355C188.464 52.769 188.593 53.7973 188.41 55.2773L191.979 55.6953L189.302 56.5313L191.087 56.9492V58.6201L193.765 57.7842L193.318 59.4551L195.549 59.0371C196.974 60.5196 199.684 61.0397 201.796 61.126L202.687 64.4678H204.473V66.1387C205.937 65.6886 206.241 66.8464 206.704 66.9746C208.405 67.4439 210.934 66.2925 210.72 69.4814C211.145 69.4284 211.674 69.6237 212.058 69.4814C212.448 69.3374 212.664 68.6566 212.951 68.6455C213.102 68.6413 213.858 69.9384 215.182 69.4814L214.29 71.1523C216.773 70.6626 218.254 72.2064 220.536 71.9873C220.285 73.693 221.122 75.2612 222.321 76.583L221.429 78.6719H225.891C226.549 76.2336 224.211 77.4323 223.214 75.748C222.98 75.3515 223.38 74.65 223.214 74.4941H221.429L222.321 73.2412L221.429 70.3164L224.998 71.1523L224.106 72.8232C225.395 72.6999 226.897 73.01 228.122 72.8232C228.458 72.7718 228.673 72.0459 229.015 71.9873C230.738 71.693 233.038 71.7849 233.923 73.2402C235.097 75.173 236.508 74.9297 237.492 76.582C237.727 76.977 237.326 77.68 237.492 77.8359C238.98 77.8739 241.156 78.1919 241.955 76.582C243.168 74.1339 239.286 76.2816 238.831 76.165L237.492 73.6582C239.898 75.1278 242.833 74.3058 245.524 74.4941L240.616 71.1523L234.814 70.3164C235.223 67.6506 230.057 66.8233 232.138 64.4678H230.348V62.7969L227.671 64.4678L226.778 60.29C226.522 60.0138 223.782 63.276 223.209 60.708C222.639 58.1571 224.661 56.838 225.886 54.8594L224.1 54.4414V52.7705H222.315V54.4414C221.33 55.3625 215.942 50.4065 214.73 52.7705L215.177 50.6816L211.607 48.5928V50.2637H208.93L207.591 47.7568L203.129 48.5928L201.344 50.2637L201.79 45.25L197.327 46.9209L200.005 43.5781H197.327V41.9072C194.635 42.329 192.879 40.6503 190.187 41.0713V39.4004H185.724L184.833 37.3125L185.724 34.3877L184.833 36.0586L180.37 36.8945V31.8809L177.692 33.9697L178.585 38.1475L175.015 42.3252V43.1602L180.37 48.5908L176.354 47.7549L174.123 48.5908V51.0967H170.554C170.322 47.3004 166.476 48.0443 166.984 51.9326C164.576 51.787 163.857 49.4529 160.737 50.2617V47.7549H158.506C156.803 46.6952 157.101 45.3689 157.168 43.5781L158.059 46.084H160.737L161.629 43.5781L162.076 48.5908C165.094 48.2681 166.326 50.6446 168.323 47.7549L172.339 50.2617L171.446 46.9199H168.769C169.344 45.0791 166.711 44.3584 166.092 43.1602C165.496 42.0064 166.743 41.2635 167.877 42.3252C168.785 43.1753 168.655 42.0006 169.216 41.9072C170.157 41.7497 171.333 42.007 172.34 41.9072L173.231 38.5654H171.446L172.339 36.4766L166.984 32.7168L167.876 40.2363C166.474 39.5841 165.941 38.7032 164.752 40.2363L164.306 38.5654L162.52 38.9834V40.2363C161.058 40.6406 160.949 39.7194 160.29 39.4004C160.03 39.2746 159.586 39.512 159.397 39.4004C158.079 38.6169 158.38 37.6037 157.612 36.8945L155.382 41.0713V34.8057L152.704 33.5527L153.597 30.2109C152.271 29.7534 151.515 31.0514 151.365 31.0459C151.058 31.0334 150.814 30.2644 150.473 30.2109C149.374 30.0408 147.841 30.4521 146.904 30.2109C145.866 29.9434 143.179 26.1132 141.549 28.54L139.764 26.8691L139.317 30.2109C138.951 30.6258 138.314 29.4628 137.978 29.375C135.311 28.681 132.978 32.4134 136.64 31.8818C135.925 33.0254 135.337 34.2456 135.748 35.6416C136.09 36.7998 142.026 39.1661 143.78 38.5654V40.2363L147.349 39.4014L146.457 41.9082L148.242 40.2373V41.9082L152.705 43.5791C151.411 43.6954 149.929 43.4035 148.689 43.5791C148.353 43.6266 148.122 44.381 147.797 44.415C144.702 44.7348 139.998 44.8598 138.426 41.9082L142.889 41.4902L139.319 40.2363V38.5654H138.427C138.763 41.4464 135.959 40.5534 134.411 41.9082L131.733 40.2373C129.122 41.7997 131.287 42.9016 131.287 43.1621C131.287 43.326 129.713 44.5759 130.394 46.0869H132.18C132.957 48.5113 130.303 48.8891 130.394 51.1006C128.227 51.4115 126.599 50.6689 126.825 48.5938C123.245 49.1255 122.82 45.0374 118.793 46.0869V43.5801H116.116V41.9092H114.777L114.331 43.5801L113.438 41.9092C111.693 41.4359 111.332 43.2254 109.869 43.5801C109.783 43.216 109.963 42.7577 109.869 42.3271L108.084 41.9092L106.299 44.834L108.084 46.9229C110.475 46.8245 107.942 43.6925 108.084 43.5801C108.659 43.5224 109.391 43.6956 109.869 43.5801C110.167 44.8512 110.113 45.5954 111.654 46.5049C112.999 47.2978 114.525 46.2619 114.331 47.7578L112.1 48.5938L112.547 49.0117C110.848 51.5714 108.159 53.902 108.977 57.3672C109.05 57.6724 109.719 57.8463 109.87 58.2021C110.428 59.5176 110.767 61.1656 112.1 61.9619C112.326 62.0973 112.809 61.84 112.993 61.9619C114.637 63.0479 116.513 64.7403 117.901 66.1396L115.223 65.7217L112.993 65.3037L109.869 66.9746L110.761 64.4688L108.975 63.6328L111.653 62.7979L105.406 60.291L108.084 63.2148L101.39 63.6328L100.052 64.8857L100.943 66.1396H99.1581C98.6701 67.4046 100.048 68.0519 100.051 68.2275C100.051 68.5054 99.2183 68.7421 99.1581 69.0635C98.9927 69.9474 99.2632 71.0441 99.1581 71.9873L95.5887 71.1523L97.3739 73.6582L93.3583 74.4941C92.6648 73.5145 90.9798 73.3576 89.7889 73.6582C89.0615 73.8418 88.3872 75.906 86.6649 75.3291L89.3417 72.8232C85.965 71.9718 85.117 74.9682 82.202 74.4941V72.8232H80.4169C80.0145 72.5051 82.7971 70.7851 79.9706 71.1523C79.0876 72.5602 75.496 73.5572 75.0624 74.9111C74.9257 75.3401 74.7464 77.0047 75.5087 77H81.3094V78.6709C84.6607 78.291 86.3138 80.6642 85.7723 83.6846L90.2352 82.0137V83.6846H88.4501L88.4501 86.1914H90.2352L90.2352 83.6846H91.1268L91.1268 85.7734L92.4657 87.0264H95.1434L99.6063 92.04C98.3534 91.6197 96.766 89.8546 96.036 89.5332C93.7187 88.515 95.488 90.4413 95.5897 90.7861C95.8894 91.8056 95.351 92.53 94.2508 92.04C93.2338 91.5871 90.8963 89.591 90.6815 89.5332C90.0856 89.3742 89.3233 89.7334 88.8964 89.5332C87.8743 89.0535 86.6127 88.2841 85.7723 87.4443L86.6649 85.7734L83.5409 82.8486C81.4833 84.6548 79.3937 86.459 79.5243 89.1152L82.202 91.2041L78.6327 88.6973C76.4655 88.3862 74.8368 89.1288 75.0633 91.2041H74.1708C74.0832 89.17 70.9893 86.2721 68.8163 86.1904L68.8163 84.5195L65.6923 85.3555C64.1677 84.0479 63.0076 83.2705 63.4618 81.1777H62.1229L61.6766 79.5068L59.8905 79.9248L59.4442 81.1777C58.8077 80.7376 58.2667 79.844 57.659 79.5068C56.393 78.8032 52.2182 77.804 51.8583 76.582C51.356 74.8733 52.2887 73.4547 49.6268 71.9873H48.7352C45.4562 75.6913 44.2077 72.2555 44.7186 68.6455H42.9335V66.9746C42.5099 67.0291 41.9739 66.8274 41.5946 66.9746C39.9594 67.6109 40.4604 68.0423 38.0253 66.9746L37.1337 67.8105C36.065 66.7025 34.5578 66.0585 34.9022 64.4678H33.1171V62.7969L29.5477 61.9609C28.9664 64.6456 31.5721 65.7025 33.1171 67.3916L29.5477 67.8096V66.1387H27.7626C27.7167 63.7293 26.269 64.368 25.0848 62.3789C24.8438 61.9737 21.3415 58.6966 21.0692 58.6191C20.0184 58.3216 19.4965 59.3156 18.8387 59.8721L19.7303 60.708L17.9452 61.126C18.266 59.961 16.573 58.1579 15.7147 57.7832C13.7903 56.9434 14.5974 59.2484 14.3758 59.8721C14.11 60.62 11.9948 61.164 12.5907 62.7969L17.0536 61.126L15.2674 62.3789L16.6063 63.6328L17.4989 62.7969L22.4071 63.6328C22.0814 65.3644 23.944 66.1413 25.0848 67.3926L20.1756 66.1396C18.9516 65.4797 17.0213 65.8949 14.8212 65.3037C14.3814 65.1856 13.6251 63.9842 13.036 63.6328C11.9673 64.7408 10.4609 65.3838 10.8055 66.9746L12.5907 66.1387C12.2989 67.8371 14.2281 68.0789 12.5907 69.0635L13.9296 70.3164C16.6033 69.7847 17.973 71.6035 20.1756 72.8232C21.6493 71.2275 22.4894 70.2808 24.1922 72.4053L21.9618 74.4941L13.4823 71.1523C13.6993 72.6732 12.1081 73.3491 12.5907 74.9111C12.7239 75.3409 14.0326 76.0059 14.3758 76.582C14.611 76.977 14.2095 77.68 14.3758 77.8359C14.5326 77.9809 15.2328 77.6485 15.7147 77.8359C16.0879 77.9818 16.2661 78.5726 16.6063 78.6709C18.1139 79.107 20.3339 77.5374 19.7303 80.3418L17.4999 81.1768C16.1493 79.3824 13.4856 79.9127 12.1444 79.5059C11.7865 79.3971 11.6057 78.7721 11.2528 78.6699C5.39906 76.9904 0.105473 76.2604 -5.70326 74.4922C-6.13359 74.3608 -6.31734 73.355 -7.48841 73.6562C-7.84578 73.7489 -8.03891 74.4201 -8.38099 74.4922C-9.4174 74.7098 -10.9096 74.277 -11.9503 74.4922C-12.2763 74.5595 -12.4635 75.1864 -12.8429 75.3281C-14.3131 75.875 -15.9019 76.149 -16.8585 77.417C-16.5548 79.1235 -17.2923 81.7927 -16.8585 83.2656C-16.7277 83.7069 -14.769 85.0579 -14.1818 85.7725C-14.0343 85.952 -14.3218 86.4408 -14.1818 86.6074C-11.3975 89.8834 -7.49586 92.3533 -4.36439 94.9629L-10.6115 95.3809L-10.6115 97.8877H-8.8263C-9.20574 100.909 -5.95256 99.7195 -4.36341 101.647L-7.93275 103.318C-7.18828 104.049 -5.72297 105.041 -4.80873 105.407C-3.41898 105.964 0.301535 107.163 1.88463 107.496C3.46327 107.828 3.14841 107.862 4.56139 107.078C5.08515 109.266 2.98371 109.15 2.33092 109.585C1.42681 110.188 -1.64642 112.79 -2.13197 112.927C-3.91182 113.427 -4.7691 111.217 -6.14759 113.345L0.992056 120.029L-2.57728 120.447L-0.792124 122.118L-4.36146 121.7L-4.36146 120.447L-10.6085 119.611L-8.82337 117.94L-14.1779 119.193C-12.7103 120.313 -12.0464 121.105 -12.3927 122.953L-7.03822 122.117C-7.2945 123.709 -6.0599 124.864 -4.36048 124.624L-5.25306 127.131C-3.79214 126.679 -3.48426 127.84 -3.02162 127.967C-2.28223 128.169 -1.10444 127.771 -0.344858 127.967C0.14576 128.093 0.949636 129.512 1.4403 129.638C2.84508 130 5.38983 129.275 6.79479 129.638C7.56297 129.836 8.23407 131.924 9.91881 131.309V134.65H38.0311C38.5803 134.65 39.7441 132.926 39.37 132.144L37.4755 131.257C38.1758 131.233 38.4631 130.565 38.9247 130.473C41.5612 129.944 41.7205 130.678 42.9403 132.144C42.9724 132.202 43.5664 131.855 43.826 132.991C47.291 133.515 51.3671 134.623 54.535 132.991V134.662C75.1967 134.817 95.8919 134.454 116.56 134.662C160.651 135.107 207.242 135.348 251.32 136.333C256.57 136.45 274.388 137.288 278.094 136.333C278.661 136.187 279.988 134.291 280.771 133.826L284.341 136.333C284.925 136.229 285.595 136.475 286.126 136.333C289.797 135.346 292.184 136.919 295.943 136.333C296.284 136.28 296.539 135.498 296.836 135.498C325.679 135.498 357.226 136.968 386.081 137.169C430.996 137.482 475.925 136.953 520.841 137.169C565.443 137.383 612.807 137.608 657.386 138.84C669.725 139.181 681.458 138.327 693.083 138.84C703.576 139.303 714.262 138.498 724.766 138.84L724.318 137.169L726.103 138.84C747.979 139.444 770.327 138.029 792.145 138.84C804.248 139.289 817.397 139.332 829.628 139.676C836.903 139.88 844.224 139.526 851.494 139.676L852.386 138.005L852.832 139.676C853.685 140.234 854.315 138.841 854.617 138.84C863.797 138.84 878.743 141.338 889.424 139.676C896.682 138.546 918.493 139.08 927.799 139.676C939.457 140.422 952.569 139.4 965.282 139.676C1009.1 140.625 1055.43 141.063 1100.04 141.347C1207.16 142.027 1313.71 141.682 1420.43 143.018L1422.66 141.347V143.018H1440V90.292ZM1200.44 12.2568L1202.23 10.168L1203.12 14.3457H1201.33L1200.44 12.2568ZM1179.47 12.6748C1178.89 12.6747 1178.89 11.839 1179.47 11.8389C1180.05 11.8389 1180.05 12.6748 1179.47 12.6748ZM1210.7 16.0166C1210.12 16.0166 1210.12 15.1807 1210.7 15.1807C1211.28 15.1807 1211.28 16.0166 1210.7 16.0166ZM1191.96 17.6875C1191.38 17.6875 1191.38 16.8516 1191.96 16.8516C1192.54 16.8527 1192.54 17.6872 1191.96 17.6875ZM1230.34 19.3584C1229.76 19.3584 1229.76 18.5225 1230.34 18.5225C1230.92 18.5226 1230.92 19.3583 1230.34 19.3584ZM1167.87 21.0293C1167.29 21.0293 1167.29 20.1943 1167.87 20.1943C1168.45 20.1936 1168.45 21.0292 1167.87 21.0293ZM700.223 21.8643L699.776 23.1182L700.669 24.3711H698.884L700.223 21.8643ZM1155.37 24.3711C1154.79 24.3708 1154.79 23.5355 1155.37 23.5352C1155.95 23.5352 1155.95 24.3711 1155.37 24.3711ZM1152.25 24.3711H1153.14V26.042H1152.25V24.3711ZM1188.39 25.207C1187.81 25.2067 1187.81 24.3714 1188.39 24.3711C1188.97 24.3711 1188.97 25.207 1188.39 25.207ZM1190.18 26.042C1189.6 26.042 1189.6 25.207 1190.18 25.207C1190.76 25.2074 1190.76 26.0416 1190.18 26.042ZM543.599 32.7217V31.0508L546.276 31.8857L545.384 28.5439L541.814 29.3799L542.261 31.0508L539.138 30.2148V33.5566L543.599 32.7217ZM696.206 28.5488H697.991V29.3848H696.206V28.5488ZM1403.47 29.3848C1402.89 29.3846 1402.89 28.549 1403.47 28.5488C1404.05 28.5488 1404.05 29.3848 1403.47 29.3848ZM563.678 30.2197C563.098 30.2197 563.098 29.3838 563.678 29.3838C564.257 29.3847 564.257 30.2196 563.678 30.2197ZM1170.1 29.3848L1171.88 31.0557H1170.1V29.3848ZM697.099 31.0557L701.561 30.2197V32.7266L699.33 33.5625L697.099 31.0557ZM1194.19 30.2197H1196.87V31.0557H1194.19V30.2197ZM1199.99 31.0557C1199.41 31.0552 1199.41 30.2201 1199.99 30.2197C1200.57 30.2197 1200.57 31.0557 1199.99 31.0557ZM1172.33 32.7266C1171.75 32.7266 1171.75 31.8906 1172.33 31.8906C1172.91 31.8909 1172.91 32.7262 1172.33 32.7266ZM1235.69 32.7266C1235.11 32.7264 1235.11 31.8907 1235.69 31.8906C1236.27 31.8906 1236.27 32.7266 1235.69 32.7266ZM681.48 33.5625C680.901 33.5621 680.901 32.727 681.48 32.7266C682.06 32.7266 682.06 33.5625 681.48 33.5625ZM705.578 39.4121C704.159 38.0863 702.751 39.2806 703.348 36.4873L700.669 33.5625C702.934 33.1295 703.785 34.2844 705.132 35.6514L704.239 36.4873L705.578 39.4121ZM716.732 33.5625L720.303 34.3975L715.84 36.9043L716.732 33.5625ZM1162.06 33.5625H1163.85V35.2334H1162.06V33.5625ZM1226.32 33.5625L1228.11 35.2334H1226.32V33.5625ZM486.48 36.9053H488.266L489.158 35.2334L487.819 40.2471L486.48 36.9053ZM1169.2 36.4863V36.0684H1170.99V37.7393L1169.2 36.4863ZM1233.02 36.9043C1232.44 36.9043 1232.44 36.0684 1233.02 36.0684C1233.59 36.0688 1233.59 36.9039 1233.02 36.9043ZM1237.48 36.9043C1236.9 36.904 1236.9 36.0687 1237.48 36.0684C1238.06 36.0684 1238.06 36.9043 1237.48 36.9043ZM1154.48 48.6025C1152.47 47.348 1150.15 45.8948 1147.79 46.0957V44.4248L1145.11 43.1719L1148.68 42.7539C1148.76 41.7724 1148.79 41.1613 1148.23 40.2471C1147.21 38.5866 1146.82 40.6533 1146 39.8291L1149.13 36.0693L1152.25 38.1582L1151.36 41.083L1154.03 39.4121L1152.25 45.2607L1154.03 45.2598L1154.48 48.6025ZM1353.5 37.7402C1352.92 37.7402 1352.92 36.9043 1353.5 36.9043C1354.08 36.9045 1354.08 37.74 1353.5 37.7402ZM1228.55 38.5752C1227.97 38.5752 1227.97 37.7393 1228.55 37.7393C1229.13 37.7393 1229.13 38.5751 1228.55 38.5752ZM457.03 38.9932L457.476 38.5752L459.708 39.4111V40.2461L457.03 38.9932ZM1225.43 38.5752H1227.21V39.4111H1225.43V38.5752ZM564.124 39.4111H565.016V41.082H564.124V39.4111ZM579.295 39.4111L581.973 40.2461V41.082L579.295 41.918V39.4111ZM706.023 40.6641L707.362 39.4111L708.701 41.082H706.023V40.6641ZM451.676 44.4238C452.125 42.7839 450.974 41.9772 450.783 40.6641C450.314 37.4364 454.02 41.5997 455.246 41.082L454.353 42.7529L457.031 43.5889L452.567 42.7529L451.676 44.4238ZM186.171 41.082C185.592 41.0816 185.592 40.2465 186.171 40.2461C186.751 40.2461 186.751 41.082 186.171 41.082ZM460.599 41.5V41.082H463.277V43.5889L460.599 41.5ZM505.222 41.5V41.082H507.007V42.7529L505.222 41.5ZM1170.99 41.082H1171.88V42.7529H1170.99V41.082ZM733.689 45.6777C732.246 44.5815 731.551 43.7614 731.904 41.918C732.725 42.066 734.236 41.4376 734.582 42.3359C735.06 43.5754 735.607 44.8388 736.367 46.0957L731.904 47.7666L733.689 45.6777ZM178.585 41.918L182.155 43.5889L180.37 45.2598L178.585 41.918ZM470.862 42.7529C470.283 42.7525 470.283 41.9184 470.862 41.918C471.442 41.918 471.442 42.7529 470.862 42.7529ZM581.081 42.7529V41.918H585.543L583.312 43.5889L581.081 42.7529ZM1161.17 41.918H1162.06V43.5889H1161.17V41.918ZM1349.48 41.918H1351.26L1349.48 43.5889V41.918ZM465.508 43.5889C464.928 43.5886 464.928 42.7532 465.508 42.7529C466.087 42.7529 466.087 43.5889 465.508 43.5889ZM553.415 42.7529H555.2V43.5889H553.415V42.7529ZM1166.97 43.5889C1166.39 43.5885 1166.39 42.7533 1166.97 42.7529C1167.55 42.7529 1167.55 43.5889 1166.97 43.5889ZM1239.71 43.5889C1239.95 43.3668 1243.09 45.7014 1244.17 45.2598L1243.28 47.7666L1239.71 43.5889ZM513.254 46.0957V43.5889C515.058 43.9015 514.797 45.666 515.932 46.5137L515.485 46.9316L513.254 46.0957ZM737.706 44.4248C737.126 44.4248 737.126 43.5889 737.706 43.5889C738.284 43.5893 738.284 44.4244 737.706 44.4248ZM164.307 44.4248H165.199V46.0957H164.307V44.4248ZM475.77 44.4248H480.233V45.2598H475.77V44.4248ZM720.303 44.4248H722.088V45.2598H720.303V44.4248ZM1249.97 54.4502C1248.79 52.5095 1247.16 54.7207 1246.85 54.4502L1249.53 51.5254V49.4365H1247.74V45.2588H1251.31C1251.6 45.4933 1248.12 48.076 1250.86 48.6016C1252.27 48.8721 1254.24 48.4179 1255.77 48.6016L1253.1 49.4375C1253.67 51.9433 1251.5 52.8878 1249.97 54.4502ZM507.899 46.0957L510.13 45.2598L510.577 45.6777L507.899 46.9307V46.0957ZM727.442 45.2598H729.226V46.0957H727.442V45.2598ZM737.706 46.9316C737.126 46.9316 737.126 46.0957 737.706 46.0957C738.284 46.0961 738.284 46.9312 737.706 46.9316ZM1121.46 46.9316C1120.88 46.9316 1120.88 46.0957 1121.46 46.0957C1122.04 46.0959 1122.04 46.9314 1121.46 46.9316ZM735.474 49.8555C736.833 48.0952 739.043 49.0279 740.382 46.9307L740.829 47.3486C739.455 49.4524 737.531 49.1037 735.921 50.2734L735.474 49.8555ZM151.365 47.7666C150.786 47.7663 150.786 46.932 151.365 46.9316C151.945 46.9316 151.945 47.7666 151.365 47.7666ZM715.394 47.7666C714.815 47.7666 714.815 46.9316 715.394 46.9316C715.973 46.9317 715.973 47.7666 715.394 47.7666ZM777.42 46.9316L779.205 48.1846L777.866 49.4375H777.42V46.9316ZM1148.68 53.6152C1148.53 51.9491 1150.04 51.8587 1148.68 50.2725H1150.02V47.7656L1153.14 51.9443L1148.68 53.6152ZM117.899 47.7666H118.792V49.4375H117.899V47.7666ZM514.593 48.6025C514.013 48.6025 514.013 47.7667 514.593 47.7666C515.172 47.7666 515.172 48.6025 514.593 48.6025ZM719.856 48.6025C719.277 48.6025 719.277 47.7666 719.856 47.7666C720.436 47.7668 720.436 48.6023 719.856 48.6025ZM774.741 47.7666L776.526 49.4375H774.741V47.7666ZM439.181 49.8555C440.164 48.5678 441.089 48.4134 442.75 48.6025V50.2734H439.181V49.8555ZM509.238 49.4375C508.658 49.4375 508.658 48.6016 509.238 48.6016C509.818 48.6026 509.818 49.4373 509.238 49.4375ZM1168.76 49.4375C1168.18 49.4375 1168.18 48.6016 1168.76 48.6016C1169.34 48.602 1169.34 49.4371 1168.76 49.4375ZM122.361 48.6025L124.146 50.2734H122.361V48.6025ZM179.477 49.4385L181.709 48.6025L183.048 51.1094H179.477V49.4385ZM505.222 56.1221C504.502 53.5014 507.506 53.0484 507.007 50.6914L505.222 50.2734L506.56 48.6025C508.123 50.4696 509.253 50.8764 511.469 49.4385C511.955 51.8483 510.788 50.7342 510.13 51.1094C508.95 51.7821 508.557 52.7695 508.792 54.0332L510.577 56.1221L507.453 56.957L505.222 56.1221ZM132.625 50.2734C132.045 50.2734 132.045 49.4385 132.625 49.4385C133.204 49.4378 133.204 50.2733 132.625 50.2734ZM155.828 50.2734C155.248 50.2734 155.248 49.4385 155.828 49.4385C156.408 49.4377 156.408 50.2734 155.828 50.2734ZM486.035 50.2734C485.455 50.2734 485.455 49.4385 486.035 49.4385C486.613 49.438 486.613 50.2731 486.035 50.2734ZM676.126 51.1094C675.546 51.1092 675.546 50.2736 676.126 50.2734C676.706 50.2734 676.706 51.1094 676.126 51.1094ZM741.722 51.9453L739.936 51.5273L742.614 50.2734V53.6162H741.722V51.9453ZM1092.45 51.1094L1090.67 51.5273L1093.35 50.2734V52.7803H1092.45V51.1094ZM1306.64 52.7803L1310.21 54.4512L1308.43 51.1094C1310.42 50.7936 1310.18 51.2938 1310.66 52.7803C1310.92 53.5859 1311.37 54.2638 1311.1 55.2871L1308.87 56.1221L1306.64 52.7803ZM514.147 51.9443C515.494 52.2923 515.768 51.3705 516.824 51.1084V53.6152H515.486L514.147 51.9443ZM518.608 51.1084H520.394V51.9443H518.608V51.1084ZM746.63 51.9443C746.05 51.9443 746.05 51.1084 746.63 51.1084C747.21 51.1092 747.21 51.9443 746.63 51.9443ZM1021.5 51.9443C1020.92 51.9443 1020.92 51.1084 1021.5 51.1084C1022.08 51.1092 1022.08 51.9443 1021.5 51.9443ZM192.865 51.1094H193.758V53.6162H192.865V51.1094ZM202.682 51.1094H205.359V52.7803H204.02L202.682 51.1094ZM526.641 53.6152C524.496 53.5639 522.565 54.1769 521.286 52.3623L521.732 51.9443C522.822 53.3507 524.845 52.6433 526.641 52.7793V53.6152ZM140.656 52.7803C140.076 52.7803 140.076 51.9453 140.656 51.9453C141.236 51.9447 141.236 52.7801 140.656 52.7803ZM437.395 51.9453H439.181V52.7803H437.395V51.9453ZM595.806 52.7803C595.226 52.78 595.226 51.9456 595.806 51.9453C596.385 51.9445 596.385 52.7803 595.806 52.7803ZM1009.01 52.7803C1008.43 52.7799 1008.43 51.9457 1009.01 51.9453C1009.59 51.9445 1009.59 52.7803 1009.01 52.7803ZM1158.05 52.7803C1157.47 52.7802 1157.47 51.9454 1158.05 51.9453C1158.63 51.9445 1158.63 52.7803 1158.05 52.7803ZM1326.28 51.9453H1328.06V52.7803H1326.28V51.9453ZM190.634 53.6152C190.054 53.6151 190.054 52.7794 190.634 52.7793C191.213 52.7801 191.213 53.6152 190.634 53.6152ZM1154.48 53.6152C1153.9 53.6152 1153.9 52.7793 1154.48 52.7793C1155.06 52.7802 1155.06 53.6151 1154.48 53.6152ZM440.074 52.7803H441.858L440.966 56.1221H440.074V52.7803ZM1102.27 52.7803H1103.16V55.2871H1102.27V52.7803ZM1106.73 52.7803H1107.63V54.4512H1106.73V52.7803ZM497.189 53.6162H498.975V54.4512H497.189V53.6162ZM592.235 55.2871C592.048 55.2859 591.357 53.9939 590.005 54.4512V53.6162H595.359V54.4512C593.746 53.8132 592.41 55.2871 592.235 55.2871ZM988.484 54.4512C987.904 54.4512 987.904 53.6162 988.484 53.6162C989.063 53.6155 989.063 54.4511 988.484 54.4512ZM1304.41 54.4512C1303.83 54.4512 1303.83 53.6162 1304.41 53.6162C1304.99 53.6163 1304.99 54.4511 1304.41 54.4512ZM1153.14 56.1221C1152.02 56.6614 1150.02 54.7853 1150.46 54.4512C1151.58 53.9121 1153.58 55.7888 1153.14 56.1221ZM1136.63 55.2871C1136.05 55.2871 1136.05 54.4512 1136.63 54.4512C1137.21 54.4512 1137.21 55.2871 1136.63 55.2871ZM1156.26 55.2871C1155.68 55.2871 1155.68 54.4512 1156.26 54.4512C1156.84 54.4513 1156.84 55.287 1156.26 55.2871ZM1139.75 55.7041L1140.2 55.2861C1140.96 56.3909 1142 56.1648 1143.32 56.1221L1141.99 57.793L1139.75 55.7041ZM1061.22 56.1221H1059.43V55.2871H1063L1061.66 57.793L1061.22 56.1221ZM221.87 56.1221H222.316V57.793H220.531L221.87 56.1221ZM432.487 56.958C431.908 56.9579 431.908 56.1222 432.487 56.1221C433.067 56.1213 433.067 56.958 432.487 56.958ZM731.458 56.958C730.878 56.958 730.878 56.1221 731.458 56.1221C732.037 56.1214 732.037 56.9579 731.458 56.958ZM1063.9 56.1221H1064.79V57.793H1063.9V56.1221ZM1357.07 56.958C1356.49 56.958 1356.49 56.1221 1357.07 56.1221C1357.65 56.1213 1357.65 56.958 1357.07 56.958ZM424.009 56.957H425.794V57.793H424.009V56.957ZM1016.15 57.793C1015.57 57.793 1015.57 56.957 1016.15 56.957C1016.73 56.9573 1016.73 57.7927 1016.15 57.793ZM1098.26 57.793C1097.68 57.793 1097.68 56.957 1098.26 56.957C1098.83 56.9582 1098.83 57.7926 1098.26 57.793ZM1112.09 56.958H1112.98V58.6289H1112.09V56.958ZM1137.08 56.958H1137.97V58.6289H1137.08V56.958ZM505.222 57.793H507.899V58.6289H505.222V57.793ZM516.824 57.793H518.608V59.4639H516.824V57.793ZM762.248 58.2109V57.793H764.033V59.4639L762.248 58.2109ZM1050.06 58.6289C1049.48 58.6285 1049.48 57.7934 1050.06 57.793C1050.64 57.793 1050.64 58.6289 1050.06 58.6289ZM1071.93 57.793H1072.82V59.4639H1071.93V57.793ZM1261.13 57.793L1262.91 59.4639H1261.13V57.793ZM513.7 59.4639C513.121 59.4634 513.121 58.6293 513.7 58.6289C514.28 58.6281 514.28 59.4639 513.7 59.4639ZM540.474 59.4639C539.895 59.4639 539.895 58.6289 540.474 58.6289C541.053 58.6284 541.053 59.4636 540.474 59.4639ZM664.97 58.6289H666.756V60.2998H664.97V58.6289ZM1140.65 63.2236H1143.32L1142.43 58.6289L1144.22 60.7168V64.4766H1144.22L1140.65 63.2236ZM1281.21 59.4639C1280.63 59.4639 1280.63 58.6289 1281.21 58.6289C1281.79 58.6282 1281.79 59.4638 1281.21 59.4639ZM1324.49 58.6289L1326.28 60.2998H1324.49V58.6289ZM306.652 60.2998C306.072 60.2998 306.072 59.4639 306.652 59.4639C307.232 59.465 307.232 60.2995 306.652 60.2998ZM499.868 60.2998L503.437 59.4639L502.099 61.9707L499.868 60.2998ZM1042.92 60.2998C1042.34 60.2998 1042.34 59.4639 1042.92 59.4639C1043.5 59.4647 1043.5 60.2998 1042.92 60.2998ZM1156.71 62.8057L1155.82 64.4766C1156.07 62.798 1154.71 61.7072 1153.14 61.9707L1154.48 59.4639L1157.16 60.2998L1161.17 62.3887L1160.28 64.4766L1156.71 62.8057ZM330.303 60.7168V60.2988L333.872 60.2998V61.5527L332.533 62.8057L330.303 60.7168ZM432.933 61.1348V60.2998L435.611 61.5527L435.165 61.9707L432.933 61.1348ZM506.115 65.3125C506.499 63.395 505.123 61.9878 504.33 60.2998L507.899 60.7168L507.007 64.4766L511.023 62.8057L511.47 65.3125L508.346 66.1484L506.115 65.3125ZM520.393 60.2998H522.179V61.1348H520.393V60.2998ZM1049.17 61.1348C1048.59 61.1348 1048.59 60.2998 1049.17 60.2998C1049.75 60.3 1049.75 61.1346 1049.17 61.1348ZM1084.42 60.2998L1086.21 60.2998V61.1348L1084.42 61.1348V60.2998ZM1267.82 61.1348C1267.24 61.1348 1267.24 60.2998 1267.82 60.2998C1268.4 60.3001 1268.4 61.1344 1267.82 61.1348ZM21.0682 61.9707C20.4886 61.9706 20.4886 61.1348 21.0682 61.1348C21.6472 61.1348 21.6472 61.9707 21.0682 61.9707ZM1061.22 74.5029L1057.65 77.0098V73.668L1054.53 74.5039L1050.51 72.415L1054.08 71.9971L1053.19 67.8193L1050.51 66.9834L1054.08 65.3125L1051.4 64.8945L1047.83 66.1475C1048.87 64.1498 1048.8 62.4723 1050.96 61.1348L1053.19 61.9697L1052.3 64.4766H1055.87C1055.12 59.9127 1059.14 62.0372 1058.54 65.3125L1060.33 63.6416L1061.22 65.3125C1063.15 64.996 1064.24 64.2398 1066.57 64.4766C1066.52 65.0223 1066.6 65.5968 1066.57 66.1465L1063.9 65.3105C1064.02 66.9504 1063.71 68.713 1063.9 70.3252C1061.98 70.1788 1062.43 69.9184 1061.22 69.0723C1059.79 68.0718 1060.23 67.1537 1058.54 69.0723L1063.45 72.832C1066.29 73.0576 1064 71.2236 1063.9 70.3252C1064.48 70.3695 1065.09 70.3046 1065.68 70.3252L1064.79 68.2363L1066.57 67.8184V72.832H1070.14C1070.65 73.2927 1068.61 77.8298 1066.57 77.0098L1067.47 73.668L1063 74.9209L1062.11 77.8457L1061.22 74.5029ZM1074.61 65.7295C1073.26 67.0497 1074.23 68.5908 1071.48 67.8184C1070.22 67.4651 1069.58 64.7832 1066.57 64.4766C1066.72 62.9498 1066.24 61.6675 1068.36 61.1348L1071.93 62.8057L1070.14 65.3125L1073.27 64.4766L1074.61 65.7295ZM1269.16 61.1348H1270.05V62.8057H1269.16V61.1348ZM1357.07 63.6416C1354.74 62.7709 1356.66 59.8962 1358.4 62.3887V63.6416H1357.07ZM1118.78 66.1475V65.3125H1117.44L1118.78 61.9697L1123.69 63.6406L1121.01 64.4756V66.9834L1118.78 66.1475ZM426.686 61.9707H428.472V62.8057H426.686V61.9707ZM512.808 62.8057C512.229 62.8057 512.229 61.9707 512.808 61.9707C513.387 61.9708 513.387 62.8055 512.808 62.8057ZM614.1 61.9707H614.993V63.6416H614.1V61.9707ZM801.962 64.4766C800.55 63.3535 798.875 62.5707 797.054 62.8057V61.9707H799.284L802.408 64.0586L801.962 64.4766ZM1271.39 62.8057C1270.81 62.8057 1270.81 61.9707 1271.39 61.9707C1271.97 61.9708 1271.97 62.8056 1271.39 62.8057ZM768.494 68.6543C768.13 67.1048 769.035 66.2511 769.387 64.8945C769.615 64.0176 768.681 62.5836 770.279 62.8057V67.4014L768.494 68.6543ZM334.317 63.6416C333.738 63.6411 333.738 62.8061 334.317 62.8057C334.897 62.8057 334.897 63.6416 334.317 63.6416ZM414.192 64.0586V62.8057H415.977V65.3125H415.531L414.192 64.0586ZM436.504 62.8057H438.289C437.916 64.0672 438.901 64.3242 439.181 65.3125H436.504V62.8057ZM616.778 62.8057C618.57 63.2505 618.78 64.5796 618.563 66.1475H616.778V62.8057ZM818.472 63.2236V62.8057H820.257V64.4766L818.472 63.2236ZM827.843 63.6416C827.263 63.6413 827.263 62.806 827.843 62.8057C828.422 62.8057 828.422 63.6416 827.843 63.6416ZM839.444 63.6416C838.865 63.6412 838.865 62.8061 839.444 62.8057C840.024 62.8057 840.024 63.6416 839.444 63.6416ZM1046.49 63.6416C1045.91 63.6415 1045.91 62.8058 1046.49 62.8057C1047.07 62.8057 1047.07 63.6416 1046.49 63.6416ZM1147.34 63.6416C1146.76 63.6412 1146.76 62.8061 1147.34 62.8057C1147.92 62.8057 1147.92 63.6416 1147.34 63.6416ZM298.62 64.4766C298.04 64.4766 298.04 63.6416 298.62 63.6416C299.199 63.6418 299.199 64.4764 298.62 64.4766ZM303.528 63.6416L305.313 65.3125H303.528V63.6416ZM595.359 63.6416H597.144L595.359 65.3125V63.6416ZM621.687 64.4766C621.108 64.4766 621.108 63.6416 621.687 63.6416C622.266 63.6416 622.266 64.4766 621.687 64.4766ZM859.971 66.1475L858.632 63.6416L863.986 64.8945L860.417 64.4766L863.095 68.6543L859.971 66.1475ZM1365.99 64.4766C1365.41 64.4762 1365.41 63.642 1365.99 63.6416C1366.57 63.6416 1366.57 64.4766 1365.99 64.4766ZM218.3 65.3125C217.72 65.3125 217.72 64.4766 218.3 64.4766C218.879 64.4766 218.879 65.3124 218.3 65.3125ZM294.603 64.8945V64.4766H296.389V66.1475L294.603 64.8945ZM309.329 65.3125C308.75 65.3122 308.75 64.4768 309.329 64.4766C309.909 64.4766 309.909 65.3125 309.329 65.3125ZM613.209 65.3125V64.4766L615.887 65.7305L615.439 66.1475L613.209 65.3125ZM658.277 65.3125C657.698 65.3122 657.698 64.4768 658.277 64.4766C658.856 64.4766 658.856 65.3125 658.277 65.3125ZM1078.62 65.3125C1078.04 65.3125 1078.04 64.4766 1078.62 64.4766C1079.2 64.4767 1079.2 65.3123 1078.62 65.3125ZM1127.71 65.3125C1127.13 65.3125 1127.13 64.4766 1127.71 64.4766C1128.29 64.4769 1128.29 65.3122 1127.71 65.3125ZM834.536 70.7432L835.43 67.8184C835.602 67.6631 836.348 68.0391 836.768 67.8184C838.404 66.9603 837.527 65.1954 838.999 65.3125C839.143 66.9782 837.635 67.0682 838.999 68.6543H837.214L838.106 71.9961L834.536 70.7432ZM102.727 65.3125H104.513V66.1475H102.727V65.3125ZM663.633 74.5029C662.716 75.786 661.181 75.2811 659.616 75.3389C662.23 70.5259 658.744 71.7048 655.6 71.1611C655.259 71.1018 655.047 70.3806 654.708 70.3252C653.499 70.1274 650.617 71.1221 650.692 69.4893L657.832 68.6543L656.047 65.3125L657.386 66.9834C658.947 66.9357 660.337 64.9778 661.848 66.9834C662.773 65.5587 663.841 67.49 665.864 66.9834C667.212 70.0197 660.999 67.5306 662.295 69.9072C662.461 70.2119 664.174 71.8121 664.525 71.9961C664.947 72.2161 665.697 71.8404 665.864 71.9961C666.03 72.152 665.629 72.854 665.864 73.249C666.151 73.7334 668.119 74.9794 667.648 75.3389L663.633 74.5029ZM767.156 66.1475C766.577 66.147 766.577 65.3129 767.156 65.3125C767.735 65.3133 767.735 66.1475 767.156 66.1475ZM816.687 66.1475L818.918 65.3125L821.149 66.9834H816.687V66.1475ZM1261.13 66.9834V66.1475L1264.25 65.3125L1263.8 66.5654L1264.7 67.8193L1261.13 66.9834ZM802.408 66.5654C803.339 64.3878 806.409 66.1842 803.747 67.8193H802.408V66.5654ZM598.483 66.9834C597.904 66.9834 597.904 66.1475 598.483 66.1475C599.063 66.1475 599.063 66.9834 598.483 66.9834ZM830.52 66.9834C829.941 66.9834 829.941 66.1475 830.52 66.1475C831.099 66.1476 831.099 66.9833 830.52 66.9834ZM783.22 73.668C781.564 72.268 779.595 71.7336 777.419 71.9971L778.31 69.4902L775.634 70.3262V67.8193H772.064L773.402 66.9834L772.956 66.5654L776.525 66.9834V68.6543L779.649 69.4902L780.988 66.1484V69.4902L785.451 70.3262L785.004 71.9971H783.667L783.22 73.668ZM113.437 66.9834H114.33V68.6543H113.437V66.9834ZM326.286 67.8193C325.706 67.8193 325.706 66.9834 326.286 66.9834C326.865 66.9838 326.865 67.819 326.286 67.8193ZM405.714 67.8193C405.134 67.8193 405.134 66.9834 405.714 66.9834C406.293 66.9835 406.293 67.8192 405.714 67.8193ZM508.346 67.8193C507.766 67.8191 507.766 66.9836 508.346 66.9834C508.925 66.9834 508.925 67.8193 508.346 67.8193ZM339.226 69.9082C338.745 70.2304 337.104 71.1935 336.55 70.7441V68.6553C338.372 68.8903 340.046 68.1075 341.458 66.9844L341.802 67.8428C340.703 68.0849 340.089 69.3308 339.226 69.9082ZM409.284 68.6543C408.704 68.6543 408.704 67.8184 409.284 67.8184C409.863 67.8192 409.863 68.6543 409.284 68.6543ZM811.779 68.6543C811.199 68.6543 811.199 67.8184 811.779 67.8184C812.358 67.8195 812.358 68.6539 811.779 68.6543ZM831.859 67.8184H834.536V68.6543H831.859V67.8184ZM859.525 73.668C857.68 71.9687 856.572 73.6757 856.401 73.668C856.089 73.6498 855.85 72.8859 855.509 72.832C854.028 72.6002 852.161 72.9903 850.6 72.832L851.493 71.1611L846.138 70.3252V67.8184L847.924 69.4893C850.598 69.3935 853.436 68.9889 853.278 71.9961L854.171 71.9961V70.3252C856.1 70.0221 857.521 70.6324 859.079 71.1611C860.038 71.4864 859.367 72.8986 859.525 73.668ZM14.3739 69.0723L15.7128 67.8193L16.159 68.2373L14.8202 69.4902L14.3739 69.0723ZM25.9764 71.9971C26.0214 70.7537 26.2636 69.7885 25.0848 69.0723L25.5311 68.6543L27.7616 70.7432L25.9764 71.9971ZM330.302 68.6543H332.979V69.4902H330.302V68.6543ZM814.01 68.6543H816.687V69.4902H814.01V68.6543ZM1119.23 69.0723L1119.67 68.6543L1121.01 69.9072L1120.57 70.3252L1119.23 69.0723ZM1403.92 69.4902C1403.44 71.1683 1402.02 71.3638 1400.35 71.1611L1401.69 68.6543L1403.92 69.4902ZM841.677 68.6553H845.246V69.4902C844.167 69.3256 843.651 69.5064 843.016 70.3262L841.677 68.6553ZM294.158 70.3252C293.578 70.3252 293.578 69.4893 294.158 69.4893C294.738 69.4893 294.737 70.3252 294.158 70.3252ZM978.667 70.3252C978.087 70.3252 978.087 69.4893 978.667 69.4893C979.247 69.4901 979.247 70.3252 978.667 70.3252ZM378.494 69.4902H379.387V71.1611H378.494V69.4902ZM409.73 71.9971C408.994 72.5724 404.555 70.0285 405.268 69.4902L409.73 71.1611V71.9971ZM769.834 71.3477V69.4902L771.618 71.1611L774.742 70.7432L773.403 72.832L769.834 71.3477ZM868.449 69.4902H869.342V71.1611H868.449V69.4902ZM32.2235 70.3252C32.6658 70.6592 30.6629 72.5359 29.5458 71.9961C29.1058 71.6621 31.1075 69.7865 32.2235 70.3252ZM188.848 71.1611C188.269 71.161 188.269 70.3253 188.848 70.3252C189.428 70.3252 189.428 71.1611 188.848 71.1611ZM1397.67 74.0859L1398.56 70.3262L1399.46 72.833L1403.92 74.9219V77.0107L1400.35 76.1748V79.5166L1397.67 74.0859ZM633.734 74.9209C634.047 75.9705 632.523 77.2409 631.504 77.0098L631.95 75.3389L628.826 76.1748L627.488 74.9219L628.38 73.251L625.703 71.1621L628.38 71.1611C627.616 74.5582 633.146 72.9537 633.734 74.9209ZM927.35 71.1611H929.136V71.9971H927.35V71.1611ZM1041.14 71.9971C1040.56 71.9971 1040.56 71.1611 1041.14 71.1611C1041.72 71.1612 1041.72 71.997 1041.14 71.9971ZM649.352 90.3789C647.931 88.6052 645.505 89.0965 643.998 88.708C643.508 88.5814 642.71 87.1716 642.214 87.0371C639.574 86.3279 637.627 85.3574 635.073 84.5303C634.442 84.3259 633.685 83.1182 631.949 83.6943L631.057 80.7705C631.903 80.1074 633.822 81.9506 634.182 82.0234C635.326 82.256 636.938 81.8691 638.197 82.0234C638.466 80.6075 637.783 79.5205 637.306 78.2637C636.994 77.4437 636.202 77.8908 635.519 77.8457L637.306 77.0098C637.806 76.5995 635.648 75.3514 635.519 74.9209C635.353 74.3661 634.982 71.6861 636.412 71.9961L639.09 74.9209V77.0098H641.766L640.875 74.5029L645.337 76.5918L644.444 78.2627C646.836 79.7998 646.076 82.7705 648.46 84.5293H651.584L650.691 81.1875C654.167 82.306 651.157 86.3745 653.368 88.29L649.352 90.3789ZM791.252 72.832C790.672 72.8319 790.672 71.9962 791.252 71.9961C791.832 71.9969 791.832 72.832 791.252 72.832ZM989.377 72.832C988.797 72.832 988.797 71.9961 989.377 71.9961C989.955 71.9973 989.955 72.8316 989.377 72.832ZM335.656 72.415V71.9971H338.334L336.995 73.668L335.656 72.415ZM380.725 71.9971H381.172V73.668H379.387L380.725 71.9971ZM1007.22 75.3389L1010.35 72.4141L1012.13 73.25L1008.56 74.5029L1009.01 75.3389L1007.22 77.8457V75.3389ZM361.092 73.668C360.512 73.668 360.512 72.832 361.092 72.832C361.671 72.8323 361.671 73.6677 361.092 73.668ZM786.345 72.832H787.237V74.5029H786.345V72.832ZM795.268 80.3525C793.685 80.9327 790.874 77.7611 791.698 77.0098C792.874 77.0984 793.652 76.53 794.822 76.1738C796.01 75.8121 796.45 76.8379 796.161 74.5029L792.592 72.832L797.946 73.668V79.5166L795.269 77.0098V80.3525H795.268ZM824.272 73.668C823.693 73.6678 823.693 72.8322 824.272 72.832C824.852 72.832 824.852 73.668 824.272 73.668ZM1283.88 73.668C1283.31 73.6676 1283.31 72.8324 1283.88 72.832C1284.46 72.832 1284.46 73.668 1283.88 73.668ZM38.0243 74.5029C37.445 74.5025 37.445 73.6674 38.0243 73.667C38.6041 73.667 38.6041 74.5029 38.0243 74.5029ZM375.37 74.5029C374.791 74.5025 374.791 73.6674 375.37 73.667C375.95 73.6678 375.95 74.5029 375.37 74.5029ZM801.962 74.5029C801.382 74.5029 801.382 73.667 801.962 73.667C802.541 73.6681 802.541 74.5026 801.962 74.5029ZM870.681 74.5029C870.101 74.5026 870.101 73.6673 870.681 73.667C871.259 73.6678 871.259 74.5029 870.681 74.5029ZM880.497 74.5029C879.918 74.5026 879.918 73.6673 880.497 73.667C881.077 73.6678 881.077 74.5029 880.497 74.5029ZM1025.07 74.5029C1024.49 74.5027 1024.49 73.6672 1025.07 73.667C1025.65 73.667 1025.65 74.5029 1025.07 74.5029ZM1285.22 73.667H1287.01V74.5029H1285.22V73.667ZM374.033 79.5166C374.654 76.5827 373.109 76.0595 370.909 77.8457L367.786 76.1748L369.124 73.668C370.127 73.9593 372.399 76.0988 372.694 76.1748C373.602 76.4074 377.789 76.3315 378.941 76.1748C379.27 76.1299 379.478 75.4188 379.833 75.3389C381.359 74.9969 382.901 75.2826 383.849 76.5918L379.387 76.1738L380.278 78.6807C377.977 78.8078 377.528 76.2872 374.925 77.0098L374.033 79.5166ZM805.531 73.668H805.977V75.3389H804.192L805.531 73.668ZM905.932 74.9219L907.718 73.668V76.1748H907.271L905.932 74.9219ZM980.006 73.668L981.791 75.3389H980.006V73.668ZM350.828 79.5166V75.3389L353.952 74.5029L355.737 75.3389C357.589 72.913 358.114 74.0311 360.645 74.5029L359.754 78.6807L358.861 77.0098C356.779 78.6671 355.972 76.6623 353.507 77.0098L351.722 77.8457L352.168 80.3525H349.043L350.828 79.5166ZM15.2674 74.5029H18.8368L18.8378 75.3389H15.2674V74.5029ZM114.775 75.3389C114.196 75.3388 114.196 74.503 114.775 74.5029C115.355 74.5029 115.355 75.3389 114.775 75.3389ZM267.83 74.9209V74.5029H270.508L269.169 76.1738L267.83 74.9209ZM621.241 75.3389L623.918 74.5029L622.58 77.0098L621.241 75.3389ZM874.696 74.9209V74.5029H876.481V76.1738L874.696 74.9209ZM96.034 76.1748C95.4543 76.1748 95.4543 75.3389 96.034 75.3389C96.6134 75.3392 96.6134 76.1745 96.034 76.1748ZM183.494 76.1748C182.914 76.1748 182.914 75.3389 183.494 75.3389C184.074 75.339 184.074 76.1746 183.494 76.1748ZM363.322 78.6807C361.622 78.9204 360.388 77.7655 360.644 76.1738L361.983 77.0098L363.768 75.3389L363.322 78.6807ZM756.001 76.5928L757.786 75.3389V77.8457H757.34L756.001 76.5928ZM830.52 76.1748C829.941 76.1748 829.941 75.3389 830.52 75.3389C831.099 75.339 831.099 76.1747 830.52 76.1748ZM858.186 76.1748C857.607 76.1748 857.607 75.3389 858.186 75.3389C858.766 75.3391 858.766 76.1746 858.186 76.1748ZM1389.64 75.3389H1392.32V77.0098H1390.98L1389.64 75.3389ZM1412.4 75.3389L1412.84 77.0098L1415.52 77.8457L1410.17 79.0986L1412.4 75.3389ZM880.497 77.0098C879.918 77.0095 879.918 76.1741 880.497 76.1738C881.077 76.1746 881.077 77.0098 880.497 77.0098ZM341.458 79.5166L340.565 80.3525L337.441 77.8457C340.095 77.9692 342.216 79.1421 345.027 78.6807C345.376 78.6236 345.825 77.387 347.258 77.8457L349.043 76.1748C348.406 77.5465 347.046 78.9405 345.474 78.6816V80.3525L341.458 79.5166ZM625.703 77.4277L627.041 76.1748L627.488 76.5928L626.149 77.8457L625.703 77.4277ZM94.6952 79.5166C92.9949 79.7564 91.7611 78.6015 92.0174 77.0098C93.7177 76.7699 94.9515 77.9249 94.6952 79.5166ZM37.1327 77.8457C36.5529 77.8457 36.5529 77.0098 37.1327 77.0098C37.7114 77.0099 37.7114 77.8455 37.1327 77.8457ZM133.516 77.8457C132.937 77.8453 132.937 77.0102 133.516 77.0098C134.096 77.0098 134.096 77.8457 133.516 77.8457ZM662.294 77.4277L662.74 77.0098L664.079 78.2637L663.633 78.6807L662.294 77.4277ZM765.817 77.0098H767.602V77.8457H765.817V77.0098ZM773.849 79.9346L776.526 78.6807L777.42 77.0098L776.973 82.0234L773.849 79.9346ZM785.452 77.8457C786.8 78.1945 787.073 77.2718 788.129 77.0098V79.5166H785.452V77.8457ZM839.891 77.0098H841.676V78.6807H839.891V77.0098ZM844.8 77.8457C844.22 77.8457 844.22 77.0098 844.8 77.0098C845.379 77.0101 845.379 77.8454 844.8 77.8457ZM930.474 77.8457C929.895 77.8457 929.895 77.0098 930.474 77.0098C931.054 77.01 931.054 77.8455 930.474 77.8457ZM961.711 77.8457C961.131 77.8457 961.131 77.0098 961.711 77.0098C962.289 77.0101 962.289 77.8454 961.711 77.8457ZM1017.04 84.5303C1014.77 81.6065 1010.56 81.0156 1010.35 77.0098C1011.99 77.7799 1012.52 79.2157 1014.81 78.6807V80.3516L1016.6 79.5166L1017.04 84.5303ZM1264.7 77.0098H1265.59V78.6807H1264.7V77.0098ZM252.213 78.6807C251.633 78.6807 251.633 77.8457 252.213 77.8457C252.792 77.8461 252.792 78.6803 252.213 78.6807ZM585.542 77.8457H587.327V78.6807H585.542V77.8457ZM591.79 77.8457H595.359V79.5166L591.79 79.5166V77.8457ZM843.015 78.6807C842.435 78.6807 842.435 77.8457 843.015 77.8457C843.594 77.8461 843.594 78.6803 843.015 78.6807ZM902.362 77.8457H904.147V78.6807H902.362V77.8457ZM89.787 79.5166C89.2072 79.5166 89.2072 78.6807 89.787 78.6807C90.3666 78.6808 90.3666 79.5165 89.787 79.5166ZM274.524 79.5166C273.945 79.5166 273.945 78.6807 274.524 78.6807C275.104 78.6807 275.103 79.5166 274.524 79.5166ZM367.339 79.5166C366.759 79.5166 366.759 78.6807 367.339 78.6807C367.918 78.6811 367.918 79.5162 367.339 79.5166ZM397.682 79.5166C397.103 79.5166 397.103 78.6807 397.682 78.6807C398.261 78.6808 398.261 79.5165 397.682 79.5166ZM659.17 79.5166C658.59 79.5166 658.59 78.6807 659.17 78.6807C659.749 78.6808 659.749 79.5165 659.17 79.5166ZM769.834 79.5166C769.254 79.5165 769.254 78.6807 769.834 78.6807C770.413 78.6807 770.413 79.5166 769.834 79.5166ZM1066.13 79.5166C1065.55 79.5165 1065.55 78.6808 1066.13 78.6807C1066.71 78.6807 1066.71 79.5166 1066.13 79.5166ZM33.1161 79.0996L33.5633 78.6816L34.9012 79.9355L34.4549 80.3525L33.1161 79.0996ZM216.069 79.0996L216.515 78.6816L217.854 79.9355L217.407 80.3525L216.069 79.0996ZM626.596 79.0996L627.042 78.6816L628.381 79.9355L627.934 80.3525L626.596 79.0996ZM1008.56 79.0996L1009.01 78.6816L1010.35 79.9355L1009.9 80.3525L1008.56 79.0996ZM882.729 87.4541L880.944 87.0361L884.514 85.3652L880.051 84.5293L882.728 83.6934C883.37 82.184 879.484 80.6577 882.282 79.5156C884.416 78.6444 883.369 81.8042 883.62 82.0225H885.405C885.555 82.1617 885.224 82.8053 885.405 83.2754C885.544 83.6363 886.297 83.847 886.298 84.1113C886.298 84.6693 885.081 83.8961 886.298 86.6182C886.456 86.9728 886.24 87.4755 886.299 87.8721L882.729 88.707V87.4541ZM158.952 79.5166H159.844V81.1875H158.952V79.5166ZM277.201 80.3525C276.621 80.3525 276.621 79.5166 277.201 79.5166C277.781 79.5168 277.781 80.3524 277.201 80.3525ZM376.709 80.7705L378.048 79.5166H378.494V82.0234H376.709V80.7705ZM778.311 81.1875L779.65 79.5166L780.543 80.3525L782.774 79.5166L781.435 82.0234L778.311 81.1875ZM791.252 80.3525C790.672 80.3524 790.672 79.5167 791.252 79.5166C791.832 79.5166 791.832 80.3525 791.252 80.3525ZM889.422 83.6943C888.358 82.9155 887.698 82.1002 888.083 80.7705C888.273 80.112 889.627 79.023 890.313 80.3525L893.437 82.0234L889.422 83.6943ZM1423.55 93.3027C1424.36 91.4411 1421.98 90.6685 1421.77 89.9609C1421.38 88.6454 1422.15 86.2628 1421.77 84.9473C1421.56 84.253 1418.47 82.0857 1419.09 80.3516C1421.24 80.7593 1420.54 82.2561 1420.88 83.2764C1421.07 83.8629 1423.08 84.9973 1423.55 85.7832C1423.79 86.178 1423.39 86.8799 1423.55 87.0361C1423.72 87.192 1424.47 86.8163 1424.89 87.0361C1427.17 88.225 1428.77 91.2321 1424.45 90.3789C1423.56 93.2353 1427.14 93.5594 1427.12 96.2275L1423.55 93.3027ZM94.6952 80.3525H96.4803V81.1875H94.6952V80.3525ZM279.878 80.3525H280.325V82.0234H278.54L279.878 80.3525ZM292.373 81.1875C291.793 81.1875 291.793 80.3525 292.373 80.3525C292.953 80.3526 292.953 81.1875 292.373 81.1875ZM788.575 81.1875C787.995 81.1875 787.995 80.3525 788.575 80.3525C789.154 80.353 789.154 81.1871 788.575 81.1875ZM1399.9 81.1875C1399.32 81.1875 1399.32 80.3525 1399.9 80.3525C1400.48 80.3525 1400.48 81.1875 1399.9 81.1875ZM953.232 81.1875C954.573 80.921 955.069 81.5566 955.909 82.4414V84.5303H954.124L953.232 81.1875ZM347.259 85.3652H344.582L347.259 84.5293L346.812 82.8584L345.474 81.1875H349.936L348.151 87.0361L347.259 85.3652ZM957.248 82.0234C956.669 82.0234 956.669 81.1875 957.248 81.1875C957.828 81.1875 957.828 82.0234 957.248 82.0234ZM798.391 81.1885H798.839V82.8594H797.054L798.391 81.1885ZM92.91 84.5303C93.0857 83.5203 92.8926 83.0366 92.0174 82.4414L92.4637 82.0234L94.6952 84.5303H92.91ZM361.984 82.8594C361.405 82.8592 361.405 82.0236 361.984 82.0234C362.564 82.0234 362.563 82.8594 361.984 82.8594ZM665.863 82.0234H667.648V83.6943H665.863V82.0234ZM951.893 82.8594C951.314 82.8594 951.314 82.0234 951.893 82.0234C952.473 82.0236 952.473 82.8592 951.893 82.8594ZM329.409 82.8594H330.302V84.5303H329.409V82.8594ZM782.774 84.1123L784.559 82.8594L785.452 85.3652L782.774 84.1123ZM963.049 84.1123L962.601 82.8594L963.94 84.1123V86.2012H962.156L963.049 84.1123ZM363.323 86.2012C362.966 86.6149 360.962 84.7399 361.538 83.6943C361.895 83.2804 363.899 85.1556 363.323 86.2012ZM333.872 84.1123V83.6943H337.441L336.103 85.3652H335.211L333.872 84.1123ZM774.296 84.5303C773.716 84.5303 773.716 83.6943 774.296 83.6943C774.875 83.6945 774.875 84.5301 774.296 84.5303ZM898.346 84.5303C897.766 84.53 897.766 83.6946 898.346 83.6943C898.925 83.6943 898.925 84.5303 898.346 84.5303ZM1067.91 84.5303C1067.33 84.5301 1067.33 83.6945 1067.91 83.6943C1068.49 83.6943 1068.49 84.5303 1067.91 84.5303ZM1407.04 83.6943L1407.49 84.1123L1406.6 86.2012H1405.7L1407.04 83.6943ZM261.583 88.29L258.906 87.8721L263.368 87.0361L260.691 84.5303C261.859 84.304 263.932 84.6593 264.261 85.7832C264.663 87.1588 261.891 87.8009 262.475 89.543L261.583 88.29ZM891.207 85.3652C890.627 85.3652 890.627 84.5293 891.207 84.5293C891.787 84.5302 891.787 85.3651 891.207 85.3652ZM946.092 84.5293H948.769V85.3652H946.092V84.5293ZM266.938 85.3652H270.508V86.2012H266.938V85.3652ZM660.061 86.2012C659.482 86.2007 659.482 85.3657 660.061 85.3652C660.641 85.3652 660.641 86.2012 660.061 86.2012ZM774.742 85.3652H777.42V86.2012H774.742V85.3652ZM926.013 86.2012C925.434 86.2012 925.434 85.3652 926.013 85.3652C926.591 85.3653 926.591 86.2011 926.013 86.2012ZM801.962 85.3662H802.408V87.0371H800.623L801.962 85.3662ZM1017.04 87.0371C1016.74 87.9591 1016.82 88.9241 1015.7 88.708V87.0371L1012.13 86.6191L1016.15 85.3662C1016.83 86.0324 1017.39 85.9821 1017.04 87.0371ZM1407.94 87.8721C1407.13 89.1607 1408.16 90.5554 1406.6 90.3789C1406.81 89.5131 1406.05 87.3847 1407.04 87.0361C1408.83 86.4108 1410.63 85.0835 1410.17 87.8721C1409.13 87.7049 1408.87 86.3628 1407.94 87.8721ZM240.164 86.6182L240.611 86.2002L241.949 87.4531L241.503 87.8721L240.164 86.6182ZM166.983 86.2012H168.768V87.0371H166.983V86.2012ZM330.302 86.2012H332.087V87.0371H330.302V86.2012ZM661.848 87.0371C661.268 87.0371 661.268 86.2012 661.848 86.2012C662.427 86.2016 662.427 87.0367 661.848 87.0371ZM841.677 86.6191L845.246 87.0371L838.999 87.873L841.677 86.6191ZM267.385 87.8721C266.805 87.8721 266.805 87.0361 267.385 87.0361C267.964 87.0371 267.964 87.8718 267.385 87.8721ZM879.605 87.8721C879.026 87.8721 879.026 87.0361 879.605 87.0361C880.184 87.0372 880.184 87.8718 879.605 87.8721ZM661.401 89.543H656.938C659.285 85.8727 663.334 88.1492 662.294 92.0498L661.401 89.543ZM1440 87.9424L1439.62 87.8711L1440 88V87.9424ZM780.543 89.543C779.963 89.543 779.963 88.707 780.543 88.707C781.122 88.7081 781.122 89.5427 780.543 89.543ZM896.561 89.543C895.982 89.5428 895.982 88.7072 896.561 88.707C897.141 88.7078 897.141 89.543 896.561 89.543ZM350.828 89.9619C349.897 92.1395 346.828 90.3432 349.49 88.708H350.828V89.9619ZM8.57409 90.3789C7.9943 90.3789 7.9943 89.543 8.57409 89.543C9.15328 89.5434 9.15328 90.3785 8.57409 90.3789ZM942.969 90.3789C942.389 90.3786 942.389 89.5432 942.969 89.543C943.548 89.543 943.548 90.3789 942.969 90.3789ZM1171.44 90.3789C1170.86 90.3788 1170.86 89.543 1171.44 89.543C1172.02 89.543 1172.02 90.3789 1171.44 90.3789ZM244.627 92.0498C243.511 92.5887 241.508 90.7127 241.949 90.3789C243.066 89.8399 245.069 91.7166 244.627 92.0498ZM656.047 90.3789L659.616 92.0498V92.8857H657.386L656.047 90.3789ZM262.476 90.3799L265.153 91.2148L264.707 94.5576L262.476 90.3799ZM880.051 90.3799H881.836V91.2148H880.051V90.3799ZM10.8046 91.2139H12.5897V92.0498H10.8046V91.2139ZM58.5507 92.0498C57.9709 92.0498 57.9709 91.2139 58.5507 91.2139C59.1304 91.2139 59.1304 92.0498 58.5507 92.0498ZM107.636 92.0498C107.056 92.0498 107.056 91.2139 107.636 91.2139C108.215 91.2149 108.215 92.0496 107.636 92.0498ZM258.014 91.2139H260.691V92.0498H258.014V91.2139ZM219.638 92.0508H217.853V91.2148H219.192L219.638 92.0508ZM1259.34 93.7217L1264.25 91.2148H1265.59C1265.15 93.3334 1268.74 93.6601 1266.04 95.3926L1259.34 93.7217ZM16.159 95.3916C14.3547 95.0789 14.6159 93.3148 13.4823 92.4678L15.2674 92.0498L16.159 95.3916ZM1035.34 92.4678L1035.78 92.0498L1037.12 93.3027L1036.68 93.7207L1035.34 92.4678ZM368.231 92.8857C367.652 92.8857 367.652 92.0508 368.231 92.0508C368.81 92.05 368.81 92.8857 368.231 92.8857ZM806.424 92.8857C805.844 92.8854 805.844 92.0511 806.424 92.0508C807.003 92.05 807.003 92.8857 806.424 92.8857ZM897.007 92.0508H898.792V92.8857H897.007V92.0508ZM1258 92.8857C1257.42 92.8857 1257.42 92.0508 1258 92.0508C1258.58 92.051 1258.58 92.8855 1258 92.8857ZM810.44 94.5566C809.323 95.0956 807.321 93.2194 807.763 92.8857C808.879 92.3459 810.883 94.2234 810.44 94.5566ZM366.446 93.7207C365.866 93.7207 365.866 92.8848 366.446 92.8848C367.026 92.8856 367.026 93.7207 366.446 93.7207ZM877.82 93.7207C877.24 93.7207 877.24 92.8848 877.82 92.8848C878.4 92.885 878.4 93.7205 877.82 93.7207ZM249.089 94.9746L250.428 93.7207L250.874 94.1387L249.535 95.3926L249.089 94.9746ZM660.955 94.5566C660.375 94.5566 660.375 93.7207 660.955 93.7207C661.534 93.7208 661.534 94.5566 660.955 94.5566ZM258.014 94.1396L258.46 93.7217L259.799 94.9746L259.352 95.3926L258.014 94.1396ZM1408.38 94.5566C1408.82 94.8899 1406.82 96.7667 1405.7 96.2275C1405.26 95.8943 1407.26 94.0177 1408.38 94.5566ZM621.24 95.8096V94.5566H623.025V97.0635H622.579L621.24 95.8096ZM632.843 94.5566C633.099 96.1482 631.865 97.3033 630.165 97.0635V94.5566H632.843ZM619.01 95.3926C618.43 95.3922 618.43 94.558 619.01 94.5576C619.589 94.5568 619.589 95.3926 619.01 95.3926ZM977.774 95.3926C977.195 95.3921 977.195 94.5581 977.774 94.5576C978.353 94.5568 978.353 95.3926 977.774 95.3926ZM64.7987 96.2275C64.2189 96.2275 64.2189 95.3916 64.7987 95.3916C65.378 95.3927 65.378 96.2272 64.7987 96.2275ZM73.7225 96.2275C73.1429 96.2274 73.1429 95.3917 73.7225 95.3916C74.3023 95.3924 74.3023 96.2275 73.7225 96.2275ZM226.332 96.2275C225.752 96.2275 225.752 95.3916 226.332 95.3916C226.911 95.3926 226.911 96.2273 226.332 96.2275ZM381.172 95.3916H382.957V96.2275H381.172V95.3916ZM1261.13 97.8984L1260.24 95.8096C1261.45 95.2539 1262.47 97.3578 1263.36 97.8984C1263.43 97.935 1265.6 95.8832 1264.7 98.7344L1261.13 97.8984ZM775.635 99.1523L776.081 97.8984L771.173 96.2275L774.742 95.8096L779.204 99.5703L775.635 99.1523ZM80.8622 97.0635C80.2829 97.0631 80.2829 96.2279 80.8622 96.2275C81.4411 96.2275 81.4411 97.0635 80.8622 97.0635ZM613.654 97.0635C613.075 97.0632 613.075 96.2278 613.654 96.2275C614.234 96.2275 614.234 97.0635 613.654 97.0635ZM230.348 97.0635H232.133V97.8984H230.348V97.0635ZM1419.54 97.8984C1418.96 97.8984 1418.96 97.0635 1419.54 97.0635C1420.12 97.0636 1420.12 97.8983 1419.54 97.8984ZM185.279 98.7344C184.699 98.7344 184.699 97.8984 185.279 97.8984C185.858 97.8986 185.858 98.7343 185.279 98.7344ZM634.182 98.7344C633.602 98.7344 633.602 97.8984 634.182 97.8984C634.761 97.8987 634.761 98.7341 634.182 98.7344ZM637.751 98.7344C637.171 98.7344 637.171 97.8984 637.751 97.8984C638.331 97.8985 638.331 98.7343 637.751 98.7344ZM-5.70521 99.5703C-6.285 99.5703 -6.285 98.7344 -5.70521 98.7344C-5.12563 98.7345 -5.12563 99.5702 -5.70521 99.5703ZM-2.58216 98.7344H-0.797007L-0.797007 99.5703H-2.58216V98.7344ZM101.389 99.5703C100.809 99.5703 100.809 98.7344 101.389 98.7344C101.968 98.7344 101.968 99.5703 101.389 99.5703ZM233.472 99.5703C232.892 99.5702 232.892 98.7345 233.472 98.7344C234.05 98.7344 234.05 99.5703 233.472 99.5703ZM619.456 100.405L621.686 98.7344L624.81 101.241L622.133 100.405L622.58 102.912L619.456 100.405ZM628.381 98.7344H629.273V101.241H628.381V98.7344ZM639.09 100.823L639.981 98.7344H640.875V102.076L639.09 100.823ZM1256.66 100.405V99.5703L1258.9 98.7344L1260.23 101.241L1256.66 100.405ZM250.428 100.405C249.848 100.405 249.848 99.5697 250.428 99.5693C251.007 99.5701 251.007 100.405 250.428 100.405ZM782.773 100.823L784.112 99.5703L784.558 99.9873L783.22 101.241L782.773 100.823ZM1255.33 101.241C1254.75 101.241 1254.75 100.405 1255.33 100.405C1255.91 100.405 1255.91 101.241 1255.33 101.241ZM647.567 105.418C647.109 104.348 645.439 104.674 645.337 104.583C645.17 104.427 645.573 103.722 645.337 103.329C644.626 102.143 642.376 102.059 642.659 101.658C644.399 99.2091 645.698 101.7 648.014 101.241V102.912H650.691L647.567 105.418ZM2.77233 102.494L4.1112 101.241L4.55749 101.658L3.21862 102.912L2.77233 102.494ZM1415.52 102.076C1415.78 103.668 1414.54 104.823 1412.84 104.583C1412.59 102.992 1413.82 101.837 1415.52 102.076ZM1257.56 102.912H1259.34V103.747H1257.56V102.912ZM4.55749 103.747C4.99975 104.081 2.99603 105.958 1.87975 105.418C1.43954 105.084 3.44158 103.208 4.55749 103.747ZM247.751 104.583C247.171 104.583 247.171 103.747 247.751 103.747C248.33 103.748 248.33 104.583 247.751 104.583ZM930.474 104.583C929.895 104.583 929.895 103.747 930.474 103.747C931.054 103.748 931.054 104.583 930.474 104.583ZM931.813 103.747H932.705V105.418H934.49V106.254H931.813V103.747ZM629.719 104.583H630.165V106.254H628.38L629.719 104.583ZM912.18 104.583H913.965V105.418H912.18V104.583ZM1253.54 106.254C1252.96 106.254 1252.96 105.418 1253.54 105.418C1254.12 105.418 1254.12 106.254 1253.54 106.254ZM644.444 111.268C644.298 109.586 645.054 107.692 643.552 106.672L646.229 105.419L645.783 107.09L649.799 110.432L647.122 110.014L644.444 111.268ZM660.509 107.507L660.955 107.089L662.294 108.342L661.848 108.76L660.509 107.507ZM1255.77 107.925V108.76H1253.99L1255.77 107.925ZM6.78893 109.596C6.20964 109.595 6.20963 108.76 6.78893 108.76C7.36787 108.76 7.36787 109.596 6.78893 109.596ZM1253.1 109.178L1253.99 108.761L1254.43 110.431L1253.1 109.178ZM601.606 111.685V109.596H602.499L603.391 112.938L601.606 111.685ZM1011.69 110.432C1011.11 110.432 1011.11 109.597 1011.69 109.597C1012.27 109.596 1012.27 110.432 1011.69 110.432ZM633.289 111.267C632.709 111.267 632.709 110.431 633.289 110.431C633.868 110.431 633.868 111.267 633.289 111.267ZM1015.7 110.432L1019.27 111.268V112.103H1015.7V110.432ZM637.306 112.103H639.982V112.938H637.306V112.103ZM235.256 113.773C234.676 113.773 234.676 112.938 235.256 112.938C235.836 112.938 235.836 113.773 235.256 113.773ZM71.4921 116.28L72.8309 113.773L76.8465 118.369L71.4921 116.28ZM607.853 115.862L606.069 115.444L605.622 117.115V113.773L608.3 114.608L610.53 117.115H607.853V115.862ZM70.1532 115.444C69.5734 115.444 69.5734 114.608 70.1532 114.608C70.7328 114.609 70.7328 115.444 70.1532 115.444ZM1027.75 115.444C1027.17 115.444 1027.17 114.608 1027.75 114.608C1028.33 114.609 1028.33 115.444 1027.75 115.444ZM53.1962 116.28C52.6164 116.28 52.6164 115.444 53.1962 115.444C53.7756 115.445 53.7756 116.28 53.1962 116.28ZM349.043 115.444H350.828V116.28H349.043V115.444ZM648.014 117.115H649.799V117.951H648.014V117.115ZM615.887 121.294C614.056 121.618 613.465 120.061 612.316 119.205C611.32 118.464 610.28 119.302 610.531 117.952C611.966 117.449 616.508 120.761 615.887 121.294ZM59.8895 118.786H61.6747V119.622H59.8895V118.786ZM635.519 118.787H636.412V120.458H635.519V118.787ZM65.244 120.458H67.9217V121.294H65.244V120.458ZM892.546 121.294H894.331L892.546 122.965V121.294ZM5.00377 122.965C4.42443 122.965 4.42443 122.129 5.00377 122.129C5.58356 122.129 5.58356 122.965 5.00377 122.965ZM67.9227 122.129H68.8143V123.8H67.9227V122.129ZM702.899 122.965C702.32 122.964 702.32 122.129 702.899 122.129C703.479 122.129 703.479 122.965 702.899 122.965ZM23.2987 122.965C23.8751 124.01 21.8701 125.886 21.5135 125.472C20.9382 124.426 22.9417 122.552 23.2987 122.965ZM616.332 124.636C615.752 124.636 615.752 123.8 616.332 123.8C616.911 123.8 616.911 124.636 616.332 124.636ZM636.858 124.636C636.279 124.635 636.279 123.8 636.858 123.8C637.438 123.8 637.438 124.636 636.858 124.636ZM660.955 124.636C660.375 124.636 660.375 123.8 660.955 123.8C661.534 123.8 661.534 124.636 660.955 124.636ZM15.4462 123.801C15.8671 123.842 16.2255 123.966 16.16 124.636L15.4462 123.801ZM618.563 123.801L619.902 125.472H621.241L620.795 128.814L618.563 123.801ZM725.211 125.472C724.631 125.472 724.631 124.636 725.211 124.636C725.791 124.636 725.791 125.472 725.211 125.472ZM75.954 125.471H77.7391V126.307H75.954V125.471ZM729.226 125.471H731.012V126.307H729.226V125.471ZM725.211 127.143C724.631 127.143 724.631 126.308 725.211 126.308C725.791 126.307 725.791 127.143 725.211 127.143ZM48.7342 127.978C48.1545 127.978 48.1545 127.142 48.7342 127.142C49.3139 127.142 49.3139 127.977 48.7342 127.978ZM25.0848 128.813L28.6542 127.978L27.3153 129.648H25.0848V128.813ZM29.5467 128.813H30.4393V130.484H29.5467V128.813ZM947.877 128.814H949.662V129.649H947.877V128.814ZM951.001 130.484C950.421 130.484 950.421 129.649 951.001 129.648C951.581 129.648 951.581 130.484 951.001 130.484ZM728.335 135.498L730.119 134.663V132.992C726.389 133.424 729.203 130.237 731.012 129.649C730.424 132.297 732.971 133.347 734.582 135.081L732.35 134.663L730.565 136.334L728.335 135.498ZM275.417 132.991C274.837 132.991 274.837 132.155 275.417 132.155C275.996 132.156 275.996 132.991 275.417 132.991ZM627.934 132.991C627.355 132.991 627.355 132.155 627.934 132.155C628.513 132.155 628.513 132.991 627.934 132.991ZM718.964 132.991C718.384 132.991 718.384 132.155 718.964 132.155C719.544 132.155 719.544 132.991 718.964 132.991ZM26.869 132.991H28.6542V133.827H26.869V132.991ZM881.836 133.409L882.282 132.991L883.621 134.244L883.175 134.662L881.836 133.409ZM944.307 136.751V136.333H946.092V138.004L944.307 136.751ZM1418.2 140.511H1419.98V141.347H1418.2V140.511ZM220.53 93.7217H219.639V92.0518L220.53 93.7217Z" fill="white"/>
</svg>
