<svg width="140" height="140" viewBox="0 0 140 140" fill="none" xmlns="http://www.w3.org/2000/svg">
<path d="M64.0168 122.442L63.8035 123.973L60.7271 123.542C60.1863 123.467 59.7445 123.576 59.4017 123.872C59.0589 124.167 58.8569 124.534 58.7958 124.973C58.7545 125.269 58.7825 125.554 58.8796 125.827C58.9767 126.101 59.1421 126.332 59.3759 126.521C59.6097 126.71 59.9051 126.829 60.2622 126.879L63.3386 127.31L63.1254 128.841L60.3092 128.446C59.85 128.382 59.4663 128.448 59.1581 128.644C58.8499 128.84 58.6638 129.168 58.5999 129.627C58.5359 130.086 58.6253 130.453 58.8681 130.726C59.1109 130.999 59.4619 131.168 59.921 131.232L62.7373 131.626L62.524 133.157L59.6619 132.756C58.9374 132.655 58.3539 132.438 57.9113 132.106C57.4687 131.773 57.1592 131.381 56.9828 130.93C56.8064 130.479 56.7516 130.013 56.8184 129.534C56.8966 128.972 57.1237 128.5 57.4997 128.115C57.8656 127.73 58.368 127.446 59.0069 127.265L58.7924 127.797C58.1574 127.427 57.6859 126.966 57.378 126.413C57.0701 125.86 56.9631 125.247 57.057 124.573C57.1337 124.022 57.3419 123.536 57.6813 123.116C58.0106 122.694 58.4604 122.377 59.0308 122.166C59.5896 121.963 60.2516 121.915 61.0169 122.022L64.0168 122.442ZM65.2259 122.612L63.7331 133.326L61.973 133.08L63.4658 122.365L65.2259 122.612Z" fill="#181713"/>
<path d="M51.2937 119.206C52.0606 119.479 52.6879 119.899 53.1756 120.466C53.6633 121.033 53.9801 121.682 54.1259 122.412C54.2587 123.148 54.1891 123.9 53.9173 124.667L51.6777 130.989L50.0032 130.394L52.2377 124.086C52.4131 123.59 52.4643 123.122 52.3912 122.68C52.3049 122.245 52.1183 121.862 51.8314 121.53C51.5411 121.208 51.1726 120.967 50.7261 120.809C50.2698 120.646 49.8326 120.6 49.4143 120.67C48.9926 120.75 48.6162 120.933 48.285 121.22C47.9505 121.516 47.6972 121.907 47.5251 122.393L45.2855 128.715L43.611 128.12L45.8558 121.783C46.1276 121.015 46.5449 120.393 47.1076 119.915C47.6704 119.437 48.3146 119.131 49.0403 118.995C49.766 118.86 50.5172 118.93 51.2937 119.206Z" fill="#181713"/>
<path d="M44.9192 116.446L39.6774 125.91L38.1241 125.046L43.3659 115.582L44.9192 116.446Z" fill="#181713"/>
<path d="M39.591 113.184L32.9664 121.737L31.5634 120.646L38.188 112.093L39.591 113.184ZM38.6272 112.434L37.6335 113.717L33.1683 110.245L34.162 108.962L38.6272 112.434Z" fill="#181713"/>
<path d="M31.505 106.075L30.2803 107.14L28.4189 104.99C27.9333 104.429 27.3878 104.043 26.7826 103.832C26.1706 103.613 25.5496 103.573 24.9196 103.711C24.275 103.848 23.6689 104.163 23.1013 104.657C22.5414 105.143 22.1521 105.693 21.9335 106.306C21.7149 106.92 21.6705 107.545 21.8004 108.183C21.9235 108.813 22.2245 109.405 22.7033 109.958L24.5647 112.108L23.34 113.172L21.4482 110.987C20.9357 110.396 20.5652 109.755 20.3367 109.066C20.1005 108.384 20.0072 107.694 20.0568 106.996C20.0918 106.296 20.2671 105.625 20.5826 104.982C20.8905 104.346 21.336 103.775 21.9192 103.268C22.4946 102.768 23.1222 102.406 23.802 102.184C24.4818 101.962 25.1702 101.875 25.8671 101.925C26.5564 101.981 27.2251 102.171 27.8735 102.495C28.514 102.825 29.0872 103.283 29.593 103.867L31.505 106.075ZM32.3042 106.998L24.1392 114.095L22.9758 112.752L31.1408 105.655L32.3042 106.998Z" fill="#181713"/>
<path d="M22.7579 93.5578L11.0651 93.4827L10.6032 92.3358L18.9823 84.1821L19.6982 85.9597L12.8669 92.4545L12.6244 91.8524L22.0536 91.8088L22.7579 93.5578ZM20.0037 92.3039L18.5708 92.883L16.4291 87.5643L17.8619 86.9852L20.0037 92.3039Z" fill="#181713"/>
<path d="M17.7406 73.1302C17.7905 73.9839 17.6786 74.7181 17.4049 75.3327C17.1313 75.9473 16.71 76.5087 16.1411 77.0168L14.8673 75.8838C15.2819 75.5602 15.6005 75.1855 15.8233 74.7596C16.0358 74.3344 16.1234 73.8029 16.0862 73.1652C16.0513 72.5686 15.9002 72.1027 15.6329 71.7674C15.365 71.4219 15.015 71.2618 14.583 71.2871C14.223 71.3081 13.9353 71.4179 13.7199 71.6163C13.5044 71.8147 13.3337 72.0724 13.2077 72.3894C13.0709 72.6967 12.9567 73.0388 12.8652 73.4157C12.7629 73.7829 12.6505 74.1559 12.5282 74.5346C12.3949 74.9036 12.2242 75.2491 12.0159 75.5709C11.8071 75.8824 11.5281 76.1413 11.1789 76.3475C10.8298 76.5538 10.3775 76.6731 9.82205 76.7057C9.18434 76.743 8.63533 76.6203 8.17501 76.3377C7.7038 76.0453 7.33428 75.6386 7.06644 75.1176C6.79859 74.5967 6.64543 74.007 6.60694 73.3487C6.56544 72.639 6.66731 71.9983 6.91255 71.4266C7.15718 70.8447 7.48527 70.3662 7.89681 69.9912L9.17059 71.1241C8.83892 71.4532 8.60073 71.7922 8.456 72.1413C8.30039 72.4807 8.23522 72.8663 8.26048 73.2983C8.29175 73.8332 8.42441 74.2486 8.65845 74.5445C8.89188 74.8301 9.20403 74.9615 9.59488 74.9386C9.92402 74.9193 10.186 74.8111 10.3809 74.6139C10.5655 74.4173 10.7211 74.1657 10.8477 73.859C10.9633 73.5426 11.0723 73.2008 11.1747 72.8335C11.2765 72.456 11.394 72.0827 11.5272 71.7137C11.6599 71.3344 11.8409 70.9884 12.0703 70.6756C12.2888 70.3532 12.583 70.0883 12.9527 69.8809C13.3224 69.6734 13.7953 69.5528 14.3713 69.5191C15.3381 69.4625 16.1246 69.7622 16.7306 70.4182C17.336 71.0639 17.6726 71.9679 17.7406 73.1302Z" fill="#181713"/>
<path d="M18.3579 61.8002C18.2415 62.6058 17.9533 63.3031 17.4933 63.8922C17.0334 64.4813 16.4601 64.9186 15.7734 65.2041C15.078 65.4779 14.3275 65.5563 13.522 65.4393L6.88429 64.4751L7.13858 62.7161L13.761 63.678C14.281 63.7536 14.7502 63.7124 15.1686 63.5545C15.5783 63.385 15.9175 63.1271 16.1861 62.7809C16.4446 62.4333 16.6077 62.0249 16.6756 61.5558C16.7448 61.0766 16.7041 60.6386 16.5532 60.2418C16.3921 59.8436 16.1385 59.5101 15.7922 59.2411C15.4357 58.9707 15.0025 58.7985 14.4927 58.7244L7.855 57.7602L8.10929 56.0012L14.7623 56.9676C15.5678 57.0846 16.2601 57.3726 16.8392 57.8315C17.4183 58.2904 17.8457 58.8627 18.1213 59.5482C18.397 60.2338 18.4759 60.9844 18.3579 61.8002Z" fill="#181713"/>
<path d="M21.4923 50.6255C21.2225 51.3606 20.8417 51.9944 20.35 52.5269C19.8521 53.0462 19.2812 53.4507 18.6371 53.7404C17.9833 54.0265 17.2961 54.1795 16.5754 54.1994C15.8451 54.2158 15.1174 54.0903 14.3923 53.8231C13.6672 53.5559 13.0366 53.1808 12.5005 52.6977C11.9547 52.2111 11.5302 51.6484 11.2269 51.0095C10.9235 50.3707 10.7501 49.6918 10.7066 48.973C10.6666 48.2446 10.7815 47.5128 11.0513 46.7777C11.353 45.9555 11.7492 45.2945 12.24 44.7945C12.7307 44.2946 13.2933 43.898 13.9278 43.6047L14.6436 45.1533C14.2048 45.332 13.8138 45.6051 13.4704 45.9727C13.1305 46.3306 12.8558 46.7949 12.6464 47.3655C12.4618 47.8685 12.3803 48.36 12.4016 48.8401C12.423 49.3201 12.5413 49.7755 12.7564 50.2061C12.9654 50.6235 13.2621 50.9964 13.6464 51.3247C14.0308 51.653 14.4888 51.9152 15.0206 52.1111C15.5523 52.3071 16.0707 52.4048 16.5757 52.4042C17.0808 52.4037 17.5527 52.3141 17.9914 52.1353C18.424 51.9434 18.8036 51.6715 19.1303 51.3197C19.4569 50.968 19.7125 50.5406 19.8971 50.0376C20.1243 49.4186 20.2241 48.8624 20.1966 48.3691C20.163 47.8626 20.0369 47.3989 19.8182 46.9779L21.3646 46.2631C21.6679 46.9019 21.8396 47.5856 21.8796 48.314C21.9195 49.0425 21.7904 49.813 21.4923 50.6255Z" fill="#181713"/>
<path d="M26.6095 41.0418C26.1935 41.7052 25.69 42.2465 25.0988 42.6658C24.5044 43.0708 23.8623 43.3483 23.1723 43.4984C22.4736 43.643 21.7698 43.6504 21.0607 43.5206C20.3429 43.3853 19.657 43.1118 19.0031 42.7002C18.3491 42.2885 17.8099 41.7909 17.3854 41.2071C16.9522 40.6179 16.6533 39.9793 16.4888 39.2914C16.3242 38.6034 16.295 37.9032 16.4011 37.1909C16.5127 36.4698 16.7764 35.7775 17.1923 35.1141C17.6575 34.3721 18.1818 33.8073 18.7653 33.4197C19.3488 33.0322 19.9811 32.7606 20.6623 32.6051L21.0422 34.2686C20.5761 34.3526 20.1371 34.5389 19.7251 34.8274C19.3186 35.1072 18.954 35.5046 18.6311 36.0197C18.3465 36.4736 18.165 36.9377 18.0866 37.4118C18.0082 37.886 18.0297 38.3561 18.1511 38.822C18.2692 39.2738 18.4822 39.7001 18.7903 40.1009C19.0984 40.5018 19.4922 40.8532 19.9718 41.1551C20.4513 41.4569 20.9382 41.6599 21.4323 41.764C21.9265 41.8681 22.4066 41.8781 22.8727 41.7941C23.3356 41.6959 23.7632 41.5085 24.1554 41.2319C24.5477 40.9553 24.8861 40.5901 25.1707 40.1361C25.521 39.5774 25.7337 39.0539 25.8088 38.5655C25.8807 38.0629 25.8532 37.583 25.7264 37.1258L27.3869 36.7466C27.5515 37.4346 27.578 38.1391 27.4664 38.8602C27.3548 39.5813 27.0692 40.3085 26.6095 41.0418Z" fill="#181713"/>
<path d="M30.1425 36.1256L22.2867 28.6876L23.5062 27.3946L31.3619 34.8326L30.1425 36.1256ZM30.9802 35.2374L29.8018 34.1217L33.9585 29.7143L35.1369 30.83L30.9802 35.2374ZM27.5349 31.9753L26.4014 30.9021L30.1976 26.877L31.331 27.9502L27.5349 31.9753ZM24.3028 28.915L23.1244 27.7993L27.2281 23.4482L28.4065 24.5639L24.3028 28.915Z" fill="#181713"/>
<path d="M39.5555 27.8185C38.8617 28.3185 38.1823 28.6177 37.5173 28.716C36.8522 28.8143 36.1531 28.7593 35.4201 28.551L35.695 26.8669C36.1898 27.0438 36.6765 27.1121 37.155 27.072C37.6276 27.0236 38.123 26.8126 38.6412 26.4391C39.126 26.0897 39.4384 25.7121 39.5784 25.3065C39.7267 24.8947 39.6747 24.5131 39.4223 24.1616C39.212 23.8687 38.9655 23.6844 38.6829 23.6087C38.4002 23.533 38.0914 23.5269 37.7566 23.5905C37.424 23.6396 37.0742 23.7266 36.7072 23.8514C36.3426 23.9618 35.9677 24.0669 35.5827 24.1666C35.2 24.2519 34.8172 24.2928 34.4342 24.2894C34.0596 24.28 33.692 24.183 33.3312 23.9985C32.9704 23.814 32.6278 23.4958 32.3033 23.0438C31.9307 22.5249 31.7406 21.9952 31.733 21.4546C31.7277 20.8996 31.8733 20.3692 32.1698 19.8634C32.4662 19.3577 32.8819 18.9121 33.4168 18.5265C33.9936 18.1109 34.5888 17.8534 35.2024 17.754C35.8243 17.6487 36.4036 17.6694 36.9402 17.8161L36.6653 19.5001C36.2102 19.3963 35.7967 19.3768 35.4247 19.4417C35.0551 19.4922 34.6947 19.6439 34.3437 19.8969C33.909 20.2102 33.6294 20.545 33.5049 20.9015C33.3886 21.252 33.4447 21.5862 33.673 21.9043C33.8653 22.1721 34.0968 22.3355 34.3674 22.3944C34.6321 22.445 34.9276 22.4415 35.2542 22.384C35.583 22.3121 35.9298 22.2209 36.2945 22.1105C36.6675 21.9941 37.0453 21.8932 37.428 21.8079C37.8191 21.7166 38.2079 21.684 38.5945 21.7102C38.9835 21.722 39.3643 21.8285 39.7371 22.0297C40.1099 22.2309 40.4646 22.5659 40.8011 23.0346C41.3659 23.8213 41.5336 24.6466 41.304 25.5106C41.0829 26.3685 40.5 27.1378 39.5555 27.8185Z" fill="#181713"/>
<path d="M48.413 22.7312C47.635 23.0862 46.9102 23.247 46.2386 23.2137C45.567 23.1804 44.892 22.9901 44.2135 22.6428L44.8113 21.045C45.2623 21.3149 45.7263 21.4769 46.2036 21.5309C46.6766 21.5756 47.2037 21.4653 47.7849 21.2002C48.3286 20.9521 48.7086 20.6428 48.9249 20.2723C49.1507 19.8975 49.174 19.5131 48.9949 19.1192C48.8457 18.7909 48.6398 18.5621 48.3773 18.4327C48.1148 18.3034 47.813 18.2372 47.4721 18.2342C47.1363 18.2175 46.7763 18.2346 46.3919 18.2853C46.0127 18.3225 45.6245 18.3524 45.2273 18.375C44.8353 18.384 44.4518 18.3495 44.0768 18.2715C43.7111 18.1891 43.3693 18.0223 43.0514 17.771C42.7334 17.5197 42.4593 17.1408 42.2291 16.6343C41.9647 16.0528 41.8814 15.4962 41.9793 14.9646C42.0823 14.4193 42.3284 13.9276 42.7178 13.4895C43.1072 13.0514 43.6018 12.6955 44.2017 12.4217C44.8485 12.1266 45.4825 11.9902 46.1038 12.0125C46.7345 12.0306 47.2987 12.1638 47.7965 12.4124L47.1987 14.0102C46.7725 13.8196 46.3706 13.7198 45.9931 13.7108C45.6206 13.6883 45.2376 13.7668 44.8439 13.9464C44.3564 14.1688 44.0169 14.4426 43.8252 14.7679C43.6429 15.0889 43.6328 15.4276 43.7948 15.784C43.9313 16.0842 44.1265 16.2896 44.3805 16.4002C44.6302 16.5014 44.9209 16.5556 45.2524 16.5629C45.589 16.5566 45.947 16.5348 46.3262 16.4977C46.7148 16.4563 47.1052 16.4311 47.4972 16.4221C47.8986 16.4088 48.2864 16.4527 48.6606 16.5538C49.0398 16.6412 49.3927 16.8199 49.7192 17.09C50.0457 17.36 50.3283 17.7577 50.5671 18.283C50.9679 19.1646 50.9716 20.0067 50.578 20.8091C50.1939 21.6072 49.4722 22.2479 48.413 22.7312Z" fill="#181713"/>
<path d="M62.5952 18.4609L62.4281 16.9245L65.5162 16.5877C66.059 16.5285 66.4606 16.3137 66.7209 15.9433C66.9811 15.5729 67.0873 15.1674 67.0394 14.727C67.0071 14.43 66.9104 14.1607 66.7494 13.9191C66.5884 13.6776 66.3715 13.494 66.0988 13.3682C65.826 13.2425 65.5103 13.1992 65.1519 13.2383L62.0638 13.5751L61.8966 12.0387L64.7236 11.7304C65.1845 11.6801 65.5404 11.5221 65.7913 11.2564C66.0422 10.9906 66.1426 10.6273 66.0925 10.1664C66.0423 9.70543 65.8662 9.37226 65.564 9.16684C65.2618 8.96141 64.8803 8.88384 64.4194 8.93411L61.5925 9.24242L61.4254 7.70601L64.2984 7.39266C65.0256 7.31335 65.6444 7.3806 66.1547 7.59441C66.6651 7.80822 67.0609 8.11225 67.3422 8.50651C67.6234 8.90077 67.7902 9.33861 67.8426 9.82002C67.9039 10.3834 67.7991 10.8975 67.5284 11.3623C67.2679 11.826 66.85 12.224 66.2747 12.5562L66.3528 11.988C67.0589 12.1908 67.6287 12.5225 68.0623 12.9831C68.4958 13.4436 68.7494 14.0119 68.8229 14.688C68.8831 15.2411 68.8 15.7632 68.5736 16.2542C68.3574 16.7442 67.9986 17.1616 67.4972 17.5065C67.0049 17.8401 66.3747 18.0487 65.6065 18.1325L62.5952 18.4609ZM61.3815 18.5933L60.2116 7.83838L61.9784 7.64568L63.1483 18.4006L61.3815 18.5933Z" fill="#181713"/>
<path d="M73.2334 13.4917L73.3617 12.0291L76.0866 12.2695C76.6305 12.3174 77.0635 12.216 77.3854 11.9651C77.7186 11.7049 77.9072 11.3233 77.9513 10.8204C77.9909 10.3688 77.8754 9.9759 77.6048 9.64173C77.3341 9.30757 76.9269 9.1165 76.3829 9.06852L73.6426 8.82683L73.7776 7.28726L76.5949 7.53575C77.2723 7.59549 77.8554 7.78655 78.3443 8.10894C78.834 8.42106 79.1968 8.8254 79.4325 9.32198C79.6793 9.80919 79.7766 10.3505 79.7244 10.9457C79.6695 11.5718 79.4781 12.1031 79.1502 12.5397C78.8326 12.9771 78.4059 13.3015 77.8702 13.5128C77.3346 13.7241 76.728 13.7999 76.0507 13.7402L73.2334 13.4917ZM71.6161 17.9569L72.5614 7.17999L74.3319 7.33614L73.3865 18.1131L71.6161 17.9569ZM77.5277 18.4784L74.1665 13.4654L75.8665 13.0103L79.76 18.6752L77.5277 18.4784Z" fill="#181713"/>
<path d="M80.9814 19.07L88.334 9.97752L89.5186 10.3319L90.6648 21.9669L88.8288 21.4176L88.0138 12.0272L88.6356 12.2132L82.7878 19.6104L80.9814 19.07ZM83.6795 17.6994L84.1207 16.2182L89.6139 17.8616L89.1727 19.3427L83.6795 17.6994Z" fill="#181713"/>
<path d="M92.0386 22.9008L97.2036 13.395L98.2889 13.9872L97.7898 16.0388L93.5988 23.752L92.0386 22.9008ZM98.6186 26.4907L96.9701 15.9612L98.2889 13.9872L99.9374 24.5166L98.6186 26.4907ZM98.6186 26.4907L99.0513 24.5613L103.309 16.7259L104.869 17.5771L99.7039 27.0828L98.6186 26.4907Z" fill="#181713"/>
<path d="M102.284 29.3493L103.337 28.1146L105.497 29.964C106.061 30.4464 106.657 30.747 107.287 30.8659C107.925 30.9914 108.545 30.939 109.147 30.7089C109.764 30.4776 110.317 30.0758 110.805 29.5035C111.286 28.939 111.59 28.3373 111.715 27.6984C111.84 27.0595 111.791 26.4343 111.567 25.8227C111.352 25.2179 110.966 24.6776 110.411 24.2018L108.251 22.3524L109.304 21.1177L111.499 22.9972C112.094 23.5065 112.555 24.0847 112.884 24.7319C113.218 25.3713 113.413 26.04 113.468 26.7379C113.537 27.4347 113.464 28.1244 113.247 28.8071C113.037 29.4819 112.682 30.1133 112.18 30.7013C111.686 31.2814 111.119 31.7319 110.479 32.0527C109.84 32.3735 109.172 32.5613 108.476 32.6159C107.786 32.6628 107.096 32.5742 106.407 32.3504C105.725 32.1187 105.09 31.7515 104.503 31.249L102.284 29.3493ZM101.356 28.5553L108.376 20.3236L109.726 21.4795L102.707 29.7112L101.356 28.5553Z" fill="#181713"/>
<path d="M114.563 43.3938L122.284 35.0164L123.132 36.5428L117.156 42.9381L116.931 42.5328L125.474 40.7575L126.075 41.8382L120.069 48.1794L119.844 47.7742L128.417 46.0529L129.266 47.5794L118.091 49.7428L117.491 48.6622L123.476 42.315L123.701 42.7202L115.163 44.4745L114.563 43.3938Z" fill="#181713"/>
<path d="M119.19 53.4311L129.465 50.0435L130.019 51.732L119.745 55.1196L119.19 53.4311Z" fill="#181713"/>
<path d="M121.34 62.0925L131.717 60.4309L131.997 62.186L121.62 63.8476L121.34 62.0925ZM129.864 57.159L131.467 56.9024L132.858 65.6168L131.255 65.8733L129.864 57.159Z" fill="#181713"/>
<path d="M122.082 69.5823L132.89 70.058L132.813 71.8336L122.005 71.3579L122.082 69.5823ZM121.782 76.4532L132.59 76.9288L132.512 78.7044L121.705 78.2288L121.782 76.4532ZM126.815 71.0127L128.437 71.0841L128.173 77.1211L126.552 77.0498L126.815 71.0127Z" fill="#181713"/>
<path d="M119.055 87.8053L120.565 88.4007L119.525 91.0475C119.254 91.738 119.165 92.4008 119.259 93.0358C119.349 93.6805 119.601 94.2506 120.015 94.7462C120.435 95.2552 120.995 95.6477 121.695 95.9236C122.385 96.1958 123.052 96.2872 123.696 96.1978C124.34 96.1085 124.914 95.8586 125.418 95.4484C125.918 95.0477 126.302 94.5069 126.57 93.826L127.609 91.1792L129.119 91.7745L128.063 94.4646C127.776 95.1934 127.381 95.8185 126.878 96.3397C126.384 96.8648 125.816 97.2668 125.175 97.5457C124.54 97.8379 123.865 97.9925 123.15 98.0095C122.445 98.0303 121.732 97.8989 121.014 97.6154C120.304 97.3357 119.694 96.9454 119.182 96.4445C118.67 95.9436 118.275 95.3723 117.996 94.7305C117.726 94.0925 117.584 93.4108 117.57 92.6854C117.566 91.9638 117.705 91.2433 117.987 90.5241L119.055 87.8053ZM119.501 86.6689L129.565 90.6381L128.916 92.2924L118.852 88.3232L119.501 86.6689Z" fill="#181713"/>
<path d="M114.997 96.6734L124.092 102.53L123.133 104.026L114.037 98.1694L114.997 96.6734ZM114.337 97.7011L115.702 98.5797L112.431 103.679L111.067 102.801L114.337 97.7011ZM118.327 100.27L119.639 101.115L116.652 105.772L115.34 104.927L118.327 100.27ZM122.069 102.68L123.433 103.558L120.204 108.593L118.84 107.714L122.069 102.68Z" fill="#181713"/>
<path d="M109.625 104.476L117.264 112.137L116.39 113.011L107.985 110.951L108.553 110.383L110.602 118.807L109.728 119.681L102.089 112.021L103.345 110.764L108.779 116.213L108.419 116.421L106.904 110.174L107.778 109.3L114.011 110.823L113.804 111.184L108.369 105.734L109.625 104.476Z" fill="#181713"/>
<path d="M95.7709 115.635C96.4285 115.229 97.1179 114.973 97.8389 114.867C98.5599 114.761 99.2674 114.791 99.9615 114.956C100.661 115.13 101.309 115.426 101.905 115.845C102.498 116.278 102.996 116.824 103.401 117.482C103.806 118.141 104.065 118.828 104.179 119.545C104.284 120.267 104.259 120.973 104.102 121.663C103.942 122.367 103.654 123.01 103.239 123.593C102.82 124.191 102.282 124.692 101.624 125.098C100.966 125.504 100.282 125.757 99.5693 125.857C98.8536 125.972 98.1461 125.943 97.4467 125.769C96.7527 125.604 96.1092 125.305 95.5164 124.871C94.9202 124.452 94.4198 123.914 94.0151 123.255C93.6105 122.597 93.3529 121.902 93.2423 121.172C93.1283 120.455 93.154 119.749 93.3193 119.054C93.4758 118.364 93.7635 117.721 94.1824 117.123C94.5925 116.531 95.122 116.035 95.7709 115.635ZM96.6874 117.067C96.0649 117.451 95.6075 117.927 95.3155 118.494C95.0146 119.067 94.8837 119.681 94.9228 120.335C94.9585 121.003 95.176 121.661 95.5752 122.311C95.872 122.794 96.2206 123.184 96.6213 123.481C97.0185 123.793 97.4465 124.007 97.9051 124.124C98.3691 124.249 98.8426 124.272 99.3255 124.192C99.7997 124.117 100.269 123.937 100.734 123.65C101.348 123.271 101.805 122.795 102.106 122.222C102.403 121.663 102.537 121.054 102.507 120.395C102.468 119.741 102.248 119.09 101.849 118.44C101.552 117.957 101.203 117.556 100.8 117.235C100.394 116.929 99.9661 116.714 99.5162 116.592C99.0576 116.476 98.5841 116.453 98.0958 116.525C97.6128 116.605 97.1434 116.785 96.6874 117.067Z" fill="#181713"/>
<path d="M85.9773 120.006C86.7452 119.736 87.4967 119.668 88.2316 119.803C88.9666 119.938 89.6195 120.244 90.1902 120.72C90.7547 121.21 91.1714 121.839 91.4404 122.607L93.6569 128.938L91.9801 129.527L89.7687 123.211C89.595 122.715 89.3414 122.318 89.0079 122.02C88.6681 121.736 88.2826 121.555 87.8514 121.477C87.4237 121.409 86.9862 121.453 86.5391 121.61C86.0822 121.771 85.7129 122.01 85.431 122.327C85.1526 122.654 84.9743 123.034 84.8961 123.465C84.8214 123.906 84.8691 124.37 85.0394 124.856L87.2559 131.187L85.5791 131.776L83.3575 125.431C83.0885 124.663 83.0234 123.916 83.1623 123.19C83.3011 122.464 83.6106 121.82 84.0907 121.258C84.5708 120.696 85.1997 120.279 85.9773 120.006Z" fill="#181713"/>
<path d="M79.2816 121.862L81.1281 132.521L79.377 132.825L77.5306 122.166L79.2816 121.862Z" fill="#181713"/>
</svg>
