<svg width="147" height="114" viewBox="0 0 147 114" fill="none" xmlns="http://www.w3.org/2000/svg">
<mask id="mask0_2094_8971" style="mask-type:alpha" maskUnits="userSpaceOnUse" x="0" y="0" width="147" height="114">
<path d="M61.5708 6.25926C46.861 -5.98518 22.0487 1.16063 9.40861 15.4062C-3.21578 29.634 -1.54102 51.0694 13.1505 63.2987L72.4558 112.665C72.8179 112.966 73.1568 113.294 73.4694 113.647C73.5097 113.705 73.5955 113.705 73.6357 113.647C73.9484 113.294 74.2872 112.966 74.6493 112.665L133.955 63.2987C148.646 51.0694 150.321 29.634 137.697 15.4062C125.056 1.16063 100.123 -5.98518 85.4133 6.25926L81.8459 9.64294C77.3011 13.9537 70.2051 14.0435 65.5527 9.84911L61.5708 6.25926Z" fill="#D9D9D9"/>
</mask>
<g mask="url(#mask0_2094_8971)">
<path opacity="0.6" d="M61.5708 6.25926C46.861 -5.98518 22.0487 1.16063 9.40861 15.4062C-3.21578 29.634 -1.54102 51.0694 13.1505 63.2987L72.4558 112.665C72.8179 112.966 73.1568 113.294 73.4694 113.647C73.5097 113.705 73.5955 113.705 73.6357 113.647C73.9484 113.294 74.2872 112.966 74.6493 112.665L133.955 63.2987C148.646 51.0694 150.321 29.634 137.697 15.4062C125.056 1.16063 100.123 -5.98518 85.4133 6.25926L81.8459 9.64294C77.3011 13.9537 70.2051 14.0435 65.5527 9.84911L61.5708 6.25926Z" fill="#F5F5F5"/>
<path d="M71.6931 77.2313C73.978 77.886 75.7125 84.763 76.0997 81.7387C76.4314 79.1452 74.4157 72.958 74.6516 69.4986C74.714 68.5925 75.8886 68.4677 76.1869 69.3499C76.1963 69.3764 77.1503 75.1276 77.8957 76.809C78.9479 79.1811 78.1111 73.3829 78.2196 68.1454C78.2376 67.2983 78.8377 66.8897 79.3736 67.0376C80.1361 67.2479 79.9694 68.0625 79.9994 69.2866C80.0592 71.7006 79.8019 77.2569 80.5063 76.8714C81.2098 76.4867 80.9473 69.4131 81.5312 67.9634C81.7987 67.2975 82.9442 67.5137 82.8972 68.7558C82.8963 68.7857 82.7527 72.9572 82.7519 72.9863C82.5681 80.2351 84.0606 78.2528 84.9333 73.0264C85.0274 72.4597 85.2043 71.9571 85.7762 72.0135C87.2516 72.1571 85.7112 76.9851 85.1248 80.0872C84.6137 82.7961 83.428 85.1075 83.5511 88.6781C83.9948 97.8109 85.0906 106.156 85.8429 115.284L77.1229 115.062C77.5042 111.058 79.9105 92.4521 76.7143 89.7765C74.5362 87.9523 72.0103 79.735 70.8443 78.0912C70.3861 77.4458 71.1794 77.0842 71.6931 77.2313Z" fill="#02111A" fill-opacity="0.5"/>
<path d="M72.0772 63.7653C69.2538 64.574 67.1099 73.0734 66.6312 69.3353C66.2209 66.1306 68.7127 58.4834 68.4203 54.2077C68.3443 53.0887 66.8919 52.934 66.5235 54.0247C66.5124 54.0572 65.3336 61.165 64.4121 63.2422C63.1119 66.1742 64.1454 59.0083 64.0112 52.5356C63.9898 51.4894 63.2477 50.9842 62.5851 51.1671C61.643 51.4269 61.8486 52.4331 61.8114 53.9461C61.7383 56.9294 62.0556 63.7961 61.1856 63.32C60.3157 62.8438 60.6407 54.1025 59.9191 52.3108C59.5878 51.4885 58.1731 51.7552 58.2303 53.2896C58.2317 53.3281 58.4091 58.4826 58.41 58.5185C58.637 67.4778 56.7926 65.0279 55.7146 58.5681C55.5979 57.868 55.3792 57.2465 54.673 57.3158C52.8493 57.4944 54.7528 63.461 55.4772 67.2949C56.1097 70.6415 57.5745 73.4983 57.4228 77.9108C56.8741 89.1978 55.5202 99.512 54.5902 110.793L65.3669 110.518C64.8959 105.569 61.9217 82.5755 65.8721 79.2683C68.5639 77.015 71.6857 66.8589 73.1261 64.8279C73.6928 64.0295 72.7115 63.5833 72.0772 63.7653Z" fill="#02111A" fill-opacity="0.5"/>
<path d="M107.817 52.2351C104.994 53.0437 102.85 61.5432 102.371 57.805C101.961 54.6004 104.453 46.954 104.161 42.6782C104.084 41.5593 102.632 41.4046 102.263 42.4945C102.252 42.5269 101.074 49.6347 100.152 51.7128C98.852 54.6439 99.8856 47.478 99.7515 41.0062C99.7298 39.9591 98.9879 39.4539 98.3254 39.6368C97.3833 39.8967 97.5889 40.9037 97.5517 42.4167C97.4785 45.3991 97.7959 52.2659 96.9259 51.7897C96.0558 51.3144 96.3809 42.5731 95.6593 40.7806C95.328 39.9582 93.9133 40.2258 93.9705 41.7593C93.972 41.7978 94.1493 46.9523 94.1502 46.9882C94.3772 55.9475 92.5328 53.4976 91.4549 47.0378C91.338 46.3377 91.1194 45.7171 90.4132 45.7855C88.5896 45.9642 90.4931 51.9308 91.2175 55.7646C91.85 59.1121 93.3147 61.968 93.1631 66.3814C92.6143 77.6675 91.2605 87.9817 90.3304 99.2627L101.107 98.9874C100.636 94.0389 97.662 71.0453 101.612 67.738C104.304 65.4847 107.426 55.3287 108.866 53.2976C109.433 52.4992 108.452 52.053 107.817 52.2351Z" fill="#02111A" fill-opacity="0.5"/>
<path d="M58.4745 39.7811C54.3859 41.1034 51.2809 54.9999 50.5882 48.8885C49.9942 43.6489 53.6024 31.1462 53.1792 24.1553C53.0685 22.3256 50.9661 22.0732 50.4316 23.8555C50.4155 23.9091 48.7086 35.5297 47.3744 38.9271C45.4918 43.7204 46.9884 32.0043 46.7941 21.4221C46.7628 19.7099 45.6884 18.8841 44.7291 19.1832C43.3649 19.6075 43.6625 21.2536 43.6088 23.7276C43.5028 28.6055 43.9624 39.832 42.7025 39.0536C41.4427 38.276 41.9134 23.9834 40.8685 21.0535C40.3888 19.7086 38.3401 20.1459 38.4231 22.6543C38.4251 22.7161 38.6819 31.1441 38.6832 31.2026C39.012 45.8513 36.3411 41.8453 34.7802 31.2837C34.611 30.1395 34.2944 29.1239 33.2719 29.2367C30.631 29.5282 33.3874 39.2833 34.4365 45.5522C35.3524 51.0248 37.4734 55.6951 37.2538 62.9101C36.4592 81.364 34.4988 98.2269 33.1519 116.672L48.7571 116.222C48.0748 108.131 43.7685 70.537 49.4889 65.129C53.387 61.4448 57.9069 44.8398 59.9933 41.5194C60.813 40.2136 59.3928 39.4841 58.4745 39.7811Z" fill="#02111A" fill-opacity="0.5"/>
</g>
</svg>
