<svg width="253" height="100" viewBox="0 0 253 100" fill="none" xmlns="http://www.w3.org/2000/svg">
<g opacity="0.3">
<path d="M175.723 17.9863C176.401 17.9063 177.008 18.1416 177.412 18.6113C177.791 19.0518 178.029 19.7458 177.913 20.6875L177.885 20.8789C175.44 35.4039 174.51 43.1248 174.521 46.4844C174.523 47.315 174.582 47.9421 174.721 48.3467C174.787 48.5413 174.904 48.7796 175.133 48.9199C175.409 49.0897 175.698 49.0324 175.901 48.9209C176.086 48.8196 176.244 48.6558 176.377 48.4902C176.516 48.3174 176.656 48.104 176.797 47.8623C177.079 47.3782 177.388 46.7413 177.711 46.001C179.002 43.0432 180.626 38.2148 181.984 34.0352C182.325 32.9881 182.649 31.9795 182.948 31.0498C183.247 30.1198 183.52 29.2685 183.759 28.5342C183.998 27.7995 184.201 27.1845 184.359 26.7266C184.443 26.486 184.51 26.302 184.561 26.1699L184.663 25.9258C185.015 25.3015 185.43 24.9847 185.816 24.8535C186.205 24.7217 186.613 24.7601 186.985 24.9336C187.696 25.2652 188.222 26.0668 188.109 26.9854L188.078 27.1709C187.987 27.5965 187.264 30.2722 186.363 33.7715C185.467 37.2524 184.402 41.5177 183.64 45.0752C183.259 46.8527 182.951 48.4629 182.778 49.7139C182.692 50.3384 182.638 50.8851 182.627 51.3232C182.621 51.5419 182.626 51.7432 182.646 51.9189C182.664 52.0872 182.7 52.2686 182.776 52.4248C182.855 52.5852 183.02 52.7959 183.314 52.835C183.574 52.8692 183.786 52.7458 183.914 52.6494C184.177 52.4509 184.455 52.0801 184.757 51.5967C185.3 50.7252 186.031 49.2942 186.984 47.1934L187.407 46.252C189.074 42.8975 189.958 39.7731 190.754 37.7637C191.166 36.7234 191.538 36.0197 191.947 35.6299C192.141 35.4454 192.331 35.3436 192.528 35.3027C192.678 35.2718 192.856 35.2715 193.072 35.3193L193.302 35.3838C193.654 35.5029 193.89 35.6413 194.05 35.8008C194.203 35.9538 194.313 36.1532 194.37 36.4463C194.493 37.074 194.363 38.0663 193.906 39.6982C193.112 42.5351 191.431 46.9821 188.946 54.1357L187.832 57.3701C180.045 80.188 177.758 98.2664 177.562 112.144C177.372 125.666 179.171 135.224 179.777 141.172C179.394 141.18 178.739 141.186 177.632 141.188C174.446 141.196 167.601 141.182 152.976 141.182C154.752 135.096 157.684 123.704 159.663 112.356C160.688 106.477 161.46 100.598 161.682 95.4707C161.895 90.5223 161.601 86.2061 160.48 83.2627L160.369 82.9824C160.254 82.703 159.991 82.2986 159.662 81.833C159.323 81.352 158.878 80.7578 158.366 80.0811C157.338 78.7232 156.028 77.02 154.691 75.166C153.355 73.312 151.997 71.3159 150.88 69.3809C149.829 67.5609 149.005 65.8203 148.601 64.3164L148.525 64.0195V64.0186C147.021 57.6626 145.491 51.7031 142.599 45.9775L142.313 45.4238C142.041 44.9011 142.043 44.5342 142.132 44.2969C142.221 44.0589 142.435 43.8483 142.798 43.7158C143.494 43.4618 144.607 43.5562 145.653 44.2119L145.861 44.3506C147.315 45.3776 148.622 47.4745 149.81 49.9541C150.99 52.4187 152.001 55.1403 152.925 57.3711C153.382 58.476 153.821 59.4666 154.244 60.2207C154.456 60.5977 154.672 60.9307 154.895 61.1943C155.112 61.4516 155.367 61.6814 155.667 61.7969C155.999 61.9244 156.346 61.8962 156.66 61.6992C156.945 61.5202 157.173 61.2216 157.365 60.8662C157.752 60.1524 158.105 59.0002 158.447 57.3535L158.45 57.3408L158.452 57.3291C159.782 48.8283 160.032 44.0907 160.231 39.5557C160.43 35.0409 160.576 30.7367 161.692 23.0781C161.919 22.0942 162.65 21.6054 163.354 21.5645C164.009 21.5265 164.665 21.8712 164.927 22.6689L164.974 22.834C164.971 22.8217 164.978 22.8629 164.984 23.0098C164.99 23.1376 164.994 23.3117 164.996 23.5293C165.001 23.9636 164.999 24.5565 164.994 25.2734C164.984 26.7043 164.962 28.6256 164.954 30.7256C164.938 34.9214 164.98 39.8778 165.296 43.1855C165.375 44.0138 165.472 44.7492 165.592 45.3486C165.709 45.9312 165.858 46.4431 166.068 46.7822C166.173 46.9512 166.332 47.1427 166.572 47.2344C166.845 47.3387 167.111 47.2741 167.317 47.1406C167.506 47.0186 167.664 46.8317 167.799 46.627C167.938 46.4158 168.078 46.1503 168.218 45.834C168.774 44.5789 169.439 42.32 170.243 38.7949C170.949 35.7007 171.768 31.6063 172.717 26.3145L173.132 23.9727C173.556 21.5498 173.909 20.0615 174.33 19.1582C174.537 18.7157 174.745 18.4478 174.956 18.2803C175.11 18.1584 175.283 18.0754 175.496 18.0254L175.723 17.9863Z" stroke="white"/>
<path d="M166.478 56.8223C167.207 56.6641 167.845 56.8804 168.38 57.3066C168.857 57.6868 169.24 58.2273 169.491 58.7783L169.591 59.0146C169.888 59.7858 169.988 60.5889 170.038 61.2617C170.061 61.5732 170.077 61.9177 170.097 62.1455C170.108 62.2677 170.122 62.3915 170.146 62.501C170.166 62.5946 170.206 62.7504 170.311 62.8818L170.506 63.1279L170.812 63.0586C170.962 63.0247 171.064 62.9388 171.116 62.8867C171.173 62.8306 171.218 62.7687 171.251 62.7188C171.316 62.6198 171.383 62.4923 171.447 62.3701C171.583 62.1116 171.751 61.7838 171.996 61.4102C172.451 60.716 173.172 59.8628 174.396 59.1406L174.647 58.998C176.124 58.1942 177.545 58.1935 178.275 58.7529C178.623 59.0189 178.87 59.4477 178.896 60.1094C178.918 60.7018 178.76 61.4812 178.319 62.4639L178.113 62.8984C176.372 66.3595 174.643 67.775 171.092 71.0801L169.452 72.623C169.312 72.7567 169.244 72.8073 169.208 72.8291C169.184 72.8438 169.17 72.848 169.112 72.8682C169.101 72.8645 169.081 72.8587 169.055 72.8447C168.963 72.7963 168.83 72.6963 168.663 72.5234C168.33 72.1796 167.935 71.6298 167.516 70.917C166.681 69.4974 165.802 67.5147 165.177 65.4658C164.549 63.408 164.194 61.3357 164.363 59.7207C164.448 58.9165 164.659 58.2597 164.999 57.7754C165.29 57.3619 165.688 57.054 166.234 56.8857L166.478 56.8223Z" stroke="white"/>
</g>
<g opacity="0.45">
<path d="M106.765 0.512695L106.977 0.551758C107.403 0.657825 107.666 0.838535 107.845 1.06934C108.032 1.3113 108.162 1.65054 108.246 2.12598C108.33 2.60252 108.361 3.17385 108.38 3.85449C108.394 4.35614 108.401 4.91788 108.422 5.51953L108.447 6.13379C108.529 7.75633 108.57 9.91231 108.616 12.2275C108.662 14.5385 108.713 17.0048 108.812 19.2334C108.911 21.4557 109.059 23.4676 109.306 24.8623C109.427 25.5484 109.581 26.1409 109.793 26.5361C109.897 26.7302 110.051 26.9442 110.285 27.0645C110.526 27.1883 110.778 27.1767 110.999 27.0781L111.092 27.0312C111.341 26.8867 111.501 26.6369 111.61 26.4043C111.726 26.1593 111.82 25.8587 111.898 25.5244C112.057 24.854 112.173 23.9734 112.261 22.9619C112.437 20.9351 112.51 18.3019 112.569 15.5986C112.629 12.8875 112.676 10.1023 112.801 7.74512C112.863 6.56706 112.944 5.50381 113.055 4.61621C113.152 3.83163 113.27 3.20935 113.407 2.77246L113.467 2.59668C113.695 1.98465 114.33 1.73332 114.971 1.97168C115.55 2.18732 116.184 2.85476 116.246 4.18945L116.251 4.46484V4.46582C116.25 4.56587 116.15 15.8476 116.15 15.9297L116.161 17.7012C116.214 21.6686 116.446 24.4822 116.803 26.2979C117.004 27.3227 117.255 28.0918 117.579 28.5684C117.743 28.8101 117.959 29.0251 118.243 29.124C118.548 29.2299 118.846 29.1741 119.099 29.0322C119.337 28.8982 119.544 28.6849 119.725 28.4424C119.909 28.1954 120.086 27.8899 120.258 27.5381C120.601 26.8344 120.941 25.9036 121.269 24.7881C121.843 22.8332 122.392 20.2682 122.856 17.2686L123.05 15.957C123.157 15.1946 123.312 14.5606 123.582 14.1367C123.711 13.9341 123.858 13.7935 124.027 13.7051C124.154 13.6392 124.311 13.5927 124.513 13.583L124.729 13.5859C125.066 13.6102 125.309 13.7588 125.506 14.0469C125.718 14.3579 125.876 14.8402 125.963 15.5088C126.136 16.8437 125.999 18.7233 125.685 20.9092C125.372 23.0847 124.891 25.5178 124.401 27.9443C123.974 30.062 123.538 32.1767 123.205 34.0928L123.068 34.9014C122.472 38.569 121.426 41.9244 120.574 45.6904C119.782 49.1954 119.182 52.9724 119.352 57.46L119.396 58.3672V58.374C121.216 82.8783 124.721 105.277 127.377 129.677H104.863C105.293 123.843 106.705 108.965 106.993 94.5488C107.142 87.1085 106.991 79.7681 106.246 73.8398C105.874 70.8764 105.35 68.2484 104.634 66.1299C103.967 64.1558 103.113 62.5671 102.006 61.5791L101.781 61.3896C100.358 60.2589 98.8073 58.0587 97.2178 55.2529C95.6377 52.4639 94.053 49.1378 92.5488 45.8115C91.7972 44.1495 91.0663 42.4905 90.3672 40.9004C89.6685 39.3113 89.0011 37.7897 88.376 36.4082C87.2125 33.8369 86.1746 31.6956 85.3438 30.4951L85.1807 30.2676C84.9126 29.9094 84.8663 29.6492 84.8867 29.4795C84.9072 29.3097 85.0048 29.1415 85.2002 28.9883C85.5621 28.7046 86.1569 28.5599 86.6748 28.625L86.8916 28.666C88.268 29.0226 89.6696 30.3496 91.0381 32.1748C92.3895 33.9773 93.6299 36.1549 94.7217 38.0605C95.2642 39.0075 95.7725 39.8915 96.2334 40.6143C96.6862 41.3241 97.1249 41.9303 97.5361 42.2852C97.7393 42.4605 97.9944 42.6263 98.2891 42.6602C98.6292 42.6992 98.918 42.5528 99.124 42.3086C99.31 42.088 99.4356 41.7844 99.5283 41.4424C99.5997 41.179 99.6583 40.8662 99.7061 40.5039L99.75 40.124C99.9369 38.2935 99.6941 35.8801 99.249 33.1816C98.8025 30.4742 98.144 27.4325 97.4795 24.335C96.1853 18.3024 94.8768 12.0846 94.9756 7.50977L94.9893 7.07227C95.0311 6.09688 95.6576 5.57182 96.3379 5.48535C97.016 5.39934 97.7949 5.74621 98.1533 6.68848C98.1537 6.69039 98.1548 6.69224 98.1553 6.69434C98.1615 6.7247 98.1707 6.76989 98.1826 6.8291C98.2072 6.95168 98.2392 7.11543 98.2842 7.33984C98.3724 7.77969 98.4999 8.40918 98.6582 9.17676C98.9749 10.712 99.4165 12.8003 99.9248 15.0273C100.872 19.1789 102.065 23.8847 103.113 26.3594L103.32 26.8232C103.513 27.229 103.689 27.56 103.85 27.8145C104.002 28.0559 104.171 28.2775 104.362 28.4131C104.463 28.484 104.606 28.5573 104.782 28.5635C104.975 28.5701 105.139 28.4942 105.259 28.3848C105.457 28.2033 105.539 27.9269 105.584 27.7207C105.684 27.2619 105.711 26.5603 105.701 25.7061C105.691 24.8383 105.64 23.7668 105.565 22.543C105.285 17.9409 104.668 11.1303 104.564 4.4707L104.551 3.1416C104.546 2.11319 104.899 1.39668 105.358 0.978516C105.762 0.61145 106.267 0.452822 106.765 0.512695Z" stroke="white"/>
<path d="M104.452 37.667C105.153 37.4092 105.814 37.535 106.403 37.8828C106.929 38.193 107.383 38.6749 107.708 39.1855L107.839 39.4062C108.241 40.1286 108.452 40.9101 108.595 41.5693C108.661 41.8745 108.725 42.2138 108.776 42.4365C108.804 42.5559 108.835 42.6762 108.873 42.7812C108.906 42.8713 108.968 43.02 109.09 43.1357L109.316 43.3525L109.61 43.2412C109.755 43.1866 109.844 43.0872 109.889 43.0283C109.937 42.965 109.972 42.8977 109.998 42.8438C110.049 42.7367 110.098 42.6016 110.145 42.4717C110.243 42.1969 110.363 41.8483 110.554 41.4443C110.907 40.6938 111.504 39.7485 112.615 38.8633L112.845 38.6875C114.195 37.6864 115.602 37.4889 116.403 37.9414C116.784 38.1565 117.089 38.5457 117.206 39.1973C117.311 39.7809 117.263 40.5749 116.963 41.6094L116.818 42.0674C115.574 45.7371 114.06 47.3793 111.002 51.1455L109.593 52.9023C109.473 53.0533 109.412 53.1119 109.38 53.1387C109.358 53.1566 109.345 53.1636 109.291 53.1914C109.279 53.1894 109.259 53.1871 109.23 53.1768C109.133 53.1417 108.988 53.0604 108.798 52.9121C108.421 52.6179 107.953 52.1291 107.438 51.4814C106.414 50.1916 105.268 48.3505 104.364 46.4082C103.457 44.4576 102.817 42.454 102.761 40.8311C102.733 40.023 102.85 39.3432 103.12 38.8164C103.35 38.3666 103.702 38.0062 104.22 37.7637L104.452 37.667Z" stroke="white"/>
</g>
<g opacity="0.5">
<path d="M24.0059 27.0283C24.327 27.0662 24.5684 27.1597 24.7734 27.3223C24.9845 27.4897 25.1921 27.758 25.3984 28.2002C25.7672 28.9906 26.0838 30.229 26.4414 32.1494L26.5977 33.0146C27.7254 39.4581 28.6795 44.3006 29.4863 47.8369C30.2906 51.362 30.9554 53.6209 31.5117 54.876C31.6519 55.1923 31.7912 55.4578 31.9307 55.6689C32.066 55.8737 32.2232 56.0606 32.4121 56.1826C32.6188 56.3161 32.884 56.3807 33.1572 56.2764C33.3973 56.1846 33.5565 55.9932 33.6611 55.8242C33.871 55.4851 34.0199 54.9731 34.1367 54.3906C34.2569 53.7912 34.3545 53.0558 34.4336 52.2275C34.7493 48.9197 34.7901 43.9633 34.7744 39.7676C34.7666 37.6676 34.7451 35.7462 34.7354 34.3154C34.7305 33.5984 34.7278 33.0056 34.7324 32.5713C34.7347 32.3537 34.7395 32.1796 34.7451 32.0518L34.7559 31.876C34.9769 30.961 35.676 30.5661 36.375 30.6064C37.079 30.6472 37.8093 31.1363 38.0361 32.1201C39.1521 39.7788 39.2998 44.0829 39.498 48.5977C39.6972 53.1327 39.9474 57.8703 41.2773 66.3711L41.2793 66.3828L41.2822 66.3955C41.6242 68.0425 41.9776 69.1954 42.3643 69.9092C42.5567 70.2644 42.7844 70.5623 43.0693 70.7412C43.3833 70.9382 43.7309 70.9674 44.0625 70.8398C44.3626 70.7244 44.6179 70.4937 44.835 70.2363C45.0573 69.9727 45.2736 69.6397 45.4854 69.2627C45.9088 68.5086 46.3474 67.518 46.8047 66.4131C47.728 64.1823 48.7392 61.4607 49.9199 58.9961C51.0336 56.6716 52.2509 54.6833 53.5967 53.5977L53.8672 53.3926C54.9718 52.6123 56.1896 52.4869 56.9316 52.7578C57.2944 52.8903 57.5087 53.1009 57.5977 53.3389C57.6752 53.5466 57.6863 53.8534 57.5049 54.2773L57.415 54.4658C54.7211 59.6238 53.1749 64.9688 51.79 70.6201L51.2031 73.0605C50.8316 74.6303 49.9695 76.4816 48.8486 78.4229C47.7315 80.3578 46.3749 82.3531 45.0381 84.207C43.7012 86.0611 42.3911 87.7641 41.3633 89.1221C40.8509 89.799 40.406 90.3939 40.0664 90.875C39.82 91.2241 39.6105 91.5387 39.4727 91.792L39.3594 92.0234C38.147 94.9696 37.8261 99.4045 38.0469 104.513C38.2685 109.64 39.0411 115.519 40.0664 121.398C42.0453 132.746 44.9766 144.138 46.7529 150.224C32.1288 150.224 25.2834 150.238 22.0977 150.23C20.9902 150.228 20.3347 150.222 19.9512 150.213C20.558 144.264 22.3564 134.706 22.166 121.185C21.9767 107.741 19.8252 90.3553 12.6113 68.5371L11.8975 66.4121C8.79708 57.3271 6.73035 51.9823 5.82227 48.7402C5.36512 47.1081 5.23583 46.115 5.3584 45.4873C5.41566 45.1944 5.52659 44.9957 5.67969 44.8428C5.7995 44.7231 5.96198 44.6152 6.18457 44.5186L6.42773 44.4258C6.75221 44.3162 7.00141 44.3035 7.20117 44.3447C7.39889 44.3856 7.58869 44.4874 7.78223 44.6719C8.19104 45.0617 8.56361 45.7655 8.97559 46.8057C9.77147 48.8151 10.6545 51.9397 12.3213 55.2939H12.3223C13.486 57.9158 14.3504 59.6427 14.9717 60.6387C15.2732 61.122 15.5527 61.4918 15.8154 61.6904C15.9431 61.7869 16.1549 61.9114 16.415 61.877C16.7097 61.8379 16.8745 61.6272 16.9531 61.4668C17.0297 61.3106 17.0655 61.1292 17.084 60.9609C17.1033 60.785 17.1082 60.5831 17.1025 60.3643C17.0912 59.9262 17.0364 59.3801 16.9502 58.7559C16.7775 57.5049 16.4707 55.8947 16.0898 54.1172C15.3275 50.5597 14.2626 46.2944 13.3662 42.8135C12.6904 40.189 12.115 38.0278 11.8311 36.9316L11.6514 36.2129C11.4381 35.2181 11.9854 34.3294 12.7432 33.9756C13.115 33.8021 13.5239 33.7639 13.9121 33.8955C14.2502 34.0103 14.6112 34.2673 14.9316 34.748L15.0664 34.9678C15.1026 35.0323 15.2034 35.2877 15.3701 35.7686C15.5289 36.2266 15.732 36.8414 15.9707 37.5762C16.2093 38.3105 16.4823 39.1617 16.7812 40.0918C17.08 41.0215 17.4037 42.0301 17.7441 43.0771C19.103 47.2569 20.7278 52.0852 22.0186 55.043C22.3416 55.7831 22.6491 56.4192 22.9316 56.9033C23.0728 57.1452 23.2139 57.3592 23.3525 57.5322C23.4852 57.6977 23.6434 57.8606 23.8281 57.9619C24.0316 58.0734 24.3201 58.1318 24.5967 57.9619C24.8252 57.8215 24.9411 57.5823 25.0078 57.3877C25.1463 56.9831 25.2054 56.3568 25.208 55.5264C25.2179 52.3768 24.4016 45.3941 22.2852 32.5654L21.8438 29.9209C21.6688 28.8816 21.9127 28.1231 22.3164 27.6533C22.6698 27.2422 23.1796 27.0104 23.7559 27.0127L24.0059 27.0283Z" stroke="white"/>
<path d="M30.1953 67.4033C31.2918 66.184 32.346 65.9798 33.0713 66.3564C33.7956 66.7328 34.4764 67.8134 34.6162 69.8428L34.6367 70.2607C34.7208 73.6854 33.2766 77.5475 31.5771 80.7168L31.2334 81.3408L31.2324 81.3428C31.1296 81.5271 31.0229 81.7129 30.9141 81.9004C30.781 81.814 30.6186 81.7099 30.4346 81.585C30.0108 81.2973 29.4656 80.9107 28.8545 80.4414L28.2227 79.9443C26.7268 78.7312 25.5719 77.5879 24.7148 76.5752L24.3662 76.1494L24.3633 76.1465L24.1406 75.8623C23.1181 74.5279 22.3599 73.0398 22.2246 71.4639L22.2061 71.125V71.1211L22.2021 70.874C22.2154 69.6622 22.6594 68.7637 23.2471 68.3398C23.5538 68.1188 23.9137 68.0131 24.3184 68.0527C24.6777 68.088 25.0962 68.2413 25.5566 68.5693L25.7568 68.7207C26.3662 69.2106 26.9219 69.9228 27.3545 70.6143C27.378 70.6553 27.4027 70.6868 27.4209 70.707L27.8965 71.2354L28.2295 70.6133L28.2471 70.5869L28.2627 70.5459C28.5447 69.8163 29.2659 68.4966 30.0391 67.582L30.1934 67.4053L30.1953 67.4033Z" stroke="white"/>
</g>
<g opacity="0.3">
<path d="M230.939 21.3135L231.151 21.3525C231.578 21.4586 231.839 21.6393 232.019 21.8701C232.206 22.1121 232.337 22.4511 232.421 22.9268C232.505 23.4033 232.536 23.9746 232.555 24.6553C232.569 25.1569 232.576 25.7187 232.597 26.3203L232.622 26.9346C232.703 28.5571 232.745 30.7131 232.791 33.0283C232.837 35.3393 232.888 37.8056 232.987 40.0342C233.086 42.2564 233.234 44.2683 233.48 45.6631C233.602 46.3492 233.755 46.9416 233.968 47.3369C234.072 47.531 234.226 47.7449 234.46 47.8652C234.701 47.9891 234.953 47.9783 235.174 47.8799L235.267 47.832C235.515 47.6875 235.675 47.4377 235.785 47.2051C235.901 46.9601 235.994 46.6595 236.073 46.3252C236.231 45.6547 236.348 44.7743 236.436 43.7627C236.612 41.736 236.684 39.1035 236.744 36.4004C236.804 33.6891 236.851 30.9032 236.976 28.5459C237.038 27.3678 237.119 26.3046 237.229 25.417C237.327 24.6328 237.445 24.0111 237.582 23.5742L237.642 23.3984C237.87 22.7865 238.504 22.5345 239.145 22.7725C239.762 23.0023 240.444 23.7462 240.426 25.2656C240.425 25.3492 240.324 36.6481 240.324 36.7305L240.336 38.502C240.389 42.4694 240.62 45.2829 240.977 47.0986C241.178 48.1237 241.43 48.8936 241.754 49.3701C241.918 49.6117 242.134 49.827 242.418 49.9258C242.722 50.0316 243.021 49.9749 243.273 49.833C243.512 49.6989 243.719 49.4857 243.899 49.2432C244.083 48.9962 244.261 48.6907 244.433 48.3389C244.776 47.6351 245.116 46.7045 245.443 45.5889C246.017 43.6339 246.566 41.069 247.03 38.0693L247.225 36.7578C247.332 35.9956 247.487 35.3623 247.757 34.9385C247.886 34.7357 248.032 34.5943 248.202 34.5059C248.329 34.44 248.486 34.3934 248.688 34.3838L248.904 34.3877C249.24 34.412 249.484 34.5597 249.681 34.8477C249.893 35.1587 250.051 35.641 250.138 36.3096C250.31 37.6445 250.173 39.5239 249.859 41.71C249.547 43.8855 249.066 46.3184 248.576 48.7451C248.148 50.8631 247.713 52.9782 247.38 54.8945L247.243 55.7031C246.647 59.3707 245.601 62.7262 244.749 66.4922C243.956 69.997 243.357 73.7734 243.526 78.2607L243.57 79.168L243.571 79.1748C245.391 103.679 248.896 126.078 251.552 150.478H229.038C229.468 144.643 230.88 129.766 231.168 115.35C231.316 107.909 231.165 100.569 230.42 94.6406C230.047 91.6774 229.525 89.049 228.809 86.9307C228.141 84.9567 227.288 83.3678 226.181 82.3799L225.956 82.1904C224.533 81.0597 222.982 78.8601 221.393 76.0547C219.813 73.2657 218.228 69.9395 216.724 66.6133C215.972 64.9511 215.241 63.2914 214.542 61.7012C213.843 60.112 213.176 58.5905 212.551 57.209C211.387 54.638 210.349 52.4975 209.519 51.2969L209.355 51.0693C209.087 50.711 209.041 50.4501 209.062 50.2803C209.082 50.1105 209.18 49.9422 209.375 49.7891C209.737 49.5053 210.332 49.3606 210.85 49.4258L211.066 49.4668C212.443 49.8233 213.844 51.1503 215.213 52.9756C216.564 54.7782 217.805 56.9556 218.896 58.8613C219.439 59.8081 219.947 60.6914 220.408 61.4141C220.861 62.1241 221.3 62.731 221.711 63.0859C221.914 63.2613 222.169 63.4271 222.464 63.4609C222.804 63.4999 223.093 63.3536 223.299 63.1094C223.485 62.8887 223.61 62.5845 223.703 62.2422C223.774 61.9789 223.833 61.6668 223.881 61.3047L223.925 60.9248C224.112 59.0943 223.869 56.6809 223.424 53.9824C222.977 51.275 222.319 48.2332 221.654 45.1357C220.36 39.1032 219.052 32.8854 219.15 28.3105L219.164 27.873C219.206 26.8975 219.832 26.3725 220.513 26.2861C221.191 26.2001 221.97 26.5469 222.328 27.4893C222.329 27.4912 222.33 27.493 222.33 27.4951C222.336 27.5255 222.346 27.5706 222.357 27.6299C222.382 27.7525 222.414 27.9162 222.459 28.1406C222.547 28.5805 222.675 29.21 222.833 29.9775C223.15 31.5128 223.591 33.601 224.1 35.8281C225.047 39.9795 226.239 44.6853 227.287 47.1602L227.495 47.624C227.688 48.0298 227.864 48.3608 228.024 48.6152C228.177 48.8567 228.346 49.0783 228.537 49.2139C228.637 49.2848 228.781 49.3581 228.957 49.3643C229.15 49.3708 229.314 49.295 229.434 49.1855C229.632 49.004 229.714 48.7277 229.759 48.5215C229.858 48.0627 229.886 47.3611 229.876 46.5068C229.866 45.6391 229.815 44.5675 229.74 43.3438C229.46 38.7417 228.843 31.931 228.739 25.2715L228.726 23.9424C228.721 22.9139 229.074 22.1975 229.533 21.7793C229.937 21.4122 230.442 21.2536 230.939 21.3135Z" stroke="white"/>
<path d="M228.63 58.4688C229.33 58.2109 229.992 58.3368 230.581 58.6846C231.106 58.9947 231.561 59.4767 231.886 59.9873L232.017 60.208C232.418 60.9305 232.629 61.7118 232.772 62.3711C232.839 62.6762 232.903 63.0156 232.954 63.2383C232.982 63.3577 233.013 63.478 233.051 63.583C233.084 63.673 233.146 63.8217 233.268 63.9375L233.494 64.1543L233.788 64.043C233.933 63.9884 234.022 63.889 234.066 63.8301C234.115 63.7667 234.15 63.6995 234.176 63.6455C234.227 63.5385 234.276 63.4034 234.322 63.2734C234.421 62.9986 234.541 62.6501 234.731 62.2461C235.085 61.4956 235.681 60.5502 236.793 59.665L237.022 59.4893C238.373 58.4881 239.78 58.2897 240.581 58.7422C240.962 58.9573 241.267 59.3473 241.384 59.999C241.489 60.5826 241.441 61.3766 241.141 62.4111L240.996 62.8691C239.752 66.5387 238.237 68.181 235.18 71.9473L233.771 73.7041C233.651 73.8551 233.59 73.9137 233.558 73.9404C233.536 73.9584 233.523 73.9654 233.469 73.9932C233.457 73.9912 233.437 73.9889 233.408 73.9785C233.31 73.9435 233.166 73.8621 232.976 73.7139C232.598 73.4196 232.13 72.9308 231.616 72.2832C230.592 70.9934 229.446 69.1522 228.542 67.21C227.634 65.2593 226.995 63.2557 226.938 61.6328C226.91 60.8248 227.028 60.145 227.298 59.6182C227.528 59.1684 227.88 58.808 228.397 58.5654L228.63 58.4688Z" stroke="white"/>
</g>
<path d="M213.987 20.3018C214.735 20.2135 215.407 20.4731 215.854 20.9932C216.274 21.4809 216.533 22.2457 216.406 23.2754L216.376 23.4854C213.727 39.2232 212.72 47.5841 212.731 51.2197C212.734 52.1195 212.799 52.7923 212.946 53.2236C213.018 53.4316 213.139 53.6788 213.374 53.8232C213.657 53.9971 213.953 53.9383 214.165 53.8223C214.358 53.7164 214.525 53.5449 214.668 53.3672C214.816 53.1819 214.968 52.9524 215.12 52.6914C215.425 52.1689 215.758 51.4812 216.107 50.6797C217.505 47.4773 219.264 42.2478 220.736 37.7188C221.105 36.5844 221.457 35.4917 221.78 34.4844C222.104 33.4769 222.401 32.5553 222.659 31.7598C222.918 30.9636 223.137 30.2965 223.31 29.7998C223.445 29.4097 223.541 29.154 223.598 29.0195L223.642 28.9248C224.026 28.2413 224.485 27.8911 224.915 27.7451C225.347 27.5986 225.801 27.6409 226.213 27.833C226.998 28.1994 227.577 29.0846 227.453 30.0986L227.419 30.3037C227.32 30.7663 226.536 33.6674 225.561 37.457C224.589 41.2283 223.436 45.8486 222.61 49.7021C222.198 51.6276 221.865 53.3708 221.678 54.7246C221.584 55.4003 221.526 55.9905 221.514 56.4629C221.508 56.6989 221.514 56.9155 221.534 57.1035C221.554 57.2839 221.591 57.4748 221.671 57.6377C221.753 57.8048 221.923 58.0188 222.223 58.0586C222.488 58.0936 222.707 57.9684 222.842 57.8662C223.12 57.6562 223.419 57.2608 223.745 56.7373C224.333 55.7955 225.122 54.2469 226.155 51.9717L226.613 50.9512C228.419 47.3179 229.375 43.9389 230.239 41.7559C230.686 40.629 231.092 39.8588 231.542 39.4297C231.756 39.2255 231.968 39.1105 232.191 39.0645C232.36 39.0296 232.559 39.0292 232.798 39.082L233.052 39.1533C233.437 39.2835 233.699 39.4365 233.878 39.6152C234.05 39.7875 234.173 40.0113 234.236 40.3359C234.371 41.0267 234.229 42.1108 233.733 43.8789C232.872 46.9536 231.05 51.7743 228.358 59.5234L227.151 63.0273C218.716 87.745 216.239 107.328 216.027 122.358C215.821 137.04 217.777 147.404 218.431 153.85C218.021 153.86 217.303 153.866 216.061 153.869C212.605 153.877 205.174 153.862 189.291 153.861C191.214 147.282 194.401 134.908 196.551 122.582C197.661 116.213 198.498 109.846 198.738 104.293C198.97 98.932 198.65 94.2625 197.438 91.082L197.318 90.7793C197.196 90.4816 196.914 90.0471 196.558 89.542C196.19 89.0214 195.708 88.3779 195.153 87.6445C194.04 86.1736 192.62 84.3286 191.171 82.3193C189.722 80.3101 188.251 78.1461 187.04 76.0479C185.901 74.075 185.007 72.1854 184.566 70.5508L184.484 70.2275C182.855 63.341 181.198 56.8882 178.066 50.6895L177.758 50.0898C177.458 49.5164 177.457 49.1063 177.559 48.835C177.66 48.5628 177.904 48.3273 178.306 48.1807C179.074 47.9003 180.293 48.0067 181.436 48.7227L181.663 48.874C183.248 49.9935 184.667 52.2744 185.954 54.9609C187.234 57.6326 188.331 60.5841 189.33 62.999C189.826 64.196 190.3 65.2664 190.758 66.0811C190.987 66.4884 191.218 66.847 191.457 67.1299C191.69 67.4064 191.962 67.65 192.277 67.7715C192.625 67.9051 192.987 67.8746 193.316 67.668C193.616 67.4796 193.859 67.1646 194.066 66.7822C194.482 66.0145 194.864 64.771 195.234 62.9873L195.236 62.9746L195.238 62.9629C196.679 53.7548 196.95 48.6235 197.166 43.7109C197.381 38.8187 197.54 34.1531 198.75 25.8516C199 24.7671 199.807 24.2242 200.588 24.1787C201.316 24.1365 202.044 24.5208 202.334 25.4033L202.387 25.5859C202.385 25.5782 202.393 25.628 202.399 25.7852C202.406 25.9243 202.41 26.113 202.412 26.3486C202.417 26.8196 202.415 27.4623 202.41 28.2393C202.4 29.7898 202.376 31.8713 202.367 34.1465C202.35 38.6927 202.394 44.0612 202.736 47.6426C202.822 48.5391 202.927 49.3341 203.057 49.9814C203.183 50.6122 203.344 51.1609 203.567 51.5215C203.679 51.7011 203.845 51.8996 204.093 51.9941C204.374 52.1012 204.647 52.0355 204.862 51.8965C205.06 51.7688 205.227 51.5714 205.372 51.3516C205.522 51.1253 205.671 50.8396 205.822 50.498C206.423 49.1423 207.143 46.6983 208.015 42.8789C208.779 39.5273 209.665 35.0922 210.693 29.3594L211.144 26.8223C211.603 24.198 211.986 22.58 212.445 21.5957C212.671 21.1127 212.9 20.8166 213.136 20.6299C213.308 20.4935 213.502 20.4011 213.737 20.3457L213.987 20.3018Z" stroke="white" stroke-opacity="0.3"/>
<path d="M204.1 62.3818C204.905 62.2074 205.608 62.447 206.195 62.915C206.718 63.3317 207.137 63.9225 207.411 64.5244L207.521 64.7822C207.845 65.6234 207.953 66.4984 208.008 67.2285C208.033 67.5685 208.05 67.9385 208.072 68.1855C208.084 68.3175 208.099 68.4493 208.124 68.5654C208.145 68.6658 208.187 68.8273 208.294 68.9619L208.489 69.207L208.795 69.1387C208.948 69.1044 209.051 69.0168 209.105 68.9629C209.164 68.9051 209.21 68.8411 209.245 68.7881C209.315 68.683 209.386 68.5469 209.456 68.4141C209.603 68.1343 209.786 67.777 210.053 67.3701C210.548 66.6138 211.334 65.6847 212.667 64.8984L212.94 64.7432C214.546 63.8688 216.105 63.8606 216.916 64.4814C217.303 64.7781 217.577 65.2538 217.604 65.9814C217.629 66.6317 217.456 67.4829 216.977 68.5518L216.752 69.0234C214.726 73.0491 212.714 74.5292 208.28 78.7002L207.36 79.5723C207.208 79.7175 207.132 79.7738 207.089 79.7998C207.057 79.8193 207.038 79.8261 206.965 79.8516C206.952 79.8487 206.925 79.8421 206.882 79.8193C206.777 79.7641 206.629 79.6522 206.446 79.4629C206.083 79.087 205.652 78.4884 205.197 77.7148C204.291 76.1736 203.337 74.0218 202.659 71.7988C201.978 69.5672 201.592 67.3155 201.776 65.5576C201.868 64.6821 202.099 63.963 202.473 63.4307C202.793 62.9752 203.232 62.6363 203.832 62.4512L204.1 62.3818Z" stroke="white" stroke-opacity="0.3"/>
<path d="M135.399 11.7373L135.635 11.7803C136.105 11.8971 136.397 12.0979 136.598 12.3564C136.807 12.6262 136.95 13.0016 137.041 13.5205C137.133 14.04 137.166 14.6611 137.187 15.3984C137.202 15.9427 137.209 16.5509 137.231 17.2021L137.26 17.8672C137.348 19.6259 137.393 21.9626 137.443 24.4707C137.493 26.9745 137.548 29.6457 137.655 32.0596C137.763 34.4673 137.923 36.645 138.189 38.1533C138.321 38.8962 138.486 39.5321 138.713 39.9541C138.824 40.1614 138.985 40.3851 139.228 40.5098C139.476 40.6375 139.737 40.6258 139.966 40.5234L140.062 40.4746C140.321 40.3244 140.49 40.0628 140.607 39.8135C140.731 39.5517 140.832 39.2291 140.917 38.8682C141.088 38.1447 141.212 37.1929 141.308 36.0977C141.499 33.9034 141.578 31.0528 141.643 28.124C141.708 25.1871 141.759 22.1681 141.894 19.6133C141.961 18.3364 142.048 17.1828 142.168 16.2197C142.274 15.3692 142.401 14.6922 142.552 14.2148L142.618 14.0225C142.875 13.3347 143.588 13.0563 144.3 13.3213C144.946 13.5618 145.642 14.3012 145.71 15.7607L145.715 16.0625C145.714 16.1812 145.605 28.3935 145.605 28.4824L145.618 30.4014C145.676 34.699 145.926 37.7443 146.312 39.708C146.529 40.8176 146.801 41.6444 147.146 42.1533C147.322 42.4111 147.549 42.6362 147.845 42.7393C148.161 42.8494 148.473 42.7917 148.738 42.6426C148.99 42.5013 149.209 42.2751 149.403 42.0146C149.601 41.7498 149.791 41.4208 149.977 41.041C150.347 40.2814 150.715 39.2759 151.069 38.0684C151.691 35.9527 152.285 33.1761 152.788 29.9277L152.998 28.5068C153.114 27.6804 153.283 26.9859 153.58 26.5186C153.723 26.294 153.887 26.135 154.079 26.0352C154.222 25.9608 154.398 25.9091 154.622 25.8984L154.862 25.9023C155.24 25.9297 155.516 26.0981 155.735 26.4199C155.97 26.7647 156.143 27.2945 156.237 28.0215C156.425 29.4738 156.275 31.5151 155.935 33.8838C155.596 36.2421 155.076 38.8789 154.545 41.5078C154.081 43.8028 153.609 46.0936 153.248 48.1689L153.101 49.0449C152.454 53.0197 151.32 56.6607 150.398 60.7363C149.54 64.5317 148.891 68.6201 149.074 73.4775L149.122 74.459L149.123 74.4658C151.095 101.03 154.895 125.307 157.773 151.764H133.29C133.752 145.473 135.288 129.316 135.601 113.661C135.761 105.601 135.598 97.6504 134.791 91.2305C134.388 88.0213 133.821 85.1772 133.047 82.8857C132.325 80.7494 131.403 79.0359 130.212 77.9727L129.97 77.7686C128.421 76.5379 126.737 74.1483 125.015 71.1084C123.302 68.085 121.585 64.48 119.955 60.876C119.141 59.0749 118.349 57.2766 117.592 55.5537C116.835 53.8318 116.111 52.1841 115.434 50.6875C114.172 47.9004 113.05 45.5846 112.152 44.2881L111.977 44.043C111.682 43.6488 111.627 43.3557 111.65 43.1582C111.674 42.9607 111.788 42.7696 112.006 42.5986C112.436 42.2611 113.159 42.1014 113.757 42.2148L113.874 42.2412C115.38 42.6314 116.907 44.0804 118.39 46.0586C119.856 48.014 121.201 50.3753 122.384 52.4395C122.972 53.4656 123.522 54.422 124.021 55.2041C124.511 55.9734 124.983 56.6257 125.424 57.0059C125.642 57.1938 125.91 57.3671 126.217 57.4023C126.569 57.4428 126.869 57.2919 127.085 57.0361C127.281 56.8039 127.415 56.4817 127.515 56.1133C127.591 55.8301 127.655 55.493 127.706 55.1016L127.754 54.6924C127.956 52.7149 127.693 50.1041 127.211 47.1807C126.727 44.2485 126.014 40.954 125.294 37.5977C123.892 31.0639 122.473 24.3223 122.58 19.3594L122.596 18.8848C122.642 17.8067 123.337 17.222 124.094 17.126C124.848 17.0305 125.711 17.4173 126.105 18.458C126.106 18.4613 126.108 18.4648 126.108 18.4688C126.115 18.5018 126.125 18.551 126.138 18.6152C126.164 18.7477 126.199 18.9254 126.248 19.168C126.344 19.6445 126.482 20.3265 126.653 21.1582C126.996 22.8214 127.475 25.0835 128.025 27.4961C129.052 31.9952 130.343 37.089 131.477 39.7656L131.701 40.2676C131.909 40.7065 132.099 41.0632 132.272 41.3369C132.437 41.5976 132.616 41.8317 132.816 41.9736C132.921 42.0477 133.068 42.1226 133.248 42.1289C133.445 42.1358 133.612 42.0586 133.735 41.9463C133.94 41.7593 134.027 41.4718 134.075 41.249C134.182 40.7571 134.212 40.0017 134.201 39.0762C134.19 38.1371 134.135 36.9772 134.054 35.6514C133.75 30.667 133.082 23.2854 132.97 16.0684L132.955 14.6279C132.95 13.5037 133.336 12.7152 133.844 12.2529C134.289 11.8475 134.849 11.6712 135.399 11.7373Z" stroke="white" stroke-opacity="0.3"/>
<path d="M133.01 51.9951C133.783 51.7107 134.512 51.8496 135.159 52.2314C135.735 52.5715 136.232 53.0991 136.587 53.6572L136.73 53.8975C137.169 54.6855 137.397 55.5374 137.553 56.2529C137.625 56.5862 137.693 56.9498 137.749 57.1914C137.779 57.3203 137.813 57.4482 137.854 57.5596C137.889 57.6559 137.952 57.8102 138.077 57.9287L138.305 58.1445L138.598 58.0342C138.744 57.9791 138.833 57.8783 138.88 57.8174C138.93 57.7519 138.968 57.6815 138.995 57.624C139.049 57.5102 139.102 57.3658 139.152 57.2246C139.259 56.9273 139.39 56.5481 139.597 56.1084C139.982 55.2906 140.632 54.2607 141.843 53.2969L142.092 53.1055C143.561 52.0165 145.104 51.7918 145.993 52.2939C146.418 52.5338 146.754 52.9672 146.883 53.6836C146.998 54.324 146.945 55.1914 146.619 56.3164L146.462 56.8154C145.015 61.0834 143.227 62.8285 139.416 67.5752L138.626 68.5654C138.495 68.7306 138.427 68.7974 138.389 68.8291C138.36 68.8528 138.342 68.8617 138.272 68.8975C138.259 68.8962 138.232 68.8931 138.187 68.877C138.075 68.8369 137.915 68.7458 137.707 68.584C137.295 68.2623 136.785 67.7293 136.227 67.0264C135.115 65.626 133.871 63.6286 132.891 61.5215C131.907 59.4062 131.212 57.2303 131.15 55.4639C131.12 54.5839 131.247 53.839 131.544 53.2598C131.798 52.7643 132.185 52.3672 132.754 52.1006L133.01 51.9951Z" stroke="white" stroke-opacity="0.3"/>
<path d="M63.5254 21.2607L63.665 21.2725C64.0191 21.3143 64.2873 21.4187 64.5166 21.6006C64.7521 21.7873 64.9816 22.0834 65.207 22.5664C65.6089 23.4277 65.9523 24.7743 66.3398 26.8555L66.5088 27.793C67.7305 34.7736 68.7638 40.0192 69.6377 43.8496C70.5091 47.669 71.2291 50.113 71.8301 51.4688C71.9815 51.8103 72.1308 52.096 72.2803 52.3223C72.4254 52.542 72.5924 52.7385 72.79 52.8662C73.0055 53.0053 73.2787 53.0711 73.5596 52.9639C73.8072 52.8693 73.9736 52.6718 74.085 52.4922C74.3083 52.1316 74.4692 51.5829 74.5957 50.9521C74.7256 50.3046 74.8304 49.5091 74.916 48.6123C75.2578 45.0309 75.3031 39.6632 75.2861 35.1172C75.2776 32.842 75.2528 30.7605 75.2422 29.21C75.2369 28.433 75.2353 27.7903 75.2402 27.3193C75.2427 27.0837 75.2468 26.895 75.2529 26.7559L75.2656 26.5566C75.5101 25.5443 76.288 25.1044 77.0645 25.1494C77.8454 25.1949 78.6516 25.7379 78.9014 26.8223C80.1111 35.1242 80.2715 39.7901 80.4863 44.6826C80.702 49.595 80.9735 54.7257 82.4141 63.9336L82.416 63.9453L82.4189 63.958C82.7893 65.7418 83.1711 66.9853 83.5869 67.7529C83.794 68.1352 84.0359 68.4513 84.3359 68.6396C84.665 68.8461 85.0278 68.8757 85.375 68.7422C85.6907 68.6207 85.962 68.3771 86.1953 68.1006C86.4339 67.8177 86.6668 67.4591 86.8955 67.0518C87.3529 66.2371 87.8269 65.1665 88.3223 63.9697C89.3218 61.5548 90.4183 58.6032 91.6982 55.9316C92.9049 53.413 94.2279 51.2512 95.6943 50.0684L95.9893 49.8447C97.1947 48.9932 98.5273 48.8524 99.3467 49.1514C99.7483 49.298 99.992 49.5335 100.094 49.8057C100.182 50.0431 100.193 50.3869 99.9932 50.8535L99.8945 51.0605C96.9784 56.6447 95.304 62.4318 93.8037 68.5537L93.168 71.1982C92.7641 72.9048 91.8272 74.9143 90.6123 77.0186C89.401 79.1166 87.9302 81.2799 86.4814 83.2891C85.0325 85.2984 83.6124 87.1443 82.499 88.6152C81.9438 89.3487 81.4622 89.9921 81.0947 90.5127C80.8273 90.8916 80.6018 91.2306 80.4541 91.502L80.334 91.75C79.0242 94.9331 78.6759 99.73 78.915 105.264C79.155 110.817 79.9909 117.184 81.1016 123.553C83.2511 135.878 86.4377 148.253 88.3604 154.832C72.4777 154.832 65.0473 154.848 61.5918 154.84C60.3485 154.837 59.6304 154.829 59.2207 154.819C59.874 148.374 61.8317 138.01 61.625 123.329C61.42 108.768 59.0888 89.9357 51.2744 66.3008L50.501 63.998C47.1429 54.1579 44.9032 48.3636 43.9189 44.8496C43.4238 43.0816 43.2812 41.9974 43.416 41.3066C43.4794 40.9821 43.602 40.7582 43.7744 40.5859C43.9087 40.4518 44.0903 40.3328 44.335 40.2266L44.6016 40.124C44.9582 40.0036 45.2357 39.9887 45.4609 40.0352C45.6842 40.0813 45.897 40.1961 46.1113 40.4004C46.5615 40.8297 46.9678 41.5998 47.4141 42.7266C48.2787 44.9095 49.2326 48.2887 51.0381 51.9219H51.0391C52.2999 54.7625 53.2358 56.6316 53.9072 57.708C54.2338 58.2316 54.5335 58.6269 54.8115 58.8369C54.9468 58.939 55.1654 59.0644 55.4307 59.0293C55.7305 58.9894 55.8996 58.7754 55.9814 58.6084C56.0612 58.4455 56.0983 58.2546 56.1182 58.0742C56.1388 57.8862 56.1448 57.6696 56.1387 57.4336C56.1264 56.9612 56.0679 56.371 55.9746 55.6953C55.7877 54.3415 55.4546 52.5983 55.042 50.6729C54.2163 46.8193 53.0629 42.199 52.0918 38.4277C51.3598 35.5851 50.7366 33.2423 50.4287 32.0537L50.2334 31.2744C49.9979 30.1759 50.6031 29.1945 51.4404 28.8037C51.8519 28.6118 52.3055 28.5694 52.7373 28.7158C53.1136 28.8436 53.5119 29.1279 53.8633 29.6553L54.0107 29.8955C54.0521 29.9689 54.1625 30.2503 54.3428 30.7705C54.5149 31.2672 54.7345 31.9343 54.9932 32.7305C55.2516 33.526 55.5483 34.4476 55.8721 35.4551C56.1958 36.4624 56.5472 37.5551 56.916 38.6895C58.3884 43.2185 60.1474 48.448 61.5449 51.6504C61.8947 52.4519 62.2272 53.1396 62.5322 53.6621C62.6846 53.9232 62.8359 54.1526 62.9844 54.3379C63.1269 54.5156 63.2942 54.6871 63.4873 54.793C63.699 54.909 63.9952 54.9679 64.2783 54.7939C64.5133 54.6495 64.6348 54.4023 64.7061 54.1943C64.8538 53.763 64.9181 53.0902 64.9209 52.1904C64.9316 48.782 64.0469 41.2206 61.7539 27.3213L61.2764 24.4561C61.0851 23.32 61.3507 22.4841 61.7979 21.9639C62.2169 21.4764 62.8342 21.2186 63.5254 21.2607Z" stroke="white" stroke-opacity="0.3"/>
<path d="M70.4707 65.0283C71.6648 63.7005 72.8274 63.4647 73.6377 63.8857C74.4415 64.3037 75.1811 65.4925 75.333 67.6973L75.3555 68.1514C75.4467 71.8724 73.8778 76.0645 72.0352 79.501L71.6631 80.1777L71.6621 80.1787C71.5435 80.3911 71.4198 80.6051 71.2939 80.8213C71.143 80.7237 70.9546 80.6029 70.7383 80.4561C70.2786 80.144 69.6863 79.7249 69.0234 79.2158L68.3389 78.6768C66.7162 77.3608 65.4628 76.1202 64.5322 75.0205L64.1533 74.5586L64.1504 74.5547L63.9082 74.2471C62.7979 72.798 61.9728 71.178 61.8252 69.46L61.8037 69.0898V69.0859L61.7998 68.8174C61.814 67.495 62.2984 66.5075 62.9492 66.0381C63.2897 65.7926 63.6897 65.6747 64.1387 65.7188C64.5933 65.7634 65.1298 65.977 65.7188 66.4502V66.4512C66.3842 66.9862 66.9888 67.7632 67.459 68.5146C67.4822 68.5553 67.5093 68.59 67.5361 68.6182L68.0029 69.1084L68.334 68.5176V68.5195L68.335 68.5166L68.3545 68.4824L68.3691 68.4463C68.676 67.6521 69.4595 66.2177 70.3008 65.2227L70.4697 65.0303L70.4707 65.0283Z" stroke="white" stroke-opacity="0.3"/>
</svg>
