<svg width="493" height="115" viewBox="0 0 493 115" fill="none" xmlns="http://www.w3.org/2000/svg">
<g opacity="0.3">
<path d="M404.626 20.7217C405.434 20.6264 406.164 20.9066 406.648 21.4707C407.103 21.9997 407.381 22.8259 407.245 23.9326L407.212 24.1582C404.385 40.9561 403.311 49.8767 403.323 53.7539C403.326 54.7141 403.394 55.4281 403.55 55.8828C403.625 56.1025 403.752 56.357 403.993 56.5049C404.282 56.6821 404.585 56.6229 404.804 56.5029C405.004 56.3931 405.179 56.2138 405.33 56.0254C405.487 55.8295 405.647 55.5863 405.81 55.3086C406.134 54.7526 406.488 54.0199 406.861 53.165C408.352 49.7487 410.23 44.1684 411.802 39.334C412.195 38.1233 412.57 36.957 412.915 35.8818C413.261 34.8065 413.578 33.8228 413.854 32.9736C414.13 32.124 414.364 31.4122 414.548 30.8818C414.692 30.466 414.795 30.1907 414.856 30.0449L414.905 29.9424C415.319 29.2069 415.814 28.8259 416.282 28.667C416.752 28.5075 417.246 28.5535 417.692 28.7617C418.542 29.1585 419.171 30.1177 419.036 31.2158L418.999 31.4365C418.893 31.9308 418.056 35.0295 417.015 39.0732C415.978 43.0984 414.747 48.0293 413.866 52.1416C413.426 54.1964 413.071 56.0562 412.872 57.5C412.773 58.2209 412.71 58.8501 412.697 59.3525C412.691 59.6035 412.696 59.8326 412.718 60.0312C412.739 60.2223 412.779 60.4211 412.861 60.5898C412.946 60.7628 413.119 60.9801 413.424 61.0205C413.694 61.0562 413.918 60.9285 414.06 60.8213C414.351 60.6012 414.667 60.1846 415.016 59.626C415.642 58.6225 416.484 56.9712 417.587 54.543L418.075 53.4541C420.002 49.5771 421.02 45.9764 421.944 43.6416C422.421 42.4388 422.856 41.6103 423.343 41.1465C423.575 40.925 423.807 40.7988 424.053 40.748C424.269 40.7033 424.528 40.711 424.848 40.8008L424.988 40.8438C425.403 40.9837 425.688 41.149 425.884 41.3447C426.073 41.534 426.207 41.7796 426.275 42.1318C426.421 42.8778 426.267 44.0413 425.738 45.9277C424.819 49.2104 422.873 54.3585 420 62.6289L418.712 66.3691C409.71 92.7479 407.067 113.645 406.841 129.685C406.62 145.38 408.715 156.448 409.409 163.328C408.977 163.339 408.205 163.346 406.843 163.35C403.151 163.358 395.209 163.342 378.226 163.342C380.276 156.331 383.688 143.098 385.986 129.917C387.172 123.12 388.063 116.326 388.319 110.4C388.567 104.679 388.226 99.7012 386.936 96.3135L386.808 95.9912C386.679 95.6777 386.38 95.2172 385.999 94.6777C385.607 94.1226 385.093 93.4361 384.501 92.6533C383.313 91.0836 381.797 89.1129 380.25 86.9678C378.703 84.8229 377.133 82.5133 375.839 80.2725C374.623 78.1658 373.666 76.1456 373.195 74.3965L373.107 74.0498C371.368 66.6991 369.6 59.8155 366.259 53.2031L365.931 52.5645C365.608 51.9465 365.603 51.4984 365.716 51.1973C365.829 50.8954 366.098 50.6385 366.533 50.4795C367.365 50.1759 368.677 50.2917 369.904 51.0605L370.148 51.2236C371.848 52.4241 373.366 54.866 374.739 57.7334C376.106 60.586 377.277 63.7386 378.343 66.3145C378.871 67.5918 379.377 68.733 379.864 69.6006C380.108 70.0345 380.356 70.4152 380.608 70.7148C380.856 71.0081 381.141 71.263 381.47 71.3896C381.831 71.5285 382.207 71.497 382.549 71.2822C382.862 71.0857 383.117 70.7553 383.337 70.3496C383.778 69.5348 384.185 68.2112 384.58 66.3076L384.583 66.2959L384.585 66.2832C386.122 56.4567 386.411 50.9818 386.642 45.7393C386.871 40.5165 387.041 35.5345 388.333 26.6699C388.603 25.4977 389.478 24.9087 390.326 24.8594C391.117 24.8135 391.909 25.2318 392.224 26.1885L392.28 26.3867C392.279 26.3836 392.288 26.4405 392.295 26.6055C392.301 26.7546 392.306 26.9563 392.309 27.208C392.314 27.711 392.312 28.3974 392.307 29.2266C392.295 30.8817 392.269 33.1028 392.26 35.5312C392.242 40.3838 392.29 46.1118 392.654 49.9326C392.746 50.8892 392.858 51.7372 392.996 52.4268C393.131 53.0993 393.301 53.6793 393.536 54.0586C393.653 54.2477 393.826 54.4516 394.081 54.5488C394.369 54.6586 394.649 54.5923 394.872 54.4482C395.078 54.3156 395.252 54.109 395.406 53.876C395.564 53.6367 395.723 53.3341 395.884 52.9707C396.524 51.5269 397.292 48.9213 398.222 44.8447C399.038 41.268 399.984 36.5348 401.081 30.416L401.561 27.709C402.051 24.9086 402.462 23.1774 402.954 22.1221C403.196 21.6036 403.443 21.2818 403.699 21.0781C403.919 20.9042 404.17 20.7958 404.486 20.7412L404.626 20.7217Z" stroke="white"/>
<path d="M393.928 65.6328C394.799 65.4442 395.559 65.7045 396.192 66.209C396.836 66.7215 397.331 67.4777 397.616 68.2158V68.2168C397.964 69.1192 398.08 70.0566 398.139 70.8369C398.166 71.2022 398.184 71.5942 398.207 71.8584C398.219 71.9988 398.236 72.1379 398.262 72.2598C398.284 72.3659 398.328 72.5317 398.438 72.6689L398.633 72.9141L398.938 72.8447C399.092 72.8101 399.197 72.7224 399.253 72.667C399.313 72.6075 399.362 72.5411 399.398 72.4854C399.472 72.3747 399.547 72.2311 399.622 72.0889C399.779 71.7905 399.974 71.4075 400.26 70.9717C400.791 70.1611 401.633 69.1655 403.061 68.3232L403.354 68.1572C405.073 67.2212 406.753 67.2064 407.634 67.8809C408.056 68.2043 408.352 68.7216 408.382 69.5068C408.409 70.2076 408.222 71.1216 407.709 72.2656L407.469 72.7705C405.303 77.0736 403.149 78.6581 398.419 83.1084L397.438 84.0381C397.274 84.1938 397.191 84.2565 397.143 84.2861C397.103 84.3099 397.08 84.3172 396.992 84.3477C396.978 84.3453 396.945 84.3372 396.889 84.3076C396.772 84.2463 396.612 84.1242 396.415 83.9209C396.024 83.517 395.563 82.8755 395.077 82.0488C394.108 80.4013 393.089 78.1025 392.364 75.7275C391.637 73.344 391.223 70.9355 391.421 69.0527C391.519 68.1147 391.767 67.341 392.171 66.7666C392.517 66.2744 392.991 65.9077 393.639 65.708L393.928 65.6328Z" stroke="white"/>
</g>
<g opacity="0.45">
<path d="M323.212 1.07422C323.729 0.6035 324.389 0.41676 325.027 0.53418L325.154 0.561523C325.662 0.687752 325.981 0.905762 326.2 1.18848C326.428 1.48246 326.583 1.88871 326.681 2.44531C326.779 3.00258 326.815 3.6679 326.837 4.45508C326.853 5.03665 326.861 5.68523 326.885 6.37988L326.914 7.08984C327.008 8.96764 327.057 11.4618 327.11 14.1387C327.164 16.8113 327.222 19.6623 327.337 22.2383C327.451 24.8079 327.622 27.1299 327.906 28.7373C328.046 29.5298 328.222 30.2041 328.461 30.6494C328.579 30.8685 328.747 31.1001 328.997 31.2285C329.252 31.3595 329.519 31.348 329.756 31.2422L329.855 31.1914C330.123 31.0362 330.299 30.7649 330.424 30.501C330.554 30.2245 330.66 29.8821 330.751 29.498C330.933 28.7284 331.066 27.7152 331.168 26.5469C331.372 24.206 331.455 21.1636 331.524 18.0371C331.594 14.9026 331.648 11.6797 331.792 8.95215C331.864 7.5889 331.958 6.3572 332.086 5.32812C332.199 4.42021 332.336 3.69522 332.497 3.18262L332.568 2.97559C332.85 2.22152 333.632 1.91897 334.406 2.20703C335.111 2.46936 335.86 3.27232 335.934 4.84082L335.938 5.16504C335.937 5.26896 335.822 18.3264 335.822 18.4209L335.835 20.4688C335.896 25.0546 336.165 28.3025 336.575 30.3955C336.807 31.579 337.096 32.4559 337.461 32.9932C337.646 33.2651 337.883 33.4987 338.189 33.6055C338.517 33.7192 338.839 33.6602 339.115 33.5049C339.378 33.3573 339.609 33.1198 339.814 32.8438C340.023 32.5632 340.227 32.2147 340.424 31.8105C340.818 31.0021 341.21 29.9306 341.588 28.6426C342.25 26.3862 342.884 23.4242 343.421 19.958L343.646 18.4424C343.77 17.5596 343.95 16.8111 344.271 16.3057C344.426 16.0622 344.607 15.8892 344.817 15.7793C345.001 15.6838 345.233 15.6237 345.536 15.6279L345.671 15.6338C346.085 15.6638 346.388 15.8489 346.628 16.2002C346.883 16.5744 347.068 17.1455 347.169 17.9238C347.37 19.4789 347.21 21.6615 346.847 24.1904C346.485 26.7087 345.929 29.5241 345.362 32.3301C344.868 34.7798 344.364 37.2241 343.979 39.4385L343.821 40.373C343.131 44.6167 341.919 48.5079 340.937 52.8545C340.021 56.9037 339.329 61.2638 339.524 66.4443L339.575 67.4912L339.576 67.498C341.682 95.8628 345.74 121.782 348.813 150.037H322.607C323.097 143.347 324.742 126.073 325.076 109.335C325.248 100.732 325.074 92.2484 324.213 85.3984C323.783 81.9743 323.178 78.9409 322.353 76.498C321.583 74.2201 320.601 72.3985 319.336 71.2695L319.079 71.0527C317.421 69.7349 315.621 67.1788 313.782 63.9336C311.953 60.7051 310.12 56.8559 308.38 53.0088C307.511 51.0863 306.666 49.1669 305.857 47.3281C305.049 45.4903 304.276 43.7319 303.554 42.1348C302.207 39.1595 301.011 36.6912 300.056 35.3105L299.867 35.0488C299.549 34.6236 299.487 34.3027 299.514 34.0811C299.54 33.8593 299.667 33.6475 299.905 33.4609C300.373 33.0944 301.154 32.9223 301.801 33.0449L301.929 33.0732C303.549 33.4929 305.183 35.0493 306.767 37.1611C308.333 39.2502 309.77 41.772 311.032 43.9746C311.66 45.0698 312.246 46.09 312.777 46.9238C313.301 47.745 313.804 48.4377 314.27 48.8398C314.5 49.0387 314.78 49.2183 315.098 49.2549C315.461 49.2966 315.771 49.1418 315.995 48.876C316.2 48.6336 316.341 48.2949 316.447 47.9033C316.529 47.603 316.596 47.2455 316.65 46.8291L316.701 46.3926C316.916 44.2867 316.637 41.5037 316.122 38.3838C315.606 35.2551 314.845 31.7398 314.076 28.1572C312.58 21.1849 311.064 13.9848 311.179 8.68262L311.195 8.17578C311.245 7.00823 312 6.37015 312.823 6.26562C313.645 6.16142 314.582 6.58501 315.008 7.71387C315.009 7.71766 315.01 7.72207 315.011 7.72656C315.018 7.76183 315.028 7.81366 315.042 7.88184C315.07 8.02295 315.108 8.21389 315.16 8.47266C315.262 8.98127 315.41 9.70914 315.593 10.5967C315.959 12.3717 316.47 14.7856 317.058 17.3604C318.154 22.1637 319.531 27.5972 320.739 30.4502L320.979 30.9854C321.2 31.453 321.401 31.8326 321.585 32.123C321.76 32.4005 321.949 32.6455 322.157 32.793C322.266 32.8699 322.417 32.9467 322.601 32.9531C322.8 32.9599 322.971 32.8813 323.097 32.7666C323.307 32.5746 323.397 32.2763 323.448 32.0391C323.561 31.5182 323.594 30.7161 323.582 29.7285C323.57 28.7269 323.511 27.4893 323.425 26.0742C323.1 20.7555 322.389 12.8753 322.269 5.1709L322.252 3.63281C322.246 2.4253 322.662 1.57494 323.212 1.07422Z" stroke="white"/>
<path d="M322.189 43.4844C323.026 43.1766 323.815 43.3287 324.512 43.7402C325.132 44.1064 325.666 44.6731 326.048 45.2725L326.201 45.5303C326.672 46.3758 326.917 47.289 327.083 48.0537C327.161 48.4115 327.233 48.7964 327.293 49.0547C327.325 49.1919 327.36 49.3273 327.402 49.4443C327.439 49.5462 327.506 49.7044 327.633 49.8252L327.86 50.042L328.153 49.9307C328.301 49.875 328.393 49.7737 328.44 49.7109C328.492 49.6438 328.53 49.5711 328.559 49.5107C328.616 49.391 328.671 49.2382 328.726 49.0869C328.839 48.7697 328.98 48.3637 329.202 47.8926C329.615 47.0161 330.311 45.9123 331.607 44.8799L331.875 44.6748C333.447 43.5091 335.109 43.2611 336.075 43.8066C336.538 44.0683 336.903 44.5399 337.042 45.3135C337.166 46.0037 337.108 46.9345 336.759 48.1387L336.591 48.6719C335.044 53.2342 333.132 55.103 329.065 60.167L328.223 61.2236C328.083 61.4009 328.008 61.4748 327.964 61.5107C327.929 61.5395 327.906 61.5497 327.824 61.5918C327.81 61.5915 327.776 61.5881 327.716 61.5664C327.592 61.5219 327.416 61.423 327.193 61.249C326.75 60.9033 326.205 60.3321 325.608 59.5811C324.42 58.0842 323.091 55.9495 322.044 53.6982C320.993 51.4388 320.248 49.1118 320.183 47.2197C320.15 46.2771 320.287 45.4765 320.606 44.8516C320.881 44.3159 321.3 43.8874 321.914 43.5996L322.189 43.4844Z" stroke="white"/>
</g>
<path d="M169.459 20.3877C169.976 19.917 170.636 19.7303 171.274 19.8477L171.401 19.875C171.91 20.0013 172.228 20.2193 172.447 20.502C172.676 20.7959 172.83 21.2022 172.928 21.7588C173.026 22.316 173.062 22.9814 173.084 23.7686C173.1 24.3504 173.108 24.9993 173.132 25.6943L173.161 26.4033C173.255 28.2811 173.304 30.7753 173.357 33.4521C173.411 36.1248 173.469 38.9757 173.584 41.5518C173.698 44.1214 173.87 46.4434 174.153 48.0508C174.293 48.8432 174.469 49.5176 174.708 49.9629C174.826 50.182 174.994 50.4136 175.244 50.542C175.499 50.673 175.766 50.6615 176.003 50.5557L176.103 50.5049C176.37 50.3497 176.546 50.0784 176.671 49.8145C176.801 49.5381 176.907 49.1963 176.998 48.8125C177.18 48.0428 177.313 47.0288 177.415 45.8604C177.619 43.5194 177.702 40.4771 177.771 37.3506C177.841 34.2161 177.896 30.9932 178.04 28.2656C178.112 26.9025 178.205 25.6706 178.333 24.6416C178.446 23.7337 178.583 23.0087 178.744 22.4961L178.815 22.2891C179.097 21.535 179.88 21.2322 180.654 21.5205C181.359 21.783 182.107 22.5862 182.181 24.1543L182.187 24.4785C182.185 24.5738 182.069 37.6399 182.069 37.7344L182.082 39.7822C182.143 44.3684 182.412 47.6169 182.822 49.71C183.054 50.8931 183.343 51.7694 183.708 52.3066C183.893 52.5788 184.131 52.8122 184.438 52.9189C184.764 53.0326 185.086 52.9736 185.362 52.8184C185.625 52.6708 185.857 52.4342 186.062 52.1582C186.271 51.8777 186.474 51.5283 186.671 51.124C187.065 50.3156 187.457 49.244 187.835 47.9561C188.498 45.6997 189.131 42.7377 189.668 39.2715L189.893 37.7559C190.017 36.8731 190.198 36.1256 190.52 35.6201C190.675 35.3765 190.854 35.2027 191.064 35.0928C191.248 34.9972 191.48 34.9371 191.783 34.9414L191.918 34.9473C192.332 34.9772 192.635 35.1623 192.875 35.5137C193.13 35.8879 193.316 36.4589 193.417 37.2373C193.618 38.7924 193.457 40.975 193.094 43.5039C192.732 46.0221 192.177 48.8376 191.61 51.6436C191.116 54.0935 190.612 56.5384 190.227 58.7529L190.068 59.6865C189.378 63.9302 188.167 67.8214 187.184 72.168C186.268 76.2171 185.576 80.5774 185.771 85.7578L185.822 86.8057L185.823 86.8125C187.929 115.177 191.987 141.096 195.061 169.351H168.854C169.345 162.66 170.989 145.386 171.323 128.648C171.495 120.046 171.321 111.563 170.46 104.713C170.03 101.289 169.425 98.2554 168.6 95.8125C167.83 93.5343 166.848 91.7121 165.583 90.583L165.326 90.3662C163.668 89.0484 161.868 86.4929 160.029 83.248C158.2 80.0196 156.367 76.1703 154.627 72.3232C153.758 70.4008 152.913 68.4814 152.104 66.6426C151.296 64.8047 150.523 63.0454 149.801 61.4482C148.455 58.473 147.258 56.0046 146.303 54.624L146.114 54.3623C145.796 53.937 145.734 53.6163 145.761 53.3945C145.788 53.1727 145.914 52.961 146.152 52.7744C146.62 52.4077 147.402 52.2355 148.049 52.3584L148.176 52.3867C149.796 52.8063 151.43 54.3627 153.014 56.4746C154.58 58.5637 156.017 61.0854 157.279 63.2881C157.907 64.3835 158.494 65.4034 159.025 66.2373C159.549 67.0586 160.052 67.7512 160.518 68.1533C160.748 68.3521 161.028 68.5319 161.346 68.5684C161.709 68.6099 162.018 68.4552 162.242 68.1895C162.447 67.9471 162.588 67.6084 162.694 67.2168C162.776 66.9163 162.843 66.5584 162.897 66.1416L162.948 65.7061C163.163 63.6002 162.884 60.8172 162.369 57.6973C161.853 54.5686 161.092 51.0533 160.323 47.4707C158.827 40.4984 157.311 33.2982 157.426 27.9961L157.442 27.4893C157.492 26.3217 158.247 25.6836 159.07 25.5791C159.892 25.4749 160.829 25.8985 161.255 27.0273C161.256 27.0311 161.257 27.0355 161.258 27.04C161.265 27.0753 161.276 27.127 161.29 27.1953C161.318 27.3364 161.356 27.5274 161.408 27.7861C161.51 28.2947 161.657 29.0227 161.84 29.9102C162.206 31.6852 162.717 34.0991 163.305 36.6738C164.401 41.4771 165.778 46.9105 166.986 49.7637L167.226 50.2988C167.447 50.7666 167.649 51.146 167.833 51.4365C168.008 51.7139 168.196 51.9589 168.404 52.1064C168.513 52.1833 168.664 52.2602 168.848 52.2666C169.047 52.2735 169.218 52.1948 169.344 52.0801C169.554 51.8882 169.644 51.5907 169.695 51.3535C169.808 50.8326 169.842 50.0299 169.83 49.042C169.818 48.0404 169.758 46.8028 169.672 45.3877C169.347 40.069 168.636 32.1887 168.516 24.4844L168.5 22.9473C168.494 21.7396 168.909 20.8885 169.459 20.3877Z" stroke="white" stroke-opacity="0.3"/>
<path d="M168.592 62.7979C169.428 62.4901 170.217 62.6422 170.914 63.0537C171.534 63.4199 172.069 63.9866 172.45 64.5859L172.604 64.8438C173.074 65.6893 173.319 66.6025 173.485 67.3672C173.563 67.7249 173.636 68.11 173.695 68.3682C173.727 68.5054 173.762 68.6408 173.805 68.7578C173.842 68.8597 173.908 69.0178 174.035 69.1387L174.263 69.3545L174.556 69.2441C174.703 69.1885 174.795 69.0872 174.843 69.0244C174.894 68.9572 174.932 68.8846 174.961 68.8242C175.018 68.7045 175.074 68.5517 175.128 68.4004C175.242 68.0832 175.382 67.6772 175.604 67.2061C176.018 66.3295 176.714 65.2259 178.011 64.1934L178.277 63.9883C179.85 62.8226 181.511 62.5746 182.478 63.1201C182.941 63.3817 183.305 63.8533 183.444 64.627C183.568 65.3172 183.51 66.248 183.161 67.4521L182.993 67.9854C181.447 72.5477 179.534 74.4164 175.468 79.4805L174.625 80.5371C174.485 80.7143 174.41 80.7873 174.366 80.8232C174.331 80.8522 174.309 80.863 174.227 80.9053C174.212 80.9049 174.179 80.9015 174.118 80.8799C173.994 80.8354 173.819 80.7365 173.596 80.5625C173.153 80.2168 172.607 79.6456 172.011 78.8945C170.822 77.3976 169.494 75.2629 168.446 73.0117C167.395 70.7523 166.651 68.4252 166.585 66.5332C166.552 65.5905 166.689 64.79 167.009 64.165C167.283 63.6294 167.703 63.2009 168.316 62.9131L168.592 62.7979Z" stroke="white" stroke-opacity="0.3"/>
<path d="M97.6738 0.561523C98.3512 0.39321 99.0647 0.572243 99.6162 1.07422C100.132 1.54372 100.529 2.32054 100.572 3.41113L100.576 3.63281C100.537 11.8128 99.7493 20.401 99.4033 26.0742C99.317 27.4893 99.2581 28.7269 99.2461 29.7285C99.2343 30.7161 99.2668 31.5182 99.3799 32.0391C99.4314 32.2764 99.5222 32.5746 99.7324 32.7666C99.858 32.8812 100.029 32.9601 100.229 32.9531C100.412 32.9466 100.562 32.8698 100.671 32.793C100.879 32.6455 101.068 32.4005 101.243 32.123C101.381 31.9053 101.529 31.6377 101.688 31.3203L101.851 30.9854C103.113 28.3242 104.601 22.4836 105.771 17.3604C106.358 14.7856 106.869 12.3717 107.235 10.5967C107.418 9.70916 107.566 8.98127 107.668 8.47266C107.72 8.21388 107.758 8.02295 107.786 7.88184C107.8 7.81367 107.81 7.76183 107.817 7.72656C107.818 7.72216 107.819 7.7176 107.819 7.71387C108.246 6.58479 109.183 6.16147 110.005 6.26562C110.777 6.36357 111.488 6.93025 111.615 7.96289L111.633 8.1748V8.17578C111.861 13.5203 110.296 20.9601 108.752 28.1572C107.983 31.7398 107.222 35.2551 106.706 38.3838C106.224 41.3085 105.948 43.937 106.093 45.9893L106.127 46.3926C106.189 47.0007 106.273 47.5028 106.382 47.9033C106.488 48.2949 106.629 48.6336 106.833 48.876C107.057 49.1419 107.367 49.2966 107.73 49.2549C108.048 49.2183 108.328 49.0387 108.559 48.8398C109.025 48.4377 109.527 47.7451 110.051 46.9238C110.583 46.09 111.168 45.0698 111.796 43.9746C113.058 41.772 114.495 39.2502 116.062 37.1611C117.546 35.1812 119.076 33.6904 120.596 33.166L120.899 33.0732C121.568 32.8999 122.424 33.0699 122.923 33.4609C123.161 33.6475 123.288 33.8593 123.314 34.0811C123.338 34.2751 123.293 34.5451 123.068 34.8945L122.961 35.0488C121.977 36.364 120.711 38.9609 119.274 42.1348C118.552 43.7319 117.779 45.4903 116.971 47.3281C116.162 49.1669 115.318 51.0863 114.448 53.0088C112.709 56.8558 110.876 60.7052 109.047 63.9336C107.323 66.976 105.632 69.4125 104.062 70.791L103.749 71.0527C102.359 72.1574 101.297 74.0681 100.476 76.498C99.6499 78.9409 99.0456 81.9743 98.6152 85.3984C97.7543 92.2484 97.5802 100.732 97.752 109.335C98.0861 126.073 99.7317 143.347 100.222 150.037H74.0146C76.9913 122.671 80.892 97.4961 83.0479 70.168L83.2529 67.498V67.4912C83.5912 61.8464 82.8683 57.1735 81.8916 52.8545C80.9701 48.7796 79.8481 45.1051 79.1426 41.165L79.0068 40.373C78.6082 37.9226 78.0313 35.1298 77.4658 32.3301C76.8991 29.5241 76.3432 26.7087 75.9814 24.1904C75.6181 21.6615 75.458 19.4789 75.6592 17.9238C75.7599 17.1455 75.9452 16.5744 76.2002 16.2002C76.4099 15.8926 76.6686 15.7116 77.0078 15.6514L77.1582 15.6338C77.5286 15.6072 77.8021 15.6701 78.0117 15.7793C78.2224 15.8892 78.4018 16.0624 78.5566 16.3057C78.838 16.7479 79.0115 17.3759 79.1338 18.1172L79.1836 18.4424C79.7637 22.5635 80.483 26.0639 81.2402 28.6426C81.6184 29.9305 82.01 31.0022 82.4043 31.8105C82.6015 32.2147 82.8048 32.5633 83.0137 32.8438C83.2193 33.1198 83.4503 33.3573 83.7129 33.5049C83.9895 33.6603 84.3116 33.7192 84.6387 33.6055C84.9454 33.4988 85.1824 33.2651 85.3672 32.9932C85.7323 32.4559 86.0217 31.579 86.2539 30.3955C86.7232 28.0035 87.0057 24.103 87.0068 18.4209L86.8896 5.16504L86.8955 4.84082C86.9689 3.27234 87.717 2.46936 88.4219 2.20703C89.1482 1.93674 89.8814 2.18587 90.2021 2.83984L90.2607 2.97559C90.4533 3.49138 90.6131 4.29033 90.7422 5.32812C90.8702 6.3572 90.9642 7.58891 91.0361 8.95215C91.1801 11.6797 91.2344 14.9026 91.3037 18.0371C91.3729 21.1636 91.4574 24.206 91.6611 26.5469C91.7628 27.7151 91.8956 28.7284 92.0771 29.498C92.1678 29.8821 92.2749 30.2245 92.4053 30.501C92.5142 30.7318 92.6626 30.9685 92.877 31.1279L92.9736 31.1914C93.2328 31.3418 93.54 31.378 93.8311 31.2285C94.0808 31.1001 94.2495 30.8685 94.3672 30.6494C94.6064 30.2041 94.782 29.5298 94.9219 28.7373C95.2057 27.1299 95.3777 24.808 95.4922 22.2383C95.6069 19.6623 95.6654 16.8113 95.7188 14.1387C95.7588 12.1308 95.7958 10.2257 95.8516 8.60645L95.9141 7.08984C95.9623 6.12553 95.9707 5.23064 95.9922 4.45508C96.014 3.66793 96.0493 3.00256 96.1475 2.44531C96.2455 1.88873 96.3997 1.48246 96.6279 1.18848C96.82 0.941061 97.0878 0.743368 97.4922 0.613281L97.6738 0.561523Z" stroke="white" stroke-opacity="0.3"/>
<path d="M90.4189 44.166C90.8453 44.0047 91.2986 43.9942 91.7568 44.167C92.1627 44.3202 92.5952 44.6264 93.0176 45.1396L93.1982 45.3721C93.739 46.1131 94.1482 47.0867 94.4248 47.9941C94.4263 47.9998 94.4276 48.005 94.4287 48.0088C94.438 48.0402 94.4498 48.0676 94.4609 48.0908L94.7646 48.7246L95.2637 48.2295L95.2949 48.1992L95.3213 48.1641C95.8598 47.4282 97.068 46.1646 98.2148 45.3701L98.4434 45.2178L98.4453 45.2168C100.05 44.1759 101.332 44.2471 102.066 44.9209C102.792 45.5864 103.222 47.032 102.766 49.3516L102.663 49.8242C101.723 53.6935 98.9374 57.5847 96.082 60.6172L95.5107 61.2119L95.5098 61.2139C95.3204 61.4083 95.1244 61.6025 94.9258 61.7988C94.7931 61.652 94.6246 61.4652 94.4307 61.2402C94.0432 60.7906 93.5482 60.1946 93.0059 59.4854L92.4492 58.7393C91.1413 56.9315 90.1938 55.3029 89.5391 53.9092L89.2754 53.3262L89.2744 53.3223L89.1094 52.9375C88.3658 51.1325 87.9627 49.2267 88.2891 47.4062L88.3701 47.0176L88.3711 47.0127C88.7227 45.4896 89.5507 44.4945 90.4189 44.166Z" stroke="white" stroke-opacity="0.3"/>
<g opacity="0.5">
<path d="M229.046 31.1641L229.196 31.1777C229.579 31.2229 229.872 31.3354 230.123 31.5342C230.38 31.7378 230.626 32.0597 230.868 32.5781C231.299 33.5016 231.667 34.9422 232.081 37.1641L232.262 38.165C233.566 45.6154 234.668 51.2133 235.601 55.3008C236.531 59.3773 237.299 61.9829 237.938 63.4268C238.1 63.7901 238.258 64.0927 238.416 64.332C238.57 64.565 238.745 64.7716 238.95 64.9043C239.173 65.0483 239.454 65.1145 239.741 65.0049C239.996 64.9077 240.169 64.7038 240.286 64.5146C240.521 64.1354 240.691 63.5554 240.826 62.8828C240.964 62.1933 241.077 61.3453 241.168 60.3887C241.533 56.5679 241.581 50.8398 241.562 45.9873C241.553 43.5591 241.528 41.3387 241.517 39.6836C241.511 38.8542 241.508 38.1671 241.514 37.6641C241.516 37.4124 241.521 37.2106 241.527 37.0615L241.542 36.8438C241.807 35.7462 242.652 35.2665 243.496 35.3154C244.345 35.3647 245.219 35.9551 245.488 37.1289C246.78 45.9919 246.951 50.973 247.181 56.1953C247.411 61.4378 247.7 66.9129 249.237 76.7393L249.239 76.752L249.242 76.7637C249.637 78.6672 250.044 79.9909 250.485 80.8057C250.705 81.2115 250.96 81.5427 251.273 81.7393C251.616 81.954 251.992 81.9845 252.353 81.8457C252.682 81.7191 252.966 81.4642 253.214 81.1709C253.467 80.8712 253.714 80.4905 253.958 80.0566C254.445 79.189 254.951 78.0478 255.479 76.7705C256.546 74.1946 257.716 71.042 259.083 68.1895C260.371 65.5009 261.786 63.1867 263.358 61.9189L263.675 61.6797C264.969 60.7659 266.402 60.6118 267.289 60.9355C267.724 61.0945 267.994 61.3515 268.106 61.6533C268.205 61.9168 268.214 62.293 267.998 62.7969L267.892 63.0205C264.781 68.9769 262.994 75.1501 261.393 81.6836L260.715 84.5059C260.283 86.3322 259.281 88.4804 257.983 90.7275C256.69 92.9684 255.119 95.2788 253.572 97.4238C252.026 99.5688 250.509 101.539 249.321 103.108C248.729 103.891 248.216 104.578 247.824 105.133C247.491 105.605 247.22 106.017 247.071 106.322L247.015 106.446C245.62 109.836 245.248 114.951 245.503 120.856C245.759 126.781 246.651 133.576 247.836 140.373C250.135 153.554 253.545 166.788 255.596 173.798C238.613 173.798 230.672 173.814 226.98 173.806C225.617 173.803 224.844 173.794 224.412 173.783C225.106 166.903 227.202 155.835 226.981 140.141C226.763 124.602 224.275 104.505 215.936 79.2812L215.11 76.8242C211.527 66.3232 209.135 60.1355 208.084 56.3838C207.556 54.4969 207.401 53.3329 207.547 52.5869C207.616 52.2347 207.75 51.99 207.939 51.8008C208.086 51.654 208.283 51.5238 208.547 51.4092L208.834 51.2998C209.219 51.1696 209.522 51.153 209.77 51.2041C210.015 51.2548 210.247 51.3802 210.479 51.6016C210.966 52.0653 211.401 52.8946 211.878 54.0977C212.803 56.4324 213.819 60.0333 215.746 63.9102H215.747C217.093 66.9417 218.091 68.9343 218.807 70.0811C219.155 70.6399 219.471 71.0572 219.763 71.2773C219.905 71.3845 220.128 71.5122 220.398 71.4766C220.703 71.4362 220.876 71.2188 220.961 71.0459C221.044 70.8772 221.083 70.6783 221.104 70.4873C221.126 70.2886 221.131 70.0588 221.125 69.8076C221.112 69.3052 221.05 68.6767 220.95 67.9561C220.751 66.5123 220.396 64.6525 219.956 62.5977C219.075 58.4854 217.844 53.5545 216.808 49.5293C216.027 46.4964 215.361 43.9951 215.032 42.7256L214.823 41.8926C214.568 40.7036 215.223 39.6409 216.13 39.2178C216.576 39.0095 217.07 38.9635 217.54 39.123C217.95 39.2622 218.38 39.5708 218.759 40.1387L218.917 40.3984C218.963 40.4803 219.082 40.7841 219.274 41.3379C219.458 41.8683 219.693 42.58 219.969 43.4297C220.245 44.2788 220.561 45.2627 220.906 46.3379C221.252 47.413 221.627 48.5794 222.021 49.79C223.592 54.6245 225.47 60.2048 226.961 63.6211C227.334 64.476 227.688 65.2087 228.013 65.7646C228.175 66.0424 228.335 66.2855 228.492 66.4814C228.643 66.6698 228.818 66.8491 229.019 66.959C229.237 67.079 229.54 67.1382 229.829 66.9609C230.07 66.8131 230.197 66.5585 230.272 66.3389C230.428 65.8842 230.496 65.1702 230.499 64.21C230.51 60.5751 229.568 52.5075 227.12 37.6719L226.61 34.6133C226.405 33.3931 226.689 32.491 227.174 31.9268C227.628 31.3979 228.298 31.1183 229.046 31.1641Z" stroke="white"/>
<path d="M236.288 77.8906C237.567 76.4681 238.823 76.2046 239.708 76.6641C240.582 77.118 241.374 78.4015 241.536 80.7598L241.56 81.2461C241.657 85.2264 239.98 89.7068 238.012 93.377L237.615 94.0996L237.614 94.1016C237.482 94.3384 237.344 94.5771 237.203 94.8184C237.037 94.711 236.825 94.5751 236.579 94.4082C236.088 94.0748 235.455 93.627 234.747 93.083L234.017 92.5078C232.283 91.102 230.944 89.7761 229.949 88.6006L229.544 88.1064L229.541 88.1035L229.282 87.7744C228.095 86.2246 227.209 84.4893 227.051 82.6465L227.028 82.25V82.2461L227.024 81.957C227.04 80.5389 227.559 79.473 228.265 78.9639C228.634 78.6971 229.07 78.5694 229.558 78.6172C229.989 78.6595 230.486 78.8428 231.027 79.2285L231.263 79.4062C231.977 79.9805 232.624 80.8127 233.127 81.6162C233.151 81.6587 233.176 81.691 233.195 81.7119L233.672 82.2402L233.999 81.6289C234 81.6275 234.001 81.6256 234.003 81.623V81.6211L234.022 81.5908L234.038 81.5498C234.367 80.6993 235.205 79.1651 236.105 78.0996L236.286 77.8926L236.288 77.8906Z" stroke="white"/>
</g>
<g opacity="0.3">
<path d="M466.81 25.1289C467.327 24.6584 467.986 24.4718 468.624 24.5889L468.752 24.6162C469.26 24.7425 469.578 24.9604 469.798 25.2432C470.026 25.5372 470.18 25.9434 470.278 26.5C470.377 27.0572 470.412 27.7226 470.434 28.5098C470.45 29.0913 470.459 29.7399 470.482 30.4346L470.512 31.1445C470.606 33.0223 470.654 35.5165 470.707 38.1934C470.76 40.866 470.819 43.7169 470.934 46.293C471.048 48.8626 471.22 51.1845 471.504 52.792C471.644 53.5844 471.819 54.2588 472.059 54.7041C472.176 54.9232 472.345 55.1548 472.595 55.2832C472.886 55.4328 473.193 55.3965 473.452 55.2461C473.719 55.0909 473.896 54.8197 474.021 54.5557C474.151 54.2793 474.258 53.9376 474.349 53.5537C474.53 52.784 474.664 51.7701 474.766 50.6016C474.969 48.2606 475.053 45.2183 475.122 42.0918C475.191 38.9573 475.246 35.7344 475.39 33.0068C475.462 31.6437 475.556 30.4118 475.684 29.3828C475.797 28.4749 475.933 27.7499 476.095 27.2373L476.166 27.0312C476.448 26.277 477.229 25.9737 478.004 26.2617C478.756 26.5415 479.557 27.4364 479.536 29.2188C479.535 29.3153 479.419 42.3707 479.419 42.4756L479.433 44.5234C479.494 49.1097 479.761 52.3581 480.172 54.4512C480.404 55.6345 480.694 56.5106 481.059 57.0479C481.243 57.3199 481.48 57.5544 481.787 57.6611C482.114 57.7749 482.436 57.715 482.713 57.5596C482.975 57.4121 483.207 57.1753 483.412 56.8994C483.621 56.6189 483.824 56.2695 484.021 55.8652C484.416 55.0569 484.807 53.9851 485.186 52.6973C485.848 50.4409 486.482 47.4788 487.019 44.0127L487.243 42.4971C487.367 41.6144 487.548 40.8668 487.869 40.3613C488.024 40.1177 488.204 39.9439 488.415 39.834C488.598 39.7385 488.83 39.6783 489.134 39.6826L489.269 39.6885C489.683 39.7185 489.986 39.9036 490.226 40.2549C490.481 40.629 490.666 41.2002 490.767 41.9785C490.968 43.5336 490.808 45.7163 490.444 48.2451C490.083 50.7634 489.527 53.5788 488.96 56.3848C488.465 58.8347 487.961 61.2796 487.576 63.4941L487.419 64.4277C486.729 68.6713 485.517 72.5627 484.534 76.9092C483.619 80.9583 482.926 85.3187 483.122 90.499L483.173 91.5469L483.174 91.5537C485.28 119.919 489.338 145.838 492.411 174.093H466.205C466.695 167.403 468.34 150.129 468.674 133.391C468.846 124.788 468.671 116.304 467.811 109.454C467.38 106.03 466.776 102.997 465.95 100.554C465.18 98.2755 464.199 96.4533 462.934 95.3242L462.677 95.1074C461.019 93.7896 459.217 91.2343 457.379 87.9893C455.55 84.7608 453.717 80.9115 451.978 77.0645C451.108 75.142 450.264 73.2226 449.455 71.3838C448.647 69.5459 447.874 67.7866 447.151 66.1895C445.805 63.2142 444.609 60.7457 443.653 59.3652L443.465 59.1045C443.146 58.679 443.085 58.3576 443.111 58.1357C443.138 57.9139 443.265 57.7022 443.503 57.5156C443.971 57.149 444.751 56.977 445.398 57.0996L445.526 57.1279C447.146 57.5475 448.781 59.1031 450.364 61.2148C451.931 63.304 453.368 65.8266 454.63 68.0293C455.257 69.1245 455.843 70.1447 456.375 70.9785C456.899 71.7998 457.401 72.4924 457.867 72.8945C458.098 73.0934 458.378 73.273 458.695 73.3096C459.058 73.3513 459.368 73.1965 459.593 72.9307C459.797 72.6883 459.938 72.3495 460.044 71.958C460.125 71.6575 460.193 71.2996 460.248 70.8828L460.299 70.4473C460.514 68.3414 460.234 65.5584 459.72 62.4385C459.204 59.3098 458.442 55.7945 457.674 52.2119C456.178 45.2397 454.662 38.0394 454.776 32.7373L454.793 32.2295C454.843 31.0621 455.598 30.4247 456.421 30.3203C457.242 30.2161 458.179 30.6396 458.605 31.7686C458.606 31.7723 458.607 31.7768 458.608 31.7812C458.616 31.8165 458.626 31.8684 458.64 31.9365C458.668 32.0776 458.706 32.2686 458.758 32.5273C458.86 33.036 459.007 33.7639 459.19 34.6514C459.557 36.4264 460.068 38.8403 460.655 41.415C461.751 46.2183 463.129 51.6518 464.337 54.5049L464.575 55.04C464.797 55.5077 464.999 55.8873 465.183 56.1777C465.358 56.4552 465.547 56.7002 465.755 56.8477C465.863 56.9245 466.014 57.0013 466.197 57.0078C466.397 57.0148 466.568 56.936 466.693 56.8213C466.903 56.6294 466.994 56.332 467.046 56.0947C467.159 55.5738 467.192 54.7711 467.18 53.7832C467.168 52.7816 467.109 51.544 467.022 50.1289C466.698 44.8102 465.986 36.9299 465.866 29.2256L465.85 27.6885C465.844 26.4807 466.259 25.6297 466.81 25.1289Z" stroke="white"/>
<path d="M465.788 67.54C466.624 67.2322 467.414 67.3842 468.111 67.7959C468.731 68.162 469.265 68.7289 469.646 69.3281L469.8 69.5859C470.27 70.4316 470.516 71.3446 470.682 72.1094C470.759 72.4671 470.832 72.8521 470.892 73.1104C470.923 73.2475 470.958 73.383 471.001 73.5C471.038 73.6019 471.104 73.76 471.231 73.8809L471.459 74.0977L471.752 73.9863C471.9 73.9307 471.991 73.8293 472.039 73.7666C472.09 73.6994 472.128 73.6267 472.157 73.5664C472.214 73.4467 472.27 73.2939 472.324 73.1426C472.438 72.8254 472.579 72.4194 472.801 71.9482C473.214 71.0716 473.91 69.9681 475.207 68.9355L475.474 68.7305C477.046 67.5647 478.708 67.3168 479.674 67.8623C480.137 68.1239 480.502 68.5956 480.641 69.3691C480.765 70.0594 480.707 70.9902 480.357 72.1943L480.189 72.7275C478.643 77.2897 476.73 79.1586 472.664 84.2227L471.821 85.2793C471.681 85.4563 471.606 85.5294 471.562 85.5654C471.527 85.5944 471.505 85.6052 471.423 85.6475C471.409 85.6471 471.375 85.6437 471.314 85.6221C471.19 85.5776 471.015 85.4787 470.792 85.3047C470.349 84.9589 469.803 84.3878 469.207 83.6367C468.019 82.1398 466.69 80.0052 465.643 77.7539C464.591 75.4945 463.847 73.1674 463.781 71.2754C463.749 70.3327 463.885 69.5322 464.205 68.9072C464.479 68.3716 464.899 67.9431 465.513 67.6553L465.788 67.54Z" stroke="white"/>
</g>
<g opacity="0.5">
<path d="M75.5957 29.7188C76.4842 29.6139 77.2882 29.9224 77.8232 30.5449C78.3248 31.1286 78.6282 32.0356 78.4795 33.2441L78.4443 33.4902C75.3811 51.6911 74.2174 61.3524 74.2305 65.5488C74.2337 66.5889 74.3082 67.3562 74.4746 67.8418C74.5552 68.0769 74.6883 68.3416 74.9365 68.4941C75.2327 68.6761 75.544 68.6163 75.7725 68.4912C75.9823 68.3762 76.1686 68.187 76.3311 67.9844C76.4995 67.7742 76.6725 67.5119 76.8477 67.2119C77.1981 66.6116 77.5815 65.82 77.9854 64.8945C79.5997 61.1953 81.632 55.1504 83.335 49.9121C83.7613 48.6006 84.1677 47.3376 84.542 46.1729C84.9164 45.0078 85.2596 43.9417 85.5586 43.0215C85.8578 42.1007 86.1122 41.329 86.3115 40.7539C86.467 40.3052 86.5791 40.0056 86.6475 39.8447L86.7012 39.7295C87.1538 38.9255 87.6972 38.5052 88.2158 38.3291C88.7365 38.1523 89.2831 38.2038 89.7754 38.4336C90.7114 38.8706 91.4033 39.9261 91.2549 41.1348L91.2139 41.3779C91.0988 41.9145 90.1922 45.2747 89.0645 49.6543C87.9415 54.0152 86.6078 59.357 85.6533 63.8115C85.1764 66.0372 84.7919 68.0507 84.5762 69.6133C84.4685 70.3936 84.4007 71.0731 84.3867 71.6152C84.3797 71.8862 84.3858 72.1329 84.4092 72.3457C84.4318 72.5508 84.4741 72.761 84.5605 72.9375C84.6491 73.1181 84.827 73.3396 85.1377 73.3809C85.4141 73.4175 85.6462 73.2867 85.7969 73.1729C86.1057 72.9394 86.4448 72.4938 86.8223 71.8887C87.5956 70.6489 88.6759 68.4925 90.1338 65.208L90.1328 65.207C92.2203 61.0073 93.3209 57.1128 94.3252 54.5771C94.8414 53.2737 95.3162 52.3678 95.8506 51.8584C96.1067 51.6143 96.3647 51.4739 96.6396 51.417C96.8821 51.3669 97.1694 51.376 97.5205 51.4746L97.6758 51.5225C98.1279 51.6753 98.4428 51.8563 98.6611 52.0742C98.8731 52.2858 99.0217 52.5595 99.0977 52.9482C99.2576 53.7672 99.0872 55.0369 98.5146 57.0811C97.5182 60.6389 95.409 66.2192 92.2969 75.1787L90.9014 79.2295C81.1494 107.805 78.2866 130.443 78.042 147.816C77.8021 164.853 80.0817 176.853 80.8291 184.308C80.369 184.321 79.5252 184.329 78.002 184.332C73.9982 184.341 65.3807 184.324 46.9424 184.323C49.1619 176.743 52.8682 162.373 55.3643 148.061C56.6484 140.697 57.6143 133.337 57.8916 126.92C58.1594 120.722 57.7889 115.337 56.3945 111.675L56.2568 111.326C56.1191 110.991 55.798 110.497 55.3848 109.911C54.9606 109.31 54.4047 108.567 53.7627 107.719C52.4756 106.018 50.8324 103.883 49.1562 101.559C47.4802 99.2342 45.7777 96.7303 44.375 94.3008C43.0564 92.017 42.0184 89.8243 41.5068 87.9238L41.4111 87.5479C39.5265 79.5841 37.612 72.1305 33.9951 64.9717L33.6396 64.2793C33.2864 63.6029 33.2781 63.1051 33.4053 62.7646C33.5328 62.4234 33.8354 62.1372 34.3154 61.9619C35.2306 61.6279 36.6658 61.7572 38.0039 62.5957L38.2695 62.7734C40.1202 64.0808 41.7694 66.735 43.2578 69.8418C44.7391 72.9338 46.0087 76.3527 47.1631 79.1416C47.7358 80.5254 48.283 81.7596 48.8096 82.6973C49.0729 83.1662 49.3398 83.5765 49.6113 83.8984C49.8773 84.2138 50.1804 84.4837 50.5273 84.6172C50.9061 84.7629 51.2997 84.7305 51.6592 84.5049C51.9897 84.2974 52.2623 83.9458 52.499 83.5088C52.9146 82.7414 53.3033 81.552 53.6807 79.8857L53.8418 79.1416L53.8447 79.1299L53.8457 79.1172C55.511 68.4727 55.8249 62.5424 56.0742 56.8633C56.3227 51.2045 56.5073 45.8054 57.9072 36.1992C58.2032 34.9083 59.1673 34.2556 60.1055 34.2012C60.9806 34.1504 61.8565 34.6146 62.2031 35.6699L62.2656 35.8887C62.266 35.8924 62.2746 35.9587 62.2822 36.1328C62.2893 36.295 62.294 36.5143 62.2969 36.7871C62.3026 37.3325 62.3011 38.077 62.2949 38.9756C62.2827 40.7692 62.2549 43.1747 62.2451 45.8057C62.2255 51.0635 62.277 57.268 62.6719 61.4053C62.7707 62.4408 62.8926 63.3575 63.042 64.1025C63.188 64.8305 63.3709 65.4523 63.6211 65.8564C63.7459 66.058 63.9271 66.2705 64.1904 66.3711C64.4868 66.4843 64.7765 66.4162 65.0098 66.2656C65.2254 66.1264 65.4117 65.9086 65.5771 65.6582C65.7467 65.4015 65.9168 65.0752 66.0908 64.6826C66.7824 63.1223 67.6135 60.3032 68.6211 55.8867C69.505 52.0126 70.5299 46.8854 71.7188 40.2568L72.2393 37.3232C72.7702 34.2901 73.2149 32.409 73.751 31.2598C74.0148 30.6943 74.2864 30.3392 74.5713 30.1133C74.8152 29.9199 75.0944 29.8003 75.4424 29.7402L75.5957 29.7188Z" stroke="white"/>
<path d="M64.001 78.3779C64.9592 78.1705 65.7955 78.458 66.4893 79.0107C67.1052 79.5015 67.5965 80.1951 67.918 80.9004L68.0459 81.2031C68.4256 82.1869 68.551 83.208 68.6143 84.0547C68.644 84.4529 68.6632 84.8737 68.6885 85.1602C68.7019 85.3118 68.7195 85.4604 68.7471 85.5898C68.7713 85.7036 68.8169 85.8748 68.9287 86.0156L69.123 86.2617L69.4297 86.1924C69.5855 86.1573 69.6919 86.0683 69.75 86.0107C69.8122 85.9491 69.8631 85.8797 69.9023 85.8203C69.9801 85.7026 70.0615 85.549 70.1426 85.3945C70.312 85.0716 70.5245 84.6547 70.835 84.1807C71.4128 83.2982 72.331 82.2152 73.8838 81.2988L74.2031 81.1172C76.0717 80.0997 77.9121 80.0759 78.8857 80.8213C79.3544 81.1802 79.6789 81.7536 79.7119 82.6152C79.7413 83.3828 79.5373 84.3796 78.9795 85.623L78.7188 86.1719C76.3689 90.8416 74.0268 92.5647 68.9043 97.3838L67.8418 98.3906C67.6644 98.56 67.5711 98.6297 67.5146 98.6641C67.4669 98.6931 67.4374 98.7034 67.3369 98.7383C67.325 98.738 67.2828 98.7338 67.1982 98.6895C67.0662 98.6202 66.8895 98.4836 66.6748 98.2617C66.248 97.8207 65.7472 97.1225 65.2197 96.2256C64.1682 94.4375 63.0622 91.9442 62.2764 89.3682C61.488 86.7835 61.0378 84.1682 61.2529 82.1201C61.3602 81.0994 61.6295 80.2532 62.0723 79.623C62.4525 79.0822 62.9743 78.68 63.6846 78.4609L64.001 78.3779Z" stroke="white"/>
</g>
<path d="M448.874 23.4014C449.763 23.2965 450.567 23.605 451.102 24.2275C451.603 24.8112 451.907 25.7182 451.758 26.9268L451.723 27.1729C448.659 45.3738 447.496 55.0351 447.509 59.2314C447.512 60.2715 447.587 61.0388 447.753 61.5244C447.833 61.7594 447.967 62.0233 448.215 62.1758C448.511 62.3577 448.822 62.2989 449.051 62.1738C449.261 62.0587 449.447 61.8687 449.609 61.666C449.778 61.4559 449.951 61.1945 450.126 60.8945C450.476 60.2941 450.86 59.5018 451.264 58.5762C452.878 54.8769 454.91 48.8328 456.613 43.5947C457.04 42.2831 457.446 41.0203 457.82 39.8555C458.195 38.6904 458.538 37.6243 458.837 36.7041C459.136 35.7833 459.391 35.0116 459.59 34.4365C459.745 33.9879 459.857 33.6883 459.926 33.5273L459.979 33.4121C460.432 32.6082 460.976 32.1879 461.494 32.0117C462.015 31.8349 462.561 31.8865 463.054 32.1162C463.99 32.5531 464.682 33.6087 464.533 34.8174L464.492 35.0605C464.377 35.5971 463.47 38.9566 462.343 43.3359C461.22 47.6968 459.886 53.0387 458.932 57.4932C458.455 59.7191 458.07 61.7332 457.854 63.2959C457.747 64.0762 457.679 64.7557 457.665 65.2979C457.658 65.5688 457.664 65.8155 457.688 66.0283C457.71 66.2334 457.752 66.4437 457.839 66.6201C457.927 66.8006 458.105 67.0222 458.416 67.0635C458.692 67.1001 458.925 66.9693 459.075 66.8555C459.384 66.6221 459.723 66.1764 460.101 65.5713C460.872 64.3341 461.95 62.1835 463.403 58.9102C465.497 54.703 466.598 50.7993 467.604 48.2598C468.12 46.9564 468.595 46.0504 469.129 45.541C469.385 45.2967 469.644 45.1564 469.919 45.0996C470.162 45.0496 470.449 45.0585 470.8 45.1572L470.954 45.2051C471.406 45.3579 471.721 45.5389 471.939 45.7568C472.151 45.9685 472.3 46.2421 472.376 46.6309C472.536 47.4498 472.365 48.7195 471.793 50.7637C470.796 54.3215 468.687 59.9019 465.575 68.8613L464.18 72.9121C454.428 101.488 451.565 124.125 451.32 141.499C451.08 158.536 453.36 170.537 454.107 177.991C453.647 178.004 452.803 178.011 451.28 178.015C447.277 178.024 438.659 178.006 420.221 178.006C422.44 170.426 426.147 156.056 428.643 141.743C429.927 134.38 430.893 127.02 431.17 120.603C431.438 114.405 431.067 109.019 429.673 105.357L429.535 105.009C429.397 104.674 429.076 104.179 428.663 103.594C428.239 102.993 427.683 102.25 427.041 101.401C425.754 99.701 424.111 97.5657 422.435 95.2412C420.758 92.9168 419.056 90.4129 417.653 87.9834C416.335 85.6996 415.297 83.507 414.785 81.6064L414.689 81.2305C412.805 73.2665 410.891 65.8125 407.273 58.6533L406.918 57.9619C406.565 57.2852 406.556 56.7868 406.684 56.4463C406.811 56.1052 407.114 55.8197 407.594 55.6445C408.509 55.3104 409.944 55.4397 411.282 56.2783L411.548 56.4551C413.399 57.7625 415.048 60.4175 416.536 63.5244C418.017 66.6165 419.287 70.0353 420.441 72.8242C421.014 74.2081 421.561 75.4422 422.088 76.3799C422.351 76.8488 422.618 77.2582 422.89 77.5801C423.156 77.8956 423.459 78.1662 423.806 78.2998C424.184 78.4455 424.578 78.413 424.938 78.1875C425.268 77.98 425.541 77.6284 425.777 77.1914C426.193 76.4239 426.582 75.2342 426.959 73.5674L427.12 72.8242L427.123 72.8115L427.125 72.7998C428.79 62.1552 429.103 56.225 429.353 50.5459C429.601 44.8871 429.786 39.488 431.186 29.8818C431.481 28.591 432.446 27.9382 433.384 27.8838C434.259 27.8331 435.135 28.2972 435.481 29.3525L435.544 29.5713C435.545 29.5765 435.553 29.6434 435.561 29.8154C435.568 29.9776 435.572 30.1968 435.575 30.4697C435.581 31.0152 435.579 31.7596 435.573 32.6582C435.561 34.4518 435.533 36.8573 435.523 39.4883C435.504 44.7461 435.555 50.9507 435.95 55.0879C436.049 56.1234 436.171 57.0401 436.32 57.7852C436.466 58.5131 436.649 59.1349 436.899 59.5391C437.024 59.7406 437.205 59.9531 437.469 60.0537C437.765 60.1669 438.055 60.0988 438.288 59.9482C438.504 59.809 438.69 59.5913 438.855 59.3408C439.025 59.0841 439.195 58.7578 439.369 58.3652C440.061 56.8049 440.892 53.9858 441.899 49.5693C442.783 45.6952 443.808 40.5681 444.997 33.9395L445.518 31.0059C446.049 27.9723 446.493 26.0906 447.029 24.9414C447.293 24.3761 447.565 24.0218 447.85 23.7959C448.093 23.6025 448.373 23.483 448.721 23.4229L448.874 23.4014Z" stroke="white" stroke-opacity="0.3"/>
<path d="M437.434 72.0605C438.392 71.8531 439.228 72.1406 439.922 72.6934C440.538 73.1842 441.029 73.8778 441.351 74.583L441.479 74.8857C441.858 75.8694 441.984 76.8906 442.047 77.7373C442.077 78.1356 442.096 78.5563 442.121 78.8428C442.134 78.9944 442.152 79.1429 442.18 79.2725C442.204 79.3862 442.25 79.5574 442.361 79.6982L442.557 79.9443L442.862 79.875C443.018 79.84 443.124 79.7509 443.183 79.6934C443.245 79.6318 443.296 79.5623 443.335 79.5029C443.413 79.3852 443.494 79.2317 443.575 79.0771C443.745 78.7542 443.957 78.3374 444.268 77.8633C444.845 76.9808 445.763 75.8969 447.316 74.9805L447.636 74.7998C449.504 73.7822 451.345 73.7585 452.318 74.5039C452.787 74.8628 453.112 75.4361 453.145 76.2979C453.174 77.0655 452.97 78.0622 452.412 79.3057L452.151 79.8535C449.801 84.5236 447.46 86.2471 442.337 91.0664L441.274 92.0732C441.097 92.2425 441.004 92.3122 440.947 92.3467C440.9 92.3757 440.87 92.3861 440.77 92.4209C440.758 92.4207 440.716 92.4164 440.631 92.3721C440.499 92.3028 440.322 92.1662 440.107 91.9443C439.681 91.5033 439.18 90.8051 438.652 89.9082C437.601 88.1202 436.495 85.6268 435.709 83.0508C434.921 80.4662 434.47 77.8508 434.686 75.8027C434.793 74.7821 435.062 73.9367 435.505 73.3066C435.885 72.7656 436.407 72.3627 437.117 72.1436L437.434 72.0605Z" stroke="white" stroke-opacity="0.3"/>
<path d="M356.153 14.1123C356.723 13.5939 357.45 13.388 358.155 13.5176L358.296 13.5479C358.854 13.6866 359.208 13.9265 359.452 14.2412C359.705 14.5672 359.874 15.0149 359.98 15.6211C360.087 16.2282 360.126 16.9527 360.149 17.8057C360.167 18.4366 360.177 19.1386 360.202 19.8906L360.233 20.6592C360.335 22.6945 360.388 25.3979 360.446 28.2979C360.504 31.1935 360.567 34.281 360.691 37.0713C360.815 39.8553 361.001 42.3687 361.308 44.1074C361.459 44.9655 361.649 45.6908 361.905 46.167C362.031 46.4014 362.208 46.643 362.468 46.7764C362.731 46.9118 363.008 46.9012 363.254 46.791L363.357 46.7373C363.636 46.5755 363.822 46.2911 363.956 46.0078C364.096 45.7119 364.211 45.3444 364.309 44.9297C364.505 44.0987 364.649 43.0026 364.759 41.7373C364.979 39.2027 365.071 35.908 365.146 32.5205C365.221 29.125 365.28 25.6326 365.436 22.6768C365.514 21.1993 365.615 19.8634 365.754 18.7471C365.876 17.7629 366.025 16.9744 366.201 16.415L366.278 16.1895C366.593 15.3472 367.467 15.0129 368.324 15.332C369.107 15.6233 369.926 16.5099 370.006 18.2227L370.012 18.5762C370.01 18.7158 369.885 32.8168 369.885 32.9375L369.899 35.1562C369.966 40.124 370.256 43.6402 370.7 45.9043C370.952 47.1855 371.263 48.1283 371.653 48.7031C371.851 48.9939 372.102 49.2391 372.423 49.3506C372.764 49.469 373.099 49.4077 373.391 49.2441C373.668 49.0883 373.915 48.8367 374.136 48.54C374.36 48.2388 374.579 47.8633 374.792 47.4268C375.218 46.5538 375.641 45.3953 376.051 44.001C376.768 41.5585 377.454 38.351 378.035 34.5967L378.278 32.9551C378.413 31.9981 378.609 31.1798 378.963 30.624C379.134 30.3555 379.333 30.1622 379.569 30.0391C379.775 29.9319 380.034 29.8654 380.368 29.8701L380.517 29.876C380.979 29.9093 381.319 30.1176 381.585 30.5078C381.867 30.921 382.069 31.548 382.179 32.3945C382.397 34.0853 382.223 36.4542 381.829 39.1943C381.437 41.924 380.835 44.9756 380.221 48.0156C379.685 50.6703 379.139 53.3184 378.722 55.7168L378.552 56.7285C377.804 61.3274 376.49 65.5492 375.426 70.2539C374.434 74.6388 373.685 79.359 373.896 84.9668L373.951 86.1006L373.952 86.1074C376.235 116.854 380.635 144.946 383.966 175.579H355.479C356.005 168.362 357.796 149.608 358.159 131.438C358.345 122.118 358.156 112.929 357.224 105.511C356.758 101.802 356.103 98.5181 355.21 95.875C354.377 93.4094 353.316 91.4436 351.954 90.2275L351.678 89.9941C349.874 88.5609 347.92 85.7858 345.928 82.2695C343.945 78.77 341.958 74.5981 340.073 70.4297C339.131 68.3465 338.216 66.2667 337.34 64.2744C336.464 62.2833 335.628 60.3785 334.845 58.6484C333.386 55.4235 332.091 52.7524 331.059 51.2607L330.855 50.9785C330.506 50.5117 330.433 50.1533 330.464 49.8994C330.495 49.6457 330.639 49.4073 330.903 49.2002C331.42 48.7948 332.28 48.6058 332.992 48.7412L333.132 48.7725C334.902 49.231 336.681 50.9281 338.396 53.2168C340.095 55.4827 341.654 58.2176 343.021 60.6035C343.7 61.7904 344.336 62.8944 344.911 63.7969C345.479 64.6866 346.02 65.432 346.52 65.8633C346.767 66.0768 347.063 66.2656 347.395 66.3037C347.772 66.347 348.095 66.1865 348.33 65.9072C348.546 65.6515 348.696 65.2911 348.811 64.8691C348.898 64.546 348.971 64.1608 349.03 63.7109L349.085 63.2393C349.317 60.9636 349.015 57.953 348.458 54.5732C347.899 51.1847 347.075 47.377 346.242 43.4951C344.622 35.943 342.977 28.1367 343.102 22.3857L343.12 21.835C343.175 20.5493 344.008 19.8433 344.92 19.7275C345.83 19.6122 346.865 20.0819 347.333 21.3252C347.334 21.3302 347.336 21.3356 347.337 21.3418C347.345 21.3802 347.356 21.4375 347.371 21.5117C347.402 21.6642 347.443 21.8708 347.499 22.1504C347.61 22.7014 347.768 23.4906 347.967 24.4521C348.363 26.3751 348.917 28.9901 349.554 31.7793C350.742 36.9848 352.233 42.8677 353.54 45.9541L353.799 46.5332C354.039 47.0392 354.256 47.449 354.454 47.7617C354.644 48.0614 354.844 48.3208 355.062 48.4756C355.176 48.5561 355.332 48.634 355.52 48.6406C355.724 48.6477 355.898 48.568 356.027 48.4502C356.245 48.2517 356.341 47.9401 356.396 47.6836C356.518 47.1243 356.554 46.2596 356.541 45.1895C356.528 44.1053 356.464 42.7654 356.37 41.2324C356.019 35.4717 355.247 26.9317 355.117 18.583L355.1 16.916C355.093 15.5975 355.547 14.664 356.153 14.1123Z" stroke="white" stroke-opacity="0.3"/>
<path d="M355.213 60.0547C356.133 59.7159 357.002 59.8839 357.766 60.335C358.444 60.7354 359.027 61.354 359.443 62.0078L359.611 62.29C360.124 63.2115 360.39 64.2054 360.57 65.0352C360.655 65.4255 360.733 65.8389 360.798 66.1191C360.832 66.2675 360.87 66.4127 360.915 66.5371C360.955 66.6464 361.024 66.8098 361.154 66.9336L361.382 67.1494L361.675 67.0391C361.825 66.9827 361.918 66.8785 361.968 66.8135C362.021 66.744 362.06 66.6686 362.091 66.6045C362.152 66.477 362.212 66.3138 362.271 66.1494C362.393 65.8061 362.547 65.3642 362.788 64.8516C363.238 63.8974 363.996 62.6965 365.406 61.5732L365.697 61.3496C367.406 60.0824 369.225 59.8026 370.293 60.4053C370.807 60.6956 371.209 61.2185 371.361 62.0674C371.497 62.8235 371.433 63.8393 371.054 65.1484L370.871 65.7275C369.193 70.6785 367.113 72.7104 362.71 78.1943L361.798 79.3389C361.645 79.5316 361.562 79.6134 361.511 79.6553C361.468 79.6906 361.44 79.7046 361.346 79.7529C361.334 79.7543 361.292 79.756 361.201 79.7236C361.061 79.6733 360.867 79.5638 360.624 79.374C360.14 78.9965 359.547 78.3747 358.899 77.5596C357.61 75.935 356.168 73.6195 355.032 71.1777C353.892 68.7277 353.083 66.1997 353.012 64.1416C352.976 63.1159 353.126 62.2412 353.477 61.5557C353.778 60.9669 354.239 60.4954 354.912 60.1797L355.213 60.0547Z" stroke="white" stroke-opacity="0.3"/>
<g opacity="0.4">
<path d="M141.759 1.56055C142.507 1.37475 143.294 1.57204 143.901 2.125C144.47 2.64232 144.904 3.4953 144.951 4.68652L144.955 4.92871C144.913 13.7929 144.059 23.1002 143.685 29.2451C143.591 30.7781 143.527 32.118 143.514 33.2021C143.501 34.2724 143.537 35.137 143.658 35.6963C143.714 35.9528 143.81 36.2644 144.027 36.4629C144.156 36.5807 144.331 36.6604 144.535 36.6533C144.722 36.6467 144.877 36.5687 144.991 36.4883C145.21 36.3335 145.411 36.0742 145.601 35.7744C145.749 35.5398 145.908 35.2506 146.08 34.9072L146.256 34.5459C147.621 31.6679 149.234 25.3445 150.501 19.792C151.138 17.0028 151.691 14.3878 152.088 12.4648C152.286 11.5033 152.445 10.7141 152.556 10.1631C152.612 9.88353 152.653 9.67692 152.684 9.52441C152.698 9.45016 152.71 9.39286 152.718 9.35449C152.719 9.34841 152.72 9.34282 152.721 9.33789C153.189 8.0945 154.224 7.6241 155.134 7.73926C155.988 7.84766 156.776 8.47578 156.916 9.61328L156.935 9.84766C157.182 15.6447 155.485 23.7119 153.812 31.5078C152.98 35.3897 152.156 39.1974 151.597 42.5859C151.074 45.7544 150.775 48.5982 150.932 50.8164L150.969 51.252C151.036 51.9094 151.126 52.451 151.243 52.8818C151.358 53.3039 151.509 53.6642 151.725 53.9199C151.96 54.1992 152.283 54.3597 152.66 54.3164C152.992 54.2783 153.287 54.0894 153.534 53.876C154.034 53.4447 154.576 52.6995 155.144 51.8096C155.719 50.9071 156.354 49.8031 157.034 48.6162C158.401 46.2303 159.959 43.4954 161.658 41.2295C163.267 39.084 164.93 37.4584 166.59 36.8857L166.922 36.7852C167.659 36.5943 168.6 36.7806 169.151 37.2129C169.415 37.42 169.56 37.6584 169.591 37.9121C169.618 38.1343 169.565 38.4364 169.317 38.8213L169.199 38.9912C168.136 40.4118 166.766 43.2205 165.21 46.6602C164.427 48.3903 163.59 50.2958 162.715 52.2871C161.839 54.2794 160.923 56.3592 159.981 58.4424C158.096 62.6108 156.11 66.7827 154.127 70.2822C152.259 73.5788 150.425 76.224 148.717 77.7227L148.377 78.0068C146.88 79.1962 145.733 81.2575 144.844 83.8877C143.95 86.5307 143.297 89.8141 142.831 93.5225C141.899 100.941 141.709 110.13 141.896 119.45C142.258 137.621 144.049 156.375 144.576 163.592H116.089C119.315 133.921 123.544 106.636 125.881 77.0127L126.103 74.1201V74.1133C126.469 68.0027 125.687 62.9438 124.629 58.2666C123.632 53.856 122.414 49.87 121.649 45.5996L121.503 44.7412C121.071 42.0873 120.447 39.0622 119.834 36.0283C119.22 32.9883 118.618 29.9368 118.226 27.207C117.832 24.4667 117.657 22.0971 117.876 20.4062C117.985 19.5599 118.188 18.9337 118.47 18.5205C118.703 18.1789 118.991 17.9767 119.37 17.9092L119.538 17.8887C119.946 17.8594 120.249 17.9293 120.484 18.0518C120.721 18.1749 120.921 18.368 121.092 18.6367C121.401 19.123 121.59 19.8101 121.723 20.6152L121.776 20.9678C122.405 25.4317 123.184 29.2224 124.004 32.0137C124.413 33.4079 124.837 34.5665 125.263 35.4395C125.476 35.8759 125.695 36.2516 125.919 36.5527C126.14 36.8493 126.386 37.101 126.663 37.2568C126.954 37.4205 127.291 37.4818 127.632 37.3633C127.953 37.2517 128.204 37.0057 128.401 36.7148C128.792 36.14 129.103 35.1977 129.354 33.917C129.862 31.3295 130.169 27.1063 130.17 20.9502L130.043 6.58789C130.02 4.6431 130.896 3.65533 131.73 3.34473C132.534 3.04571 133.352 3.32049 133.71 4.0498L133.775 4.20215C133.986 4.76571 134.16 5.63489 134.3 6.75977C134.439 7.87612 134.541 9.21198 134.619 10.6895C134.775 13.6453 134.834 17.1377 134.909 20.5332C134.984 23.9208 135.075 27.2153 135.296 29.75C135.406 31.0154 135.55 32.1113 135.746 32.9424C135.844 33.357 135.958 33.7247 136.098 34.0205C136.215 34.2685 136.372 34.5178 136.597 34.6846L136.697 34.75C136.968 34.9072 137.286 34.9438 137.587 34.7891C137.846 34.6556 138.023 34.4141 138.149 34.1797C138.405 33.7035 138.596 32.9782 138.747 32.1201C139.054 30.3814 139.239 27.868 139.363 25.084C139.488 22.2937 139.551 19.2062 139.608 16.3105C139.652 14.1353 139.692 12.0704 139.753 10.3154L139.82 8.67188C139.873 7.62777 139.882 6.65962 139.905 5.81836C139.929 4.96535 139.967 4.24089 140.074 3.63379C140.181 3.02759 140.349 2.57985 140.603 2.25391C140.816 1.9786 141.114 1.7604 141.559 1.61719L141.759 1.56055Z" stroke="white"/>
<path d="M133.727 48.8037C134.198 48.6254 134.7 48.6147 135.206 48.8057C135.718 48.9988 136.265 49.4107 136.787 50.126V50.125C137.377 50.9335 137.822 51.9944 138.122 52.9805C138.134 53.0258 138.15 53.0615 138.162 53.085L138.473 53.708L138.963 53.2148L138.994 53.1846L139.02 53.1494C139.605 52.3491 140.917 50.9772 142.164 50.1133L142.413 49.9473L142.415 49.9463C144.162 48.8137 145.573 48.8821 146.39 49.6309C147.245 50.4155 147.716 52.1648 147.049 54.9834C146.028 59.186 143.003 63.4084 139.907 66.6963L139.288 67.3418L139.287 67.3428C139.072 67.5639 138.848 67.7845 138.622 68.0078C138.474 67.8441 138.28 67.6299 138.056 67.3691C137.635 66.8815 137.1 66.2348 136.512 65.4658L135.908 64.6572C134.49 62.6964 133.461 60.9297 132.75 59.417L132.465 58.7842L132.463 58.7803L132.284 58.3623C131.477 56.4023 131.038 54.3288 131.394 52.3457L131.481 51.9229L131.482 51.918C131.865 50.2595 132.769 49.1662 133.727 48.8037Z" stroke="white"/>
</g>
<path d="M274.895 24.5088L275.06 24.5244C275.48 24.5741 275.805 24.6981 276.084 24.9189C276.369 25.1448 276.641 25.4992 276.904 26.0645C277.373 27.07 277.773 28.636 278.222 31.0439L278.417 32.1289C279.83 40.2006 281.024 46.2648 282.034 50.6924C283.042 55.1088 283.873 57.928 284.564 59.4883C284.739 59.881 284.909 60.2071 285.079 60.4639C285.245 60.7143 285.43 60.9321 285.646 61.0713C285.879 61.2219 286.168 61.2899 286.465 61.1768C286.728 61.0762 286.909 60.8637 287.034 60.6621C287.284 60.258 287.468 59.6363 287.614 58.9082C287.764 58.1631 287.885 57.2457 287.983 56.21C288.378 52.0727 288.431 45.869 288.411 40.6113C288.401 37.9804 288.373 35.5748 288.36 33.7812C288.354 32.8827 288.353 32.1382 288.358 31.5928C288.361 31.3199 288.366 31.1007 288.373 30.9385L288.391 30.6943C288.683 29.4845 289.616 28.9528 290.55 29.0068C291.488 29.0612 292.451 29.7141 292.747 31.0049C294.147 40.6111 294.333 46.0102 294.581 51.6689C294.83 57.348 295.144 63.2783 296.81 73.9229L296.812 73.9355L296.814 73.9473C297.243 76.009 297.682 77.4374 298.157 78.3145C298.394 78.7514 298.666 79.1031 298.996 79.3105C299.356 79.5362 299.749 79.5685 300.128 79.4229C300.475 79.2893 300.779 79.0187 301.045 78.7031C301.316 78.3813 301.582 77.9717 301.846 77.5029C302.372 76.5652 302.919 75.3311 303.492 73.9473C304.647 71.1584 305.917 67.7395 307.398 64.6475C308.794 61.735 310.33 59.2201 312.041 57.8398L312.386 57.5791C313.797 56.5826 315.365 56.4111 316.341 56.7676C316.821 56.9429 317.123 57.2291 317.251 57.5703C317.362 57.8683 317.369 58.2868 317.133 58.8398L317.016 59.085C313.648 65.5341 311.713 72.2183 309.979 79.2959L309.244 82.3535C308.774 84.3382 307.687 86.6705 306.28 89.1064C304.878 91.536 303.175 94.0399 301.499 96.3643C299.823 98.6889 298.18 100.824 296.893 102.524C296.251 103.373 295.695 104.116 295.271 104.717C294.909 105.229 294.618 105.672 294.459 105.999L294.398 106.132C292.891 109.796 292.487 115.328 292.764 121.726C293.041 128.143 294.007 135.502 295.291 142.865C297.787 157.178 301.493 171.549 303.713 179.129C285.274 179.129 276.657 179.147 272.653 179.138C271.129 179.134 270.285 179.126 269.825 179.113C270.573 171.659 272.853 159.658 272.613 142.622C272.376 125.792 269.682 104.021 260.648 76.6973L259.754 74.0352C255.872 62.6604 253.279 55.9529 252.141 51.8867C251.568 49.8426 251.398 48.5729 251.558 47.7539C251.634 47.365 251.782 47.0915 251.994 46.8799C252.158 46.7162 252.376 46.5731 252.666 46.4473L252.98 46.3271C253.403 46.1845 253.739 46.1654 254.016 46.2227C254.291 46.2795 254.548 46.4199 254.805 46.6641C255.339 47.1734 255.814 48.0794 256.33 49.3828C257.334 51.9184 258.434 55.8131 260.521 60.0127V60.0137C261.979 63.2981 263.06 65.4546 263.833 66.6943C264.211 67.2996 264.551 67.7451 264.859 67.9785C265.01 68.0923 265.241 68.2231 265.518 68.1865C265.828 68.1454 266.006 67.9237 266.095 67.7432C266.181 67.5668 266.224 67.3564 266.246 67.1514C266.27 66.9385 266.276 66.6919 266.269 66.4209C266.255 65.8787 266.188 65.1993 266.08 64.4189C265.864 62.8562 265.48 60.8422 265.003 58.6162C264.048 54.1617 262.715 48.8199 261.592 44.459C260.746 41.1748 260.024 38.4645 259.668 37.0879L259.441 36.1836C259.161 34.8749 259.882 33.7053 260.881 33.2393C261.373 33.0097 261.919 32.958 262.439 33.1348C262.893 33.2888 263.366 33.6296 263.78 34.251L263.954 34.5352C264.006 34.6277 264.136 34.961 264.344 35.5596C264.543 36.1347 264.798 36.9063 265.098 37.8271C265.397 38.7473 265.739 39.8135 266.113 40.9785C266.488 42.1433 266.894 43.4062 267.32 44.7178C269.023 49.956 271.057 55.9999 272.671 59.6992C273.075 60.6249 273.458 61.4172 273.809 62.0176C273.984 62.3174 274.156 62.579 274.324 62.7891C274.487 62.9918 274.673 63.1818 274.883 63.2969C275.111 63.4221 275.422 63.4808 275.719 63.2988C275.967 63.1463 276.1 62.8824 276.181 62.6475C276.347 62.1619 276.422 61.3945 276.425 60.3545C276.437 56.4204 275.415 47.6832 272.764 31.6094L272.212 28.2959C271.988 26.9642 272.297 25.9732 272.832 25.3506C273.334 24.7669 274.072 24.4585 274.895 24.5088Z" stroke="white" stroke-opacity="0.3"/>
<path d="M282.862 75.1484C284.254 73.6008 285.634 73.3 286.617 73.8105C287.583 74.3123 288.444 75.7209 288.62 78.2822L288.646 78.8105C288.753 83.1334 286.931 87.9955 284.798 91.9746L284.367 92.7588L284.366 92.7598C284.216 93.0292 284.058 93.3006 283.897 93.5752C283.712 93.4557 283.469 93.2998 283.185 93.1064C282.474 92.6243 281.492 91.9226 280.405 91.0459H280.406C278.526 89.5212 277.073 88.0828 275.993 86.8066L275.553 86.2705L275.55 86.2666L275.27 85.9092C273.98 84.2266 273.016 82.3393 272.844 80.332L272.819 79.9004V79.8965L272.814 79.582C272.831 78.0361 273.397 76.8664 274.176 76.3047C274.584 76.0101 275.066 75.8691 275.604 75.9219C276.149 75.9752 276.784 76.2298 277.474 76.7842V76.7852C278.251 77.4102 278.955 78.3142 279.501 79.1855C279.525 79.2299 279.554 79.2675 279.583 79.2979L280.05 79.7881L280.381 79.1982V79.1992L280.383 79.1963L280.402 79.1621L280.416 79.125C280.774 78.1998 281.684 76.5336 282.664 75.375L282.86 75.1504L282.862 75.1484Z" stroke="white" stroke-opacity="0.3"/>
<path d="M35.4766 26.5527C36.2848 26.4573 37.0141 26.7375 37.499 27.3018C37.9537 27.8308 38.2319 28.6569 38.0957 29.7637L38.0635 29.9893C35.2363 46.7873 34.1618 55.7078 34.1738 59.585C34.1768 60.5452 34.2456 61.2592 34.4014 61.7139C34.4767 61.9335 34.6031 62.1881 34.8438 62.3359C35.1326 62.5134 35.4353 62.454 35.6543 62.334C35.8546 62.2241 36.0296 62.0449 36.1807 61.8564C36.3377 61.6605 36.4981 61.4173 36.6602 61.1396C36.9847 60.5836 37.3398 59.8511 37.7129 58.9961C39.2037 55.5798 41.0806 49.9995 42.6523 45.165C43.0459 43.9544 43.4211 42.788 43.7666 41.7129C44.1122 40.6377 44.4282 39.6538 44.7041 38.8047C44.9802 37.9549 45.2156 37.2433 45.3994 36.7129C45.5436 36.2969 45.6462 36.0217 45.708 35.876L45.7559 35.7734C46.17 35.038 46.6647 34.657 47.1328 34.498C47.603 34.3384 48.0966 34.3854 48.543 34.5938C49.3931 34.9905 50.0217 35.9487 49.8867 37.0469L49.8496 37.2676C49.7436 37.7618 48.9075 40.8607 47.8662 44.9043C46.8297 48.9294 45.598 53.8604 44.7168 57.9727C44.2765 60.0274 43.922 61.8873 43.7227 63.3311C43.6231 64.052 43.5608 64.6811 43.5479 65.1836C43.5414 65.4346 43.5465 65.6637 43.5684 65.8623C43.5894 66.0533 43.6293 66.2522 43.7119 66.4209C43.7967 66.5938 43.9696 66.8122 44.2744 66.8525C44.5445 66.8883 44.7683 66.7595 44.9102 66.6523C45.2014 66.4323 45.5177 66.0156 45.8662 65.457C46.4921 64.4536 47.3351 62.8023 48.4375 60.374L48.9258 59.2852C50.8526 55.4082 51.8702 51.8075 52.7949 49.4727C53.2714 48.2696 53.7069 47.4403 54.1934 46.9766C54.4257 46.7552 54.6578 46.6298 54.9033 46.5791C55.12 46.5344 55.3789 46.5411 55.6982 46.6309L55.8389 46.6748C56.2532 46.8148 56.5383 46.9801 56.7344 47.1758C56.9237 47.3649 57.0572 47.61 57.126 47.9619C57.2716 48.7079 57.1173 49.872 56.5889 51.7588C55.6694 55.0415 53.7234 60.1895 50.8506 68.46L49.5625 72.1992C40.5602 98.5782 37.9172 119.476 37.6914 135.516C37.4705 151.211 39.566 162.279 40.2598 169.159C39.8278 169.17 39.0554 169.178 37.6934 169.181C34.0019 169.189 26.0603 169.173 9.07715 169.173C11.1276 162.163 14.5382 148.929 16.8369 135.748C18.0223 128.951 18.9139 122.156 19.1699 116.23C19.4171 110.51 19.076 105.532 17.7861 102.145L17.6582 101.821C17.5291 101.508 17.2305 101.047 16.8496 100.508C16.4577 99.9527 15.9441 99.2663 15.3516 98.4834C14.1634 96.9137 12.6473 94.9438 11.1006 92.7988C9.55388 90.6538 7.98326 88.3434 6.68945 86.1025C5.47307 83.9957 4.51677 81.9757 4.0459 80.2266L3.95801 79.8809C2.21834 72.5301 0.45045 65.6463 -2.89062 59.0342L-3.21875 58.3955C-3.54141 57.7776 -3.5461 57.3294 -3.43359 57.0283C-3.32075 56.7264 -3.0515 56.4695 -2.61621 56.3105C-1.78475 56.007 -0.4721 56.1227 0.754883 56.8916L0.999023 57.0547C2.69825 58.2551 4.21611 60.697 5.58984 63.5645C6.95644 66.417 8.12719 69.5696 9.19336 72.1455C9.72206 73.4229 10.2276 74.564 10.7148 75.4316C10.9585 75.8655 11.2062 76.2462 11.459 76.5459C11.7063 76.8391 11.9912 77.094 12.3203 77.2207C12.6811 77.3595 13.0572 77.3281 13.3994 77.1133C13.7125 76.9168 13.9677 76.5863 14.1875 76.1807C14.6289 75.3659 15.0354 74.0422 15.4307 72.1387L15.4336 72.127L15.4355 72.1143C16.9729 62.2877 17.263 56.8129 17.4932 51.5703C17.7225 46.3475 17.8917 41.3656 19.1836 32.501C19.4537 31.3288 20.3286 30.7398 21.1768 30.6904C21.968 30.6446 22.76 31.0628 23.0742 32.0195L23.1309 32.2178C23.1299 32.2148 23.1383 32.2717 23.1455 32.4365C23.152 32.5856 23.1565 32.7874 23.1592 33.0391C23.1645 33.542 23.1629 34.2284 23.1572 35.0576C23.1459 36.7128 23.1204 38.9339 23.1113 41.3623C23.0932 46.2149 23.1402 51.9429 23.5049 55.7637C23.5962 56.7203 23.7084 57.5683 23.8467 58.2578C23.9816 58.9304 24.1518 59.5104 24.3867 59.8896C24.5039 60.0788 24.6771 60.2827 24.9316 60.3799C25.2192 60.4897 25.4995 60.4234 25.7227 60.2793C25.9281 60.1466 26.1029 59.9401 26.2568 59.707C26.4149 59.4678 26.5733 59.1651 26.7344 58.8018C27.3743 57.3579 28.1422 54.7523 29.0723 50.6758C29.8883 47.0991 30.8342 42.3659 31.9316 36.2471L32.4121 33.54C32.9023 30.7396 33.3123 29.0085 33.8047 27.9531C34.0466 27.4346 34.294 27.1128 34.5508 26.9092C34.77 26.7354 35.0211 26.6268 35.3369 26.5723L35.4766 26.5527Z" stroke="white" stroke-opacity="0.3"/>
<path d="M24.9326 71.4629C25.8036 71.2743 26.5641 71.5346 27.1973 72.0391C27.7604 72.4877 28.2103 73.123 28.5049 73.7695L28.6211 74.0469C28.9694 74.9492 29.0853 75.8867 29.1436 76.667C29.1708 77.0322 29.1886 77.4244 29.2119 77.6885C29.2243 77.8289 29.2406 77.968 29.2666 78.0898C29.2892 78.1959 29.3335 78.3608 29.4424 78.498L29.6377 78.7441L29.9434 78.6758C30.0974 78.6412 30.2018 78.5526 30.2578 78.4971C30.3179 78.4375 30.3665 78.3712 30.4033 78.3154C30.4764 78.2048 30.5523 78.0612 30.627 77.9189C30.7835 77.6206 30.9793 77.2375 31.2646 76.8018C31.7955 75.9912 32.6382 74.9956 34.0654 74.1533L34.3594 73.9873C36.0782 73.0514 37.7577 73.0365 38.6387 73.7109C39.0611 74.0343 39.3565 74.5517 39.3867 75.3369C39.4136 76.0378 39.2272 76.9524 38.7139 78.0967L38.4736 78.6006C36.3085 82.9037 34.1543 84.4883 29.4238 88.9385L28.4424 89.8682C28.279 90.0242 28.1951 90.0866 28.1465 90.1162C28.1076 90.1398 28.0842 90.1474 27.9971 90.1777C27.9828 90.1754 27.9494 90.1675 27.8926 90.1377C27.7758 90.0763 27.6165 89.9541 27.4199 89.751C27.029 89.3471 26.5682 88.7056 26.082 87.8789C25.1131 86.2314 24.0936 83.9326 23.3691 81.5576C22.6421 79.174 22.228 76.7656 22.4258 74.8828C22.5243 73.9447 22.7721 73.1711 23.1758 72.5967C23.5217 72.1045 23.996 71.7378 24.6436 71.5381L24.9326 71.4629Z" stroke="white" stroke-opacity="0.3"/>
</svg>
