<svg width="115" height="385" viewBox="0 0 115 385" fill="none" xmlns="http://www.w3.org/2000/svg">
<path d="M75.6883 130.739C75.6883 130.739 50.4994 87.7328 50.9573 46.3198C51.4166 4.9082 53.7251 0.902878 53.7251 0.902878C53.7251 0.902878 63.5822 81.2361 75.6883 130.739Z" fill="#8EC44D"/>
<path d="M92.4564 171.462C92.4564 171.462 82.3992 122.864 96.1771 83.6023C109.956 44.3428 113.438 41.2366 113.438 41.2366C113.438 41.2366 96.9137 120.671 92.4564 171.462Z" fill="#8EC44D"/>
<path d="M124.589 235.058C124.589 235.058 114.532 186.459 128.311 147.198C142.089 107.937 145.571 104.83 145.571 104.83C145.571 104.83 129.045 184.266 124.589 235.058Z" fill="#8EC44D"/>
<path d="M80.8661 142.528C80.8661 142.528 70.9995 93.8943 84.9289 54.6844C98.8583 15.4757 102.352 12.3813 102.352 12.3813C102.352 12.3813 85.5197 91.754 80.8661 142.528Z" fill="#CCE4AF"/>
<path d="M108.187 202.431C108.187 202.431 98.3208 153.795 112.25 114.588C126.179 75.3781 129.671 72.285 129.671 72.285C129.671 72.285 112.841 151.658 108.187 202.431Z" fill="#CCE4AF"/>
<path d="M78.6865 139.963C78.6865 139.963 164.232 379.483 299.685 382.36" stroke="#CCE4AF" stroke-width="3.3184" stroke-miterlimit="10"/>
<path d="M87.2429 153.355C87.2429 153.355 74.1296 105.866 44.1555 77.1268C14.1813 48.3875 9.69336 47.1647 9.69336 47.1647C9.69336 47.1647 60.2945 110.301 87.2429 153.355Z" fill="#CCE4AF"/>
<path d="M107.787 200.415C107.787 200.415 80.2199 159.585 42.6326 141.553C5.04533 123.522 0.399414 123.728 0.399414 123.728C0.399414 123.728 68.5078 167.961 107.787 200.415Z" fill="#CCE4AF"/>
<path d="M142.469 265.28C142.469 265.28 114.9 224.449 77.3141 206.419C39.7268 188.387 35.0811 188.594 35.0811 188.594C35.0811 188.594 103.191 232.826 142.469 265.28Z" fill="#CCE4AF"/>
<path d="M191.069 326.645C191.069 326.645 156.136 291.767 115.778 281.006C75.4196 270.245 70.9014 271.295 70.9014 271.295C70.9014 271.295 146.266 302.094 191.069 326.645Z" fill="#CCE4AF"/>
<path d="M99.0111 180.935C99.0111 180.935 79.9292 135.545 46.5332 110.765C13.1362 85.987 8.53027 85.3241 8.53027 85.3241C8.53027 85.3241 66.7812 141.622 99.0111 180.935Z" fill="#8EC44D"/>
<path d="M122.313 230.394C122.313 230.394 94.3925 189.802 56.6504 172.084C18.9083 154.368 14.2646 154.612 14.2646 154.612C14.2646 154.612 82.7555 198.273 122.313 230.394Z" fill="#8EC44D"/>
<path d="M170.575 303.665C170.575 303.665 142.654 263.072 104.913 245.356C67.1724 227.639 62.5273 227.885 62.5273 227.885C62.5273 227.885 131.017 271.544 170.575 303.665Z" fill="#8EC44D"/>
<path d="M201.968 335.494C201.968 335.494 161.085 307.593 119.435 304.237C77.7858 300.881 73.5488 302.71 73.5488 302.71C73.5488 302.71 153.348 319.444 201.968 335.494Z" fill="#8EC44D"/>
</svg>
