<svg width="117" height="75" viewBox="0 0 117 75" fill="none" xmlns="http://www.w3.org/2000/svg">
<path d="M55.3679 15.9926C51.6055 13.8096 46.8526 13.4823 43.1096 15.8886C40.1556 17.7877 38.8275 22.8463 41.3766 25.6134C44.0521 28.5201 48.0674 27.0213 51.1564 28.8466C58.3258 33.083 48.1069 37.213 43.7457 34.6174C41.5907 33.3351 39.6413 36.6886 41.7885 37.9655C47.1202 41.1391 60.6763 38.3673 57.2258 29.8846C55.6518 26.0129 51.6552 24.525 47.8556 24.0913C45.3065 23.8004 42.126 22.4933 44.8884 19.4151C46.9379 17.1298 51.161 18.0359 53.4099 19.3399C55.5781 20.5997 57.5307 17.2462 55.3679 15.9926Z" fill="#FBD459"/>
<path d="M51.9026 43.3153C50.805 32.7667 50.6971 22.1701 50.5684 11.575C50.5373 9.07552 46.6586 9.07242 46.6896 11.575C46.8184 22.1701 46.9262 32.7667 48.0239 43.3153C48.2799 45.7775 52.161 45.8023 51.9026 43.3153Z" fill="#FBD459"/>
<path d="M96.1047 31.3612C81.9962 30.3908 70.0118 47.3004 75.9028 61.7052C80.2221 72.3197 92.326 77.8026 103.477 73.5593C114.854 69.2307 118.157 58.9032 115.75 49.0272C113.725 39.1458 106.389 31.2355 96.4856 31.3565" fill="white"/>
<path d="M101.447 43.7307C98.3103 41.9108 94.3292 41.6408 91.2083 43.6469C88.6243 45.3093 87.5197 49.6519 89.7375 52.0622C91.9453 54.46 95.1538 53.2304 97.6765 54.7198C102.964 57.8437 95.1584 60.5208 92.1035 58.7033C89.9493 57.421 87.9991 60.7745 90.1464 62.0514C94.6961 64.7587 106.027 62.2903 103.114 55.1248C101.778 51.8372 98.4561 50.558 95.2151 50.1895C93.486 49.9925 91.13 49.2741 93.0988 47.0795C94.6286 45.3744 97.827 46.1153 99.4886 47.0788C101.656 48.337 103.609 44.9843 101.447 43.7307Z" fill="#FBD459"/>
<path d="M98.8463 66.021C97.9705 57.5406 97.8774 49.0252 97.7734 40.5076C97.7424 38.0081 93.8637 38.005 93.8947 40.5076C93.9987 49.0252 94.0918 57.5406 94.9676 66.021C95.222 68.4832 99.1031 68.508 98.8463 66.021Z" fill="#FBD459"/>
<path d="M98.0555 14.3938C98.1098 10.6531 98.1354 6.91329 98.0998 3.17498C98.0904 2.31701 97.625 1.76078 97.0215 1.49083C96.7112 1.17898 96.2682 0.979647 95.6825 1.00447C81.5407 1.60334 67.2934 1.17509 53.1454 1.0789C36.3824 0.965642 19.5084 1.12469 2.77329 0.0052936C1.28387 -0.0947773 0.695067 1.24336 0.982868 2.37594C0.89676 2.59625 0.844025 2.84372 0.847904 3.1292C1.05813 19.5036 1.91844 36.0751 0.738531 52.4238C0.643114 53.7434 1.68183 54.3539 2.71046 54.2763C2.84777 54.3167 2.99439 54.3454 3.15186 54.357C16.7134 55.4399 30.3618 55.6106 43.9591 55.7843C53.7901 55.91 63.7266 56.263 73.5514 55.7495C76.0392 55.6191 76.0516 51.7396 73.5514 51.8707C63.7242 52.3843 53.7901 52.0243 43.9591 51.9056C34.1552 51.7877 24.325 51.6551 14.5204 51.1873C14.0154 44.9845 10.786 40.6527 5.19207 38.1183C5.28826 30.9474 5.14862 23.7578 4.98959 16.5837C11.5074 16.6488 16.8561 10.8742 16.3946 4.53641C28.6389 4.92972 40.9205 4.87151 53.1447 4.95762C61.9649 5.01968 70.8246 5.20822 79.6728 5.19658C79.5339 12.9393 87.1742 16.5069 94.1512 16.2517C94.0635 21.1001 93.9146 25.9477 93.7254 30.7891C93.6284 33.2917 97.5071 33.2816 97.6041 30.7891C97.8159 25.3744 97.971 19.952 98.0517 14.5296C98.0571 14.4846 98.0548 14.4388 98.0555 14.3938ZM5.10595 42.3431C8.35941 44.1932 10.208 47.1255 10.6091 50.9786C8.64723 50.8653 6.68537 50.7374 4.72662 50.5907C4.89961 47.8462 5.02992 45.097 5.10595 42.3431ZM4.90427 12.6949C4.84066 9.79128 4.7817 6.89079 4.74059 3.99727C7.31838 4.15397 9.89929 4.28276 12.4817 4.38826C13.1217 8.81233 9.35161 12.7189 4.90427 12.6949ZM83.5709 5.17097C87.1253 5.13994 90.6774 5.06159 94.2234 4.93049C94.2373 7.42605 94.2288 9.92241 94.2024 12.4188C89.2524 12.7686 83.6407 10.5802 83.5709 5.17097Z" fill="white"/>
<path d="M26.9727 28.8622C26.9727 28.9483 26.9727 29.0344 26.9727 29.1205C26.9727 30.1771 27.8547 31.0599 28.912 31.0599C29.9694 31.0599 30.8514 30.1771 30.8514 29.1205C30.8514 29.0344 30.8514 28.9483 30.8514 28.8622C30.8514 27.8049 29.9694 26.9229 28.912 26.9229C27.8547 26.9229 26.9727 27.8049 26.9727 28.8622Z" fill="white"/>
<path d="M63.9492 27.0517C63.9492 27.2247 63.9492 27.3961 63.9492 27.5691C63.9492 28.6256 64.832 29.5084 65.8886 29.5084C66.9459 29.5084 67.8279 28.6256 67.8279 27.5691C67.8279 27.3961 67.8279 27.2247 67.8279 27.0517C67.8279 25.9943 66.9459 25.1123 65.8886 25.1123C64.832 25.1123 63.9492 25.9943 63.9492 27.0517Z" fill="white"/>
</svg>
