<svg width="24" height="24" viewBox="0 0 24 24" fill="none" xmlns="http://www.w3.org/2000/svg">
<path d="M22.8925 2.66212C23.1984 2.66212 23.4466 2.90804 23.4466 3.21143C23.4466 3.51482 23.1984 3.76074 22.8925 3.76074C22.5861 3.76074 22.3379 3.51482 22.3379 3.21143C22.3379 2.90804 22.5861 2.66212 22.8925 2.66212Z" fill="#160911"/>
<path d="M14.3666 6.37989C14.6726 6.37989 14.9208 6.62582 14.9208 6.9292C14.9208 7.23259 14.6726 7.47852 14.3666 7.47852C14.0607 7.47852 13.8125 7.23259 13.8125 6.9292C13.8125 6.62582 14.0607 6.37989 14.3666 6.37989Z" fill="#160911"/>
<path d="M12.2338 1.60548C12.5398 1.60548 12.788 1.8514 12.788 2.15479C12.788 2.45818 12.5398 2.7041 12.2338 2.7041C11.9275 2.7041 11.6797 2.45818 11.6797 2.15479C11.6797 1.8514 11.9275 1.60548 12.2338 1.60548Z" fill="#160911"/>
<path d="M6.90668 1.60548C7.21262 1.60548 7.46083 1.8514 7.46083 2.15479C7.46083 2.45818 7.21262 2.7041 6.90668 2.7041C6.60032 2.7041 6.35254 2.45818 6.35254 2.15479C6.35254 1.8514 6.60032 1.60548 6.90668 1.60548Z" fill="#160911"/>
<path d="M5.71197 9.63427C5.62643 9.59202 5.62644 9.50751 5.62644 9.423C5.62644 9.21173 5.75454 9.12722 6.01033 9.08496V9.80329C5.88222 9.71878 5.7971 9.67653 5.71197 9.63427ZM6.30868 10.8174C6.43637 10.8597 6.56405 10.9019 6.64959 10.9864C6.73471 11.0287 6.77728 11.1132 6.77728 11.1977C6.77728 11.409 6.6496 11.4935 6.35125 11.4935L6.30868 10.8174ZM5.62644 11.409C5.41321 11.3245 5.20039 11.24 5.02973 11.1132C4.9446 11.0709 4.90204 11.0287 4.90204 11.0287L4.47559 11.8315C4.90204 12.1273 5.45618 12.2963 5.96734 12.3386V13.0146H6.35125V12.3386C6.52149 12.3386 6.69215 12.2963 6.8624 12.2541C7.20374 12.1696 7.45953 11.9583 7.63019 11.6625C7.80044 11.3667 7.80044 10.9019 7.67276 10.6061C7.58721 10.3949 7.37441 10.1836 7.03307 10.0146C6.69216 9.8878 6.35124 9.80329 6.30868 9.80329V9.04271C6.69216 9.08496 7.16118 9.33849 7.2463 9.423L7.67276 8.66242C7.50209 8.57791 7.33142 8.4934 7.11862 8.40889C6.90539 8.32438 6.6496 8.28212 6.39381 8.23987V7.6483H6.01033V8.23987C5.45618 8.28212 5.02972 8.53565 4.81649 9.00045C4.73137 9.16947 4.73138 9.33849 4.73138 9.54977C4.73138 9.97231 4.90204 10.2681 5.32808 10.4794C5.62643 10.6484 5.96735 10.6906 6.09545 10.7329V11.4935C5.88222 11.4935 5.75454 11.4512 5.62644 11.409Z" fill="#160911"/>
<path d="M6.09681 6.92943C8.01504 6.92943 9.54978 8.4506 9.54978 10.3521C9.54978 12.2535 8.01504 13.7747 6.09681 13.7747C4.17859 13.7747 2.64385 12.2535 2.64385 10.3521C2.64385 8.4506 4.17859 6.92943 6.09681 6.92943ZM6.09681 14.8311C8.61174 14.8311 10.6155 12.8028 10.6155 10.3521C10.6155 7.90129 8.56918 5.87306 6.09681 5.87306C3.62403 5.87306 1.57812 7.85903 1.57812 10.3521C1.57812 12.8451 3.62403 14.8311 6.09681 14.8311Z" fill="#160911"/>
<path d="M18.4582 22.9024V8.8738C19.6946 8.11322 20.6323 7.4794 21.2715 7.0146V22.9024H18.4582ZM14.5792 10.9865C15.5169 10.5217 16.4549 10.0147 17.3925 9.50762V22.9024H14.5792V10.9865ZM10.6998 14.3669C11.254 13.7331 11.6804 12.9725 11.9362 12.1697C12.4474 11.9584 12.9589 11.7471 13.5135 11.4936V22.9024H10.6998V14.3669ZM6.82039 16.3951C7.84397 16.2684 8.82415 15.8881 9.63409 15.3388V22.9446H6.82039V16.3951ZM2.94139 15.55C3.79388 16.0571 4.73192 16.3529 5.75508 16.4374V22.9024H2.94139V15.55ZM1.06573 10.3527C1.06573 7.60616 3.32486 5.32441 6.13856 5.32441C8.95184 5.32441 11.2114 7.56391 11.2114 10.3527C11.2114 13.1415 8.95184 15.381 6.13856 15.381C3.32486 15.381 1.06573 13.0993 1.06573 10.3527ZM23.4459 22.9024H22.3802V5.95823C22.3802 5.74696 22.2521 5.57794 22.0819 5.49343C21.9112 5.40892 21.698 5.40892 21.5273 5.53568C21.5273 5.53568 20.0355 6.71881 17.6909 8.11322C15.9003 9.16958 14.0677 10.1414 12.2346 10.902C12.5755 7.31038 9.71921 4.26804 6.13856 4.26804C2.77114 4.26804 0 6.97234 0 10.3527C0 12.0852 0.724811 13.6063 1.87566 14.7472V22.9024H1.06573C0.767374 22.9024 0.511582 23.1559 0.511582 23.4517C0.511582 23.7474 0.767374 24.001 1.06573 24.001C6.13856 24.001 12.5755 24.001 23.4459 24.001C23.7443 24.001 23.9997 23.7474 23.9997 23.4517C23.9571 23.1136 23.7013 22.9024 23.4459 22.9024Z" fill="#160911"/>
<path d="M2.64331 1.0982C2.94166 1.0982 3.19745 1.35173 3.19745 1.64751C3.19745 1.9433 2.94166 2.19683 2.64331 2.19683C2.34496 2.19683 2.08916 1.9433 2.08916 1.64751C2.13173 1.35173 2.34496 1.0982 2.64331 1.0982ZM2.64331 3.21094C3.53837 3.21094 4.26317 2.49261 4.26317 1.60526C4.26317 0.717911 3.53837 -0.000418425 2.64331 -0.000418425C1.74825 -0.000418425 1.02344 0.717911 1.02344 1.60526C1.02344 2.49261 1.74825 3.21094 2.64331 3.21094Z" fill="#160911"/>
<path d="M18.6281 1.09848C19.2252 1.09848 19.6942 1.56328 19.6942 2.15484C19.6942 2.74641 19.2252 3.21121 18.6281 3.21121C18.0314 3.21121 17.5628 2.74641 17.5628 2.15484C17.5628 1.56328 18.0314 1.09848 18.6281 1.09848ZM18.6281 4.26758C19.8219 4.26758 20.7595 3.33798 20.7595 2.15484C20.7595 0.971713 19.8219 0.04211 18.6281 0.04211C17.4347 0.04211 16.4971 0.971713 16.4971 2.15484C16.4971 3.33798 17.4347 4.26758 18.6281 4.26758Z" fill="#160911"/>
</svg>
