<svg width="48" height="44" viewBox="0 0 48 44" fill="none" xmlns="http://www.w3.org/2000/svg">
<path d="M24.6386 10.693C22.7334 9.94592 21.9913 9.19879 21.9913 8.02847C21.9913 6.76265 22.8781 5.83169 24.3058 5.59905L24.6558 5.54184V3.82211H24.9158V5.52038L25.3193 5.53384C25.9953 5.55614 26.5834 5.68697 27.1063 5.93139L26.9624 6.31126C26.5287 6.11101 25.8548 5.88174 24.9625 5.88174C23.3816 5.88174 22.674 6.85351 22.674 7.81686C22.674 9.09993 23.735 9.6405 25.1228 10.2147C26.8808 10.932 27.5985 11.7561 27.5985 13.0585C27.5985 14.3862 26.641 15.4021 25.1598 15.6469L24.8098 15.7046V17.4769H24.5326V15.7012L24.1228 15.6945C23.3404 15.6806 22.4999 15.4719 21.9214 15.159L22.062 14.7665C22.767 15.1274 23.5861 15.3289 24.3799 15.3289C25.8392 15.3289 26.8976 14.4261 26.8976 13.1822C26.8976 11.7876 25.6928 11.1205 24.6386 10.693ZM24.3799 14.4939C23.5688 14.4939 22.7266 14.2427 22.0704 13.8052L21.6257 13.5095L20.916 15.4913L21.1722 15.6751C21.7851 16.1118 22.7434 16.4231 23.698 16.5072V18.3115H25.6444V16.3987C27.3271 15.9856 28.4331 14.6798 28.4331 13.0585C28.4331 10.9358 26.8324 10.0111 25.44 9.44279C23.7876 8.75918 23.5091 8.38857 23.5091 7.81686C23.5091 7.28471 23.891 6.71637 24.9625 6.71637C26.0256 6.71637 26.6936 7.09835 26.9788 7.26115L27.4037 7.50346L28.1428 5.55235L27.8383 5.37399C27.2212 5.01262 26.535 4.79892 25.7504 4.72488V2.98748H23.8212V4.84603C22.1903 5.24189 21.1567 6.46018 21.1567 8.02847C21.1567 9.95812 22.6833 10.823 24.329 11.4688C25.5607 11.9677 26.0626 12.4645 26.0626 13.1822C26.0626 13.9668 25.3866 14.4939 24.3799 14.4939Z" fill="#181713"/>
<path d="M46.1316 24.8377L46.116 25.0733H1.86025L1.84299 24.8394L1.81354 24.449L4.43774 17.3088H16.9849C17.133 17.4737 17.2928 17.6268 17.4506 17.7825C18.2347 18.5544 19.1333 19.2103 20.1295 19.7041H7.75059V23.5046H40.2185V19.7041H29.3301C30.5261 19.111 31.5921 18.2945 32.4734 17.3088H42.7859L46.1547 24.494L46.1316 24.8377ZM44.9886 42.2121H3.1593L1.95615 26.3353H46.0331L44.9886 42.2121ZM26.9545 20.5388H39.3835V22.6699H8.5852V20.5388H22.5046C22.5467 20.5485 22.5908 20.5548 22.6337 20.5636C23.2959 20.7003 23.9804 20.7769 24.682 20.7802C24.6976 20.7802 24.7132 20.7811 24.7296 20.7811C25.4931 20.7811 26.2373 20.6961 26.9545 20.5388ZM15.5314 10.3903C15.5314 5.31906 19.6579 1.19263 24.7296 1.19263C26.7509 1.19263 28.6208 1.84973 30.1399 2.95863C30.256 3.04361 30.37 3.13111 30.4828 3.22114C31.3481 3.91736 32.0851 4.76545 32.6526 5.72586C33.4612 7.09432 33.9277 8.68869 33.9277 10.3903C33.9277 10.7075 33.9113 11.0205 33.8802 11.3297C33.7859 12.256 33.5533 13.1424 33.2041 13.9674C32.505 15.6177 31.3372 17.0227 29.869 18.0155C28.4008 19.0088 26.6319 19.5885 24.7296 19.5885C19.6579 19.5885 15.5314 15.4625 15.5314 10.3903ZM33.7603 15.5201C34.6239 14.0052 35.1199 12.2552 35.1199 10.3903C35.1199 4.66112 30.4588 0 24.7296 0C18.9995 0 14.3384 4.66112 14.3384 10.3903C14.3384 12.2552 14.8348 14.0052 15.698 15.5201H3.18873L0 24.197L1.50099 44H46.6633L47.9695 24.1516L43.923 15.5201H33.7603Z" fill="#181713"/>
</svg>
