<svg width="48" height="36" viewBox="0 0 48 36" fill="none" xmlns="http://www.w3.org/2000/svg">
<path d="M46.406 23.2382C46.406 25.3493 45.213 27.1848 43.4671 28.1125C42.6154 26.0044 40.5513 24.5115 38.1415 24.5115C35.494 24.5115 33.265 26.3148 32.6029 28.7555H17.2327C16.5701 26.3148 14.3412 24.5115 11.6937 24.5115C9.04521 24.5115 6.81674 26.3148 6.15506 28.7555H3.18839C2.21675 28.7555 1.42813 27.966 1.42813 26.9956V24.3681C1.42813 23.3969 2.21675 22.6074 3.18839 22.6074H26.3961V5.25166C26.3961 3.73093 27.633 2.49367 29.1528 2.49367H40.8878C43.9301 2.49367 46.406 4.96908 46.406 8.01139V23.2382ZM38.1415 34.5719C35.7618 34.5719 33.8254 32.6355 33.8254 30.2558C33.8254 27.8756 35.7618 25.9397 38.1415 25.9397C40.5217 25.9397 42.4576 27.8756 42.4576 30.2558C42.4576 32.6355 40.5217 34.5719 38.1415 34.5719ZM11.6937 34.5719C9.31388 34.5719 7.37711 32.6355 7.37711 30.2558C7.37711 27.8756 9.31388 25.9397 11.6937 25.9397C14.0739 25.9397 16.0098 27.8756 16.0098 30.2558C16.0098 32.6355 14.0739 34.5719 11.6937 34.5719ZM3.43967 1.42768H24.9676V21.1797H3.43967V1.42768ZM40.8878 1.06554H29.1528C28.0969 1.06554 27.133 1.46247 26.3961 2.1111V0H2.01155V21.407C0.834703 21.8761 0 23.0256 0 24.3681V26.9956C0 28.7537 1.42987 30.184 3.18839 30.184H5.9529C5.9529 30.2079 5.94943 30.2314 5.94943 30.2558C5.94943 33.4233 8.5257 36 11.6937 36C14.8607 36 17.4379 33.4233 17.4379 30.2558C17.4379 30.2314 17.4344 30.2079 17.4335 30.184H32.4016C32.4008 30.2079 32.3973 30.2314 32.3973 30.2558C32.3973 33.4233 34.9744 36 38.1415 36C41.3086 36 43.8858 33.4233 43.8858 30.2558C43.8858 30.0053 43.8645 29.761 43.8332 29.5189C46.1929 28.4081 47.8332 26.0144 47.8332 23.2382V8.01139C47.8332 4.18176 44.7178 1.06554 40.8878 1.06554Z" fill="#181713"/>
<path d="M11.6936 31.5977C10.9541 31.5977 10.352 30.996 10.352 30.2561C10.352 29.5162 10.9541 28.9145 11.6936 28.9145C12.4331 28.9145 13.0343 29.5162 13.0343 30.2561C13.0343 30.996 12.4331 31.5977 11.6936 31.5977ZM11.6936 27.4868C10.1663 27.4868 8.92383 28.7293 8.92383 30.2561C8.92383 31.7829 10.1663 33.0254 11.6936 33.0254C13.2204 33.0254 14.4624 31.7829 14.4624 30.2561C14.4624 28.7293 13.2204 27.4868 11.6936 27.4868Z" fill="#181713"/>
<path d="M38.1409 31.5977C37.4014 31.5977 36.7993 30.996 36.7993 30.2561C36.7993 29.5162 37.4014 28.9145 38.1409 28.9145C38.8804 28.9145 39.4825 29.5162 39.4825 30.2561C39.4825 30.996 38.8804 31.5977 38.1409 31.5977ZM38.1409 27.4868C36.6141 27.4868 35.3721 28.7293 35.3721 30.2561C35.3721 31.7829 36.6141 33.0254 38.1409 33.0254C39.6686 33.0254 40.9107 31.7829 40.9107 30.2561C40.9107 28.7293 39.6686 27.4868 38.1409 27.4868Z" fill="#181713"/>
<path d="M18.189 11.0097V12.5626H14.525V16.2266H12.9721V13.9907V13.2765V12.5626H12.2578H11.5444H9.30812V11.0097H11.5444H12.2578H12.9721V10.2959V9.58203V7.34615H14.525V9.58203V10.2959V11.0097H15.2393H15.9522H18.189ZM15.9522 5.91847H11.5444V9.58203H7.88086V13.9907H11.5444V17.6543H15.9522V13.9907H19.6162V9.58203H15.9522V5.91847Z" fill="#181713"/>
<path d="M42.4575 13.3921C42.4575 14.6685 41.4198 15.7066 40.143 15.7066H36.7998H36.086H35.3725H32.5333H30.5826H30.2187V15.3432V13.3921V10.7632V8.81165V8.40561H30.6347H35.3725V8.44866H36.086H36.7998H40.143C41.4198 8.44866 42.4575 9.48681 42.4575 10.7632V13.3921ZM40.143 7.02053H36.7998V6.97793H28.791V10.7632V13.3921V17.1348H32.5333H36.7998H40.143C42.2071 17.1348 43.8856 15.4558 43.8856 13.3921V10.7632C43.8856 8.69949 42.2071 7.02053 40.143 7.02053Z" fill="#181713"/>
</svg>
