<svg width="40" height="40" viewBox="0 0 40 40" fill="none" xmlns="http://www.w3.org/2000/svg">
<path d="M2.73438 18.0573C3.30992 9.06458 10.8639 1.94237 19.9287 1.94237C15.3963 2.08625 11.5833 9.28041 11.2956 18.345C11.2956 18.417 11.2956 18.4889 11.2956 18.6328C11.3675 13.2372 3.38186 12.6617 2.73438 18.0573Z" fill="#F95948"/>
<path d="M9.42403 8.12952C9.92762 8.12952 10.3593 8.56117 10.3593 9.06476C10.3593 9.56835 9.92762 10 9.42403 10C8.92043 10 8.48877 9.56835 8.48877 9.06476C8.56071 8.48923 8.92043 8.12952 9.42403 8.12952Z" fill="#C3FFF9"/>
<path d="M39.3526 9.92771C39.7101 9.92771 40 10.2176 40 10.5752C40 10.9327 39.7101 11.2227 39.3526 11.2227C38.995 11.2227 38.7051 10.9327 38.7051 10.5752C38.7051 10.2176 38.995 9.92771 39.3526 9.92771Z" fill="#101608"/>
<path d="M37.5542 29.9277C37.9118 29.9277 38.2017 30.2178 38.2017 30.5752C38.2017 30.9335 37.9118 31.2227 37.5542 31.2227C37.1967 31.2227 36.9067 30.9335 36.9067 30.5752C36.9067 30.2178 37.1967 29.9277 37.5542 29.9277Z" fill="#101608"/>
<path d="M35.9714 2.73367C36.6908 2.73367 37.3383 3.3092 37.3383 4.10056C37.3383 4.89192 36.6908 5.39551 35.9714 5.39551C35.252 5.39551 34.6045 4.81998 34.6045 4.02862C34.6045 3.23726 35.252 2.73367 35.9714 2.73367Z" fill="#C3FFF9"/>
<path d="M33.238 23.3814C34.2452 23.3814 35.0366 24.1728 35.0366 25.18C35.0366 26.1872 34.2452 26.9785 33.238 26.9785C32.2308 26.9785 31.4395 26.1872 31.4395 25.18C31.4395 24.1728 32.3028 23.3814 33.238 23.3814Z" fill="#C3FFF9"/>
<path d="M37.1945 18.4889C36.9786 16.3307 35.1801 14.676 32.9499 14.6041C30.5757 14.6041 28.6333 16.4746 28.5613 18.8486C28.5613 18.7767 28.5613 18.7047 28.5613 18.6328C28.4894 9.42429 24.7484 2.08624 20.144 2.0143C29.3527 2.08624 36.7628 9.42429 37.1945 18.4889Z" fill="#D83C39"/>
<path d="M29.4243 -2.67029e-05C29.7819 -2.67029e-05 30.0718 0.289898 30.0718 0.647448C30.0718 1.005 29.7819 1.29492 29.4243 1.29492C29.0668 1.29492 28.7769 1.005 28.7769 0.647448C28.7769 0.289898 29.0668 -2.67029e-05 29.4243 -2.67029e-05Z" fill="#101608"/>
<path d="M25.18 14.6038C22.5182 14.0282 20.0002 16.0426 19.9282 18.7764V2.01398C20.0002 2.01398 20.0002 2.01398 20.0721 2.01398C20.0721 2.01398 20.0721 2.01398 20.1441 2.01398C24.8203 2.08592 28.4894 9.42396 28.5614 18.6325C28.4894 16.6181 27.0506 14.9635 25.18 14.6038Z" fill="#F95948"/>
<path d="M21.3677 36.9062C21.7253 36.9062 22.0152 37.1963 22.0152 37.5537C22.0152 37.9112 21.7253 38.2012 21.3677 38.2012C21.0101 38.2012 20.7202 37.9112 20.7202 37.5537C20.7202 37.1963 21.0101 36.9062 21.3677 36.9062Z" fill="#101608"/>
<path d="M19.9285 2.01496V18.5615C19.8566 16.2594 17.9861 14.4609 15.6839 14.4609C13.3817 14.4609 11.5112 16.1875 11.2954 18.4896C11.6551 9.353 15.3961 2.15884 19.9285 2.01496Z" fill="#D83C39"/>
<path d="M16.834 20.7187C17.1916 20.7187 17.4815 21.0086 17.4815 21.3662C17.4815 21.7237 17.1916 22.0137 16.834 22.0137C16.4765 22.0137 16.1865 21.7237 16.1865 21.3662C16.1865 21.0086 16.4765 20.7187 16.834 20.7187Z" fill="#101608"/>
<path d="M5.82709 29.2082C7.33716 29.2082 8.56091 30.4321 8.56091 31.942C8.56091 33.452 7.33716 34.6758 5.82709 34.6758C4.31701 34.6758 3.09326 33.452 3.09326 31.942C3.09326 30.4321 4.31701 29.2082 5.82709 29.2082Z" fill="#C3FFF9"/>
<path d="M6.54739 0.93552C6.90494 0.93552 7.19487 1.22544 7.19487 1.58299C7.19487 1.94054 6.90494 2.23047 6.54739 2.23047C6.18983 2.23047 5.8999 1.94054 5.8999 1.58299C5.8999 1.22544 6.18983 0.93552 6.54739 0.93552Z" fill="#101608"/>
<path d="M2.4468 23.8857C2.80436 23.8857 3.09429 24.1758 3.09429 24.5332C3.09429 24.8907 2.80436 25.1807 2.4468 25.1807C2.08925 25.1807 1.79932 24.8907 1.79932 24.5332C1.79932 24.1758 2.08925 23.8857 2.4468 23.8857Z" fill="#101608"/>
<path d="M2.01467 38.2734C2.37223 38.2734 2.66216 38.5635 2.66216 38.9209C2.66216 39.2784 2.37223 39.5684 2.01467 39.5684C1.65712 39.5684 1.36719 39.2784 1.36719 38.9209C1.36719 38.5635 1.65712 38.2734 2.01467 38.2734Z" fill="#101608"/>
<path d="M0.647485 9.49704C1.00504 9.49704 1.29497 9.78697 1.29497 10.1445C1.29497 10.5021 1.00504 10.792 0.647485 10.792C0.289929 10.792 0 10.5021 0 10.1445C0 9.78697 0.289929 9.49704 0.647485 9.49704Z" fill="#101608"/>
<path d="M37.194 19.9277C36.9062 19.9277 36.7623 19.7119 36.7623 19.4961C36.7623 19.1364 36.7623 18.8486 36.7623 18.5608C36.3307 9.56815 29.0645 2.51787 20.1436 2.44593C19.9277 2.44593 19.7119 2.2301 19.7119 2.01428C19.7119 1.79845 19.9277 1.58263 20.1436 1.58263C29.5681 1.65457 37.2659 9.06456 37.6257 18.417C37.6257 18.7047 37.6257 19.0644 37.6257 19.4241C37.6257 19.7119 37.4818 19.9277 37.194 19.9277Z" fill="#101608"/>
<path d="M2.66213 19.4971C2.37435 19.4971 2.23047 19.2812 2.23047 19.0654C2.23047 18.7057 2.23047 18.4179 2.30241 18.0582C2.59018 13.5979 4.60458 9.42525 7.842 6.33176C11.1514 3.23827 15.4679 1.58361 19.9284 1.58361C20.0003 1.58361 20.0723 1.58361 20.0723 1.58361C20.2881 1.58361 20.5039 1.79944 20.5039 2.01526C20.5039 2.23109 20.2881 2.44691 20.0723 2.44691C20.0003 2.44691 20.0003 2.44691 19.9284 2.44691C11.1514 2.44691 3.74127 9.35331 3.16572 18.1302C3.16572 18.4179 3.16572 18.7777 3.09378 19.0654C3.16572 19.2812 2.9499 19.4971 2.66213 19.4971Z" fill="#101608"/>
<path d="M28.5612 19.7852C28.2734 19.7852 28.1295 19.5693 28.1295 19.3535C28.1295 19.0657 28.1295 18.8499 28.1295 18.6341C28.0576 14.2457 27.1943 10.145 25.6835 7.0515C24.1727 4.10189 22.2302 2.44724 20.1439 2.37529H20.072C20 2.37529 20 2.37529 19.9281 2.37529C17.9137 2.44724 15.8993 4.10189 14.3885 6.97956C12.8057 10.0011 11.8705 14.0298 11.7266 18.3463C11.7266 18.5621 11.7266 18.778 11.7266 19.0657C11.7266 19.2816 11.5108 19.4974 11.2949 19.4974C11.0791 19.4974 10.8633 19.2816 10.8633 19.0657C10.8633 18.778 10.8633 18.5621 10.8633 18.3463C11.0072 13.8859 12.0144 9.71334 13.5971 6.61985C15.2518 3.38248 17.482 1.58394 19.8561 1.512C19.9281 1.512 20 1.512 20 1.512H20.072C22.518 1.512 24.7482 3.38248 26.4029 6.61985C27.9857 9.78528 28.9209 14.0298 28.9209 18.5621C28.9209 18.778 28.9209 18.9938 28.9209 19.2816C28.9929 19.5693 28.849 19.7852 28.5612 19.7852Z" fill="#101608"/>
<path d="M17.8417 35.9717C17.1223 35.9717 16.5468 35.6839 16.0432 35.2523C15.5396 34.7487 15.3237 34.1012 15.3237 33.4537V32.4465C15.3237 32.2307 15.5396 32.0149 15.7554 32.0149C15.9712 32.0149 16.187 32.2307 16.187 32.4465V33.4537C16.187 33.8854 16.3309 34.317 16.6906 34.6048C16.9784 34.8926 17.4101 35.1084 17.8417 35.1084C18.777 35.1084 19.4964 34.389 19.4964 33.4537V1.00807C19.4964 0.792244 19.7122 0.57642 19.9281 0.57642C20.1439 0.57642 20.3597 0.792244 20.3597 1.00807V33.4537C20.4317 34.8206 19.2806 35.9717 17.8417 35.9717Z" fill="#101608"/>
<path d="M37.195 19.4248C36.9072 19.4248 36.7633 19.209 36.7633 18.9932C36.7633 18.8493 36.7633 18.7054 36.7633 18.5615C36.5475 16.6191 34.8928 15.1083 32.9504 15.1083C31.9432 15.1083 30.936 15.468 30.2165 16.1874C29.4971 16.9068 29.0655 17.8421 29.0655 18.9212C29.0655 19.137 28.8496 19.3529 28.6338 19.3529C28.418 19.3529 28.2021 19.137 28.2021 18.9212C28.2021 17.6263 28.7057 16.4752 29.641 15.54C30.5763 14.6767 31.7273 14.1731 33.0223 14.1731C35.4684 14.1731 37.4828 16.0436 37.6986 18.4176C37.6986 18.5615 37.6986 18.7773 37.6986 18.9932C37.6266 19.209 37.4828 19.4248 37.195 19.4248Z" fill="#101608"/>
<path d="M28.5607 19.3525C28.2729 19.3525 28.1291 19.1367 28.1291 18.9209C28.1291 18.8489 28.1291 18.777 28.1291 18.7051C28.0571 16.9785 26.7621 15.4677 25.1075 15.108C24.8916 15.036 24.6039 15.036 24.3161 15.036C22.1578 15.036 20.4312 16.6907 20.4312 18.8489C20.4312 19.0648 20.2154 19.2806 19.9995 19.2806C19.7837 19.2806 19.5679 19.0648 19.5679 18.8489C19.5679 16.2591 21.7262 14.1727 24.3161 14.1727H24.388C24.6758 14.1727 25.0355 14.2447 25.3233 14.2447C27.4096 14.6763 28.9924 16.5468 29.0643 18.7051C29.0643 18.777 29.0643 18.8489 29.0643 18.9928C29.0643 19.1367 28.8485 19.3525 28.5607 19.3525Z" fill="#101608"/>
<path d="M19.9279 19.209C19.6401 19.209 19.4962 18.9932 19.4962 18.7773C19.4962 18.7054 19.4962 18.6335 19.4962 18.5615C19.4243 16.4752 17.6977 14.8925 15.6833 14.8925C13.6689 14.8925 11.9423 16.4752 11.7984 18.4896C11.7984 18.5615 11.7984 18.6335 11.7984 18.7054C11.7984 18.9212 11.5825 19.137 11.3667 19.137C11.1509 19.137 10.9351 18.9212 10.9351 18.7054C10.9351 18.6335 10.9351 18.4896 10.9351 18.4176C11.0789 15.8997 13.1653 14.0292 15.6833 14.0292H15.7552C18.2732 14.0292 20.3596 16.0436 20.4315 18.5615C20.4315 18.6335 20.4315 18.7054 20.4315 18.8493C20.4315 18.9932 20.2157 19.209 19.9279 19.209Z" fill="#101608"/>
<path d="M11.2951 19.1367C11.0073 19.1367 10.8634 18.9209 10.8634 18.7051C10.8634 16.7626 9.49652 15.108 7.55407 14.8202C7.41018 14.7483 7.19435 14.7483 7.05047 14.7483C5.10801 14.7483 3.38139 16.1871 3.16556 18.1295C3.16556 18.2734 3.16556 18.4173 3.16556 18.5612C3.16556 18.777 2.94973 18.9928 2.7339 18.9928C2.51807 18.9928 2.30225 18.777 2.30225 18.5612C2.30225 18.3454 2.30225 18.2015 2.37419 17.9857C2.66196 15.6116 4.7483 13.813 7.19435 13.813C7.41018 13.813 7.62601 13.813 7.84184 13.885C10.2159 14.2447 11.9426 16.2591 11.9426 18.6331C11.7987 18.9209 11.5829 19.1367 11.2951 19.1367Z" fill="#101608"/>
<path d="M9.42502 8.56181C9.20919 8.56181 8.99336 8.77764 8.99336 8.99346C8.99336 9.20929 9.20919 9.42511 9.42502 9.42511C9.64085 9.42511 9.85667 9.20929 9.85667 8.99346C9.85667 8.77764 9.71279 8.56181 9.42502 8.56181ZM9.42502 10.3604C8.70559 10.3604 8.05811 9.78482 8.05811 8.99346C8.05811 8.2021 8.63365 7.62657 9.42502 7.62657C10.2164 7.62657 10.7919 8.2021 10.7919 8.99346C10.7919 9.78482 10.1444 10.3604 9.42502 10.3604Z" fill="#101608"/>
<path d="M35.9724 3.16531C35.4688 3.16531 35.0371 3.59696 35.0371 4.10055C35.0371 4.60414 35.4688 5.03579 35.9724 5.03579C36.476 5.03579 36.9077 4.60414 36.9077 4.10055C36.8357 3.52502 36.476 3.16531 35.9724 3.16531ZM35.9724 5.82715C34.9652 5.82715 34.1738 5.03579 34.1738 4.02861C34.1738 3.02143 34.9652 2.23007 35.9724 2.23007C36.9796 2.23007 37.771 3.02143 37.771 4.02861C37.771 5.03579 36.9796 5.82715 35.9724 5.82715Z" fill="#101608"/>
<path d="M33.2375 23.8121C32.5181 23.8121 31.8706 24.3876 31.8706 25.179C31.8706 25.9703 32.4462 26.5459 33.2375 26.5459C34.0289 26.5459 34.6045 25.9703 34.6045 25.179C34.6045 24.3876 34.0289 23.8121 33.2375 23.8121ZM33.2375 27.4092C32.0145 27.4092 31.0073 26.402 31.0073 25.179C31.0073 23.956 32.0145 22.9488 33.2375 22.9488C34.4606 22.9488 35.4678 23.956 35.4678 25.179C35.4678 26.402 34.5325 27.4092 33.2375 27.4092Z" fill="#101608"/>
<path d="M5.82808 29.7128C4.60505 29.7128 3.59785 30.72 3.59785 31.943C3.59785 33.166 4.60505 34.1732 5.82808 34.1732C7.05111 34.1732 8.0583 33.166 8.0583 31.943C8.0583 30.72 7.05111 29.7128 5.82808 29.7128ZM5.82808 35.1084C4.10145 35.1084 2.6626 33.6696 2.6626 31.943C2.6626 30.2164 4.10145 28.7775 5.82808 28.7775C7.5547 28.7775 8.99356 30.2164 8.99356 31.943C8.99356 33.6696 7.5547 35.1084 5.82808 35.1084Z" fill="#101608"/>
<path d="M22.9502 34.1729C22.7344 34.1729 22.5186 33.957 22.5186 33.7412V22.95C22.5186 22.7341 22.7344 22.5183 22.9502 22.5183C23.166 22.5183 23.3819 22.7341 23.3819 22.95V33.7412C23.3819 33.957 23.166 34.1729 22.9502 34.1729Z" fill="#101608"/>
<path d="M25.1802 26.5459C24.9644 26.5459 24.7485 26.3301 24.7485 26.1142V11.2223C24.7485 11.0065 24.9644 10.7907 25.1802 10.7907C25.396 10.7907 25.6118 11.0065 25.6118 11.2223V26.0423C25.6118 26.3301 25.396 26.5459 25.1802 26.5459Z" fill="#101608"/>
<path d="M13.957 29.209C13.7412 29.209 13.5254 28.9932 13.5254 28.7773V21.5832C13.5254 21.3674 13.7412 21.1515 13.957 21.1515C14.1729 21.1515 14.3887 21.3674 14.3887 21.5832V28.7773C14.3887 28.9932 14.1729 29.209 13.957 29.209Z" fill="#101608"/>
<path d="M11.2227 39.5684C11.0068 39.5684 10.791 39.3525 10.791 39.1367V26.5469C10.791 26.3311 11.0068 26.1153 11.2227 26.1153C11.4385 26.1153 11.6543 26.3311 11.6543 26.5469V39.1367C11.6543 39.3525 11.5104 39.5684 11.2227 39.5684Z" fill="#101608"/>
<path d="M28.7764 35.9717C28.5606 35.9717 28.3447 35.7559 28.3447 35.54V28.7775C28.3447 28.5617 28.5606 28.3459 28.7764 28.3459C28.9922 28.3459 29.208 28.5617 29.208 28.7775V35.54C29.208 35.7559 28.9922 35.9717 28.7764 35.9717Z" fill="#101608"/>
<path d="M7.62648 25.6113C7.41065 25.6113 7.19482 25.3955 7.19482 25.1797V12.5899C7.19482 12.3741 7.41065 12.1583 7.62648 12.1583C7.84231 12.1583 8.05814 12.3741 8.05814 12.5899V25.1797C8.05814 25.3955 7.91425 25.6113 7.62648 25.6113Z" fill="#101608"/>
</svg>
