<svg width="40" height="44" viewBox="0 0 40 44" fill="none" xmlns="http://www.w3.org/2000/svg">
<path d="M32.1144 24.9453L26.4513 42.8662H11.4691L6.09277 24.9453H32.1144Z" fill="#A88D68"/>
<path d="M34.5526 22.6518C34.5526 23.297 34.3375 23.7988 33.9074 24.2289C33.4773 24.659 32.9755 24.874 32.3304 24.874H32.1153H6.09374H5.66363C4.44499 24.874 3.44141 23.8705 3.44141 22.6518C3.44141 22.0067 3.72815 21.5049 4.01488 21.0748C4.37331 20.6447 4.73173 20.4296 5.01847 20.4296H14.1941H20.5024H24.0866H31.6852C33.549 20.4296 34.5526 21.4332 34.5526 22.6518Z" fill="#B79C79"/>
<path d="M20.4303 20.4297H14.1221V8.31516C14.1221 6.3797 15.1973 4.73098 16.8461 3.94246V2.93889C16.8461 1.72027 17.8497 0.716702 19.0683 0.716702C20.287 0.716702 21.2905 1.72027 21.2905 2.93889V3.94246C22.8676 4.73098 24.0146 6.45139 24.0146 8.31516V8.74526V12.3294V15.9136V19.4978V20.4297H20.4303Z" fill="#8EC155"/>
<path d="M26.4513 43.584C26.3796 43.584 26.3079 43.584 26.2362 43.584C25.8778 43.4406 25.6628 43.0822 25.7344 42.6521L31.3975 24.7312C31.5409 24.3728 31.8993 24.1577 32.3294 24.2294C32.6879 24.3728 32.9029 24.7312 32.8312 25.1613L27.1681 43.0822C27.0248 43.3689 26.738 43.584 26.4513 43.584Z" fill="#101608"/>
<path d="M11.4695 43.584C11.1827 43.584 10.896 43.3689 10.7526 43.0822L5.37626 25.1613C5.23289 24.8029 5.44795 24.3728 5.87806 24.3011C6.23648 24.1577 6.66659 24.3728 6.73827 24.8029L12.1146 42.7238C12.258 43.0822 12.0429 43.5123 11.6128 43.584C11.6128 43.584 11.5412 43.584 11.4695 43.584Z" fill="#101608"/>
<path d="M39.2834 43.584H4.58794C4.15783 43.584 3.87109 43.2973 3.87109 42.8671C3.87109 42.437 4.15783 42.1503 4.58794 42.1503H39.2834C39.7135 42.1503 40.0002 42.437 40.0002 42.8671C40.0002 43.2256 39.6418 43.584 39.2834 43.584Z" fill="#101608"/>
<path d="M32.2587 25.6631H5.66369C4.01494 25.6631 2.72461 24.3011 2.72461 22.7241C2.72461 22.0072 3.01135 21.2904 3.44146 20.7169C3.87157 20.1434 4.51673 19.785 5.01852 19.785H14.1942C14.6243 19.785 14.911 20.0718 14.911 20.5019C14.911 20.932 14.6243 21.2187 14.1942 21.2187H5.01852C4.94684 21.2187 4.73178 21.3621 4.51673 21.5771C4.22999 21.9355 4.08662 22.294 4.08662 22.7241C4.08662 23.5843 4.80347 24.2294 5.592 24.2294H32.1871C32.6172 24.2294 32.9756 24.086 33.2623 23.7993C33.5491 23.5126 33.6924 23.1542 33.6924 22.7241C33.6924 21.7922 32.8322 21.2187 31.5419 21.2187H24.015C23.5849 21.2187 23.2981 20.932 23.2981 20.5019C23.2981 20.0718 23.5849 19.785 24.015 19.785H31.6136C34.1225 19.785 35.1978 21.2904 35.1978 22.7241C35.1978 23.5126 34.9111 24.2294 34.3376 24.8029C33.8358 25.3047 33.0473 25.6631 32.2587 25.6631Z" fill="#101608"/>
<path d="M14.9103 19.7128H23.3691V8.31512C23.3691 6.73808 22.5088 5.30441 21.0751 4.58758C20.8601 4.44421 20.7167 4.22916 20.7167 3.94242V2.93885C20.7167 2.07865 19.9999 1.4335 19.2113 1.4335C18.4228 1.4335 17.706 2.15033 17.706 2.93885V3.94242C17.706 4.22916 17.5626 4.44421 17.3475 4.58758C15.9138 5.30441 15.0536 6.73808 15.0536 8.31512V19.7128H14.9103ZM24.0142 21.1465H14.1934C13.7633 21.1465 13.4766 20.8598 13.4766 20.4296V8.31512C13.4766 6.30798 14.4801 4.51589 16.2006 3.51232V2.93885C16.2006 1.29013 17.5626 -0.000173569 19.1397 -0.000173569C20.7167 -0.000173569 22.0787 1.36181 22.0787 2.93885V3.51232C23.7275 4.51589 24.8028 6.30798 24.8028 8.31512V20.4296C24.7311 20.8598 24.4443 21.1465 24.0142 21.1465Z" fill="#101608"/>
<path d="M24.0137 9.53418C23.7987 9.53418 23.6553 9.4625 23.5119 9.31913C23.2252 9.03239 23.2252 8.60229 23.5119 8.31556L25.304 6.52347C25.5908 6.23673 26.0209 6.23673 26.3076 6.52347C26.5944 6.8102 26.5944 7.2403 26.3076 7.52704L24.5155 9.31913C24.3721 9.4625 24.2288 9.53418 24.0137 9.53418Z" fill="#101608"/>
<path d="M24.0137 13.1182C23.7987 13.1182 23.6553 13.0465 23.5119 12.9031C23.2252 12.6164 23.2252 12.1863 23.5119 11.8995L25.304 10.1075C25.5908 9.82072 26.0209 9.82072 26.3076 10.1075C26.5944 10.3942 26.5944 10.8243 26.3076 11.111L24.5155 12.9031C24.3721 13.0465 24.2288 13.1182 24.0137 13.1182Z" fill="#101608"/>
<path d="M24.0137 16.7021C23.7987 16.7021 23.6553 16.6305 23.5119 16.4871C23.2252 16.2004 23.2252 15.7703 23.5119 15.4835L25.304 13.6914C25.5908 13.4047 26.0209 13.4047 26.3076 13.6914C26.5944 13.9782 26.5944 14.4083 26.3076 14.695L24.5155 16.4871C24.3721 16.6305 24.2288 16.7021 24.0137 16.7021Z" fill="#101608"/>
<path d="M24.0137 20.2861C23.7987 20.2861 23.6553 20.2144 23.5119 20.0711C23.2252 19.7843 23.2252 19.3542 23.5119 19.0675L25.304 17.2754C25.5908 16.9887 26.0209 16.9887 26.3076 17.2754C26.5944 17.5622 26.5944 17.9923 26.3076 18.279L24.5155 20.0711C24.3721 20.2144 24.2288 20.2861 24.0137 20.2861Z" fill="#101608"/>
<path d="M14.1935 9.53418C13.9785 9.53418 13.8351 9.4625 13.6917 9.31913L11.8996 7.52704C11.6129 7.2403 11.6129 6.8102 11.8996 6.52347C12.1864 6.23673 12.6165 6.23673 12.9032 6.52347L14.6953 8.31556C14.9821 8.60229 14.9821 9.03239 14.6953 9.31913C14.552 9.4625 14.3369 9.53418 14.1935 9.53418Z" fill="#101608"/>
<path d="M14.1935 13.1182C13.9785 13.1182 13.8351 13.0465 13.6917 12.9031L11.8996 11.111C11.6129 10.8243 11.6129 10.3942 11.8996 10.1075C12.1864 9.82072 12.6165 9.82072 12.9032 10.1075L14.6953 11.8995C14.9821 12.1863 14.9821 12.6164 14.6953 12.9031C14.552 13.0465 14.3369 13.1182 14.1935 13.1182Z" fill="#101608"/>
<path d="M14.1935 16.7021C13.9785 16.7021 13.8351 16.6305 13.6917 16.4871L11.8996 14.695C11.6129 14.4083 11.6129 13.9782 11.8996 13.6914C12.1864 13.4047 12.6165 13.4047 12.9032 13.6914L14.6953 15.4835C14.9821 15.7703 14.9821 16.2004 14.6953 16.4871C14.552 16.6305 14.3369 16.7021 14.1935 16.7021Z" fill="#101608"/>
<path d="M14.1935 20.2861C13.9785 20.2861 13.8351 20.2144 13.6917 20.0711L11.8996 18.279C11.6129 17.9923 11.6129 17.5622 11.8996 17.2754C12.1864 16.9887 12.6165 16.9887 12.9032 17.2754L14.6953 19.0675C14.9821 19.3542 14.9821 19.7843 14.6953 20.0711C14.552 20.2144 14.3369 20.2861 14.1935 20.2861Z" fill="#101608"/>
<path d="M2.50897 7.74199C1.93549 7.74199 1.4337 8.24378 1.4337 8.81725C1.4337 9.39071 1.93549 9.8925 2.50897 9.8925C3.08245 9.8925 3.58424 9.39071 3.58424 8.81725C3.58424 8.17209 3.15413 7.74199 2.50897 7.74199ZM2.50897 11.3262C1.14696 11.3262 0 10.1792 0 8.81725C0 7.45526 1.14696 6.30832 2.50897 6.30832C3.87098 6.30832 5.01793 7.45526 5.01793 8.81725C5.01793 10.1792 3.94266 11.3262 2.50897 11.3262Z" fill="#101608"/>
<path d="M34.3376 14.9102C33.9792 14.9102 33.6925 15.1969 33.6925 15.5554C33.6925 15.9138 33.9792 16.2005 34.3376 16.2005C34.6961 16.2005 34.9828 15.9138 34.9828 15.5554C34.9828 15.1969 34.6961 14.9102 34.3376 14.9102ZM34.3376 17.5625C33.1907 17.5625 32.2588 16.6306 32.2588 15.4837C32.2588 14.3367 33.1907 13.4049 34.3376 13.4049C35.4846 13.4049 36.4165 14.3367 36.4165 15.4837C36.4165 16.6306 35.4846 17.5625 34.3376 17.5625Z" fill="#101608"/>
<path d="M33.4763 36.4151C33.1179 36.4151 32.8312 36.7018 32.8312 37.0602C32.8312 37.4187 33.1179 37.7054 33.4763 37.7054C33.8347 37.7054 34.1215 37.4187 34.1215 37.0602C34.1215 36.7018 33.7631 36.4151 33.4763 36.4151ZM33.4763 39.0674C32.3294 39.0674 31.3975 38.1355 31.3975 36.9886C31.3975 35.8416 32.3294 34.9097 33.4763 34.9097C34.6233 34.9097 35.5552 35.8416 35.5552 36.9886C35.4835 38.1355 34.5516 39.0674 33.4763 39.0674Z" fill="#101608"/>
<path d="M24.0139 30.1074H7.88482C7.45471 30.1074 7.16797 29.8207 7.16797 29.3906C7.16797 28.9605 7.45471 28.6738 7.88482 28.6738H24.0139C24.444 28.6738 24.7307 28.9605 24.7307 29.3906C24.7307 29.8207 24.444 30.1074 24.0139 30.1074Z" fill="#101608"/>
<path d="M17.7774 17.5625C17.3473 17.5625 17.0605 17.2758 17.0605 16.8457V7.88522C17.0605 7.45511 17.3473 7.16838 17.7774 7.16838C18.2075 7.16838 18.4942 7.45511 18.4942 7.88522V16.8457C18.4942 17.2758 18.1358 17.5625 17.7774 17.5625Z" fill="#101608"/>
<path d="M20.4297 21.1465C19.9996 21.1465 19.7129 20.8598 19.7129 20.4296V10.609C19.7129 10.1789 19.9996 9.89216 20.4297 9.89216C20.8598 9.89216 21.1466 10.1789 21.1466 10.609V20.5013C21.1466 20.8598 20.8598 21.1465 20.4297 21.1465Z" fill="#101608"/>
</svg>
