<svg width="40" height="38" viewBox="0 0 40 38" fill="none" xmlns="http://www.w3.org/2000/svg">
<path d="M0.40918 23.8502C0.886181 23.8502 38.91 23.8502 39.5915 23.8502C39.5915 25.4856 39.5915 35.8431 39.5915 37.4785H0.40918C0.40918 36.252 0.40918 25.69 0.40918 23.8502Z" fill="#B79C79"/>
<path d="M6.74677 15.1958C5.79277 15.7409 4.49805 15.0595 4.49805 13.9011V9.81261C4.49805 9.40376 4.63433 8.9949 4.90691 8.72234C5.17948 8.44977 5.58834 8.31349 5.9972 8.31349H6.06534C5.9972 8.44977 5.9972 8.58605 5.9972 8.72234V13.9011C5.9972 14.4462 6.26977 14.9914 6.74677 15.1958Z" fill="#D83C39"/>
<path d="M7.49609 21.8066C8.10938 18.604 10.6307 16.0827 13.8334 15.4695C13.2201 18.7403 10.6988 21.2615 7.49609 21.8066Z" fill="#86BC31"/>
<path d="M1.1582 15.5378C4.36093 16.1511 6.88222 18.6723 7.49551 21.875C4.29279 21.2617 1.77149 18.7405 1.1582 15.5378Z" fill="#AEEF66"/>
<path d="M32.7773 21.8066C33.3906 18.604 35.9119 16.0827 39.1147 15.4695C38.4332 18.7403 35.9801 21.2615 32.7773 21.8066Z" fill="#86BC31"/>
<path d="M6.74567 15.1964C6.26867 14.9238 5.99609 14.4468 5.99609 13.9017V8.72289C5.99609 8.58661 5.99609 8.45032 6.06424 8.31404C6.26867 7.70076 6.81381 7.22377 7.49524 7.22377C7.9041 7.22377 8.31296 7.36005 8.58553 7.63262C8.78996 7.83705 8.92625 8.04147 8.99439 8.2459C9.06253 8.38218 9.06253 8.51846 9.06253 8.65475V13.8335C9.06253 14.3787 8.78996 14.8557 8.31296 15.1282C8.10853 15.2645 7.83596 15.3326 7.56339 15.3326C7.22267 15.4008 6.9501 15.3326 6.74567 15.1964Z" fill="#F95948"/>
<path d="M32.7768 21.8066C29.574 21.1934 27.0527 18.6721 26.4395 15.4695C29.6422 16.1509 32.1635 18.604 32.7768 21.8066Z" fill="#AEEF66"/>
<path d="M8.24609 15.1968C8.7231 14.9242 8.99567 14.4472 8.99567 13.9021V8.72329C8.99567 8.587 8.99567 8.45072 8.92752 8.31443H8.99567C9.81339 8.31443 10.4948 8.99585 10.4948 9.81355V13.9021C10.4948 15.1286 9.2001 15.81 8.24609 15.1968Z" fill="#D83C39"/>
<path d="M13.7646 15.5378C16.9674 16.1511 19.4887 18.6723 20.102 21.875C16.8992 21.2617 14.3779 18.7405 13.7646 15.5378Z" fill="#AEEF66"/>
<path d="M31.9597 15.1958C31.0057 15.7409 29.7109 15.0595 29.7109 13.9011V9.81261C29.7109 9.40376 29.8472 8.9949 30.1198 8.72234C30.3924 8.44977 30.8012 8.31349 31.2101 8.31349H31.2782C31.2101 8.44977 31.2101 8.58605 31.2101 8.72234V13.9011C31.2101 14.4462 31.5508 14.9914 31.9597 15.1958Z" fill="#D83C39"/>
<path d="M17.5134 8.72249C17.7859 8.44993 18.1948 8.31364 18.6036 8.31364H18.6718C18.6036 8.44993 18.6036 8.58621 18.6036 8.72249V13.9013C18.6036 14.4464 18.8762 14.9234 19.3532 15.196C19.2169 15.2641 19.1488 15.3322 19.0125 15.3322C18.8762 15.4004 18.7399 15.4004 18.6036 15.4004C17.7859 15.4004 17.1045 14.719 17.1045 13.9013V9.81276C17.1045 9.40391 17.2408 8.99506 17.5134 8.72249Z" fill="#D83C39"/>
<path d="M26.4398 15.5378C25.8266 18.7405 23.3053 21.2617 20.1025 21.875C20.7158 18.6042 23.2371 16.1511 26.4398 15.5378Z" fill="#86BC31"/>
<path d="M33.5264 15.1968C34.0034 14.9242 34.2759 14.4472 34.2759 13.9021V8.72329C34.2759 8.587 34.2759 8.45072 34.2078 8.31443H34.2759C35.0937 8.31443 35.7751 8.99585 35.7751 9.81355V13.9021C35.7751 15.1286 34.4804 15.81 33.5264 15.1968Z" fill="#D83C39"/>
<path d="M20.1027 15.4004C19.8301 15.4004 19.5575 15.3322 19.3531 15.196C18.8761 14.9234 18.6035 14.4464 18.6035 13.9013V8.72249C18.6035 8.58621 18.6035 8.44993 18.6717 8.31364C18.8761 7.70037 19.4212 7.22337 20.1027 7.22337C20.5115 7.22337 20.9204 7.35966 21.193 7.63223C21.3974 7.83665 21.5337 8.04108 21.6018 8.2455C21.67 8.38178 21.67 8.51807 21.67 8.65435V13.8331C21.67 14.3783 21.3974 14.8553 20.9204 15.1278C20.6478 15.3322 20.3752 15.4004 20.1027 15.4004Z" fill="#F95948"/>
<path d="M35.2983 1.29506C36.2523 1.29506 37.0019 2.04462 37.0019 2.9986C37.0019 3.95259 36.2523 4.70215 35.2983 4.70215C34.3443 4.70215 33.5947 3.88445 33.5947 2.9986C33.5947 2.11276 34.3443 1.29506 35.2983 1.29506Z" fill="#FFE44C"/>
<path d="M26.7804 6.81523C27.2574 6.81523 27.6663 7.22408 27.6663 7.70107C27.6663 8.17806 27.2574 8.58691 26.7804 8.58691C26.3034 8.58691 25.8945 8.17806 25.8945 7.70107C25.9627 7.15594 26.3034 6.81523 26.7804 6.81523Z" fill="#FFE44C"/>
<path d="M11.0402 5.1121C11.5172 5.1121 11.926 5.52095 11.926 5.99795C11.926 6.47494 11.5172 6.88379 11.0402 6.88379C10.5632 6.88379 10.1543 6.47494 10.1543 5.99795C10.1543 5.45281 10.5632 5.1121 11.0402 5.1121Z" fill="#FFE44C"/>
<path d="M3.8162 0.410612C4.49763 0.410612 5.11092 0.955746 5.11092 1.70531C5.11092 2.45487 4.56578 3 3.8162 3C3.06663 3 2.52148 2.45487 2.52148 1.70531C2.52148 0.955746 3.06663 0.410612 3.8162 0.410612Z" fill="#FFE44C"/>
<path d="M35.2989 33.1853C35.7759 33.1853 36.1848 33.5942 36.1848 34.0712C36.1848 34.5482 35.7759 34.957 35.2989 34.957C34.8219 34.957 34.4131 34.5482 34.4131 34.0712C34.4812 33.5942 34.8219 33.1853 35.2989 33.1853Z" fill="#FFD5A4"/>
<path d="M20.8517 34.0711C21.3287 34.0711 21.7375 34.4799 21.7375 34.9569C21.7375 35.4339 21.3287 35.8428 20.8517 35.8428C20.3747 35.8428 19.9658 35.3658 19.9658 34.8888C19.9658 34.4118 20.3747 34.0711 20.8517 34.0711Z" fill="#FFD5A4"/>
<path d="M6.74621 25.9627C7.22321 25.9627 7.63207 26.3715 7.63207 26.8485C7.63207 27.3255 7.22321 27.7344 6.74621 27.7344C6.26921 27.7344 5.86035 27.3255 5.86035 26.8485C5.86035 26.3715 6.26921 25.9627 6.74621 25.9627Z" fill="#FFD5A4"/>
<path d="M38.0928 8.10939C38.4315 8.10939 38.7061 8.384 38.7061 8.72266C38.7061 9.06201 38.4315 9.33594 38.0928 9.33594C37.7541 9.33594 37.4795 9.06201 37.4795 8.72266C37.4795 8.384 37.7541 8.10939 38.0928 8.10939Z" fill="#101608"/>
<path d="M32.7775 15.4004C32.5049 15.4004 32.2323 15.3322 32.0279 15.196C31.5509 14.9234 31.2783 14.4464 31.2783 13.9013V8.72249C31.2783 8.58621 31.2783 8.44993 31.3465 8.31364C31.5509 7.70037 32.096 7.22337 32.7775 7.22337C33.1863 7.22337 33.5952 7.35966 33.8678 7.63223C34.0722 7.83665 34.2085 8.04108 34.2766 8.2455C34.3448 8.38178 34.3448 8.51807 34.3448 8.65435V13.8331C34.3448 14.3783 34.0722 14.8553 33.5952 15.1278C33.2545 15.3322 33.05 15.4004 32.7775 15.4004Z" fill="#F95948"/>
<path d="M29.9834 1.29591C30.3221 1.29591 30.5967 1.57052 30.5967 1.90918C30.5967 2.24853 30.3221 2.52246 29.9834 2.52246C29.6447 2.52246 29.3701 2.24853 29.3701 1.90918C29.3701 1.57052 29.6447 1.29591 29.9834 1.29591Z" fill="#101608"/>
<path d="M23.1003 9.81276V13.9013C23.1003 14.3101 22.964 14.719 22.6914 14.9915C22.4189 15.2641 22.01 15.4004 21.6011 15.4004C21.3286 15.4004 21.056 15.3322 20.8516 15.196C21.3286 14.9234 21.6011 14.4464 21.6011 13.9013V8.72249C21.6011 8.58621 21.6011 8.44993 21.533 8.31364H21.6011C22.487 8.31364 23.1003 8.99506 23.1003 9.81276Z" fill="#D83C39"/>
<path d="M22.2832 3.88478C22.6219 3.88478 22.8965 4.15939 22.8965 4.49805C22.8965 4.83672 22.6219 5.11133 22.2832 5.11133C21.9445 5.11133 21.6699 4.83672 21.6699 4.49805C21.6699 4.15939 21.9445 3.88478 22.2832 3.88478Z" fill="#101608"/>
<path d="M14.6514 9.81349C14.99 9.81349 15.2647 10.0881 15.2647 10.4268C15.2647 10.7661 14.99 11.04 14.6514 11.04C14.3127 11.04 14.0381 10.7661 14.0381 10.4268C14.0381 10.0881 14.3127 9.81349 14.6514 9.81349Z" fill="#101608"/>
<path d="M12.0606 0.000986695C12.3992 0.000986695 12.6738 0.275598 12.6738 0.614263C12.6738 0.952928 12.3992 1.22754 12.0606 1.22754C11.7219 1.22754 11.4473 0.952928 11.4473 0.614263C11.4473 0.275598 11.7219 0.000986695 12.0606 0.000986695Z" fill="#101608"/>
<path d="M2.72657 7.292C3.06524 7.292 3.33986 7.56661 3.33986 7.90528C3.33986 8.24394 3.06524 8.51855 2.72657 8.51855C2.3879 8.51855 2.11328 8.24394 2.11328 7.90528C2.11328 7.56661 2.3879 7.292 2.72657 7.292Z" fill="#101608"/>
<path d="M0.817717 37.07H39.1823V24.2593H0.817717V37.07ZM39.5911 37.8877H0.408859C0.204429 37.8877 0 37.6833 0 37.4788V23.8505C0 23.6461 0.204429 23.4416 0.408859 23.4416H39.5911C39.7956 23.4416 40 23.6461 40 23.8505V37.4788C40 37.6833 39.7956 37.8877 39.5911 37.8877Z" fill="#101608"/>
<path d="M32.777 24.2598C32.5726 24.2598 32.3682 24.0553 32.3682 23.8509V14.3792C32.3682 14.1748 32.5726 13.9704 32.777 13.9704C32.9815 13.9704 33.1859 14.1748 33.1859 14.3792V23.8509C33.1859 24.0553 32.9815 24.2598 32.777 24.2598Z" fill="#101608"/>
<path d="M34.2764 15.8779C33.9357 15.8779 33.595 15.8098 33.3224 15.6054C33.118 15.4691 33.0499 15.1965 33.1861 14.9921C33.3224 14.7877 33.595 14.7195 33.7994 14.8558C34.1401 15.0602 34.549 15.0602 34.8897 14.8558C35.2304 14.6514 35.4349 14.3107 35.4349 13.9018V9.81331C35.4349 9.20003 34.9579 8.72304 34.3446 8.72304C34.3446 8.72304 34.3446 8.72304 34.2764 8.72304C34.072 8.72304 33.8676 8.51861 33.7994 8.31419C33.7994 8.10976 34.0039 7.90534 34.2083 7.8372H34.2764C35.3667 7.8372 36.1844 8.72304 36.1844 9.74517V13.8337C36.1844 14.5151 35.8437 15.1284 35.2304 15.5372C34.8897 15.7416 34.549 15.8779 34.2764 15.8779Z" fill="#101608"/>
<path d="M31.2098 15.8779C30.869 15.8779 30.5283 15.8098 30.2558 15.6054C29.6425 15.2647 29.3018 14.6514 29.3018 13.9018V9.81331C29.3018 9.26817 29.5062 8.79118 29.8469 8.45047C30.2558 8.04162 30.7328 7.8372 31.2779 7.90534C31.4823 7.90534 31.6868 8.10976 31.6868 8.38233C31.6868 8.6549 31.4823 8.72304 31.2779 8.72304C31.0053 8.72304 30.6646 8.79118 30.4602 9.06375C30.2558 9.26817 30.1195 9.54074 30.1195 9.81331V13.9018C30.1195 14.3107 30.3239 14.6514 30.6646 14.8558C31.0053 15.0602 31.4142 15.0602 31.7549 14.8558C31.9593 14.7195 32.2319 14.7877 32.3682 14.9921C32.5045 15.1965 32.4363 15.4691 32.2319 15.6054C31.8912 15.7416 31.5505 15.8779 31.2098 15.8779Z" fill="#101608"/>
<path d="M32.7771 7.63277C32.3001 7.63277 31.8913 7.97348 31.755 8.38233C31.755 8.45047 31.6869 8.58676 31.6869 8.72304V13.9018C31.6869 14.3107 31.8913 14.6514 32.232 14.8558C32.5727 15.0602 32.9816 15.0602 33.3223 14.8558C33.663 14.6514 33.8674 14.3107 33.8674 13.9018V8.72304C33.8674 8.58676 33.8674 8.51861 33.7993 8.38233C33.7312 8.17791 33.663 8.04162 33.5267 7.90534C33.3223 7.76906 33.0497 7.63277 32.7771 7.63277ZM32.7771 15.8779C32.4364 15.8779 32.0957 15.8098 31.8231 15.6054C31.2099 15.2647 30.8691 14.6514 30.8691 13.9018V8.72304C30.8691 8.51861 30.8691 8.38233 30.9373 8.17791C31.2099 7.3602 31.9594 6.81507 32.7771 6.81507C33.3223 6.81507 33.7993 7.0195 34.14 7.3602C34.3444 7.56463 34.5489 7.90534 34.617 8.17791C34.6852 8.38233 34.6852 8.51861 34.6852 8.72304V13.9018C34.6852 14.5832 34.3444 15.2647 33.7312 15.6054C33.3904 15.7416 33.1179 15.8779 32.7771 15.8779Z" fill="#101608"/>
<path d="M38.501 16.0813C36.0479 16.7627 34.0036 18.7389 33.3222 21.2601C35.7753 20.5787 37.7515 18.6026 38.501 16.0813ZM32.777 22.2822C32.6407 22.2822 32.5726 22.2141 32.5045 22.1459C32.4363 22.0778 32.3682 21.8734 32.3682 21.7371C32.7089 20.1017 33.4585 18.6026 34.685 17.376C35.9116 16.2176 37.4108 15.3999 39.0462 15.0592C39.1825 15.0592 39.3188 15.0592 39.455 15.1955C39.5232 15.2636 39.5913 15.468 39.5913 15.6043C39.2506 17.2397 38.501 18.7389 37.2745 19.9654C36.0479 21.192 34.5487 21.9415 32.9133 22.2822C32.777 22.2822 32.777 22.2822 32.777 22.2822Z" fill="#101608"/>
<path d="M26.9843 16.0813C27.6657 18.5344 29.6419 20.5787 32.1632 21.2601C31.4817 18.807 29.5056 16.7627 26.9843 16.0813ZM32.7764 22.2822H32.7083C31.0729 21.9415 29.5737 21.192 28.3471 19.9654C27.1887 18.7389 26.371 17.2397 26.0303 15.6043C26.0303 15.468 26.0303 15.3318 26.1666 15.1955C26.2347 15.1273 26.4391 15.0592 26.5754 15.0592C28.2109 15.3999 29.71 16.1495 30.9366 17.376C32.095 18.5344 32.9127 20.0335 33.2534 21.669C33.2534 21.7371 33.2534 21.7371 33.2534 21.8052C33.1853 22.0778 32.9809 22.2822 32.7764 22.2822Z" fill="#101608"/>
<path d="M20.1022 24.2598C19.8978 24.2598 19.6934 24.0553 19.6934 23.8509V14.3792C19.6934 14.1748 19.8978 13.9704 20.1022 13.9704C20.3066 13.9704 20.5111 14.1748 20.5111 14.3792V23.8509C20.5111 24.0553 20.3748 24.2598 20.1022 24.2598Z" fill="#101608"/>
<path d="M21.6016 15.8779C21.2609 15.8779 20.9202 15.8098 20.6476 15.6054C20.4432 15.4691 20.375 15.1965 20.5113 14.9921C20.6476 14.7877 20.9202 14.7195 21.1246 14.8558C21.2609 14.9239 21.4653 14.9921 21.6698 14.9921C21.9423 14.9921 22.2149 14.8558 22.4193 14.6514C22.6238 14.447 22.7601 14.1744 22.7601 13.9018V9.81331C22.7601 9.20003 22.2831 8.72304 21.6698 8.72304C21.6698 8.72304 21.6698 8.72304 21.6016 8.72304C21.3972 8.72304 21.1928 8.51861 21.1246 8.31419C21.1246 8.10976 21.3291 7.90534 21.5335 7.8372H21.6016C22.6919 7.8372 23.5096 8.72304 23.5096 9.74517V13.8337C23.5096 14.3788 23.3052 14.8558 22.9645 15.1965C22.6238 15.6735 22.1468 15.8779 21.6016 15.8779Z" fill="#101608"/>
<path d="M18.6033 15.8779C17.513 15.8779 16.6953 14.9921 16.6953 13.97V9.88145C16.6953 9.33632 16.8997 8.85932 17.2405 8.51862C17.5812 8.17791 18.1263 7.97348 18.6033 7.97348H18.6715C18.8759 7.97348 19.0803 8.17791 19.0803 8.45047C19.0803 8.6549 18.8759 8.85932 18.6033 8.85932C18.6033 8.85932 18.6033 8.85932 18.5352 8.85932C18.2626 8.85932 17.99 8.99561 17.7856 9.20003C17.5812 9.40446 17.4449 9.67703 17.4449 9.94959V14.0381C17.4449 14.6514 17.9219 15.1284 18.5352 15.1284C18.6033 15.1284 18.7396 15.1284 18.8077 15.0602C18.8759 15.0602 19.0122 14.9921 19.0803 14.9239C19.2848 14.7877 19.5573 14.8558 19.6936 15.0602C19.8299 15.2647 19.7618 15.5372 19.5573 15.6735C19.421 15.7416 19.2848 15.8098 19.0803 15.8779C18.944 15.8098 18.8077 15.8779 18.6033 15.8779Z" fill="#101608"/>
<path d="M20.1023 7.63277C19.6253 7.63277 19.2165 7.97348 19.0802 8.38233C19.0802 8.45047 19.0121 8.58676 19.0121 8.72304V13.9018C19.0121 14.3107 19.2165 14.6514 19.5572 14.8558C19.8979 15.0602 20.3068 15.0602 20.6475 14.8558C20.9882 14.6514 21.1926 14.3107 21.1926 13.9018V8.72304C21.1926 8.58676 21.1926 8.51861 21.1245 8.45047C21.0563 8.24605 20.9882 8.10976 20.8519 7.97348C20.6475 7.76906 20.3749 7.63277 20.1023 7.63277ZM20.1023 15.8779C19.7616 15.8779 19.4209 15.8098 19.1483 15.6054C18.5351 15.2647 18.1943 14.6514 18.1943 13.9018V8.72304C18.1943 8.51861 18.1943 8.38233 18.2625 8.17791C18.5351 7.3602 19.2846 6.81507 20.1023 6.81507C20.6475 6.81507 21.1245 7.0195 21.4652 7.3602C21.6696 7.56463 21.8741 7.90534 21.9422 8.17791C22.0103 8.38233 22.0103 8.51861 22.0103 8.72304V13.9018C22.0103 14.5832 21.6696 15.2647 21.0563 15.6054C20.7838 15.7416 20.4431 15.8779 20.1023 15.8779Z" fill="#101608"/>
<path d="M25.8262 16.0813C23.3731 16.7627 21.3288 18.7389 20.6474 21.2601C23.1687 20.5787 25.1448 18.6026 25.8262 16.0813ZM20.1022 22.2822C19.9659 22.2822 19.8978 22.2141 19.8296 22.1459C19.7615 22.0778 19.6934 21.8734 19.6934 21.7371C20.0341 20.1017 20.7836 18.6026 22.0102 17.376C23.2368 16.2176 24.7359 15.3999 26.3714 15.0592C26.5077 15.0592 26.644 15.0592 26.7802 15.1955C26.8484 15.2636 26.9165 15.468 26.9165 15.6043C26.5758 17.2397 25.8262 18.7389 24.5997 19.9654C23.3731 21.1238 21.8739 21.9415 20.2385 22.2822C20.1704 22.2822 20.1704 22.2822 20.1022 22.2822Z" fill="#101608"/>
<path d="M14.3776 16.0813C15.059 18.5344 17.0352 20.5787 19.5565 21.2601C18.8069 18.807 16.8308 16.7627 14.3776 16.0813ZM20.1016 22.2822H20.0335C18.3981 21.9415 16.8989 21.192 15.6723 19.9654C14.4458 18.7389 13.6962 17.2397 13.3555 15.6043C13.3555 15.468 13.3555 15.3318 13.4918 15.1955C13.5599 15.1273 13.7643 15.0592 13.9006 15.0592C15.536 15.3999 17.0352 16.1495 18.2618 17.376C19.4202 18.5344 20.2379 20.0335 20.5786 21.669C20.5786 21.7371 20.5786 21.7371 20.5786 21.8052C20.5105 22.0778 20.3742 22.2822 20.1016 22.2822Z" fill="#101608"/>
<path d="M7.49675 24.2598C7.29232 24.2598 7.08789 24.0553 7.08789 23.8509V14.3792C7.08789 14.1748 7.29232 13.9704 7.49675 13.9704C7.70118 13.9704 7.90561 14.1748 7.90561 14.3792V23.8509C7.90561 24.0553 7.70118 24.2598 7.49675 24.2598Z" fill="#101608"/>
<path d="M8.9942 15.8779C8.65349 15.8779 8.31277 15.8098 8.0402 15.6054C7.83577 15.4691 7.76763 15.1965 7.90391 14.9921C8.0402 14.7877 8.31277 14.7195 8.5172 14.8558C8.85792 15.0602 9.26677 15.0602 9.60749 14.8558C9.9482 14.6514 10.1526 14.3107 10.1526 13.9018V9.81331C10.1526 9.20003 9.67563 8.72304 9.06234 8.72304C9.06234 8.72304 9.06234 8.72304 8.9942 8.72304C8.78977 8.72304 8.58534 8.51861 8.5172 8.31419C8.44906 8.10976 8.72163 7.90534 8.92606 7.8372H8.9942C10.0845 7.8372 10.9022 8.72304 10.9022 9.74517V13.8337C10.9022 14.5151 10.5615 15.1284 9.9482 15.5372C9.67563 15.7416 9.33492 15.8779 8.9942 15.8779Z" fill="#101608"/>
<path d="M5.9959 15.8779C5.65518 15.8779 5.31447 15.8098 5.04189 15.6054C4.42861 15.2647 4.08789 14.6514 4.08789 13.9018V9.81331C4.08789 9.26818 4.29232 8.79118 4.63304 8.45047C4.97375 8.10977 5.5189 7.90534 5.9959 7.90534H6.06404C6.26847 7.90534 6.4729 8.10977 6.4729 8.38233C6.4729 8.58676 6.26847 8.79118 5.9959 8.79118C5.9959 8.79118 5.9959 8.79118 5.92775 8.79118C5.65518 8.79118 5.38261 8.92747 5.17818 9.13189C4.97375 9.33632 4.83746 9.60888 4.83746 9.88145V13.97C4.83746 14.3788 5.04189 14.7195 5.38261 14.9239C5.72333 15.1284 6.13218 15.1284 6.4729 14.9239C6.67733 14.7877 6.9499 14.8558 7.08619 15.0602C7.22247 15.2647 7.15433 15.5372 6.9499 15.6735C6.60919 15.7416 6.33661 15.8779 5.9959 15.8779Z" fill="#101608"/>
<path d="M7.4959 7.63277C7.0189 7.63277 6.61004 7.97348 6.47375 8.38233C6.47375 8.45047 6.40561 8.58676 6.40561 8.72304V13.9018C6.40561 14.3107 6.61004 14.6514 6.95075 14.8558C7.29147 15.0602 7.70033 15.0602 8.04104 14.8558C8.38176 14.6514 8.58619 14.3107 8.58619 13.9018V8.72304C8.58619 8.58676 8.58619 8.51861 8.51804 8.38233C8.4499 8.17791 8.38176 8.04162 8.24547 7.90534C8.04104 7.76906 7.76847 7.63277 7.4959 7.63277ZM7.4959 15.8779C7.15518 15.8779 6.81447 15.8098 6.54189 15.6054C5.92861 15.2647 5.58789 14.6514 5.58789 13.9018V8.72304C5.58789 8.51861 5.58789 8.38233 5.65603 8.17791C5.92861 7.3602 6.67818 6.81507 7.4959 6.81507C8.04104 6.81507 8.51804 7.0195 8.85876 7.3602C9.06319 7.56463 9.26762 7.90534 9.33576 8.17791C9.4039 8.38233 9.4039 8.51861 9.4039 8.72304V13.9018C9.4039 14.5832 9.06319 15.2647 8.4499 15.6054C8.17733 15.7416 7.83661 15.8779 7.4959 15.8779Z" fill="#101608"/>
<path d="M13.2208 16.0813C10.7676 16.7627 8.72333 18.7389 8.04189 21.2601C10.5632 20.5787 12.5393 18.6026 13.2208 16.0813ZM7.49675 22.2822C7.36046 22.2822 7.29232 22.2141 7.22418 22.1459C7.15603 22.0778 7.08789 21.8734 7.08789 21.7371C7.42861 20.1017 8.17818 18.6026 9.40476 17.376C10.6313 16.2176 12.1305 15.3999 13.7659 15.0592C13.9022 15.0592 14.0385 15.0592 14.1748 15.1955C14.2429 15.2636 14.3111 15.468 14.3111 15.6043C13.9703 17.2397 13.2208 18.7389 11.9942 19.9654C10.7676 21.192 9.26847 21.9415 7.63304 22.2822C7.56489 22.2822 7.49675 22.2822 7.49675 22.2822Z" fill="#101608"/>
<path d="M1.704 16.0813C2.38543 18.6026 4.36158 20.5787 6.88288 21.2601C6.20145 18.807 4.2253 16.7627 1.704 16.0813ZM7.49617 22.2822H7.42802C5.79259 21.9415 4.29344 21.192 3.06687 19.9654C1.84029 18.7389 1.09072 17.2397 0.75 15.6043C0.75 15.468 0.75 15.3318 0.886286 15.1955C0.954429 15.1273 1.15886 15.0592 1.29514 15.0592C2.93058 15.3999 4.42973 16.1495 5.6563 17.376C6.81474 18.5344 7.63245 20.0335 7.97317 21.669C7.97317 21.7371 7.97317 21.7371 7.97317 21.8052C7.90503 22.0778 7.7006 22.2822 7.49617 22.2822Z" fill="#101608"/>
<path d="M20.8516 31.959H11.4479C11.2435 31.959 11.039 31.7546 11.039 31.5501C11.039 30.8687 10.4939 30.2554 9.74432 30.2554C8.99475 30.2554 8.4496 30.8006 8.4496 31.5501C8.4496 31.7546 8.24517 31.959 8.04074 31.959H3.74773C3.5433 31.959 3.33887 31.7546 3.33887 31.5501C3.33887 31.3457 3.5433 31.1413 3.74773 31.1413H7.63188C7.83631 30.1873 8.72217 29.4377 9.74432 29.4377C10.7665 29.4377 11.6523 30.1873 11.8568 31.1413H20.8516C21.0561 31.1413 21.2605 31.3457 21.2605 31.5501C21.2605 31.7546 21.0561 31.959 20.8516 31.959Z" fill="#101608"/>
<path d="M25.0767 28.5518H18.2624C18.0579 28.5518 17.8535 28.3473 17.8535 28.1429C17.8535 27.9385 18.0579 27.7341 18.2624 27.7341H25.0767C25.2811 27.7341 25.4855 27.9385 25.4855 28.1429C25.4855 28.3473 25.2811 28.5518 25.0767 28.5518Z" fill="#101608"/>
<path d="M27.6656 34.4805H24.2585C24.054 34.4805 23.8496 34.276 23.8496 34.0716C23.8496 33.8672 24.054 33.6628 24.2585 33.6628H27.6656C27.8701 33.6628 28.0745 33.8672 28.0745 34.0716C28.0745 34.276 27.8701 34.4805 27.6656 34.4805Z" fill="#101608"/>
<path d="M31.8904 31.959H27.5973C27.3929 31.959 27.1885 31.7546 27.1885 31.5501C27.1885 31.3457 27.3929 31.1413 27.5973 31.1413H31.8904C32.0948 31.1413 32.2992 31.3457 32.2992 31.5501C32.2992 31.7546 32.0948 31.959 31.8904 31.959Z" fill="#101608"/>
<path d="M39.5908 28.5518H31.0729C30.8685 28.5518 30.6641 28.3473 30.6641 28.1429C30.6641 27.9385 30.8685 27.7341 31.0729 27.7341H39.5908C39.7952 27.7341 39.9997 27.9385 39.9997 28.1429C39.9997 28.3473 39.7952 28.5518 39.5908 28.5518Z" fill="#101608"/>
<path d="M3.81601 27.666H0.408859C0.204429 27.666 0 27.4616 0 27.2572C0 27.0527 0.204429 26.8483 0.408859 26.8483H3.81601C4.02044 26.8483 4.22487 27.0527 4.22487 27.2572C4.22487 27.4616 4.02044 27.666 3.81601 27.666Z" fill="#101608"/>
<path d="M6.33716 35.3662H3.74773C3.5433 35.3662 3.33887 35.1618 3.33887 34.9574C3.33887 34.7529 3.5433 34.5485 3.74773 34.5485H6.33716C6.54159 34.5485 6.74602 34.7529 6.74602 34.9574C6.74602 35.1618 6.54159 35.3662 6.33716 35.3662Z" fill="#101608"/>
<path d="M13.5608 28.5518H9.7448C9.54037 28.5518 9.33594 28.3473 9.33594 28.1429C9.33594 27.9385 9.54037 27.7341 9.7448 27.7341H13.5608C13.7652 27.7341 13.9697 27.9385 13.9697 28.1429C13.9697 28.3473 13.8334 28.5518 13.5608 28.5518Z" fill="#101608"/>
<path d="M18.2624 34.4805H12.7428C12.5384 34.4805 12.334 34.276 12.334 34.0716C12.334 33.8672 12.5384 33.6628 12.7428 33.6628H18.2624C18.4669 33.6628 18.6713 33.8672 18.6713 34.0716C18.6713 34.276 18.4669 34.4805 18.2624 34.4805Z" fill="#101608"/>
<path d="M35.2986 33.6627C35.0942 33.6627 34.8898 33.8671 34.8898 34.0715C34.8898 34.2759 35.0942 34.4804 35.2986 34.4804C35.5031 34.4804 35.7075 34.2759 35.7075 34.0715C35.7075 33.7989 35.5031 33.6627 35.2986 33.6627ZM35.2986 35.3662C34.6172 35.3662 34.0039 34.8211 34.0039 34.0715C34.0039 33.322 34.5491 32.7768 35.2986 32.7768C36.0482 32.7768 36.5933 33.322 36.5933 34.0715C36.5933 34.8211 35.9801 35.3662 35.2986 35.3662Z" fill="#101608"/>
<path d="M6.74589 26.3717C6.54146 26.3717 6.33703 26.5761 6.33703 26.7805C6.33703 26.9849 6.54146 27.1894 6.74589 27.1894C6.95032 27.1894 7.15475 26.9849 7.15475 26.7805C7.15475 26.5761 7.01846 26.3717 6.74589 26.3717ZM6.74589 28.0752C6.06446 28.0752 5.45117 27.5301 5.45117 26.7805C5.45117 26.0309 5.99632 25.4858 6.74589 25.4858C7.49547 25.4858 8.04061 26.0309 8.04061 26.7805C8.04061 27.5301 7.49547 28.0752 6.74589 28.0752Z" fill="#101608"/>
<path d="M20.8514 34.48C20.6469 34.48 20.4425 34.6845 20.4425 34.8889C20.4425 35.0933 20.6469 35.2978 20.8514 35.2978C21.0558 35.2978 21.2602 35.0933 21.2602 34.8889C21.2602 34.6845 21.0558 34.48 20.8514 34.48ZM20.8514 36.1836C20.1699 36.1836 19.5566 35.6385 19.5566 34.8889C19.5566 34.1393 20.1018 33.5942 20.8514 33.5942C21.6009 33.5942 22.1461 34.1393 22.1461 34.8889C22.1461 35.6385 21.5328 36.1836 20.8514 36.1836Z" fill="#101608"/>
<path d="M26.781 7.22321C26.5766 7.22321 26.3722 7.42764 26.3722 7.63206C26.3722 7.83649 26.5766 8.04091 26.781 8.04091C26.9855 8.04091 27.1899 7.83649 27.1899 7.63206C27.1899 7.42764 26.9855 7.22321 26.781 7.22321ZM26.781 8.92676C26.0996 8.92676 25.4863 8.38162 25.4863 7.63206C25.4863 6.8825 26.0315 6.33737 26.781 6.33737C27.5306 6.33737 28.0758 6.8825 28.0758 7.63206C28.0758 8.38162 27.4625 8.92676 26.781 8.92676Z" fill="#101608"/>
<path d="M11.0398 5.52106C10.8354 5.52106 10.631 5.72549 10.631 5.92992C10.631 6.13434 10.8354 6.33877 11.0398 6.33877C11.2443 6.33877 11.4487 6.13434 11.4487 5.92992C11.4487 5.72549 11.2443 5.52106 11.0398 5.52106ZM11.0398 7.22461C10.3584 7.22461 9.74512 6.67948 9.74512 5.92992C9.74512 5.18036 10.2903 4.63522 11.0398 4.63522C11.7894 4.63522 12.3346 5.18036 12.3346 5.92992C12.3346 6.67948 11.7213 7.22461 11.0398 7.22461Z" fill="#101608"/>
<path d="M3.81686 0.817838C3.33986 0.817838 2.931 1.22669 2.931 1.70368C2.931 2.18067 3.33986 2.58952 3.81686 2.58952C4.29386 2.58952 4.70272 2.18067 4.70272 1.70368C4.63458 1.22669 4.22572 0.817838 3.81686 0.817838ZM3.81686 3.40723C2.86286 3.40723 2.11328 2.65767 2.11328 1.70368C2.11328 0.749696 2.86286 0.000136852 3.81686 0.000136852C4.77086 0.000136852 5.52044 0.749696 5.52044 1.70368C5.52044 2.65767 4.70272 3.40723 3.81686 3.40723Z" fill="#101608"/>
<path d="M35.298 1.70424C34.6166 1.70424 34.0033 2.24937 34.0033 2.99893C34.0033 3.74849 34.5484 4.29363 35.298 4.29363C36.0476 4.29363 36.5927 3.74849 36.5927 2.99893C36.5927 2.24937 35.9794 1.70424 35.298 1.70424ZM35.298 5.11133C34.1396 5.11133 33.1855 4.15734 33.1855 2.99893C33.1855 1.84052 34.1396 0.886537 35.298 0.886537C36.4564 0.886537 37.4104 1.84052 37.4104 2.99893C37.4104 4.15734 36.4564 5.11133 35.298 5.11133Z" fill="#101608"/>
</svg>
