<svg width="110" height="100" viewBox="0 0 110 100" fill="none" xmlns="http://www.w3.org/2000/svg">
<path d="M56.4858 24.3015C52.1557 22.6035 50.4692 20.9055 50.4692 18.2456C50.4692 15.3688 52.4846 13.2529 55.7295 12.7242L56.525 12.5942V8.68571H57.1159V12.5454L58.0327 12.576C59.5692 12.6267 60.9058 12.924 62.0942 13.4795L61.7672 14.3429C60.7815 13.8878 59.2498 13.3667 57.222 13.3667C53.629 13.3667 52.0209 15.5753 52.0209 17.7647C52.0209 20.6808 54.4321 21.9093 57.5863 23.2144C61.5817 24.8445 63.2128 26.7175 63.2128 29.6776C63.2128 32.695 61.0368 35.0039 57.6704 35.5604L56.8749 35.6913V39.7193H56.2449V35.6837L55.3136 35.6684C53.5353 35.6368 51.625 35.1626 50.3104 34.4513L50.6298 33.5593C52.2322 34.3796 54.0937 34.8376 55.8978 34.8376C59.2145 34.8376 61.62 32.7858 61.62 29.9586C61.62 26.7892 58.8818 25.2729 56.4858 24.3015ZM55.8978 32.9397C54.0545 32.9397 52.1404 32.3689 50.6489 31.3746L49.6383 30.7025L48.0254 35.2066L48.6076 35.6244C50.0007 36.6168 52.1786 37.3243 54.348 37.5156V41.6162H58.7718V37.2689C62.5961 36.33 65.1097 33.3623 65.1097 29.6776C65.1097 24.8531 61.4718 22.7517 58.3072 21.46C54.5516 19.9063 53.9187 19.064 53.9187 17.7647C53.9187 16.5553 54.7868 15.2636 57.222 15.2636C59.638 15.2636 61.1563 16.1317 61.8045 16.5017L62.7702 17.0524L64.45 12.6181L63.7578 12.2127C62.3552 11.3914 60.7958 10.9057 59.0127 10.7375V6.78883H54.6281V11.0128C50.9214 11.9125 48.5723 14.6813 48.5723 18.2456C48.5723 22.6312 52.0419 24.5969 55.7821 26.0645C58.5815 27.1984 59.7221 28.3276 59.7221 29.9586C59.7221 31.7418 58.1857 32.9397 55.8978 32.9397Z" fill="white"/>
<path d="M105.334 56.4493L105.298 56.9847H4.71709L4.67788 56.4531L4.61094 55.5659L10.575 39.3382H39.0913C39.4278 39.713 39.7911 40.061 40.1496 40.4148C41.9318 42.1692 43.974 43.6597 46.238 44.7822H18.1042V53.4195H91.895V44.7822H67.1486C69.8667 43.4341 72.2895 41.5783 74.2925 39.3382H97.73L105.386 55.6682L105.334 56.4493ZM102.736 95.9366H7.66948L4.93506 59.853H105.11L102.736 95.9366ZM61.7496 46.679H89.9972V51.5226H20.0011V46.679H51.6361C51.7317 46.701 51.8321 46.7154 51.9296 46.7354C53.4345 47.0462 54.9901 47.2202 56.5848 47.2278C56.6202 47.2278 56.6555 47.2297 56.6928 47.2297C58.4281 47.2297 60.1195 47.0366 61.7496 46.679ZM35.788 23.6144C35.788 12.0888 45.1663 2.71052 56.6928 2.71052C61.2868 2.71052 65.5366 4.20392 68.9891 6.72417C69.2529 6.9173 69.512 7.11616 69.7683 7.32076C71.7349 8.90308 73.41 10.8306 74.6998 13.0133C76.5374 16.1235 77.5977 19.747 77.5977 23.6144C77.5977 24.3353 77.5604 25.0466 77.4896 25.7493C77.2755 27.8546 76.7467 29.8691 75.9532 31.744C74.3642 35.4947 71.7101 38.6881 68.3733 40.9444C65.0366 43.2017 61.0163 44.5192 56.6928 44.5192C45.1663 44.5192 35.788 35.1419 35.788 23.6144ZM77.2171 35.2729C79.18 31.83 80.3072 27.8527 80.3072 23.6144C80.3072 10.5935 69.7138 0 56.6928 0C43.67 0 33.0765 10.5935 33.0765 23.6144C33.0765 27.8527 34.2047 31.83 36.1666 35.2729H7.73638L0.489258 54.9932L3.90059 100H106.542L109.511 54.8899L100.314 35.2729H77.2171Z" fill="white"/>
</svg>
