<svg width="92" height="72" viewBox="0 0 92 72" fill="none" xmlns="http://www.w3.org/2000/svg">
<mask id="mask0_2094_7045" style="mask-type:alpha" maskUnits="userSpaceOnUse" x="0" y="0" width="92" height="72">
<path d="M38.5215 3.95674C29.2228 -3.78349 13.5379 0.733682 5.54759 9.73888C-2.43282 18.7329 -1.37413 32.2831 7.91298 40.0138L45.4024 71.2201C45.6313 71.4106 45.8455 71.6182 46.0432 71.8409C46.0686 71.8776 46.1228 71.8776 46.1483 71.8409C46.3459 71.6182 46.5601 71.4106 46.789 71.2201L84.2784 40.0138C93.5655 32.2831 94.6242 18.7329 86.6438 9.73888C78.6535 0.733682 62.8921 -3.78349 53.5934 3.95674C49.4474 7.88916 42.9742 7.97107 38.7301 4.14482L38.5215 3.95674Z" fill="#D9D9D9"/>
</mask>
<g mask="url(#mask0_2094_7045)">
<path d="M38.5215 3.95674C29.2228 -3.78349 13.5379 0.733682 5.54759 9.73888C-2.43282 18.7329 -1.37413 32.2831 7.91298 40.0138L45.4024 71.2201C45.6313 71.4106 45.8455 71.6182 46.0432 71.8409C46.0686 71.8776 46.1228 71.8776 46.1483 71.8409C46.3459 71.6182 46.5601 71.4106 46.789 71.2201L84.2784 40.0138C93.5655 32.2831 94.6242 18.7329 86.6438 9.73888C78.6535 0.733682 62.8921 -3.78349 53.5934 3.95674C49.4474 7.88916 42.9742 7.97107 38.7301 4.14482L38.5215 3.95674Z" fill="white" fill-opacity="0.2"/>
<path d="M44.9202 48.8216C46.3646 49.2355 47.461 53.5828 47.7058 51.6709C47.9155 50.0315 46.6413 46.1203 46.7904 43.9335C46.8299 43.3607 47.5723 43.2818 47.7609 43.8394C47.7669 43.8562 48.3699 47.4918 48.8411 48.5547C49.5063 50.0542 48.9773 46.3889 49.0459 43.0781C49.0573 42.5426 49.4366 42.2843 49.7754 42.3778C50.2574 42.5107 50.152 43.0257 50.1709 43.7995C50.2088 45.3254 50.0461 48.8378 50.4914 48.5941C50.9361 48.3509 50.7702 43.8794 51.1393 42.963C51.3084 42.542 52.0325 42.6787 52.0028 43.4639C52.0022 43.4828 51.9115 46.1198 51.9109 46.1382C51.7947 50.7204 52.7382 49.4673 53.2899 46.1635C53.3494 45.8053 53.4612 45.4876 53.8227 45.5232C54.7554 45.614 53.7817 48.666 53.411 50.627C53.0878 52.3394 52.3384 53.8005 52.4162 56.0576C52.6966 61.8309 53.3894 67.1065 53.8649 72.8765L48.3526 72.736C48.5936 70.2049 50.1148 58.4433 48.0943 56.752C46.7175 55.5989 45.1207 50.4043 44.3836 49.3652C44.094 48.9572 44.5955 48.7287 44.9202 48.8216Z" fill="#02111A" fill-opacity="0.5"/>
<path d="M45.163 40.3085C43.3782 40.8196 42.023 46.1925 41.7204 43.8295C41.461 41.8036 43.0362 36.9695 42.8514 34.2666C42.8033 33.5593 41.8852 33.4615 41.6523 34.151C41.6453 34.1715 40.9001 38.6647 40.3176 39.9778C39.4957 41.8312 40.149 37.3013 40.0642 33.2097C40.0507 32.5483 39.5815 32.2289 39.1627 32.3446C38.5671 32.5088 38.6971 33.1448 38.6736 34.1013C38.6273 35.9872 38.828 40.3279 38.278 40.0269C37.7281 39.7259 37.9335 34.2002 37.4774 33.0676C37.2679 32.5477 36.3736 32.7163 36.4098 33.6863C36.4107 33.7106 36.5228 36.969 36.5234 36.9917C36.6669 42.6553 35.501 41.1066 34.8196 37.023C34.7457 36.5805 34.6075 36.1876 34.1611 36.2314C33.0083 36.3443 34.2115 40.1161 34.6695 42.5396C35.0693 44.6552 35.9953 46.4611 35.8994 49.2504C35.5525 56.3854 34.6967 62.9054 34.1088 70.0366L40.9212 69.8626C40.6234 66.7344 38.7433 52.1992 41.2405 50.1085C42.9421 48.6841 44.9156 42.264 45.8261 40.9801C46.1843 40.4754 45.564 40.1934 45.163 40.3085Z" fill="#02111A" fill-opacity="0.5"/>
<path d="M67.7558 33.0204C65.9711 33.5316 64.6156 38.9044 64.3132 36.5414C64.0539 34.5156 65.6291 29.682 65.4443 26.9791C65.3959 26.2718 64.4781 26.174 64.2448 26.8629C64.2378 26.8835 63.4927 31.3766 62.9102 32.6902C62.0884 34.5431 62.7417 30.0133 62.657 25.9222C62.6433 25.2602 62.1743 24.9409 61.7555 25.0565C61.1599 25.2208 61.2899 25.8573 61.2664 26.8138C61.2201 28.6991 61.4208 33.0398 60.8708 32.7389C60.3208 32.4384 60.5263 26.9126 60.0701 25.7795C59.8607 25.2597 58.9664 25.4288 59.0026 26.3982C59.0035 26.4225 59.1156 29.6809 59.1162 29.7036C59.2597 35.3672 58.0937 33.8185 57.4123 29.735C57.3384 29.2924 57.2003 28.9001 56.7539 28.9433C55.601 29.0563 56.8043 32.828 57.2623 35.2516C57.6621 37.3676 58.588 39.173 58.4922 41.9629C58.1452 49.0973 57.2895 55.6173 56.7015 62.7485L63.5139 62.5745C63.216 59.4464 61.3361 44.9111 63.8333 42.8204C65.535 41.396 67.5081 34.976 68.4188 33.6921C68.7769 33.1874 68.1569 32.9053 67.7558 33.0204Z" fill="#02111A" fill-opacity="0.5"/>
<path d="M36.5641 25.148C33.9795 25.9839 32.0168 34.7684 31.5788 30.9051C31.2033 27.593 33.4842 19.6895 33.2167 15.2703C33.1467 14.1136 31.8177 13.9541 31.4798 15.0807C31.4696 15.1147 30.3907 22.4605 29.5472 24.6082C28.3572 27.6382 29.3032 20.232 29.1804 13.5425C29.1606 12.4602 28.4815 11.9381 27.8751 12.1272C27.0127 12.3954 27.2008 13.436 27.1669 14.9999C27.0999 18.0834 27.3904 25.1802 26.594 24.6881C25.7976 24.1965 26.0951 15.1616 25.4346 13.3095C25.1313 12.4593 23.8363 12.7357 23.8887 14.3214C23.89 14.3605 24.0524 19.6882 24.0532 19.7251C24.261 28.9852 22.5727 26.4529 21.586 19.7764C21.479 19.0531 21.2788 18.4111 20.6325 18.4824C18.9631 18.6667 20.7055 24.8333 21.3686 28.7961C21.9476 32.2556 23.2884 35.2079 23.1496 39.7688C22.6473 51.4343 21.408 62.094 20.5566 73.7539L30.4213 73.4696C29.99 68.3549 27.2678 44.5901 30.8839 41.1715C33.3481 38.8425 36.2053 28.3458 37.5242 26.2468C38.0423 25.4214 37.1446 24.9602 36.5641 25.148Z" fill="#02111A" fill-opacity="0.5"/>
</g>
</svg>
