<svg width="32" height="32" viewBox="0 0 32 32" fill="none" xmlns="http://www.w3.org/2000/svg">
<path d="M18.7333 7.99935C20.0357 8.25344 21.2325 8.89036 22.1708 9.8286C23.1091 10.7668 23.746 11.9637 24 13.266M18.7333 2.66602C21.4391 2.9666 23.9621 4.17824 25.8884 6.10203C27.8145 8.0258 29.0295 10.5474 29.3333 13.2527M24.6667 27.9993C13.2528 27.9993 4 18.7465 4 7.33268C4 6.81772 4.01884 6.30716 4.05585 5.80166C4.09833 5.22151 4.11957 4.93144 4.2716 4.66739C4.39752 4.4487 4.62067 4.2413 4.84797 4.13168C5.12241 3.99935 5.44251 3.99935 6.08268 3.99935H9.83909C10.3774 3.99935 10.6466 3.99935 10.8774 4.08795C11.0812 4.16622 11.2627 4.29334 11.4059 4.45815C11.568 4.64472 11.66 4.8977 11.844 5.40363L13.3988 9.67942C13.6128 10.2681 13.7199 10.5624 13.7017 10.8416C13.6857 11.0878 13.6016 11.3248 13.4589 11.5261C13.2971 11.7544 13.0286 11.9155 12.4915 12.2378L10.6667 13.3327C12.2692 16.8645 15.1335 19.7325 18.6667 21.3327L19.7616 19.5079C20.0839 18.9707 20.2449 18.7021 20.4732 18.5404C20.6745 18.3977 20.9115 18.3136 21.1577 18.2976C21.4369 18.2795 21.7313 18.3865 22.32 18.6005L26.5957 20.1553C27.1016 20.3393 27.3547 20.4313 27.5412 20.5935C27.706 20.7367 27.8332 20.9181 27.9113 21.122C28 21.3527 28 21.6219 28 22.1603V25.9167C28 26.5568 28 26.877 27.8676 27.1514C27.758 27.3787 27.5507 27.6019 27.332 27.7278C27.0679 27.8798 26.7779 27.9009 26.1977 27.9435C25.6921 27.9805 25.1816 27.9993 24.6667 27.9993Z" stroke="white" stroke-width="2" stroke-linecap="round" stroke-linejoin="round"/>
</svg>
