<svg width="24" height="24" viewBox="0 0 24 24" fill="none" xmlns="http://www.w3.org/2000/svg">
<circle cx="12" cy="12" r="12" fill="#CCE4AF"/>
<path fill-rule="evenodd" clip-rule="evenodd" d="M7.82255 19.7336C7.78597 19.7336 7.75405 19.7298 7.71747 19.7212C7.60849 19.6932 7.51508 19.6239 7.45825 19.5266L5.45772 16.1242C5.40089 16.0269 5.38455 15.9093 5.41335 15.8003C5.44137 15.6914 5.51454 15.5979 5.61573 15.5411L6.96473 14.7876C7.16323 14.6786 7.41466 14.7432 7.53143 14.9378L9.5483 18.2711C9.60513 18.3684 9.62536 18.4821 9.59656 18.5911C9.56854 18.7 9.50315 18.7935 9.40585 18.8503L8.04127 19.6723C7.97199 19.7136 7.89962 19.7336 7.82255 19.7336ZM5.88663 15.9265L7.83891 19.248L9.12719 18.4704L7.15468 15.2142L5.88663 15.9265Z" fill="#101608"/>
<path fill-rule="evenodd" clip-rule="evenodd" d="M9.19956 18.3807C9.14274 18.3807 9.08591 18.3605 9.04154 18.32C8.94813 18.2313 8.94035 18.0849 9.02909 17.9923C9.13807 17.8748 9.45022 17.5751 9.95695 17.3766C10.4995 17.1656 11.0833 17.1337 11.6983 17.2878C13.2575 17.6685 16.34 16.8908 17.8182 14.7487C18.0533 14.4085 18.1623 14.0037 18.1257 13.6067C18.1218 13.5538 18.1133 13.5016 18.1055 13.4526C18.0814 13.3312 17.9879 13.2821 17.9475 13.2704C17.8626 13.2424 17.7731 13.258 17.7046 13.3148C17.5995 13.4036 17.4897 13.4931 17.3847 13.574C16.6802 14.1088 15.5701 14.7245 14.2943 14.6187C14.1643 14.6062 14.0717 14.4972 14.0794 14.3672C14.0919 14.2373 14.2009 14.1446 14.3309 14.1524C15.4611 14.2458 16.4613 13.6869 17.1012 13.2004C17.2024 13.1233 17.3036 13.0424 17.4009 12.9575C17.5955 12.7871 17.8586 12.7388 18.1015 12.8236C18.3443 12.9085 18.5187 13.107 18.567 13.3584C18.5794 13.423 18.5872 13.4923 18.595 13.5608C18.6393 14.0668 18.5016 14.5813 18.2058 15.0071C17.8251 15.5621 17.3269 16.0517 16.7315 16.4737C16.1967 16.8543 15.5934 17.1626 14.9411 17.3969C13.7423 17.8265 12.4868 17.9519 11.5877 17.7331C10.2791 17.4132 9.514 18.1504 9.37232 18.2998C9.32483 18.3528 9.26417 18.3807 9.19956 18.3807Z" fill="#101608"/>
<path fill-rule="evenodd" clip-rule="evenodd" d="M7.58759 15.7112C7.51053 15.7112 7.43736 15.6746 7.39299 15.6061C7.31982 15.5011 7.34862 15.3547 7.4576 15.2823L9.41377 13.9699C9.57179 13.8648 9.7298 13.7512 9.8995 13.6258C10.2194 13.3869 10.8795 12.9977 11.6813 13.0467H11.6891C11.7335 13.0506 11.7778 13.0545 11.8269 13.0592C12.4667 13.1401 13.1712 13.3791 13.6453 13.5651C13.7589 13.6095 13.8718 13.6539 13.9777 13.7029C14.2446 13.8166 14.4478 14.0392 14.5327 14.3101C14.5366 14.3179 14.5366 14.3264 14.5405 14.3342V14.3381C14.609 14.581 14.5732 14.8122 14.4393 15.0068C14.2851 15.2294 14.0586 15.3672 13.7792 15.3999C13.5807 15.424 13.4265 15.3874 13.411 15.3836C13.4071 15.3836 13.4032 15.3797 13.3946 15.3797L11.4867 14.7842C11.3653 14.7476 11.296 14.6137 11.3326 14.4923C11.3692 14.3708 11.5031 14.3016 11.6245 14.3381L13.5238 14.9297C13.5721 14.9375 13.8803 14.9905 14.0547 14.739C14.0913 14.6861 14.1318 14.6051 14.0913 14.4635C14.0913 14.4596 14.0874 14.4557 14.0874 14.451V14.4471C14.043 14.3055 13.9333 14.1879 13.7916 14.1272C13.6904 14.0828 13.5853 14.0385 13.4717 13.9972C13.0217 13.8189 12.3577 13.5963 11.7661 13.5193C11.7296 13.5154 11.6891 13.5115 11.6525 13.5115H11.6447C10.9683 13.4749 10.3891 13.8439 10.1704 14.0019C9.99602 14.1319 9.83022 14.2486 9.6644 14.3584L7.70823 15.6708C7.6771 15.6996 7.63196 15.7112 7.58759 15.7112Z" fill="#101608"/>
<path fill-rule="evenodd" clip-rule="evenodd" d="M8.20378 8.83042C8.10259 8.83042 8.00918 8.76192 7.98115 8.66461C7.80289 8.06912 7.6978 7.96013 7.09842 7.78188C7.00112 7.75386 6.93262 7.66045 6.93262 7.55925C6.93262 7.45806 7.00112 7.36465 7.09842 7.33662C7.69392 7.15836 7.8029 7.05327 7.98115 6.45389C8.00917 6.35659 8.10259 6.28809 8.20378 6.28809C8.30498 6.28809 8.39839 6.35659 8.42641 6.45389C8.60467 7.04938 8.70976 7.15837 9.30915 7.33662C9.40645 7.36464 9.47495 7.45806 9.47495 7.55925C9.47495 7.66045 9.40645 7.75386 9.30915 7.78188C8.71365 7.96014 8.60467 8.06523 8.42641 8.66461C8.39839 8.76192 8.30887 8.83042 8.20378 8.83042ZM7.79433 7.55848C7.87918 7.60674 7.95624 7.66746 8.02553 7.73674C8.09403 7.80524 8.15086 7.8823 8.20379 7.96794C8.25205 7.88309 8.31277 7.80603 8.38205 7.73674C8.45055 7.66824 8.52761 7.61141 8.61325 7.55848C8.5284 7.51022 8.45134 7.4495 8.38205 7.38022C8.31355 7.31172 8.25672 7.23466 8.20379 7.14902C8.15553 7.23387 8.09481 7.31093 8.02553 7.38022C7.95703 7.4495 7.87997 7.51022 7.79433 7.55848Z" fill="#101608"/>
<path fill-rule="evenodd" clip-rule="evenodd" d="M17.4704 8.6644C16.9761 8.6644 16.5752 8.26351 16.5752 7.76921C16.5752 7.27491 16.9761 6.87402 17.4704 6.87402C17.9647 6.87402 18.3656 7.27491 18.3656 7.76921C18.3656 8.26351 17.9647 8.6644 17.4704 8.6644ZM17.4704 7.33953C17.2353 7.33953 17.0407 7.53024 17.0407 7.76921C17.0407 8.0043 17.2314 8.19889 17.4704 8.19889C17.7055 8.19889 17.9001 8.00818 17.9001 7.76921C17.9001 7.53024 17.7055 7.33953 17.4704 7.33953Z" fill="#101608"/>
<path fill-rule="evenodd" clip-rule="evenodd" d="M13.5617 14.0181C13.4807 14.0181 13.4037 13.9776 13.3593 13.9045C13.2947 13.7955 13.3313 13.6492 13.4403 13.5845C13.5703 13.5075 13.7236 13.4187 13.8007 13.3782C14.214 13.1432 14.7083 12.7057 14.72 11.9483C14.72 11.928 14.7075 11.7576 14.6266 11.5879C14.5176 11.3652 14.3308 11.2399 14.0599 11.2072C13.7843 11.1745 13.5695 11.2601 13.4037 11.4664C13.2737 11.6283 13.2254 11.7988 13.2254 11.8027C13.1974 11.9039 13.1079 11.9771 12.9989 11.9771C12.8938 11.9771 12.8004 11.9039 12.7763 11.8027C12.7724 11.7903 12.7233 11.6167 12.5902 11.4586C12.4244 11.2601 12.2135 11.1792 11.9418 11.2119C11.6662 11.2446 11.4802 11.3738 11.3704 11.605C11.2895 11.7708 11.2817 11.9374 11.2817 11.9529C11.2895 12.4107 11.4724 12.7991 11.8243 13.1151C11.8282 13.119 11.8321 13.119 11.8321 13.1229C11.9208 13.2116 11.9255 13.3619 11.8321 13.4506C11.7433 13.5394 11.6009 13.5394 11.5121 13.4584C11.0622 13.0575 10.8232 12.5352 10.8154 11.9514V11.9475C10.8154 11.9195 10.8232 11.6719 10.9493 11.401C11.0746 11.1379 11.3385 10.8094 11.8889 10.7448C12.44 10.6802 12.7763 10.9433 12.9623 11.1745C12.9748 11.1908 12.9864 11.2072 12.9989 11.2228C13.0113 11.2064 13.023 11.1901 13.0355 11.1745C13.2215 10.9433 13.5578 10.6763 14.1089 10.7448C14.66 10.8094 14.9231 11.1379 15.0485 11.401C15.1785 11.668 15.1823 11.9195 15.1823 11.9475V11.9514C15.1785 12.3927 15.0407 12.7897 14.7815 13.1338C14.5869 13.3891 14.3362 13.6079 14.0241 13.7861C13.947 13.8305 13.8014 13.9161 13.6714 13.9885C13.6426 14.0064 13.6022 14.0181 13.5617 14.0181Z" fill="#101608"/>
<path fill-rule="evenodd" clip-rule="evenodd" d="M11.2804 8.64429C11.1146 8.64429 10.9566 8.59136 10.8188 8.49016C10.6569 8.36873 10.5518 8.18658 10.523 7.98418L10.5152 7.93592C10.4872 7.73353 10.5393 7.53115 10.6654 7.36922C10.7908 7.20731 10.969 7.10223 11.1714 7.07341L14.6183 6.59936C15.0355 6.54253 15.42 6.83444 15.4808 7.25166L15.4886 7.29993C15.5166 7.50231 15.4644 7.7047 15.3383 7.86663C15.2169 8.02854 15.0347 8.13362 14.8323 8.16243L11.3855 8.63649C11.3497 8.64038 11.317 8.64429 11.2804 8.64429ZM14.7195 7.0563C14.707 7.0563 14.6915 7.0563 14.679 7.06019L11.2321 7.53425C11.1551 7.5467 11.0819 7.58718 11.0336 7.6479C10.9854 7.71251 10.9651 7.78957 10.9768 7.86664L10.9846 7.91491C10.9971 7.99197 11.0375 8.06514 11.0982 8.1134C11.1629 8.16167 11.2399 8.1819 11.317 8.17023L14.7639 7.69617C14.8409 7.68372 14.9141 7.64324 14.9624 7.58252C15.0106 7.51791 15.0309 7.44085 15.0192 7.36378L15.0114 7.31551C14.9951 7.16606 14.8697 7.0563 14.7195 7.0563Z" fill="#101608"/>
<path fill-rule="evenodd" clip-rule="evenodd" d="M11.6828 7.46949H11.6587C11.5287 7.45703 11.4361 7.33949 11.4524 7.21417C11.4649 7.08885 11.4602 6.96275 11.4322 6.83742C11.4283 6.81329 11.4197 6.78916 11.4158 6.77281L10.9215 5.10388C10.9013 5.03538 10.9137 4.95831 10.9581 4.89759C11.0025 4.83687 11.0718 4.80418 11.1442 4.80418H11.8977C11.9623 4.80418 12.0191 4.82831 12.0635 4.87268L12.6955 5.5211L13.344 4.86879C13.3883 4.82442 13.4452 4.80029 13.5098 4.80029H15.1904C15.2674 4.80029 15.3406 4.83688 15.385 4.90149C15.4294 4.9661 15.4379 5.04705 15.4091 5.11633L14.8058 6.65527C14.7817 6.73234 14.7615 6.8094 14.7451 6.89036C14.721 7.01569 14.5996 7.10131 14.4735 7.0764C14.3481 7.05227 14.2625 6.93084 14.2874 6.80473C14.3077 6.70353 14.3318 6.60234 14.3684 6.50504C14.3684 6.50115 14.3723 6.49725 14.3723 6.49258L14.8541 5.26969H13.6149L12.8652 6.0193C12.8209 6.06367 12.764 6.0878 12.6994 6.0878C12.6387 6.0878 12.578 6.06367 12.5336 6.0193L11.8042 5.26969H11.4641L11.8689 6.64282C11.8766 6.67551 11.8852 6.70743 11.893 6.74401C11.9296 6.91449 11.9374 7.08808 11.9171 7.26245C11.9015 7.37999 11.7996 7.46949 11.6828 7.46949Z" fill="#101608"/>
<path fill-rule="evenodd" clip-rule="evenodd" d="M9.18749 14.65C9.10653 14.65 9.02947 14.6095 8.9851 14.5324C8.58811 13.8396 8.37793 13.0457 8.37793 12.244C8.37793 10.547 9.3058 8.98779 10.8003 8.17754C10.8245 8.16508 10.8533 8.14951 10.8774 8.13317C10.9864 8.06467 11.1288 8.09658 11.2012 8.20634C11.2697 8.31532 11.2378 8.45776 11.128 8.53016C11.0915 8.5504 11.0595 8.57453 11.023 8.59088C9.68251 9.32027 8.84806 10.7213 8.84806 12.2486C8.84806 12.9694 9.03877 13.6824 9.39451 14.3059C9.45912 14.4196 9.41864 14.5612 9.30967 14.6258C9.26841 14.6383 9.22796 14.65 9.18749 14.65Z" fill="#101608"/>
<path fill-rule="evenodd" clip-rule="evenodd" d="M17.244 13.6176C17.2238 13.6176 17.2035 13.6137 17.1833 13.6099C17.058 13.5772 16.9848 13.4479 17.0175 13.3226C17.1109 12.97 17.1592 12.6057 17.1592 12.2414C17.1592 10.7671 16.3691 9.38995 15.0933 8.64904C14.8504 8.50737 14.648 8.30497 14.4978 8.066C14.4293 7.95702 14.4651 7.81069 14.5749 7.74606C14.6838 7.68145 14.8302 7.71337 14.8948 7.82313C14.9999 7.99749 15.1501 8.14306 15.3245 8.24426C16.0087 8.64514 16.5878 9.2165 16.9895 9.90462C17.4029 10.6091 17.6216 11.4194 17.6216 12.2415C17.6216 12.651 17.5687 13.0557 17.4636 13.4442C17.4379 13.5493 17.3452 13.6176 17.244 13.6176Z" fill="#101608"/>
</svg>
