<svg width="26" height="16" viewBox="0 0 26 16" fill="none" xmlns="http://www.w3.org/2000/svg">
<path fill-rule="evenodd" clip-rule="evenodd" d="M25.1456 7.46967C25.2863 7.61032 25.3653 7.80109 25.3653 8C25.3653 8.19891 25.2863 8.38968 25.1456 8.53033L18.7816 14.8943C18.641 15.0349 18.4502 15.114 18.2513 15.114C18.0524 15.114 17.8616 15.0349 17.721 14.8943C17.5803 14.7536 17.5013 14.5629 17.5013 14.364C17.5013 14.165 17.5803 13.9743 17.721 13.8336L22.8047 8.74989L1.28075 8.75095C1.18213 8.75095 1.08448 8.73152 0.993375 8.69378C0.902266 8.65605 0.819482 8.60073 0.74975 8.531C0.680018 8.46127 0.624704 8.37848 0.586965 8.28738C0.549226 8.19627 0.529802 8.09862 0.529802 8C0.529802 7.90138 0.549226 7.80373 0.586965 7.71262C0.624704 7.62152 0.680018 7.53873 0.74975 7.469C0.819482 7.39927 0.902266 7.34395 0.993375 7.30622C1.08448 7.26848 1.18213 7.24905 1.28075 7.24905L22.8047 7.25011L17.721 2.16637C17.5803 2.02572 17.5013 1.83495 17.5013 1.63604C17.5013 1.43713 17.5803 1.24636 17.721 1.10571C17.8616 0.965058 18.0524 0.886041 18.2513 0.88604C18.4502 0.88604 18.641 0.965057 18.7816 1.10571L25.1456 7.46967Z" fill="white"/>
</svg>
