<svg width="40" height="39" viewBox="0 0 40 39" fill="none" xmlns="http://www.w3.org/2000/svg">
<path d="M26.5671 7.46228C26.5671 7.31302 26.5671 7.16377 26.5671 7.01452C27.9104 7.08914 28.9552 8.20854 28.9552 9.55182V17.0145C28.9552 18.4324 27.8358 19.5518 26.4179 19.5518C25.8955 19.5518 25.3731 19.4025 25 19.104C25.9701 18.507 26.6418 17.4622 26.6418 16.2682V7.46228H26.5671Z" fill="#F95948"/>
<path d="M24.8509 19.1782C24.4032 19.4767 23.8062 19.626 23.2092 19.626C23.1345 19.626 22.3883 19.626 21.5674 19.1782C22.5375 18.5812 23.2092 17.5364 23.2092 16.3424V5.14845C23.2092 4.84994 23.1345 4.47681 23.0599 4.25293C23.1345 4.25293 23.1345 4.25293 23.2092 4.25293C24.8509 4.25293 26.1942 5.44695 26.4181 7.08874C26.4181 7.23799 26.4181 7.38724 26.4181 7.5365V16.417C26.5673 17.5364 25.8957 18.5812 24.8509 19.1782Z" fill="#D83C39"/>
<path d="M19.9994 33.4326C13.1338 32.164 7.68604 26.7162 6.34277 19.776C13.283 21.0446 18.7307 26.4924 19.9994 33.4326Z" fill="#AEEF66"/>
<path d="M33.6566 19.776C32.3879 26.7162 26.9402 32.164 20 33.4326C21.2686 26.4924 26.7164 21.0446 33.6566 19.776Z" fill="#86BC31"/>
<path d="M13.5072 7.46228C13.5072 7.31302 13.5072 7.16377 13.5072 7.01452C13.5819 6.26825 13.955 5.67124 14.4028 5.14886C14.9998 4.55185 15.8207 4.17871 16.7162 4.17871C16.7908 4.17871 16.7908 4.17871 16.8654 4.17871C16.7908 4.47722 16.7162 4.77572 16.7162 5.07423V16.2682C16.7162 17.4622 17.3878 18.507 18.3579 19.104C17.5371 19.5518 16.7908 19.5518 16.7162 19.5518C16.1192 19.5518 15.5968 19.4025 15.0744 19.104C14.1043 18.507 13.4326 17.4622 13.4326 16.2682V7.46228H13.5072Z" fill="#D83C39"/>
<path d="M32.6108 31.2687C33.6555 31.2687 34.4764 32.0896 34.4764 33.1343C34.4764 34.1791 33.6555 35 32.6108 35C31.566 35 30.7451 34.1791 30.7451 33.1343C30.7451 32.0896 31.566 31.2687 32.6108 31.2687Z" fill="#FFE44C"/>
<path d="M30.746 2.31361C31.4923 2.31361 32.1639 2.91062 32.1639 3.73151C32.1639 4.5524 31.5669 5.14941 30.746 5.14941C29.9251 5.14941 29.3281 4.5524 29.3281 3.73151C29.3281 2.91062 29.9251 2.31361 30.746 2.31361Z" fill="#FFE44C"/>
<path d="M8.35735 2.76088C9.10361 2.76088 9.77525 3.35789 9.77525 4.17878C9.77525 4.99967 9.17824 5.59668 8.35735 5.59668C7.53646 5.59668 6.93945 4.92504 6.93945 4.17878C6.93945 3.43251 7.53646 2.76088 8.35735 2.76088Z" fill="#FFE44C"/>
<path d="M4.62632 26.5676C6.43974 26.5676 7.90988 28.0378 7.90988 29.8512C7.90988 31.6646 6.43974 33.1348 4.62632 33.1348C2.81291 33.1348 1.34277 31.6646 1.34277 29.8512C1.34277 28.0378 2.81291 26.5676 4.62632 26.5676Z" fill="#FFE44C"/>
<path d="M15.1485 19.1782C14.7754 19.4767 14.253 19.626 13.7306 19.626C12.3128 19.626 11.1934 18.5066 11.1934 17.0887V9.62603C11.1934 8.28276 12.2381 7.16336 13.5814 7.08874C13.5814 7.23799 13.5814 7.38724 13.5814 7.5365V16.417C13.5068 17.5364 14.1038 18.5812 15.1485 19.1782Z" fill="#F95948"/>
<path d="M39.3279 33.5825C39.6988 33.5825 39.9995 33.8832 39.9995 34.2541C39.9995 34.625 39.6988 34.9258 39.3279 34.9258C38.957 34.9258 38.6562 34.625 38.6562 34.2541C38.6562 33.8832 38.957 33.5825 39.3279 33.5825Z" fill="black"/>
<path d="M37.4617 8.88133C37.8326 8.88133 38.1333 9.18208 38.1333 9.55297C38.1333 9.92386 37.8326 10.2246 37.4617 10.2246C37.0908 10.2246 36.79 9.92386 36.79 9.55297C36.79 9.18208 37.0908 8.88133 37.4617 8.88133Z" fill="black"/>
<path d="M37.239 24.7016C37.6099 24.7016 37.9107 25.0024 37.9107 25.3733C37.9107 25.7442 37.6099 26.0449 37.239 26.0449C36.8681 26.0449 36.5674 25.7442 36.5674 25.3733C36.5674 25.0024 36.8681 24.7016 37.239 24.7016Z" fill="black"/>
<path d="M19.9994 1.86489C21.7904 1.86489 23.2829 3.35741 23.2829 5.14845V16.3424C23.2829 17.5364 22.6113 18.5812 21.6411 19.1782C20.5964 19.7752 19.4024 19.7752 18.3576 19.1782C17.3875 18.5812 16.7158 17.5364 16.7158 16.3424V5.14845C16.7158 3.28279 18.2083 1.86489 19.9994 1.86489Z" fill="#F95948"/>
<path d="M14.6267 -0.000502348C14.9976 -0.000502348 15.2983 0.300242 15.2983 0.671136C15.2983 1.04203 14.9976 1.34277 14.6267 1.34277C14.2558 1.34277 13.9551 1.04203 13.9551 0.671136C13.9551 0.300242 14.2558 -0.000502348 14.6267 -0.000502348Z" fill="black"/>
<path d="M10.8953 36.4175C11.2662 36.4175 11.5669 36.7182 11.5669 37.0891C11.5669 37.46 11.2662 37.7607 10.8953 37.7607C10.5244 37.7607 10.2236 37.46 10.2236 37.0891C10.2236 36.7182 10.5244 36.4175 10.8953 36.4175Z" fill="black"/>
<path d="M3.88062 11.6411C4.25151 11.6411 4.55226 11.9418 4.55226 12.3127C4.55226 12.6836 4.25151 12.9844 3.88062 12.9844C3.50973 12.9844 3.20898 12.6836 3.20898 12.3127C3.20898 11.9418 3.50973 11.6411 3.88062 11.6411Z" fill="black"/>
<path d="M0.671636 22.8354C1.04253 22.8354 1.34327 23.1362 1.34327 23.5071C1.34327 23.878 1.04253 24.1787 0.671636 24.1787C0.300744 24.1787 0 23.878 0 23.5071C0 23.1362 0.300744 22.8354 0.671636 22.8354Z" fill="black"/>
<path d="M19.9995 38.209C19.7756 38.209 19.5518 37.9851 19.5518 37.7612V17.239C19.5518 17.0151 19.7756 16.7912 19.9995 16.7912C20.2234 16.7912 20.4473 17.0151 20.4473 17.239V37.7612C20.4473 37.9851 20.2234 38.209 19.9995 38.209Z" fill="black"/>
<path d="M4.62584 27.0139C3.05869 27.0139 1.79005 28.2826 1.79005 29.8497C1.79005 31.4169 3.05869 32.6855 4.62584 32.6855C6.19299 32.6855 7.46163 31.4169 7.46163 29.8497C7.46163 28.2826 6.11836 27.0139 4.62584 27.0139ZM4.62584 33.5811C2.53631 33.5811 0.894531 31.9393 0.894531 29.8497C0.894531 27.7602 2.53631 26.1184 4.62584 26.1184C6.71537 26.1184 8.35715 27.7602 8.35715 29.8497C8.35715 31.8646 6.64075 33.5811 4.62584 33.5811Z" fill="black"/>
<path d="M32.6113 31.7169C31.865 31.7169 31.1934 32.3139 31.1934 33.1348C31.1934 33.9557 31.7904 34.5527 32.6113 34.5527C33.4322 34.5527 34.0292 33.9557 34.0292 33.1348C34.0292 32.3139 33.3575 31.7169 32.6113 31.7169ZM32.6113 35.4482C31.3426 35.4482 30.2979 34.4035 30.2979 33.1348C30.2979 31.8662 31.3426 30.8214 32.6113 30.8214C33.8799 30.8214 34.9247 31.7915 34.9247 33.1348C34.9247 34.4035 33.8799 35.4482 32.6113 35.4482Z" fill="black"/>
<path d="M26.2691 20.0742C25.6721 20.0742 25.075 19.925 24.6273 19.5518C24.4034 19.4026 24.3288 19.1041 24.478 18.8802C24.6273 18.6563 24.9258 18.5817 25.1497 18.7309C25.5228 18.9548 25.8959 19.1041 26.3437 19.1041C27.5377 19.1041 28.4332 18.1339 28.4332 17.0145V9.55189C28.4332 8.43249 27.6123 7.53698 26.4929 7.46235C26.2691 7.46235 26.0452 7.23847 26.0452 7.01459C26.0452 6.79071 26.2691 6.56683 26.4929 6.56683C28.0601 6.71609 29.2541 7.98474 29.2541 9.55189V17.0145C29.3287 18.6563 27.9855 20.0742 26.2691 20.0742Z" fill="black"/>
<path d="M13.7306 20.0742C12.0888 20.0742 10.6709 18.7309 10.6709 17.0145V9.55189C10.6709 7.98474 11.8649 6.64146 13.4321 6.56683C13.7306 6.56683 13.9545 6.79071 13.9545 7.01459C13.9545 7.23847 13.7306 7.46235 13.5067 7.46235C12.4619 7.53698 11.5664 8.43249 11.5664 9.55189V17.0145C11.5664 18.2086 12.5366 19.1041 13.6559 19.1041C14.1037 19.1041 14.4768 18.9548 14.85 18.7309C15.0738 18.5817 15.3723 18.6563 15.5216 18.8802C15.6709 19.1041 15.5962 19.4026 15.3723 19.5518C14.85 19.8503 14.3276 20.0742 13.7306 20.0742Z" fill="black"/>
<path d="M23.284 20.0742C23.2093 20.0742 23.2093 20.0742 23.2093 20.0742C22.9855 20.0742 22.2392 20.0742 21.4183 19.5518C21.1944 19.4026 21.1198 19.1041 21.2691 18.8802C21.4183 18.6563 21.7168 18.5817 21.9407 18.7309C22.5377 19.1041 23.1347 19.1041 23.284 19.1041H23.3586C23.8063 19.1041 24.3287 18.9548 24.7019 18.7309C25.5974 18.2086 26.1198 17.313 26.1198 16.3429V7.46235C26.1198 7.3131 26.1198 7.23847 26.1198 7.08922C25.8959 5.74594 24.7019 4.70117 23.3586 4.70117C23.284 4.70117 23.284 4.70117 23.2093 4.70117C22.9108 4.70117 22.687 4.47729 22.687 4.25342C22.687 4.02954 22.9108 3.80566 23.1347 3.80566C23.2093 3.80566 23.2093 3.80566 23.284 3.80566C25.1496 3.80566 26.7168 5.14893 27.0153 7.01459C27.0153 7.16385 27.0153 7.38773 27.0153 7.53698V16.4175C27.0153 17.7608 26.269 19.0294 25.1496 19.6265C24.5526 19.8503 23.881 20.0742 23.284 20.0742Z" fill="black"/>
<path d="M16.7153 20.0742C16.0436 20.0742 15.4466 19.925 14.9242 19.6265C13.7302 18.9548 13.0586 17.6862 13.0586 16.4175V7.46235C13.0586 7.3131 13.0586 7.08922 13.0586 6.93997C13.1332 6.11907 13.581 5.37281 14.1034 4.85043C14.775 4.17879 15.7451 3.73103 16.7153 3.73103C16.7899 3.73103 16.7899 3.73103 16.8645 3.73103C17.0884 3.73103 17.3123 3.95491 17.3123 4.17879C17.3123 4.40267 17.0884 4.62655 16.8645 4.62655C16.7899 4.62655 16.7899 4.62655 16.7153 4.62655C15.969 4.62655 15.2974 4.92505 14.7004 5.44744C14.2526 5.8952 14.0287 6.41758 13.8795 7.01459C13.8795 7.16385 13.8795 7.3131 13.8795 7.38772V16.2683C13.8795 17.2384 14.4019 18.2086 15.2974 18.6563C15.7451 18.8802 16.1929 19.0294 16.6407 19.0294H16.7153C16.8645 19.0294 17.4615 19.0294 18.0585 18.6563C18.2824 18.5071 18.5809 18.5817 18.7302 18.8056C18.8794 19.0294 18.8048 19.328 18.5809 19.4772C17.76 19.9996 17.0138 19.9996 16.7153 20.0742Z" fill="black"/>
<path d="M19.9999 2.31313C18.8058 2.31313 17.6865 3.13402 17.3133 4.32804C17.2387 4.55192 17.1641 4.85043 17.1641 5.14893V16.3429C17.1641 17.313 17.6865 18.2832 18.582 18.7309C19.0297 18.9548 19.4775 19.1041 19.9999 19.1041C20.5222 19.1041 20.97 18.9548 21.4178 18.7309C22.3133 18.2086 22.8357 17.313 22.8357 16.3429V5.14893C22.8357 4.85043 22.761 4.62655 22.6864 4.32804C22.5372 3.88028 22.3133 3.50715 22.0148 3.13402C21.4178 2.61163 20.7461 2.31313 19.9999 2.31313ZM19.9999 20.0742C19.3282 20.0742 18.7312 19.925 18.1342 19.5518C17.0148 18.8802 16.2686 17.6115 16.2686 16.3429V5.14893C16.2686 4.7758 16.3432 4.40267 16.4178 4.10416C16.8656 2.53701 18.3581 1.41761 19.9999 1.41761C20.97 1.41761 21.9401 1.79074 22.6118 2.53701C23.0595 2.98477 23.358 3.50715 23.5819 4.10416C23.6565 4.47729 23.7312 4.7758 23.7312 5.14893V16.3429C23.7312 17.6862 22.9849 18.8802 21.8655 19.5518C21.2685 19.8503 20.6715 20.0742 19.9999 20.0742Z" fill="black"/>
<path d="M18.5815 14.4775C18.3577 14.4775 18.1338 14.2537 18.1338 14.0298V6.04475C18.1338 5.82087 18.3577 5.59699 18.5815 5.59699C18.8054 5.59699 19.0293 5.82087 19.0293 6.04475V13.9552C19.1039 14.2537 18.8801 14.4775 18.5815 14.4775Z" fill="black"/>
<path d="M30.7455 2.76087C30.2232 2.76087 29.7754 3.20863 29.7754 3.73102C29.7754 4.2534 30.2232 4.70116 30.7455 4.70116C31.2679 4.70116 31.7157 4.2534 31.7157 3.73102C31.6411 3.20863 31.2679 2.76087 30.7455 2.76087ZM30.7455 5.59668C29.7008 5.59668 28.8799 4.77579 28.8799 3.73102C28.8799 2.68625 29.7008 1.86536 30.7455 1.86536C31.7903 1.86536 32.6112 2.68625 32.6112 3.73102C32.6112 4.77579 31.7903 5.59668 30.7455 5.59668Z" fill="black"/>
<path d="M8.35882 3.28374C7.83644 3.28374 7.38868 3.7315 7.38868 4.25389C7.38868 4.77627 7.83644 5.22403 8.35882 5.22403C8.8812 5.22403 9.32896 4.77627 9.32896 4.25389C9.25433 3.65688 8.8812 3.28374 8.35882 3.28374ZM8.35882 6.04492C7.31405 6.04492 6.49316 5.22403 6.49316 4.17926C6.49316 3.13449 7.31405 2.3136 8.35882 2.3136C9.40358 2.3136 10.2245 3.13449 10.2245 4.17926C10.2245 5.22403 9.40358 6.04492 8.35882 6.04492Z" fill="black"/>
<path d="M33.0591 20.3735C26.9397 21.7914 22.0144 26.7167 20.5965 32.8361C26.7159 31.4182 31.6412 26.4928 33.0591 20.3735ZM19.9995 33.8809C19.8503 33.8809 19.7756 33.8062 19.701 33.7316C19.6264 33.657 19.5518 33.4331 19.5518 33.2838C20.2234 29.7764 21.8652 26.6421 24.4025 24.1048C26.9397 21.5675 30.074 19.9257 33.5815 19.2541C33.7307 19.2541 33.88 19.2541 34.0292 19.4033C34.1039 19.478 34.1785 19.7018 34.1785 19.8511C33.5069 23.3585 31.8651 26.4928 29.3278 29.0301C26.7905 31.5674 23.6562 33.2092 20.1488 33.8809C20.0741 33.8809 19.9995 33.8809 19.9995 33.8809Z" fill="black"/>
<path d="M6.94027 20.3735C8.35817 26.4928 13.2835 31.4182 19.4028 32.8361C17.9849 26.7167 13.0596 21.7914 6.94027 20.3735ZM19.9999 33.8809H19.9252C16.4178 33.2092 13.2835 31.5674 10.7462 29.0301C8.20892 26.4928 6.56714 23.3585 5.89551 19.8511C5.89551 19.7018 5.89551 19.5526 6.04476 19.4033C6.19401 19.2541 6.34326 19.2541 6.49252 19.2541C9.99995 19.9257 13.1342 21.5675 15.6715 24.1048C18.1342 26.6421 19.8506 29.7764 20.5222 33.2092C20.5222 33.2838 20.5222 33.2838 20.5222 33.3585C20.4476 33.657 20.2237 33.8809 19.9999 33.8809Z" fill="black"/>
<path d="M19.9994 33.8809C19.8502 33.8809 19.7756 33.8062 19.7009 33.7316L13.9547 27.9854C13.8055 27.8361 13.8055 27.5376 13.9547 27.3137C14.104 27.1645 14.4025 27.1645 14.6263 27.3137L20.0741 32.7615L28.0591 24.7764C28.2083 24.6272 28.5068 24.6272 28.7307 24.7764C28.8799 24.9257 28.8799 25.2242 28.7307 25.4481L20.2979 33.7316C20.2233 33.8062 20.1487 33.8809 19.9994 33.8809Z" fill="black"/>
</svg>
