<svg width="37" height="32" viewBox="0 0 37 32" fill="none" xmlns="http://www.w3.org/2000/svg">
<path d="M28.6002 29.9048C26.8507 29.9265 25.1763 29.1967 23.9155 27.8714C22.648 26.5381 21.9419 24.7582 21.9285 22.859C21.9031 18.9466 24.8537 15.7415 28.5067 15.7141C30.1904 15.7017 31.7969 16.3677 33.0367 17.5908C34.3848 18.9195 35.165 20.8033 35.178 22.7582C35.2047 26.6713 32.2542 29.8774 28.6002 29.9048ZM17.7462 30.2558L4.24716 15.9566C4.23881 15.9489 4.23146 15.9402 4.22311 15.9325L4.13827 15.851C3.83366 15.5755 3.54409 15.2685 3.27956 14.9422C2.65097 14.1603 2.17234 13.2799 1.85637 12.324C1.56679 11.4529 1.42051 10.5364 1.42051 9.60053C1.42051 7.41115 2.22011 5.35236 3.67268 3.8036C5.11289 2.26886 7.02037 1.42218 9.04508 1.42017C12.0167 1.42017 14.7405 3.30294 15.9843 6.21777C16.2912 6.93287 16.9736 7.39446 17.7238 7.39446C18.4729 7.39446 19.1556 6.9322 19.4609 6.21643C20.7057 3.30294 23.4299 1.42017 26.4011 1.42017C28.4268 1.42218 30.335 2.26887 31.7742 3.80327C33.2258 5.35404 34.026 7.41282 34.026 9.60053C34.026 10.5601 33.8727 11.496 33.5711 12.3824C33.1914 13.5013 32.5715 14.5394 31.7792 15.3854C31.7649 15.4008 31.7518 15.4175 31.7381 15.4345L31.6784 15.4977C30.689 15.0224 29.6102 14.7682 28.4997 14.7672C24.3257 14.7983 20.9526 18.4312 20.982 22.8657C20.9903 24.005 21.2264 25.1046 21.6563 26.1136L17.7462 30.2558ZM32.9128 16.2482C33.7953 15.2756 34.488 14.1009 34.9155 12.8393C35.2675 11.8059 35.4459 10.7161 35.4459 9.60053C35.4459 7.0511 34.51 4.64763 32.8096 2.832C31.0992 1.00801 28.824 0.0026701 26.4025 -1.90735e-06C22.8604 -1.90735e-06 19.6226 2.22111 18.154 5.65899C18.0728 5.85037 17.9035 5.97461 17.7238 5.97461C17.5424 5.97461 17.3721 5.85004 17.2906 5.65899C15.8233 2.22111 12.5862 -1.90735e-06 9.04375 -1.90735e-06C6.62258 0.0026701 4.34736 1.00801 2.6366 2.832C0.936538 4.64529 0 7.04876 0 9.60053C0 10.6887 0.171008 11.7555 0.508349 12.7709C0.877754 13.8874 1.43754 14.9172 2.17468 15.8347C2.48664 16.2194 2.82698 16.5788 3.168 16.8884L17.2301 31.7772C17.3634 31.9195 17.5511 32 17.7462 32C17.9415 32 18.1282 31.9195 18.2628 31.7772L22.3654 27.4315C22.6222 27.817 22.9075 28.185 23.2305 28.5241C24.6586 30.0267 26.5458 30.8517 28.5494 30.8517C28.5691 30.8517 28.5888 30.8517 28.6075 30.8517C32.7832 30.8203 36.1553 27.1864 36.1246 22.7518C36.1102 20.5474 35.2275 18.4208 33.7017 16.9165C33.4532 16.671 33.1864 16.4532 32.9128 16.2482Z" fill="#181713"/>
<path d="M31.6141 21.6691H33.088V23.9493H29.592V27.6771H27.5129V23.9493H25.74H24.0169V21.6691H25.74H27.5129V17.9427H29.592V21.6691H31.6141ZM30.5386 16.9958H26.5653V20.7219H23.0693V24.8966H26.5653V28.624H30.5386V24.8966H34.0349V20.7219H30.5386V16.9958Z" fill="#181713"/>
</svg>
