<svg width="40" height="37" viewBox="0 0 40 37" fill="none" xmlns="http://www.w3.org/2000/svg">
<path d="M8.50859 28.2692C10.6941 28.2692 12.4566 30.0317 12.4566 32.2171C12.4566 34.4026 10.6941 36.165 8.50859 36.165C6.32307 36.165 4.56055 34.4026 4.56055 32.2171C4.56055 30.0317 6.32307 28.2692 8.50859 28.2692Z" fill="#FFE44C"/>
<path d="M24.8641 0.422395C26.3439 0.422395 27.5431 1.62157 27.5431 3.10133C27.5431 4.5811 26.3439 5.78027 24.8641 5.78027C23.3843 5.78027 22.1851 4.5811 22.1851 3.10133C22.1851 1.62157 23.3843 0.422395 24.8641 0.422395Z" fill="#FFE44C"/>
<path d="M23.173 23.828C21.9745 19.4571 23.1025 14.6632 26.5571 11.2088C29.9411 7.82483 34.8056 6.69686 39.1767 7.82483C40.3752 12.1957 39.2472 16.9896 35.7927 20.444C32.4086 23.8985 27.5441 25.0264 23.173 23.828Z" fill="#AEEF66"/>
<path d="M16.8271 23.828C12.456 25.0264 7.66197 23.8985 4.20743 20.444C0.823395 17.0601 -0.304617 12.1957 0.823395 7.82483C5.19444 6.62636 9.98849 7.75433 13.443 11.2088C16.8271 14.6632 17.9551 19.4571 16.8271 23.828Z" fill="#AEEF66"/>
<path d="M37.8367 25.1676C38.187 25.1676 38.4712 25.4517 38.4712 25.802C38.4712 26.1524 38.187 26.4365 37.8367 26.4365C37.4863 26.4365 37.2021 26.1524 37.2021 25.802C37.2021 25.4517 37.4863 25.1676 37.8367 25.1676Z" fill="black"/>
<path d="M35.2283 0.493724C35.5786 0.493724 35.8628 0.777833 35.8628 1.12821C35.8628 1.47859 35.5786 1.7627 35.2283 1.7627C34.8779 1.7627 34.5938 1.47859 34.5938 1.12821C34.5938 0.777833 34.8779 0.493724 35.2283 0.493724Z" fill="black"/>
<path d="M26.8396 33.1343C27.19 33.1343 27.4741 33.4185 27.4741 33.7688C27.4741 34.1192 27.19 34.4033 26.8396 34.4033C26.4892 34.4033 26.2051 34.1192 26.2051 33.7688C26.2051 33.4185 26.4892 33.1343 26.8396 33.1343Z" fill="black"/>
<path d="M21.9739 10.2213C22.3243 10.2213 22.6084 10.5054 22.6084 10.8557C22.6084 11.2061 22.3243 11.4902 21.9739 11.4902C21.6235 11.4902 21.3394 11.2061 21.3394 10.8557C21.3394 10.5054 21.6235 10.2213 21.9739 10.2213Z" fill="black"/>
<path d="M15.3474 0.493724C15.6978 0.493724 15.9819 0.777833 15.9819 1.12821C15.9819 1.47859 15.6978 1.7627 15.3474 1.7627C14.997 1.7627 14.7129 1.47859 14.7129 1.12821C14.7129 0.777833 14.997 0.493724 15.3474 0.493724Z" fill="black"/>
<path d="M6.53392 0.493724C6.88431 0.493724 7.16843 0.777833 7.16843 1.12821C7.16843 1.47859 6.88431 1.7627 6.53392 1.7627C6.18353 1.7627 5.89941 1.47859 5.89941 1.12821C5.89941 0.777833 6.18353 0.493724 6.53392 0.493724Z" fill="black"/>
<path d="M3.00853 23.899C3.35892 23.899 3.64304 24.1831 3.64304 24.5335C3.64304 24.8839 3.35892 25.168 3.00853 25.168C2.65814 25.168 2.37402 24.8839 2.37402 24.5335C2.37402 24.1831 2.65814 23.899 3.00853 23.899Z" fill="black"/>
<path d="M1.17648 8.24751C0.11897 12.4774 1.38798 17.0598 4.49002 20.1617C6.88704 22.5587 10.0596 23.8277 13.3731 23.8277C14.3601 23.8277 15.4176 23.6867 16.4046 23.4752C17.4622 19.2453 16.1931 14.6629 13.0911 11.5609C10.6941 9.16399 7.52155 7.89502 4.20801 7.89502C3.221 7.89502 2.16349 7.96552 1.17648 8.24751ZM13.4436 24.7441C9.84807 24.7441 6.46404 23.3342 3.92601 20.7962C0.541974 17.4123 -0.79754 12.4069 0.471474 7.75402C0.541974 7.61303 0.612475 7.47203 0.753477 7.47203C1.88149 7.19004 3.08 6.97854 4.27851 6.97854C7.87405 6.97854 11.2581 8.38851 13.7961 10.9265C17.1801 14.3104 18.5197 19.3158 17.2507 23.9687C17.1801 24.1097 17.1096 24.2507 16.9686 24.2507C15.7701 24.5326 14.5716 24.7441 13.4436 24.7441Z" fill="black"/>
<path d="M11.7523 19.2451C11.6113 19.2451 11.5408 19.1746 11.4703 19.1041L4.4202 12.0543C4.2792 11.9133 4.2792 11.6313 4.4202 11.4198C4.56121 11.2788 4.84321 11.2788 5.05471 11.4198L12.1048 18.4696C12.2458 18.6106 12.2458 18.8926 12.1048 19.1041C11.9638 19.1746 11.8933 19.2451 11.7523 19.2451Z" fill="black"/>
<path d="M14.3596 21.8535C14.2186 21.8535 14.1481 21.783 14.0776 21.7125L11.469 19.1041C11.328 18.9631 11.328 18.6811 11.469 18.4696C11.61 18.3286 11.892 18.3286 12.1035 18.4696L14.7121 21.078C14.8531 21.219 14.8531 21.501 14.7121 21.7125C14.6416 21.783 14.5006 21.8535 14.3596 21.8535Z" fill="black"/>
<path d="M20.0005 27.4941C19.8595 27.4941 19.789 27.4236 19.7185 27.3531L14.0784 21.7133C13.9374 21.5723 13.9374 21.2903 14.0784 21.0788C14.2194 20.9378 14.5014 20.9378 14.7129 21.0788L20.353 26.7187C20.494 26.8597 20.494 27.1416 20.353 27.3531C20.212 27.4236 20.1415 27.4941 20.0005 27.4941Z" fill="black"/>
<path d="M14.3605 21.8535L8.1564 21.4305C7.9449 21.4305 7.7334 21.219 7.7334 20.937C7.7334 20.7255 7.9449 20.514 8.2269 20.514L14.431 20.937C14.6425 20.937 14.854 21.1485 14.854 21.36C14.854 21.642 14.6425 21.8535 14.3605 21.8535Z" fill="black"/>
<path d="M11.7516 19.2451L7.1691 18.9631C6.9576 18.9631 6.74609 18.7516 6.74609 18.4696C6.74609 18.2581 6.9576 18.0466 7.2396 18.0466L11.8221 18.3286C12.0336 18.3286 12.2452 18.5401 12.2452 18.8221C12.1747 19.0336 11.9631 19.2451 11.7516 19.2451Z" fill="black"/>
<path d="M9.14346 16.6367L6.67593 16.4957C6.46443 16.4957 6.25293 16.2842 6.25293 16.0022C6.25293 15.7907 6.46443 15.5792 6.74643 15.5792L9.21396 15.7202C9.42546 15.7202 9.63697 15.9317 9.63697 16.2137C9.56646 16.4252 9.35496 16.6367 9.14346 16.6367Z" fill="black"/>
<path d="M7.02773 14.4521L5.47672 14.3817C5.26521 14.3817 5.05371 14.1702 5.05371 13.8882C5.05371 13.6767 5.26521 13.4652 5.54722 13.4652L7.09823 13.5357C7.30973 13.5357 7.52124 13.7472 7.52124 14.0292C7.45074 14.3112 7.23923 14.4521 7.02773 14.4521Z" fill="black"/>
<path d="M14.3607 21.8535C14.1492 21.8535 13.9377 21.642 13.9377 21.4305L13.5146 15.2267C13.5146 15.0152 13.6556 14.8037 13.9377 14.7332C14.1492 14.7332 14.3607 14.8742 14.4312 15.1562L14.8542 21.36C14.8542 21.642 14.6427 21.8535 14.3607 21.8535Z" fill="black"/>
<path d="M11.7509 19.2451C11.5394 19.2451 11.3279 19.0336 11.3279 18.8221L11.0459 14.2397C11.0459 14.0282 11.1869 13.8167 11.4689 13.7462C11.6804 13.7462 11.8919 13.8872 11.9624 14.1692L12.2444 18.7516C12.1739 19.0336 12.0329 19.2451 11.7509 19.2451Z" fill="black"/>
<path d="M9.14311 16.6367C8.93161 16.6367 8.7201 16.4252 8.7201 16.2137L8.5791 13.7463C8.5791 13.5348 8.7201 13.3233 9.00211 13.2528C9.21361 13.2528 9.42511 13.3938 9.49561 13.6758L9.63661 16.1432C9.63661 16.4252 9.42511 16.6367 9.14311 16.6367Z" fill="black"/>
<path d="M7.02768 14.4521C6.81618 14.4521 6.60468 14.2407 6.60468 14.0292L6.53418 12.4782C6.53418 12.2667 6.67518 12.0552 6.95718 11.9847C7.16869 11.9847 7.38019 12.1257 7.45069 12.4077L7.52119 13.9587C7.45069 14.2407 7.23919 14.4521 7.02768 14.4521Z" fill="black"/>
<path d="M23.5953 23.4752C24.5823 23.6867 25.5693 23.8277 26.6268 23.8277C30.0109 23.8277 33.1834 22.4882 35.5099 20.1617C38.612 17.0598 39.881 12.4774 38.8235 8.24751C37.8365 8.03602 36.8495 7.89502 35.7919 7.89502C32.4079 7.89502 29.2354 9.23449 26.9088 11.5609C23.8068 14.6629 22.5378 19.1748 23.5953 23.4752ZM26.5563 24.7441C25.3578 24.7441 24.2298 24.6031 23.0313 24.2507C22.8903 24.1802 22.7493 24.1097 22.7493 23.9687C21.4803 19.3158 22.8198 14.3104 26.2038 10.9265C28.7419 8.38851 32.1259 6.97854 35.7214 6.97854C36.92 6.97854 38.048 7.11954 39.2465 7.47203C39.3875 7.54253 39.5285 7.61303 39.5285 7.75402C40.7975 12.4069 39.458 17.4123 36.0739 20.7962C33.5359 23.3342 30.1519 24.7441 26.5563 24.7441Z" fill="black"/>
<path d="M28.2491 19.2451C28.1081 19.2451 28.0376 19.1746 27.9671 19.1041C27.8261 18.9631 27.8261 18.6811 27.9671 18.4696L35.0172 11.4198C35.1582 11.2788 35.4402 11.2788 35.6517 11.4198C35.7927 11.5608 35.7927 11.8428 35.6517 12.0543L28.6016 19.1041C28.4606 19.1746 28.3196 19.2451 28.2491 19.2451Z" fill="black"/>
<path d="M20.001 27.4941C19.86 27.4941 19.7895 27.4236 19.719 27.3531C19.578 27.2121 19.578 26.9302 19.719 26.7187L27.9676 18.4703C28.1086 18.3293 28.3906 18.3293 28.6021 18.4703C28.7431 18.6113 28.7431 18.8933 28.6021 19.1048L20.283 27.3531C20.2125 27.4236 20.142 27.4941 20.001 27.4941Z" fill="black"/>
<path d="M25.6403 21.8535C25.4288 21.8535 25.2173 21.642 25.2173 21.4305C25.2173 21.219 25.4288 21.0075 25.6403 21.0075L31.8444 20.5845C32.0559 20.5845 32.2674 20.7255 32.3379 21.0075C32.3379 21.219 32.1969 21.4305 31.9149 21.501L25.6403 21.8535Z" fill="black"/>
<path d="M28.2492 19.2451C28.0377 19.2451 27.8262 19.0336 27.8262 18.8221C27.8262 18.6106 27.9672 18.3991 28.2492 18.3286L32.8317 18.0466C33.0432 18.0466 33.2547 18.1876 33.3252 18.4696C33.3252 18.6811 33.1842 18.8926 32.9022 18.9631L28.2492 19.2451Z" fill="black"/>
<path d="M30.8576 16.6367C30.6461 16.6367 30.4346 16.4252 30.4346 16.2137C30.4346 16.0022 30.5756 15.7907 30.8576 15.7202L33.3251 15.5792C33.5366 15.5792 33.7481 15.7202 33.8186 16.0022C33.8186 16.2137 33.6776 16.4252 33.3956 16.4957L30.8576 16.6367Z" fill="black"/>
<path d="M32.9718 14.4521C32.7603 14.4521 32.5488 14.2407 32.5488 14.0292C32.5488 13.8177 32.7603 13.6062 32.9718 13.6062L34.5228 13.5357C34.7344 13.5357 34.9459 13.6767 35.0164 13.9587C35.0164 14.1702 34.8754 14.3817 34.5933 14.4521H32.9718C33.0423 14.4521 33.0423 14.4521 32.9718 14.4521Z" fill="black"/>
<path d="M25.6403 21.8535C25.3583 21.8535 25.2173 21.642 25.2173 21.36L25.6403 15.1562C25.6403 14.9447 25.8518 14.7332 26.1338 14.7332C26.3453 14.7332 26.5568 14.9447 26.5568 15.2267L26.1338 21.4305C26.0633 21.7125 25.8518 21.8535 25.6403 21.8535Z" fill="black"/>
<path d="M28.2492 19.2451C28.0377 19.2451 27.8262 19.0336 27.8262 18.8221L28.1082 14.2397C28.1082 14.0282 28.3197 13.8167 28.6017 13.8167C28.8132 13.8167 29.0247 14.0282 29.0247 14.3102L28.7427 18.8926C28.6722 19.0336 28.4607 19.2451 28.2492 19.2451Z" fill="black"/>
<path d="M30.8576 16.6367C30.5756 16.6367 30.4346 16.4252 30.4346 16.1432L30.5756 13.6758C30.5756 13.4643 30.7871 13.2528 31.0691 13.2528C31.2806 13.2528 31.4921 13.4643 31.4921 13.7463L31.2806 16.2137C31.2806 16.4252 31.0691 16.6367 30.8576 16.6367Z" fill="black"/>
<path d="M32.9718 14.4521C32.6898 14.4521 32.5488 14.2407 32.5488 13.9587L32.6193 12.4077C32.6193 12.1962 32.8308 11.9847 33.1128 11.9847C33.3243 11.9847 33.5358 12.1962 33.5358 12.4782L33.4653 14.0997C33.3948 14.3112 33.2538 14.4521 32.9718 14.4521Z" fill="black"/>
<path d="M8.50893 28.693C6.53491 28.693 4.98389 30.244 4.98389 32.218C4.98389 34.1919 6.53491 35.7429 8.50893 35.7429C10.483 35.7429 12.034 34.1919 12.034 32.218C12.034 30.244 10.483 28.693 8.50893 28.693ZM8.50893 36.5889C6.1119 36.5889 4.06738 34.6149 4.06738 32.1475C4.06738 29.68 6.0414 27.7061 8.50893 27.7061C10.9765 27.7061 12.9505 29.68 12.9505 32.1475C12.9505 34.6149 10.9765 36.5889 8.50893 36.5889Z" fill="black"/>
<path d="M24.8647 0.916721C23.6662 0.916721 22.6792 1.9037 22.6792 3.10217C22.6792 4.30064 23.6662 5.28762 24.8647 5.28762C26.0632 5.28762 27.0503 4.30064 27.0503 3.10217C27.0503 1.9037 26.0632 0.916721 24.8647 0.916721ZM24.8647 6.2041C23.1727 6.2041 21.7627 4.79413 21.7627 3.10217C21.7627 1.41021 23.1727 0.000241756 24.8647 0.000241756C26.5567 0.000241756 27.9668 1.41021 27.9668 3.10217C27.9668 4.79413 26.5567 6.2041 24.8647 6.2041Z" fill="black"/>
</svg>
