<svg width="31" height="32" viewBox="0 0 31 32" fill="none" xmlns="http://www.w3.org/2000/svg">
<path d="M18.8204 28.0261L18.636 27.7445L17.8672 26.5697C17.5909 26.5205 17.3237 26.456 17.0659 26.3762C16.7502 26.2788 16.4481 26.1598 16.1581 26.0204C14.8536 25.3914 13.8021 24.3562 12.9226 23.0836C11.7292 21.3585 10.6148 19.579 9.46576 17.8235C8.25973 15.9811 7.04686 14.1438 5.85517 12.2919C5.65118 11.9739 5.31357 11.5092 5.38494 10.9559C5.43643 10.5544 5.64727 10.3159 5.95228 10.1044C6.22633 9.91442 6.80768 9.95579 7.14169 10.121C7.50373 10.2999 7.77907 10.7115 8.02054 11.0703C8.5869 11.9133 9.13696 12.767 9.69484 13.6156C9.96628 14.0291 10.2394 14.4413 10.5173 14.8506C10.8126 15.2863 11.3753 16.4966 12.0479 16.0237C12.6655 15.59 11.8534 14.6141 11.595 14.2214C11.3219 13.8085 11.0514 13.394 10.7849 12.9763C9.5469 11.0354 8.28156 9.11018 7.09443 7.13771C6.55708 6.24483 6.73239 5.67129 7.43952 5.28676C8.11048 4.91853 8.66088 5.13037 9.21843 5.98088C10.6676 8.19156 12.1131 10.4035 13.5609 12.6136C13.7646 12.9235 13.8855 13.1802 14.2681 13.309C14.5506 13.4038 14.8295 13.3513 14.9361 13.0629C15.1166 12.5758 14.9706 12.317 14.7148 11.9263C13.0128 9.32522 11.3072 6.72712 9.60979 4.12345C9.05354 3.26642 9.23341 2.48107 10.0471 2.11284C10.6555 1.83586 11.2293 2.0672 11.7299 2.82647C13.4661 5.46925 15.1964 8.11236 16.9209 10.7607C17.2021 11.1925 17.5427 11.5561 18.0439 11.2035C18.5242 10.8663 18.2524 10.4332 17.9982 10.0474C16.6602 8.01233 15.3271 5.97434 13.9989 3.93442C13.8219 3.66395 13.643 3.38046 13.5495 3.07415C13.338 2.38005 13.8115 1.66639 14.5232 1.5393C15.2522 1.41221 15.607 1.8489 15.9437 2.36377C18.2078 5.83424 20.4709 9.30732 22.7666 12.7579C22.9788 13.0766 23.422 13.4484 23.7488 13.4396C24.3579 13.423 24.2924 12.7925 24.3305 12.3434C24.4253 11.2358 24.4716 10.1236 24.5863 9.0186C24.6739 8.16385 25.2067 7.66984 25.9217 7.67962C26.5649 7.68842 27.1124 8.20882 27.1645 9.03228C27.3568 12.0488 27.5631 15.0664 27.6497 18.0868C27.6647 18.6196 27.626 19.1384 27.5386 19.6418C27.494 19.8999 27.4337 20.1525 27.361 20.4008C27.2942 20.6286 27.2154 20.8521 27.1251 21.0714L27.7195 21.9796L27.9492 22.3306L29.6079 24.8645L20.6078 30.7562L18.8204 28.0261ZM13.9334 26.281C13.6786 26.371 13.4146 26.4453 13.1402 26.5056L12.4178 27.7096L12.2447 27.998L10.5656 30.7959L1.34159 25.2601L2.90021 22.6636L3.11659 22.3035L3.67479 21.3728C3.57638 21.1574 3.4884 20.9375 3.41345 20.712C3.33068 20.4666 3.26029 20.217 3.20587 19.9609C3.09866 19.461 3.03968 18.9441 3.03382 18.411C3.00253 15.3896 3.09051 12.3662 3.16513 9.34478C3.18534 8.51969 3.71194 7.97811 4.35455 7.94455C4.92546 7.91457 5.38819 8.21534 5.61402 8.76997C5.44913 8.85697 5.28946 8.97785 5.0985 9.19293C4.16164 10.2487 4.05932 11.8096 4.81175 13.0043C7.00352 16.4871 9.23472 19.9462 11.5122 23.374C11.9557 24.042 12.4514 24.6761 13.0135 25.2484C13.3661 25.6071 13.7252 25.9297 14.0898 26.2194C14.037 26.2393 13.9868 26.2625 13.9334 26.281ZM18.3456 2.54299C18.8162 1.76092 19.3809 1.51 19.9991 1.76092C20.8268 2.09656 21.0373 2.87862 20.5149 3.75195C20.1897 4.29614 19.8619 4.84033 19.536 5.38452C19.0325 4.61548 18.5278 3.84646 18.023 3.08067C18.1315 2.90145 18.2381 2.72222 18.3456 2.54299ZM23.1655 9.68303C23.1434 9.97338 23.1212 10.2904 23.0919 10.6606C23.0899 10.6838 23.059 10.6922 23.0446 10.6737C22.8921 10.4628 22.7768 10.31 22.6767 10.1712C22.8194 9.9747 22.9791 9.79839 23.1655 9.68303ZM20.9789 5.59634C21.5026 4.72301 22.0442 4.49165 22.7292 4.83055C23.4506 5.189 23.6481 5.75602 23.1466 6.66845C22.7279 7.42967 22.2958 8.18341 21.8598 8.93551C21.3582 8.16875 20.8558 7.4023 20.3546 6.63586C20.5625 6.28719 20.7701 5.94175 20.9789 5.59634ZM28.4941 21.1011C29.095 19.4229 29.0865 17.6508 28.9962 15.898C28.8747 13.5504 28.6779 11.2055 28.4644 8.86413C28.3279 7.36938 27.2414 6.35235 25.9011 6.35235C25.4137 6.35235 24.9548 6.49249 24.5589 6.74014C25.0291 5.08475 24.4048 4.04847 22.1703 3.2501C22.1602 3.24684 22.1537 3.23709 22.1537 3.22731C22.1983 2.02813 21.908 1.29493 20.8447 0.685556C19.7609 0.0664101 18.706 -0.0118103 17.7444 1.22648C17.7372 1.23626 17.4827 1.55561 17.4801 1.54258C17.3345 0.871294 16.7769 0.44766 16.3259 0.248882C15.567 -0.0834999 14.8706 -0.0802498 14.2508 0.242359C14.0575 0.291239 13.8601 0.35969 13.659 0.457451C13.2158 0.672522 12.6749 1.11895 12.556 1.79675C12.554 1.80978 12.2874 1.49694 12.2796 1.49042C11.2701 0.291233 10.2195 0.408564 9.16107 1.07007C8.12156 1.72181 7.86055 2.46478 7.95179 3.66071C7.95244 3.67048 7.94592 3.68027 7.93581 3.68353C5.90306 4.50471 5.24938 5.46925 5.58307 6.8998C5.20083 6.70428 4.77199 6.60003 4.32295 6.61632C2.98364 6.66846 1.93792 7.7285 1.86037 9.22749C1.73817 11.5754 1.63325 13.9261 1.60327 16.2766C1.58078 18.0314 1.64203 19.8025 2.30843 21.4559L0 25.3028L11.1596 32L13.6984 27.7696C14.272 27.6158 14.8325 27.3854 15.3786 27.0814C16.0238 27.4395 16.6847 27.7015 17.3592 27.8543L20.061 31.9824L30.9508 24.8544L28.4941 21.1011Z" fill="#181713"/>
<path d="M23.0806 17.892C22.9845 18.1742 22.8288 18.4358 22.6199 18.6594L18.9118 22.5877L15.328 18.7926L15.3019 18.7676C15.2237 18.6955 15.151 18.6183 15.0868 18.5388C14.962 18.3847 14.8548 18.1924 14.7704 17.9747C14.7557 17.9353 14.7385 17.8972 14.7205 17.8591C14.6508 17.641 14.6153 17.4129 14.6153 17.1806C14.6153 16.9401 14.656 16.6996 14.7362 16.465C15.0109 15.6634 15.7174 15.1247 16.4946 15.1247C17.2222 15.1247 17.8922 15.593 18.2008 16.318C18.322 16.6009 18.598 16.784 18.906 16.784C19.2133 16.784 19.4902 16.6009 19.6108 16.3177C19.9201 15.593 20.5888 15.1247 21.3164 15.1247C22.3533 15.1247 23.1963 16.0472 23.1963 17.1806C23.1963 17.425 23.1575 17.6645 23.0806 17.892ZM21.3164 14.1471C20.3336 14.1471 19.4261 14.6874 18.906 15.5535C18.3856 14.6874 17.4774 14.1471 16.4946 14.1471C15.2993 14.1471 14.2213 14.9517 13.8114 16.1483C13.696 16.4852 13.6377 16.8322 13.6377 17.1806C13.6377 17.5237 13.6918 17.8607 13.7967 18.1784C13.8078 18.2139 13.8215 18.2449 13.8355 18.2742L14.2784 18.0663L13.8365 18.2768L14.279 18.0676L13.8374 18.2775C13.843 18.2895 13.8489 18.3012 13.8564 18.3205C13.9799 18.6395 14.1376 18.9194 14.3253 19.1527C14.4172 19.2661 14.5192 19.375 14.629 19.4763L18.9118 24.0117L23.3433 19.3166C23.6369 19.0032 23.866 18.619 24.0061 18.2061C24.1172 17.8766 24.1739 17.5322 24.1739 17.1806C24.1739 15.5082 22.8923 14.1471 21.3164 14.1471Z" fill="#181713"/>
</svg>
