<svg width="169" height="132" viewBox="0 0 169 132" fill="none" xmlns="http://www.w3.org/2000/svg">
<mask id="mask0_2073_79537" style="mask-type:alpha" maskUnits="userSpaceOnUse" x="0" y="0" width="169" height="132">
<path d="M70.5016 7.26243C53.4344 -6.94442 24.6454 1.34664 9.97947 17.8753C-4.66822 34.3834 -2.72504 59.2543 14.321 73.4435L83.1313 130.721C83.5514 131.071 83.9445 131.452 84.3073 131.861C84.354 131.928 84.4535 131.928 84.5002 131.861C84.863 131.452 85.2561 131.071 85.6762 130.721L154.486 73.4435C171.533 59.2543 173.476 34.3834 158.828 17.8753C144.162 1.34664 115.233 -6.94442 98.1655 7.26243L92.7359 12.4123C88.1911 16.7231 81.0951 16.8129 76.4427 12.6185L70.5016 7.26243Z" fill="#D9D9D9"/>
</mask>
<g mask="url(#mask0_2073_79537)">
<path d="M70.5016 7.26243C53.4344 -6.94442 24.6454 1.34664 9.97947 17.8753C-4.66822 34.3834 -2.72504 59.2543 14.321 73.4435L83.1313 130.721C83.5514 131.071 83.9445 131.452 84.3073 131.861C84.354 131.928 84.4535 131.928 84.5002 131.861C84.863 131.452 85.2561 131.071 85.6762 130.721L154.486 73.4435C171.533 59.2543 173.476 34.3834 158.828 17.8753C144.162 1.34664 115.233 -6.94442 98.1655 7.26243L92.7359 12.4123C88.1911 16.7231 81.0951 16.8129 76.4427 12.6185L70.5016 7.26243Z" fill="white"/>
<path d="M82.2457 89.6091C84.8968 90.3688 86.9092 98.348 87.3585 94.8389C87.7433 91.8298 85.4046 84.651 85.6784 80.6371C85.7508 79.5858 87.1135 79.441 87.4597 80.4646C87.4706 80.4953 88.5775 87.1682 89.4423 89.1191C90.6632 91.8714 89.6922 85.1439 89.8182 79.0671C89.839 78.0842 90.5353 77.6101 91.1572 77.7817C92.0419 78.0257 91.8485 78.9709 91.8832 80.3912C91.9526 83.1921 91.6541 89.6389 92.4713 89.1915C93.2876 88.7452 92.9831 80.538 93.6605 78.8558C93.9709 78.0832 95.3 78.3341 95.2454 79.7752C95.2444 79.81 95.0778 84.65 95.0768 84.6837C94.8636 93.0943 96.5953 90.7943 97.6079 84.7304C97.717 84.0728 97.9223 83.4896 98.5859 83.5551C100.298 83.7217 98.5105 89.3235 97.8301 92.9227C97.237 96.0658 95.8613 98.7477 96.0042 102.89C96.5189 113.487 97.7904 123.17 98.6632 133.761L88.5457 133.503C88.9881 128.857 91.78 107.269 88.0716 104.165C85.5445 102.048 82.6137 92.5141 81.2608 90.6069C80.7292 89.858 81.6496 89.4385 82.2457 89.6091Z" fill="#181713" fill-opacity="0.5"/>
<path d="M82.6898 73.9841C79.4139 74.9224 76.9264 84.784 76.371 80.4468C75.8949 76.7285 78.7861 67.8557 78.4468 62.8946C78.3586 61.5963 76.6735 61.4168 76.246 62.6824C76.2331 62.7201 74.8654 70.967 73.7962 73.3771C72.2876 76.779 73.4868 68.4646 73.3311 60.9546C73.3063 59.7406 72.4452 59.1545 71.6764 59.3667C70.5833 59.6682 70.8219 60.8356 70.7787 62.5911C70.6938 66.0526 71.0621 74.0198 70.0526 73.4674C69.0433 72.9149 69.4203 62.7726 68.5832 60.6938C68.1987 59.7396 66.5573 60.0491 66.6236 61.8294C66.6253 61.874 66.8311 67.8547 66.8322 67.8963C67.0955 78.2915 64.9556 75.449 63.7048 67.9539C63.5693 67.1416 63.3156 66.4205 62.4963 66.5009C60.3802 66.7081 62.5888 73.631 63.4294 78.0793C64.1632 81.9623 65.8628 85.2769 65.6868 90.3967C65.0501 103.493 63.4793 115.46 62.4002 128.549L74.9041 128.229C74.3576 122.488 70.9067 95.809 75.4903 91.9717C78.6135 89.3572 82.2356 77.5735 83.9068 75.2169C84.5644 74.2906 83.4258 73.7728 82.6898 73.9841Z" fill="#181713" fill-opacity="0.5"/>
<path d="M124.159 60.6072C120.883 61.5454 118.395 71.407 117.84 67.0698C117.364 63.3515 120.255 54.4797 119.916 49.5187C119.827 48.2204 118.143 48.0409 117.714 49.3054C117.701 49.3431 116.334 57.5901 115.265 60.0012C113.756 63.4021 114.955 55.0877 114.8 47.5787C114.775 46.3637 113.914 45.7775 113.145 45.9898C112.052 46.2913 112.291 47.4597 112.248 49.2152C112.163 52.6756 112.531 60.6429 111.521 60.0904C110.512 59.539 110.889 49.3967 110.052 47.3168C109.667 46.3627 108.026 46.6731 108.092 48.4525C108.094 48.4971 108.3 54.4777 108.301 54.5194C108.564 64.9146 106.424 62.0721 105.174 54.5769C105.038 53.7646 104.784 53.0446 103.965 53.1239C101.849 53.3312 104.058 60.2541 104.898 64.7024C105.632 68.5863 107.331 71.9 107.156 77.0207C106.519 90.1156 104.948 102.083 103.869 115.172L116.373 114.853C115.826 109.111 112.375 82.4321 116.959 78.5947C120.082 75.9803 123.704 64.1965 125.375 61.84C126.033 60.9136 124.895 60.3959 124.159 60.6072Z" fill="#181713" fill-opacity="0.5"/>
<path d="M66.9086 46.1571C62.1648 47.6913 58.5622 63.815 57.7584 56.7241C57.0692 50.6448 61.2557 36.1382 60.7647 28.0269C60.6363 25.904 58.1969 25.6112 57.5767 27.6791C57.558 27.7413 55.5776 41.2242 54.0295 45.1662C51.8453 50.7277 53.5817 37.1339 53.3563 24.8556C53.3199 22.8691 52.0734 21.9109 50.9603 22.258C49.3775 22.7502 49.7228 24.6602 49.6605 27.5307C49.5375 33.1903 50.0707 46.2161 48.609 45.313C47.1472 44.4107 47.6934 27.8275 46.4809 24.428C45.9243 22.8675 43.5474 23.3749 43.6436 26.2853C43.646 26.3571 43.9439 36.1358 43.9455 36.2037C44.3269 53.2001 41.228 48.5521 39.417 36.2978C39.2206 34.9702 38.8532 33.7919 37.6669 33.9227C34.6028 34.261 37.8009 45.5795 39.0181 52.8531C40.0808 59.2028 42.5418 64.6215 42.287 72.9929C41.3649 94.4045 39.0904 113.97 37.5277 135.371L55.6338 134.849C54.8423 125.462 49.8458 81.8422 56.4829 75.5675C61.0058 71.2928 66.2501 52.0266 68.6709 48.174C69.6219 46.6589 67.9742 45.8124 66.9086 46.1571Z" fill="#181713" fill-opacity="0.5"/>
</g>
</svg>
