<svg width="439" height="441" viewBox="0 0 439 441" fill="none" xmlns="http://www.w3.org/2000/svg">
<path d="M435.601 106.102L431.368 107.792L423.747 110.329L418.666 112.231L414.856 114.345L410.199 118.149L407.446 120.474L404.906 122.164L400.037 124.701L397.285 125.757L394.957 126.814L392.84 127.66V127.237L392.417 126.181L392.332 126.138L392.015 125.451L391.993 125.335L391.837 125.068L391.812 125.013L391.782 124.912L391.751 124.882L391.57 124.49L391.006 123.644L390.511 122.799L390.406 122.746L390.3 122.587L389.877 121.53H390.3L392.628 120.051L395.381 117.937L396.863 116.246L397.26 115.586L397.286 115.612L398.133 114.132L399.403 111.385L401.096 110.75L401.943 110.328L403.637 109.482L404.06 109.271L405.4 108.425L406.811 107.579L407.462 107.124L408.081 106.734V106.692L408.543 106.369L408.716 106.312L410.41 105.466L410.458 105.37L413.797 103.776L415.279 102.507L415.491 101.451H414.433L412.104 102.507L408.082 104.41L403.094 106.127L401.644 106.449L401.352 106.376L401.943 104.41L401.731 102.93L401.096 101.662L400.884 101.239L400.037 100.253L399.826 99.9712L399.787 99.9616L399.614 99.7596L397.963 97.4771L396.721 95.7206L395.592 93.842L395.804 92.7854L397.497 88.5584V87.2903L397.37 87.1637L397.286 86.2337L399.191 85.5996L403.425 83.909L409.352 81.3727L412.273 80.1045H412.315L419.936 76.7226L420.167 76.55L423.111 75.2435L426.71 73.9753L430.943 73.7638L431.366 73.5522L432.637 72.9181L433.695 71.65L433.907 70.5934L433.272 69.9593L432.814 69.7592L432.848 69.7477L429.885 68.4796L428.403 68.268L428.191 68.4796V69.9593L427.768 70.3818L426.075 71.2275L423.534 71.65L419.512 72.284L414.22 72.9181L410.621 73.5522L406.176 74.1863L401.095 75.0319L394.532 76.3001L389.664 77.3566L384.16 78.4132L379.715 79.6814L370.612 82.6402L366.379 84.3308L363.203 85.8106L359.181 87.9244L357.911 88.1359V87.5019L358.334 86.4453L358.546 85.3887H357.911L356.641 86.4983L355.583 87.2909L353.889 88.4185L352.196 89.4047L351.138 89.6163L351.773 85.6003V82.2183L351.561 81.3727L350.926 79.682L349.868 79.4705L348.386 81.3727L347.327 82.4293L345.634 83.2749L343.517 83.4865L343.094 82.8524L342.882 80.1045L342.459 77.9907L341.612 77.7792L340.977 78.8357L339.495 79.6814L338.224 79.893L337.589 79.2589L337.378 77.3566L336.742 76.9341H335.472L334.414 76.3001L333.144 75.666L333.356 74.8203L333.779 73.7638L335.049 73.3413L338.436 71.439L341.189 69.5368L343.517 68.0571L346.269 66.3664L348.809 65.3098L348.386 66.7896V68.2693L349.444 69.3259H350.927L351.562 69.1143L352.62 68.0577V66.578L352.05 65.8953L351.985 65.733L351.887 65.7004L351.561 65.3105L349.021 64.6764V64.4648L350.714 62.9851L353.254 61.2945L356.218 59.3922L357.7 58.5466L360.663 56.8559L364.685 54.9537L366.196 54.4948L367.014 54.3196L368.833 53.6932L369.554 53.474L371.479 52.7824L373.153 52.2058L373.235 52.1508L374.337 51.7545L374.422 51.7833L375.692 51.1492L375.798 51.0438L376.75 50.5152L377.597 49.247V47.7673L377.386 47.1332H377.325L376.962 46.2876L375.692 44.5969L373.999 43.1172L369.765 39.9468L369.13 39.6298L368.918 39.1011L369.553 38.4671L371.882 36.9873L373.787 35.2967L375.48 33.1829V31.9147L375.268 31.7032L373.363 31.9147L370.611 33.3945L366.801 35.9308L365.954 36.1423L364.684 35.0858V34.1698L365.954 33.606L366.5 33.1388L366.589 33.1835L367.436 32.3379L368.283 30.6472L370.4 29.5906L372.093 28.1109L373.575 26.4203L373.787 24.9405L373.575 24.729H372.517L371.247 25.1515L369.342 26.2081L367.648 27.6878L366.846 29.6904L366.443 29.932L365.637 30.2247H365.532L364.474 30.6472L362.78 31.7038L362.568 30.2241L361.51 29.59L360.875 28.9559L360.028 28.5334V28.1109L358.758 26.8428L356.43 24.9405L354.948 25.1521V22.6158L355.159 21.9817V19.657L354.948 19.0229L354.312 18.1773L353.042 17.5432H350.714L346.904 17.9657L342.246 18.5998H340.341L339.918 18.1773H338.648L337.166 19.0229L335.684 19.657L331.45 20.0795L325.734 20.2911L323.194 19.8686V19.2345H323.617L324.464 18.6004L330.18 14.796L331.45 13.9503L333.567 12.5767L336.107 10.9915L337.831 9.90424L340.553 8.24363L340.613 8.18355L343.516 6.55297L344.956 5.70732L346.48 4.86168L346.601 4.74087L347.115 4.43917L347.454 4.18541L347.539 4.2276L348.809 3.17102L349.656 1.90287V0.423144L349.233 0.211571L349.202 0.241614L348.598 0L347.539 0.211571L345.846 1.05722L343.518 2.53694L339.707 5.28482L336.32 7.82112L331.663 10.9915L328.699 13.1053L324.677 15.8532L321.501 18.1779L319.384 19.6576L315.574 22.4055L313.246 23.8852L311.764 25.365L309.011 27.4788L305.201 30.4376L301.814 32.9739L299.062 35.0877L295.039 38.0465L292.076 40.1603L289.535 42.0625L285.725 44.5988L283.608 44.1763L283.396 44.8104L284.031 45.4445L283.819 46.0785L280.432 48.6148L276.833 51.1512L274.081 53.265L270.694 55.8013L267.731 57.9151L265.402 59.6057L264.344 60.2398L264.132 60.8739L263.285 61.0854L262.65 61.7195L260.957 62.9877L257.781 65.3124V65.7349H257.358L253.971 68.2712L252.968 68.9992L251.693 69.6359L249.365 71.1156L245.554 73.8635L242.167 76.3998L237.51 79.5702L234.546 81.684L230.524 84.4318L227.349 86.7566L225.232 88.2363L223.636 89.3868L223.065 89.1964L222.853 89.8304L222.978 89.8617L221.421 90.9842L219.093 92.4639L217.611 93.9436L214.859 96.0574L211.048 99.0162L207.661 101.553L204.909 103.666L200.887 106.625L197.923 108.739L195.383 110.641L191.572 113.177L189.455 112.755L189.243 113.389L189.878 114.023L189.667 114.657L186.279 117.194L182.681 119.73L179.929 121.844L179.031 122.515V122.381L178.396 122.17L177.973 123.015L177.904 123.36L176.541 124.38L173.578 126.494L171.25 128.184L170.191 128.818L169.979 129.453L169.363 129.607L169.718 128.722H168.871L168.447 129.144L166.542 130.201L166.33 130.835L165.06 131.258L163.155 132.948L162.097 133.582V133.16L161.25 132.948L160.403 133.371L158.921 134.639L157.227 135.907L155.322 137.175L152.782 139.289L150.665 140.98L150.03 142.036L148.972 141.825L148.76 142.247L147.913 143.093L147.701 143.727H147.278L146.219 144.573L146.007 145.207L146.643 146.052H146.219L145.372 147.109L144.314 147.955L143.256 148.166L142.409 147.532L141.774 147.744L141.562 148.589H141.985L141.773 149.646H141.35L140.715 150.28L140.292 151.126H140.568L140.342 151.222L139.707 152.279L138.225 153.335L135.897 155.237L134.204 156.717L133.992 157.351L133.145 157.774H131.663L131.451 158.83L129.969 159.464L127.852 160.733L127.005 161.578L125.735 162.424L125.523 163.058H125.1V163.48H124.676L122.983 164.96L121.078 166.228H119.385L117.479 167.708L117.056 168.554H116.633L115.363 169.399L115.575 170.245L116.845 170.457L116.633 171.513H116.21L115.998 172.147L117.056 173.415H116.633L116.21 174.049L115.363 175.106L115.998 175.318L118.115 173.838L120.443 172.147L122.984 170.457L125.101 169.822L124.889 170.457L123.619 171.936L120.443 174.261L119.808 174.895H120.655L122.561 173.839L126.583 171.302L128.7 170.246V170.668L128.065 170.88L125.948 172.359L123.831 174.05L123.407 174.896H123.831L125.736 174.05L128.064 172.359L129.334 171.725L131.663 170.246L132.721 169.823V170.246L131.028 171.514L129.758 172.148L128.275 173.628L128.064 174.684H128.699L131.027 173.204L133.99 171.302L136.108 170.034L138.436 168.554L140.553 167.286L141.611 166.441L143.093 166.018L143.517 165.384L144.152 165.172L143.94 166.018L142.458 167.075L134.202 172.57L132.085 174.049L129.756 175.318L127.639 176.797L126.157 178.488L125.31 178.91L124.887 177.854L123.829 178.065H122.135L121.924 178.277L115.573 183.138L113.244 184.618L110.281 186.732V187.154H109.858L109.435 188H109.858V187.577H110.281L111.551 186.732L112.186 186.309L112.609 185.992L113.668 185.253L113.71 185.168L113.88 185.042L116.632 183.562L118.749 183.35L119.807 182.928L120.865 182.716L120.653 183.35L117.266 186.098L114.303 188.212L112.186 189.692L110.096 191.164L110.068 191.171L110.044 191.201L108.587 192.228L106.47 193.708L104.142 195.187L100.331 197.935L96.944 200.472L93.9805 202.585L91.0171 204.91L88.2649 207.235L86.6292 208.291H86.5716L85.7458 208.862L84.6664 209.56L84.1434 209.97L83.8194 210.194L81.1851 212.26L79.374 213.575L77.7575 214.83L77.6806 214.843L76.8663 215.493L76.8337 215.477L75.5635 216.534L72.6001 218.859L70.2717 220.972L70.2186 221.236L70.0598 221.395L70.1302 221.677L70.0598 222.029L70.241 222.12L70.2711 222.24L70.3978 222.198L70.4824 222.24L70.588 222.135L70.9055 222.03L71.6219 221.135L72.5988 220.55L73.3043 220.127L73.3581 220.098L73.4458 220.127L74.7159 219.282L76.3036 217.855L76.6211 217.591L77.6794 216.745L80.2196 214.843L81.7017 213.787L81.7721 213.716L82.548 213.152L84.2413 212.518L85.5114 211.462L86.5697 210.616L87.2048 210.052L88.0517 209.348L89.0952 208.495L89.11 208.502L90.3801 207.446L92.4972 205.755L93.7673 205.333L95.8844 203.707L98.4247 201.951L99.0598 201.528L100.542 200.365L100.965 200.048L101.43 199.668L102.023 199.203L102.711 198.622L103.293 198.147L103.596 197.875L104.775 196.879L106.892 195.188L109.22 193.074L110.49 192.229L111.761 191.383L114.089 189.269L115.359 188.424V188.001L115.994 187.789L117.052 187.155L119.593 185.465L122.345 183.351L124.673 181.449L127.849 179.546L130.177 178.067L133.14 175.742L136.316 173.417L139.491 171.727L140.126 170.67L141.396 170.036L144.148 167.922L146.054 166.654L147.747 165.386L149.229 165.597L149.441 163.907H149.864L150.711 163.273L152.828 161.793L154.521 160.313L155.792 159.679L157.697 158.199L161.084 155.875L164.274 153.486L164.39 153.544L164.42 153.665L164.547 153.623L164.631 153.665L164.737 153.56L165.054 153.454L165.771 152.56L166.748 151.974L167.453 151.552L167.507 151.522L167.595 151.552L168.865 150.706L170.128 149.572L170.186 149.535L169.974 149.958L167.645 151.86L164.682 154.185L162.565 155.875L160.236 157.566V157.988L159.601 158.2L156.003 160.948L153.039 163.273L150.499 165.597L148.382 167.288L144.783 170.247L142.666 171.938L139.914 174.262L136.951 176.799L134.622 178.701L134.122 179.159L133.725 179.027L133.09 179.449L131.185 180.929L128.683 182.85L128.644 182.831L128.432 183.043L126.739 184.523L126.633 184.84L126.528 184.945L126.57 185.029L126.528 185.156L126.655 185.198L126.739 185.368L126.932 185.291L127.163 185.368L127.671 184.996L127.798 184.945L127.783 184.914L128.509 184.383L128.272 184.619L126.366 186.099L125.288 186.368L125.258 186.214H124.623L123.564 186.848L122.929 187.904L123.352 188.539L123.406 188.528L122.768 188.847L121.71 189.481V189.058L120.863 188.213H119.381L117.264 188.847L115.993 189.481L116.205 190.537L118.322 191.594L120.016 192.016L120.228 192.65L119.593 193.073L117.476 194.764L114.512 197.088L112.184 197.3L110.067 197.934L109.008 199.202L109.22 200.048L110.278 200.47L110.067 201.316L107.949 203.007L105.832 204.063L103.927 206.177L102.022 206.6L101.048 208.155L100.117 208.713L98.4234 209.559L97.5765 210.193L96.9414 211.673L95.8832 212.307L95.4952 212.589L95.46 212.518L93.5548 213.998L92.7078 214.21L92.2847 213.787L91.4377 214.21L91.0376 216.008L89.7444 216.746L89.3212 217.38L88.0511 218.014L88.0312 218.074L87.2976 218.468L87.2041 218.437L86.1459 219.071L85.5108 219.863L84.6638 220.603L83.6056 221.395L82.5474 222.241L81.7004 222.875L80.1127 224.143L78.737 225.2L78.7235 225.226L76.8318 226.679L73.8683 229.004L72.175 230.906L71.6577 232.972L71.3101 233.58L70.4817 234.076L68.5765 234.498L68.1533 235.555L66.6713 237.457L66.6899 237.463L66.2833 237.986L66.2481 237.88L66.0362 238.303L64.5542 238.937L63.7072 240.205L62.2252 241.051L61.9781 241.262H61.8129L60.7547 242.319L58.6376 243.587L56.5204 245.701L55.0384 247.391L53.3451 249.082L51.6518 250.562L48.8996 252.886L48.0527 253.521L47.3472 254.155L46.5713 254.789L44.878 256.479V256.656L44.666 256.902L44.878 256.956V257.114L45.2307 257.044L45.513 257.114L45.8549 256.919L45.9362 256.903L46.1865 256.73L46.9951 256.269L47.9022 255.544L48.6884 255.001L50.3561 253.72L50.3817 253.733L51.4399 252.887L55.2503 249.083L56.9436 247.603L60.3309 244.221L61.9185 242.953L63.2943 241.896L63.5062 241.685L64.3532 240.839L67.5285 238.725L69.6456 238.303L70.7039 237.669L71.127 236.189H73.4554L74.3024 235.343L75.7844 234.921L75.9112 234.54L78.1128 233.442L78.7478 233.019L80.018 232.385L80.2299 231.963L81.5 230.906L82.5583 230.483L82.3463 230.906L82.1344 231.328L82.2113 231.713L82.1344 232.173L82.5576 232.808H81.0756L80.2286 233.019L79.1704 234.076L78.9585 235.555L79.1704 235.767L79.3823 237.247L79.9802 237.396L77.6883 239.083V238.516L77.0533 238.304L76.4182 238.938L76.2063 239.995H76.4745L75.2114 241.159L75.36 240.418L74.7249 240.206L73.4548 241.263L73.0316 242.108H73.8786L74.431 241.833L73.8286 242.434L73.4055 243.28H74.2524L76.5808 241.589L79.5442 239.476L80.2299 238.949V239.572L81.2881 239.784L82.1351 239.361L82.4174 239.079L82.5583 239.15L82.9814 238.516L84.2516 237.67L84.6747 236.824H85.9449L87.0031 235.345L88.6119 234.541L88.706 234.528L88.9083 235.133L88.6964 235.979L87.4263 237.669L86.5793 238.092L86.3674 238.726L85.0972 240.206L83.192 239.994L82.557 241.051L81.2868 241.896L80.8637 242.742L80.6518 243.588L79.3816 244.433L77.4873 245.946L77.4764 245.913L77.2645 246.124L74.9362 248.027L73.4541 249.506L71.1257 251.409L70.9138 252.254H72.3959L72.6078 252.043V252.016L72.8197 251.779V251.832L73.5252 250.986L73.9112 250.552L75.7831 249.929L75.8363 249.876L76.4182 249.717L79.3816 247.393L81.0749 245.913V245.49H81.4981L81.71 245.068L83.6152 243.8L85.7323 242.954L86.3674 240.84H86.7906L88.9077 238.938L89.9659 237.881V238.516L89.1189 239.784L88.2719 241.263L86.5787 242.743L84.4615 244.857L82.7682 246.337V246.759H82.3451L78.9578 249.718V250.14H78.5347V250.563H78.1115L76.6295 252.043L76.0847 252.488L75.9944 252.465L74.3011 253.945V254.367H73.8779L72.8197 255.424L70.4913 257.326L68.3742 259.228L66.6809 260.708V261.131H66.2577L63.7175 263.455L62.0242 264.935L58.8488 267.894L59.0607 267.471L59.4839 267.049V266.415L58.8488 267.049L56.5204 269.585H56.9436H56.9673L56.9436 269.606V269.585L56.7317 269.797L54.8265 271.277L52.9213 272.122L52.8899 272.169L52.0743 272.545L51.2274 273.179L51.148 273.284L50.3804 273.897V273.813L49.3222 274.659L49.2396 274.732L47.2057 276.138L43.6072 277.829L43.184 278.675L45.0892 279.309L45.7243 279.731L44.2423 281.211L42.5489 282.691V283.113L41.9139 283.325L42.337 283.747V284.381L41.2788 285.861L40.8556 286.707H40.4325L38.7392 288.186V288.609H38.316L38.1041 289.031L36.4108 290.722L36.834 291.568H37.8922L38.9504 290.934L41.7026 288.397H43.1847L45.513 289.031H47.2063L48.0533 288.609L48.1032 288.509L48.6461 288.193L48.6884 288.186L48.9905 288.005L49.1115 287.975L49.1237 287.925L49.7466 287.552L52.9219 285.227L55.8854 283.325L59.4839 281L61.601 278.886L62.0101 278.42L62.0248 278.463L63.083 277.195L64.7763 275.504L64.9882 275.293L65.8141 274.659H65.8352L67.7404 273.179L70.7039 271.488L74.0911 270.22L76.2082 268.952L78.7485 266.204L81.0769 262.611L82.9821 262.4L83.6171 261.765L83.4052 260.497L84.0403 259.652L85.5223 258.172L87.0044 257.538L89.1215 256.27L89.4595 256.101L89.2828 256.807H89.9179L91.6112 255.117L91.6368 255.014L92.5081 254.579L92.0849 256.481L91.873 256.587L91.6611 256.481L91.238 256.904L89.5447 257.749L88.6977 258.595L89.1208 259.229L88.9089 260.075L89.7559 259.863L90.6029 259.018L91.4499 258.595L92.5081 258.173L91.4499 259.652L90.2021 260.72L90.1797 260.709L88.4864 262.189L85.7342 264.514L84.6229 265.782H84.4641L84.2522 266.205L82.7702 267.473L82.347 268.318H83.194L83.4059 267.896L84.2528 267.473L84.676 266.839L85.7342 265.994L87.1856 264.725L88.2745 263.88L90.3916 262.189L92.5087 260.709L95.6841 258.385L98.0124 257.117L99.0707 256.694L98.2237 257.328L95.6834 260.076L93.9901 261.556L91.6618 263.67L89.5447 265.36V265.693L89.3859 265.783H89.1215L88.6983 266.122L88.4864 266.206L87.9608 266.643L87.8513 266.206L87.4282 266.417L87.1369 266.681L86.5812 267.052L83.6491 269.807L82.7708 270.433L81.9238 270.645L81.0769 270.011V269.165L81.9238 268.954L81.7119 268.32L80.4418 269.376L78.7485 270.856L78.5366 271.702L79.5948 271.068L80.4418 271.279V271.702L80.0186 272.336L79.1716 273.181V273.604L79.3836 273.646L78.6429 274.534L78.043 275.013L75.5731 276.774L73.8798 278.465L72.3978 279.099L71.5508 279.945L70.4926 280.79L69.2225 280.579V279.733H69.6456V279.311H70.0688L70.492 278.465H70.9151L71.127 278.042L72.1853 277.197V276.774H72.6084L74.0905 275.929L74.1961 275.849L75.1487 275.294L75.7838 274.66L75.826 274.449L75.995 274.237L75.9246 273.955L75.995 273.603L75.8279 273.57L75.7831 273.392L75.3215 273.469L74.9368 273.392L74.5136 273.604L71.7615 275.506L70.6322 276.821L69.6443 277.725L68.7974 278.465L68.7487 278.53L68.5861 278.676L67.9645 279.106L67.951 279.099L65.8339 280.579L64.3519 281.847L62.8699 283.538L61.5997 284.594L59.9064 286.496L59.7854 286.738L59.0594 287.342V287.764H58.6363L57.578 288.61L57.1549 289.456H56.7317L56.3085 290.09L56.3931 290.132L56.3085 290.301L56.5435 290.207L56.7317 290.301L57.2157 289.939L57.3668 289.879L58.8488 288.716L61.8123 286.497L62.8705 286.074L62.2354 287.343L61.1772 288.294V288.188L60.875 288.565L60.119 289.245L58.4257 290.725L56.3085 292.627L56.0966 293.472H56.7317L57.5787 292.838L58.9756 291.908L60.3302 291.57L60.9653 291.148L61.1772 290.302L62.2354 289.034L62.8705 288.4L63.5056 288.611L64.7757 288.4L65.6227 287.343L67.1047 286.709L69.2218 284.595L70.9151 283.116L71.7621 281.848L72.1853 281.002L73.6673 280.579L75.1493 279.311L77.2664 278.043L79.1716 275.718L80.2299 275.084L81.7119 274.45L82.1351 274.028L82.5583 272.971L84.6754 271.914L87.2156 270.012L89.3328 268.322L91.0261 267.476L92.7193 266.208L94.2014 265.785L94.6246 264.94L96.7417 265.362L96.5298 263.46L98.8581 263.248L99.2813 263.46L100.34 262.403L101.822 261.981L102.669 261.135L104.362 260.29L104.574 259.655H106.267V259.867L104.362 260.713L104.15 261.135L102.668 262.403L102.245 263.46H100.551L99.9164 264.094L98.8581 264.94V265.362H98.435V265.785H97.7999L96.9529 266.419L95.8947 267.475L93.7776 269.166L92.5074 269.588L92.0843 270.645L89.544 272.547L88.2739 273.393V273.815H87.8507L87.0037 274.449L84.8866 275.929V276.352L85.7336 276.563L87.2156 275.929L88.9089 274.449L90.8142 272.97L93.1425 271.49L96.5298 268.954L98.0118 268.108L99.2819 267.052L100.087 267.213L99.8664 267.378L97.1143 269.703L94.7859 271.605V272.028H94.3627L91.6105 274.352L88.6471 276.889L86.9538 278.368L84.8367 280.271L82.5083 282.173V282.595H82.0852L79.333 285.132L77.8509 286.822L78.2741 287.668H79.3323L81.2375 286.188L84.201 283.44L87.5882 280.27L89.2815 278.79L91.1867 276.888L91.9902 276.186L92.9306 275.717L93.0503 275.239L94.0535 274.237H95.0477L96.741 273.392L96.5291 274.237L94.412 276.774L92.93 277.619L90.6016 279.099L91.2367 279.311L92.5068 278.676L92.2949 279.311L89.5427 281.635L86.1555 283.749L85.0972 285.44L83.4039 285.862L81.9219 287.553L79.3816 289.455L75.7831 293.048L74.513 293.682L73.8779 294.316L73.6238 294.696L73.031 295.373L72.9842 295.655L72.6078 296.218V297.487L71.3376 298.543L70.0675 299.389L67.9504 299.6L66.2571 301.08L64.7751 303.194L64.5632 304.25H65.1982L67.3153 303.616L66.8922 304.673L63.5049 307.843L61.3878 309.534L59.4826 310.802L57.1542 312.07L54.1908 313.973L51.4386 316.297L50.5917 317.565L50.6102 317.62L50.3804 317.988L49.1102 319.468H48.052L46.7819 319.89L44.2416 322.215L44.0297 323.695L43.1827 324.54L42.5477 325.174L41.9126 325.899L40.2193 327.711L39.5842 328.345L38.9492 329.16L38.7373 329.401L36.4089 330.881L35.7738 331.938L32.3866 332.36L31.7515 332.572L29.4231 334.262L27.7298 336.165L25.8246 336.376L25.4015 336.588L21.8029 340.181L19.6858 342.294L19.2627 343.14H18.8395L18.1135 343.986L17.223 344.764L15.0291 345.677L13.3358 347.157L10.3724 349.481L3.59851 356.245L3.17534 357.09H2.75218L1.48204 358.57L0.635071 359.416L0.403963 359.8L0 360.261L0.105632 360.296L0 360.472L0.362989 360.382L0.635071 360.472L2.54028 358.993L3.03066 358.548L3.81041 357.936L5.10552 356.743L5.29245 356.668L6.56259 355.4L9.52603 353.075L8.67905 354.132L7.72645 355.294L7.19702 355.823L7.23991 355.887L6.77321 356.457L5.29117 357.937L4.86801 358.782H4.44548L3.59851 359.839L2.96344 361.107L3.59851 361.319L6.13878 359.416L8.89096 357.092L12.9133 354.344L15.2416 352.864L15.0297 353.287L13.7596 354.977L13.2206 355.823L12.9126 356.245L12.9293 356.279L12.2776 357.302L10.5843 358.993L8.67905 361.106L7.19702 362.797L5.92688 363.643L5.71498 364.699H4.65674L3.80977 365.333L2.75154 366.39L2.6107 366.812H2.32837L0.84633 368.503L1.05823 369.349H2.11647L2.75154 368.926L2.85717 368.821L4.44484 367.87L5.50307 367.024L6.56131 365.967L8.04335 364.911L11.6419 361.318L12.065 360.472H12.4882L14.1815 359.204L15.1955 358.348L15.2404 358.358L16.1475 357.544L16.9337 356.879L16.5809 357.443L16.5105 357.513L16.4638 357.631L15.8761 358.571L14.394 360.473L12.2769 362.375L9.52475 364.489L8.25461 365.546L6.56131 366.814V367.236H6.13814L4.44484 368.927L1.05759 371.041V371.886H1.90457L3.59787 371.252L6.56131 369.772L9.31349 368.716L11.2187 367.448L12.7007 365.334L14.6059 364.277L15.8761 363.432L17.9932 361.53L20.1103 360.895L21.5923 359.627L21.6045 359.59L21.8036 359.416V358.994L22.0155 358.36L23.0737 357.514L24.3439 356.034L26.0372 354.555L27.0954 353.498L28.7887 352.864L29.2119 351.807L30.6939 351.385L30.9058 350.539H31.5409L34.0812 348.849L36.4095 347.158L36.8327 346.312H37.6797L38.7379 345.256L40.008 344.41L40.855 343.142L42.1251 342.93L42.9721 342.296L44.2423 341.662L45.3005 340.817L48.2639 338.703L50.381 337.223L51.0161 336.166L51.6512 335.532L53.1332 335.11L54.4033 334.476L56.5204 332.785L59.9077 331.095L61.1778 330.038L62.2361 329.192L63.2943 328.981L62.6592 330.249L63.2943 330.46V331.095L64.1413 331.306L64.5644 330.672L63.9294 330.46V330.038H65.1995L66.6815 328.77L66.8934 327.713L64.9882 327.925L64.7763 328.77H63.7181L64.1413 327.502L65.4114 327.291L66.4696 326.234L67.1047 325.177L67.7398 324.966L69.2218 324.543L69.4337 322.43H70.492L71.3389 322.218L71.974 321.161L73.6673 319.682L74.9374 319.048L75.5725 317.991H77.2658L78.9591 317.357L79.171 316.3L79.5942 315.666L81.7113 314.821V314.187L81.0762 313.975L81.2881 313.341L82.1351 312.707L83.1933 312.284V311.862L85.0985 312.073L85.7336 310.805H87.0037L88.2739 311.228L88.062 311.862L87.0037 312.708L87.03 312.721L86.7918 312.919L86.3911 313.142L86.3687 313.131L84.8866 313.976L84.6747 314.399L83.6165 315.033L82.1344 316.513L81.0762 317.147L80.6531 317.358L80.8221 317.4L80.0173 318.203L78.5353 319.049L77.9002 319.683L77.0533 319.471L76.9931 319.501L76.842 319.471L75.995 320L75.36 320.317L75.2217 320.483L75.1481 320.529L73.2429 322.853L71.1257 323.699L70.0675 324.545L69.2205 325.601L68.1623 326.869L67.9504 327.715L68.5855 327.927H70.0675L70.7026 326.659L72.3959 325.813L74.3011 324.967L75.4502 323.629L76.1762 323.065L77.6883 322.008L78.9585 321.374V322.008H78.5353L78.1121 322.431L77.4771 323.065L76.842 324.756L75.36 325.39L75.1481 326.446L76.2063 326.658L75.9944 327.08L74.7243 327.714H73.031L72.6078 328.349L71.1257 328.137L70.0675 329.617L68.3742 331.096L67.316 332.576L66.6809 333.844L65.4108 334.69V335.324L66.2577 335.747L65.6227 337.015L65.8346 337.649H67.1047L67.9517 336.803L67.7398 335.535L67.9517 333.633L68.5868 333.421L69.0099 332.576L70.0681 332.364V333.632L70.7032 334.055L71.7615 333.843L71.926 333.749L72.3965 333.631L72.5022 333.42L72.8728 333.208H73.0316L73.2435 332.997L76.4188 331.095L78.1121 330.883L77.9002 331.94L76.842 332.151L76.4188 332.574L75.9957 333.419L74.7255 333.842L73.1199 335.153L73.0322 335.11L72.3972 335.744L72.1853 336.801L73.2435 337.012L73.0316 337.435L72.1846 337.857L70.0675 339.548L69.0093 340.182L68.1623 339.97L67.8364 340.035L67.3153 339.97L66.8922 340.393V341.027L66.6899 341.834L66.1508 342.295L64.5632 343.563L62.8699 344.831L62.658 346.099L63.0811 346.522L63.1868 346.54L63.9274 347.156V347.579L63.5043 347.79L63.0811 348.424L62.8692 348.636L62.2041 348.968L62.0229 348.932V348.636L61.3878 348.002L60.5408 347.79L59.9058 348.424V349.692L60.5408 350.538L60.3289 351.172L58.2118 352.018L54.4014 353.708L52.9194 355.188L51.8611 355.611L51.438 356.033L50.591 357.724L48.6858 358.78L46.3574 360.894L45.9343 361.951L46.5693 362.162L47.8395 361.317L49.9566 360.048L51.2267 358.569L52.7088 358.146L54.4021 357.09L56.9423 355.187L58.6356 354.976V355.398L57.8258 356.387L55.6716 358.146L52.7081 360.471L50.591 362.162L48.8977 363.43L45.9343 365.755L43.394 367.657L40.8537 369.629L40.0067 370.193L39.0061 371.115L36.4082 373.363L33.4448 375.688L33.0216 376.534L34.9268 376.111L36.6201 374.632L38.5254 372.941L39.3192 372.412L41.0656 371.461L43.6059 369.347L45.0879 369.136L45.5111 368.079H45.9343L48.8977 366.177L51.0148 364.275L52.285 363.641L52.0731 364.486L51.0148 365.332L49.3215 366.812L47.2044 368.714L45.9343 369.56L45.0873 370.828L43.8172 371.884V372.307L42.9702 372.729L41.2769 374.209L38.9485 376.534L37.5375 377.802L36.4082 378.648L35.5421 379.685L34.9262 380.198L34.0792 380.761L33.021 382.03L31.9628 382.875L30.0729 384.574L30.0576 384.566L29.8457 384.777L28.7874 385.834L28.5755 386.68H28.9987L29.4468 386.331L29.6338 386.257L31.9621 384.354L32.174 384.162L33.2323 383.297L35.3494 381.395L35.7463 381.052L36.6195 380.338L38.5247 378.648L39.3717 377.971L41.912 376.111L44.0291 374.209L45.7224 372.729L48.0507 370.616L50.3791 368.713L53.1313 366.177L55.6716 364.275L56.5185 363.641L59.0588 361.316L60.7521 360.048L63.7155 357.3L65.1976 356.666L66.0446 355.609L67.7379 354.13L68.7289 353.25L68.7967 353.284L70.2077 352.016L71.337 351.17L74.0892 348.845L75.9944 347.366L77.2645 346.309L78.1115 346.521L79.1697 345.464L80.4399 345.253L80.7094 344.311L81.2119 343.475L82.0487 342.759L82.9193 342.083H82.9795L85.0966 340.392L88.4838 338.067L90.601 336.482L92.083 335.743V337.856L90.601 338.702L88.4838 339.759L87.4256 340.815L88.2726 341.027L90.3897 339.97L90.9223 339.725L91.0248 339.759L92.7181 338.913L93.7763 338.491L95.8934 337.222H96.5285L96.3166 338.068L94.6233 339.759L93.1412 340.604L92.5062 341.027L91.236 341.661L90.3891 342.083L89.3308 343.14L87.8488 343.563L87.4256 344.619L87.8488 344.831L88.2719 344.619L90.1772 344.197L89.754 344.831L87.6369 346.099L85.0966 347.79L84.6734 348.635L85.7317 348.847V349.058L84.4615 349.904L83.4033 351.806L82.3451 351.595L82.557 350.538L82.7689 350.326V350.115L82.9808 349.692L82.7689 349.798V349.692L80.8637 350.749L80.6518 351.595L81.4987 351.806V353.286L81.1178 354.428L80.758 354.607L80.6524 354.554L80.4405 354.766L80.0173 356.245L79.3823 356.457V357.303H80.4405L80.6524 357.937L81.4994 358.148L81.7113 357.514L82.7695 357.092V356.246H83.4046L83.5633 356.087L83.8278 356.034L83.8982 355.753L84.039 355.612L84.4622 353.498L85.9442 353.71L87.2144 353.921L88.4845 352.865L89.5427 351.597L90.601 351.174L90.8129 350.962L91.236 350.54L91.8711 350.328H92.5062L92.7181 350.54L93.7763 350.751L94.1995 349.906L94.7193 349.041L95.0164 348.819L95.8512 348.68L96.7404 349.06L97.7986 348.215L100.762 346.312L100.55 346.946L99.28 348.003L96.5278 350.328L96.1047 351.596L95.8928 352.23L95.0458 351.807L94.8339 351.878L94.622 351.807L94.501 351.988L94.4101 352.018L94.3749 352.177L94.1982 352.441V352.97L93.9863 353.921L92.9281 354.555L92.0811 354.977L91.6579 356.879L90.811 357.091L90.3878 356.034L89.5408 355.823L88.6938 357.513L88.9057 359.416L88.0588 360.05L87.0005 360.261L86.7886 359.839L85.7304 359.627L85.0953 360.05L85.0832 360.112L84.8841 360.261L84.6959 360.731L84.6722 360.684L84.4603 361.318L83.6133 361.53L83.7189 361.565L83.1895 361.741V362.164H82.7663L81.4962 363.432L80.0141 364.066L79.591 364.488V365.757L78.1089 366.391L76.4156 368.081L74.7223 367.659V369.138L72.6052 370.618L71.547 371.886L69.6418 372.732L69.2186 373.366L67.9485 374.423L65.8314 376.536L65.6195 377.593L66.8896 378.439H67.9478L69.0061 376.959L70.0643 376.113L70.4875 375.057L72.1584 374.89L72.8459 374.966L73.4509 375.268L73.6628 376.958L73.4509 377.17L73.0277 378.016H73.8747L74.7217 378.227L74.9336 379.073L74.0866 379.707L73.0284 379.495L72.0227 380.499L70.9113 380.975L70.6994 381.397L70.2762 382.243L70.4881 383.089L70.2762 383.934H69.0061L68.7519 384.019L68.5823 383.934L68.3704 384.146V385.414H67.7353V384.146H66.8883L66.6764 384.568V385.837L64.9831 387.105V387.527H64.56L63.2898 389.43L61.8078 390.064L59.9026 391.12L59.6907 391.754L62.2309 391.543L61.8078 392.177L59.9026 393.233L59.6907 393.867L60.1138 394.079V394.501H58.6318L59.055 393.445L59.2669 392.599H58.6318L58.4199 392.811L57.3617 393.445L56.7266 394.079L55.2445 394.291V395.136L54.1863 395.348L53.1281 396.616L54.1863 396.828V397.884L55.4565 397.672L56.3034 396.616L57.5736 395.77L59.0556 395.559L59.2675 396.193H58.4205L56.9385 397.249L56.3034 397.883L54.1863 399.786L52.0692 400.631V402.322L49.9521 404.224H48.8939L48.682 404.013L49.1051 403.379L49.317 402.533L48.4701 402.744L48.2582 403.59H47.835L46.1417 405.281L45.7185 406.337H46.7768L47.4118 405.069L48.8939 404.647L49.1058 405.915H49.5289L49.5616 405.785L50.5872 405.492L51.0103 404.647H51.6454H52.7036L52.2805 405.703L51.0103 406.126L50.7984 407.182L49.7402 406.76L48.2582 406.548L48.0463 407.394L49.3164 407.816V408.451L48.2582 409.719L46.5649 410.564V411.41L50.1634 410.142L50.7984 409.296L51.6454 408.874L52.0686 407.817L52.7036 407.606L53.3387 407.394L54.3969 406.548L55.4552 406.126L55.2433 407.394H55.8783L56.7253 406.126L59.0537 405.28L59.2656 404.435L58.8424 403.8L56.9372 405.069L57.1491 403.8L57.7842 403.378L58.8424 402.532L61.1708 401.053L63.923 399.362L65.6163 398.094L65.8282 397.248L64.9812 396.826L65.1931 395.769H65.6163L65.8282 396.826H67.5215L68.5797 395.98L69.6379 395.768L70.4849 395.134L71.5431 394.078H72.3901V394.712L71.8037 395.151L71.7551 395.135L71.5431 395.346L70.9081 396.403L71.5431 397.037V397.883H70.6962L70.4843 397.249H69.8492L68.1559 398.728L68.3678 399.363L69.2148 399.574L69.0413 400.266L67.9446 400.631L67.7327 399.785L66.6745 399.997V401.899L66.0394 401.265L65.1925 401.053L63.7104 401.899L63.4985 402.744L63.9217 403.167V404.435L63.4985 405.069H61.5933L61.3814 406.971L59.6881 406.76L59.4762 408.028L58.2061 408.451L58.1132 408.53L57.7823 408.662L57.2938 409.231L56.724 409.719L56.6875 409.937L56.5121 410.141L56.589 410.525L56.5121 410.986L57.1472 411.62H57.306L57.5704 411.832V412.254L55.8463 413.689L55.6652 413.734L55.0301 414.368H52.2779L52.066 415.425H51.6428L51.4309 416.481H50.1608L49.7376 417.115L49.6198 417.703L49.5257 417.749L49.5821 417.89L49.5257 418.172L49.9489 418.806L49.5257 418.594L48.4675 418.383L48.2556 419.229L47.4086 419.863L46.3504 420.497L45.7153 421.765H46.5623L47.1974 421.342L48.2556 420.92L48.6788 420.497H50.1608L51.0078 419.863L51.3324 418.46L52.1153 417.522L52.5858 417.365L53.9712 417.539L54.3944 418.384L55.2414 418.173V418.143L55.8764 417.962L56.2996 417.539L57.9929 416.483V416.44L58.628 416.06L59.4749 415.638L59.8981 416.906H60.3213L60.1094 415.426L61.1676 415.003L61.1868 414.965L61.5908 414.792L61.3788 415.426V416.694L63.2841 417.117V417.751L62.8609 418.173L63.2841 419.019L64.131 419.865L65.4012 419.653V420.357L64.978 420.498L64.7661 420.92L63.7079 421.766L63.0728 421.555L63.2847 419.652L61.8027 419.441L60.7444 420.497L59.4743 420.286L59.2624 421.131H58.4154L57.9071 421.977H57.3565L56.9334 421.555L56.0864 421.977L55.6632 421.555L54.8163 421.766V423.457L55.8745 423.668L56.0864 424.302L55.4513 424.514L55.2394 425.36L56.5096 425.994L56.9327 425.36L58.2029 424.303H59.2611L59.473 425.149L57.5678 427.263L55.4507 428.108L55.2388 426.84H54.6037L54.1806 427.263L55.2388 428.319V428.953L54.8156 429.165L53.5455 430.644L52.2753 431.067L50.7933 430.01V428.954L50.3701 428.742L49.947 427.686L49.1 427.897L48.8881 428.954L47.618 428.742L47.8299 430.222L46.5597 430.434L46.3478 431.279H45.9362L44.2429 432.336L43.8197 433.604L44.6667 433.815L45.3018 433.181L46.5719 433.604V432.547L48.0539 432.336V432.758H48.9009L49.1128 432.336L48.9009 431.49H50.3829L50.5948 431.702V432.97L49.7479 433.181L49.3247 434.45H50.5948L51.018 433.604L51.865 433.181L52.9232 432.547L53.5583 431.702H54.6165L55.4635 430.856L55.8867 430.01H56.5217L58.0038 429.165L58.8507 427.897L60.544 426.628L62.2373 425.783L63.0843 424.937L65.4127 423.035V422.612H65.8359L67.106 421.767L68.5426 420.476L68.588 420.499L69.2231 419.865L70.9164 418.808L73.0335 416.906L75.1506 415.426L76.6327 413.946L78.0616 412.837L79.1729 412.044L79.2433 411.939L79.3842 411.833L80.2312 410.987L80.9085 410.396L82.3054 409.254L83.8297 408.24L84.7253 407.508L84.8879 407.394L85.4052 407.018L85.523 406.971L85.6638 406.831L87.2163 405.703L88.0633 405.492L87.8513 406.548L85.7342 408.239L84.676 409.296L83.6178 410.141L80.8656 412.466L79.8074 413.522L78.5372 414.579L76.632 416.904L75.9969 417.115L75.15 417.961L74.7268 418.807H74.0917L71.9746 420.497L71.1277 421.554L71.9746 421.766L73.2448 420.92L75.3619 420.074L75.5738 418.594L76.632 418.383L77.0552 417.537L78.3253 416.903L78.4591 416.736L78.5372 416.692L79.5955 415.635L80.6537 414.789L81.0769 413.733H82.347L82.9821 412.676L84.0403 411.62L85.7336 410.351L87.6388 408.449L89.1208 406.759L90.6029 405.49L92.5081 404.434L92.9312 404.222L94.3422 402.954L95.4715 402.108L97.5886 402.32L98.0118 401.898L98.435 401.052H98.8581L103.092 398.727L107.455 396.381L107.537 396.402L108.595 395.768L111.983 393.654L112.333 393.407L112.406 393.442L114.734 391.752L115.324 391.318L115.369 391.329L115.539 391.16L118.757 388.793L118.762 388.778L119.603 388.159L121.932 386.468L126.589 383.509L130.188 381.396L130.994 381.234L131.035 381.396V381.607L130.47 382.311L129.765 382.875L129.588 383.227L129.553 383.087L129.341 383.721H128.918L128.071 384.777V384.848L127.647 385.412L127.224 386.468H125.319L124.896 386.891V388.581L123.414 389.849L122.779 389.427L121.721 389.215L121.297 389.638L121.509 391.54L120.239 392.597L118.334 394.076L116.852 394.288L116.429 394.922L116.006 395.556L114.947 395.768L114.524 395.345L113.677 395.768L113.889 396.824V398.092H113.466L112.408 398.727L110.503 399.149L109.867 399.995L108.809 400.84L108.597 401.686L109.444 401.474L110.926 400.84L112.593 399.546L113.784 398.833L114.737 398.304L115.735 397.64L115.795 397.67L117.277 396.613L117.912 396.191L120.029 394.711L122.569 393.021L122.993 392.386L123.205 392.175L123.235 392.024L123.416 391.752L124.686 390.696L125.956 389.85L127.649 389.639V391.118L127.226 391.964L126.803 393.021H126.38L125.533 393.655L124.051 394.289L123.204 395.134L122.992 395.98L124.05 396.826L123.838 398.094L123.203 397.882L122.991 397.46L121.933 397.248L120.028 398.516L118.123 399.784L115.794 401.687V402.743L112.831 403.166L111.138 404.011L109.232 405.279L106.904 407.182L105.211 408.661L103.517 409.084L102.459 409.506L101.612 410.563L99.9189 412.043L96.7436 415.425L96.3204 416.27H95.8973V416.693L95.2622 416.904L94.2039 417.539L92.0869 418.595L89.5466 420.709L86.5831 423.034L83.6197 425.992L83.1965 426.838H82.7734L81.5032 428.318L79.598 430.432L79.1749 431.488H79.598L79.8016 431.332L80.0212 431.277L81.7996 429.797L82.3502 429.374L82.5621 429.163L85.7374 426.204L87.4307 425.147L86.3725 426.627L84.6792 428.741L83.4091 430.432L81.0807 433.18L81.5039 433.602L82.774 432.545L84.256 431.911V432.334H85.7381L86.5524 431.684L88.1938 430.728L89.1253 430.22L89.1701 430.109L89.3372 430.008L91.4543 428.952L92.3436 428.318L92.7245 428.106L92.9364 427.895L94.2065 427.472L93.5714 428.952L93.1483 429.798H92.7251L91.6669 430.643L91.2437 431.911L90.3967 432.334L88.2796 433.602L87.6446 434.659L86.5863 435.504L84.893 436.984L84.6811 436.138L83.8342 436.561L83.411 437.406H84.0461L83.6229 438.252L81.9296 439.732V440.788L82.1415 441L83.1997 440.788L86.587 438.464L92.5145 434.448L95.2667 432.334L98.0188 429.798L98.442 428.952H98.8652V428.529H99.2883V428.107H99.7115L101.405 426.416L103.295 424.718L103.31 424.726L104.58 423.88L105.638 423.246L106.909 422.4L108.602 421.344L108.632 421.253L108.813 421.132L113.047 418.596L114.317 418.384L113.894 419.441L111.777 421.343L109.448 423.245L106.908 425.781L106.696 426.838H107.331L111.353 424.724L114.106 422.822L116.434 420.92L117.916 419.44L119.609 417.96L121.938 415.424L123.843 413.944L124.478 414.79L125.536 414.578L125.959 413.733L125.112 413.31L125.324 412.676L126.366 411.831H126.382L127.229 411.196L127.418 410.985L128.229 410.321L128.288 410.351L130.019 409.006L132.309 407.392L133.116 406.748L133.156 406.758L135.273 405.067L135.403 404.921L135.485 404.856L136.528 404.003L136.543 404.01L137.231 403.429L137.813 402.953L140.565 400.629L142.47 399.149L143.317 398.515L145.519 396.655L145.858 396.401L147.551 395.133L148.583 394.34L150.091 393.231L151.52 392.161L151.573 392.174L152.632 391.329L153.479 390.483L155.172 389.637L155.384 388.792L156.231 388.158L157.924 387.735L158.136 387.101L158.983 386.678L159.83 386.044V384.988L159.407 384.776L160.042 384.142V384.776L161.1 384.988L161.947 383.931L163.217 383.509L163.429 382.663L164.276 382.451L164.558 382.17L164.699 382.24L165.334 381.394L166.392 380.972L167.874 379.281L168.51 379.07L168.764 378.858H168.933L169.78 378.012L170.203 376.533L171.262 376.321L171.897 375.687L173.167 375.053L173.27 374.745H173.752L174.177 374.533L174.861 374.63L174.438 375.687L173.168 376.955L172.956 377.167L171.121 378.857L169.886 379.914H169.78L169.145 380.548L167.875 382.45L167.69 382.82L167.452 382.662L166.817 383.296L166.605 384.352L166.986 384.733L167.24 385.621L166.605 384.987L166.393 384.916L165.97 384.564L165.123 384.776L164.276 385.832V387.734L163.218 387.946L163.052 388.084L162.794 388.158L162.409 388.618L161.948 389.003L161.975 389.139L161.736 389.425L160.466 390.905L159.408 392.595L159.196 393.652H160.254L160.677 393.864L160.629 393.975L160.627 393.978L160.626 393.983L160.042 395.343L160.088 395.433L160.042 395.554L160.169 395.596L160.254 395.765L160.446 395.688L160.677 395.765L162.583 394.497L163.006 393.44H163.641L163.71 393.406L163.59 393.555L162.532 394.611L162.109 395.457L166.554 392.498L166.989 392.25L166.393 393.44L164.7 395.554L164.065 396.188L163.218 397.879L161.736 397.667L161.101 398.09L160.325 398.794L159.619 399.358L159.393 399.64L158.772 400.204L158.667 400.626L158.561 400.415V401.049L158.984 401.26V401.894L158.561 402.106L157.503 402.318L157.291 401.895H156.656L155.598 402.741L153.692 404.431L151.999 405.699L149.036 407.813L147.342 408.659L146.284 410.773L144.591 411.618L143.109 412.886L141.627 414.789L141.839 415.634L143.109 415.212L145.226 413.521L146.157 412.761L147.949 411.393L147.978 411.408L152.423 408.026L155.599 405.701L157.151 404.715L158.562 404.011L160.377 402.743H160.467L161.526 401.897L162.965 400.819L163.007 400.84L164.15 399.952L165.547 398.938L168.935 396.19L171.052 395.134L171.184 395.001L172.534 394.288L172.908 395.034L172.907 395.036H172.909L172.958 395.133L174.016 395.345L174.228 396.824L175.075 397.247L176.133 397.035L177.826 394.921L178.038 394.076L175.921 394.287L176.192 393.611L178.411 392.078L180.316 390.598L181.798 388.907L182.381 388.325L182.484 388.581L182.907 390.061H183.965L184.6 389.004V387.736L184.812 386.257L184.542 386.167L186.032 384.68L187.514 382.99V381.617L187.564 381.606L189.046 380.338L192.01 378.436L193.492 377.802L195.185 376.534L196.667 374.843L197.725 374.632L198.148 373.998L198.995 373.152L199.419 372.94L201.165 371.355L201.298 371.241L201.324 371.249L202.248 370.442L204.303 368.864L206.616 367.233L206.678 367.158L207.463 366.599L209.791 364.697L212.543 362.372L215.507 359.836L217.624 358.145L218.259 357.723L220.164 356.454L221.434 355.609L224.186 353.495L226.303 352.227L226.515 353.283L227.221 353.142L226.888 353.398L226.253 353.926L223.947 355.735L223.924 355.723L223.077 356.357L222.586 356.802L221.807 357.414L220.143 358.908L220.113 358.893L219.996 358.993L219.741 358.355H218.471L217.836 358.778V359.2H217.412V359.623H216.989V360.045H216.566L216.354 360.468L215.931 361.524L216.506 361.955L215.88 362.484L213.763 364.175L212.916 364.9L212.493 365.232L211.985 365.697L210.799 366.711L210.856 366.73L210.696 366.876L210.588 366.923L209.953 367.557L209.53 368.403H210.165L211.435 367.769L211.943 367.515L212.07 367.557L213.552 366.711L217.404 363.635L217.413 363.638L219.106 362.582L221.011 360.891L221.054 360.68L221.173 360.583L222.655 359.737V360.371L223.502 360.583L224.137 359.737L224.56 358.681L223.925 358.258V357.836L224.259 357.645L224.187 357.932L225.246 357.51L226.093 356.664L225.913 356.485L226.254 356.145L226.728 355.767V356.031H227.151L229.268 354.551L232.02 352.437L235.407 349.901L236.889 349.055L239.007 347.364L240.065 346.942L241.758 345.885L243.875 344.406L245.357 343.56L245.78 342.714L246.627 342.503L247.474 342.291L247.898 341.657L249.591 340.811L249.168 341.868L247.474 342.502L247.051 343.559L245.993 344.404L244.3 345.884L243.241 346.73L240.913 348.209L240.021 348.963L239.592 348.535H238.534L238.322 348.747L237.475 350.015V351.048L235.621 352.437L232.868 354.551L224.401 360.892L222.284 362.582L219.956 364.273L219.109 365.329L219.532 366.175L220.379 365.964L221.437 365.541L221.225 366.387L220.59 366.809L218.897 368.289L218.262 368.923L216.992 369.346L216.569 370.402L213.605 372.938L210.853 375.263L208.525 377.165L205.772 379.279L203.444 381.181L200.481 383.718L198.152 385.62L194.765 388.368L191.802 390.482L189.049 392.806L186.721 394.709L186.54 394.859L186.086 395.131L184.498 396.558L184.181 396.822L183.63 397.272L183.546 397.244L181.852 398.724L180.37 400.204L179.327 401.056L179.312 401.049L178.042 402.106L175.578 404.039L175.663 403.911L175.24 403.488L174.605 403.911L174.482 404.055L174.393 404.122L174.347 404.216L173.442 405.285L172.912 405.813L172.829 406.008L172.278 406.659L172.217 406.903L169.365 409.081L167.46 410.56L161.532 415.211L159.415 416.901L158.145 417.535L157.51 419.015L155.181 420.495L153.488 422.397L152.43 423.454L152.218 424.299L153.911 423.454L154.97 423.242L155.393 421.974L158.145 419.86L158.568 418.803L159.203 418.169L161.108 416.901L163.225 415.211L164.919 413.942L168.517 411.195L171.057 408.87L172.116 408.236L172.646 407.795L172.912 407.928L173.547 407.082L173.6 407.002L176.984 404.22L179.313 402.529L180.795 402.318L181.007 401.261L184.817 398.302L185.875 397.246L186.934 396.4L187.992 395.554L189.05 395.132V396.4L189.262 396.822L190.109 397.879L190.201 398.155L189.211 398.839L187.518 400.53L187.095 401.375H186.672L184.978 402.432L183.708 403.912L181.168 405.391L179.051 407.082L176.723 408.984L174.394 411.098L172.489 412.578L171.642 414.48L171.007 415.114L170.372 417.016V417.862H171.43L172.277 417.228L173.472 416.499L173.597 417.748L173.174 418.382L172.327 418.593L171.692 418.171L170.845 417.959L169.998 418.805L169.786 420.707L170.844 422.821H171.267L171.691 421.975L172.326 422.187L172.538 424.511L172.961 426.625L174.019 426.837L174.442 426.414H175.5V426.837L176.135 427.893L175.924 428.95V430.43L176.559 431.909L177.406 432.332L178.041 431.275V429.796L177.829 428.95L177.617 427.682L178.252 426.202L178.04 424.722L176.982 423.877L175.288 420.918L175.077 418.593V416.691L175.288 415.634L175.327 415.366L176.085 414.904L178.625 412.79L182.012 410.676L186.035 406.66L187.305 405.815L188.998 404.546L191.327 403.49L193.655 401.376L195.137 399.262L197.254 397.572L199.794 396.303L200.429 395.035L202.335 393.979L203.182 392.71L204.452 392.288L204.758 391.219L205.349 392.596L206.196 392.384L206.408 391.328L205.973 390.135L206.358 389.752L208.051 388.906L209.956 387.638L212.496 385.524L213.555 383.622L215.672 382.776L216.73 381.508L217.577 381.086L218.635 380.24L220.328 379.183L220.963 377.915L221.599 377.704L222.022 377.07L223.504 376.435L224.139 375.167L224.986 374.533L226.256 372.843L227.526 371.997L228.373 371.151L229.643 370.095L231.76 368.615L232.819 366.713L233.007 365.958L233.441 365.753H233.504L234.774 365.119L235.626 364.599H235.783L235.756 364.52L238.585 362.794L242.608 360.258L246.63 357.721L252.134 354.128L254.462 352.649L255.914 351.796L255.943 351.804L257.426 350.958L257.733 350.727L258.061 350.535L259.119 349.689L259.966 349.055L261.109 348.167L262.247 347.341L262.294 347.364L264.157 346.012L265.258 345.251H267.375L268.222 344.617L268.412 344.363L268.857 343.983L269.28 343.208L269.492 342.927L269.583 342.655L270.127 341.658L271.185 341.024L272.455 341.447H274.149L274.36 341.024V338.901L276.266 337.633L277.709 336.768L277.748 336.787L281.346 334.673L282.458 334.039H282.616L285.58 332.56L285.668 332.471L285.829 332.395L286.376 333.097L287.223 333.309L288.07 331.618L288.034 331.364L292.777 329.39L293.286 329.136L294.683 328.544L297.858 326.853L299.199 326.008L301.668 324.528L301.88 324.317L305.51 322.203L308.068 320.772L310.56 319.456L310.137 320.09L308.655 322.626L307.385 324.106L305.268 325.796L302.939 327.276L300.187 329.178L299.552 329.742L299.129 330.024L297.435 331.504L295.953 333.194L295.742 333.406L295.53 333.617L293.624 334.886L289.602 337.21L289.39 338.267H291.083L292.566 337.633L292.936 337.342L293.201 337.21L296.327 334.673H296.376L296.799 334.356L298.281 333.617L299.339 333.194L299.445 333.089L300.61 332.56L303.573 330.446L305.266 329.178L308.23 327.064L310.347 326.219L310.982 325.585L312.252 324.739L314.369 324.527L315.216 323.893L316.698 322.414L318.18 319.666L319.45 317.552L319.601 317.28L320.085 316.495L320.124 316.341L320.509 315.65L321.567 314.382L324.107 313.113L326.012 312.268L328.976 310.577V310.527L329.611 310.155L329.671 310.094L331.304 309.097L334.691 307.618L335.114 306.772H334.267L332.15 307.195L330.14 307.617H329.822L328.129 308.04L325.588 308.885L324.326 309.065L324.469 308.493L324.671 308.04L325.377 306.983L327.917 306.56L328.764 305.926L330.034 303.602V300.854L329.611 299.586L329.526 299.501L329.4 299.163L328.805 296.59L328.926 296.53L332.736 294.206L336.758 291.669L340.781 289.133L346.285 285.54L348.613 284.06L350.065 283.208L350.094 283.215L351.576 282.37L351.884 282.139L352.211 281.947L353.27 281.101L354.117 280.467L355.26 279.579L356.398 278.753L356.445 278.776L358.308 277.424L359.408 276.663H361.526L362.372 276.029L362.563 275.775L363.008 275.395L363.431 274.62L363.643 274.338L363.734 274.067L364.278 273.07L365.336 272.436L366.606 272.859H368.299L368.511 272.436V270.322L370.416 269.054L371.859 268.189L371.898 268.208L375.496 266.095L376.608 265.461H376.766L379.73 263.981L379.818 263.893L381.847 262.924L386.928 260.81L387.436 260.556L388.833 259.964L392.008 258.274L393.349 257.428L395.819 255.948L396.03 255.737L399.659 253.623L402.218 252.192L404.71 250.876L404.286 251.51L402.804 254.046L401.534 255.526L399.417 257.216L397.089 258.696L394.336 260.598L393.701 261.162L393.278 261.444L391.585 262.924L390.103 264.614L389.891 264.826L389.679 265.037L387.774 266.306L383.752 268.63L383.54 269.687H385.233L386.715 269.053L387.086 268.762L387.35 268.63L390.477 266.093H390.525L390.949 265.776L392.431 265.037L393.489 264.614L393.595 264.509L394.759 263.98L397.722 261.866L399.416 260.598L402.379 258.484L404.496 257.639L405.131 257.005L406.402 256.159L408.519 255.948L409.366 255.313L410.848 253.834L412.33 251.086L413.6 248.972L413.751 248.7L414.235 247.915L414.273 247.761L414.658 247.07L415.716 245.802L418.257 244.534L420.162 243.688L423.125 241.997V241.947L423.76 241.574L423.82 241.514L425.454 240.517L428.841 239.038L429.264 238.192H428.417L426.3 238.615L424.289 239.037H423.972L422.278 239.46L419.738 240.305L418.475 240.486L418.619 239.913L418.821 239.46L419.526 238.403L422.066 237.981L422.913 237.346L424.183 235.022V232.274L423.76 231.006L423.676 230.921L423.549 230.583L422.914 227.835L422.067 227.413L420.423 226.816L420.373 226.779L418.831 226.145L416.563 225.088L416.351 224.242L417.409 223.608L418.044 221.918L417.832 221.072L416.562 220.86L415.857 221.847L415.451 222.353L414.657 222.551L414.445 221.705L413.81 221.494L412.963 222.128L411.693 222.55L411.481 222.128L411.693 220.014L412.116 218.958L412.17 218.58L412.327 218.535V217.479H411.904L410.634 218.324L408.941 218.747V218.324L408.729 217.902L408.517 217.056H407.882L407.458 217.479L407.035 218.535L406.4 219.592L405.342 219.803L404.707 216.633L404.284 216.21L402.802 215.576L401.955 214.942L401.108 214.52L401.32 213.886L401.955 213.674L403.013 213.322L403.436 213.252L404.918 212.688L405.13 212.617L405.457 212.483L407.882 211.561L408.729 211.138L411.27 209.87L412.116 209.448L413.527 208.602L414.656 207.968L414.762 207.863L415.291 207.546L418.89 205.855L419.948 205.009L421.43 202.05L421.642 201.628L421.566 201.099L421.642 200.571L421.007 199.091L420.16 196.977L419.834 196.717L419.736 196.555L419.345 196.327L419.1 196.132L418.942 196.093L417.195 195.076L415.078 193.596L414.02 192.539L413.173 190.637L411.268 190.849L409.997 190.215L407.457 187.678L405.129 186.41L403.224 184.296L401.742 183.874L401.107 183.24L399.836 181.337L398.778 181.126L398.143 181.548H396.661V180.28V178.166L395.391 176.264L394.121 175.419L392.427 174.784H387.559L386.077 174.573L385.019 174.15L384.807 173.728L389.04 172.037L395.602 169.713L400.895 167.176L403.435 166.12L408.092 165.274L409.15 164.428V164.393L409.362 164.217V162.949L408.939 162.526L407.034 162.104H405.552L404.917 162.315L401.107 162.527L401.53 161.47L401.914 161.265L401.953 161.259L404.705 159.779L411.268 157.031L413.098 156.16L413.173 156.185L415.713 154.917L417.83 154.283L419.735 153.649L419.947 152.803H418.889L417.157 153.322L414.867 153.861V153.871L414.02 154.072L408.94 155.763L404.283 157.665L400.684 158.722L398.567 159.144L384.807 159.778L383.96 159.99L383.325 160.624L381.42 162.949L379.515 164.851L377.822 166.331L376.339 166.753L376.551 165.062L377.186 163.16L378.668 161.046L381.421 158.299L383.961 155.974L384.649 155.393L385.231 154.917L385.271 154.867L386.713 153.649L389.253 151.747L392.852 148.999L395.18 146.674L397.085 144.56L398.356 142.236L399.626 138.431L400.231 138.371L400.473 138.431L401.743 138.22L403.013 137.163V135.895L402.59 135.472L400.473 135.684V134.838V131.88L400.685 130.4L401.532 129.977L401.814 129.695L402.379 129.343L402.238 129.273L402.379 129.132L402.026 129.167L401.955 129.132L400.262 129.344L399.839 128.498H399.204L398.357 130.4L397.51 131.457L394.758 131.669L394.123 131.035V129.555L394.546 129.343L400.05 127.018L403.648 125.116L408.094 123.002L412.584 121.337L412.75 121.312L415.502 120.255L416.83 119.621H416.984L419.947 118.141L419.945 118.134L420.37 117.93L424.181 115.817L427.779 113.492L429.665 112.214L429.685 112.224L433.707 109.476L435.111 108.816L435.189 108.842L436.106 108.348L437.306 107.785L437.337 107.759L437.729 107.574L437.877 107.397L437.941 107.362L437.922 107.343L438.115 107.112L438.576 106.728V106.559L438.788 106.305L439 105.037L437.942 104.825L435.601 106.102ZM374.212 46.9216H374.847L375.27 47.5557L375.482 49.0354H374.635L373.788 48.4014L373.576 47.5557L374.212 46.9216ZM370.825 47.3448H371.037L371.249 47.9789H370.614L370.825 47.3448ZM121.085 170.028L120.027 171.296L118.757 171.507V170.873L119.603 170.028L120.027 169.182H121.085V170.028ZM127.224 168.759L126.589 169.394L125.742 169.182L126.589 168.336H127.224V168.759ZM129.764 167.28L128.706 167.491L129.129 166.646H129.764V167.28ZM85.3098 233.857L85.2112 233.956L84.6242 233.76L84.201 234.606H84.5832L83.8284 235.548L83.2593 235.832L83.3547 235.451H82.8009L82.9814 233.646H84.4635L85.3104 233.434V233.857H85.3098ZM87.215 232.166L87.1644 232.217V231.647L86.7413 231.859V232.282H87.1004L86.2624 233.118L85.733 233.435L85.5211 232.166L86.119 231.688L87.2144 231.532V232.166H87.215ZM67.7398 282.892L66.2577 284.794L65.1995 284.583L65.4114 283.948L67.1047 282.469H67.7398V282.892ZM24.7677 349.892L24.5558 350.314L24.1326 350.737H23.9207L22.6506 352.005L21.3804 353.168L20.5335 353.907L20.1103 354.33L19.0521 355.386L17.1469 356.654L17.1661 356.616L17.3588 356.443V356.231L17.5707 355.809L19.8286 353.554L19.899 353.695L23.9213 349.679L24.9796 349.045L24.7677 349.892ZM27.6255 351.582H27.5198V351.16H27.8374L27.6255 351.582ZM31.1184 349.892V350.314H29.8482L30.6715 349.258H31.1184V349.892ZM33.4467 348.412H32.3885L31.5415 348.835V348.201L32.5998 347.355L33.658 347.566L33.4467 348.412ZM34.9288 346.932H34.5056V346.51H34.9288V346.932ZM34.9288 346.087H34.2937L34.7169 345.242H35.14L34.9288 346.087ZM48.6884 331.715L48.9707 331.433L49.3234 331.293L52.4988 328.122L54.1921 326.643L55.525 325.179L56.3092 325.374L56.0973 326.431L54.1921 328.122L52.4988 329.601L50.8055 330.87L49.7472 331.292V331.715L49.4297 331.926H49.3241L48.2658 332.56L48.6884 331.715ZM59.6958 327.065L58.8488 327.488L58.0019 328.544L56.0966 330.024L53.5564 331.715L51.0161 333.828L49.1109 335.096L46.9938 336.787L44.4535 338.689L41.2782 341.014L39.5849 342.916L38.3147 342.494L38.5266 342.071L39.7968 341.226L40.6437 340.169L42.1258 338.901L44.031 336.576V336.217L44.2429 335.942L45.0899 335.52V335.097L46.36 334.675L45.0899 336.154L45.7249 336.366L46.1481 335.943H46.36L46.4656 335.626L46.5713 335.521L47.8414 334.887L49.1115 333.83L51.2286 332.14L52.9219 330.66L54.8272 329.392L57.5793 327.912L58.8495 326.432H59.6964V327.065H59.6958ZM59.4845 322.204V321.57L61.1778 319.879H61.601L61.3891 321.147L60.5421 322.204H59.4845ZM62.448 324.74L62.2361 325.163L61.1778 325.374L60.9659 324.106L61.8129 323.472H62.448V324.74ZM61.8129 352.005L59.0607 354.541L59.2726 353.273L60.1196 352.639L62.0248 351.582L61.7899 351.465L61.9403 351.371H62.4486L63.2956 350.737L61.8129 352.005ZM67.3166 345.242H66.2584V345.876L65.6233 346.298L64.7763 346.51V345.664H65.1995L66.2577 345.242V344.396L67.316 344.184L67.4139 344.071L67.7398 344.396L67.3166 345.242ZM74.9374 338.69L73.8792 339.536L73.9848 339.589L73.9464 339.623L73.6673 339.747L72.6091 340.593L72.4637 340.956L72.3978 341.015L72.1859 341.121L71.974 341.015L70.0688 342.072L69.0106 342.706L69.1693 343.657L69.0106 343.974H67.5285L68.5868 342.706L70.7039 340.804L70.668 340.696L70.8914 340.533L71.1277 340.592L72.579 339.505L73.0329 339.324V339.166L73.6679 338.69L75.785 337.422L75.536 337.36L75.785 337.211L76.1237 336.957L75.9969 337.211L76.4201 336.999L77.2671 336.788L74.9374 338.69ZM57.3674 414.778L56.0973 415.2L55.8854 415.623L55.0384 416.679V416.257L54.9962 416.383L54.9232 415.872L54.968 415.693L55.2503 415.411L55.8854 415.199V415.129L56.3085 414.988L56.7317 413.72L57.5787 413.508L57.7906 413.086L58.0255 412.968L58.2138 413.72L57.3674 414.778ZM61.3897 423.021L61.0933 423.317L60.9666 422.809L61.3897 422.598V423.021ZM61.3897 410.762V411.818H61.1778H60.9659L59.6958 411.607L59.9077 410.761L60.5428 410.55L61.3897 409.845V410.339L62.0248 410.55L61.3897 410.762ZM62.448 412.03L62.0248 411.889V411.607H62.448V412.03ZM64.7763 416.046L64.0619 416.759L63.5062 416.68L63.9294 415.2H62.8711V413.51L63.2521 413.256L63.5062 413.51V414.989L64.7763 415.201V416.046ZM67.7398 411.607L67.1284 412.218L66.4696 412.03L66.2577 411.184L65.382 411.913L65.1995 411.184L63.9294 412.241H63.2943H63.0824V411.607H64.1406L64.3263 410.493L64.987 410.399V410.55L66.469 410.339L66.8153 409.878L67.7391 410.339V411.607H67.7398ZM70.492 409.071L69.4997 409.269L69.4337 409.071L69.3831 409.081L69.2218 408.437H69.645L70.492 408.649V409.071ZM71.5502 414.778V414.566L71.6411 414.506L71.5502 414.778ZM73.2941 411.406L73.2435 411.396L73.4048 410.752L73.4554 410.762L73.2941 411.406ZM74.3024 408.437L73.4554 408.531V407.803L73.6436 407.709L74.3024 407.803V408.437ZM75.7844 410.339L75.7313 410.353L75.1493 409.917V409.547L75.7844 409.705V410.339ZM75.7844 406.958L75.5424 407.079L75.3612 406.958L75.5174 406.491L75.785 406.536V406.958H75.7844ZM77.6896 408.649L77.1455 409.011L77.0546 408.649L77.6896 408.522V408.649ZM78.1128 407.592V407.381L78.5744 407.073L78.7478 407.592H78.1128ZM129.764 392.585L128.706 393.431H128.071L128.283 392.585L129.341 391.529L129.302 391.509L129.318 391.495L129.653 391.362L129.745 391.375L129.976 391.529L129.764 392.585ZM130.282 394.746L130.188 394.276L130.258 394.206L130.399 394.276L130.282 394.746ZM130.188 388.781V388.147L129.341 387.936L129.235 387.619L129.341 387.302L130.163 386.618L130.823 387.936L130.188 388.781ZM324.667 294.728L324.361 294.585L324.889 294.209L327.217 292.518L327.64 292.73L326.158 294.209L325.946 294.421L325.458 295.054L324.667 294.728ZM324.444 290.57L323.639 291.145L323.881 290.501L323.669 289.655L323.407 289.612L324.45 288.831L324.093 290.078L324.444 290.57ZM209.358 357.712L209.146 357.782V357.606L209.358 357.712ZM208.088 358.768H207.816L208.012 358.616L208.088 358.768ZM82.3463 325.163L83.1933 325.585L82.9814 326.219L82.1344 326.008L82.3463 325.163ZM80.6531 327.476V327.277L80.8592 327.247L80.6531 327.476ZM81.8822 327.137L81.7497 328.064L81.2811 327.908L81.8822 327.137ZM91.0254 312.27H91.4486L92.9306 312.482L93.3538 313.116L92.7187 313.75H91.0254V313.962L89.7553 313.75L89.5434 312.904L91.0254 312.27ZM89.4377 310.474L89.3321 310.579L88.4851 310.367L89.1906 308.607L89.5434 308.254H89.9665V309.945L89.8609 310.05L89.5434 310.156L89.4377 310.474ZM93.944 303.423L93.9389 303.427V303.403L93.944 303.423ZM101.61 246.75L101.364 246.847L101.61 246.603V246.75ZM101.136 254.684L100.771 255.413L100.763 255.415V254.569H101.251L101.136 254.684ZM257.411 332.138L256.988 333.406L255.718 333.617L255.646 333.327L255.668 333.309L257.108 332.232L257.15 332.253L257.412 332.049V332.138H257.411ZM251.484 337.21L250.214 337.844V336.813L250.458 336.657L250.426 336.788H251.273V336.14L251.292 336.128L252.655 335.447L252.754 335.942L251.484 337.21ZM97.1642 304.873H96.5291V304.239H96.9523L97.1642 304.873ZM107.537 253.936H107.96L108.172 254.782H107.749L107.537 253.936ZM172.525 147.648L173.404 146.99H174.007L173.584 147.624L172.525 148.047L172.525 147.648ZM244.922 94.9964L243.864 96.0529L243.46 96.4563L243.602 95.3217H244.025L244.872 94.6876L246.675 93.4272L246.616 93.516L244.922 94.9964ZM236.297 100.883L236.807 100.491H236.877V100.437L238.309 99.3377L240.214 98.0696L241.907 96.8014L242.962 96.9517L242.381 97.532L242.169 97.7436V98.1431L241.957 98.3777L239.84 100.28L236.877 101.76L236.03 101.548L236.297 100.883ZM311.129 283.852V284.275L310.792 284.563L310.917 284.063H310.282L309.602 284.572L309.357 284.467L310.281 283.851L310.418 283.681L310.643 283.516L310.705 283.64L311.129 283.852L311.341 283.006L311.553 283.64L311.659 283.676L311.129 283.852ZM312.188 282.584L312.4 282.161L312.463 282.035L312.561 281.979L312.824 282.373L312.633 282.658L312.188 282.584ZM102.01 297.253L101.61 297.053L102.199 296.317L102.489 296.028L102.88 296.418L102.149 297.149L102.01 297.253ZM254.518 334.155H254.609L254.66 334.115V334.886L253.602 335.097L253.549 334.833L254.518 334.155ZM258.292 331.365L258.749 331.033L258.893 331.081L258.682 331.927L257.84 331.716L258.292 331.365ZM100.551 268.308H100.192L100.491 268.01L100.551 268.308ZM95.0477 311.425L95.4286 311.044L95.524 311.002H96.3179L96.9529 310.58L98.1731 309.884L98.3185 309.859L97.5374 310.483L94.816 312.573L94.6546 311.606L94.7302 311.531L95.0477 311.425ZM94.8358 302.759L94.6239 302.125H94.8358V302.759ZM84.2516 324.106H84.4635L85.5217 324.318L85.2042 325.269L84.8866 325.586L83.6165 324.74L84.2516 324.106ZM91.4492 320.724L91.8724 319.879H92.1809L91.8218 320.416L91.4966 320.701L91.4492 320.724ZM100.058 308.654L100.658 308.254H101.398L101.187 309.1L100.544 309.207L100.29 309.003L100.003 309.051L100.128 308.677L100.058 308.654ZM239.418 342.283H239.841L240.645 341.747L240.425 342.186L239.418 342.689V342.283ZM330.604 31.9154H331.027V31.4929L332.086 30.6472L333.779 29.1675L336.531 27.0537L337.369 26.481L337.801 26.4196L339.283 25.363L341.189 24.3065L340.765 24.9405L339.072 26.4203L338.014 27.4768L336.532 28.9566L336.32 29.1681V29.5676L336.108 29.8022L333.991 31.7044L331.027 33.1842L330.181 32.9726L330.604 31.9154ZM266.675 79.0479L267.522 78.4139H268.157L267.734 79.0479L266.676 79.4705V79.0479H266.675ZM258.631 84.7546L262.018 82.4299L264.347 80.9502L264.135 81.3727L261.806 83.2749L258.843 85.5996L258.192 86.1187H256.808L258.631 84.7546ZM168.747 130.049L168.503 130.292L167.067 131.368L168.029 130.407L168.747 130.049ZM166.81 131.561L165.464 132.546L165.912 132.098L166.81 131.561ZM157.021 138.016L157.868 136.748L158.927 136.326V135.692L159.35 135.269L160.197 135.481L159.985 136.326L158.927 136.96L157.633 138.436L157.495 138.536L157.38 138.65H157.021V138.016ZM133.574 166.857L134.421 166.435L134.633 166.857L133.998 167.491L133.151 167.703L133.574 166.857ZM134.633 169.605H133.575L133.363 169.394L133.786 168.548H134.844L134.633 169.605ZM136.75 167.914L135.691 168.125L135.903 167.28H136.75V167.914H136.75ZM136.962 165.167H136.327L136.962 164.533H137.385L136.962 165.167ZM146.699 159.037L145.852 159.46V158.826L146.275 158.403H146.698V159.037H146.699ZM95.2596 234.069L95.6828 233.646L96.3179 233.858L96.106 234.492L95.259 234.703V234.069H95.2596ZM90.6023 224.558H91.0254V225.192L90.3903 225.403L90.6023 224.558ZM96.741 262.813L95.8941 263.236V262.813H96.106L96.378 262.451L96.5714 262.306L96.741 262.39V262.813ZM98.0112 261.545L97.1642 261.967L97.3761 261.122H98.0112V261.545ZM101.398 260.277L101.187 260.488V260.277L100.975 260.488L99.9164 260.911L99.7045 260.488L100.128 259.432H101.398V260.277H101.398ZM103.939 258.586L103.516 259.009H102.457L102.245 257.952L102.88 257.318L103.939 257.53V258.586ZM105.844 257.74V257.106L106.267 256.684H106.69L106.478 257.74H105.844ZM93.3544 299.166L94.8365 298.955L95.3307 298.626L95.8953 298.532V298.891L95.613 299.214L94.6252 299.378L93.567 300.434H93.7789L92.2968 300.646L92.0849 300.012L93.3544 299.166ZM74.7255 295.573L77.689 293.036L77.625 293.005L77.9585 292.748L78.1128 292.825L78.9597 292.191V292.825L78.7056 292.909L78.5359 292.825L78.324 293.036L76.3484 294.727L75.5725 295.361L75.4669 295.482L75.3612 295.573L75.2025 295.784L74.8619 296.173L74.303 296.629L73.2448 297.052L74.7255 295.573ZM64.9882 322.204L64.3532 322.627L63.93 322.415L64.3532 321.569H64.9882V322.204ZM68.3749 320.936L67.1047 321.358L66.2577 322.627H65.8346L66.0465 321.358H65.6233V320.724L66.0465 319.879L67.7398 318.61H68.1629L68.5861 319.245L69.0093 320.301L68.3749 320.936ZM72.3972 316.709L72.1853 315.863L73.0322 316.075L72.3972 316.709ZM77.4777 313.115L76.6307 313.327L76.8426 312.481H77.6896L77.4777 313.115ZM85.5217 307.409L83.8284 308.889L83.0442 309.847L81.5 311.003L80.4418 311.214V309.312L80.0186 309.101L79.5955 308.255H79.1723L77.2671 309.523L77.1967 309.593L76.8439 309.734V309.946L76.632 310.157L74.7268 311.425L74.3036 312.271L72.8216 312.483L71.1283 313.751L69.0112 314.173L68.3761 314.596L67.7411 316.075L66.6828 315.441L66.5561 315.484L66.4716 315.441L66.0484 315.653L64.9902 316.921V318.189L63.5081 318.401L63.2962 317.767L64.1432 316.921L65.8365 315.441L66.8947 314.173L66.7987 314.077L66.8947 313.962L69.0118 312.694L71.1289 310.58L73.2461 308.89L75.3632 307.833L75.5751 307.411L76.422 306.565L76.2633 306.512L76.422 306.353L77.9041 306.776L80.0212 304.874L79.8733 304.824L80.6262 304.24H80.8682L81.7151 303.605L82.9853 302.76V302.718L83.8322 302.126L84.2132 301.745L84.4673 301.809L84.8905 302.126L86.1606 301.703L86.3725 300.647H86.7957L87.0076 300.013L88.2777 299.801L88.4365 299.643L89.7598 299.379L89.5479 300.435L87.0076 302.126L85.7374 303.605L84.6792 304.24L81.927 305.93L81.7151 306.776L83.4084 306.564L83.6203 307.41H84.4673L84.8905 307.229L85.1024 307.199L85.1261 307.129L85.9493 306.777L85.5217 307.409ZM87.8501 305.084H86.7918L85.7336 304.872L86.1568 304.027L87.8501 303.181L88.062 302.759L89.1202 302.336L89.5434 301.914L91.2367 300.857H91.6598L91.8717 301.914L91.2367 302.336L90.8135 303.393L91.8717 303.604V302.97L92.2949 302.759H93.7769L93.9088 303.287L93.3026 303.085L92.8794 303.507L92.9825 303.815H92.0836L91.6605 304.661L91.6438 304.674L91.8218 304.142H91.3986L90.9755 304.564L91.5446 304.753L90.6285 305.485L88.9089 305.295V304.661L89.544 304.238L90.1791 303.182L88.697 304.027L87.8501 305.084ZM79.5942 320.09L80.6524 319.034L82.1344 317.977L83.1927 317.555L84.2509 316.92L85.9442 315.864L86.5793 314.807L88.2726 314.385L88.3782 314.596L88.4838 315.019L89.5421 315.441V316.075H88.907L88.2719 316.921L87.8936 318.622L87.6369 318.823H87.0025L86.7906 317.767L85.7323 318.189L85.5915 318.471L85.5211 318.506L85.3092 318.401L85.0972 318.612L84.6741 319.881H84.2509L82.5576 320.726L82.3457 321.36L81.4987 320.938L79.3816 320.726L79.5942 320.09ZM77.9009 330.447V330.025L78.324 329.602H78.5359L78.9591 329.18L79.7824 329.344L79.7555 329.505H80.1486L80.4411 330.235L79.5942 330.658L77.9009 330.447ZM132.516 390.895L131.769 391.492L131.246 391.318L131.458 390.472L132.305 389.838L132.142 389.757L132.305 389.627L132.517 389.839V390.895H132.516ZM132.939 380.327L132.22 381.045L132.093 380.538L132.94 379.904V380.327H132.939ZM135.586 399.772L135.513 399.479L135.673 399.426L135.586 399.772ZM136.78 378.304L136.75 378.213L136.83 378.108L136.78 378.304ZM153.918 385.801L153.904 385.8L154.038 385.399L154.108 385.611L153.918 385.801ZM164.793 392.489L165.116 391.951L165.125 391.945L164.853 392.489H164.793ZM177.767 389.952V390.375H177.343V390.797H176.92L176.305 391.412L175.489 391.528L175.701 390.682L177.818 388.992L178.2 388.722L178.826 388.472L178.614 389.106L178.19 389.952L177.767 389.952ZM195.175 369.548L194.721 370.152L194.963 369.548H194.54L192.847 370.604V371.027H192.424L191.154 371.872V372.295H190.731L190.519 372.717L190.942 373.14L193.059 371.872L194.096 370.984L193.905 371.238L192.847 372.294L190.73 373.774L188.613 375.465L187.978 376.521L186.708 377.155L184.553 378.538H183.058L180.518 380.017L180.468 380.012L181.345 379.339L182.897 378.212L183.744 377.367L184.083 377.197L184.591 377.367L184.697 377.155H184.802L185.226 375.887L186.284 375.041L188.612 373.351L191.152 371.448V371.4L191.364 371.238L191.273 371.147L192.677 370.096L192.846 370.18L195.175 368.278L195.109 368.212L195.414 367.975L195.599 368.067L195.698 367.98L195.175 369.548ZM216.979 352.428V352.851L216.642 353.139L216.767 352.639H216.132L215.285 353.273L215.083 354.284L214.439 354.541L214.185 355.049L213.592 354.964L213.243 355.277L212.533 355.175L210.628 356.866L210.416 358.98L209.993 359.402L208.299 360.036L205.759 361.727L202.584 364.263L201.737 364.686L201.314 364.897L200.255 365.954L197.927 367.856L197.861 367.87L197.716 367.434L196.869 367.645L196.763 367.857L196.657 367.645H196.083L197.292 366.589L197.239 366.536L198.404 365.585L199.198 365.109L200.185 364.287L200.044 364.475H200.679L201.199 364.129L200.891 364.475L201.738 364.686L204.278 362.573L208.512 359.191L210.205 358.345V357.288L209.824 357.098L211.264 356.02L214.016 353.907L215.074 353.132L216.133 352.427L216.269 352.257L216.494 352.092L216.556 352.216L216.979 352.428L217.191 351.582L217.403 352.217L217.508 352.252L216.979 352.428ZM218.482 351.233L218.038 351.159L218.25 350.737L218.313 350.61L218.41 350.555L218.674 350.948L218.482 351.233ZM248.732 338.901L247.885 339.958L246.192 341.014L244.075 342.494L242.17 343.974L238.994 346.087L234.761 349.469L232.432 351.372L229.844 353.218L231.747 351.697L232.309 351.239L232.382 351.275L234.075 349.795L234.922 348.316L235.345 347.259H234.71L234.075 347.681V348.104H233.652L233.017 348.633L231.747 349.584L231.676 349.689L230.943 350.239L230.901 350.218L229.842 351.063L229.769 351.151L228.713 351.979L227.68 352.773L227.987 352.006L226.929 351.794L227.141 351.372L228.623 350.315L232.01 347.99L235.82 345.454L237.302 344.186L237.758 343.867L237.252 344.301L235.77 346.203L235.982 347.049L237.252 346.626L239.369 344.936L240.3 344.175L242.092 342.808L242.121 342.822L246.567 339.44L248.243 338.213L248.31 338.48H248.734V338.901H248.732ZM248.732 338.056V337.852L249.475 337.308L249.367 337.844L248.732 338.056ZM223.542 362.784L224.6 361.728L227.352 359.614L230.739 357.078L233.491 355.175L235.608 353.696L237.556 352.649L237.638 353.302L237.091 353.484L235.82 354.964L233.703 356.444L230.528 358.98L227.564 361.094L225.236 362.784L223.342 363.988L223.542 362.784ZM222.059 364.475L221.914 364.911L221.848 364.897L222.059 364.475ZM226.031 370.508L224.126 371.987L222.856 373.467H221.798L220.739 373.679L220.316 374.735L218.623 376.003L216.506 377.906L214.389 379.385L212.484 381.076L211.213 381.498V380.442L210.155 380.653L209.732 381.499L210.367 381.711L210.155 382.345L209.52 382.979L206.98 384.881L206.133 386.149L204.863 387.206L201.052 389.954V390.376L199.994 390.799L197.242 393.123L194.49 395.66L192.081 396.862L191.788 396.179L190.941 394.489L190.729 393.643L191.364 393.221L193.905 391.107L196.445 389.204L199.197 387.091L203.007 384.343L205.336 382.441L206.394 382.229L206.817 381.595L207.875 380.538L210.204 378.848L213.591 376.311L216.555 373.987L219.942 371.45L220.488 370.989L220.526 371.142L221.373 371.354L222.008 370.931L222.855 369.452L223.278 369.24L224.125 368.394L223.732 368.296L224.811 367.434L226.716 365.955V365.858H227.089L228.359 365.436L231.105 363.893L230.133 365.155L229.361 366.021L228.168 367.064L227.723 366.915V367.338L227.985 367.251V367.646H227.562L227.35 368.068L227.41 368.249L227.35 368.491L227.52 368.575L227.562 368.702L227.658 368.644L227.773 368.702L228.408 368.194L228.62 368.068L229.16 367.798L226.031 370.508ZM232.722 362.072L233.299 361.209L233.491 361.305L232.722 362.072ZM327.949 287.8L327.48 287.33H326.584L327.641 286.6L329.758 285.12L332.334 283.735L332.349 283.737L332.371 283.715L332.51 283.64L333.498 283.077L333.357 283.64L332.51 284.486L331.24 284.909L329.97 286.388L327.949 287.8ZM345.634 268.634L344.364 269.268V268.212H343.729L343.517 269.268L342.882 269.48V269.057H342.247L342.459 269.903H342.882V270.325L342.035 271.382L340.342 272.439L338.224 273.918L336.319 275.398L333.144 277.512L328.91 280.894L326.582 282.796L323.619 284.91L321.95 286.063H321.34L321.128 286.275V286.631L320.866 286.812V287.446H321.29L321.368 287.391L321.975 287.543L322.61 286.909L322.528 286.581L323.407 285.967L326.159 283.853L329.546 281.317L331.028 280.471L333.145 278.781L334.203 278.358L335.897 277.302L338.014 275.822L339.496 274.976L339.919 274.131L340.766 273.919L341.613 273.707L342.036 273.073L343.729 272.228L343.306 273.284L341.613 273.918L341.19 274.975L340.132 275.821L338.438 277.3L337.38 278.146L335.052 279.626L332.963 281.39L332.774 281.202H331.716L330.657 282.258L330.794 283.079L329.761 283.853L327.008 285.966L320.435 290.889L320.285 290.29L319.65 290.078L318.803 290.712L317.533 291.135L317.321 290.712L317.361 290.314L317.694 289.982L318.117 289.136L317.694 288.925L317.503 288.887L317.532 288.599L317.955 287.542L318.009 287.164L318.167 287.12V286.063H317.744L316.473 286.909L315.313 287.198L315.576 287.024L318.328 284.91L320.445 283.642L320.657 284.698L321.715 284.487L322.138 283.43L321.08 283.219L321.292 282.796L322.774 281.739L325.968 279.547L326.846 279.723L327.481 279.3L327.625 278.441L329.971 276.879L331.453 275.611L333.57 274.131V273.709H333.993L335.899 272.441L337.804 271.172L339.074 270.327L339.921 269.904L343.308 268.214L343.731 268.002L344.078 267.599L344.366 267.368L345.637 266.734L346.695 266.311L346.907 267.368L345.634 268.634ZM348.809 266.309L347.751 266.521L347.539 265.464L348.386 264.83H348.809V266.309ZM351.562 263.562L351.138 264.83L349.868 265.041L349.656 264.196L350.927 263.139H351.562V263.562ZM352.832 263.351L351.985 263.139L352.408 262.293L353.043 262.505L352.832 263.351Z" fill="#C4559E"/>
</svg>
