<svg width="104" height="81" viewBox="0 0 104 81" fill="none" xmlns="http://www.w3.org/2000/svg">
<mask id="mask0_2337_8606" style="mask-type:alpha" maskUnits="userSpaceOnUse" x="0" y="0" width="104" height="81">
<path d="M43.0469 4.44365C32.604 -4.24907 14.9889 0.823967 6.0153 10.9373C-2.94716 21.0381 -1.75819 36.2558 8.67177 44.9378L50.7746 79.9843C51.0316 80.1983 51.2722 80.4314 51.4942 80.6815C51.5227 80.7227 51.5836 80.7227 51.6122 80.6815C51.8342 80.4314 52.0747 80.1983 52.3318 79.9843L94.4346 44.9378C104.865 36.2558 106.054 21.0381 97.0911 10.9373C88.1175 0.823967 70.4165 -4.24907 59.9735 4.44365L59.7763 4.63071C55.2315 8.94145 48.1355 9.03124 43.4831 4.83687L43.0469 4.44365Z" fill="#D9D9D9"/>
</mask>
<g mask="url(#mask0_2337_8606)">
<path d="M43.0469 4.44365C32.604 -4.24907 14.9889 0.823967 6.0153 10.9373C-2.94716 21.0381 -1.75819 36.2558 8.67177 44.9378L50.7746 79.9843C51.0316 80.1983 51.2722 80.4314 51.4942 80.6815C51.5227 80.7227 51.5836 80.7227 51.6122 80.6815C51.8342 80.4314 52.0747 80.1983 52.3318 79.9843L94.4346 44.9378C104.865 36.2558 106.054 21.0381 97.0911 10.9373C88.1175 0.823967 70.4165 -4.24907 59.9735 4.44365L59.7763 4.63071C55.2315 8.94145 48.1355 9.03124 43.4831 4.83687L43.0469 4.44365Z" fill="#F1F6F7"/>
<path d="M50.2333 54.8287C51.8554 55.2936 53.0867 60.1758 53.3616 58.0287C53.5971 56.1875 52.1661 51.795 52.3336 49.3391C52.3779 48.6958 53.2117 48.6072 53.4235 49.2335C53.4302 49.2523 54.1075 53.3353 54.6366 54.529C55.3837 56.213 54.7896 52.0967 54.8666 48.3784C54.8794 47.777 55.3054 47.4869 55.6859 47.5919C56.2272 47.7412 56.1089 48.3196 56.1301 49.1886C56.1726 50.9024 55.9899 54.8469 56.49 54.5733C56.9894 54.3002 56.8031 49.2784 57.2176 48.2492C57.4076 47.7764 58.2208 47.93 58.1874 48.8117C58.1868 48.833 58.0848 51.7944 58.0842 51.8151C57.9537 56.9613 59.0133 55.5539 59.6329 51.8436C59.6997 51.4412 59.8253 51.0844 60.2313 51.1245C61.2787 51.2264 60.1852 54.654 59.7689 56.8563C59.406 58.7794 58.5642 60.4204 58.6516 62.9552C58.9666 69.4389 59.7446 75.3637 60.2786 81.8438L54.088 81.686C54.3587 78.8434 56.067 65.6345 53.798 63.735C52.2517 62.44 50.4584 56.6062 49.6307 55.4392C49.3054 54.9811 49.8685 54.7244 50.2333 54.8287Z" fill="#1C0904" fill-opacity="0.5"/>
<path d="M50.5063 45.2688C48.5019 45.8429 46.9799 51.8769 46.64 49.2231C46.3487 46.948 48.1177 41.519 47.9102 38.4835C47.8562 37.6891 46.8251 37.5793 46.5636 38.3536C46.5557 38.3767 45.7188 43.4228 45.0646 44.8974C44.1415 46.979 44.8753 41.8916 44.78 37.2965C44.7648 36.5537 44.2379 36.195 43.7676 36.3249C43.0987 36.5094 43.2447 37.2237 43.2183 38.2978C43.1664 40.4158 43.3917 45.2907 42.774 44.9527C42.1564 44.6146 42.3871 38.4089 41.8749 37.1369C41.6397 36.5531 40.6353 36.7424 40.6759 37.8317C40.6769 37.8591 40.8029 41.5184 40.8035 41.5439C40.9647 47.9044 39.6553 46.1652 38.89 41.5791C38.8071 41.0821 38.6519 40.6409 38.1505 40.6901C36.8558 40.8169 38.2072 45.0528 38.7215 47.7746C39.1705 50.1504 40.2104 52.1785 40.1027 55.3112C39.7131 63.3241 38.752 70.6465 38.0917 78.6553L45.7425 78.4598C45.4081 74.9467 43.2966 58.6228 46.1011 56.2749C48.0121 54.6752 50.2284 47.4651 51.2509 46.0232C51.6533 45.4563 50.9566 45.1396 50.5063 45.2688Z" fill="#1C0904" fill-opacity="0.5"/>
<path d="M75.8794 37.0833C73.875 37.6574 72.3527 43.6914 72.0131 41.0376C71.7219 38.7625 73.4909 33.3341 73.2834 30.2986C73.2291 29.5042 72.1984 29.3944 71.9363 30.1681C71.9284 30.1912 71.0916 35.2372 70.4374 36.7125C69.5145 38.7934 70.2483 33.7061 70.1531 29.1116C70.1377 28.3682 69.611 28.0095 69.1406 28.1394C68.4718 28.3239 68.6178 29.0387 68.5914 30.1129C68.5394 32.2302 68.7647 37.1051 68.1471 36.7671C67.5294 36.4297 67.7602 30.2239 67.2479 28.9514C67.0127 28.3675 66.0083 28.5575 66.049 29.6462C66.05 29.6735 66.1759 33.3329 66.1765 33.3584C66.3377 39.7189 65.0283 37.9796 64.2631 33.3936C64.18 32.8965 64.0249 32.456 63.5235 32.5045C62.2289 32.6314 63.5802 36.8672 64.0945 39.589C64.5435 41.9655 65.5834 43.993 65.4757 47.1262C65.0861 55.1386 64.1251 62.461 63.4647 70.4697L71.1154 70.2743C70.7809 66.7612 68.6697 50.4373 71.4742 48.0893C73.3853 46.4896 75.6012 39.2795 76.624 37.8376C77.0261 37.2708 76.3298 36.954 75.8794 37.0833Z" fill="#1C0904" fill-opacity="0.5"/>
<path d="M40.8493 28.2418C37.9467 29.1806 35.7424 39.0461 35.2506 34.7074C34.8289 30.9877 37.3905 22.1116 37.09 17.1486C37.0115 15.8496 35.5189 15.6704 35.1395 16.9357C35.128 16.9738 33.9162 25.2236 32.969 27.6356C31.6325 31.0385 32.695 22.7208 32.5571 15.2082C32.5348 13.9927 31.7721 13.4064 31.0911 13.6187C30.1226 13.9199 30.3339 15.0886 30.2958 16.8449C30.2205 20.3079 30.5468 28.278 29.6523 27.7254C28.758 27.1733 29.0921 17.0265 28.3503 14.9465C28.0097 13.9917 26.5553 14.3021 26.6142 16.0829C26.6157 16.1269 26.798 22.1102 26.7989 22.1516C27.0323 32.5513 25.1362 29.7073 24.0281 22.2092C23.9079 21.397 23.6831 20.676 22.9572 20.756C21.0824 20.963 23.0393 27.8884 23.784 32.3389C24.4342 36.2241 25.94 39.5397 25.7841 44.6619C25.22 57.7629 23.8282 69.7344 22.8721 82.8291L33.9507 82.5099C33.4663 76.7658 30.4091 50.0765 34.4702 46.2371C37.2376 43.6216 40.4464 31.8332 41.9276 29.4759C42.5095 28.5489 41.5013 28.031 40.8493 28.2418Z" fill="#1C0904" fill-opacity="0.5"/>
</g>
</svg>
