<svg width="1170" height="74" viewBox="0 0 1170 74" fill="none" xmlns="http://www.w3.org/2000/svg">
<path d="M-190 92.1445C-189.486 91.6499 -188.868 91.2884 -188.766 90.9434C-188.379 89.6279 -189.154 87.2452 -188.766 85.9297C-188.562 85.2354 -185.464 83.0681 -186.09 81.334C-188.236 81.7417 -187.54 83.2386 -187.875 84.2588C-188.022 84.7058 -189.227 85.4716 -190 86.1582V82.7969L-188.771 80.4971L-190 81.4834V74.9258C-187.682 74.3784 -185.15 73.5639 -185.201 71.3057H-183.416L-185.201 69.2168L-184.308 66.71L-186.094 66.292L-184.308 63.3672L-185.201 61.6963L-183.416 58.3535L-185.201 55.4297L-182.523 57.9355L-179.846 55.4297L-180.293 53.7588L-184.308 54.5938C-184.603 52.7863 -182.667 52.015 -181.631 50.835C-182.259 50.1068 -183.734 49.4345 -183.416 48.3281C-182.624 45.5777 -180.039 49.3789 -178.954 49.5811C-179.1 47.9 -178.343 46.0057 -179.846 44.9854C-179.425 44.5485 -178.913 44.1777 -178.508 43.7314C-177.147 42.2379 -179.823 43.4274 -179.846 42.4785L-174.491 41.2246C-174.576 38.873 -174.945 37.2044 -172.706 35.7939C-174.278 34.8433 -173.313 33.0979 -173.599 31.6162C-173.663 31.2854 -174.981 30.8702 -174.49 29.5273H-171.813V27.8564C-170.661 27.7472 -169.35 28.0258 -168.243 27.8564C-168.297 28.872 -167.006 29.145 -166.458 29.5273C-166.365 29.593 -166.437 30.8388 -164.673 30.3633L-165.565 33.7051H-161.996L-164.673 35.7939C-163.838 36.792 -162.975 37.4038 -161.549 37.0469C-159.443 36.5204 -161.209 34.6192 -161.102 34.54H-158.426L-157.533 39.5537C-159.329 39.4176 -161.351 40.1251 -162.441 38.7178C-163.641 39.3066 -163.5 40.2399 -163.78 40.8066C-164.14 41.5356 -165.383 41.3758 -163.78 42.4775L-164.672 43.7305H-162.441L-161.102 44.9844L-161.995 50.415H-163.78V53.7568H-167.349C-164.932 56.6134 -168.086 57.0924 -168.242 59.6055L-171.365 58.7695L-173.597 60.4404L-170.919 60.8584L-171.811 62.5293C-170.44 63.3873 -170.98 64.8232 -170.919 66.2891C-168.487 66.6743 -166.687 64.0342 -164.672 66.707L-168.242 67.96H-163.779L-165.564 70.4668L-160.21 71.3027C-160.867 69.7317 -159.058 68.4081 -159.317 67.543C-159.416 67.2154 -160.1 67.0426 -160.21 66.708C-160.366 66.23 -160.098 65.5958 -160.21 65.0371L-159.317 62.9482C-157.037 64.9323 -155.241 64.7766 -152.178 64.6191L-153.069 59.6055L-151.284 59.1875L-154.854 57.9346L-153.069 55.0098L-153.961 54.1738L-153.069 50.4141L-151.284 51.249V48.7422C-149.645 48.9329 -148.687 48.7747 -147.714 47.4893L-150.391 44.9824L-148.606 41.2227L-146.376 42.0586C-144.656 41.2694 -145.356 39.7987 -145.037 39.1338C-143.866 36.6962 -143.231 34.2832 -141.468 32.4502L-142.359 31.6143L-141.02 30.3613L-139.235 31.1973L-138.344 30.3613C-136.824 32.1921 -133.616 30.2022 -132.097 32.0322L-128.527 29.5254L-127.188 30.3613V25.3477C-129.423 25.7726 -130.255 24.6859 -131.65 23.2588L-129.865 20.334H-128.527L-128.974 18.6631L-125.404 19.498L-128.081 23.6758L-125.404 22.4219V22.0039C-123.897 20.7343 -120.373 25.8959 -124.512 25.3467L-122.726 26.1826C-124.981 29.0258 -120.536 31.6442 -124.512 34.1201L-123.173 35.373L-121.388 34.5371L-120.049 35.79L-120.941 37.043L-116.926 38.7139C-115.569 36.9378 -114.287 36.8293 -112.017 37.043V35.3721H-108.447L-109.34 31.6123L-108.447 29.5234H-104.878V27.8525H-103.093V29.5234H-101.307V31.1943H-103.093C-103.583 32.5367 -102.261 32.9563 -102.2 33.2832C-101.896 34.8995 -101.87 38.1376 -103.093 39.1318C-101.054 40.1885 -102.005 42.6921 -99.5233 42.0566L-101.308 42.8926L-100.416 44.9814L-101.308 45.8164L-100.416 48.7412H-102.201L-101.309 52.084C-98.7205 51.3558 -98.3162 53.8408 -95.955 53.7549L-97.7401 52.9189V50.4131H-95.0624L-95.955 48.7422H-90.5995L-91.4921 51.248L-87.0302 52.084V49.5771H-89.7079L-83.4608 47.9063C-83.3778 47.0928 -83.6007 46.1766 -83.4608 45.4004C-82.297 44.8606 -82.6268 44.5866 -82.5682 44.5645C-82.1946 44.4244 -80.6965 44.2954 -80.7831 44.9824L-79.8915 50.4131L-73.6444 49.5771L-74.536 52.084H-69.1815C-69.5997 54.06 -68.4508 55.451 -66.5048 56.2607V54.5898L-62.9344 53.7549L-66.5048 52.9189L-67.3964 47.4883L-69.1815 47.0713L-68.7352 45.4004L-65.6112 44.5645L-70.0731 42.8936H-65.6112V41.6406L-63.826 41.2227C-64.5236 42.6806 -62.9259 43.9922 -62.9335 44.1465C-62.9496 44.3768 -64.3171 44.9359 -63.826 46.2354L-65.6112 46.6533L-62.9335 49.1602L-65.6112 49.9961L-61.1483 50.4141V53.3389L-59.3632 53.7568L-62.0409 56.2637L-56.6864 55.4277L-58.4716 59.1875L-56.6864 60.4404L-56.2401 57.9336C-55.1357 59.0797 -54.4457 59.952 -52.6698 59.6045L-51.7782 62.1113C-49.7494 60.727 -50.8273 60.4553 -52.2245 59.1865C-50.7517 56.8754 -48.4158 57.5519 -46.87 55.8447C-48.1388 54.9946 -48.2526 53.4859 -46.87 52.5029H-49.5468L-44.1923 49.5781L-45.9774 48.7422C-45.908 48.06 -46.1005 47.2841 -45.9774 46.6533C-45.8707 46.1108 -44.5295 46.2904 -45.9774 44.5645L-42.8544 45.4004L-41.5155 42.8936L-41.0692 45.4004H-39.7303L-38.8387 50.4141H-40.6239C-38.9575 51.8443 -40.0349 54.8687 -41.9628 55.4268C-42.8389 55.6805 -44.441 54.7369 -44.1932 56.2627C-42.4132 56.1281 -42.3173 57.54 -40.6239 56.2627L-39.7313 57.9336L-39.285 54.5918C-37.566 56.1804 -34.0636 56.0206 -34.3768 58.7695C-32.9253 59.2254 -32.5537 58.0246 -32.1454 57.9336C-31.3525 57.7573 -30.218 58.1251 -29.4686 57.9336C-28.1436 57.5948 -27.254 53.2862 -25.453 52.5029L-28.576 53.7559L-30.3612 52.9209C-32.1455 54.8538 -33.2496 55.9185 -36.163 55.4277C-36.298 54.0798 -36.3267 51.6378 -34.8241 51.25C-34.077 51.0577 -32.9401 51.4257 -32.1464 51.25C-31.7953 51.172 -31.595 50.4786 -31.2548 50.415C-30.3372 50.2433 -29.1316 50.5235 -28.1307 50.415C-29.2682 48.7774 -29.4253 48.3347 -27.6844 47.0723L-25.0067 49.5791C-24.3368 48.5826 -21.2126 46.5404 -20.9911 45.8193C-20.8213 45.2677 -21.199 44.5656 -20.9911 44.1484C-20.4147 42.9944 -18.9037 41.7968 -19.2059 40.3887C-18.6212 40.3578 -17.9971 40.4551 -17.4208 40.3887C-17.5437 39.9399 -17.3596 39.2567 -17.4208 38.7178H-15.6356V40.3887C-16.2203 40.4195 -16.8445 40.3222 -17.4208 40.3887C-17.1534 41.3621 -16.2977 41.7922 -15.6356 42.4775L-16.0819 44.5664C-15.4402 43.3182 -13.9381 43.2113 -13.4042 42.8955C-11.5698 41.8079 -12.0162 38.6694 -8.49597 39.5527C-8.9856 38.2864 -7.60437 37.6388 -7.60437 37.4639C-7.60596 37.2223 -9.64502 35.6259 -7.60437 33.7041L-9.38953 32.0332L-6.2655 32.8691L-7.60437 30.7803C-6.1189 29.6374 -5.13794 27.5873 -3.14148 27.8555L-4.03308 23.2607C-2.40759 21.9112 -2.74097 19.0886 -2.24792 17.4121C-2.12903 17.0069 -0.836304 16.2897 -0.462769 15.7412L1.7677 16.9941L1.32141 14.4873C2.2074 14.4723 3.11304 14.5118 3.99817 14.4873C3.96423 13.9492 3.92603 13.3451 3.99817 12.8164C3.00684 12.9726 2.10767 14.1953 0.428833 13.6523V11.1455L4.89172 10.3096C4.2373 11.3156 4.15857 11.6537 3.99817 12.8164C5.09155 12.6447 6.41736 12.9272 7.56848 12.8164V14.4873C6.38599 14.5087 5.17981 14.4541 3.99817 14.4873C4.03296 15.0374 3.98206 15.6066 3.99817 16.1582H8.46106L3.10657 21.5889L5.33704 26.1846L7.56848 25.3486L8.46008 27.4375L6.67493 27.8555L7.5675 29.9443L11.5831 28.6914L13.3683 27.0205L15.5997 26.6025L10.6915 26.1846C8.61682 24.6783 7.03198 22.7184 10.6915 22.0068C11.1404 21.92 11.6179 22.0723 12.0294 22.0068L12.4767 16.9932L14.7072 20.7529C13.8447 21.9915 13.2747 21.8072 12.0294 22.0059V22.8418L14.7072 23.6777C14.4568 22.3591 15.4351 22.0486 15.5997 20.7529C15.8273 18.9705 14.9041 16.8506 16.4913 15.7393L12.0294 15.3213L14.7062 13.6504L12.0294 12.8145L12.921 9.47266H15.5988C15.541 10.3377 14.7859 10.0532 15.1515 11.1436C15.5488 12.3245 16.7263 13.1629 16.4904 14.4863C18.1711 13.3758 20.4091 14.0525 20.9523 11.9795C19.1001 12.0349 17.6364 12.3397 16.4904 10.7266V8.6377L19.1681 9.05566V10.3086H20.0607V8.6377H20.9523L21.3986 10.3086L21.8458 8.6377C24.0604 9.05774 26.3307 7.57753 26.3077 5.29492L22.7384 2.78809L26.3077 3.62402V1.11719C26.9469 0.435974 29.535 2.51859 29.8771 3.20605C30.7946 5.04839 27.6978 4.14395 28.0919 4.87695C29.5061 6.0072 30.6855 7.64986 30.7697 9.47266C31.0492 9.7869 33.817 7.58664 33.5109 6.30762L34.339 8.63672L38.8019 7.80078C39.7102 8.59151 35.7736 12.641 34.339 11.9785C35.4408 13.704 35.0006 15.3482 37.0167 16.5742L36.1241 18.2451L37.0167 19.916C36.2147 20.2183 35.4838 21.8081 35.2316 22.0049H37.9093V24.0938L36.5704 25.3467L35.2316 24.0938V22.0049C34.2502 22.7679 32.3435 22.4562 32.5538 23.6758C35.1299 23.227 33.937 24.2994 34.339 24.9287C34.7872 25.6308 35.9932 26.2838 36.5704 27.0176L38.3556 25.3467L40.5861 26.1826L39.6935 22.0049H43.2638C43.9487 18.4211 40.3947 21.8657 39.6935 21.1699V17.4102L41.0323 16.1572L45.9406 15.3213L47.7257 16.9922V19.499L43.2638 19.0811C45.1372 21.6914 47.3772 21.2617 50.4034 21.1699L51.296 18.2451L49.5109 15.7383L51.296 14.4854L47.7257 14.0674L50.8497 10.3076C52.4174 10.845 53.4015 9.21046 54.4191 9.47266C54.7755 9.56447 54.9679 10.2339 55.3116 10.3076C57.4941 10.7786 59.6134 9.98775 59.3273 7.80078C61.1233 7.9369 63.1455 7.2299 64.2355 8.63672L67.3595 6.12988L65.5743 9.88965L66.4679 13.6494H69.1447C69.7058 15.7794 68.244 16.2346 67.3595 17.8271H69.1447L70.0372 22.0049H66.4679L67.3595 24.5117L63.7902 23.6768L62.8986 27.0186L66.0216 25.3477L67.8068 26.1836L69.5919 24.5127L70.0392 26.1836L72.7159 25.3477L72.2697 27.8545L69.1456 27.0186C69.3043 27.9833 69.1451 28.5669 68.254 29.1074C66.6005 30.1111 66.3789 28.3483 64.6837 28.6895L66.9152 30.3604C68.959 29.8476 69.3411 31.432 70.9308 32.0313L72.2697 29.5244L78.0714 28.6885L73.6085 25.7637L75.3937 25.3457C75.694 23.5848 74.1768 22.8499 72.7159 22.4209C71.5509 22.0792 71.8542 22.7843 70.9308 22.8389V20.332C73.1412 20.7705 74.4526 19.6728 76.2863 19.4971V21.168C77.5739 21.2929 79.0804 20.9788 80.3019 21.168C80.6431 21.2204 80.8872 21.9911 81.1945 22.0029C81.3457 22.006 82.1019 20.7101 83.4249 21.168L82.5323 18.6611L80.3019 20.332L78.963 18.2432L79.8556 16.1543H83.4249V17.8252H85.2101V22.0029H86.9952L87.8878 25.3447H89.673V31.1934H87.4415L83.4259 33.7002L87.8878 34.5361V36.207C89.241 35.7487 89.9333 37.043 90.1193 37.043C90.3063 37.0422 90.9982 35.7498 92.3507 36.207C92.8395 37.4731 91.4589 38.1208 91.4581 38.2959C91.4581 38.4589 93.0314 39.7096 92.3507 41.2197H90.1193L89.673 44.5625L92.3497 42.8916C91.6826 45.2621 93.8671 44.117 95.0275 45.8164L93.6886 47.9053L96.8126 47.0693V45.3984L102.167 42.8916L100.382 47.4873L97.7042 47.9053L99.4904 50.4121L95.0275 49.5762L96.8126 51.2471L93.2433 52.5L95.92 53.3359C96.7748 51.727 98.2927 52.3843 99.0441 52.083C100.547 51.4799 101.651 49.5121 103.061 51.665L103.952 58.7676L101.722 55.4248L102.168 58.7676L99.4904 57.9316C99.5522 59.3974 99.0129 60.8335 100.383 61.6914L99.0441 63.7803H95.92L95.0284 62.1094L95.92 66.2861H94.1349L95.0275 69.6279L96.3663 68.793L95.9191 68.375L98.5968 67.1221L97.7042 69.6279L98.5968 71.2988C101.729 71.9621 100.002 68.4306 100.382 66.7041L103.06 66.2861L101.275 64.6152L103.06 61.2725L106.629 62.9434V61.2725H108.414C108.064 59.965 109.517 56.5776 110.645 56.2588C111.586 55.9936 112.997 56.561 113.769 55.0059C115.233 52.0536 108.952 55.8968 108.414 55.4238C107.976 53.8107 109.491 53.4671 110.199 52.499C110.348 52.2956 110.067 51.8277 110.199 51.6631C110.8 50.9183 111.775 50.3118 112.43 49.5742C113.409 50.9705 114.673 49.0186 116.446 49.5742C116.653 48.1141 114.41 48.7612 113.322 48.7383C112.133 48.7138 110.941 48.7596 109.753 48.7383C109.001 48.7248 106.631 49.1167 107.522 47.4854C108.516 45.6625 111.259 44.8638 113.323 45.3965C114.375 45.6672 115.639 48.9117 118.232 47.9033L114.662 46.2324L115.554 44.5615H113.769V42.0547L116.446 42.4727C115.207 41.8838 114.03 39.9207 116 39.5479C117.168 39.3272 118.749 39.6942 120.016 39.5479C120.309 41.5227 119.701 43.497 118.231 44.9795C119.97 46.0465 120.568 48.1157 120.016 49.9932C119.881 50.4515 118.38 51.1931 118.231 51.6641C117.957 52.526 118.352 53.5077 117.338 54.5889L120.462 52.082L121.801 55.4238L123.586 53.335V52.082C125.862 51.5565 126.348 52.925 128.049 53.7529C127.595 51.6602 128.756 50.8827 130.279 49.5752L131.172 50.4111L130.726 47.9043L134.295 49.5752V46.2324C135.854 45.5789 137.257 47.0779 137.419 47.0684C137.594 47.0555 138.952 45.5977 140.542 46.2324L141.436 48.7393C140.795 44.7833 142.493 46.8451 144.56 46.2324C148.008 45.2099 147.424 46.2324 148.129 46.2324C148.535 46.2324 152.421 43.4428 153.484 43.7256C154.277 44.4221 154.822 44.6638 154.822 45.8145C154.822 48.492 152.284 47.5838 150.807 47.9033C150.477 47.9746 149.878 49.2346 148.129 48.7383C147.773 48.6369 147.589 47.9967 147.236 47.9033C146.522 47.7133 143.976 49.4632 142.328 48.7383C142.965 50.11 144.326 51.5039 145.899 51.2451L145.451 53.752L147.683 53.334V54.5869H149.468L148.575 58.7646L149.914 57.0938C150.335 57.5671 150.571 57.8139 151.253 57.9287C151.382 56.5666 151.167 55.125 151.253 53.751L156.608 52.916L153.93 57.9287C153.062 57.8473 152.067 58.0664 151.253 57.9287C151.157 58.947 150.965 61.1213 150.807 61.2715C148.354 63.5677 153.188 63.1458 154.822 60.8535L152.146 58.7646L155.269 59.6006C155.728 58.5273 157.402 58.8573 157.5 58.7646C157.667 58.6084 157.264 57.905 157.5 57.5117C158.241 56.2739 159.777 56.4273 160.624 55.4229L163.301 57.9297L166.424 57.0947C166.505 56.5724 166.276 55.7113 166.424 55.4238C165.368 55.6858 165.095 56.6077 163.747 56.2598V53.7529H166.424V55.4238C166.573 55.1381 169.209 54.3584 168.209 52.082L169.548 52.918L173.564 52.082L172.672 49.5752L177.135 50.4111V49.1582L178.92 48.7402C178.718 50.2702 178.879 51.1657 180.258 52.083H181.151C183.056 50.1541 185.699 51.7601 187.844 52.083L186.951 55.4248C189.432 54.9879 191.398 53.4674 193.198 55.8428L192.752 57.9316L193.645 57.0967L197.66 58.7676L195.875 56.2607L198.999 57.0967L200.338 55.8428L198.553 54.5898L206.138 52.084L207.477 49.5771H210.154V46.2344H212.831V47.9053H213.724C213.467 46.3135 214.701 45.1586 216.401 45.3984V47.9053H213.724C213.668 48.3034 213.877 48.7981 213.724 49.1582C213.569 49.523 212.843 49.725 212.831 49.9941C212.827 50.1356 214.212 50.8434 213.724 52.083L215.954 52.9189L219.078 51.248L217.293 56.2607L221.756 54.1719L220.863 52.501C221.985 51.5773 222.68 50.1047 224.433 50.4131C224.107 52.746 227.579 53.2516 227.11 55.4258H225.325L222.648 61.6914C224.018 62.5501 223.479 63.9854 223.54 65.4512C224.709 65.2098 224.684 63.9986 225.771 65.4512L226.663 64.6162L227.109 66.2871L228.895 64.1982L228.003 62.5273L229.341 61.2744L233.803 62.1104L235.142 59.6035H236.927L236.035 57.0967L240.497 57.9316L239.606 55.4258H242.282L241.391 54.1719C242.465 52.4353 244.299 53.4179 245.406 52.084L250.315 54.1719L246.299 55.4258C245.382 56.7087 243.848 56.203 242.282 56.2607L243.175 58.7676L245.852 57.9316V62.9453C244.563 63.0687 243.061 62.7585 241.836 62.9453C241.072 63.0617 238.903 65.0729 237.373 62.9453L233.358 65.4521H239.605L236.927 66.2881V70.4658C237.905 70.5339 238.594 68.9405 239.157 68.7949C240.45 68.4625 242.035 68.8154 243.62 67.959C244.222 67.6337 244.77 66.7219 245.405 66.2881L245.852 67.959C248.222 68.3967 248.768 66.9293 250.76 66.2881C251.821 65.9462 249.715 64.8569 250.314 63.7813L252.099 65.4521L256.562 64.6172V67.124C259.038 66.995 261.559 67.6708 263.701 66.2881C264.243 68.1821 262.18 69.1812 263.701 70.0479L261.916 75.4785C262.924 75.5767 264.095 75.3234 265.04 75.4785C265.384 75.5347 265.636 76.3145 265.933 76.3145C266.12 76.3127 266.812 75.0214 268.163 75.4785V72.9717L269.502 73.8076L270.394 72.9717L272.625 73.8076L270.841 68.7939C274.088 67.9094 274.963 70.8653 277.981 70.4648L275.303 69.6289L275.749 66.2871C277.256 68.383 279.038 68.0372 281.55 67.958L279.765 72.1357C281.859 70.4593 283.173 70.1656 286.012 70.4648V72.9717H280.657V75.0605L279.318 76.3135L276.194 77.5664C277.721 79.8506 280.539 77.9207 281.995 79.6553L286.458 77.9844L289.582 80.4912L287.797 77.5664C287.743 76.7672 290.484 77.7128 289.582 75.8955C288.957 74.6355 287.376 74.4693 286.013 74.6426L287.798 69.6289C290.063 69.397 291.76 69.7368 293.598 70.4648C294.057 69.3923 295.732 69.7215 295.829 69.6289C295.943 69.5199 295.746 67.6418 297.168 67.1221L303.861 67.958V70.4648C302.39 70.024 302.159 71.1203 301.63 71.3008C300.993 71.5177 297.88 71.8882 297.614 72.1367C297.428 72.3116 297.518 75.3385 294.937 74.6436V75.4795C298.422 75.0006 296.462 78.308 294.045 77.9863C293.902 78.8981 294.273 80.1387 294.045 80.9111C293.967 81.17 290.345 84.5348 290.028 84.6709C287.969 85.5561 289.404 82.6131 287.798 82.999L288.244 85.5059L288.691 88.8486L289.583 86.3418L290.922 88.0127C292.446 86.7053 293.607 85.9276 293.152 83.835L298.507 84.6709L296.722 83V80.9111C296.624 80.0016 294.247 81.2488 294.937 79.2402C295.896 76.449 298.445 80.5066 299.4 80.4932L297.614 74.6445L304.754 75.4805L302.077 74.6445C300.85 73.447 304.59 69.1334 306.539 69.6318V66.29C308.555 66.6185 310.866 67.7361 313.233 67.126C313.723 66.9994 314.527 65.5823 315.018 65.4551C316.17 65.1575 318.139 65.6585 319.481 65.4551C321.552 66.8094 319.893 68.9701 322.605 67.126L320.819 70.0498L321.711 70.8857L320.819 72.9746H323.496V74.6455H324.389C324.133 73.0539 325.366 71.8989 327.067 72.1387L326.174 69.6318L328.852 71.7207L329.298 74.6455L329.744 72.1387L332.422 72.5566L331.529 74.6455C333.344 74.9186 333.602 73.1127 334.653 74.6455L338.669 73.8096V77.5693L335.1 80.0762L337.331 82.165L342.239 77.5693L343.131 74.6445C344.933 74.5622 344.078 77.1023 343.131 77.5693L345.362 79.6582L347.593 75.4805H345.808V73.3916L347.593 72.9736L346.254 71.3027L341.346 72.9736L344.024 70.0498L341.346 69.6318V66.29C343.625 65.7573 344.145 67.1678 345.809 67.9609C345.529 66.1294 347.235 64.9982 348.933 65.4541C350.15 65.7813 350.331 68.2514 351.609 68.7969C353.794 68.8167 355.618 68.4241 357.41 69.6318V67.9609L360.98 68.7969C360.237 66.38 363.471 66.465 363.657 66.29C363.823 66.1334 363.423 65.4326 363.657 65.0371C365.028 62.7346 369.764 62.0554 372.136 61.2773C372.652 61.1079 372.896 59.9983 374.366 60.4414V62.5303L375.705 63.7832C377.98 63.5727 380.662 64.0823 382.845 63.7832C383.173 63.7381 383.384 63.0248 383.737 62.9473C386.943 62.246 387.898 65.4888 391.323 64.6182L392.661 62.1113C394.035 62.3512 397.414 60.4554 398.463 61.2754C398.612 61.3926 398.316 61.9633 398.463 62.1113H395.785V65.4531H398.463V62.1113C399.027 62.6789 401.511 64.2704 402.032 63.7822V62.1113L405.602 62.9463V60.4395L406.941 61.2754L410.957 60.4395L408.279 62.1104V64.6172H410.957C410.24 62.3139 412.412 61.9449 412.742 60.0215C412.738 59.3086 414.514 59.4753 414.973 59.6035C415.886 59.8584 417.62 63.391 417.203 63.7813H415.418V66.2881H417.203L418.988 60.8564C418.734 59.6162 417.462 62.1014 417.203 60.8564C416.656 58.2244 419.47 60.6379 420.774 60.4385L418.988 62.5273L419.88 65.8691L417.203 66.2871V67.958H419.434L422.111 66.2871L427.02 67.123C427.409 64.76 426.654 65.8532 425.681 65.4521C425.08 65.2044 424.919 64.1906 423.449 64.6172L426.573 62.1104L427.02 64.6172C427.986 64.8823 429.476 64.0725 429.697 63.3633C430.205 61.7391 425.554 60.0894 426.128 57.9326L431.483 58.7686V60.4395C433.336 60.2519 434.086 62.3098 435.499 60.4395L436.837 61.2754V60.0225L439.515 57.9336V61.2764H437.73C438.531 62.0671 438.519 63.6859 438.622 63.7832C438.763 63.9104 441.146 63.9516 441.745 65.4541L441.299 64.2012L443.977 62.9482L445.316 68.7969L447.546 66.708L444.868 65.0371L447.546 61.6953L445.761 59.1885L446.653 57.5176L445.761 54.5928L448.439 55.0107L445.761 51.251C446.217 50.7896 447.52 52.7954 447.991 52.9219C449.157 53.2337 450.778 53.4339 452.008 53.7568V55.4277L454.238 54.5928L455.577 55.8457L454.685 57.0986L457.362 58.3516V60.4404L452.008 58.7695L451.115 63.7832L455.578 64.6191L453.793 61.2764H459.148L457.362 62.1123V62.9473L459.593 63.7832L464.501 60.0234L459.593 60.4414L458.701 58.7705L460.932 55.4277C458.231 54.4235 459.914 57.9748 457.808 57.0986C456.471 56.542 455.828 54.0677 455.577 52.9209C455.968 52.8655 456.306 53.0103 456.47 52.5029C456.47 51.9696 455.625 52.1285 455.577 52.085C454.582 51.1787 454.481 51.0084 452.9 51.249L452.008 45.4004L453.347 47.0713L455.132 46.2354L456.024 47.0713L458.255 46.2354L457.362 43.7295H460.04V47.0713C461.048 47.1694 462.219 46.9162 463.163 47.0713C463.759 47.17 463.801 48.6817 464.948 47.0713L468.071 47.9072L467.625 49.5781H466.286V52.085L459.148 51.249L465.395 52.9199L463.163 54.5908L461.825 54.0342V58.3506L463.609 56.2617L464.501 57.5146L466.286 57.9326L467.179 54.1729L469.857 52.9199L468.964 55.8447L470.749 55.4268L471.642 57.0977L472.533 54.5908L471.642 58.7686L473.427 59.1865L474.318 61.2754L475.657 58.7686L478.781 59.6045L475.212 56.6797V55.4268L477.889 56.6797L476.104 52.9199L477.889 52.084L474.319 51.248L479.674 49.5771L475.212 50.4131C475.181 49.6994 475.93 49.5858 476.104 48.7422C474.789 48.9748 473.057 48.5864 471.642 48.7422V46.6533L468.964 46.2354L470.749 50.8311L468.071 51.249L469.858 49.1602L467.18 44.5645L469.41 43.7295L472.534 44.5645L474.319 42.8936L472.981 45.4004L476.105 46.2354C476.014 47.0497 476.257 47.9958 476.105 48.7422C477.468 48.5008 477.869 46.6111 479.674 47.0713C479.191 49.1133 480.567 51.0479 482.798 50.4141C483.213 50.2961 483.41 49.2761 484.583 49.5781C484.933 49.6684 485.118 50.312 485.476 50.4141C487.121 50.8818 488.019 49.803 489.045 48.7432C489.928 48.3239 488.389 47.1328 488.153 47.0723C486.256 46.5942 484.794 47.9019 482.798 47.9082C480.974 47.9137 481.01 47.2606 481.459 45.8193C481.76 44.8545 482.609 44.389 483.691 45.4014C485.718 47.2986 485.975 44.6157 487.26 46.2363L491.276 44.5654L490.384 42.0586H493.953L493.062 40.8057C494.194 39.2113 495.61 39.4892 497.524 39.5518V38.2988L500.201 38.7168L497.97 37.0459C496.933 38.4366 496.685 37.4962 495.739 36.6279L496.632 33.7041L497.524 35.375L500.648 37.0459C502.368 35.9782 502.047 34.5967 501.986 32.8682H506.449C506.613 31.6897 506.202 30.1809 506.449 29.1084C506.518 28.8092 507.976 27.1224 508.234 26.6016C508.442 26.1829 508.066 25.4815 508.234 24.9307C508.591 23.7695 512.598 21.1147 511.804 24.5127L514.481 23.6777L516.266 29.1084L515.374 32.8682L518.052 30.7793C518.777 27.656 522.811 26.945 525.637 26.1836C526.7 25.8971 526.762 24.5278 526.976 24.0947C527.836 22.3534 527.475 23.9663 526.976 22.4238C526.657 21.44 527.72 20.9508 528.315 20.335L532.33 21.1709C532.593 20.92 531.577 17.8393 533.669 16.9932C536.988 15.6515 535.776 20.0628 535.9 21.1709L537.685 18.6641H541.255C541.609 20.5073 540.913 21.3285 539.47 22.4238L541.255 23.6777C540.033 23.8321 538.368 22.1525 537.685 24.0957C536.887 26.3637 541.104 26.0476 541.255 26.1846C541.496 26.4042 541.717 27.8864 542.147 26.1846C542.165 26.228 542.888 26.0304 543.039 26.6025C543.399 27.962 542.782 28.731 541.7 29.5264L537.685 28.2734L539.47 31.1982H543.932L544.824 35.376C548.22 35.8405 546.503 32.6373 544.824 31.6162L546.609 27.8564H545.271L544.824 26.1855L549.733 25.3496L551.963 26.1855L551.071 29.1094L554.641 37.0469H552.856L553.747 39.5537L557.318 38.7178L556.87 40.3887C559.035 39.4476 557.087 38.0639 557.318 37.8818L559.548 38.7178L561.778 35.376L558.209 36.2119L557.318 32.8701L560.442 34.541C561.395 33.3517 562.154 33.3397 563.118 34.541L561.779 31.6162L562.672 29.5273H564.902L568.919 32.4521L568.026 36.2119L565.35 35.376L567.58 37.8828H568.919V39.9717L564.456 44.9854L568.919 45.4033L566.241 46.2383L568.919 48.3271C567.18 50.8462 565.6 48.4688 565.35 48.7451C565.469 49.6791 565.162 50.8175 565.35 51.6699C565.422 51.9958 566.2 52.1997 566.241 52.5059C566.475 54.2066 566.079 56.185 566.241 57.9355C568.62 58.7429 569.259 56.6382 570.258 56.2646C570.654 56.1171 571.179 56.3436 571.596 56.2646C571.473 56.0223 571.739 55.542 571.596 55.4297H568.026L569.811 52.5049L568.919 49.5801C571.375 49.1567 570.734 50.2775 570.704 52.0869L573.381 53.3398L572.489 54.1758L573.381 56.2646C572.799 56.312 572.115 56.1665 571.596 56.2646C572.111 57.2682 573.304 58.0907 573.381 58.3535C573.68 59.3736 573.059 62.6424 573.381 62.9482L576.505 63.7842C578.366 62.1807 579.184 59.8162 578.736 57.5186C578.69 57.2779 577.315 56.6428 577.844 55.0117L578.736 52.9229H582.306C580.231 56.2066 581.475 57.3716 584.983 55.4297L584.091 61.2773L587.66 60.4424L585.875 62.9482L588.106 63.7842L590.337 62.1133L589.444 65.4551H588.106L585.875 67.9619L587.66 66.291H588.999L593.015 68.3799L589.892 70.4688L587.66 69.6328V72.1396C589.723 71.736 590.308 74.0893 592.122 74.6465V72.9756L596.138 72.1396L599.262 67.126H603.725V68.7969H605.51V70.4678H608.188C608.511 70.1622 607.888 66.8924 608.188 65.873C608.417 65.0958 610.796 64.5626 609.973 61.6953C608.334 59.764 608.745 60.8958 607.741 61.2773C606.281 61.8327 606.16 60.659 606.402 59.6064L610.419 58.7705L615.327 59.6064L612.203 62.1133L613.096 63.7842C614.87 61.5141 618.962 62.2996 618.897 58.7705C622.402 59.1488 624.158 57.1288 627.375 56.2637C628.412 55.9851 630.628 52.4012 632.283 52.0859L630.498 56.2637H632.287V59.1885L634.072 61.2773L634.519 58.7705L633.18 55.4277L636.749 57.0986L634.964 55.4277L635.857 54.1748L634.964 53.3389C636.03 52.3526 636.183 49.2553 638.088 48.7432C639.146 48.459 640.238 49.0939 641.212 47.4902C641.45 47.1 641.045 46.393 641.212 46.2363C641.369 46.091 642.07 46.4239 642.551 46.2363C643.169 45.9955 643.479 44.9394 645.228 45.4014C645.802 45.5526 646.601 47.5384 647.459 46.6543L646.567 43.7295H644.781V42.8945C647.5 43.1747 648.311 39.2724 651.028 39.5518C649.252 37.315 646.075 34.9183 650.582 33.7041C650.898 33.6487 651.204 33.6242 651.474 33.7041C651.833 33.811 652.017 34.4448 652.366 34.5391C653.284 34.7844 654.758 33.075 656.382 33.7041C656.691 36.883 652.006 36.1258 651.027 38.7168L656.382 37.8809C656.608 38.0764 655.631 41.3066 657.721 40.3877C657.953 40.2848 659.758 38.8428 658.613 38.7168C655.252 38.6258 658.527 35.3682 660.844 36.21V34.5391H662.629V35.792L664.414 36.21V32.8682L667.984 32.0332L668.876 33.7041C669.127 32.0253 667.771 30.9337 666.198 31.1973C665.657 29.2865 667.723 28.3145 666.198 27.4375C666.439 24.687 669.252 25.3542 671.554 25.3486L672 30.3623L672.892 27.8555C677.624 24.8342 676.787 30.5126 672.892 31.1973L670.661 33.7041H674.231V31.1973L679.586 32.0332V34.957L676.016 35.375L676.908 38.7168L675.123 38.2988C675.346 39.6483 676.171 39.9748 676.015 41.6406C675.893 42.941 674.848 43.2248 675.123 44.5654C677.579 44.9889 676.938 43.868 676.908 42.0586C678.609 42.2984 679.842 41.1435 679.586 39.5518L683.155 40.3877L682.709 37.8809H681.37L682.262 36.6279L681.37 34.5391C683.645 35.0645 684.131 33.6961 685.832 32.8682L686.279 34.5391H687.617V39.5527L689.849 34.5391L690.295 37.8809C691.88 37.5439 692.784 35.6389 693.685 34.7109L693.864 34.5391C694.023 34.4033 694.631 34.679 694.756 34.5391C694.902 34.3748 694.58 33.7568 694.756 33.2861C694.89 32.9278 695.637 32.7248 695.649 32.4502C695.652 32.3082 694.268 31.601 694.756 30.3623L696.541 30.7793V32.0332L701.004 31.1973L700.111 28.6904C701.434 28.2334 702.191 29.5292 702.342 29.5264C702.565 29.5177 703.198 28.2313 704.573 28.6904L705.02 30.3613L705.466 27.8545C707.79 27.4469 707.915 28.7244 706.359 29.9434L710.821 34.1211C709.091 35.4856 706.841 33.8019 707.251 32.0322C705.558 33.3093 705.462 31.8977 703.682 32.0322L706.359 34.1211L705.467 35.792C707.577 37.2183 705.778 38.2433 705.467 39.1338C705.288 39.6451 705.654 40.3204 705.467 40.8047C705.276 41.2976 704.103 41.5166 704.575 42.8936H702.79V44.5645L701.005 46.2354H705.467V49.5771H703.682V51.248C702.202 51.3328 699.77 52.1205 699.219 53.7549H704.574V52.084H707.251L706.359 48.3242C708.737 45.8889 713.945 44.7769 710.821 49.1602L712.607 51.249L714.393 47.4893L713.5 45.4004H717.069V43.7295H719.301L720.639 42.4766L719.747 41.2227C721.72 40.8983 722.567 41.5206 723.763 42.8936L725.102 41.6406V39.5518L727.332 38.7168L726.886 36.21L728.671 37.8809C730.429 38.4135 731.035 37.3418 731.795 37.0449C732.277 36.8574 732.978 37.1911 733.134 37.0449C733.321 36.87 733.23 33.8431 735.812 34.5381V32.8672L741.166 32.0313V34.5381L739.381 34.1201V35.373H737.596C737.666 37.5291 735.462 39.1374 733.134 38.7148C733.349 40.8209 731.71 41.5271 729.565 41.2217V43.7285H730.902L731.35 45.3994C729.804 46.0522 728.389 44.5612 728.226 44.5635C728.017 44.5682 727.358 45.8593 725.994 45.3994V47.9063L728.226 47.0703L730.456 49.9951L730.01 52.084L733.134 51.248C733.385 52.9267 732.029 54.0184 730.456 53.7549L730.902 57.0967C732.538 56.2434 731.937 54.8725 732.689 53.7549C733.503 52.5454 736.128 50.2081 737.597 50.4131V49.1592L734.919 49.5771L737.597 46.2354C735.87 46.8083 735.215 44.7613 734.473 44.5645C732.991 44.1727 731.121 44.7596 731.349 42.0576H734.918L736.703 43.7285L735.364 40.3867L738.488 41.2217V42.8926L741.166 42.0566V43.3105L743.843 43.7285L742.058 40.8047L742.95 38.7158H741.165C740.916 36.0153 740.966 34.4929 743.396 32.8672C744.371 33.4425 746.257 36.0182 746.965 36.209C749.539 36.9008 749.755 33.6095 751.874 35.373V33.2842C752.499 32.1596 753.514 32.2909 754.105 32.0313C754.785 31.7312 755.074 30.7362 756.782 31.1953C757.565 31.4065 758.216 33.4776 759.905 32.8662V35.373H756.782L751.874 38.2979C754.483 41.4244 755.673 37.851 758.12 37.8799V36.209L761.244 37.0449L764.814 35.374L768.83 37.0449L764.367 39.5518C764.286 40.882 763.948 41.4751 765.706 41.2227C766.647 41.0873 771.507 38.1229 771.507 37.4629C769.527 35.4866 768.431 33.9454 765.261 34.5381C764.932 32.8973 766.505 32.2466 767.491 31.1963C770.153 31.1836 773.102 28.3254 772.4 32.8672L773.292 29.5254L778.647 31.1963C778.979 33.3135 776.426 34.1376 774.63 34.5381C773.131 34.8725 771.967 33.636 772.4 36.209L779.539 35.373L780.432 37.0439C780.179 35.5789 781.812 34.8616 781.324 33.2842C781.107 32.5821 778.929 31.9788 779.539 30.3594C781.354 30.6324 781.612 28.8265 782.663 30.3594L785.787 29.5234V32.0303H790.25C790.339 30.1441 789.464 27.7527 792.035 27.0166L791.589 30.3594L792.481 29.5234L793.819 32.0303C791.039 31.6622 789.86 32.8654 790.25 35.3721L784.003 34.1191L786.681 35.79C786.497 36.6353 786.955 38.133 786.681 38.7148C786.641 38.8003 784.811 39.0901 786.681 39.5508V41.2217L784.895 42.8926C787.487 43.9008 788.752 40.6581 789.803 40.3857C790.849 40.1158 792.599 40.5646 793.819 40.3857L792.927 37.4609L796.497 34.9541V32.8652L794.712 32.0293L799.174 32.8652V36.207H797.389L798.281 40.3848C796.352 40.4837 794.578 42.1801 792.926 43.3096L795.604 43.7275C795.656 46.2223 792.049 46.6113 795.157 48.7412L796.943 47.0703C798.923 49.4254 800.179 46.5661 798.728 46.2344L797.389 44.5635L802.743 45.3994C802.561 43.6802 804.477 41.8865 806.314 42.0566V40.3857H810.776L811.668 42.4746C811.544 45.1324 808.813 43.9247 807.205 45.8164C806.292 46.8911 806.435 47.6147 807.651 47.9053C809.146 48.2622 810.733 47.9504 811.668 46.6523L810.776 44.5635C812.439 45.3566 812.959 46.7679 815.238 46.2344L816.131 47.9053H813.9L812.561 49.1582L811.669 54.5889L806.314 53.7529L806.761 52.082H808.099V50.4111L806.314 49.5752L808.991 48.7393C807.767 48.5628 806.032 49.0058 804.976 48.7393C804.248 48.5556 803.574 46.4916 801.852 47.0684L800.959 49.5752C801.199 49.7873 804.639 48.889 803.637 50.8281C802.702 52.6374 800.313 53.2691 798.282 52.917L799.174 56.2588C801.666 56.1361 803.297 53.9248 805.867 54.5879C806.3 54.6995 807.066 55.9088 807.652 56.2588C807.95 56.2588 808.202 55.4783 808.545 55.4229C810.637 55.0857 811.58 56.0918 813.453 56.2588L811.668 57.9297L814.345 61.2725L815.237 57.9297L818.807 58.7656L816.13 55.4229L821.484 56.2588V58.7656H819.699V60.8545L817.914 61.2725C817.779 62.8393 819.527 62.2 820.145 61.2725L821.484 62.5254L819.698 63.7783L825.499 62.1074L828.622 62.9424L827.731 60.8535L830.408 59.6006L832.193 62.5254L829.516 65.0322C830.687 65.7922 830.651 67.8447 830.408 69.21C830.31 69.7599 828.686 69.8077 830.408 70.8809L827.651 73.4629C828.651 72.8369 829.838 72.5567 830.855 72.1338C831.222 71.981 831.398 71.4239 831.746 71.2979C832.474 71.0367 833.712 71.7394 834.424 70.4619L837.548 72.9688L836.655 69.627L834.87 67.9561C836.771 69.2398 837.628 70.07 840.225 69.627V68.791H838.44V68.373L841.117 66.2842C841.423 66.8596 840.386 68.7174 840.225 68.791C841.97 68.0517 844.022 69.627 844.241 69.627C844.526 69.6267 844.75 68.9164 845.133 68.791C845.637 68.6264 846.297 68.9276 846.472 68.791C846.621 68.6739 846.325 68.1033 846.472 67.9551L842.902 67.9551V65.4482H841.564L841.117 63.7773L847.364 61.2705L848.256 64.1953L845.579 65.4482L846.471 67.9551C846.792 67.6329 848.326 67.0702 848.702 66.2842L850.041 68.791C846.698 67.641 846.495 71.776 845.133 72.1328C844.055 72.4154 841.834 71.3327 842.009 72.9688L847.363 72.9688V70.4619L853.61 69.626L851.825 67.9551C853.008 67.9393 854.212 67.9804 855.395 67.9551C855.287 66.7464 855.801 65.7862 854.502 65.0303V64.1953L857.18 62.1064V65.4482L860.749 64.6133L861.642 67.9551C859.569 67.9852 857.467 67.9108 855.395 67.9551C855.419 68.2313 855.376 68.5132 855.395 68.791H856.734L856.287 70.4619L858.072 69.209L860.749 68.791L860.303 71.2979C861.715 70.1747 863.389 69.3919 865.211 69.627L866.996 67.9561L866.104 72.1338L866.996 68.792L872.351 67.9561L873.243 64.6143H871.458C870.771 59.3198 874.782 59.2563 879.49 59.6006C879.742 61.2786 878.386 62.371 876.813 62.1074V63.7783L878.598 65.4492L875.028 63.7783C874.885 65.4452 876.393 65.5347 875.028 67.1201H876.367L880.383 70.0449L874.136 71.7158L880.383 72.1338L876.814 74.6406H882.168L881.722 70.4629L883.061 75.4766C884.613 75.3112 886.506 75.7196 887.969 75.4766C888.296 75.4218 888.492 74.7495 888.86 74.6406C890.459 74.1737 891.909 76.0254 893.769 75.4766L891.538 74.6406L889.753 72.9697L884.845 74.6406L886.629 71.7158C885.183 70.6172 884.492 69.7986 884.845 67.9561L882.614 69.627C881.145 68.0116 883.833 66.6534 885.737 67.1201V65.4492L891.093 66.2852L890.2 63.7783H891.985V62.1074H893.771L895.109 59.6006L899.125 58.7646V56.2578L901.803 57.0938C901.749 55.6247 902.499 54.1975 900.464 54.5869L898.234 52.916C901.328 52.5497 902.122 55.4749 905.373 54.5869V57.0938H907.158V58.7646H905.373L904.482 62.1074C906.001 61.916 908.002 62.3884 909.39 62.1074C909.727 62.0382 911.674 60.5366 912.067 60.4365C912.816 60.245 913.951 60.613 914.744 60.4365C915.152 60.3452 915.523 59.145 916.975 59.6016V61.2725C918.438 61.0508 920.622 61.5976 921.883 61.2725C922.373 61.1458 923.171 59.7358 923.668 59.6016C925.776 59.0348 927.886 59.1115 929.915 58.7656C930.273 58.7047 931.453 57.2798 933.039 57.9297C931.454 60.4205 932.309 59.1013 933.485 59.6006C934.094 59.8586 934.247 60.8582 935.717 60.4355C935.409 63.2517 935.618 63.1782 938.394 62.9424C938.708 61.372 936.991 62.6907 936.609 61.6895C935.821 59.6268 934.423 59.3273 933.932 58.3467C933.097 56.6821 935.899 57.2235 936.162 56.2578L939.286 57.0938L937.501 60.4355L942.856 57.9287L941.07 61.6885L942.856 62.5244L940.178 63.7773L941.517 66.2842L942.856 65.4482H941.07V64.6133H943.748V62.9424C946.462 62.4219 948.599 64.4818 951.333 63.7783C952.127 63.5741 953.171 61.581 953.565 61.2715H950.887V60.8535L952.226 59.6006H953.565V61.2715C954.116 60.8386 955.482 60.3011 956.241 60.0186C957.905 59.3996 957.831 59.7422 958.919 60.8535C958.928 61.793 957.496 60.7191 957.134 61.6895C956.737 62.7564 956.6 63.3676 955.349 64.1963L956.24 67.1211C953.651 66.3931 953.247 68.8783 950.886 68.792L951.778 65.0322L949.993 64.6143C950.294 66.4085 948.365 67.1868 947.316 68.374L949.1 71.2988C947.316 70.6831 944.985 73.5769 944.192 73.8057C943.314 74.0586 941.714 73.1161 941.961 74.6406L948.208 75.4766L949.1 72.9697L950.885 75.4766L950.439 72.9697L951.331 72.1348L949.992 71.2988L951.331 69.6279L954.901 72.1348L957.577 71.2988C959.392 73.1873 961.985 71.69 964.271 71.2988L962.485 70.4629C963.308 68.6939 964.818 67.5556 966.948 67.9561L967.841 71.2979L966.056 72.9688C966.884 72.647 969.107 70.2303 969.625 72.5508C969.863 73.6178 969.845 75.2216 968.733 75.8936C967.77 76.4743 967.014 76.2514 966.947 76.3115C966.857 76.3979 967.199 77.9678 966.056 78.4004L968.733 78.8184L968.286 80.4893L970.071 78.8184L974.088 79.6533V77.1465H977.657V78.8174L981.227 77.9814L979.442 77.1455L981.672 75.4746C982.411 76.7205 983.441 76.0834 984.35 76.3105C984.715 76.4017 984.951 77.1465 985.242 77.1465C985.539 77.1457 985.79 76.3677 986.134 76.3105C987.079 76.1554 988.25 76.4087 989.258 76.3105L988.365 78.8174H991.936V81.3242H987.919L987.473 82.9951L986.58 79.6523L984.795 80.0703V81.3232L980.779 80.4873L979.887 82.1582C981.104 83.0376 981.413 83.6092 981.226 85.083C981.126 85.8655 979.505 85.2208 978.995 86.3359L979.442 82.1582L976.764 82.9941C978.742 85.2064 976.513 86.3875 976.764 88.8428L979.442 87.1719L980.333 90.0967L975.871 94.6914C977.685 94.735 979.236 95.0666 980.333 93.4385C980.477 93.2247 980.204 92.7751 980.333 92.6025C981.664 90.8359 983.846 90.4742 985.242 88.8438L987.473 89.6787V88.0078C989.322 88.3132 990.152 86.5695 991.488 85.501L994.166 86.3369L995.505 85.084L994.612 82.9951L998.182 83.8311V82.1602H1001.31L1002.64 80.9063C1003.11 80.0505 1000.33 81.3912 1000.86 79.2354C1001.06 78.4231 1001.99 78.8769 1002.64 78.8184L1004.43 81.7422C1003.46 83.0276 1002.5 83.1859 1000.86 82.9951L1001.75 85.9199L1000.41 87.1729L997.29 86.3369V88.4258C996.158 90.0207 994.741 89.742 992.827 89.6787L993.72 91.7676L991.488 93.8564L987.473 94.6924L988.364 96.7813C988.016 97.9013 983.499 98.5123 987.026 98.8701L990.596 94.6924H993.274L994.611 93.4395L993.72 92.6035C996.176 90.9437 998.795 88.4583 1002.2 88.8438L1002.64 86.3369L1006.21 88.0078V84.666L1008.45 85.502L1011.57 83.4131L1010.68 82.5771L1011.57 81.7422L1010.68 80.4893H1012.91L1014.25 79.2354V77.1475H1020.05L1023.62 72.9697L1024.96 74.6406C1024.34 72.4839 1026.66 72.5421 1027.19 72.1338C1027.91 71.5742 1029.43 69.7386 1029.86 69.627C1032.14 69.0398 1034.37 70.3215 1033.88 66.2852C1036.38 66.9714 1038.3 64.5272 1039.68 66.2852L1042.8 64.1963L1041.91 61.2715L1044.59 62.1074V64.6143H1046.38V62.9434L1050.84 62.1084L1051.73 58.7656H1054.41L1053.52 57.0947L1056.19 55.4238C1054.73 55.2024 1052.54 55.7491 1051.28 55.4238C1050.59 55.245 1048.68 52.651 1047.71 52.082C1047.28 53.0198 1046.16 52.7779 1045.93 52.918C1044.54 53.7514 1044.41 54.7797 1044.59 56.2598L1041.02 56.6777L1043.7 57.5137L1041.91 57.9316V59.6025L1039.24 58.7666L1039.68 60.4375L1037.45 60.0195C1036.03 61.502 1033.32 62.0221 1031.21 62.1084L1030.31 65.4502H1028.53V67.1211C1027.06 66.671 1026.76 67.8288 1026.3 67.957C1024.6 68.4263 1022.07 67.2749 1022.28 70.4639C1021.86 70.4109 1021.33 70.6061 1020.94 70.4639C1020.55 70.3198 1020.34 69.639 1020.05 69.6279C1019.9 69.6237 1019.14 70.9208 1017.82 70.4639L1018.71 72.1348C1016.23 71.645 1014.75 73.1888 1012.46 72.9697C1012.72 74.6755 1011.88 76.2436 1010.68 77.5654L1011.57 79.6543H1007.11C1006.45 77.216 1008.79 78.4147 1009.79 76.7305C1010.02 76.3339 1009.62 75.6325 1009.79 75.4766H1011.57L1010.68 74.2236L1011.57 71.2988L1008 72.1348L1008.89 73.8057C1007.61 73.6823 1006.1 73.9924 1004.88 73.8057C1004.54 73.7542 1004.33 73.0283 1003.99 72.9697C1002.26 72.6754 999.963 72.7674 999.078 74.2227C997.904 76.1554 996.493 75.9121 995.509 77.5645C995.274 77.9594 995.675 78.6624 995.509 78.8184C994.021 78.8564 991.845 79.1744 991.046 77.5645C989.833 75.1163 993.715 77.264 994.17 77.1475L995.509 74.6406C993.103 76.1103 990.168 75.2882 987.477 75.4766L992.385 72.1348L998.187 71.2988C997.777 68.633 1002.94 67.8058 1000.86 65.4502H1002.65V63.7793L1005.33 65.4502L1006.22 61.2725C1006.48 60.9962 1009.22 64.2585 1009.79 61.6904C1010.36 59.1395 1008.34 57.8204 1007.12 55.8418L1008.9 55.4238V53.7529H1010.69V55.4238C1011.67 56.3449 1017.06 51.389 1018.27 53.7529L1017.82 51.6641L1021.39 49.5752V51.2461H1024.07L1025.41 48.7393L1029.87 49.5752L1031.66 51.2461L1031.21 46.2324L1035.67 47.9033L1033 44.5605H1035.67V42.8896C1038.37 43.3115 1040.12 41.6327 1042.81 42.0537V40.3828H1047.28L1048.17 38.2949L1047.28 35.3701L1048.17 37.041L1052.63 37.877V32.8633L1055.31 34.9521L1054.42 39.1299L1057.99 43.3076V44.1426L1052.63 49.5732L1056.65 48.7373L1058.88 49.5732V52.0791H1062.45C1062.68 48.2828 1066.52 49.0267 1066.02 52.915C1068.42 52.7694 1069.14 50.4353 1072.26 51.2441V48.7373H1074.5C1076.2 47.6776 1075.9 46.3514 1075.83 44.5605L1074.94 47.0664H1072.26L1071.37 44.5605L1070.92 49.5732C1067.91 49.2505 1066.68 51.627 1064.68 48.7373L1060.66 51.2441L1061.55 47.9023H1064.23C1063.66 46.0616 1066.29 45.3409 1066.91 44.1426C1067.5 42.9888 1066.26 42.2459 1065.12 43.3076C1064.22 44.1577 1064.35 42.983 1063.79 42.8896C1062.84 42.7322 1061.67 42.9894 1060.66 42.8896L1059.77 39.5479H1061.55L1060.66 37.459L1066.02 33.6992L1065.13 41.2188C1066.53 40.5665 1067.06 39.6856 1068.25 41.2188L1068.7 39.5479L1070.48 39.9658V41.2188C1071.94 41.623 1072.05 40.7018 1072.71 40.3828C1072.97 40.257 1073.42 40.4944 1073.6 40.3828C1074.92 39.5993 1074.62 38.5861 1075.39 37.877L1077.62 42.0537V35.7881L1080.3 34.5352L1079.4 31.1934C1080.73 30.7359 1081.49 32.0339 1081.64 32.0283C1081.94 32.0159 1082.19 31.2468 1082.53 31.1934C1083.63 31.0232 1085.16 31.4345 1086.1 31.1934C1087.13 30.9258 1089.82 27.0957 1091.45 29.5225L1093.24 27.8516L1093.68 31.1934C1094.05 31.6082 1094.69 30.4453 1095.02 30.3574C1097.69 29.6634 1100.02 33.3958 1096.36 32.8643C1097.08 34.0079 1097.66 35.228 1097.25 36.624C1096.91 37.7822 1090.98 40.1485 1089.22 39.5479V41.2188L1085.65 40.3838L1086.54 42.8906L1084.76 41.2197V42.8906L1080.3 44.5615C1081.59 44.6779 1083.07 44.3859 1084.31 44.5615C1084.65 44.609 1084.88 45.3634 1085.2 45.3975C1088.3 45.7172 1093 45.8422 1094.58 42.8906L1090.11 42.4727L1093.68 41.2188V39.5479H1094.57C1094.24 42.4288 1097.04 41.5358 1098.59 42.8906L1101.27 41.2197C1103.88 42.7821 1101.71 43.884 1101.71 44.1445C1101.71 44.3084 1103.29 45.5583 1102.61 47.0693H1100.82C1100.04 49.4938 1102.7 49.8715 1102.61 52.083C1104.77 52.3939 1106.4 51.6513 1106.18 49.5762C1109.76 50.108 1110.18 46.0198 1114.21 47.0693V44.5625H1116.88V42.8916H1118.22L1118.67 44.5625L1119.56 42.8916C1121.31 42.4183 1121.67 44.2078 1123.13 44.5625C1123.22 44.1984 1123.04 43.7401 1123.13 43.3096L1124.92 42.8916L1126.7 45.8164L1124.92 47.9053C1122.53 47.8069 1125.06 44.6749 1124.92 44.5625C1124.34 44.5048 1123.61 44.678 1123.13 44.5625C1122.83 45.8336 1122.89 46.5779 1121.35 47.4873C1120 48.2802 1118.48 47.2443 1118.67 48.7402L1120.9 49.5762L1120.45 49.9941C1122.15 52.5538 1124.84 54.8845 1124.02 58.3496C1123.95 58.6548 1123.28 58.8287 1123.13 59.1846C1122.57 60.5 1122.23 62.148 1120.9 62.9443C1120.67 63.0797 1120.19 62.8224 1120.01 62.9443C1118.36 64.0303 1116.49 65.7227 1115.1 67.1221L1117.78 66.7041L1120.01 66.2861L1123.13 67.957L1122.24 65.4512L1124.03 64.6152L1121.35 63.7803L1127.59 61.2734L1124.92 64.1973L1131.61 64.6152L1132.95 65.8682L1132.06 67.1221H1133.84C1134.33 68.387 1132.95 69.0344 1132.95 69.21C1132.95 69.4878 1133.78 69.7245 1133.84 70.0459C1134.01 70.9298 1133.74 72.0265 1133.84 72.9697L1137.41 72.1348L1135.63 74.6406L1139.64 75.4766C1140.34 74.4969 1142.02 74.34 1143.21 74.6406C1143.94 74.8243 1144.61 76.8884 1146.34 76.3115L1143.66 73.8057C1147.04 72.9542 1147.88 75.9507 1150.8 75.4766V73.8057H1152.58C1152.99 73.4875 1150.2 71.7676 1153.03 72.1348C1153.91 73.5426 1157.5 74.5396 1157.94 75.8936C1158.08 76.3226 1158.25 77.9872 1157.49 77.9824H1151.69V79.6533C1148.34 79.2734 1146.69 81.6467 1147.23 84.667L1142.77 82.9961V84.667H1144.55V87.1738H1142.77V84.667H1141.87V86.7559L1140.54 88.0088H1137.86L1133.39 93.0225C1134.65 92.6022 1136.23 90.837 1136.96 90.5156C1139.28 89.4975 1137.51 91.4237 1137.41 91.7686C1137.11 92.788 1137.65 93.5124 1138.75 93.0225C1139.77 92.5695 1142.1 90.5734 1142.32 90.5156C1142.92 90.3566 1143.68 90.7159 1144.1 90.5156C1145.13 90.036 1146.39 89.2665 1147.23 88.4268L1146.34 86.7559L1149.46 83.8311C1151.52 85.6373 1153.61 87.4414 1153.48 90.0977L1150.8 92.1865L1154.37 89.6797C1156.54 89.3686 1158.16 90.1113 1157.94 92.1865H1158.83C1158.92 90.1524 1162.01 87.2545 1164.18 87.1729V85.502L1167.31 86.3379C1168.83 85.0304 1169.99 84.2529 1169.54 82.1602H1170.88L1171.32 80.4893L1173.11 80.9072L1173.56 82.1602C1174.19 81.72 1174.73 80.8264 1175.34 80.4893C1176.61 79.7856 1180.78 78.7865 1181.14 77.5645C1181.64 75.8557 1180.71 74.4371 1183.37 72.9697H1184.27C1187.54 76.6738 1188.79 73.2379 1188.28 69.6279H1190.07V67.957C1190.49 68.0115 1191.03 67.8098 1191.41 67.957C1193.04 68.5933 1192.54 69.0247 1194.98 67.957L1195.87 68.793C1196.94 67.6849 1198.44 67.0409 1198.1 65.4502H1199.88V63.7793L1203.45 62.9434C1204.03 65.6281 1201.43 66.685 1199.88 68.374L1203.45 68.792V67.1211H1205.24C1205.28 64.7117 1206.73 65.3504 1207.92 63.3613C1208.16 62.9561 1211.66 59.679 1211.93 59.6016C1212.98 59.304 1213.5 60.298 1214.16 60.8545L1213.27 61.6904L1215.06 62.1084C1214.73 60.9434 1216.43 59.1403 1217.29 58.7656C1219.21 57.9258 1218.4 60.2308 1218.63 60.8545C1218.89 61.6024 1221.01 62.1465 1220.41 63.7793L1215.95 62.1084L1217.73 63.3613L1216.39 64.6152L1215.5 63.7793L1210.59 64.6152C1210.92 66.3468 1209.06 67.1237 1207.92 68.375L1212.83 67.1221C1214.05 66.4621 1215.98 66.8774 1218.18 66.2861C1218.62 66.168 1219.38 64.9666 1219.96 64.6152C1221.03 65.7232 1222.54 66.3662 1222.2 67.957L1220.41 67.1211C1220.7 68.8195 1218.77 69.0613 1220.41 70.0459L1219.07 71.2988C1216.4 70.7671 1215.03 72.586 1212.83 73.8057C1211.35 72.21 1210.51 71.2633 1208.81 73.3877L1211.04 75.4766L1219.52 72.1348C1219.3 73.6557 1220.89 74.3315 1220.41 75.8936C1220.28 76.3233 1218.97 76.9883 1218.63 77.5645C1218.39 77.9594 1218.79 78.6624 1218.63 78.8184C1218.47 78.9633 1217.77 78.6309 1217.29 78.8184C1216.91 78.9642 1216.73 79.5551 1216.39 79.6533C1214.89 80.0894 1212.67 78.5199 1213.27 81.3242L1215.5 82.1592C1216.85 80.3648 1219.52 80.8951 1220.86 80.4883C1221.21 80.3795 1221.4 79.7545 1221.75 79.6523C1227.6 77.9728 1232.9 77.2428 1238.7 75.4746C1239.13 75.3432 1239.32 74.3375 1240.49 74.6387C1240.85 74.7313 1241.04 75.4026 1241.38 75.4746C1242.42 75.6923 1243.91 75.2594 1244.95 75.4746C1245.28 75.5419 1245.46 76.1689 1245.84 76.3105C1247.31 76.8574 1248.9 77.1315 1249.86 78.3994C1249.56 80.1059 1250.29 82.7751 1249.86 84.248C1249.73 84.6893 1247.77 86.0403 1247.18 86.7549C1247.04 86.9345 1247.32 87.4232 1247.18 87.5898C1244.4 90.8658 1240.5 93.3358 1237.37 95.9453L1243.61 96.3633V98.8701H1241.83C1242.21 101.891 1238.95 100.702 1237.36 102.63L1240.93 104.301C1240.19 105.031 1238.72 106.023 1237.81 106.39C1236.42 106.946 1232.7 108.145 1231.12 108.479C1229.54 108.81 1229.85 108.844 1228.44 108.061C1227.92 110.248 1230.02 110.132 1230.67 110.567C1231.57 111.171 1234.65 113.772 1235.13 113.909C1236.91 114.41 1237.77 112.2 1239.15 114.327L1232.01 121.012L1235.58 121.43L1233.79 123.101L1237.36 122.683V121.43L1243.61 120.594L1241.82 118.923L1247.18 120.176C1245.71 121.296 1245.05 122.087 1245.39 123.936L1240.04 123.1C1240.3 124.691 1239.06 125.846 1237.36 125.606L1238.25 128.113C1236.79 127.661 1236.49 128.823 1236.02 128.949C1235.28 129.152 1234.11 128.753 1233.35 128.949C1232.86 129.076 1232.05 130.494 1231.56 130.62C1230.16 130.983 1227.61 130.258 1226.21 130.62C1225.44 130.818 1224.77 132.906 1223.08 132.291V135.633H1194.97C1194.42 135.633 1193.26 133.908 1193.63 133.126L1195.53 132.239C1194.83 132.215 1194.54 131.548 1194.08 131.455C1191.44 130.926 1191.28 131.661 1190.06 133.126C1190.03 133.184 1189.43 132.838 1189.17 133.974C1185.71 134.498 1181.63 135.605 1178.47 133.974V135.645C1157.8 135.8 1137.11 135.436 1116.44 135.645C1072.35 136.089 1025.76 136.33 981.681 137.315C976.431 137.433 958.613 138.271 954.907 137.315C954.34 137.169 953.013 135.273 952.23 134.809L948.66 137.315C948.076 137.211 947.406 137.458 946.875 137.315C943.204 136.328 940.817 137.901 937.058 137.315C936.716 137.262 936.462 136.48 936.165 136.48C907.322 136.48 875.775 137.95 846.92 138.151C802.005 138.465 757.076 137.935 712.16 138.151C667.558 138.366 620.194 138.591 575.615 139.822C563.276 140.163 551.543 139.309 539.918 139.822C529.425 140.285 518.739 139.48 508.235 139.822L508.683 138.151L506.898 139.822C485.022 140.426 462.674 139.012 440.856 139.822C428.753 140.272 415.604 140.315 403.373 140.658C396.098 140.862 388.777 140.509 381.507 140.658L380.615 138.987L380.169 140.658C379.316 141.216 378.686 139.824 378.384 139.822C369.204 139.822 354.258 142.32 343.577 140.658C336.319 139.528 314.508 140.062 305.202 140.658C293.544 141.405 280.432 140.383 267.719 140.658C223.904 141.607 177.571 142.046 132.959 142.329C25.8459 143.009 -80.7043 142.665 -187.43 144L-189.661 142.329V144H-190V92.1445ZM32.5597 13.2393L30.7745 11.1504L29.8829 15.3281H31.6681L32.5597 13.2393ZM53.5333 13.6572C54.1129 13.6571 54.1129 12.8214 53.5333 12.8213C52.9535 12.8213 52.9535 13.6572 53.5333 13.6572ZM22.297 16.999C22.8767 16.999 22.8767 16.1631 22.297 16.1631C21.7172 16.1631 21.7172 16.999 22.297 16.999ZM41.0382 18.6699C41.618 18.6699 41.618 17.834 41.0382 17.834C40.4589 17.8351 40.4589 18.6696 41.0382 18.6699ZM2.66321 20.3408C3.24304 20.3408 3.24304 19.5049 2.66321 19.5049C2.08362 19.505 2.08362 20.3407 2.66321 20.3408ZM65.1349 22.0117C65.7147 22.0117 65.7147 21.1768 65.1349 21.1768C64.5552 21.176 64.5552 22.0117 65.1349 22.0117ZM532.778 22.8467L533.225 24.1006L532.332 25.3535H534.117L532.778 22.8467ZM77.629 25.3535C78.2084 25.3532 78.2084 24.5179 77.629 24.5176C77.05 24.5176 77.05 25.3535 77.629 25.3535ZM80.7531 25.3535H79.8605V27.0244H80.7531V25.3535ZM44.6085 26.1895C45.1879 26.1891 45.1879 25.3539 44.6085 25.3535C44.0295 25.3535 44.0295 26.1895 44.6085 26.1895ZM42.8234 27.0244C43.4032 27.0244 43.4032 26.1895 42.8234 26.1895C42.2441 26.1898 42.2441 27.024 42.8234 27.0244ZM689.402 33.7041V32.0332L686.725 32.8682L687.617 29.5264L691.187 30.3623L690.74 32.0332L693.863 31.1973V34.5391L689.402 33.7041ZM536.795 29.5313H535.01V30.3672H536.795V29.5313ZM-170.472 30.3672C-169.892 30.367 -169.892 29.5314 -170.472 29.5313C-171.051 29.5313 -171.051 30.3672 -170.472 30.3672ZM669.323 31.2021C669.903 31.2021 669.903 30.3662 669.323 30.3662C668.744 30.3671 668.744 31.202 669.323 31.2021ZM62.9044 30.3672L61.1193 32.0381H62.9044V30.3672ZM535.901 32.0381L531.44 31.2021V33.709L533.671 34.5449L535.901 32.0381ZM38.8077 31.2021H36.13V32.0381H38.8077V31.2021ZM33.007 32.0381C33.5862 32.0377 33.5862 31.2026 33.007 31.2021C32.428 31.2021 32.428 32.0381 33.007 32.0381ZM60.672 33.709C61.2518 33.709 61.2518 32.873 60.672 32.873C60.0927 32.8734 60.0927 33.7087 60.672 33.709ZM-2.69128 33.709C-2.11169 33.7089 -2.11169 32.8732 -2.69128 32.873C-3.27112 32.873 -3.27112 33.709 -2.69128 33.709ZM551.521 34.5449C552.1 34.5445 552.1 33.7094 551.521 33.709C550.941 33.709 550.941 34.5449 551.521 34.5449ZM527.423 40.3945C528.842 39.0687 530.25 40.263 529.653 37.4697L532.332 34.5449C530.067 34.112 529.216 35.2668 527.869 36.6338L528.762 37.4697L527.423 40.3945ZM516.269 34.5449L512.698 35.3799L517.161 37.8867L516.269 34.5449ZM70.9366 34.5449H69.1505V36.2158H70.9366V34.5449ZM6.67981 34.5449L4.89368 36.2158H6.67981V34.5449ZM746.521 37.8877H744.735L743.843 36.2158L745.182 41.2295L746.521 37.8877ZM63.796 37.4688V37.0508H62.0109V38.7217L63.796 37.4688ZM-0.0145264 37.8867C0.565308 37.8867 0.565308 37.0508 -0.0145264 37.0508C-0.59375 37.0512 -0.59375 37.8863 -0.0145264 37.8867ZM-4.47546 37.8867C-3.89612 37.8864 -3.89612 37.0511 -4.47546 37.0508C-5.0553 37.0508 -5.0553 37.8867 -4.47546 37.8867ZM78.5206 49.585C80.5315 48.3305 82.8525 46.8772 85.214 47.0781V45.4072L87.8917 44.1543L84.3224 43.7363C84.2426 42.7549 84.2068 42.1437 84.7687 41.2295C85.7889 39.569 86.1818 41.6357 86.9991 40.8115L83.8751 37.0518L80.7531 39.1406L81.6447 42.0654L78.9669 40.3945L80.7531 46.2432L78.9669 46.2422L78.5206 49.585ZM-120.495 38.7227C-119.915 38.7227 -119.915 37.8867 -120.495 37.8867C-121.074 37.887 -121.074 38.7224 -120.495 38.7227ZM4.44836 39.5576C5.0282 39.5576 5.0282 38.7217 4.44836 38.7217C3.86865 38.7217 3.86865 39.5576 4.44836 39.5576ZM775.971 39.9756L775.525 39.5576L773.293 40.3936V41.2285L775.971 39.9756ZM7.57239 39.5576H5.78723V40.3936H7.57239V39.5576ZM668.877 40.3936H667.984V42.0645H668.877V40.3936ZM653.706 40.3936L651.028 41.2285V42.0645L653.706 42.9004V40.3936ZM526.978 41.6465L525.639 40.3936L524.3 42.0645H526.978V41.6465ZM781.325 45.4063C780.876 43.7663 782.027 42.9596 782.218 41.6465C782.687 38.4188 778.981 42.5821 777.755 42.0645L778.648 43.7354L775.97 44.5713L780.434 43.7354L781.325 45.4063ZM1046.83 42.0645C1047.41 42.064 1047.41 41.2289 1046.83 41.2285C1046.25 41.2285 1046.25 42.0645 1046.83 42.0645ZM772.401 42.4824V42.0645H769.724V44.5713L772.401 42.4824ZM727.779 42.4824V42.0645H725.994V43.7354L727.779 42.4824ZM62.0109 42.0645H61.1193V43.7354H62.0109V42.0645ZM499.312 46.6602C500.755 45.5639 501.45 44.7438 501.097 42.9004C500.276 43.0484 498.765 42.42 498.419 43.3184C497.941 44.5578 497.394 45.8213 496.634 47.0781L501.097 48.749L499.312 46.6602ZM1054.42 42.9004L1050.85 44.5713L1052.63 46.2422L1054.42 42.9004ZM762.139 43.7354C762.718 43.7349 762.718 42.9008 762.139 42.9004C761.559 42.9004 761.559 43.7354 762.139 43.7354ZM651.92 43.7354V42.9004H647.458L649.689 44.5713L651.92 43.7354ZM71.8282 42.9004H70.9366V44.5713H71.8282V42.9004ZM-116.478 42.9004H-118.264L-116.478 44.5713V42.9004ZM767.493 44.5713C768.073 44.5711 768.073 43.7356 767.493 43.7354C766.914 43.7354 766.914 44.5713 767.493 44.5713ZM679.586 43.7354H677.801V44.5713H679.586V43.7354ZM66.0275 44.5713C66.6067 44.5709 66.6067 43.7358 66.0275 43.7354C65.4476 43.7354 65.4476 44.5713 66.0275 44.5713ZM-6.70789 44.5713C-6.95349 44.3492 -10.0923 46.6839 -11.1688 46.2422L-10.2772 48.749L-6.70789 44.5713ZM719.747 47.0781V44.5713C717.943 44.8839 718.204 46.6484 717.069 47.4961L717.516 47.9141L719.747 47.0781ZM495.295 45.4072C495.875 45.4072 495.875 44.5713 495.295 44.5713C494.717 44.5717 494.717 45.4068 495.295 45.4072ZM1068.69 45.4072H1067.8V47.0781H1068.69V45.4072ZM757.231 45.4072H752.768V46.2422H757.231V45.4072ZM512.698 45.4072H510.913V46.2422H512.698V45.4072ZM-16.9706 55.4326C-15.7856 53.4919 -14.1625 55.7031 -13.8466 55.4326L-16.5243 52.5078V50.4189H-14.7391V46.2412H-18.3085C-18.601 46.4757 -15.1204 49.0584 -17.8622 49.584C-19.2729 49.8545 -21.24 49.4004 -22.7704 49.584L-20.0946 50.4199C-20.6658 52.9257 -18.4951 53.8702 -16.9706 55.4326ZM725.102 47.0781L722.871 46.2422L722.424 46.6602L725.102 47.9131V47.0781ZM505.559 46.2422H503.775V47.0781H505.559V46.2422ZM495.295 47.9141C495.875 47.9141 495.875 47.0781 495.295 47.0781C494.717 47.0785 494.717 47.9136 495.295 47.9141ZM111.542 47.9141C112.122 47.9141 112.122 47.0781 111.542 47.0781C110.963 47.0783 110.963 47.9139 111.542 47.9141ZM497.527 50.8379C496.168 49.0776 493.958 50.0104 492.619 47.9131L492.172 48.3311C493.546 50.4348 495.47 50.0861 497.08 51.2559L497.527 50.8379ZM1081.64 48.749C1082.22 48.7487 1082.22 47.9144 1081.64 47.9141C1081.06 47.9141 1081.06 48.749 1081.64 48.749ZM517.607 48.749C518.186 48.749 518.186 47.9141 517.607 47.9141C517.028 47.9141 517.028 48.749 517.607 48.749ZM455.581 47.9141L453.796 49.167L455.135 50.4199H455.581V47.9141ZM84.3234 54.5977C84.4677 52.9315 82.9584 52.8411 84.3234 51.2549H82.9845V48.748L79.8605 52.9268L84.3234 54.5977ZM1115.1 48.749H1114.21V50.4199H1115.1V48.749ZM718.408 49.585C718.988 49.5849 718.988 48.7491 718.408 48.749C717.829 48.749 717.829 49.585 718.408 49.585ZM513.145 49.585C513.724 49.585 513.724 48.749 513.145 48.749C512.565 48.7492 512.565 49.5848 513.145 49.585ZM458.26 48.749L456.475 50.4199H458.26V48.749ZM793.82 50.8379C792.837 49.5502 791.912 49.3959 790.251 49.585V51.2559H793.82V50.8379ZM723.763 50.4199C724.343 50.4199 724.343 49.584 723.763 49.584C723.183 49.585 723.183 50.4197 723.763 50.4199ZM64.2423 50.4199C64.8221 50.4199 64.8221 49.584 64.2423 49.584C63.6631 49.5844 63.6631 50.4195 64.2423 50.4199ZM1110.64 49.585L1108.85 51.2559H1110.64V49.585ZM1053.52 50.4209L1051.29 49.585L1049.95 52.0918H1053.52V50.4209ZM727.779 57.1045C728.499 54.4838 725.495 54.0308 725.994 51.6738L727.779 51.2559L726.441 49.585C724.878 51.452 723.748 51.8588 721.532 50.4209C721.046 52.8307 722.213 51.7166 722.871 52.0918C724.051 52.7645 724.444 53.7519 724.209 55.0156L722.424 57.1045L725.548 57.9395L727.779 57.1045ZM1100.38 51.2559C1100.96 51.2559 1100.96 50.4209 1100.38 50.4209C1099.8 50.4203 1099.8 51.2557 1100.38 51.2559ZM1077.17 51.2559C1077.75 51.2559 1077.75 50.4209 1077.17 50.4209C1076.59 50.4201 1076.59 51.2559 1077.17 51.2559ZM746.966 51.2559C747.546 51.2559 747.546 50.4209 746.966 50.4209C746.388 50.4205 746.388 51.2555 746.966 51.2559ZM556.875 52.0918C557.455 52.0916 557.455 51.2561 556.875 51.2559C556.295 51.2559 556.295 52.0918 556.875 52.0918ZM491.279 52.9277L493.065 52.5098L490.387 51.2559V54.5986H491.279V52.9277ZM140.547 52.0918L142.332 52.5098L139.654 51.2559V53.7627H140.547V52.0918ZM-73.6415 53.7627L-77.2108 55.4336L-75.4257 52.0918C-77.4171 51.776 -77.1818 52.2762 -77.6571 53.7627C-77.9152 54.5683 -78.369 55.2463 -78.1034 56.2695L-75.8729 57.1045L-73.6415 53.7627ZM718.854 52.9268C717.507 53.2747 717.233 52.3529 716.177 52.0908V54.5977H717.515L718.854 52.9268ZM714.393 52.0908H712.607V52.9268H714.393V52.0908ZM486.371 52.9268C486.951 52.9267 486.951 52.0908 486.371 52.0908C485.791 52.0916 485.791 52.9268 486.371 52.9268ZM211.496 52.9268C212.076 52.9268 212.076 52.0908 211.496 52.0908C210.917 52.0917 210.917 52.9267 211.496 52.9268ZM1040.14 52.0918H1039.24V54.5986H1040.14V52.0918ZM1030.32 52.0918H1027.64V53.7627H1028.98L1030.32 52.0918ZM706.36 54.5977C708.505 54.5463 710.436 55.1594 711.715 53.3447L711.269 52.9268C710.179 54.3332 708.156 53.6257 706.36 53.7617V54.5977ZM1092.34 53.7627C1092.92 53.7627 1092.92 52.9277 1092.34 52.9277C1091.77 52.9271 1091.77 53.7626 1092.34 53.7627ZM795.606 52.9277H793.82V53.7627H795.606V52.9277ZM637.195 53.7627C637.775 53.7624 637.775 52.928 637.195 52.9277C636.616 52.9269 636.616 53.7627 637.195 53.7627ZM223.991 53.7627C224.571 53.7623 224.571 52.9281 223.991 52.9277C223.411 52.9269 223.411 53.7627 223.991 53.7627ZM74.9523 53.7627C75.532 53.7626 75.532 52.9278 74.9523 52.9277C74.3724 52.9269 74.3724 53.7627 74.9523 53.7627ZM-93.2743 52.9277H-95.0594V53.7627H-93.2743V52.9277ZM1042.37 54.5977C1042.95 54.5975 1042.95 53.7618 1042.37 53.7617C1041.79 53.7625 1041.79 54.5977 1042.37 54.5977ZM78.5216 54.5977C79.1006 54.5977 79.1006 53.7617 78.5216 53.7617C77.9419 53.7626 77.9419 54.5976 78.5216 54.5977ZM792.927 53.7627H791.143L792.035 57.1045H792.927V53.7627ZM130.73 53.7627H129.837V56.2695H130.73V53.7627ZM126.267 53.7627H125.375V55.4336H126.267V53.7627ZM735.812 54.5986H734.026V55.4336H735.812V54.5986ZM640.766 56.2695C640.953 56.2684 641.644 54.9763 642.996 55.4336V54.5986H637.642V55.4336C639.255 54.7956 640.591 56.2695 640.766 56.2695ZM244.517 55.4336C245.096 55.4336 245.096 54.5986 244.517 54.5986C243.938 54.5979 243.938 55.4335 244.517 55.4336ZM-71.41 55.4336C-70.8302 55.4336 -70.8302 54.5986 -71.41 54.5986C-71.9897 54.5987 -71.9897 55.4335 -71.41 55.4336ZM79.8605 57.1045C80.9773 57.6438 82.9788 55.7677 82.5382 55.4336C81.4211 54.8946 79.4182 56.7713 79.8605 57.1045ZM96.3702 56.2695C96.9501 56.2695 96.9501 55.4336 96.3702 55.4336C95.7914 55.4336 95.7914 56.2695 96.3702 56.2695ZM76.7365 56.2695C77.3163 56.2695 77.3163 55.4336 76.7365 55.4336C76.1577 55.4337 76.1577 56.2694 76.7365 56.2695ZM93.2462 56.6865L92.7999 56.2686C92.036 57.3733 91.0052 57.1472 89.6769 57.1045L91.0157 58.7754L93.2462 56.6865ZM171.783 57.1045H173.568V56.2695H169.998L171.336 58.7754L171.783 57.1045ZM1011.13 57.1045H1010.68V58.7754H1012.47L1011.13 57.1045ZM800.514 57.9404C801.093 57.9403 801.093 57.1046 800.514 57.1045C799.934 57.1037 799.934 57.9404 800.514 57.9404ZM501.543 57.9404C502.123 57.9404 502.123 57.1045 501.543 57.1045C500.964 57.1038 500.964 57.9403 501.543 57.9404ZM169.105 57.1045H168.213V58.7754H169.105V57.1045ZM-124.064 57.9404C-123.485 57.9404 -123.485 57.1045 -124.064 57.1045C-124.644 57.1037 -124.644 57.9404 -124.064 57.9404ZM808.992 57.9395H807.207V58.7754H808.992V57.9395ZM216.851 58.7754C217.431 58.7754 217.431 57.9395 216.851 57.9395C216.271 57.9397 216.272 58.7751 216.851 58.7754ZM134.745 58.7754C135.324 58.7754 135.324 57.9395 134.745 57.9395C134.167 57.9406 134.167 58.7751 134.745 58.7754ZM120.913 57.9404H120.021V59.6113H120.913V57.9404ZM95.924 57.9404H95.0314V59.6113H95.924V57.9404ZM727.779 58.7754H725.102V59.6113H727.779V58.7754ZM716.177 58.7754H714.393V60.4463H716.177V58.7754ZM470.753 59.1934V58.7754H468.968V60.4463L470.753 59.1934ZM182.939 59.6113C183.518 59.6109 183.518 58.7758 182.939 58.7754C182.359 58.7754 182.359 59.6113 182.939 59.6113ZM161.072 58.7754H160.181V60.4463H161.072V58.7754ZM-28.1259 58.7754L-29.911 60.4463H-28.1259V58.7754ZM719.301 60.4463C719.88 60.4459 719.88 59.6118 719.301 59.6113C718.721 59.6105 718.721 60.4463 719.301 60.4463ZM692.526 60.4463C693.106 60.4463 693.106 59.6113 692.526 59.6113C691.948 59.6108 691.948 60.446 692.526 60.4463ZM568.031 59.6113H566.245V61.2822H568.031V59.6113ZM92.3546 64.2061H89.6769L90.5695 59.6113L88.7833 61.6992V65.459H88.7843L92.3546 64.2061ZM-48.2059 60.4463C-47.6261 60.4463 -47.6261 59.6113 -48.2059 59.6113C-48.7856 59.6106 -48.7856 60.4462 -48.2059 60.4463ZM-91.4901 59.6113L-93.2753 61.2822H-91.4901V59.6113ZM926.349 61.2822C926.929 61.2822 926.929 60.4463 926.349 60.4463C925.769 60.4474 925.769 61.2819 926.349 61.2822ZM733.133 61.2822L729.564 60.4463L730.902 62.9531L733.133 61.2822ZM190.077 61.2822C190.657 61.2822 190.657 60.4463 190.077 60.4463C189.498 60.4471 189.498 61.2822 190.077 61.2822ZM76.2911 63.7881L77.1827 65.459C76.9318 63.7804 78.2876 62.6896 79.8605 62.9531L78.5216 60.4463L75.8448 61.2822L71.8282 63.3711L72.7208 65.459L76.2911 63.7881ZM902.698 61.6992V61.2813L899.129 61.2822V62.5352L900.468 63.7881L902.698 61.6992ZM800.068 62.1172V61.2822L797.39 62.5352L797.836 62.9531L800.068 62.1172ZM726.886 66.2949C726.502 64.3774 727.878 62.9702 728.671 61.2822L725.102 61.6992L725.994 65.459L721.978 63.7881L721.531 66.2949L724.655 67.1309L726.886 66.2949ZM712.608 61.2822H710.822V62.1172H712.608V61.2822ZM183.83 62.1172C184.41 62.1172 184.41 61.2822 183.83 61.2822C183.251 61.2824 183.251 62.117 183.83 62.1172ZM148.579 61.2822L146.794 61.2822V62.1172L148.579 62.1172V61.2822ZM-34.8202 62.1172C-34.2404 62.1172 -34.2404 61.2822 -34.8202 61.2822C-35.3987 61.2826 -35.3987 62.1168 -34.8202 62.1172ZM1211.93 62.9531C1212.51 62.953 1212.51 62.1173 1211.93 62.1172C1211.35 62.1172 1211.35 62.9531 1211.93 62.9531ZM171.781 75.4854L175.351 77.9922V74.6504L178.475 75.4863L182.49 73.3975L178.921 72.9795L179.814 68.8018L182.49 67.9658L178.921 66.2949L181.599 65.877L185.168 67.1299C184.132 65.1323 184.202 63.4548 182.044 62.1172L179.814 62.9521L180.705 65.459H177.136C177.88 60.8951 173.864 63.0196 174.459 66.2949L172.674 64.624L171.781 66.2949C169.852 65.9784 168.759 65.2222 166.429 65.459C166.48 66.0048 166.404 66.5792 166.428 67.1289L169.105 66.293C168.98 67.9329 169.288 69.6954 169.105 71.3076C171.023 71.1612 170.573 70.9008 171.782 70.0547C173.212 69.0543 172.768 68.1361 174.46 70.0547L169.552 73.8145C166.706 74.04 169.003 72.206 169.105 71.3076C168.521 71.3519 167.908 71.287 167.319 71.3076L168.212 69.2188L166.427 68.8008V73.8145H162.858C162.35 74.2751 164.39 78.8122 166.427 77.9922L165.534 74.6504L169.996 75.9033L170.889 78.8281L171.781 75.4854ZM158.396 66.7119C159.741 68.0321 158.77 69.5732 161.52 68.8008C162.777 68.4475 163.424 65.7656 166.427 65.459C166.283 63.9323 166.764 62.65 164.643 62.1172L161.072 63.7881L162.858 66.2949L159.734 65.459L158.396 66.7119ZM-36.1581 62.1172H-37.0507V63.7881H-36.1581V62.1172ZM-124.064 64.624C-121.738 63.7533 -123.657 60.8786 -125.403 63.3711V64.624H-124.064ZM114.22 67.1299V66.2949H115.559L114.22 62.9521L109.312 64.623L111.988 65.458V67.9658L114.22 67.1299ZM806.315 62.9531H804.529V63.7881H806.315V62.9531ZM720.193 63.7881C720.772 63.7881 720.772 62.9531 720.193 62.9531C719.614 62.9533 719.614 63.7879 720.193 63.7881ZM618.901 62.9531H618.008V64.624H618.901V62.9531ZM431.039 65.459C432.451 64.3359 434.126 63.5532 435.947 63.7881V62.9531H433.717L430.593 65.041L431.039 65.459ZM-38.3895 63.7881C-37.8097 63.7881 -37.8097 62.9531 -38.3895 62.9531C-38.9692 62.9532 -38.9692 63.788 -38.3895 63.7881ZM464.507 69.6367C464.871 68.0872 463.966 67.2335 463.614 65.877C463.386 65 464.32 63.566 462.722 63.7881V68.3838L464.507 69.6367ZM898.684 64.624C899.263 64.6236 899.263 63.7886 898.684 63.7881C898.104 63.7881 898.104 64.624 898.684 64.624ZM818.809 65.041V63.7881H817.024V66.2949H817.47L818.809 65.041ZM796.497 63.7881H794.712C795.085 65.0496 794.1 65.3066 793.82 66.2949H796.497V63.7881ZM616.223 63.7881C614.431 64.2329 614.221 65.5621 614.438 67.1299H616.223V63.7881ZM414.529 64.2061V63.7881H412.744V65.459L414.529 64.2061ZM405.158 64.624C405.738 64.6237 405.738 63.7884 405.158 63.7881C404.579 63.7881 404.579 64.624 405.158 64.624ZM393.557 64.624C394.136 64.6236 394.136 63.7885 393.557 63.7881C392.977 63.7881 392.977 64.624 393.557 64.624ZM186.508 64.624C187.088 64.6239 187.088 63.7882 186.508 63.7881C185.929 63.7881 185.929 64.624 186.508 64.624ZM85.6613 64.624C86.2405 64.6236 86.2405 63.7885 85.6613 63.7881C85.0814 63.7881 85.0823 64.624 85.6613 64.624ZM934.381 65.459C934.961 65.459 934.961 64.624 934.381 64.624C933.801 64.6242 933.801 65.4588 934.381 65.459ZM929.473 64.624L927.688 66.2949H929.473V64.624ZM637.642 64.624H635.857L637.642 66.2949V64.624ZM611.314 65.459C611.893 65.459 611.893 64.624 611.314 64.624C610.735 64.624 610.735 65.459 611.314 65.459ZM373.03 67.1299L374.369 64.624L369.015 65.877L372.584 65.459L369.906 69.6367L373.03 67.1299ZM-132.988 65.459C-132.409 65.4586 -132.409 64.6244 -132.988 64.624C-133.568 64.624 -133.568 65.459 -132.988 65.459ZM1014.7 66.2949C1015.28 66.2949 1015.28 65.459 1014.7 65.459C1014.12 65.459 1014.12 66.2949 1014.7 66.2949ZM938.398 65.877V65.459H936.612V67.1299L938.398 65.877ZM923.672 66.2949C924.251 66.2947 924.251 65.4593 923.672 65.459C923.092 65.459 923.092 66.2949 923.672 66.2949ZM619.792 66.2949V65.459L617.114 66.7129L617.562 67.1299L619.792 66.2949ZM574.724 66.2949C575.303 66.2946 575.303 65.4593 574.724 65.459C574.145 65.459 574.145 66.2949 574.724 66.2949ZM154.38 66.2949C154.96 66.2949 154.96 65.459 154.38 65.459C153.8 65.4592 153.8 66.2947 154.38 66.2949ZM105.295 66.2949C105.875 66.2949 105.875 65.459 105.295 65.459C104.716 65.4593 104.716 66.2946 105.295 66.2949ZM398.465 71.7256L397.571 68.8008C397.399 68.6455 396.653 69.0215 396.233 68.8008C394.597 67.9427 395.474 66.1778 394.002 66.2949C393.858 67.9607 395.366 68.0507 394.002 69.6367H395.787L394.895 72.9785L398.465 71.7256ZM1130.27 66.2949H1128.49V67.1299H1130.27V66.2949ZM569.368 75.4854C570.285 76.7684 571.82 76.2635 573.385 76.3213C570.771 71.5083 574.257 72.6872 577.401 72.1436C577.742 72.0842 577.954 71.363 578.293 71.3076C579.502 71.1098 582.384 72.1045 582.309 70.4717L575.169 69.6367L576.954 66.2949L575.615 67.9658C574.054 67.9181 572.664 65.9602 571.153 67.9658C570.228 66.5411 569.16 68.4724 567.137 67.9658C565.789 71.0021 572.002 68.5131 570.706 70.8896C570.54 71.1943 568.827 72.7946 568.476 72.9785C568.054 73.1985 567.304 72.8228 567.137 72.9785C566.971 73.1344 567.372 73.8364 567.137 74.2314C566.85 74.7158 564.882 75.9618 565.353 76.3213L569.368 75.4854ZM465.845 67.1299C466.424 67.1295 466.424 66.2953 465.845 66.2949C465.266 66.2957 465.266 67.1299 465.845 67.1299ZM416.314 67.1299L414.083 66.2949L411.852 67.9658H416.314V67.1299ZM-28.1268 67.9658V67.1299L-31.2499 66.2949L-30.8036 67.5479L-31.6962 68.8018L-28.1268 67.9658ZM430.593 67.5479C429.662 65.3702 426.592 67.1666 429.254 68.8018H430.593V67.5479ZM634.518 67.9658C635.097 67.9658 635.097 67.1299 634.518 67.1299C633.938 67.1299 633.938 67.9658 634.518 67.9658ZM402.481 67.9658C403.06 67.9658 403.06 67.1299 402.481 67.1299C401.902 67.13 401.902 67.9657 402.481 67.9658ZM449.781 74.6504C451.437 73.2504 453.406 72.716 455.582 72.9795L454.691 70.4727L457.367 71.3086V68.8018H460.937L459.599 67.9658L460.045 67.5479L456.476 67.9658V69.6367L453.352 70.4727L452.013 67.1309V70.4727L447.55 71.3086L447.997 72.9795H449.334L449.781 74.6504ZM1119.56 67.9658H1118.67V69.6367H1119.56V67.9658ZM906.715 68.8018C907.295 68.8018 907.295 67.9658 906.715 67.9658C906.136 67.9662 906.136 68.8014 906.715 68.8018ZM827.287 68.8018C827.867 68.8018 827.867 67.9658 827.287 67.9658C826.708 67.9659 826.708 68.8016 827.287 68.8018ZM724.655 68.8018C725.235 68.8016 725.235 67.966 724.655 67.9658C724.076 67.9658 724.076 68.8018 724.655 68.8018ZM893.775 70.8906C894.256 71.2129 895.897 72.1759 896.451 71.7266V69.6377C894.629 69.8727 892.955 69.0899 891.543 67.9668L891.199 68.8252C892.298 69.0673 892.912 70.3133 893.775 70.8906ZM823.717 69.6367C824.297 69.6367 824.297 68.8008 823.717 68.8008C823.138 68.8016 823.138 69.6367 823.717 69.6367ZM421.222 69.6367C421.802 69.6367 421.802 68.8008 421.222 68.8008C420.643 68.802 420.643 69.6363 421.222 69.6367ZM401.142 68.8008H398.465V69.6367H401.142V68.8008ZM373.476 74.6504C375.321 72.9511 376.429 74.6581 376.6 74.6504C376.912 74.6322 377.151 73.8683 377.492 73.8145C378.973 73.5826 380.839 73.9728 382.401 73.8145L381.508 72.1436L386.863 71.3076V68.8008L385.077 70.4717C382.403 70.3759 379.565 69.9713 379.723 72.9785L378.83 72.9785V71.3076C376.901 71.0045 375.48 71.6148 373.922 72.1436C372.963 72.4689 373.634 73.881 373.476 74.6504ZM1218.63 70.0547L1217.29 68.8018L1216.84 69.2197L1218.18 70.4727L1218.63 70.0547ZM1207.02 72.9795C1206.98 71.7362 1206.74 70.771 1207.92 70.0547L1207.47 69.6367L1205.24 71.7256L1207.02 72.9795ZM902.699 69.6367H900.022V70.4727H902.699V69.6367ZM418.991 69.6367H416.314V70.4727H418.991V69.6367ZM113.774 70.0547L113.326 69.6367L111.988 70.8896L112.435 71.3076L113.774 70.0547ZM-170.918 70.4727C-170.443 72.1507 -169.023 72.3462 -167.349 72.1436L-168.687 69.6367L-170.918 70.4727ZM391.324 69.6377H387.755V70.4727C388.834 70.308 389.35 70.4889 389.985 71.3086L391.324 69.6377ZM938.843 71.3076C939.423 71.3076 939.423 70.4717 938.843 70.4717C938.263 70.4717 938.264 71.3076 938.843 71.3076ZM254.334 71.3076C254.914 71.3076 254.914 70.4717 254.334 70.4717C253.754 70.4725 253.754 71.3076 254.334 71.3076ZM854.507 70.4727H853.614V72.1436H854.507V70.4727ZM823.271 72.9795C824.007 73.5548 828.446 71.0109 827.733 70.4727L823.271 72.1436V72.9795ZM463.167 72.3301V70.4727L461.383 72.1436L458.259 71.7256L459.598 73.8145L463.167 72.3301ZM364.552 70.4727H363.659V72.1436H364.552V70.4727ZM1200.78 71.3076C1200.34 71.6416 1202.34 73.5183 1203.46 72.9785C1203.9 72.6445 1201.89 70.7689 1200.78 71.3076ZM1044.15 72.1436C1044.73 72.1435 1044.73 71.3077 1044.15 71.3076C1043.57 71.3076 1043.57 72.1436 1044.15 72.1436ZM-164.672 75.0684L-165.563 71.3086L-166.456 73.8154L-170.918 75.9043V77.9932L-167.349 77.1572V80.499L-164.672 75.0684ZM599.267 75.9033C598.953 76.9529 600.478 78.2233 601.497 77.9922L601.051 76.3213L604.175 77.1572L605.513 75.9043L604.621 74.2334L607.298 72.1445L604.621 72.1436C605.385 75.5406 599.855 73.9361 599.267 75.9033ZM305.651 72.1436H303.865V72.9795H305.651V72.1436ZM191.862 72.9795C192.442 72.9795 192.442 72.1436 191.862 72.1436C191.284 72.1436 191.284 72.9794 191.862 72.9795ZM583.649 91.3613C585.07 89.5877 587.496 90.0789 589.003 89.6904C589.493 89.5638 590.291 88.1541 590.787 88.0195C593.427 87.3103 595.374 86.3398 597.928 85.5127C598.559 85.3083 599.316 84.1006 601.052 84.6768L601.943 81.7529C601.098 81.0898 599.179 82.933 598.819 83.0059C597.675 83.2384 596.063 82.8516 594.804 83.0059C594.535 81.5899 595.218 80.503 595.695 79.2461C596.007 78.4261 596.799 78.8732 597.482 78.8281L595.695 77.9922C595.195 77.5819 597.353 76.3338 597.482 75.9033C597.648 75.3486 598.019 72.6685 596.589 72.9785L593.911 75.9033V77.9922H591.234L592.126 75.4854L587.664 77.5742L588.557 79.2451C586.165 80.7822 586.925 83.7529 584.541 85.5117H581.417L582.31 82.1699C578.834 83.2884 581.844 87.357 579.633 89.2725L583.649 91.3613ZM441.749 73.8145C442.329 73.8143 442.329 72.9787 441.749 72.9785C441.169 72.9793 441.169 73.8145 441.749 73.8145ZM243.624 73.8145C244.204 73.8145 244.204 72.9785 243.624 72.9785C243.046 72.9797 243.046 73.814 243.624 73.8145ZM897.345 73.3975V72.9795H894.667L896.006 74.6504L897.345 73.3975ZM852.276 72.9795H851.829V74.6504H853.614L852.276 72.9795ZM225.776 76.3213L222.652 73.3965L220.867 74.2324L224.438 75.4854L223.991 76.3213L225.776 78.8281V76.3213ZM871.909 74.6504C872.489 74.6504 872.489 73.8145 871.909 73.8145C871.33 73.8147 871.33 74.6501 871.909 74.6504ZM446.656 73.8145H445.764V75.4854H446.656V73.8145ZM437.733 81.335C439.316 81.9151 442.127 78.7435 441.303 77.9922C440.127 78.0808 439.349 77.5124 438.179 77.1563C436.991 76.7945 436.551 77.8203 436.84 75.4854L440.409 73.8145L435.055 74.6504V80.499L437.732 77.9922V81.335H437.733ZM408.729 74.6504C409.308 74.6502 409.308 73.8147 408.729 73.8145C408.149 73.8145 408.149 74.6504 408.729 74.6504ZM-50.8837 74.6504C-50.3044 74.65 -50.3044 73.8149 -50.8837 73.8145C-51.4626 73.8145 -51.4626 74.6504 -50.8837 74.6504ZM1194.98 75.4854C1195.56 75.485 1195.56 74.6498 1194.98 74.6494C1194.4 74.6494 1194.4 75.4854 1194.98 75.4854ZM857.631 75.4854C858.21 75.4849 858.21 74.6498 857.631 74.6494C857.051 74.6502 857.051 75.4854 857.631 75.4854ZM431.039 75.4854C431.619 75.4854 431.619 74.6494 431.039 74.6494C430.46 74.6505 430.46 75.485 431.039 75.4854ZM362.32 75.4854C362.9 75.4851 362.9 74.6497 362.32 74.6494C361.742 74.6502 361.742 75.4854 362.32 75.4854ZM352.504 75.4854C353.083 75.485 353.083 74.6497 352.504 74.6494C351.924 74.6502 351.924 75.4854 352.504 75.4854ZM207.927 75.4854C208.506 75.4851 208.506 74.6496 207.927 74.6494C207.347 74.6494 207.347 75.4854 207.927 75.4854ZM-52.2216 74.6494H-54.0067V75.4854H-52.2216V74.6494ZM858.968 80.499C858.347 77.5651 859.892 77.0419 862.092 78.8281L865.215 77.1572L863.877 74.6504C862.874 74.9417 860.602 77.0812 860.307 77.1572C859.399 77.3898 855.212 77.3139 854.06 77.1572C853.731 77.1123 853.523 76.4012 853.168 76.3213C851.642 75.9794 850.1 76.265 849.151 77.5742L853.614 77.1563L852.723 79.6631C855.024 79.7902 855.473 77.2696 858.076 77.9922L858.968 80.499ZM427.47 74.6504H427.024V76.3213H428.809L427.47 74.6504ZM327.068 75.9043L325.283 74.6504V77.1572H325.73L327.068 75.9043ZM252.995 74.6504L251.21 76.3213H252.995V74.6504ZM882.173 80.499V76.3213L879.049 75.4854L877.264 76.3213C875.412 73.8954 874.887 75.0136 872.356 75.4854L873.247 79.6631L874.14 77.9922C876.222 79.6496 877.029 77.6448 879.494 77.9922L881.279 78.8281L880.833 81.335H883.958L882.173 80.499ZM1217.73 75.4854H1214.16L1214.16 76.3213H1217.73V75.4854ZM1118.23 76.3213C1118.81 76.3212 1118.81 75.4854 1118.23 75.4854C1117.65 75.4854 1117.65 76.3213 1118.23 76.3213ZM965.171 75.9033V75.4854H962.493L963.832 77.1563L965.171 75.9033ZM611.76 76.3213L609.083 75.4854L610.421 77.9922L611.76 76.3213ZM358.305 75.9033V75.4854H356.52V77.1563L358.305 75.9033ZM1136.97 77.1572C1137.55 77.1572 1137.55 76.3213 1136.97 76.3213C1136.39 76.3216 1136.39 77.1569 1136.97 77.1572ZM1049.51 77.1572C1050.09 77.1572 1050.09 76.3213 1049.51 76.3213C1048.93 76.3214 1048.93 77.1571 1049.51 77.1572ZM869.679 79.6631C871.379 79.9029 872.613 78.748 872.357 77.1563L871.018 77.9922L869.233 76.3213L869.679 79.6631ZM477 77.5752L475.215 76.3213V78.8281H475.661L477 77.5752ZM402.481 77.1572C403.06 77.1572 403.06 76.3213 402.481 76.3213C401.902 76.3214 401.902 77.1571 402.481 77.1572ZM374.815 77.1572C375.394 77.1572 375.394 76.3213 374.815 76.3213C374.235 76.3215 374.235 77.157 374.815 77.1572ZM-156.64 76.3213H-159.316V77.9922H-157.977L-156.64 76.3213ZM-179.396 76.3213L-179.843 77.9922L-182.519 78.8281L-177.165 80.0811L-179.396 76.3213ZM352.504 77.9922C353.083 77.9919 353.083 77.1566 352.504 77.1563C351.924 77.157 351.924 77.9922 352.504 77.9922ZM891.543 80.499L892.436 81.335L895.56 78.8281C892.906 78.9516 890.785 80.1245 887.974 79.6631C887.625 79.606 887.176 78.3694 885.743 78.8281L883.958 77.1572C884.595 78.5289 885.955 79.9229 887.527 79.6641V81.335L891.543 80.499ZM607.298 78.4102L605.96 77.1572L605.513 77.5752L606.852 78.8281L607.298 78.4102ZM1138.31 80.499C1140.01 80.7389 1141.24 79.5839 1140.98 77.9922C1139.28 77.7524 1138.05 78.9073 1138.31 80.499ZM1195.87 78.8281C1196.45 78.8281 1196.45 77.9922 1195.87 77.9922C1195.29 77.9923 1195.29 78.828 1195.87 78.8281ZM1099.48 78.8281C1100.06 78.8277 1100.06 77.9926 1099.48 77.9922C1098.9 77.9922 1098.9 78.8281 1099.48 78.8281ZM570.707 78.4102L570.261 77.9922L568.922 79.2461L569.368 79.6631L570.707 78.4102ZM467.184 77.9922H465.399V78.8281H467.184V77.9922ZM459.151 80.917L456.475 79.6631L455.581 77.9922L456.028 83.0059L459.151 80.917ZM447.549 78.8281C446.201 79.1769 445.928 78.2542 444.872 77.9922V80.499H447.549V78.8281ZM393.11 77.9922H391.325V79.6631H393.11V77.9922ZM388.201 78.8281C388.781 78.8281 388.781 77.9922 388.201 77.9922C387.622 77.9925 387.622 78.8278 388.201 78.8281ZM302.526 78.8281C303.106 78.8281 303.106 77.9922 302.526 77.9922C301.947 77.9924 301.947 78.8279 302.526 78.8281ZM271.29 78.8281C271.87 78.8281 271.87 77.9922 271.29 77.9922C270.712 77.9925 270.712 78.8278 271.29 78.8281ZM215.959 85.5127C218.23 82.5889 222.442 81.998 222.652 77.9922C221.008 78.7623 220.486 80.1982 218.19 79.6631V81.334L216.405 80.499L215.959 85.5127ZM-31.6962 77.9922H-32.5878V79.6631H-31.6962V77.9922ZM980.788 79.6631C981.368 79.6631 981.368 78.8281 980.788 78.8281C980.209 78.8285 980.209 79.6627 980.788 79.6631ZM647.459 78.8281H645.674V79.6631H647.459V78.8281ZM641.211 78.8281H637.642V80.499L641.211 80.499V78.8281ZM389.986 79.6631C390.566 79.6631 390.566 78.8281 389.986 78.8281C389.407 78.8285 389.407 79.6627 389.986 79.6631ZM330.639 78.8281H328.854V79.6631H330.639V78.8281ZM1143.21 80.499C1143.79 80.499 1143.79 79.6631 1143.21 79.6631C1142.63 79.6632 1142.63 80.4989 1143.21 80.499ZM958.477 80.499C959.056 80.499 959.056 79.6631 958.477 79.6631C957.897 79.6631 957.898 80.499 958.477 80.499ZM865.662 80.499C866.242 80.499 866.242 79.6631 865.662 79.6631C865.083 79.6635 865.083 80.4986 865.662 80.499ZM835.318 80.499C835.898 80.499 835.898 79.6631 835.318 79.6631C834.74 79.6632 834.74 80.4989 835.318 80.499ZM573.831 80.499C574.411 80.499 574.411 79.6631 573.831 79.6631C573.252 79.6632 573.252 80.4989 573.831 80.499ZM463.167 80.499C463.747 80.499 463.747 79.6631 463.167 79.6631C462.588 79.6631 462.588 80.499 463.167 80.499ZM166.874 80.499C167.454 80.4989 167.454 79.6632 166.874 79.6631C166.294 79.6631 166.294 80.499 166.874 80.499ZM1199.88 80.082L1199.44 79.6641L1198.1 80.918L1198.55 81.335L1199.88 80.082ZM1016.93 80.082L1016.49 79.6641L1015.15 80.918L1015.59 81.335L1016.93 80.082ZM606.405 80.082L605.959 79.6641L604.62 80.918L605.067 81.335L606.405 80.082ZM224.438 80.082L223.991 79.6641L222.652 80.918L223.099 81.335L224.438 80.082ZM350.272 88.4365L352.057 88.0186L348.487 86.3477L352.95 85.5117L350.273 84.6758C349.63 83.1664 353.517 81.6402 350.719 80.498C348.585 79.6268 349.632 82.7866 349.381 83.0049H347.596C347.446 83.1442 347.777 83.7877 347.596 84.2578C347.457 84.6187 346.703 84.8294 346.703 85.0938C346.703 85.6518 347.92 84.8786 346.703 87.6006C346.544 87.9552 346.761 88.4579 346.702 88.8545L350.272 89.6895V88.4365ZM1074.05 80.499H1073.16V82.1699H1074.05V80.499ZM955.8 81.335C956.38 81.335 956.38 80.499 955.8 80.499C955.22 80.4992 955.22 81.3348 955.8 81.335ZM856.292 81.7529L854.953 80.499H854.507V83.0059H856.292V81.7529ZM454.69 82.1699L453.351 80.499L452.458 81.335L450.227 80.499L451.566 83.0059L454.69 82.1699ZM441.749 81.335C442.329 81.3348 442.329 80.4992 441.749 80.499C441.169 80.499 441.169 81.335 441.749 81.335ZM343.579 84.6768C344.643 83.8979 345.303 83.0826 344.918 81.7529C344.728 81.0944 343.374 80.0055 342.688 81.335L339.564 83.0059L343.579 84.6768ZM1138.31 81.335H1136.52V82.1699H1138.31V81.335ZM953.123 81.335H952.676V83.0059H954.461L953.123 81.335ZM940.628 82.1699C941.208 82.1699 941.208 81.335 940.628 81.335C940.048 81.335 940.048 82.1699 940.628 82.1699ZM444.426 82.1699C445.006 82.1699 445.006 81.335 444.426 81.335C443.847 81.3354 443.847 82.1695 444.426 82.1699ZM-166.902 82.1699C-166.322 82.1699 -166.322 81.335 -166.902 81.335C-167.482 81.335 -167.482 82.1699 -166.902 82.1699ZM279.769 82.1699C278.428 81.9034 277.932 82.539 277.092 83.4238V85.5127H278.877L279.769 82.1699ZM885.742 86.3477H888.419L885.742 85.5117L886.189 83.8408L887.527 82.1699H883.065L884.85 88.0186L885.742 86.3477ZM275.753 83.0059C276.332 83.0058 276.332 82.1699 275.753 82.1699C275.173 82.1699 275.173 83.0059 275.753 83.0059ZM434.609 82.1709H434.162V83.8418H435.947L434.609 82.1709ZM1140.09 85.5127C1139.92 84.5027 1140.11 84.0191 1140.98 83.4238L1140.54 83.0059L1138.31 85.5127H1140.09ZM871.017 83.8418C871.596 83.8416 871.596 83.006 871.017 83.0059C870.437 83.0059 870.438 83.8418 871.017 83.8418ZM567.138 83.0059H565.353V84.6768H567.138V83.0059ZM281.108 83.8418C281.687 83.8418 281.687 83.0059 281.108 83.0059C280.528 83.0061 280.528 83.8416 281.108 83.8418ZM903.592 83.8418H902.699V85.5127H903.592V83.8418ZM450.227 85.0947L448.442 83.8418L447.549 86.3477L450.227 85.0947ZM269.952 85.0947L270.4 83.8418L269.061 85.0947V87.1836H270.845L269.952 85.0947ZM869.678 87.1836C870.035 87.5973 872.039 85.7223 871.463 84.6768C871.106 84.2629 869.102 86.138 869.678 87.1836ZM899.129 85.0947V84.6768H895.56L896.898 86.3477H897.79L899.129 85.0947ZM458.705 85.5127C459.285 85.5127 459.285 84.6768 458.705 84.6768C458.126 84.6769 458.126 85.5125 458.705 85.5127ZM334.655 85.5127C335.235 85.5125 335.235 84.677 334.655 84.6768C334.076 84.6768 334.076 85.5127 334.655 85.5127ZM165.089 85.5127C165.669 85.5125 165.669 84.6769 165.089 84.6768C164.509 84.6768 164.51 85.5127 165.089 85.5127ZM-174.042 84.6768L-174.489 85.0947L-173.597 87.1836H-172.703L-174.042 84.6768ZM971.418 89.2725L974.095 88.8545L969.633 88.0186L972.31 85.5127C971.142 85.2864 969.069 85.6418 968.74 86.7656C968.338 88.1412 971.11 88.7833 970.526 90.5254L971.418 89.2725ZM341.794 86.3477C342.374 86.3477 342.374 85.5117 341.794 85.5117C341.214 85.5126 341.214 86.3476 341.794 86.3477ZM286.909 85.5117H284.232V86.3477H286.909V85.5117ZM966.063 86.3477H962.493V87.1836H966.063V86.3477ZM572.94 87.1836C573.519 87.1832 573.519 86.3481 572.94 86.3477C572.36 86.3477 572.36 87.1836 572.94 87.1836ZM458.259 86.3477H455.581V87.1836H458.259V86.3477ZM306.988 87.1836C307.567 87.1836 307.567 86.3477 306.988 86.3477C306.409 86.3477 306.409 87.1836 306.988 87.1836ZM431.039 86.3486H430.593V88.0195H432.378L431.039 86.3486ZM215.959 88.0195C216.26 88.9416 216.178 89.9065 217.298 89.6904V88.0195L220.867 87.6016L216.851 86.3486C216.172 87.0148 215.615 86.9646 215.959 88.0195ZM-174.934 88.8545C-174.134 90.1431 -175.163 91.5378 -173.596 91.3613C-173.806 90.4955 -173.047 88.3671 -174.042 88.0186C-175.834 87.3933 -177.624 86.066 -177.165 88.8545C-176.132 88.6873 -175.872 87.3452 -174.934 88.8545ZM992.837 87.6006L992.39 87.1826L991.052 88.4355L991.498 88.8545L992.837 87.6006ZM1066.02 87.1836H1064.23V88.0195H1066.02V87.1836ZM902.699 87.1836H900.914V88.0195H902.699V87.1836ZM571.153 88.0195C571.733 88.0195 571.733 87.1836 571.153 87.1836C570.574 87.184 570.574 88.0191 571.153 88.0195ZM391.324 87.6016L387.755 88.0195L394.002 88.8555L391.324 87.6016ZM965.616 88.8545C966.196 88.8545 966.196 88.0186 965.616 88.0186C965.037 88.0196 965.037 88.8543 965.616 88.8545ZM353.396 88.8545C353.975 88.8545 353.975 88.0186 353.396 88.0186C352.817 88.0196 352.817 88.8542 353.396 88.8545ZM571.6 90.5254H576.063C573.716 86.8551 569.667 89.1316 570.707 93.0322L571.6 90.5254ZM452.458 90.5254C453.038 90.5254 453.038 89.6895 452.458 89.6895C451.879 89.6905 451.879 90.5251 452.458 90.5254ZM336.44 90.5254C337.019 90.5253 337.019 89.6896 336.44 89.6895C335.86 89.6902 335.86 90.5254 336.44 90.5254ZM882.173 90.9443C883.104 93.1219 886.173 91.3256 883.511 89.6904H882.173V90.9443ZM1224.43 91.3613C1225.01 91.3613 1225.01 90.5254 1224.43 90.5254C1223.85 90.5258 1223.85 91.3609 1224.43 91.3613ZM290.032 91.3613C290.612 91.3611 290.612 90.5257 290.032 90.5254C289.453 90.5254 289.453 91.3613 290.032 91.3613ZM61.5646 91.3613C62.1443 91.3613 62.1443 90.5255 61.5646 90.5254C60.9856 90.5254 60.9856 91.3613 61.5646 91.3613ZM988.374 93.0322C989.49 93.5711 991.493 91.6952 991.052 91.3613C989.935 90.8223 987.932 92.699 988.374 93.0322ZM576.954 91.3613L573.385 93.0322V93.8682H575.615L576.954 91.3613ZM970.525 91.3623L967.848 92.1973L968.294 95.54L970.525 91.3623ZM352.95 91.3623H351.165V92.1973H352.95V91.3623ZM1222.2 92.1963H1220.41V93.0322H1222.2V92.1963ZM1174.45 93.0322C1175.03 93.0322 1175.03 92.1963 1174.45 92.1963C1173.87 92.1963 1173.87 93.0322 1174.45 93.0322ZM1125.37 93.0322C1125.95 93.0322 1125.95 92.1963 1125.37 92.1963C1124.79 92.1973 1124.79 93.032 1125.37 93.0322ZM974.987 92.1963H972.31V93.0322H974.987V92.1963ZM1013.36 93.0332H1015.15V92.1973H1013.81L1013.36 93.0332ZM-26.3417 94.7041L-31.2499 92.1973H-32.5878C-32.146 94.3158 -35.7426 94.6425 -33.035 96.375L-26.3417 94.7041ZM1216.84 96.374C1218.65 96.0613 1218.39 94.2972 1219.52 93.4502L1217.73 93.0322L1216.84 96.374ZM197.664 93.4502L197.217 93.0322L195.878 94.2852L196.325 94.7031L197.664 93.4502ZM864.77 93.8682C865.349 93.8681 865.349 93.0332 864.77 93.0332C864.191 93.0324 864.191 93.8682 864.77 93.8682ZM426.577 93.8682C427.157 93.8678 427.157 93.0335 426.577 93.0332C425.997 93.0324 425.997 93.8682 426.577 93.8682ZM335.994 93.0332H334.209V93.8682H335.994V93.0332ZM-25.0028 93.8682C-24.423 93.8682 -24.423 93.0332 -25.0028 93.0332C-25.5823 93.0334 -25.5823 93.868 -25.0028 93.8682ZM422.561 95.5391C423.678 96.078 425.68 94.2019 425.238 93.8682C424.122 93.3284 422.118 95.2058 422.561 95.5391ZM866.555 94.7031C867.135 94.7031 867.135 93.8672 866.555 93.8672C865.975 93.868 865.975 94.7031 866.555 94.7031ZM355.181 94.7031C355.761 94.7031 355.761 93.8672 355.181 93.8672C354.601 93.8674 354.601 94.7029 355.181 94.7031ZM983.912 95.957L982.573 94.7031L982.127 95.1211L983.466 96.375L983.912 95.957ZM572.046 95.5391C572.626 95.5391 572.626 94.7031 572.046 94.7031C571.467 94.7032 571.467 95.539 572.046 95.5391ZM974.987 95.1221L974.541 94.7041L973.202 95.957L973.649 96.375L974.987 95.1221ZM-175.38 95.5391C-175.822 95.8723 -173.82 97.7491 -172.703 97.21C-172.262 96.8767 -174.263 95.0001 -175.38 95.5391ZM611.761 96.792V95.5391H609.976V98.0459H610.422L611.761 96.792ZM600.158 95.5391C599.902 97.1307 601.136 98.2857 602.836 98.0459V95.5391H600.158ZM613.991 96.375C614.571 96.3746 614.571 95.5404 613.991 95.54C613.412 95.5392 613.412 96.375 613.991 96.375ZM255.227 96.375C255.806 96.3746 255.806 95.5405 255.227 95.54C254.648 95.5392 254.648 96.375 255.227 96.375ZM1168.2 97.21C1168.78 97.21 1168.78 96.374 1168.2 96.374C1167.62 96.3751 1167.62 97.2096 1168.2 97.21ZM1159.28 97.21C1159.86 97.2099 1159.86 96.3741 1159.28 96.374C1158.7 96.3748 1158.7 97.21 1159.28 97.21ZM1006.67 97.21C1007.25 97.21 1007.25 96.374 1006.67 96.374C1006.09 96.375 1006.09 97.2098 1006.67 97.21ZM851.829 96.374H850.044V97.21H851.829V96.374ZM-28.1268 98.8809L-27.2343 96.792C-28.4498 96.2363 -29.472 98.3403 -30.3583 98.8809C-30.429 98.9175 -32.6018 96.8657 -31.6962 99.7168L-28.1268 98.8809ZM457.366 100.135L456.92 98.8809L461.828 97.21L458.259 96.792L453.797 100.553L457.366 100.135ZM1152.14 98.0459C1152.72 98.0455 1152.72 97.2103 1152.14 97.21C1151.56 97.21 1151.56 98.0459 1152.14 98.0459ZM619.347 98.0459C619.926 98.0457 619.926 97.2102 619.347 97.21C618.767 97.21 618.767 98.0459 619.347 98.0459ZM1002.65 98.0459H1000.87V98.8809H1002.65V98.0459ZM-186.536 98.8809C-185.956 98.8809 -185.956 98.0459 -186.536 98.0459C-187.116 98.046 -187.116 98.8807 -186.536 98.8809ZM1047.72 99.7168C1048.3 99.7168 1048.3 98.8809 1047.72 98.8809C1047.14 98.881 1047.14 99.7167 1047.72 99.7168ZM598.819 99.7168C599.399 99.7168 599.399 98.8809 598.819 98.8809C598.24 98.8812 598.24 99.7165 598.819 99.7168ZM595.25 99.7168C595.83 99.7168 595.83 98.8809 595.25 98.8809C594.67 98.8809 594.67 99.7167 595.25 99.7168ZM1238.71 100.553C1239.29 100.553 1239.29 99.7168 1238.71 99.7168C1238.13 99.7169 1238.13 100.553 1238.71 100.553ZM1235.58 99.7168H1233.8V100.553H1235.58V99.7168ZM1131.61 100.553C1132.19 100.553 1132.19 99.7168 1131.61 99.7168C1131.03 99.7169 1131.03 100.553 1131.61 100.553ZM999.529 100.553C1000.11 100.553 1000.11 99.7169 999.529 99.7168C998.95 99.7168 998.95 100.553 999.529 100.553ZM613.545 101.388L611.315 99.7168L608.191 102.224L610.868 101.388L610.421 103.895L613.545 101.388ZM604.62 99.7168H603.728V102.224H604.62V99.7168ZM593.911 101.806L593.02 99.7168H592.126V103.059L593.911 101.806ZM-23.6639 101.388V100.553L-25.8944 99.7168L-27.2333 102.224L-23.6639 101.388ZM982.573 101.388C983.153 101.387 983.153 100.552 982.573 100.552C981.994 100.553 981.994 101.388 982.573 101.388ZM450.228 101.806L448.889 100.553L448.443 100.97L449.781 102.224L450.228 101.806ZM-22.3251 102.224C-21.7454 102.224 -21.7454 101.388 -22.3251 101.388C-22.9049 101.388 -22.9049 102.224 -22.3251 102.224ZM585.434 106.4C585.892 105.33 587.562 105.657 587.664 105.565C587.831 105.41 587.428 104.705 587.664 104.312C588.375 103.125 590.625 103.042 590.342 102.641C588.602 100.192 587.303 102.682 584.987 102.224V103.895H582.31L585.434 106.4ZM1230.23 103.477L1228.89 102.224L1228.44 102.641L1229.78 103.895L1230.23 103.477ZM-182.519 103.059C-182.776 104.65 -181.543 105.805 -179.843 105.565C-179.587 103.974 -180.82 102.819 -182.519 103.059ZM-24.5565 103.895H-26.3417V104.729H-24.5565V103.895ZM1228.44 104.729C1228 105.064 1230 106.94 1231.12 106.4C1231.56 106.066 1229.56 104.19 1228.44 104.729ZM985.25 105.565C985.83 105.565 985.83 104.729 985.25 104.729C984.671 104.73 984.671 105.565 985.25 105.565ZM302.526 105.565C303.106 105.565 303.106 104.729 302.526 104.729C301.947 104.731 301.947 105.565 302.526 105.565ZM301.188 104.729H300.296V106.4H298.511V107.236H301.188V104.729ZM603.282 105.565H602.836V107.236H604.621L603.282 105.565ZM320.821 105.565H319.036V106.4H320.821V105.565ZM-20.5409 107.236C-19.9611 107.236 -19.9611 106.4 -20.5409 106.4C-21.1199 106.4 -21.1199 107.236 -20.5409 107.236ZM588.557 112.25C588.703 110.568 587.947 108.675 589.449 107.654L586.772 106.401L587.218 108.072L583.202 111.414L585.879 110.996L588.557 112.25ZM572.492 108.489L572.046 108.071L570.707 109.324L571.153 109.742L572.492 108.489ZM-22.7714 108.907V109.742H-20.9872L-22.7714 108.907ZM1226.21 110.578C1226.79 110.578 1226.79 109.743 1226.21 109.742C1225.63 109.742 1225.63 110.578 1226.21 110.578ZM-20.0946 110.16L-20.9862 109.743L-21.4325 111.413L-20.0946 110.16ZM631.395 112.667V110.578H630.502L629.609 113.92L631.395 112.667ZM221.314 111.414C221.893 111.414 221.893 110.579 221.314 110.579C220.734 110.578 220.734 111.414 221.314 111.414ZM599.712 112.249C600.292 112.249 600.292 111.413 599.712 111.413C599.133 111.414 599.133 112.249 599.712 112.249ZM217.298 111.414L213.728 112.25V113.085H217.298V111.414ZM595.695 113.085H593.019V113.92H595.695V113.085ZM997.745 114.756C998.325 114.756 998.325 113.92 997.745 113.92C997.165 113.92 997.165 114.756 997.745 114.756ZM1161.51 117.263L1160.17 114.756L1156.15 119.352L1161.51 117.263ZM625.148 116.845L626.932 116.427L627.379 118.098V114.756L624.701 115.591L622.471 118.098H625.148V116.845ZM1162.85 116.427C1163.43 116.427 1163.43 115.591 1162.85 115.591C1162.27 115.592 1162.27 116.427 1162.85 116.427ZM205.249 116.427C205.829 116.427 205.829 115.591 205.249 115.591C204.671 115.592 204.671 116.427 205.249 116.427ZM1179.8 117.263C1180.38 117.263 1180.38 116.427 1179.8 116.427C1179.23 116.427 1179.23 117.262 1179.8 117.263ZM883.958 116.427H882.173V117.263H883.958V116.427ZM584.987 118.098H583.202V118.934H584.987V118.098ZM617.114 122.276C618.945 122.601 619.536 121.043 620.685 120.188C621.681 119.446 622.721 120.285 622.47 118.935C621.035 118.431 616.493 121.744 617.114 122.276ZM1173.11 119.769H1171.33V120.604H1173.11V119.769ZM597.482 119.77H596.589V121.44H597.482V119.77ZM1167.76 121.44H1165.08V122.276H1167.76V121.44ZM340.455 122.276H338.67L340.455 123.947V122.276ZM1228 123.947C1228.58 123.947 1228.58 123.112 1228 123.111C1227.42 123.111 1227.42 123.947 1228 123.947ZM1165.08 123.111H1164.19V124.782H1165.08V123.111ZM530.102 123.947C530.681 123.947 530.681 123.112 530.102 123.111C529.522 123.111 529.522 123.947 530.102 123.947ZM1209.7 123.947C1209.13 124.993 1211.13 126.868 1211.49 126.454C1212.06 125.409 1210.06 123.534 1209.7 123.947ZM616.669 125.618C617.249 125.618 617.249 124.782 616.669 124.782C616.089 124.782 616.089 125.618 616.669 125.618ZM596.143 125.618C596.722 125.618 596.722 124.783 596.143 124.782C595.563 124.782 595.563 125.618 596.143 125.618ZM572.046 125.618C572.626 125.618 572.626 124.782 572.046 124.782C571.467 124.782 571.467 125.618 572.046 125.618ZM1217.55 124.783C1217.13 124.824 1216.78 124.949 1216.84 125.618L1217.55 124.783ZM614.438 124.783L613.099 126.454H611.76L612.206 129.797L614.438 124.783ZM507.79 126.454C508.37 126.454 508.37 125.618 507.79 125.618C507.21 125.618 507.21 126.454 507.79 126.454ZM1157.05 126.453H1155.26V127.289H1157.05V126.453ZM503.775 126.453H501.989V127.289H503.775V126.453ZM507.79 128.125C508.37 128.125 508.37 127.29 507.79 127.29C507.21 127.289 507.21 128.125 507.79 128.125ZM1184.27 128.96C1184.85 128.96 1184.85 128.124 1184.27 128.124C1183.69 128.124 1183.69 128.96 1184.27 128.96ZM1207.92 129.796L1204.35 128.96L1205.69 130.631H1207.92V129.796ZM1203.45 129.796H1202.56V131.467H1203.45V129.796ZM285.124 129.797H283.339V130.632H285.124V129.797ZM282 131.467C282.58 131.467 282.58 130.631 282 130.631C281.42 130.631 281.42 131.467 282 131.467ZM504.666 136.48L502.882 135.646V133.975C506.612 134.407 503.797 131.22 501.989 130.632C502.577 133.279 500.03 134.329 498.419 136.063L500.651 135.646L502.436 137.316L504.666 136.48ZM957.584 133.974C958.164 133.974 958.164 133.138 957.584 133.138C957.005 133.138 957.005 133.973 957.584 133.974ZM605.067 133.974C605.646 133.974 605.646 133.138 605.067 133.138C604.488 133.138 604.488 133.973 605.067 133.974ZM514.037 133.974C514.617 133.973 514.617 133.138 514.037 133.138C513.457 133.138 513.457 133.974 514.037 133.974ZM1206.13 133.974H1204.35V134.81H1206.13V133.974ZM351.165 134.392L350.719 133.974L349.38 135.227L349.826 135.645L351.165 134.392ZM288.694 137.733V137.315H286.909V138.986L288.694 137.733ZM-185.197 141.493H-186.982V142.329H-185.197V141.493ZM1012.47 94.7041H1013.36V93.0342L1012.47 94.7041Z" fill="white"/>
</svg>
