<svg width="1440" height="84" viewBox="0 0 1440 84" fill="none" xmlns="http://www.w3.org/2000/svg">
<path d="M-11.9989 91.2744C-11.7411 91.2932 -11.4673 91.3201 -11.1747 91.3604L-9.38953 93.8672L-8.05066 91.3604H-5.3739L-6.2655 90.1064C-4.78442 89.2872 -5.64465 87.9661 -5.3739 86.7646C-5.30249 86.4488 -4.58826 86.2683 -4.48132 85.9287C-4.12598 84.8001 -6.35315 84.3676 -4.03503 83.0039L-3.58875 84.6748C-1.71362 84.8386 -0.954834 82.815 0.427856 84.6748C1.3446 83.3922 2.87842 83.8974 4.44348 83.8389L6.22864 80.4971L3.10461 83.0039H2.21301L-0.0174561 81.333L2.6593 80.915C2.0188 79.6692 3.5498 78.5519 3.55188 78.4082C3.55188 78.2444 1.97791 76.9943 2.6593 75.4834C5.09131 74.7845 9.86938 74.3989 9.79895 71.3057H11.5841L9.79895 69.2168L10.6915 66.71L8.90637 66.292L10.6915 63.3672L9.79895 61.6963L11.5841 58.3535L9.79895 55.4297L12.4767 57.9355L15.1544 55.4297L14.7072 53.7588L10.6915 54.5938C10.3973 52.7863 12.3329 52.015 13.3693 50.835C12.7411 50.1068 11.2661 49.4345 11.5841 48.3281C12.3761 45.5777 14.9611 49.3789 16.046 49.5811C15.9 47.9 16.6566 46.0057 15.1544 44.9854C15.5746 44.5485 16.0865 44.1777 16.4923 43.7314C17.853 42.2379 15.1775 43.4274 15.1544 42.4785L20.5089 41.2246C20.4241 38.873 20.0548 37.2044 22.2941 35.7939C20.722 34.8433 21.6868 33.0979 21.4015 31.6162C21.3372 31.2854 20.0194 30.8702 20.5099 29.5273H23.1866V27.8564C24.3386 27.7472 25.65 28.0258 26.757 27.8564C26.7026 28.872 27.9938 29.145 28.5421 29.5273C28.6354 29.593 28.563 30.8388 30.3273 30.3633L29.4347 33.7051H33.004L30.3273 35.7939C31.1617 36.792 32.0253 37.4038 33.4513 37.0469C35.5566 36.5204 33.7906 34.6192 33.8976 34.54H36.5743L37.4669 39.5537C35.6707 39.4176 33.6487 40.1251 32.5587 38.7178C31.3593 39.3066 31.5 40.2399 31.2198 40.8066C30.86 41.5356 29.6173 41.3758 31.2198 42.4775L30.3282 43.7305H32.5587L33.8976 44.9844L33.005 50.415H31.2198V53.7568H27.6505C30.068 56.6134 26.9142 57.0924 26.7579 59.6055L23.6349 58.7695L21.4034 60.4404L24.0812 60.8584L23.1886 62.5293C24.5596 63.3873 24.02 64.8232 24.0812 66.2891C26.5131 66.6743 28.3131 64.0342 30.3282 66.707L26.7579 67.96H31.2208L29.4357 70.4668L34.7902 71.3027C34.1332 69.7317 35.942 68.4081 35.6827 67.543C35.5844 67.2154 34.8999 67.0426 34.7902 66.708C34.634 66.23 34.9021 65.5958 34.7902 65.0371L35.6827 62.9482C37.9626 64.9323 39.759 64.7766 42.8224 64.6191L41.9308 59.6055L43.7159 59.1875L40.1456 57.9346L41.9308 55.0098L41.0392 54.1738L41.9308 50.4141L43.7159 51.249V48.7422C45.3551 48.9329 46.3126 48.7747 47.2863 47.4893L44.6085 44.9824L46.3937 41.2227L48.6241 42.0586C50.344 41.2694 49.6438 39.7987 49.963 39.1338C51.1343 36.6962 51.7687 34.2832 53.5323 32.4502L52.6407 31.6143L53.9796 30.3613L55.7648 31.1973L56.6564 30.3613C58.1759 32.1921 61.3839 30.2022 62.9034 32.0322L66.4728 29.5254L67.8116 30.3613V25.3477C65.5767 25.7726 64.7452 24.6859 63.3497 23.2588L65.1349 20.334H66.4728L66.0265 18.6631L69.5958 19.498L66.9191 23.6758L69.5958 22.4219V22.0039C71.1034 20.7343 74.6274 25.8959 70.4884 25.3467L72.2736 26.1826C70.0189 29.0258 74.4637 31.6442 70.4884 34.1201L71.8273 35.373L73.6124 34.5371L74.9513 35.79L74.0587 37.043L78.0743 38.7139C79.4308 36.9378 80.7129 36.8293 82.9825 37.043V35.3721H86.5529L85.6603 31.6123L86.5529 29.5234H90.1222V27.8525H91.9073V29.5234H93.6925V31.1943H91.9073C91.4167 32.5367 92.7386 32.9563 92.7999 33.2832C93.1039 34.8995 93.1296 38.1376 91.9073 39.1318C93.9463 40.1885 92.9948 42.6921 95.4767 42.0566L93.6915 42.8926L94.5841 44.9814L93.6915 45.8164L94.5841 48.7412H92.799L93.6906 52.084C96.2795 51.3558 96.6838 53.8408 99.045 53.7549L97.2599 52.9189V50.4131H99.9376L99.045 48.7422H104.401L103.508 51.248L107.97 52.084V49.5771H105.292L111.539 47.9063C111.622 47.0928 111.399 46.1766 111.539 45.4004C112.703 44.8606 112.373 44.5866 112.432 44.5645C112.805 44.4244 114.303 44.2954 114.217 44.9824L115.109 50.4131L121.356 49.5771L120.464 52.084H125.818C125.4 54.06 126.549 55.451 128.495 56.2607V54.5898L132.066 53.7549L128.495 52.9189L127.604 47.4883L125.818 47.0713L126.265 45.4004L129.389 44.5645L124.927 42.8936H129.389V41.6406L131.174 41.2227C130.476 42.6806 132.074 43.9922 132.067 44.1465C132.05 44.3768 130.683 44.9359 131.174 46.2354L129.389 46.6533L132.067 49.1602L129.389 49.9961L133.852 50.4141V53.3389L135.637 53.7568L132.959 56.2637L138.314 55.4277L136.528 59.1875L138.314 60.4404L138.76 57.9336C139.864 59.0797 140.554 59.952 142.33 59.6045L143.222 62.1113C145.251 60.727 144.173 60.4553 142.776 59.1865C144.248 56.8754 146.584 57.5519 148.13 55.8447C146.861 54.9946 146.747 53.4859 148.13 52.5029H145.453L150.808 49.5781L149.023 48.7422C149.092 48.06 148.9 47.2841 149.023 46.6533C149.129 46.1108 150.47 46.2904 149.023 44.5645L152.146 45.4004L153.484 42.8936L153.931 45.4004H155.27L156.161 50.4141H154.376C156.042 51.8443 154.965 54.8687 153.037 55.4268C152.161 55.6805 150.559 54.7369 150.807 56.2627C152.587 56.1281 152.683 57.54 154.376 56.2627L155.269 57.9336L155.715 54.5918C157.434 56.1804 160.936 56.0206 160.623 58.7695C162.075 59.2254 162.446 58.0246 162.855 57.9336C163.647 57.7573 164.782 58.1251 165.531 57.9336C166.856 57.5948 167.746 53.2862 169.547 52.5029L166.424 53.7559L164.639 52.9209C162.854 54.8538 161.75 55.9185 158.837 55.4277C158.702 54.0798 158.673 51.6378 160.176 51.25C160.923 51.0577 162.06 51.4257 162.854 51.25C163.205 51.172 163.405 50.4786 163.745 50.415C164.663 50.2433 165.868 50.5235 166.869 50.415C165.732 48.7774 165.575 48.3347 167.316 47.0723L169.993 49.5791C170.663 48.5826 173.787 46.5404 174.009 45.8193C174.179 45.2677 173.801 44.5656 174.009 44.1484C174.585 42.9944 176.096 41.7968 175.794 40.3887C176.379 40.3578 177.003 40.4551 177.579 40.3887C177.456 39.9399 177.64 39.2567 177.579 38.7178H179.364V40.3887C178.78 40.4195 178.156 40.3222 177.579 40.3887C177.847 41.3621 178.702 41.7922 179.364 42.4775L178.918 44.5664C179.56 43.3182 181.062 43.2113 181.596 42.8955C183.43 41.8079 182.984 38.6694 186.504 39.5527C186.014 38.2864 187.396 37.6388 187.396 37.4639C187.394 37.2223 185.355 35.6259 187.396 33.7041L185.61 32.0332L188.734 32.8691L187.396 30.7803C188.881 29.6374 189.862 27.5873 191.859 27.8555L190.967 23.2607C192.592 21.9112 192.259 19.0886 192.752 17.4121C192.871 17.0069 194.164 16.2897 194.537 15.7412L196.768 16.9941L196.321 14.4873C197.207 14.4723 198.113 14.5118 198.998 14.4873C198.964 13.9492 198.926 13.3451 198.998 12.8164C198.007 12.9726 197.108 14.1953 195.429 13.6523V11.1455L199.892 10.3096C199.237 11.3156 199.159 11.6537 198.998 12.8164C200.092 12.6447 201.417 12.9272 202.568 12.8164V14.4873C201.386 14.5087 200.18 14.4541 198.998 14.4873C199.033 15.0374 198.982 15.6066 198.998 16.1582H203.461L198.107 21.5889L200.337 26.1846L202.568 25.3486L203.46 27.4375L201.675 27.8555L202.568 29.9443L206.583 28.6914L208.368 27.0205L210.6 26.6025L205.692 26.1846C203.617 24.6783 202.032 22.7184 205.692 22.0068C206.14 21.92 206.618 22.0723 207.029 22.0068L207.477 16.9932L209.707 20.7529C208.845 21.9915 208.275 21.8072 207.029 22.0059V22.8418L209.707 23.6777C209.457 22.3591 210.435 22.0486 210.6 20.7529C210.827 18.9705 209.904 16.8506 211.491 15.7393L207.029 15.3213L209.706 13.6504L207.029 12.8145L207.921 9.47266H210.599C210.541 10.3377 209.786 10.0532 210.151 11.1436C210.549 12.3245 211.726 13.1629 211.49 14.4863C213.171 13.3758 215.409 14.0525 215.952 11.9795C214.1 12.0349 212.636 12.3397 211.49 10.7266V8.6377L214.168 9.05566V10.3086H215.061V8.6377H215.952L216.399 10.3086L216.846 8.6377C219.06 9.05774 221.331 7.57753 221.308 5.29492L217.738 2.78809L221.308 3.62402V1.11719C221.947 0.435974 224.535 2.51859 224.877 3.20605C225.795 5.04839 222.698 4.14395 223.092 4.87695C224.506 6.0072 225.686 7.64986 225.77 9.47266C226.049 9.7869 228.817 7.58664 228.511 6.30762L229.339 8.63672L233.802 7.80078C234.71 8.59151 230.774 12.641 229.339 11.9785C230.441 13.704 230.001 15.3482 232.017 16.5742L231.124 18.2451L232.017 19.916C231.215 20.2183 230.484 21.8081 230.232 22.0049H232.909V24.0938L231.57 25.3467L230.232 24.0938V22.0049C229.25 22.7679 227.344 22.4562 227.554 23.6758C230.13 23.227 228.937 24.2994 229.339 24.9287C229.787 25.6308 230.993 26.2838 231.57 27.0176L233.356 25.3467L235.586 26.1826L234.693 22.0049H238.264C238.949 18.4211 235.395 21.8657 234.693 21.1699V17.4102L236.032 16.1572L240.941 15.3213L242.726 16.9922V19.499L238.264 19.0811C240.137 21.6914 242.377 21.2617 245.403 21.1699L246.296 18.2451L244.511 15.7383L246.296 14.4854L242.726 14.0674L245.85 10.3076C247.417 10.845 248.401 9.21046 249.419 9.47266C249.776 9.56447 249.968 10.2339 250.312 10.3076C252.494 10.7786 254.613 9.98775 254.327 7.80078C256.123 7.9369 258.146 7.2299 259.235 8.63672L262.359 6.12988L260.574 9.88965L261.468 13.6494H264.145C264.706 15.7794 263.244 16.2346 262.359 17.8271H264.145L265.037 22.0049H261.468L262.359 24.5117L258.79 23.6768L257.899 27.0186L261.022 25.3477L262.807 26.1836L264.592 24.5127L265.039 26.1836L267.716 25.3477L267.27 27.8545L264.146 27.0186C264.304 27.9833 264.145 28.5669 263.254 29.1074C261.6 30.1111 261.379 28.3483 259.684 28.6895L261.915 30.3604C263.959 29.8476 264.341 31.432 265.931 32.0313L267.27 29.5244L273.071 28.6885L268.609 25.7637L270.394 25.3457C270.694 23.5848 269.177 22.8499 267.716 22.4209C266.551 22.0792 266.854 22.7843 265.931 22.8389V20.332C268.141 20.7705 269.453 19.6728 271.286 19.4971V21.168C272.574 21.2929 274.08 20.9788 275.302 21.168C275.643 21.2204 275.887 21.9911 276.194 22.0029C276.346 22.006 277.102 20.7101 278.425 21.168L277.532 18.6611L275.302 20.332L273.963 18.2432L274.856 16.1543H278.425V17.8252H280.21V22.0029H281.995L282.888 25.3447H284.673V31.1934H282.442L278.426 33.7002L282.888 34.5361V36.207C284.241 35.7487 284.933 37.043 285.119 37.043C285.306 37.0422 285.998 35.7498 287.351 36.207C287.839 37.4731 286.459 38.1208 286.458 38.2959C286.458 38.4589 288.031 39.7096 287.351 41.2197H285.119L284.673 44.5625L287.35 42.8916C286.683 45.2621 288.867 44.117 290.027 45.8164L288.689 47.9053L291.813 47.0693V45.3984L297.167 42.8916L295.382 47.4873L292.704 47.9053L294.49 50.4121L290.027 49.5762L291.813 51.2471L288.243 52.5L290.92 53.3359C291.775 51.727 293.293 52.3843 294.044 52.083C295.547 51.4799 296.651 49.5121 298.061 51.665L298.952 58.7676L296.722 55.4248L297.168 58.7676L294.49 57.9316C294.552 59.3974 294.013 60.8335 295.383 61.6914L294.044 63.7803H290.92L290.028 62.1094L290.92 66.2861H289.135L290.027 69.6279L291.366 68.793L290.919 68.375L293.597 67.1221L292.704 69.6279L293.597 71.2988C296.729 71.9621 295.002 68.4306 295.382 66.7041L298.06 66.2861L296.275 64.6152L298.06 61.2725L301.629 62.9434V61.2725H303.414C303.064 59.965 304.517 56.5776 305.645 56.2588C306.586 55.9936 307.997 56.561 308.769 55.0059C310.233 52.0536 303.952 55.8968 303.414 55.4238C302.976 53.8107 304.491 53.4671 305.199 52.499C305.348 52.2956 305.067 51.8277 305.199 51.6631C305.8 50.9183 306.775 50.3118 307.43 49.5742C308.409 50.9705 309.673 49.0186 311.446 49.5742C311.653 48.1141 309.41 48.7612 308.322 48.7383C307.133 48.7138 305.941 48.7596 304.753 48.7383C304.001 48.7248 301.631 49.1167 302.522 47.4854C303.516 45.6625 306.259 44.8638 308.323 45.3965C309.375 45.6672 310.639 48.9117 313.232 47.9033L309.662 46.2324L310.554 44.5615H308.769V42.0547L311.446 42.4727C310.207 41.8838 309.03 39.9207 311 39.5479C312.168 39.3272 313.749 39.6942 315.016 39.5479C315.309 41.5227 314.701 43.497 313.231 44.9795C314.97 46.0465 315.568 48.1157 315.016 49.9932C314.881 50.4515 313.38 51.1931 313.231 51.6641C312.957 52.526 313.352 53.5077 312.338 54.5889L315.462 52.082L316.801 55.4238L318.586 53.335V52.082C320.862 51.5565 321.348 52.925 323.049 53.7529C322.595 51.6602 323.756 50.8827 325.279 49.5752L326.172 50.4111L325.726 47.9043L329.295 49.5752V46.2324C330.854 45.5789 332.257 47.0779 332.419 47.0684C332.594 47.0555 333.952 45.5977 335.542 46.2324L336.436 48.7393C335.795 44.7833 337.493 46.8451 339.56 46.2324C343.008 45.2099 342.424 46.2324 343.129 46.2324C343.535 46.2324 347.421 43.4428 348.484 43.7256C349.277 44.4221 349.822 44.6638 349.822 45.8145C349.822 48.492 347.284 47.5838 345.807 47.9033C345.477 47.9746 344.878 49.2346 343.129 48.7383C342.773 48.6369 342.589 47.9967 342.236 47.9033C341.522 47.7133 338.976 49.4632 337.328 48.7383C337.965 50.11 339.326 51.5039 340.899 51.2451L340.451 53.752L342.683 53.334V54.5869H344.468L343.575 58.7646L344.914 57.0938C345.335 57.5671 345.571 57.8139 346.253 57.9287C346.382 56.5666 346.167 55.125 346.253 53.751L351.608 52.916L348.93 57.9287C348.062 57.8473 347.067 58.0664 346.253 57.9287C346.157 58.947 345.965 61.1213 345.807 61.2715C343.354 63.5677 348.188 63.1458 349.822 60.8535L347.146 58.7646L350.269 59.6006C350.728 58.5273 352.402 58.8573 352.5 58.7646C352.667 58.6084 352.264 57.905 352.5 57.5117C353.241 56.2739 354.777 56.4273 355.624 55.4229L358.301 57.9297L361.424 57.0947C361.505 56.5724 361.276 55.7113 361.424 55.4238C360.368 55.6858 360.095 56.6077 358.747 56.2598V53.7529H361.424V55.4238C361.573 55.1381 364.209 54.3584 363.209 52.082L364.548 52.918L368.564 52.082L367.672 49.5752L372.135 50.4111V49.1582L373.92 48.7402C373.718 50.2702 373.879 51.1657 375.258 52.083H376.151C378.056 50.1541 380.699 51.7601 382.844 52.083L381.951 55.4248C384.432 54.9879 386.398 53.4674 388.198 55.8428L387.752 57.9316L388.645 57.0967L392.66 58.7676L390.875 56.2607L393.999 57.0967L395.338 55.8428L393.553 54.5898L401.138 52.084L402.477 49.5771H405.154V46.2344H407.831V47.9053H408.724C408.467 46.3135 409.701 45.1586 411.401 45.3984V47.9053H408.724C408.668 48.3034 408.877 48.7981 408.724 49.1582C408.569 49.523 407.843 49.725 407.831 49.9941C407.827 50.1356 409.212 50.8434 408.724 52.083L410.954 52.9189L414.078 51.248L412.293 56.2607L416.756 54.1719L415.863 52.501C416.985 51.5773 417.68 50.1047 419.433 50.4131C419.107 52.746 422.579 53.2516 422.11 55.4258H420.325L417.648 61.6914C419.018 62.5501 418.479 63.9854 418.54 65.4512C419.709 65.2098 419.684 63.9986 420.771 65.4512L421.663 64.6162L422.109 66.2871L423.895 64.1982L423.003 62.5273L424.341 61.2744L428.803 62.1104L430.142 59.6035H431.927L431.035 57.0967L435.497 57.9316L434.606 55.4258H437.282L436.391 54.1719C437.465 52.4353 439.299 53.4179 440.406 52.084L445.315 54.1719L441.299 55.4258C440.382 56.7087 438.848 56.203 437.282 56.2607L438.175 58.7676L440.852 57.9316V62.9453C439.563 63.0687 438.061 62.7585 436.836 62.9453C436.072 63.0617 433.903 65.0729 432.373 62.9453L428.358 65.4521H434.605L431.927 66.2881V70.4658C432.905 70.5339 433.594 68.9405 434.157 68.7949C435.45 68.4625 437.035 68.8154 438.62 67.959C439.222 67.6337 439.77 66.7219 440.405 66.2881L440.852 67.959C443.222 68.3967 443.768 66.9293 445.76 66.2881C446.821 65.9462 444.715 64.8569 445.314 63.7813L447.099 65.4521L451.562 64.6172V67.124C454.038 66.995 456.559 67.6708 458.701 66.2881C459.243 68.1821 457.18 69.1812 458.701 70.0479L456.916 75.4785C457.924 75.5767 459.095 75.3234 460.04 75.4785C460.384 75.5347 460.636 76.3145 460.933 76.3145C461.12 76.3127 461.812 75.0214 463.163 75.4785V72.9717L464.502 73.8076L465.394 72.9717L467.625 73.8076L465.841 68.7939C469.088 67.9094 469.963 70.8653 472.981 70.4648L470.303 69.6289L470.749 66.2871C472.256 68.383 474.038 68.0372 476.55 67.958L474.765 72.1357C476.859 70.4593 478.173 70.1656 481.012 70.4648V72.9717H475.657V75.0605L474.318 76.3135L471.194 77.5664C472.721 79.8506 475.539 77.9207 476.995 79.6553L481.458 77.9844L484.582 80.4912L482.797 77.5664C482.743 76.7672 485.484 77.7128 484.582 75.8955C483.957 74.6355 482.376 74.4693 481.013 74.6426L482.798 69.6289C485.063 69.397 486.76 69.7368 488.598 70.4648C489.057 69.3923 490.732 69.7215 490.829 69.6289C490.943 69.5199 490.746 67.6418 492.168 67.1221L498.861 67.958V70.4648C497.39 70.024 497.159 71.1203 496.63 71.3008C495.993 71.5177 492.88 71.8882 492.614 72.1367C492.428 72.3116 492.518 75.3385 489.937 74.6436V75.4795C493.422 75.0006 491.462 78.308 489.045 77.9863C488.902 78.8981 489.273 80.1387 489.045 80.9111C488.967 81.17 485.345 84.5348 485.028 84.6709C482.969 85.5561 484.404 82.6131 482.798 82.999L483.244 85.5059L483.691 88.8486L484.583 86.3418L485.922 88.0127C487.446 86.7053 488.607 85.9276 488.152 83.835L493.507 84.6709L491.722 83V80.9111C491.624 80.0016 489.247 81.2488 489.937 79.2402C490.896 76.449 493.445 80.5066 494.4 80.4932L492.614 74.6445L499.754 75.4805L497.077 74.6445C495.85 73.447 499.59 69.1334 501.539 69.6318V66.29C503.555 66.6185 505.866 67.7361 508.233 67.126C508.723 66.9994 509.527 65.5823 510.018 65.4551C511.17 65.1575 513.139 65.6585 514.481 65.4551C516.552 66.8094 514.893 68.9701 517.605 67.126L515.819 70.0498L516.711 70.8857L515.819 72.9746H518.496V74.6455H519.389C519.133 73.0539 520.366 71.8989 522.067 72.1387L521.174 69.6318L523.852 71.7207L524.298 74.6455L524.744 72.1387L527.422 72.5566L526.529 74.6455C528.344 74.9186 528.602 73.1127 529.653 74.6455L533.669 73.8096V77.5693L530.1 80.0762L532.331 82.165L537.239 77.5693L538.131 74.6445C539.933 74.5622 539.078 77.1023 538.131 77.5693L540.362 79.6582L542.593 75.4805H540.808V73.3916L542.593 72.9736L541.254 71.3027L536.346 72.9736L539.024 70.0498L536.346 69.6318V66.29C538.625 65.7573 539.145 67.1678 540.809 67.9609C540.529 66.1294 542.235 64.9982 543.933 65.4541C545.15 65.7813 545.331 68.2514 546.609 68.7969C548.794 68.8167 550.618 68.4241 552.41 69.6318V67.9609L555.98 68.7969C555.237 66.38 558.471 66.465 558.657 66.29C558.823 66.1334 558.423 65.4326 558.657 65.0371C560.028 62.7346 564.764 62.0554 567.136 61.2773C567.652 61.1079 567.896 59.9983 569.366 60.4414V62.5303L570.705 63.7832C572.98 63.5727 575.662 64.0823 577.845 63.7832C578.173 63.7381 578.384 63.0248 578.737 62.9473C581.943 62.246 582.898 65.4888 586.323 64.6182L587.661 62.1113C589.035 62.3512 592.414 60.4554 593.463 61.2754C593.612 61.3926 593.316 61.9633 593.463 62.1113H590.785V65.4531H593.463V62.1113C594.027 62.6789 596.511 64.2704 597.032 63.7822V62.1113L600.602 62.9463V60.4395L601.941 61.2754L605.957 60.4395L603.279 62.1104V64.6172H605.957C605.24 62.3139 607.412 61.9449 607.742 60.0215C607.738 59.3086 609.514 59.4753 609.973 59.6035C610.886 59.8584 612.62 63.391 612.203 63.7813H610.418V66.2881H612.203L613.988 60.8564C613.734 59.6162 612.462 62.1014 612.203 60.8564C611.656 58.2244 614.47 60.6379 615.774 60.4385L613.988 62.5273L614.88 65.8691L612.203 66.2871V67.958H614.434L617.111 66.2871L622.02 67.123C622.409 64.76 621.654 65.8532 620.681 65.4521C620.08 65.2044 619.919 64.1906 618.449 64.6172L621.573 62.1104L622.02 64.6172C622.986 64.8823 624.476 64.0725 624.697 63.3633C625.205 61.7391 620.554 60.0894 621.128 57.9326L626.483 58.7686V60.4395C628.336 60.2519 629.086 62.3098 630.499 60.4395L631.837 61.2754V60.0225L634.515 57.9336V61.2764H632.73C633.531 62.0671 633.519 63.6859 633.622 63.7832C633.763 63.9104 636.146 63.9516 636.745 65.4541L636.299 64.2012L638.977 62.9482L640.316 68.7969L642.546 66.708L639.868 65.0371L642.546 61.6953L640.761 59.1885L641.653 57.5176L640.761 54.5928L643.439 55.0107L640.761 51.251C641.217 50.7896 642.52 52.7954 642.991 52.9219C644.157 53.2337 645.778 53.4339 647.008 53.7568V55.4277L649.238 54.5928L650.577 55.8457L649.685 57.0986L652.362 58.3516V60.4404L647.008 58.7695L646.115 63.7832L650.578 64.6191L648.793 61.2764H654.148L652.362 62.1123V62.9473L654.593 63.7832L659.501 60.0234L654.593 60.4414L653.701 58.7705L655.932 55.4277C653.231 54.4235 654.914 57.9748 652.808 57.0986C651.471 56.542 650.828 54.0677 650.577 52.9209C650.968 52.8655 651.306 53.0103 651.47 52.5029C651.47 51.9696 650.625 52.1285 650.577 52.085C649.582 51.1787 649.481 51.0084 647.9 51.249L647.008 45.4004L648.347 47.0713L650.132 46.2354L651.024 47.0713L653.255 46.2354L652.362 43.7295H655.04V47.0713C656.048 47.1694 657.219 46.9162 658.163 47.0713C658.759 47.17 658.801 48.6817 659.948 47.0713L663.071 47.9072L662.625 49.5781H661.286V52.085L654.148 51.249L660.395 52.9199L658.163 54.5908L656.825 54.0342V58.3506L658.609 56.2617L659.501 57.5146L661.286 57.9326L662.179 54.1729L664.857 52.9199L663.964 55.8447L665.749 55.4268L666.642 57.0977L667.533 54.5908L666.642 58.7686L668.427 59.1865L669.318 61.2754L670.657 58.7686L673.781 59.6045L670.212 56.6797V55.4268L672.889 56.6797L671.104 52.9199L672.889 52.084L669.319 51.248L674.674 49.5771L670.212 50.4131C670.181 49.6994 670.93 49.5858 671.104 48.7422C669.789 48.9748 668.057 48.5864 666.642 48.7422V46.6533L663.964 46.2354L665.749 50.8311L663.071 51.249L664.858 49.1602L662.18 44.5645L664.41 43.7295L667.534 44.5645L669.319 42.8936L667.981 45.4004L671.105 46.2354C671.014 47.0497 671.257 47.9958 671.105 48.7422C672.468 48.5008 672.869 46.6111 674.674 47.0713C674.191 49.1133 675.567 51.0479 677.798 50.4141C678.213 50.2961 678.41 49.2761 679.583 49.5781C679.933 49.6684 680.118 50.312 680.476 50.4141C682.121 50.8818 683.019 49.803 684.045 48.7432C684.928 48.3239 683.389 47.1328 683.153 47.0723C681.256 46.5942 679.794 47.9019 677.798 47.9082C675.974 47.9137 676.01 47.2606 676.459 45.8193C676.76 44.8545 677.609 44.389 678.691 45.4014C680.718 47.2986 680.975 44.6157 682.26 46.2363L686.276 44.5654L685.384 42.0586H688.953L688.062 40.8057C689.194 39.2113 690.61 39.4892 692.524 39.5518V38.2988L695.201 38.7168L692.97 37.0459C691.933 38.4366 691.685 37.4962 690.739 36.6279L691.632 33.7041L692.524 35.375L695.648 37.0459C697.368 35.9782 697.047 34.5967 696.986 32.8682H701.449C701.613 31.6897 701.202 30.1809 701.449 29.1084C701.518 28.8092 702.976 27.1224 703.234 26.6016C703.442 26.1829 703.066 25.4815 703.234 24.9307C703.591 23.7695 707.598 21.1147 706.804 24.5127L709.481 23.6777L711.266 29.1084L710.374 32.8682L713.052 30.7793C713.777 27.656 717.811 26.945 720.637 26.1836C721.7 25.8971 721.762 24.5278 721.976 24.0947C722.836 22.3534 722.475 23.9663 721.976 22.4238C721.657 21.44 722.72 20.9508 723.315 20.335L727.33 21.1709C727.593 20.92 726.577 17.8393 728.669 16.9932C731.988 15.6515 730.776 20.0628 730.9 21.1709L732.685 18.6641H736.255C736.609 20.5073 735.913 21.3285 734.47 22.4238L736.255 23.6777C735.033 23.8321 733.368 22.1525 732.685 24.0957C731.887 26.3637 736.104 26.0476 736.255 26.1846C736.496 26.4042 736.717 27.8864 737.147 26.1846C737.165 26.228 737.888 26.0304 738.039 26.6025C738.399 27.962 737.782 28.731 736.7 29.5264L732.685 28.2734L734.47 31.1982H738.932L739.824 35.376C743.22 35.8405 741.503 32.6373 739.824 31.6162L741.609 27.8564H740.271L739.824 26.1855L744.733 25.3496L746.963 26.1855L746.071 29.1094L749.641 37.0469H747.856L748.747 39.5537L752.318 38.7178L751.87 40.3887C754.035 39.4476 752.087 38.0639 752.318 37.8818L754.548 38.7178L756.778 35.376L753.209 36.2119L752.318 32.8701L755.442 34.541C756.395 33.3517 757.154 33.3397 758.118 34.541L756.779 31.6162L757.672 29.5273H759.902L763.919 32.4521L763.026 36.2119L760.35 35.376L762.58 37.8828H763.919V39.9717L759.456 44.9854L763.919 45.4033L761.241 46.2383L763.919 48.3271C762.18 50.8462 760.6 48.4688 760.35 48.7451C760.469 49.6791 760.162 50.8175 760.35 51.6699C760.422 51.9958 761.2 52.1997 761.241 52.5059C761.475 54.2066 761.079 56.185 761.241 57.9355C763.62 58.7429 764.259 56.6382 765.258 56.2646C765.654 56.1171 766.179 56.3436 766.596 56.2646C766.473 56.0223 766.739 55.542 766.596 55.4297H763.026L764.811 52.5049L763.919 49.5801C766.375 49.1567 765.734 50.2775 765.704 52.0869L768.381 53.3398L767.489 54.1758L768.381 56.2646C767.799 56.312 767.115 56.1665 766.596 56.2646C767.111 57.2682 768.304 58.0907 768.381 58.3535C768.68 59.3736 768.059 62.6424 768.381 62.9482L771.505 63.7842C773.366 62.1807 774.184 59.8162 773.736 57.5186C773.69 57.2779 772.315 56.6428 772.844 55.0117L773.736 52.9229H777.306C775.231 56.2066 776.475 57.3716 779.983 55.4297L779.091 61.2773L782.66 60.4424L780.875 62.9482L783.106 63.7842L785.337 62.1133L784.444 65.4551H783.106L780.875 67.9619L782.66 66.291H783.999L788.015 68.3799L784.892 70.4688L782.66 69.6328V72.1396C784.723 71.736 785.308 74.0893 787.122 74.6465V72.9756L791.138 72.1396L794.262 67.126H798.725V68.7969H800.51V70.4678H803.188C803.511 70.1622 802.888 66.8924 803.188 65.873C803.417 65.0958 805.796 64.5626 804.973 61.6953C803.334 59.764 803.745 60.8958 802.741 61.2773C801.281 61.8327 801.16 60.659 801.402 59.6064L805.419 58.7705L810.327 59.6064L807.203 62.1133L808.096 63.7842C809.87 61.5141 813.962 62.2996 813.897 58.7705C817.402 59.1488 819.158 57.1288 822.375 56.2637C823.412 55.9851 825.628 52.4012 827.283 52.0859L825.498 56.2637H827.287V59.1885L829.072 61.2773L829.519 58.7705L828.18 55.4277L831.749 57.0986L829.964 55.4277L830.857 54.1748L829.964 53.3389C831.03 52.3526 831.183 49.2553 833.088 48.7432C834.146 48.459 835.238 49.0939 836.212 47.4902C836.45 47.1 836.045 46.393 836.212 46.2363C836.369 46.091 837.07 46.4239 837.551 46.2363C838.169 45.9955 838.479 44.9394 840.228 45.4014C840.802 45.5526 841.601 47.5384 842.459 46.6543L841.567 43.7295H839.781V42.8945C842.5 43.1747 843.311 39.2724 846.028 39.5518C844.252 37.315 841.075 34.9183 845.582 33.7041C845.898 33.6487 846.204 33.6242 846.474 33.7041C846.833 33.811 847.017 34.4448 847.366 34.5391C848.284 34.7844 849.758 33.075 851.382 33.7041C851.691 36.883 847.006 36.1258 846.027 38.7168L851.382 37.8809C851.608 38.0764 850.631 41.3066 852.721 40.3877C852.953 40.2848 854.758 38.8428 853.613 38.7168C850.252 38.6258 853.527 35.3682 855.844 36.21V34.5391H857.629V35.792L859.414 36.21V32.8682L862.984 32.0332L863.876 33.7041C864.127 32.0253 862.771 30.9337 861.198 31.1973C860.657 29.2865 862.723 28.3145 861.198 27.4375C861.439 24.687 864.252 25.3542 866.554 25.3486L867 30.3623L867.892 27.8555C872.624 24.8342 871.787 30.5126 867.892 31.1973L865.661 33.7041H869.231V31.1973L874.586 32.0332V34.957L871.016 35.375L871.908 38.7168L870.123 38.2988C870.346 39.6483 871.171 39.9748 871.015 41.6406C870.893 42.941 869.848 43.2248 870.123 44.5654C872.579 44.9889 871.938 43.868 871.908 42.0586C873.609 42.2984 874.842 41.1435 874.586 39.5518L878.155 40.3877L877.709 37.8809H876.37L877.262 36.6279L876.37 34.5391C878.645 35.0645 879.131 33.6961 880.832 32.8682L881.279 34.5391H882.617V39.5527L884.849 34.5391L885.295 37.8809C886.88 37.5439 887.784 35.6389 888.685 34.7109L888.864 34.5391C889.023 34.4033 889.631 34.679 889.756 34.5391C889.902 34.3748 889.58 33.7568 889.756 33.2861C889.89 32.9278 890.637 32.7248 890.649 32.4502C890.652 32.3082 889.268 31.601 889.756 30.3623L891.541 30.7793V32.0332L896.004 31.1973L895.111 28.6904C896.434 28.2334 897.191 29.5292 897.342 29.5264C897.565 29.5177 898.198 28.2313 899.573 28.6904L900.02 30.3613L900.466 27.8545C902.79 27.4469 902.915 28.7244 901.359 29.9434L905.821 34.1211C904.091 35.4856 901.841 33.8019 902.251 32.0322C900.558 33.3093 900.462 31.8977 898.682 32.0322L901.359 34.1211L900.467 35.792C902.577 37.2183 900.778 38.2433 900.467 39.1338C900.288 39.6451 900.654 40.3204 900.467 40.8047C900.276 41.2976 899.103 41.5166 899.575 42.8936H897.79V44.5645L896.005 46.2354H900.467V49.5771H898.682V51.248C897.202 51.3328 894.77 52.1205 894.219 53.7549H899.574V52.084H902.251L901.359 48.3242C903.737 45.8889 908.945 44.7769 905.821 49.1602L907.607 51.249L909.393 47.4893L908.5 45.4004H912.069V43.7295H914.301L915.639 42.4766L914.747 41.2227C916.72 40.8983 917.567 41.5206 918.763 42.8936L920.102 41.6406V39.5518L922.332 38.7168L921.886 36.21L923.671 37.8809C925.429 38.4135 926.035 37.3418 926.795 37.0449C927.277 36.8574 927.978 37.1911 928.134 37.0449C928.321 36.87 928.23 33.8431 930.812 34.5381V32.8672L936.166 32.0313V34.5381L934.381 34.1201V35.373H932.596C932.666 37.5291 930.462 39.1374 928.134 38.7148C928.349 40.8209 926.71 41.5271 924.565 41.2217V43.7285H925.902L926.35 45.3994C924.804 46.0522 923.389 44.5612 923.226 44.5635C923.017 44.5682 922.358 45.8593 920.994 45.3994V47.9063L923.226 47.0703L925.456 49.9951L925.01 52.084L928.134 51.248C928.385 52.9267 927.029 54.0184 925.456 53.7549L925.902 57.0967C927.538 56.2434 926.937 54.8725 927.689 53.7549C928.503 52.5454 931.128 50.2081 932.597 50.4131V49.1592L929.919 49.5771L932.597 46.2354C930.87 46.8083 930.215 44.7613 929.473 44.5645C927.991 44.1727 926.121 44.7596 926.349 42.0576H929.918L931.703 43.7285L930.364 40.3867L933.488 41.2217V42.8926L936.166 42.0566V43.3105L938.843 43.7285L937.058 40.8047L937.95 38.7158H936.165C935.916 36.0153 935.966 34.4929 938.396 32.8672C939.371 33.4425 941.257 36.0182 941.965 36.209C944.539 36.9008 944.755 33.6095 946.874 35.373V33.2842C947.499 32.1596 948.514 32.2909 949.105 32.0313C949.785 31.7312 950.074 30.7362 951.782 31.1953C952.565 31.4065 953.216 33.4776 954.905 32.8662V35.373H951.782L946.874 38.2979C949.483 41.4244 950.673 37.851 953.12 37.8799V36.209L956.244 37.0449L959.814 35.374L963.83 37.0449L959.367 39.5518C959.286 40.882 958.948 41.4751 960.706 41.2227C961.647 41.0873 966.507 38.1229 966.507 37.4629C964.527 35.4866 963.431 33.9454 960.261 34.5381C959.932 32.8973 961.505 32.2466 962.491 31.1963C965.153 31.1836 968.102 28.3254 967.4 32.8672L968.292 29.5254L973.647 31.1963C973.979 33.3135 971.426 34.1376 969.63 34.5381C968.131 34.8725 966.967 33.636 967.4 36.209L974.539 35.373L975.432 37.0439C975.179 35.5789 976.812 34.8616 976.324 33.2842C976.107 32.5821 973.929 31.9788 974.539 30.3594C976.354 30.6324 976.612 28.8265 977.663 30.3594L980.787 29.5234V32.0303H985.25C985.339 30.1441 984.464 27.7527 987.035 27.0166L986.589 30.3594L987.481 29.5234L988.819 32.0303C986.039 31.6622 984.86 32.8654 985.25 35.3721L979.003 34.1191L981.681 35.79C981.497 36.6353 981.955 38.133 981.681 38.7148C981.641 38.8003 979.811 39.0901 981.681 39.5508V41.2217L979.895 42.8926C982.487 43.901 983.753 40.6572 984.804 40.3857C985.85 40.1161 987.599 40.5646 988.819 40.3857L987.927 37.4609L991.497 34.9541V32.8652L989.712 32.0293L994.174 32.8652V36.207H992.389L993.281 40.3848C991.352 40.4837 989.578 42.1801 987.926 43.3096L990.604 43.7275C990.656 46.2223 987.049 46.6113 990.157 48.7412L991.943 47.0703C993.923 49.4254 995.179 46.5661 993.728 46.2344L992.389 44.5635L997.743 45.3994C997.561 43.6802 999.477 41.8865 1001.31 42.0566V40.3857H1005.78L1006.67 42.4746C1006.54 45.1324 1003.81 43.9247 1002.21 45.8164C1001.29 46.8911 1001.44 47.6147 1002.65 47.9053C1004.15 48.2622 1005.73 47.9504 1006.67 46.6523L1005.78 44.5635C1007.44 45.3566 1007.96 46.7679 1010.24 46.2344L1011.13 47.9053H1008.9L1007.56 49.1582L1006.67 54.5889L1001.31 53.7529L1001.76 52.082H1003.1V50.4111L1001.31 49.5752L1003.99 48.7393C1002.77 48.5628 1001.03 49.0058 999.976 48.7393C999.248 48.5556 998.574 46.4916 996.852 47.0684L995.959 49.5752C996.199 49.7873 999.639 48.889 998.637 50.8281C997.702 52.6374 995.313 53.2691 993.282 52.917L994.174 56.2588C996.666 56.1361 998.297 53.9248 1000.87 54.5879C1001.3 54.6995 1002.07 55.9088 1002.65 56.2588C1002.95 56.2588 1003.2 55.4783 1003.55 55.4229C1005.64 55.0857 1006.58 56.0918 1008.45 56.2588L1006.67 57.9297L1009.34 61.2725L1010.24 57.9297L1013.81 58.7656L1011.13 55.4229L1016.48 56.2588V58.7656H1014.7V60.8545L1012.91 61.2725C1012.78 62.8393 1014.53 62.2 1015.14 61.2725L1016.48 62.5254L1014.7 63.7783L1020.5 62.1074L1023.62 62.9424L1022.73 60.8535L1025.41 59.6006L1027.19 62.5254L1024.52 65.0322C1025.69 65.7922 1025.65 67.8447 1025.41 69.21C1025.31 69.7599 1023.69 69.8077 1025.41 70.8809L1022.65 73.4629C1023.65 72.8369 1024.84 72.5567 1025.85 72.1338C1026.22 71.981 1026.4 71.4239 1026.75 71.2979C1027.47 71.0367 1028.71 71.7394 1029.42 70.4619L1032.55 72.9688L1031.66 69.627L1029.87 67.9561C1031.77 69.2398 1032.63 70.07 1035.22 69.627V68.791H1033.44V68.373L1036.12 66.2842C1036.42 66.8596 1035.39 68.7174 1035.22 68.791C1036.97 68.0517 1039.02 69.627 1039.24 69.627C1039.53 69.6267 1039.75 68.9164 1040.13 68.791C1040.64 68.6264 1041.3 68.9276 1041.47 68.791C1041.62 68.6739 1041.33 68.1033 1041.47 67.9551L1037.9 67.9551V65.4482H1036.56L1036.12 63.7773L1042.36 61.2705L1043.26 64.1953L1040.58 65.4482L1041.47 67.9551C1041.79 67.6329 1043.33 67.0702 1043.7 66.2842L1045.04 68.791C1041.7 67.641 1041.5 71.776 1040.13 72.1328C1039.05 72.4154 1036.83 71.3327 1037.01 72.9688L1042.36 72.9688V70.4619L1048.61 69.626L1046.83 67.9551C1048.01 67.9393 1049.21 67.9804 1050.39 67.9551C1050.29 66.7464 1050.8 65.7862 1049.5 65.0303V64.1953L1052.18 62.1064V65.4482L1055.75 64.6133L1056.64 67.9551C1054.57 67.9852 1052.47 67.9108 1050.39 67.9551C1050.42 68.2313 1050.38 68.5132 1050.39 68.791H1051.73L1051.29 70.4619L1053.07 69.209L1055.75 68.791L1055.3 71.2979C1056.71 70.1747 1058.39 69.3919 1060.21 69.627L1062 67.9561L1061.1 72.1338L1062 68.792L1067.35 67.9561L1068.24 64.6143H1066.46C1065.77 59.3198 1069.78 59.2563 1074.49 59.6006C1074.74 61.2786 1073.39 62.371 1071.81 62.1074V63.7783L1073.6 65.4492L1070.03 63.7783C1069.89 65.4452 1071.39 65.5347 1070.03 67.1201H1071.37L1075.38 70.0449L1069.14 71.7158L1075.38 72.1338L1071.81 74.6406H1077.17L1076.72 70.4629L1078.06 75.4766C1079.61 75.3112 1081.51 75.7196 1082.97 75.4766C1083.3 75.4218 1083.49 74.7495 1083.86 74.6406C1085.46 74.1737 1086.91 76.0254 1088.77 75.4766L1086.54 74.6406L1084.75 72.9697L1079.84 74.6406L1081.63 71.7158C1080.18 70.6172 1079.49 69.7986 1079.84 67.9561L1077.61 69.627C1076.15 68.0116 1078.83 66.6534 1080.74 67.1201V65.4492L1086.09 66.2852L1085.2 63.7783H1086.99V62.1074H1088.77L1090.11 59.6006L1094.13 58.7646V56.2578L1096.8 57.0938C1096.75 55.6247 1097.5 54.1975 1095.46 54.5869L1093.23 52.916C1096.33 52.5497 1097.12 55.4749 1100.37 54.5869V57.0938H1102.16V58.7646H1100.37L1099.48 62.1074C1101 61.916 1103 62.3884 1104.39 62.1074C1104.73 62.0382 1106.67 60.5366 1107.07 60.4365C1107.82 60.245 1108.95 60.613 1109.74 60.4365C1110.15 60.3452 1110.52 59.145 1111.97 59.6016V61.2725C1113.44 61.0508 1115.62 61.5976 1116.88 61.2725C1117.37 61.1458 1118.17 59.7358 1118.67 59.6016C1120.78 59.0348 1122.89 59.1115 1124.92 58.7656C1125.27 58.7047 1126.45 57.2798 1128.04 57.9297C1126.45 60.4205 1127.31 59.1013 1128.49 59.6006C1129.09 59.8586 1129.25 60.8582 1130.72 60.4355C1130.41 63.2517 1130.62 63.1782 1133.39 62.9424C1133.71 61.372 1131.99 62.6907 1131.61 61.6895C1130.82 59.6268 1129.42 59.3273 1128.93 58.3467C1128.1 56.6821 1130.9 57.2235 1131.16 56.2578L1134.29 57.0938L1132.5 60.4355L1137.86 57.9287L1136.07 61.6885L1137.86 62.5244L1135.18 63.7773L1136.52 66.2842L1137.86 65.4482H1136.07V64.6133H1138.75V62.9424C1141.46 62.4219 1143.6 64.4818 1146.33 63.7783C1147.13 63.5741 1148.17 61.581 1148.56 61.2715H1145.89V60.8535L1147.23 59.6006H1148.56V61.2715C1149.12 60.8386 1150.48 60.3011 1151.24 60.0186C1152.91 59.3996 1152.83 59.7422 1153.92 60.8535C1153.93 61.793 1152.5 60.7191 1152.13 61.6895C1151.74 62.7564 1151.6 63.3676 1150.35 64.1963L1151.24 67.1211C1148.65 66.3931 1148.25 68.8783 1145.89 68.792L1146.78 65.0322L1144.99 64.6143C1145.29 66.4085 1143.36 67.1868 1142.32 68.374L1144.1 71.2988C1142.32 70.6831 1139.99 73.5769 1139.19 73.8057C1138.31 74.0586 1136.71 73.1161 1136.96 74.6406L1143.21 75.4766L1144.1 72.9697L1145.88 75.4766L1145.44 72.9697L1146.33 72.1348L1144.99 71.2988L1146.33 69.6279L1149.9 72.1348L1152.58 71.2988C1154.39 73.1873 1156.98 71.69 1159.27 71.2988L1157.49 70.4629C1158.31 68.6939 1159.82 67.5556 1161.95 67.9561L1162.84 71.2979L1161.06 72.9688C1161.88 72.647 1164.11 70.2303 1164.63 72.5508C1164.86 73.6178 1164.85 75.2216 1163.73 75.8936C1162.77 76.4743 1162.01 76.2514 1161.95 76.3115C1161.86 76.3979 1162.2 77.9678 1161.06 78.4004L1163.73 78.8184L1163.29 80.4893L1165.07 78.8184L1169.09 79.6533V77.1465H1172.66V78.8174L1176.23 77.9814L1174.44 77.1455L1176.67 75.4746C1177.41 76.7205 1178.44 76.0834 1179.35 76.3105C1179.71 76.4017 1179.95 77.1465 1180.24 77.1465C1180.54 77.1457 1180.79 76.3677 1181.13 76.3105C1182.08 76.1554 1183.25 76.4087 1184.26 76.3105L1183.37 78.8174H1186.94V81.3242H1182.92L1182.47 82.9951L1181.58 79.6523L1179.8 80.0703V81.3232L1175.78 80.4873L1174.89 82.1582C1176.1 83.0376 1176.41 83.6092 1176.23 85.083C1176.13 85.8655 1174.51 85.2208 1174 86.3359L1174.44 82.1582L1171.76 82.9941C1173.74 85.2064 1171.51 86.3875 1171.76 88.8428L1174.44 87.1719L1175.33 90.0967L1170.87 94.6914C1172.69 94.735 1174.24 95.0666 1175.33 93.4385C1175.48 93.2247 1175.2 92.7751 1175.33 92.6025C1176.66 90.8359 1178.85 90.4742 1180.24 88.8438L1182.47 89.6787V88.0078C1184.32 88.3132 1185.15 86.5695 1186.49 85.501L1189.17 86.3369L1190.51 85.084L1189.61 82.9951L1193.18 83.8311V82.1602H1196.31L1197.64 80.9063C1198.11 80.0505 1195.33 81.3912 1195.86 79.2354C1196.06 78.4231 1196.99 78.8769 1197.64 78.8184L1199.43 81.7422C1198.46 83.0276 1197.5 83.1859 1195.86 82.9951L1196.75 85.9199L1195.41 87.1729L1192.29 86.3369V88.4258C1191.16 90.0207 1189.74 89.742 1187.83 89.6787L1188.72 91.7676L1186.49 93.8564L1182.47 94.6924L1183.36 96.7813C1183.02 97.9013 1178.5 98.5123 1182.03 98.8701L1185.6 94.6924H1188.27L1189.61 93.4395L1188.72 92.6035C1191.18 90.9437 1193.8 88.4583 1197.2 88.8438L1197.64 86.3369L1201.21 88.0078V84.666L1203.45 85.502L1206.57 83.4131L1205.68 82.5771L1206.57 81.7422L1205.68 80.4893H1207.91L1209.25 79.2354V77.1475H1215.05L1218.62 72.9697L1219.96 74.6406C1219.34 72.4839 1221.66 72.5421 1222.19 72.1338C1222.91 71.5742 1224.43 69.7386 1224.86 69.627C1227.14 69.0398 1229.37 70.3215 1228.88 66.2852C1231.38 66.9714 1233.3 64.5272 1234.68 66.2852L1237.8 64.1963L1236.91 61.2715L1239.59 62.1074V64.6143H1241.38V62.9434L1245.84 62.1084L1246.73 58.7656H1249.41L1248.52 57.0947L1251.19 55.4238C1249.73 55.2024 1247.54 55.7491 1246.28 55.4238C1245.59 55.245 1243.68 52.651 1242.71 52.082C1242.28 53.0198 1241.16 52.7779 1240.93 52.918C1239.54 53.7514 1239.41 54.7797 1239.59 56.2598L1236.02 56.6777L1238.7 57.5137L1236.91 57.9316V59.6025L1234.24 58.7666L1234.68 60.4375L1232.45 60.0195C1231.03 61.502 1228.32 62.0221 1226.21 62.1084L1225.31 65.4502H1223.53V67.1211C1222.06 66.671 1221.76 67.8288 1221.3 67.957C1219.6 68.4263 1217.07 67.2749 1217.28 70.4639C1216.86 70.4109 1216.33 70.6061 1215.94 70.4639C1215.55 70.3198 1215.34 69.639 1215.05 69.6279C1214.9 69.6237 1214.14 70.9208 1212.82 70.4639L1213.71 72.1348C1211.23 71.645 1209.75 73.1888 1207.46 72.9697C1207.72 74.6755 1206.88 76.2436 1205.68 77.5654L1206.57 79.6543H1202.11C1201.45 77.216 1203.79 78.4147 1204.79 76.7305C1205.02 76.3339 1204.62 75.6325 1204.79 75.4766H1206.57L1205.68 74.2236L1206.57 71.2988L1203 72.1348L1203.89 73.8057C1202.61 73.6823 1201.1 73.9924 1199.88 73.8057C1199.54 73.7542 1199.33 73.0283 1198.99 72.9697C1197.26 72.6754 1194.96 72.7674 1194.08 74.2227C1192.9 76.1554 1191.49 75.9121 1190.51 77.5645C1190.27 77.9594 1190.68 78.6624 1190.51 78.8184C1189.02 78.8564 1186.84 79.1744 1186.05 77.5645C1184.83 75.1163 1188.71 77.264 1189.17 77.1475L1190.51 74.6406C1188.1 76.1103 1185.17 75.2882 1182.48 75.4766L1187.38 72.1348L1193.19 71.2988C1192.78 68.633 1197.94 67.8058 1195.86 65.4502H1197.65V63.7793L1200.33 65.4502L1201.22 61.2725C1201.48 60.9962 1204.22 64.2585 1204.79 61.6904C1205.36 59.1395 1203.34 57.8204 1202.12 55.8418L1203.9 55.4238V53.7529H1205.69V55.4238C1206.67 56.3449 1212.06 51.389 1213.27 53.7529L1212.82 51.6641L1216.39 49.5752V51.2461H1219.07L1220.41 48.7393L1224.87 49.5752L1226.66 51.2461L1226.21 46.2324L1230.67 47.9033L1228 44.5605H1230.67V42.8896C1233.37 43.3115 1235.12 41.6327 1237.81 42.0537V40.3828H1242.28L1243.17 38.2949L1242.28 35.3701L1243.17 37.041L1247.63 37.877V32.8633L1250.31 34.9521L1249.42 39.1299L1252.99 43.3076V44.1426L1247.63 49.5732L1251.65 48.7373L1253.88 49.5732V52.0791H1257.45C1257.68 48.2828 1261.52 49.0267 1261.02 52.915C1263.42 52.7694 1264.14 50.4353 1267.26 51.2441V48.7373H1269.5C1271.2 47.6776 1270.9 46.3514 1270.83 44.5605L1269.94 47.0664H1267.26L1266.37 44.5605L1265.92 49.5732C1262.91 49.2505 1261.68 51.627 1259.68 48.7373L1255.66 51.2441L1256.55 47.9023H1259.23C1258.66 46.0616 1261.29 45.3409 1261.91 44.1426C1262.5 42.9888 1261.26 42.2459 1260.12 43.3076C1259.22 44.1577 1259.35 42.983 1258.79 42.8896C1257.84 42.7322 1256.67 42.9894 1255.66 42.8896L1254.77 39.5479H1256.55L1255.66 37.459L1261.02 33.6992L1260.13 41.2188C1261.53 40.5665 1262.06 39.6856 1263.25 41.2188L1263.7 39.5479L1265.48 39.9658V41.2188C1266.94 41.623 1267.05 40.7018 1267.71 40.3828C1267.97 40.257 1268.42 40.4944 1268.6 40.3828C1269.92 39.5993 1269.62 38.5861 1270.39 37.877L1272.62 42.0537V35.7881L1275.3 34.5352L1274.4 31.1934C1275.73 30.7359 1276.49 32.0339 1276.64 32.0283C1276.94 32.0159 1277.19 31.2468 1277.53 31.1934C1278.63 31.0232 1280.16 31.4345 1281.1 31.1934C1282.13 30.9258 1284.82 27.0957 1286.45 29.5225L1288.24 27.8516L1288.68 31.1934C1289.05 31.6082 1289.69 30.4453 1290.02 30.3574C1292.69 29.6634 1295.02 33.3958 1291.36 32.8643C1292.08 34.0079 1292.66 35.228 1292.25 36.624C1291.91 37.7822 1285.98 40.1485 1284.22 39.5479V41.2188L1280.65 40.3838L1281.54 42.8906L1279.76 41.2197V42.8906L1275.3 44.5615C1276.59 44.6779 1278.07 44.3859 1279.31 44.5615C1279.65 44.609 1279.88 45.3634 1280.2 45.3975C1283.3 45.7172 1288 45.8422 1289.58 42.8906L1285.11 42.4727L1288.68 41.2188V39.5479H1289.57C1289.24 42.4288 1292.04 41.5358 1293.59 42.8906L1296.27 41.2197C1298.88 42.7821 1296.71 43.884 1296.71 44.1445C1296.71 44.3084 1298.29 45.5583 1297.61 47.0693H1295.82C1295.04 49.4938 1297.7 49.8715 1297.61 52.083C1299.77 52.3939 1301.4 51.6513 1301.18 49.5762C1304.76 50.108 1305.18 46.0198 1309.21 47.0693V44.5625H1311.88V42.8916H1313.22L1313.67 44.5625L1314.56 42.8916C1316.31 42.4183 1316.67 44.2078 1318.13 44.5625C1318.22 44.1984 1318.04 43.7401 1318.13 43.3096L1319.92 42.8916L1321.7 45.8164L1319.92 47.9053C1317.53 47.8069 1320.06 44.6749 1319.92 44.5625C1319.34 44.5048 1318.61 44.678 1318.13 44.5625C1317.83 45.8336 1317.89 46.5779 1316.35 47.4873C1315 48.2802 1313.48 47.2443 1313.67 48.7402L1315.9 49.5762L1315.45 49.9941C1317.15 52.5538 1319.84 54.8845 1319.02 58.3496C1318.95 58.6548 1318.28 58.8287 1318.13 59.1846C1317.57 60.5 1317.23 62.148 1315.9 62.9443C1315.67 63.0797 1315.19 62.8224 1315.01 62.9443C1313.36 64.0303 1311.49 65.7227 1310.1 67.1221L1312.78 66.7041L1315.01 66.2861L1318.13 67.957L1317.24 65.4512L1319.03 64.6152L1316.35 63.7803L1322.59 61.2734L1319.92 64.1973L1326.61 64.6152L1327.95 65.8682L1327.06 67.1221H1328.84C1329.33 68.387 1327.95 69.0344 1327.95 69.21C1327.95 69.4878 1328.78 69.7245 1328.84 70.0459C1329.01 70.9298 1328.74 72.0265 1328.84 72.9697L1332.41 72.1348L1330.63 74.6406L1334.64 75.4766C1335.34 74.4969 1337.02 74.34 1338.21 74.6406C1338.94 74.8243 1339.61 76.8884 1341.34 76.3115L1338.66 73.8057C1342.04 72.9542 1342.88 75.9507 1345.8 75.4766V73.8057H1347.58C1347.99 73.4875 1345.2 71.7676 1348.03 72.1348C1348.91 73.5426 1352.5 74.5396 1352.94 75.8936C1353.08 76.3226 1353.25 77.9872 1352.49 77.9824H1346.69V79.6533C1343.34 79.2734 1341.69 81.6467 1342.23 84.667L1337.77 82.9961V84.667H1339.55V87.1738H1337.77V84.667H1336.87V86.7559L1335.54 88.0088H1332.86L1328.39 93.0225C1329.65 92.6022 1331.23 90.837 1331.96 90.5156C1334.28 89.4975 1332.51 91.4237 1332.41 91.7686C1332.11 92.788 1332.65 93.5124 1333.75 93.0225C1334.77 92.5695 1337.1 90.5734 1337.32 90.5156C1337.92 90.3566 1338.68 90.7159 1339.1 90.5156C1340.13 90.036 1341.39 89.2665 1342.23 88.4268L1341.34 86.7559L1344.46 83.8311C1346.52 85.6373 1348.61 87.4414 1348.48 90.0977L1345.8 92.1865L1349.37 89.6797C1351.54 89.3686 1353.16 90.1113 1352.94 92.1865H1353.83C1353.92 90.1524 1357.01 87.2545 1359.18 87.1729V85.502L1362.31 86.3379C1363.83 85.0304 1364.99 84.2529 1364.54 82.1602H1365.88L1366.32 80.4893L1368.11 80.9072L1368.56 82.1602C1369.19 81.72 1369.73 80.8264 1370.34 80.4893C1371.61 79.7856 1375.78 78.7865 1376.14 77.5645C1376.64 75.8557 1375.71 74.4371 1378.37 72.9697H1379.27C1382.54 76.6738 1383.79 73.2379 1383.28 69.6279H1385.07V67.957C1385.49 68.0115 1386.03 67.8098 1386.41 67.957C1388.04 68.5933 1387.54 69.0247 1389.98 67.957L1390.87 68.793C1391.94 67.6849 1393.44 67.0409 1393.1 65.4502H1394.88V63.7793L1398.45 62.9434C1399.03 65.6281 1396.43 66.685 1394.88 68.374L1398.45 68.792V67.1211H1400.24C1400.28 64.7117 1401.73 65.3504 1402.92 63.3613C1403.16 62.9561 1406.66 59.679 1406.93 59.6016C1407.98 59.304 1408.5 60.298 1409.16 60.8545L1408.27 61.6904L1410.06 62.1084C1409.73 60.9434 1411.43 59.1403 1412.29 58.7656C1414.21 57.9258 1413.4 60.2308 1413.63 60.8545C1413.89 61.6024 1416.01 62.1465 1415.41 63.7793L1410.95 62.1084L1412.73 63.3613L1411.39 64.6152L1410.5 63.7793L1405.59 64.6152C1405.92 66.3468 1404.06 67.1237 1402.92 68.375L1407.83 67.1221C1409.05 66.4621 1410.98 66.8774 1413.18 66.2861C1413.62 66.168 1414.38 64.9666 1414.96 64.6152C1416.03 65.7232 1417.54 66.3662 1417.2 67.957L1415.41 67.1211C1415.7 68.8195 1413.77 69.0613 1415.41 70.0459L1414.07 71.2988C1411.4 70.7671 1410.03 72.586 1407.83 73.8057C1406.35 72.21 1405.51 71.2633 1403.81 73.3877L1406.04 75.4766L1414.52 72.1348C1414.3 73.6557 1415.89 74.3315 1415.41 75.8936C1415.28 76.3233 1413.97 76.9883 1413.63 77.5645C1413.39 77.9594 1413.79 78.6624 1413.63 78.8184C1413.47 78.9633 1412.77 78.6309 1412.29 78.8184C1411.91 78.9642 1411.73 79.5551 1411.39 79.6533C1409.89 80.0894 1407.67 78.5199 1408.27 81.3242L1410.5 82.1592C1411.85 80.3648 1414.52 80.8951 1415.86 80.4883C1416.21 80.3795 1416.4 79.7545 1416.75 79.6523C1422.6 77.9728 1427.9 77.2428 1433.7 75.4746C1434.13 75.3432 1434.32 74.3375 1435.49 74.6387C1435.85 74.7313 1436.04 75.4026 1436.38 75.4746C1437.42 75.6923 1438.91 75.2594 1439.95 75.4746C1440.28 75.5419 1440.46 76.1689 1440.84 76.3105C1442.31 76.8574 1443.9 77.1315 1444.86 78.3994C1444.56 80.1059 1445.29 82.7751 1444.86 84.248C1444.73 84.6893 1442.77 86.0403 1442.18 86.7549C1442.04 86.9345 1442.32 87.4232 1442.18 87.5898C1439.4 90.8658 1435.5 93.3358 1432.37 95.9453L1438.61 96.3633V98.8701H1436.83C1437.21 101.891 1433.95 100.702 1432.36 102.63L1435.93 104.301C1435.19 105.031 1433.72 106.023 1432.81 106.39C1431.42 106.946 1427.7 108.145 1426.12 108.479C1424.54 108.81 1424.85 108.844 1423.44 108.061C1422.92 110.248 1425.02 110.132 1425.67 110.567C1426.57 111.171 1429.65 113.772 1430.13 113.909C1431.91 114.41 1432.77 112.2 1434.15 114.327L1427.01 121.012L1430.58 121.43L1428.79 123.101L1432.36 122.683V121.43L1438.61 120.594L1436.82 118.923L1442.18 120.176C1440.71 121.296 1440.05 122.087 1440.39 123.936L1435.04 123.1C1435.3 124.691 1434.06 125.846 1432.36 125.606L1433.25 128.113C1431.79 127.661 1431.49 128.823 1431.02 128.949C1430.28 129.152 1429.11 128.753 1428.35 128.949C1427.86 129.076 1427.05 130.494 1426.56 130.62C1425.16 130.983 1422.61 130.258 1421.21 130.62C1420.44 130.818 1419.77 132.906 1418.08 132.291V135.633H1389.97C1389.42 135.633 1388.26 133.908 1388.63 133.126L1390.53 132.239C1389.83 132.215 1389.54 131.548 1389.08 131.455C1386.44 130.926 1386.28 131.661 1385.06 133.126C1385.03 133.184 1384.43 132.838 1384.17 133.974C1380.71 134.498 1376.63 135.605 1373.47 133.974V135.645C1352.8 135.8 1332.11 135.436 1311.44 135.645C1267.35 136.089 1220.76 136.33 1176.68 137.315C1171.43 137.433 1153.61 138.271 1149.91 137.315C1149.34 137.169 1148.01 135.273 1147.23 134.809L1143.66 137.315C1143.08 137.211 1142.41 137.458 1141.88 137.315C1138.2 136.328 1135.82 137.901 1132.06 137.315C1131.72 137.262 1131.46 136.48 1131.17 136.48C1102.32 136.48 1070.78 137.95 1041.92 138.151C997.005 138.465 952.076 137.935 907.16 138.151C862.558 138.366 815.194 138.591 770.615 139.822C758.276 140.163 746.543 139.309 734.918 139.822C724.425 140.285 713.739 139.48 703.235 139.822L703.683 138.151L701.898 139.822C680.022 140.426 657.674 139.012 635.856 139.822C623.753 140.272 610.604 140.315 598.373 140.658C591.098 140.862 583.777 140.509 576.507 140.658L575.615 138.987L575.169 140.658C574.316 141.216 573.686 139.824 573.384 139.822C564.204 139.822 549.258 142.32 538.577 140.658C531.319 139.528 509.508 140.062 500.202 140.658C488.544 141.405 475.432 140.383 462.719 140.658C418.904 141.607 372.571 142.046 327.959 142.329C220.846 143.009 114.296 142.665 7.57043 144L5.33899 142.329V144H-11.9989V91.2744ZM227.56 13.2393L225.775 11.1504L224.883 15.3281H226.668L227.56 13.2393ZM248.533 13.6572C249.113 13.6571 249.113 12.8214 248.533 12.8213C247.953 12.8213 247.953 13.6572 248.533 13.6572ZM217.297 16.999C217.877 16.999 217.877 16.1631 217.297 16.1631C216.717 16.1631 216.717 16.999 217.297 16.999ZM236.038 18.6699C236.618 18.6699 236.618 17.834 236.038 17.834C235.459 17.8351 235.459 18.6696 236.038 18.6699ZM197.663 20.3408C198.243 20.3408 198.243 19.5049 197.663 19.5049C197.084 19.505 197.084 20.3407 197.663 20.3408ZM260.135 22.0117C260.715 22.0117 260.715 21.1768 260.135 21.1768C259.555 21.176 259.555 22.0117 260.135 22.0117ZM727.778 22.8467L728.225 24.1006L727.332 25.3535H729.117L727.778 22.8467ZM272.629 25.3535C273.208 25.3532 273.208 24.5179 272.629 24.5176C272.05 24.5176 272.05 25.3535 272.629 25.3535ZM275.753 25.3535H274.86V27.0244H275.753V25.3535ZM239.609 26.1895C240.188 26.1891 240.188 25.3539 239.609 25.3535C239.03 25.3535 239.03 26.1895 239.609 26.1895ZM237.823 27.0244C238.403 27.0244 238.403 26.1895 237.823 26.1895C237.244 26.1898 237.244 27.024 237.823 27.0244ZM884.402 33.7041V32.0332L881.725 32.8682L882.617 29.5264L886.187 30.3623L885.74 32.0332L888.863 31.1973V34.5391L884.402 33.7041ZM731.795 29.5313H730.01V30.3672H731.795V29.5313ZM24.5284 30.3672C25.108 30.367 25.108 29.5314 24.5284 29.5313C23.9486 29.5313 23.9486 30.3672 24.5284 30.3672ZM864.323 31.2021C864.903 31.2021 864.903 30.3662 864.323 30.3662C863.744 30.3671 863.744 31.202 864.323 31.2021ZM257.904 30.3672L256.119 32.0381H257.904V30.3672ZM730.901 32.0381L726.44 31.2021V33.709L728.671 34.5449L730.901 32.0381ZM233.808 31.2021H231.13V32.0381H233.808V31.2021ZM228.007 32.0381C228.586 32.0377 228.586 31.2026 228.007 31.2021C227.428 31.2021 227.428 32.0381 228.007 32.0381ZM255.672 33.709C256.252 33.709 256.252 32.873 255.672 32.873C255.093 32.8734 255.093 33.7087 255.672 33.709ZM192.309 33.709C192.888 33.7089 192.888 32.8732 192.309 32.873C191.729 32.873 191.729 33.709 192.309 33.709ZM746.521 34.5449C747.1 34.5445 747.1 33.7094 746.521 33.709C745.941 33.709 745.941 34.5449 746.521 34.5449ZM722.423 40.3945C723.842 39.0687 725.25 40.263 724.653 37.4697L727.332 34.5449C725.067 34.112 724.216 35.2668 722.869 36.6338L723.762 37.4697L722.423 40.3945ZM711.269 34.5449L707.698 35.3799L712.161 37.8867L711.269 34.5449ZM265.937 34.5449H264.151V36.2158H265.937V34.5449ZM201.68 34.5449L199.894 36.2158H201.68V34.5449ZM941.521 37.8877H939.735L938.843 36.2158L940.182 41.2295L941.521 37.8877ZM258.796 37.4688V37.0508H257.011V38.7217L258.796 37.4688ZM194.985 37.8867C195.565 37.8867 195.565 37.0508 194.985 37.0508C194.406 37.0512 194.406 37.8863 194.985 37.8867ZM190.525 37.8867C191.104 37.8864 191.104 37.0511 190.525 37.0508C189.945 37.0508 189.945 37.8867 190.525 37.8867ZM273.521 49.585C275.531 48.3305 277.853 46.8772 280.214 47.0781V45.4072L282.892 44.1543L279.322 43.7363C279.243 42.7549 279.207 42.1437 279.769 41.2295C280.789 39.569 281.182 41.6357 281.999 40.8115L278.875 37.0518L275.753 39.1406L276.645 42.0654L273.967 40.3945L275.753 46.2432L273.967 46.2422L273.521 49.585ZM74.505 38.7227C75.0848 38.7227 75.0848 37.8867 74.505 37.8867C73.9255 37.887 73.9255 38.7224 74.505 38.7227ZM199.448 39.5576C200.028 39.5576 200.028 38.7217 199.448 38.7217C198.869 38.7217 198.869 39.5576 199.448 39.5576ZM970.971 39.9756L970.525 39.5576L968.293 40.3936V41.2285L970.971 39.9756ZM202.572 39.5576H200.787V40.3936H202.572V39.5576ZM863.877 40.3936H862.984V42.0645H863.877V40.3936ZM848.706 40.3936L846.028 41.2285V42.0645L848.706 42.9004V40.3936ZM721.978 41.6465L720.639 40.3936L719.3 42.0645H721.978V41.6465ZM976.325 45.4063C975.876 43.7663 977.027 42.9596 977.218 41.6465C977.687 38.4188 973.981 42.5821 972.755 42.0645L973.648 43.7354L970.97 44.5713L975.434 43.7354L976.325 45.4063ZM1241.83 42.0645C1242.41 42.064 1242.41 41.2289 1241.83 41.2285C1241.25 41.2285 1241.25 42.0645 1241.83 42.0645ZM967.401 42.4824V42.0645H964.724V44.5713L967.401 42.4824ZM922.779 42.4824V42.0645H920.994V43.7354L922.779 42.4824ZM257.011 42.0645H256.119V43.7354H257.011V42.0645ZM694.312 46.6602C695.755 45.5639 696.45 44.7438 696.097 42.9004C695.276 43.0484 693.765 42.42 693.419 43.3184C692.941 44.5578 692.394 45.8213 691.634 47.0781L696.097 48.749L694.312 46.6602ZM1249.42 42.9004L1245.85 44.5713L1247.63 46.2422L1249.42 42.9004ZM957.139 43.7354C957.718 43.7349 957.718 42.9008 957.139 42.9004C956.559 42.9004 956.559 43.7354 957.139 43.7354ZM846.92 43.7354V42.9004H842.458L844.689 44.5713L846.92 43.7354ZM266.828 42.9004H265.937V44.5713H266.828V42.9004ZM78.5216 42.9004H76.7365L78.5216 44.5713V42.9004ZM962.493 44.5713C963.073 44.5711 963.073 43.7356 962.493 43.7354C961.914 43.7354 961.914 44.5713 962.493 44.5713ZM874.586 43.7354H872.801V44.5713H874.586V43.7354ZM261.027 44.5713C261.607 44.5709 261.607 43.7358 261.027 43.7354C260.448 43.7354 260.448 44.5713 261.027 44.5713ZM188.292 44.5713C188.047 44.3492 184.908 46.6839 183.831 46.2422L184.723 48.749L188.292 44.5713ZM914.747 47.0781V44.5713C912.943 44.8839 913.204 46.6484 912.069 47.4961L912.516 47.9141L914.747 47.0781ZM690.295 45.4072C690.875 45.4072 690.875 44.5713 690.295 44.5713C689.717 44.5717 689.717 45.4068 690.295 45.4072ZM1263.69 45.4072H1262.8V47.0781H1263.69V45.4072ZM952.231 45.4072H947.768V46.2422H952.231V45.4072ZM707.698 45.4072H705.913V46.2422H707.698V45.4072ZM178.029 55.4326C179.214 53.4919 180.838 55.7031 181.153 55.4326L178.476 52.5078V50.4189H180.261V46.2412H176.692C176.399 46.4757 179.88 49.0584 177.138 49.584C175.727 49.8545 173.76 49.4004 172.23 49.584L174.905 50.4199C174.334 52.9257 176.505 53.8702 178.029 55.4326ZM920.102 47.0781L917.871 46.2422L917.424 46.6602L920.102 47.9131V47.0781ZM700.559 46.2422H698.775V47.0781H700.559V46.2422ZM690.295 47.9141C690.875 47.9141 690.875 47.0781 690.295 47.0781C689.717 47.0785 689.717 47.9136 690.295 47.9141ZM306.542 47.9141C307.122 47.9141 307.122 47.0781 306.542 47.0781C305.963 47.0783 305.963 47.9139 306.542 47.9141ZM692.527 50.8379C691.168 49.0776 688.958 50.0104 687.619 47.9131L687.172 48.3311C688.546 50.4348 690.47 50.0861 692.08 51.2559L692.527 50.8379ZM1276.64 48.749C1277.22 48.7487 1277.22 47.9144 1276.64 47.9141C1276.06 47.9141 1276.06 48.749 1276.64 48.749ZM712.607 48.749C713.186 48.749 713.186 47.9141 712.607 47.9141C712.028 47.9141 712.028 48.749 712.607 48.749ZM650.581 47.9141L648.796 49.167L650.135 50.4199H650.581V47.9141ZM279.323 54.5977C279.468 52.9315 277.958 52.8411 279.323 51.2549H277.984V48.748L274.86 52.9268L279.323 54.5977ZM1310.1 48.749H1309.21V50.4199H1310.1V48.749ZM913.408 49.585C913.988 49.5849 913.988 48.7491 913.408 48.749C912.829 48.749 912.829 49.585 913.408 49.585ZM708.145 49.585C708.724 49.585 708.724 48.749 708.145 48.749C707.565 48.7492 707.565 49.5848 708.145 49.585ZM653.26 48.749L651.475 50.4199H653.26V48.749ZM988.82 50.8379C987.837 49.5502 986.912 49.3959 985.251 49.585V51.2559H988.82V50.8379ZM918.763 50.4199C919.343 50.4199 919.343 49.584 918.763 49.584C918.183 49.585 918.183 50.4197 918.763 50.4199ZM259.242 50.4199C259.822 50.4199 259.822 49.584 259.242 49.584C258.663 49.5844 258.663 50.4195 259.242 50.4199ZM1305.64 49.585L1303.85 51.2559H1305.64V49.585ZM1248.52 50.4209L1246.29 49.585L1244.95 52.0918H1248.52V50.4209ZM922.779 57.1045C923.499 54.4838 920.495 54.0308 920.994 51.6738L922.779 51.2559L921.441 49.585C919.878 51.452 918.748 51.8588 916.532 50.4209C916.046 52.8307 917.213 51.7166 917.871 52.0918C919.051 52.7645 919.444 53.7519 919.209 55.0156L917.424 57.1045L920.548 57.9395L922.779 57.1045ZM1295.38 51.2559C1295.96 51.2559 1295.96 50.4209 1295.38 50.4209C1294.8 50.4203 1294.8 51.2557 1295.38 51.2559ZM1272.17 51.2559C1272.75 51.2559 1272.75 50.4209 1272.17 50.4209C1271.59 50.4201 1271.59 51.2559 1272.17 51.2559ZM941.966 51.2559C942.546 51.2559 942.546 50.4209 941.966 50.4209C941.388 50.4205 941.388 51.2555 941.966 51.2559ZM751.875 52.0918C752.455 52.0916 752.455 51.2561 751.875 51.2559C751.295 51.2559 751.295 52.0918 751.875 52.0918ZM686.279 52.9277L688.065 52.5098L685.387 51.2559V54.5986H686.279V52.9277ZM335.547 52.0918L337.332 52.5098L334.654 51.2559V53.7627H335.547V52.0918ZM121.359 53.7627L117.789 55.4336L119.574 52.0918C117.583 51.776 117.818 52.2762 117.343 53.7627C117.085 54.5683 116.631 55.2463 116.897 56.2695L119.127 57.1045L121.359 53.7627ZM913.854 52.9268C912.507 53.2747 912.233 52.3529 911.177 52.0908V54.5977H912.515L913.854 52.9268ZM909.393 52.0908H907.607V52.9268H909.393V52.0908ZM681.371 52.9268C681.951 52.9267 681.951 52.0908 681.371 52.0908C680.791 52.0916 680.791 52.9268 681.371 52.9268ZM406.496 52.9268C407.076 52.9268 407.076 52.0908 406.496 52.0908C405.917 52.0917 405.917 52.9267 406.496 52.9268ZM1235.14 52.0918H1234.24V54.5986H1235.14V52.0918ZM1225.32 52.0918H1222.64V53.7627H1223.98L1225.32 52.0918ZM901.36 54.5977C903.505 54.5463 905.436 55.1594 906.715 53.3447L906.269 52.9268C905.179 54.3332 903.156 53.6257 901.36 53.7617V54.5977ZM1287.34 53.7627C1287.92 53.7627 1287.92 52.9277 1287.34 52.9277C1286.77 52.9271 1286.77 53.7626 1287.34 53.7627ZM990.606 52.9277H988.82V53.7627H990.606V52.9277ZM832.195 53.7627C832.775 53.7624 832.775 52.928 832.195 52.9277C831.616 52.9269 831.616 53.7627 832.195 53.7627ZM418.991 53.7627C419.571 53.7623 419.571 52.9281 418.991 52.9277C418.411 52.9269 418.411 53.7627 418.991 53.7627ZM269.952 53.7627C270.532 53.7626 270.532 52.9278 269.952 52.9277C269.372 52.9269 269.372 53.7627 269.952 53.7627ZM101.726 52.9277H99.9406V53.7627H101.726V52.9277ZM1237.37 54.5977C1237.95 54.5975 1237.95 53.7618 1237.37 53.7617C1236.79 53.7625 1236.79 54.5977 1237.37 54.5977ZM273.522 54.5977C274.101 54.5977 274.101 53.7617 273.522 53.7617C272.942 53.7626 272.942 54.5976 273.522 54.5977ZM987.927 53.7627H986.143L987.035 57.1045H987.927V53.7627ZM325.73 53.7627H324.837V56.2695H325.73V53.7627ZM321.267 53.7627H320.375V55.4336H321.267V53.7627ZM930.812 54.5986H929.026V55.4336H930.812V54.5986ZM835.766 56.2695C835.953 56.2684 836.644 54.9763 837.996 55.4336V54.5986H832.642V55.4336C834.255 54.7956 835.591 56.2695 835.766 56.2695ZM439.517 55.4336C440.096 55.4336 440.096 54.5986 439.517 54.5986C438.938 54.5979 438.938 55.4335 439.517 55.4336ZM123.59 55.4336C124.17 55.4336 124.17 54.5986 123.59 54.5986C123.01 54.5987 123.01 55.4335 123.59 55.4336ZM274.86 57.1045C275.977 57.6438 277.979 55.7677 277.538 55.4336C276.421 54.8946 274.418 56.7713 274.86 57.1045ZM291.37 56.2695C291.95 56.2695 291.95 55.4336 291.37 55.4336C290.791 55.4336 290.791 56.2695 291.37 56.2695ZM271.736 56.2695C272.316 56.2695 272.316 55.4336 271.736 55.4336C271.158 55.4337 271.158 56.2694 271.736 56.2695ZM288.246 56.6865L287.8 56.2686C287.036 57.3733 286.005 57.1472 284.677 57.1045L286.016 58.7754L288.246 56.6865ZM366.783 57.1045H368.568V56.2695H364.998L366.336 58.7754L366.783 57.1045ZM1206.13 57.1045H1205.68V58.7754H1207.47L1206.13 57.1045ZM995.514 57.9404C996.093 57.9403 996.093 57.1046 995.514 57.1045C994.934 57.1037 994.934 57.9404 995.514 57.9404ZM696.543 57.9404C697.123 57.9404 697.123 57.1045 696.543 57.1045C695.964 57.1038 695.964 57.9403 696.543 57.9404ZM364.105 57.1045H363.213V58.7754H364.105V57.1045ZM70.9357 57.9404C71.5154 57.9404 71.5154 57.1045 70.9357 57.1045C70.3558 57.1037 70.3558 57.9404 70.9357 57.9404ZM1003.99 57.9395H1002.21V58.7754H1003.99V57.9395ZM411.851 58.7754C412.431 58.7754 412.431 57.9395 411.851 57.9395C411.271 57.9397 411.272 58.7751 411.851 58.7754ZM329.745 58.7754C330.324 58.7754 330.324 57.9395 329.745 57.9395C329.167 57.9406 329.167 58.7751 329.745 58.7754ZM315.913 57.9404H315.021V59.6113H315.913V57.9404ZM290.924 57.9404H290.031V59.6113H290.924V57.9404ZM922.779 58.7754H920.102V59.6113H922.779V58.7754ZM911.177 58.7754H909.393V60.4463H911.177V58.7754ZM665.753 59.1934V58.7754H663.968V60.4463L665.753 59.1934ZM377.939 59.6113C378.518 59.6109 378.518 58.7758 377.939 58.7754C377.359 58.7754 377.359 59.6113 377.939 59.6113ZM356.072 58.7754H355.181V60.4463H356.072V58.7754ZM166.874 58.7754L165.089 60.4463H166.874V58.7754ZM914.301 60.4463C914.88 60.4459 914.88 59.6118 914.301 59.6113C913.721 59.6105 913.721 60.4463 914.301 60.4463ZM887.526 60.4463C888.106 60.4463 888.106 59.6113 887.526 59.6113C886.948 59.6108 886.948 60.446 887.526 60.4463ZM763.031 59.6113H761.245V61.2822H763.031V59.6113ZM287.355 64.2061H284.677L285.569 59.6113L283.783 61.6992V65.459H283.784L287.355 64.2061ZM146.794 60.4463C147.374 60.4463 147.374 59.6113 146.794 59.6113C146.214 59.6106 146.214 60.4462 146.794 60.4463ZM103.51 59.6113L101.725 61.2822H103.51V59.6113ZM1121.35 61.2822C1121.93 61.2822 1121.93 60.4463 1121.35 60.4463C1120.77 60.4474 1120.77 61.2819 1121.35 61.2822ZM928.133 61.2822L924.564 60.4463L925.902 62.9531L928.133 61.2822ZM385.077 61.2822C385.657 61.2822 385.657 60.4463 385.077 60.4463C384.498 60.4471 384.498 61.2822 385.077 61.2822ZM271.291 63.7881L272.183 65.459C271.932 63.7804 273.288 62.6896 274.86 62.9531L273.522 60.4463L270.845 61.2822L266.828 63.3711L267.721 65.459L271.291 63.7881ZM1097.7 61.6992V61.2813L1094.13 61.2822V62.5352L1095.47 63.7881L1097.7 61.6992ZM995.068 62.1172V61.2822L992.39 62.5352L992.836 62.9531L995.068 62.1172ZM921.886 66.2949C921.502 64.3774 922.878 62.9702 923.671 61.2822L920.102 61.6992L920.994 65.459L916.978 63.7881L916.531 66.2949L919.655 67.1309L921.886 66.2949ZM907.608 61.2822H905.822V62.1172H907.608V61.2822ZM378.83 62.1172C379.41 62.1172 379.41 61.2822 378.83 61.2822C378.251 61.2824 378.251 62.117 378.83 62.1172ZM343.579 61.2822L341.794 61.2822V62.1172L343.579 62.1172V61.2822ZM160.18 62.1172C160.76 62.1172 160.76 61.2822 160.18 61.2822C159.601 61.2826 159.601 62.1168 160.18 62.1172ZM1406.93 62.9531C1407.51 62.953 1407.51 62.1173 1406.93 62.1172C1406.35 62.1172 1406.35 62.9531 1406.93 62.9531ZM366.781 75.4854L370.351 77.9922V74.6504L373.475 75.4863L377.49 73.3975L373.921 72.9795L374.814 68.8018L377.49 67.9658L373.921 66.2949L376.599 65.877L380.168 67.1299C379.132 65.1323 379.202 63.4548 377.044 62.1172L374.814 62.9521L375.705 65.459H372.136C372.88 60.8951 368.864 63.0196 369.459 66.2949L367.674 64.624L366.781 66.2949C364.852 65.9784 363.759 65.2222 361.429 65.459C361.48 66.0048 361.404 66.5792 361.428 67.1289L364.105 66.293C363.98 67.9329 364.288 69.6954 364.105 71.3076C366.023 71.1612 365.573 70.9008 366.782 70.0547C368.212 69.0543 367.768 68.1361 369.46 70.0547L364.552 73.8145C361.706 74.04 364.003 72.206 364.105 71.3076C363.521 71.3519 362.908 71.287 362.319 71.3076L363.212 69.2188L361.427 68.8008V73.8145H357.858C357.35 74.2751 359.39 78.8122 361.427 77.9922L360.534 74.6504L364.996 75.9033L365.889 78.8281L366.781 75.4854ZM353.396 66.7119C354.741 68.0321 353.77 69.5732 356.52 68.8008C357.777 68.4475 358.424 65.7656 361.427 65.459C361.283 63.9323 361.764 62.65 359.643 62.1172L356.072 63.7881L357.858 66.2949L354.734 65.459L353.396 66.7119ZM158.842 62.1172H157.949V63.7881H158.842V62.1172ZM70.9357 64.624C73.2622 63.7533 71.3429 60.8786 69.5968 63.3711V64.624H70.9357ZM309.22 67.1299V66.2949H310.559L309.22 62.9521L304.312 64.623L306.988 65.458V67.9658L309.22 67.1299ZM1001.31 62.9531H999.529V63.7881H1001.31V62.9531ZM915.193 63.7881C915.772 63.7881 915.772 62.9531 915.193 62.9531C914.614 62.9533 914.614 63.7879 915.193 63.7881ZM813.901 62.9531H813.008V64.624H813.901V62.9531ZM626.039 65.459C627.451 64.3359 629.126 63.5532 630.947 63.7881V62.9531H628.717L625.593 65.041L626.039 65.459ZM156.61 63.7881C157.19 63.7881 157.19 62.9531 156.61 62.9531C156.031 62.9532 156.031 63.788 156.61 63.7881ZM659.507 69.6367C659.871 68.0872 658.966 67.2335 658.614 65.877C658.386 65 659.32 63.566 657.722 63.7881V68.3838L659.507 69.6367ZM1093.68 64.624C1094.26 64.6236 1094.26 63.7886 1093.68 63.7881C1093.1 63.7881 1093.1 64.624 1093.68 64.624ZM1013.81 65.041V63.7881H1012.02V66.2949H1012.47L1013.81 65.041ZM991.497 63.7881H989.712C990.085 65.0496 989.1 65.3066 988.82 66.2949H991.497V63.7881ZM811.223 63.7881C809.431 64.2329 809.221 65.5621 809.438 67.1299H811.223V63.7881ZM609.529 64.2061V63.7881H607.744V65.459L609.529 64.2061ZM600.158 64.624C600.738 64.6237 600.738 63.7884 600.158 63.7881C599.579 63.7881 599.579 64.624 600.158 64.624ZM588.557 64.624C589.136 64.6236 589.136 63.7885 588.557 63.7881C587.977 63.7881 587.977 64.624 588.557 64.624ZM381.508 64.624C382.088 64.6239 382.088 63.7882 381.508 63.7881C380.929 63.7881 380.929 64.624 381.508 64.624ZM280.661 64.624C281.24 64.6236 281.24 63.7885 280.661 63.7881C280.081 63.7881 280.082 64.624 280.661 64.624ZM1129.38 65.459C1129.96 65.459 1129.96 64.624 1129.38 64.624C1128.8 64.6242 1128.8 65.4588 1129.38 65.459ZM1124.47 64.624L1122.69 66.2949H1124.47V64.624ZM832.642 64.624H830.857L832.642 66.2949V64.624ZM806.314 65.459C806.893 65.459 806.893 64.624 806.314 64.624C805.735 64.624 805.735 65.459 806.314 65.459ZM568.03 67.1299L569.369 64.624L564.015 65.877L567.584 65.459L564.906 69.6367L568.03 67.1299ZM62.0118 65.459C62.5911 65.4586 62.5911 64.6244 62.0118 64.624C61.432 64.624 61.432 65.459 62.0118 65.459ZM1209.7 66.2949C1210.28 66.2949 1210.28 65.459 1209.7 65.459C1209.12 65.459 1209.12 66.2949 1209.7 66.2949ZM1133.4 65.877V65.459H1131.61V67.1299L1133.4 65.877ZM1118.67 66.2949C1119.25 66.2947 1119.25 65.4593 1118.67 65.459C1118.09 65.459 1118.09 66.2949 1118.67 66.2949ZM814.792 66.2949V65.459L812.114 66.7129L812.562 67.1299L814.792 66.2949ZM769.724 66.2949C770.303 66.2946 770.303 65.4593 769.724 65.459C769.145 65.459 769.145 66.2949 769.724 66.2949ZM349.38 66.2949C349.96 66.2949 349.96 65.459 349.38 65.459C348.8 65.4592 348.8 66.2947 349.38 66.2949ZM300.295 66.2949C300.875 66.2949 300.875 65.459 300.295 65.459C299.716 65.4593 299.716 66.2946 300.295 66.2949ZM593.465 71.7256L592.571 68.8008C592.399 68.6455 591.653 69.0215 591.233 68.8008C589.597 67.9427 590.474 66.1778 589.002 66.2949C588.858 67.9607 590.366 68.0507 589.002 69.6367H590.787L589.895 72.9785L593.465 71.7256ZM1325.27 66.2949H1323.49V67.1299H1325.27V66.2949ZM764.368 75.4854C765.285 76.7684 766.82 76.2635 768.385 76.3213C765.771 71.5083 769.257 72.6872 772.401 72.1436C772.742 72.0842 772.954 71.363 773.293 71.3076C774.502 71.1098 777.384 72.1045 777.309 70.4717L770.169 69.6367L771.954 66.2949L770.615 67.9658C769.054 67.9181 767.664 65.9602 766.153 67.9658C765.228 66.5411 764.16 68.4724 762.137 67.9658C760.789 71.0021 767.002 68.5131 765.706 70.8896C765.54 71.1943 763.827 72.7946 763.476 72.9785C763.054 73.1985 762.304 72.8228 762.137 72.9785C761.971 73.1344 762.372 73.8364 762.137 74.2314C761.85 74.7158 759.882 75.9618 760.353 76.3213L764.368 75.4854ZM660.845 67.1299C661.424 67.1295 661.424 66.2953 660.845 66.2949C660.266 66.2957 660.266 67.1299 660.845 67.1299ZM611.314 67.1299L609.083 66.2949L606.852 67.9658H611.314V67.1299ZM166.873 67.9658V67.1299L163.75 66.2949L164.196 67.5479L163.304 68.8018L166.873 67.9658ZM625.593 67.5479C624.662 65.3702 621.592 67.1666 624.254 68.8018H625.593V67.5479ZM829.518 67.9658C830.097 67.9658 830.097 67.1299 829.518 67.1299C828.938 67.1299 828.938 67.9658 829.518 67.9658ZM597.481 67.9658C598.06 67.9658 598.06 67.1299 597.481 67.1299C596.902 67.13 596.902 67.9657 597.481 67.9658ZM644.781 74.6504C646.437 73.2504 648.406 72.716 650.582 72.9795L649.691 70.4727L652.367 71.3086V68.8018H655.937L654.599 67.9658L655.045 67.5479L651.476 67.9658V69.6367L648.352 70.4727L647.013 67.1309V70.4727L642.55 71.3086L642.997 72.9795H644.334L644.781 74.6504ZM1314.56 67.9658H1313.67V69.6367H1314.56V67.9658ZM1101.71 68.8018C1102.29 68.8018 1102.29 67.9658 1101.71 67.9658C1101.14 67.9662 1101.14 68.8014 1101.71 68.8018ZM1022.29 68.8018C1022.87 68.8018 1022.87 67.9658 1022.29 67.9658C1021.71 67.9659 1021.71 68.8016 1022.29 68.8018ZM919.655 68.8018C920.235 68.8016 920.235 67.966 919.655 67.9658C919.076 67.9658 919.076 68.8018 919.655 68.8018ZM1088.77 70.8906C1089.26 71.2129 1090.9 72.1759 1091.45 71.7266V69.6377C1089.63 69.8727 1087.95 69.0899 1086.54 67.9668L1086.2 68.8252C1087.3 69.0673 1087.91 70.3133 1088.77 70.8906ZM1018.72 69.6367C1019.3 69.6367 1019.3 68.8008 1018.72 68.8008C1018.14 68.8016 1018.14 69.6367 1018.72 69.6367ZM616.222 69.6367C616.802 69.6367 616.802 68.8008 616.222 68.8008C615.643 68.802 615.643 69.6363 616.222 69.6367ZM596.142 68.8008H593.465V69.6367H596.142V68.8008ZM568.476 74.6504C570.321 72.9511 571.429 74.6581 571.6 74.6504C571.912 74.6322 572.151 73.8683 572.492 73.8145C573.973 73.5826 575.839 73.9728 577.401 73.8145L576.508 72.1436L581.863 71.3076V68.8008L580.077 70.4717C577.403 70.3759 574.565 69.9713 574.723 72.9785L573.83 72.9785V71.3076C571.901 71.0045 570.48 71.6148 568.922 72.1436C567.963 72.4689 568.634 73.881 568.476 74.6504ZM1413.63 70.0547L1412.29 68.8018L1411.84 69.2197L1413.18 70.4727L1413.63 70.0547ZM1402.02 72.9795C1401.98 71.7362 1401.74 70.771 1402.92 70.0547L1402.47 69.6367L1400.24 71.7256L1402.02 72.9795ZM1097.7 69.6367H1095.02V70.4727H1097.7V69.6367ZM613.991 69.6367H611.314V70.4727H613.991V69.6367ZM308.774 70.0547L308.326 69.6367L306.988 70.8896L307.435 71.3076L308.774 70.0547ZM24.0822 70.4727C24.5575 72.1507 25.9767 72.3462 27.6515 72.1436L26.3126 69.6367L24.0822 70.4727ZM586.324 69.6377H582.755V70.4727C583.834 70.308 584.35 70.4889 584.985 71.3086L586.324 69.6377ZM1133.84 71.3076C1134.42 71.3076 1134.42 70.4717 1133.84 70.4717C1133.26 70.4717 1133.26 71.3076 1133.84 71.3076ZM449.334 71.3076C449.914 71.3076 449.914 70.4717 449.334 70.4717C448.754 70.4725 448.754 71.3076 449.334 71.3076ZM1049.51 70.4727H1048.61V72.1436H1049.51V70.4727ZM1018.27 72.9795C1019.01 73.5548 1023.45 71.0109 1022.73 70.4727L1018.27 72.1436V72.9795ZM658.167 72.3301V70.4727L656.383 72.1436L653.259 71.7256L654.598 73.8145L658.167 72.3301ZM559.552 70.4727H558.659V72.1436H559.552V70.4727ZM1395.78 71.3076C1395.34 71.6416 1397.34 73.5183 1398.46 72.9785C1398.9 72.6445 1396.89 70.7689 1395.78 71.3076ZM1239.15 72.1436C1239.73 72.1435 1239.73 71.3077 1239.15 71.3076C1238.57 71.3076 1238.57 72.1436 1239.15 72.1436ZM30.3282 75.0684L29.4366 71.3086L28.5441 73.8154L24.0822 75.9043V77.9932L27.6515 77.1572V80.499L30.3282 75.0684ZM794.267 75.9033C793.953 76.9529 795.478 78.2233 796.497 77.9922L796.051 76.3213L799.175 77.1572L800.513 75.9043L799.621 74.2334L802.298 72.1445L799.621 72.1436C800.385 75.5406 794.855 73.9361 794.267 75.9033ZM500.651 72.1436H498.865V72.9795H500.651V72.1436ZM386.862 72.9795C387.442 72.9795 387.442 72.1436 386.862 72.1436C386.284 72.1436 386.284 72.9794 386.862 72.9795ZM778.649 91.3613C780.07 89.5877 782.496 90.0789 784.003 89.6904C784.493 89.5638 785.291 88.1541 785.787 88.0195C788.427 87.3103 790.374 86.3398 792.928 85.5127C793.559 85.3083 794.316 84.1006 796.052 84.6768L796.943 81.7529C796.098 81.0898 794.179 82.933 793.819 83.0059C792.675 83.2384 791.063 82.8516 789.804 83.0059C789.535 81.5899 790.218 80.503 790.695 79.2461C791.007 78.4261 791.799 78.8732 792.482 78.8281L790.695 77.9922C790.195 77.5819 792.353 76.3338 792.482 75.9033C792.648 75.3486 793.019 72.6685 791.589 72.9785L788.911 75.9033V77.9922H786.234L787.126 75.4854L782.664 77.5742L783.557 79.2451C781.165 80.7822 781.925 83.7529 779.541 85.5117H776.417L777.31 82.1699C773.834 83.2884 776.844 87.357 774.633 89.2725L778.649 91.3613ZM636.749 73.8145C637.329 73.8143 637.329 72.9787 636.749 72.9785C636.169 72.9793 636.169 73.8145 636.749 73.8145ZM438.624 73.8145C439.204 73.8145 439.204 72.9785 438.624 72.9785C438.046 72.9797 438.046 73.814 438.624 73.8145ZM1092.34 73.3975V72.9795H1089.67L1091.01 74.6504L1092.34 73.3975ZM1047.28 72.9795H1046.83V74.6504H1048.61L1047.28 72.9795ZM420.776 76.3213L417.652 73.3965L415.867 74.2324L419.438 75.4854L418.991 76.3213L420.776 78.8281V76.3213ZM1066.91 74.6504C1067.49 74.6504 1067.49 73.8145 1066.91 73.8145C1066.33 73.8147 1066.33 74.6501 1066.91 74.6504ZM641.656 73.8145H640.764V75.4854H641.656V73.8145ZM632.733 81.335C634.316 81.9151 637.127 78.7435 636.303 77.9922C635.127 78.0808 634.349 77.5124 633.179 77.1563C631.991 76.7945 631.551 77.8203 631.84 75.4854L635.409 73.8145L630.055 74.6504V80.499L632.732 77.9922V81.335H632.733ZM603.729 74.6504C604.308 74.6502 604.308 73.8147 603.729 73.8145C603.149 73.8145 603.149 74.6504 603.729 74.6504ZM144.116 74.6504C144.696 74.65 144.696 73.8149 144.116 73.8145C143.537 73.8145 143.537 74.6504 144.116 74.6504ZM1389.98 75.4854C1390.56 75.485 1390.56 74.6498 1389.98 74.6494C1389.4 74.6494 1389.4 75.4854 1389.98 75.4854ZM1052.63 75.4854C1053.21 75.4849 1053.21 74.6498 1052.63 74.6494C1052.05 74.6502 1052.05 75.4854 1052.63 75.4854ZM626.039 75.4854C626.619 75.4854 626.619 74.6494 626.039 74.6494C625.46 74.6505 625.46 75.485 626.039 75.4854ZM557.32 75.4854C557.9 75.4851 557.9 74.6497 557.32 74.6494C556.742 74.6502 556.742 75.4854 557.32 75.4854ZM547.504 75.4854C548.083 75.485 548.083 74.6497 547.504 74.6494C546.924 74.6502 546.924 75.4854 547.504 75.4854ZM402.927 75.4854C403.506 75.4851 403.506 74.6496 402.927 74.6494C402.347 74.6494 402.347 75.4854 402.927 75.4854ZM142.778 74.6494H140.993V75.4854H142.778V74.6494ZM1053.97 80.499C1053.35 77.5651 1054.89 77.0419 1057.09 78.8281L1060.21 77.1572L1058.88 74.6504C1057.87 74.9417 1055.6 77.0812 1055.31 77.1572C1054.4 77.3898 1050.21 77.3139 1049.06 77.1572C1048.73 77.1123 1048.52 76.4012 1048.17 76.3213C1046.64 75.9794 1045.1 76.265 1044.15 77.5742L1048.61 77.1563L1047.72 79.6631C1050.02 79.7902 1050.47 77.2696 1053.08 77.9922L1053.97 80.499ZM622.47 74.6504H622.024V76.3213H623.809L622.47 74.6504ZM522.068 75.9043L520.283 74.6504V77.1572H520.73L522.068 75.9043ZM447.995 74.6504L446.21 76.3213H447.995V74.6504ZM1077.17 80.499V76.3213L1074.05 75.4854L1072.26 76.3213C1070.41 73.8954 1069.89 75.0136 1067.36 75.4854L1068.25 79.6631L1069.14 77.9922C1071.22 79.6496 1072.03 77.6448 1074.49 77.9922L1076.28 78.8281L1075.83 81.335H1078.96L1077.17 80.499ZM1412.73 75.4854H1409.16L1409.16 76.3213H1412.73V75.4854ZM1313.23 76.3213C1313.81 76.3212 1313.81 75.4854 1313.23 75.4854C1312.65 75.4854 1312.65 76.3213 1313.23 76.3213ZM1160.17 75.9033V75.4854H1157.49L1158.83 77.1563L1160.17 75.9033ZM806.76 76.3213L804.083 75.4854L805.421 77.9922L806.76 76.3213ZM553.305 75.9033V75.4854H551.52V77.1563L553.305 75.9033ZM1331.97 77.1572C1332.55 77.1572 1332.55 76.3213 1331.97 76.3213C1331.39 76.3216 1331.39 77.1569 1331.97 77.1572ZM1244.51 77.1572C1245.09 77.1572 1245.09 76.3213 1244.51 76.3213C1243.93 76.3214 1243.93 77.1571 1244.51 77.1572ZM1064.68 79.6631C1066.38 79.9029 1067.61 78.748 1067.36 77.1563L1066.02 77.9922L1064.23 76.3213L1064.68 79.6631ZM672 77.5752L670.215 76.3213V78.8281H670.661L672 77.5752ZM597.481 77.1572C598.06 77.1572 598.06 76.3213 597.481 76.3213C596.902 76.3214 596.902 77.1571 597.481 77.1572ZM569.815 77.1572C570.394 77.1572 570.394 76.3213 569.815 76.3213C569.235 76.3215 569.235 77.157 569.815 77.1572ZM38.3605 76.3213H35.6837V77.9922H37.0226L38.3605 76.3213ZM15.6036 76.3213L15.1573 77.9922L12.4806 78.8281L17.8351 80.0811L15.6036 76.3213ZM547.504 77.9922C548.083 77.9919 548.083 77.1566 547.504 77.1563C546.924 77.157 546.924 77.9922 547.504 77.9922ZM1086.54 80.499L1087.44 81.335L1090.56 78.8281C1087.91 78.9516 1085.79 80.1245 1082.97 79.6631C1082.62 79.606 1082.18 78.3694 1080.74 78.8281L1078.96 77.1572C1079.59 78.5289 1080.96 79.9229 1082.53 79.6641V81.335L1086.54 80.499ZM802.298 78.4102L800.96 77.1572L800.513 77.5752L801.852 78.8281L802.298 78.4102ZM1333.31 80.499C1335.01 80.7389 1336.24 79.5839 1335.98 77.9922C1334.28 77.7524 1333.05 78.9073 1333.31 80.499ZM1390.87 78.8281C1391.45 78.8281 1391.45 77.9922 1390.87 77.9922C1390.29 77.9923 1390.29 78.828 1390.87 78.8281ZM1294.48 78.8281C1295.06 78.8277 1295.06 77.9926 1294.48 77.9922C1293.9 77.9922 1293.9 78.8281 1294.48 78.8281ZM765.707 78.4102L765.261 77.9922L763.922 79.2461L764.368 79.6631L765.707 78.4102ZM662.184 77.9922H660.399V78.8281H662.184V77.9922ZM654.151 80.917L651.475 79.6631L650.581 77.9922L651.028 83.0059L654.151 80.917ZM642.549 78.8281C641.201 79.1769 640.928 78.2542 639.872 77.9922V80.499H642.549V78.8281ZM588.11 77.9922H586.325V79.6631H588.11V77.9922ZM583.201 78.8281C583.781 78.8281 583.781 77.9922 583.201 77.9922C582.622 77.9925 582.622 78.8278 583.201 78.8281ZM497.526 78.8281C498.106 78.8281 498.106 77.9922 497.526 77.9922C496.947 77.9924 496.947 78.8279 497.526 78.8281ZM466.29 78.8281C466.87 78.8281 466.87 77.9922 466.29 77.9922C465.712 77.9925 465.712 78.8278 466.29 78.8281ZM410.959 85.5127C413.23 82.5889 417.442 81.998 417.652 77.9922C416.008 78.7623 415.486 80.1982 413.19 79.6631V81.334L411.405 80.499L410.959 85.5127ZM163.304 77.9922H162.412V79.6631H163.304V77.9922ZM1175.79 79.6631C1176.37 79.6631 1176.37 78.8281 1175.79 78.8281C1175.21 78.8285 1175.21 79.6627 1175.79 79.6631ZM842.459 78.8281H840.674V79.6631H842.459V78.8281ZM836.211 78.8281H832.642V80.499L836.211 80.499V78.8281ZM584.986 79.6631C585.566 79.6631 585.566 78.8281 584.986 78.8281C584.407 78.8285 584.407 79.6627 584.986 79.6631ZM525.639 78.8281H523.854V79.6631H525.639V78.8281ZM1338.21 80.499C1338.79 80.499 1338.79 79.6631 1338.21 79.6631C1337.63 79.6632 1337.63 80.4989 1338.21 80.499ZM1153.48 80.499C1154.06 80.499 1154.06 79.6631 1153.48 79.6631C1152.9 79.6631 1152.9 80.499 1153.48 80.499ZM1060.66 80.499C1061.24 80.499 1061.24 79.6631 1060.66 79.6631C1060.08 79.6635 1060.08 80.4986 1060.66 80.499ZM1030.32 80.499C1030.9 80.499 1030.9 79.6631 1030.32 79.6631C1029.74 79.6632 1029.74 80.4989 1030.32 80.499ZM768.831 80.499C769.411 80.499 769.411 79.6631 768.831 79.6631C768.252 79.6632 768.252 80.4989 768.831 80.499ZM658.167 80.499C658.747 80.499 658.747 79.6631 658.167 79.6631C657.588 79.6631 657.588 80.499 658.167 80.499ZM361.874 80.499C362.454 80.4989 362.454 79.6632 361.874 79.6631C361.294 79.6631 361.294 80.499 361.874 80.499ZM1394.88 80.082L1394.44 79.6641L1393.1 80.918L1393.55 81.335L1394.88 80.082ZM1211.93 80.082L1211.49 79.6641L1210.15 80.918L1210.59 81.335L1211.93 80.082ZM801.405 80.082L800.959 79.6641L799.62 80.918L800.067 81.335L801.405 80.082ZM419.438 80.082L418.991 79.6641L417.652 80.918L418.099 81.335L419.438 80.082ZM545.272 88.4365L547.057 88.0186L543.487 86.3477L547.95 85.5117L545.273 84.6758C544.63 83.1664 548.517 81.6402 545.719 80.498C543.585 79.6268 544.632 82.7866 544.381 83.0049H542.596C542.446 83.1442 542.777 83.7877 542.596 84.2578C542.457 84.6187 541.703 84.8294 541.703 85.0938C541.703 85.6518 542.92 84.8786 541.703 87.6006C541.544 87.9552 541.761 88.4579 541.702 88.8545L545.272 89.6895V88.4365ZM1269.05 80.499H1268.16V82.1699H1269.05V80.499ZM1150.8 81.335C1151.38 81.335 1151.38 80.499 1150.8 80.499C1150.22 80.4992 1150.22 81.3348 1150.8 81.335ZM1051.29 81.7529L1049.95 80.499H1049.51V83.0059H1051.29V81.7529ZM649.69 82.1699L648.351 80.499L647.458 81.335L645.227 80.499L646.566 83.0059L649.69 82.1699ZM636.749 81.335C637.329 81.3348 637.329 80.4992 636.749 80.499C636.169 80.499 636.169 81.335 636.749 81.335ZM538.579 84.6768C539.643 83.8979 540.303 83.0826 539.918 81.7529C539.728 81.0944 538.374 80.0055 537.688 81.335L534.564 83.0059L538.579 84.6768ZM4.44836 94.2852C3.64282 92.4236 6.02454 91.651 6.23352 90.9434C6.62061 89.6279 5.84644 87.2452 6.23352 85.9297C6.4375 85.2354 9.53589 83.0681 8.91028 81.334C6.76379 81.7417 7.46045 83.2386 7.12512 84.2588C6.93237 84.8453 4.91626 85.9797 4.44836 86.7656C4.21338 87.1604 4.61426 87.8623 4.44836 88.0186C4.28198 88.1745 3.53137 87.7987 3.1095 88.0186C0.831177 89.2074 -0.765747 92.2146 3.55579 91.3613C4.44263 94.2178 0.857666 94.5418 0.878052 97.21L4.44836 94.2852ZM1333.31 81.335H1331.52V82.1699H1333.31V81.335ZM1148.12 81.335H1147.68V83.0059H1149.46L1148.12 81.335ZM1135.63 82.1699C1136.21 82.1699 1136.21 81.335 1135.63 81.335C1135.05 81.335 1135.05 82.1699 1135.63 82.1699ZM639.426 82.1699C640.006 82.1699 640.006 81.335 639.426 81.335C638.847 81.3354 638.847 82.1695 639.426 82.1699ZM28.0978 82.1699C28.6776 82.1699 28.6776 81.335 28.0978 81.335C27.5181 81.335 27.5181 82.1699 28.0978 82.1699ZM474.769 82.1699C473.428 81.9034 472.932 82.539 472.092 83.4238V85.5127H473.877L474.769 82.1699ZM1080.74 86.3477H1083.42L1080.74 85.5117L1081.19 83.8408L1082.53 82.1699H1078.06L1079.85 88.0186L1080.74 86.3477ZM470.753 83.0059C471.332 83.0058 471.332 82.1699 470.753 82.1699C470.173 82.1699 470.173 83.0059 470.753 83.0059ZM629.609 82.1709H629.162V83.8418H630.947L629.609 82.1709ZM1335.09 85.5127C1334.92 84.5027 1335.11 84.0191 1335.98 83.4238L1335.54 83.0059L1333.31 85.5127H1335.09ZM1066.02 83.8418C1066.6 83.8416 1066.6 83.006 1066.02 83.0059C1065.44 83.0059 1065.44 83.8418 1066.02 83.8418ZM762.138 83.0059H760.353V84.6768H762.138V83.0059ZM476.108 83.8418C476.687 83.8418 476.687 83.0059 476.108 83.0059C475.528 83.0061 475.528 83.8416 476.108 83.8418ZM1098.59 83.8418H1097.7V85.5127H1098.59V83.8418ZM645.227 85.0947L643.442 83.8418L642.549 86.3477L645.227 85.0947ZM464.952 85.0947L465.4 83.8418L464.061 85.0947V87.1836H465.845L464.952 85.0947ZM1064.68 87.1836C1065.03 87.5973 1067.04 85.7223 1066.46 84.6768C1066.11 84.2629 1064.1 86.138 1064.68 87.1836ZM1094.13 85.0947V84.6768H1090.56L1091.9 86.3477H1092.79L1094.13 85.0947ZM653.705 85.5127C654.285 85.5127 654.285 84.6768 653.705 84.6768C653.126 84.6769 653.126 85.5125 653.705 85.5127ZM529.655 85.5127C530.235 85.5125 530.235 84.677 529.655 84.6768C529.076 84.6768 529.076 85.5127 529.655 85.5127ZM360.089 85.5127C360.669 85.5125 360.669 84.6769 360.089 84.6768C359.509 84.6768 359.51 85.5127 360.089 85.5127ZM20.9581 84.6768L20.5109 85.0947L21.4034 87.1836H22.297L20.9581 84.6768ZM1166.42 89.2725L1169.09 88.8545L1164.63 88.0186L1167.31 85.5127C1166.14 85.2864 1164.07 85.6418 1163.74 86.7656C1163.34 88.1412 1166.11 88.7833 1165.53 90.5254L1166.42 89.2725ZM536.794 86.3477C537.374 86.3477 537.374 85.5117 536.794 85.5117C536.214 85.5126 536.214 86.3476 536.794 86.3477ZM481.909 85.5117H479.232V86.3477H481.909V85.5117ZM1161.06 86.3477H1157.49V87.1836H1161.06V86.3477ZM767.94 87.1836C768.519 87.1832 768.519 86.3481 767.94 86.3477C767.36 86.3477 767.36 87.1836 767.94 87.1836ZM653.259 86.3477H650.581V87.1836H653.259V86.3477ZM501.988 87.1836C502.567 87.1836 502.567 86.3477 501.988 86.3477C501.409 86.3477 501.409 87.1836 501.988 87.1836ZM626.039 86.3486H625.593V88.0195H627.378L626.039 86.3486ZM410.959 88.0195C411.26 88.9416 411.178 89.9065 412.298 89.6904V88.0195L415.867 87.6016L411.851 86.3486C411.172 87.0148 410.615 86.9646 410.959 88.0195ZM20.0656 88.8545C20.8661 90.1431 19.8374 91.5378 21.4044 91.3613C21.194 90.4955 21.9535 88.3671 20.9581 88.0186C19.1661 87.3933 17.3759 86.066 17.8351 88.8545C18.868 88.6873 19.1276 87.3452 20.0656 88.8545ZM1187.84 87.6006L1187.39 87.1826L1186.05 88.4355L1186.5 88.8545L1187.84 87.6006ZM1261.02 87.1836H1259.23V88.0195H1261.02V87.1836ZM1097.7 87.1836H1095.91V88.0195H1097.7V87.1836ZM766.153 88.0195C766.733 88.0195 766.733 87.1836 766.153 87.1836C765.574 87.184 765.574 88.0191 766.153 88.0195ZM586.324 87.6016L582.755 88.0195L589.002 88.8555L586.324 87.6016ZM1160.62 88.8545C1161.2 88.8545 1161.2 88.0186 1160.62 88.0186C1160.04 88.0196 1160.04 88.8543 1160.62 88.8545ZM548.396 88.8545C548.975 88.8545 548.975 88.0186 548.396 88.0186C547.817 88.0196 547.817 88.8542 548.396 88.8545ZM766.6 90.5254H771.063C768.716 86.8551 764.667 89.1316 765.707 93.0322L766.6 90.5254ZM-11.9989 88.9248L-11.621 88.8535L-11.9989 88.9824V88.9248ZM647.458 90.5254C648.038 90.5254 648.038 89.6895 647.458 89.6895C646.879 89.6905 646.879 90.5251 647.458 90.5254ZM531.44 90.5254C532.019 90.5253 532.019 89.6896 531.44 89.6895C530.86 89.6902 530.86 90.5254 531.44 90.5254ZM1077.17 90.9443C1078.1 93.1219 1081.17 91.3256 1078.51 89.6904H1077.17V90.9443ZM1419.43 91.3613C1420.01 91.3613 1420.01 90.5254 1419.43 90.5254C1418.85 90.5258 1418.85 91.3609 1419.43 91.3613ZM485.032 91.3613C485.612 91.3611 485.612 90.5257 485.032 90.5254C484.453 90.5254 484.453 91.3613 485.032 91.3613ZM256.565 91.3613C257.144 91.3613 257.144 90.5255 256.565 90.5254C255.986 90.5254 255.986 91.3613 256.565 91.3613ZM1183.37 93.0322C1184.49 93.5711 1186.49 91.6952 1186.05 91.3613C1184.93 90.8223 1182.93 92.699 1183.37 93.0322ZM771.954 91.3613L768.385 93.0322V93.8682H770.615L771.954 91.3613ZM1165.52 91.3623L1162.85 92.1973L1163.29 95.54L1165.52 91.3623ZM547.95 91.3623H546.165V92.1973H547.95V91.3623ZM1417.2 92.1963H1415.41V93.0322H1417.2V92.1963ZM1369.45 93.0322C1370.03 93.0322 1370.03 92.1963 1369.45 92.1963C1368.87 92.1963 1368.87 93.0322 1369.45 93.0322ZM1320.37 93.0322C1320.95 93.0322 1320.95 92.1963 1320.37 92.1963C1319.79 92.1973 1319.79 93.032 1320.37 93.0322ZM1169.99 92.1963H1167.31V93.0322H1169.99V92.1963ZM1208.36 93.0332H1210.15V92.1973H1208.81L1208.36 93.0332ZM168.658 94.7041L163.75 92.1973H162.412C162.854 94.3158 159.257 94.6425 161.965 96.375L168.658 94.7041ZM1411.84 96.374C1413.65 96.0613 1413.39 94.2972 1414.52 93.4502L1412.73 93.0322L1411.84 96.374ZM392.664 93.4502L392.217 93.0322L390.878 94.2852L391.325 94.7031L392.664 93.4502ZM1059.77 93.8682C1060.35 93.8681 1060.35 93.0332 1059.77 93.0332C1059.19 93.0324 1059.19 93.8682 1059.77 93.8682ZM621.577 93.8682C622.157 93.8678 622.157 93.0335 621.577 93.0332C620.997 93.0324 620.997 93.8682 621.577 93.8682ZM530.994 93.0332H529.209V93.8682H530.994V93.0332ZM169.997 93.8682C170.577 93.8682 170.577 93.0332 169.997 93.0332C169.418 93.0334 169.418 93.868 169.997 93.8682ZM617.561 95.5391C618.678 96.078 620.68 94.2019 620.238 93.8682C619.122 93.3284 617.118 95.2058 617.561 95.5391ZM1061.55 94.7031C1062.13 94.7031 1062.13 93.8672 1061.55 93.8672C1060.98 93.868 1060.98 94.7031 1061.55 94.7031ZM550.181 94.7031C550.761 94.7031 550.761 93.8672 550.181 93.8672C549.601 93.8674 549.601 94.7029 550.181 94.7031ZM1178.91 95.957L1177.57 94.7031L1177.13 95.1211L1178.47 96.375L1178.91 95.957ZM767.046 95.5391C767.626 95.5391 767.626 94.7031 767.046 94.7031C766.467 94.7032 766.467 95.539 767.046 95.5391ZM1169.99 95.1221L1169.54 94.7041L1168.2 95.957L1168.65 96.375L1169.99 95.1221ZM19.6202 95.5391C19.1782 95.8723 21.1798 97.7491 22.297 97.21C22.7384 96.8767 20.7366 95.0001 19.6202 95.5391ZM806.761 96.792V95.5391H804.976V98.0459H805.422L806.761 96.792ZM795.158 95.5391C794.902 97.1307 796.136 98.2857 797.836 98.0459V95.5391H795.158ZM808.991 96.375C809.571 96.3746 809.571 95.5404 808.991 95.54C808.412 95.5392 808.412 96.375 808.991 96.375ZM450.227 96.375C450.806 96.3746 450.806 95.5405 450.227 95.54C449.648 95.5392 449.648 96.375 450.227 96.375ZM1363.2 97.21C1363.78 97.21 1363.78 96.374 1363.2 96.374C1362.62 96.3751 1362.62 97.2096 1363.2 97.21ZM1354.28 97.21C1354.86 97.2099 1354.86 96.3741 1354.28 96.374C1353.7 96.3748 1353.7 97.21 1354.28 97.21ZM1201.67 97.21C1202.25 97.21 1202.25 96.374 1201.67 96.374C1201.09 96.375 1201.09 97.2098 1201.67 97.21ZM1046.83 96.374H1045.04V97.21H1046.83V96.374ZM166.873 98.8809L167.766 96.792C166.55 96.2363 165.528 98.3403 164.642 98.8809C164.571 98.9175 162.398 96.8657 163.304 99.7168L166.873 98.8809ZM652.366 100.135L651.92 98.8809L656.828 97.21L653.259 96.792L648.797 100.553L652.366 100.135ZM1347.14 98.0459C1347.72 98.0455 1347.72 97.2103 1347.14 97.21C1346.56 97.21 1346.56 98.0459 1347.14 98.0459ZM814.347 98.0459C814.926 98.0457 814.926 97.2102 814.347 97.21C813.767 97.21 813.767 98.0459 814.347 98.0459ZM1197.65 98.0459H1195.87V98.8809H1197.65V98.0459ZM8.46399 98.8809C9.04382 98.8809 9.04382 98.0459 8.46399 98.0459C7.8844 98.046 7.8844 98.8807 8.46399 98.8809ZM1242.72 99.7168C1243.3 99.7168 1243.3 98.8809 1242.72 98.8809C1242.14 98.881 1242.14 99.7167 1242.72 99.7168ZM793.819 99.7168C794.399 99.7168 794.399 98.8809 793.819 98.8809C793.24 98.8812 793.24 99.7165 793.819 99.7168ZM790.25 99.7168C790.83 99.7168 790.83 98.8809 790.25 98.8809C789.67 98.8809 789.67 99.7167 790.25 99.7168ZM1433.71 100.553C1434.29 100.553 1434.29 99.7168 1433.71 99.7168C1433.13 99.7169 1433.13 100.553 1433.71 100.553ZM1430.58 99.7168H1428.8V100.553H1430.58V99.7168ZM1326.61 100.553C1327.19 100.553 1327.19 99.7168 1326.61 99.7168C1326.03 99.7169 1326.03 100.553 1326.61 100.553ZM1194.53 100.553C1195.11 100.553 1195.11 99.7169 1194.53 99.7168C1193.95 99.7168 1193.95 100.553 1194.53 100.553ZM808.545 101.388L806.315 99.7168L803.191 102.224L805.868 101.388L805.421 103.895L808.545 101.388ZM799.62 99.7168H798.728V102.224H799.62V99.7168ZM788.911 101.806L788.02 99.7168H787.126V103.059L788.911 101.806ZM171.336 101.388V100.553L169.106 99.7168L167.767 102.224L171.336 101.388ZM1177.57 101.388C1178.15 101.387 1178.15 100.552 1177.57 100.552C1176.99 100.553 1176.99 101.388 1177.57 101.388ZM645.228 101.806L643.889 100.553L643.443 100.97L644.781 102.224L645.228 101.806ZM172.675 102.224C173.255 102.224 173.255 101.388 172.675 101.388C172.095 101.388 172.095 102.224 172.675 102.224ZM780.434 106.4C780.892 105.33 782.562 105.657 782.664 105.565C782.831 105.41 782.428 104.705 782.664 104.312C783.375 103.125 785.625 103.042 785.342 102.641C783.602 100.192 782.303 102.682 779.987 102.224V103.895H777.31L780.434 106.4ZM1425.23 103.477L1423.89 102.224L1423.44 102.641L1424.78 103.895L1425.23 103.477ZM12.4806 103.059C12.2242 104.65 13.457 105.805 15.1573 105.565C15.4126 103.974 14.1797 102.819 12.4806 103.059ZM170.443 103.895H168.658V104.729H170.443V103.895ZM1423.44 104.729C1423 105.064 1425 106.94 1426.12 106.4C1426.56 106.066 1424.56 104.19 1423.44 104.729ZM1180.25 105.565C1180.83 105.565 1180.83 104.729 1180.25 104.729C1179.67 104.73 1179.67 105.565 1180.25 105.565ZM497.526 105.565C498.106 105.565 498.106 104.729 497.526 104.729C496.947 104.731 496.947 105.565 497.526 105.565ZM496.188 104.729H495.296V106.4H493.511V107.236H496.188V104.729ZM798.282 105.565H797.836V107.236H799.621L798.282 105.565ZM515.821 105.565H514.036V106.4H515.821V105.565ZM174.459 107.236C175.039 107.236 175.039 106.4 174.459 106.4C173.88 106.4 173.88 107.236 174.459 107.236ZM783.557 112.25C783.703 110.568 782.947 108.675 784.449 107.654L781.772 106.401L782.218 108.072L778.202 111.414L780.879 110.996L783.557 112.25ZM767.492 108.489L767.046 108.071L765.707 109.324L766.153 109.742L767.492 108.489ZM172.229 108.907V109.742H174.013L172.229 108.907ZM1421.21 110.578C1421.79 110.578 1421.79 109.743 1421.21 109.742C1420.63 109.742 1420.63 110.578 1421.21 110.578ZM174.905 110.16L174.014 109.743L173.568 111.413L174.905 110.16ZM826.395 112.667V110.578H825.502L824.609 113.92L826.395 112.667ZM416.314 111.414C416.893 111.414 416.893 110.579 416.314 110.579C415.734 110.578 415.734 111.414 416.314 111.414ZM794.712 112.249C795.292 112.249 795.292 111.413 794.712 111.413C794.133 111.414 794.133 112.249 794.712 112.249ZM412.298 111.414L408.728 112.25V113.085H412.298V111.414ZM790.695 113.085H788.019V113.92H790.695V113.085ZM1192.75 114.756C1193.32 114.756 1193.32 113.92 1192.75 113.92C1192.17 113.92 1192.17 114.756 1192.75 114.756ZM1356.51 117.263L1355.17 114.756L1351.15 119.352L1356.51 117.263ZM820.148 116.845L821.932 116.427L822.379 118.098V114.756L819.701 115.591L817.471 118.098H820.148V116.845ZM1357.85 116.427C1358.43 116.427 1358.43 115.591 1357.85 115.591C1357.27 115.592 1357.27 116.427 1357.85 116.427ZM400.249 116.427C400.829 116.427 400.829 115.591 400.249 115.591C399.671 115.592 399.671 116.427 400.249 116.427ZM1374.8 117.263C1375.38 117.263 1375.38 116.427 1374.8 116.427C1374.23 116.427 1374.23 117.262 1374.8 117.263ZM1078.96 116.427H1077.17V117.263H1078.96V116.427ZM779.987 118.098H778.202V118.934H779.987V118.098ZM812.114 122.276C813.945 122.601 814.536 121.043 815.685 120.188C816.681 119.446 817.721 120.285 817.47 118.935C816.035 118.431 811.493 121.744 812.114 122.276ZM1368.11 119.769H1366.33V120.604H1368.11V119.769ZM792.482 119.77H791.589V121.44H792.482V119.77ZM1362.76 121.44H1360.08V122.276H1362.76V121.44ZM535.455 122.276H533.67L535.455 123.947V122.276ZM1423 123.947C1423.58 123.947 1423.58 123.112 1423 123.111C1422.42 123.111 1422.42 123.947 1423 123.947ZM1360.08 123.111H1359.19V124.782H1360.08V123.111ZM725.102 123.947C725.681 123.947 725.681 123.112 725.102 123.111C724.522 123.111 724.522 123.947 725.102 123.947ZM1404.7 123.947C1404.13 124.993 1406.13 126.868 1406.49 126.454C1407.06 125.409 1405.06 123.534 1404.7 123.947ZM811.669 125.618C812.249 125.618 812.249 124.782 811.669 124.782C811.089 124.782 811.089 125.618 811.669 125.618ZM791.143 125.618C791.722 125.618 791.722 124.783 791.143 124.782C790.563 124.782 790.563 125.618 791.143 125.618ZM767.046 125.618C767.626 125.618 767.626 124.782 767.046 124.782C766.467 124.782 766.467 125.618 767.046 125.618ZM1412.55 124.783C1412.13 124.824 1411.78 124.949 1411.84 125.618L1412.55 124.783ZM809.438 124.783L808.099 126.454H806.76L807.206 129.797L809.438 124.783ZM702.79 126.454C703.37 126.454 703.37 125.618 702.79 125.618C702.21 125.618 702.21 126.454 702.79 126.454ZM1352.05 126.453H1350.26V127.289H1352.05V126.453ZM698.775 126.453H696.989V127.289H698.775V126.453ZM702.79 128.125C703.37 128.125 703.37 127.29 702.79 127.29C702.21 127.289 702.21 128.125 702.79 128.125ZM1379.27 128.96C1379.85 128.96 1379.85 128.124 1379.27 128.124C1378.69 128.124 1378.69 128.96 1379.27 128.96ZM1402.92 129.796L1399.35 128.96L1400.69 130.631H1402.92V129.796ZM1398.45 129.796H1397.56V131.467H1398.45V129.796ZM480.124 129.797H478.339V130.632H480.124V129.797ZM477 131.467C477.58 131.467 477.58 130.631 477 130.631C476.42 130.631 476.42 131.467 477 131.467ZM699.666 136.48L697.882 135.646V133.975C701.612 134.407 698.797 131.22 696.989 130.632C697.577 133.279 695.03 134.329 693.419 136.063L695.651 135.646L697.436 137.316L699.666 136.48ZM1152.58 133.974C1153.16 133.974 1153.16 133.138 1152.58 133.138C1152 133.138 1152 133.973 1152.58 133.974ZM800.067 133.974C800.646 133.974 800.646 133.138 800.067 133.138C799.488 133.138 799.488 133.973 800.067 133.974ZM709.037 133.974C709.617 133.973 709.617 133.138 709.037 133.138C708.457 133.138 708.457 133.974 709.037 133.974ZM1401.13 133.974H1399.35V134.81H1401.13V133.974ZM546.165 134.392L545.719 133.974L544.38 135.227L544.826 135.645L546.165 134.392ZM483.694 137.733V137.315H481.909V138.986L483.694 137.733ZM9.80286 141.493H8.0177V142.329H9.80286V141.493ZM1207.47 94.7041H1208.36V93.0342L1207.47 94.7041Z" fill="white"/>
</svg>
