<svg width="192" height="211" viewBox="0 0 192 211" fill="none" xmlns="http://www.w3.org/2000/svg">
<path d="M121.306 71.1414C124.241 71.419 126.795 80.5575 127.966 86.6682C128.613 90.0452 135.556 80.3989 138.341 76.7361C148.261 63.6939 152.464 57.1806 156.653 60.5797C160.151 63.4172 142.827 86.0743 142.583 86.5215C141.555 88.4012 142.891 89.8046 144.432 87.3747C145.223 86.1263 147.163 83.8687 150.836 80.121C163.374 67.3278 166.823 62.1998 170.931 67.0503C173.842 70.4868 161.552 83.0099 154.484 90.2217C150.695 94.0877 150.037 97.151 153.116 94.0089C168.442 81.0519 173.487 73.4219 177.982 79.3397C180.706 82.926 167.099 93.9729 160.031 101.185C159.473 101.754 158.957 102.256 158.472 102.71C156.224 105.004 157.817 107.277 159.697 105.435C171.453 97.0552 174.903 91.0312 178.15 96.0868C180.584 99.8763 167.267 110.72 160.199 117.932C159.038 119.118 158.042 120.037 157.18 120.747C156.507 121.838 155.713 122.866 154.788 123.809C146.998 131.758 131.102 143.235 119.492 126.282C104.419 118.721 109.488 104.969 114.869 97.488C120.725 89.3462 110.96 70.1632 121.306 71.1414Z" fill="#FF5528" fill-opacity="0.1"/>
<path d="M138.667 97.3741C138.854 96.6643 139.186 96.0454 139.67 95.5511C139.774 95.4452 139.944 95.4434 140.051 95.5474C140.156 95.6512 140.158 95.8218 140.055 95.9276C139.641 96.3497 139.355 96.877 139.187 97.5116C138.892 98.6204 138.975 100.058 139.421 101.723C140.088 104.221 141.564 107.224 143.709 110.414C145.854 113.605 148.665 116.984 151.998 120.25C152.104 120.354 152.106 120.524 152.002 120.63C151.898 120.737 151.727 120.738 151.621 120.634C146.506 115.62 142.605 110.342 140.424 105.835C139.335 103.581 138.673 101.519 138.513 99.7643C138.433 98.8866 138.479 98.0846 138.667 97.3741Z" fill="#F1F6F7"/>
<path d="M133.475 96.5025C133.617 96.5452 133.698 96.6957 133.654 96.8377C132.49 100.701 131.054 104.229 129.498 107.212C127.943 110.195 126.27 112.631 124.62 114.316C123.66 115.296 122.706 116.022 121.776 116.45C120.848 116.876 119.929 117.001 119.081 116.745C118.939 116.702 118.858 116.552 118.901 116.41C118.944 116.267 119.094 116.187 119.236 116.23C119.931 116.439 120.704 116.348 121.552 115.96C122.398 115.573 123.308 114.887 124.236 113.94C125.833 112.311 127.485 109.912 129.021 106.963C130.559 104.014 131.984 100.515 133.14 96.6821C133.183 96.54 133.333 96.4596 133.475 96.5025Z" fill="#F1F6F7"/>
<path d="M171.49 101.581C171.091 101.189 170.647 100.825 170.259 100.566C170.065 100.436 169.885 100.333 169.737 100.265C169.59 100.197 169.47 100.17 169.432 100.173C169.283 100.174 169.162 100.055 169.16 99.9064C169.159 99.7578 169.278 99.6361 169.426 99.6347C169.605 99.6353 169.773 99.6921 169.96 99.7757C170.238 99.9028 170.553 100.102 170.881 100.348C171.21 100.594 171.55 100.886 171.867 101.196C172.227 101.549 172.556 101.925 172.803 102.29C172.927 102.473 173.03 102.653 173.105 102.831C173.179 103.008 173.228 103.184 173.23 103.362C173.231 103.511 173.112 103.633 172.964 103.634C172.815 103.636 172.694 103.516 172.692 103.368C172.692 103.289 172.666 103.174 172.609 103.04C172.524 102.839 172.373 102.595 172.178 102.344C171.983 102.093 171.746 101.831 171.49 101.581Z" fill="#F1F6F7"/>
<path d="M173.075 85.7459C173.074 85.6666 173.049 85.5521 172.992 85.4181C172.907 85.2164 172.755 84.9735 172.561 84.7221C172.366 84.4703 172.128 84.2087 171.873 83.9586C171.474 83.5669 171.03 83.203 170.642 82.9438C170.448 82.8142 170.268 82.7108 170.12 82.6433C169.973 82.5747 169.853 82.5482 169.815 82.5506C169.666 82.552 169.544 82.4328 169.543 82.2843C169.541 82.1356 169.661 82.014 169.809 82.0126C169.988 82.0132 170.156 82.0702 170.343 82.1536C170.621 82.2808 170.935 82.4801 171.264 82.726C171.592 82.9717 171.933 83.2638 172.25 83.5743C172.61 83.9273 172.939 84.3032 173.186 84.6681C173.309 84.8511 173.413 85.0312 173.487 85.2088C173.562 85.3864 173.61 85.5618 173.613 85.7405C173.614 85.8889 173.495 86.0104 173.346 86.0122C173.198 86.0134 173.076 85.8943 173.075 85.7459Z" fill="#F1F6F7"/>
<path d="M164.151 76.28C164.151 76.2009 164.125 76.0861 164.068 75.9522C163.983 75.7504 163.832 75.5077 163.637 75.2564C163.442 75.0046 163.204 74.7429 162.949 74.4927C162.55 74.1011 162.106 73.7373 161.718 73.478C161.524 73.3482 161.344 73.2449 161.196 73.1774C161.049 73.1089 160.929 73.0822 160.891 73.0846C160.742 73.0862 160.621 72.967 160.619 72.8184C160.618 72.6697 160.737 72.5481 160.885 72.5467C161.064 72.5471 161.232 72.6043 161.419 72.6876C161.697 72.8149 162.011 73.0144 162.34 73.2602C162.668 73.5058 163.009 73.798 163.326 74.1084C163.686 74.4614 164.015 74.8373 164.262 75.2025C164.386 75.3852 164.489 75.5654 164.564 75.7429C164.638 75.9204 164.687 76.0959 164.689 76.2744C164.69 76.4232 164.571 76.5446 164.423 76.5461C164.274 76.5477 164.153 76.4285 164.151 76.28Z" fill="#F1F6F7"/>
<path d="M148.394 66.5029C148.653 66.522 148.958 66.5929 149.292 66.699C149.793 66.8585 150.359 67.1 150.886 67.3831C151.413 67.6676 151.901 67.9905 152.249 68.3308C152.459 68.5378 152.623 68.7503 152.702 68.9951C152.747 69.1365 152.668 69.2877 152.527 69.3324C152.385 69.377 152.234 69.2984 152.189 69.1569C152.157 69.0477 152.048 68.8849 151.873 68.715C151.432 68.2802 150.608 67.801 149.831 67.4733C149.443 67.3089 149.065 67.1801 148.755 67.1067C148.601 67.07 148.464 67.0473 148.355 67.0393C148.247 67.0307 148.167 67.0404 148.139 67.0502C147.997 67.095 147.846 67.0164 147.802 66.8748C147.757 66.7333 147.835 66.582 147.977 66.5373C148.11 66.4965 148.245 66.4929 148.394 66.5029Z" fill="#F1F6F7"/>
<path d="M139.921 78.5255C140.181 78.5447 140.485 78.6153 140.819 78.7213C141.321 78.8809 141.886 79.1223 142.414 79.4059C142.941 79.69 143.428 80.0128 143.776 80.3531C143.986 80.5604 144.15 80.7731 144.23 81.0177C144.274 81.1591 144.195 81.3102 144.054 81.355C143.912 81.3996 143.761 81.3209 143.716 81.1792C143.684 81.0701 143.575 80.9076 143.4 80.7375C142.96 80.3028 142.135 79.8233 141.358 79.4962C140.97 79.3317 140.592 79.2027 140.283 79.1294C140.128 79.0925 139.991 79.0698 139.882 79.062C139.774 79.0535 139.694 79.063 139.666 79.0728C139.525 79.1175 139.374 79.0391 139.329 78.8974C139.284 78.7558 139.363 78.6046 139.504 78.5599C139.637 78.5192 139.772 78.5152 139.921 78.5255Z" fill="#F1F6F7"/>
<path d="M119.927 82.7C120.505 82.3772 121.425 82.0805 122.325 81.9179C122.775 81.8377 123.217 81.792 123.611 81.8009C124.004 81.8121 124.351 81.8672 124.624 82.0424C124.749 82.1241 124.783 82.2908 124.702 82.4153C124.62 82.5392 124.454 82.5738 124.329 82.4923C124.261 82.4463 124.144 82.4023 123.992 82.3746C123.726 82.3258 123.357 82.3264 122.954 82.3702C122.348 82.4351 121.664 82.5942 121.088 82.7883C120.8 82.8848 120.539 82.991 120.33 83.095C120.122 83.198 119.965 83.305 119.895 83.3773C119.877 83.3954 119.866 83.4107 119.859 83.4201C119.778 83.5445 119.611 83.5788 119.487 83.4971C119.363 83.4156 119.328 83.2489 119.41 83.1249C119.44 83.0793 119.473 83.0387 119.511 83.0005C119.621 82.8888 119.761 82.7938 119.927 82.7Z" fill="#F1F6F7"/>
<path d="M154.845 87.0659C154.845 86.9859 154.819 86.8696 154.761 86.7335C154.675 86.5284 154.521 86.2818 154.323 86.0266C154.125 85.7707 153.885 85.5054 153.626 85.2523C153.23 84.8639 152.792 84.5045 152.41 84.2483C152.219 84.1203 152.042 84.0181 151.896 83.9514C151.751 83.8836 151.633 83.8569 151.595 83.8595C151.447 83.8605 151.325 83.7409 151.324 83.5922C151.324 83.4438 151.443 83.3225 151.592 83.3214C151.769 83.3225 151.934 83.3794 152.119 83.4619C152.394 83.5879 152.704 83.7851 153.029 84.0283C153.353 84.2715 153.689 84.5602 154.003 84.868C154.367 85.225 154.701 85.6064 154.951 85.9766C155.076 86.1619 155.181 86.3445 155.257 86.5245C155.332 86.7044 155.381 86.882 155.383 87.0624C155.383 87.211 155.264 87.3323 155.115 87.333C154.967 87.3342 154.846 87.2146 154.845 87.0659Z" fill="#F1F6F7"/>
<path d="M159.441 93.5792C159.666 93.7374 159.909 93.9461 160.156 94.1884C160.634 94.6571 161.127 95.249 161.497 95.8292C161.682 96.1196 161.837 96.407 161.942 96.6804C162.046 96.9544 162.108 97.2146 162.079 97.4687C162.061 97.6163 161.927 97.7213 161.78 97.7035C161.632 97.6855 161.527 97.5517 161.545 97.4042C161.56 97.2917 161.529 97.0999 161.44 96.8741C161.31 96.5337 161.063 96.1188 160.764 95.7118C160.466 95.3044 160.115 94.9018 159.779 94.5725C159.548 94.3459 159.323 94.1536 159.132 94.0195C158.944 93.8839 158.778 93.8141 158.727 93.8121C158.58 93.7943 158.475 93.6602 158.493 93.5129C158.51 93.3653 158.645 93.2602 158.792 93.278C159.014 93.3095 159.213 93.4228 159.441 93.5792Z" fill="#F1F6F7"/>
<path d="M161.441 108.237C161.328 108.126 161.222 108.036 161.134 107.974C161.046 107.911 160.973 107.878 160.944 107.872C160.8 107.837 160.711 107.692 160.746 107.547C160.781 107.403 160.926 107.314 161.07 107.349C161.205 107.383 161.322 107.449 161.444 107.534C161.565 107.62 161.689 107.727 161.817 107.852C162.302 108.329 162.851 109.072 163.265 109.821C163.472 110.196 163.644 110.571 163.754 110.921C163.862 111.271 163.917 111.594 163.848 111.894C163.813 112.038 163.668 112.127 163.523 112.092C163.379 112.057 163.29 111.912 163.325 111.767C163.36 111.635 163.337 111.382 163.241 111.082C163.099 110.63 162.814 110.073 162.48 109.555C162.147 109.037 161.764 108.553 161.441 108.237Z" fill="#F1F6F7"/>
<path d="M59.5196 70.4285C59.6925 67.4853 68.7343 64.6082 74.7993 63.2201C78.1512 62.4535 68.2638 55.8585 64.5042 53.2049C51.117 43.756 44.4582 39.7878 47.706 35.4799C50.4172 31.8838 73.6767 48.3898 74.1323 48.618C76.0474 49.5779 77.4023 48.1927 74.9191 46.7397C73.6434 45.9938 71.3181 44.1348 67.4421 40.5977C54.2105 28.5232 48.963 25.2593 53.6641 20.9805C56.9948 17.9491 69.9475 29.7856 77.4064 36.5923C81.4049 40.2411 84.4897 40.7898 81.24 37.8243C67.7455 22.9695 59.9407 18.1999 65.6946 13.4969C69.1818 10.6468 80.7061 23.8522 88.1651 30.6588C88.7537 31.196 89.2741 31.6936 89.7448 32.1626C92.1173 34.3276 94.3325 32.6543 92.4242 30.8415C83.6314 19.3908 77.4884 16.1573 82.4252 12.7322C86.1256 10.1648 97.4369 23.0872 104.896 29.894C106.122 31.0129 107.076 31.9747 107.816 32.8115C108.93 33.4453 109.986 34.2022 110.962 35.0925C119.183 42.5951 131.219 58.0723 114.69 70.2785C107.67 85.6105 93.7466 81.0352 86.0786 75.9235C77.7335 70.3608 58.9103 80.8029 59.5196 70.4285Z" fill="#FF5528" fill-opacity="0.1"/>
<path d="M85.1188 52.1441C84.4027 51.9824 83.7724 51.6729 83.2612 51.206C83.1517 51.1061 83.1438 50.9359 83.244 50.8262C83.3439 50.7166 83.5144 50.7087 83.6238 50.8086C84.0603 51.2066 84.5975 51.4743 85.2376 51.6196C86.3562 51.8741 87.7896 51.7405 89.438 51.2356C91.9108 50.4803 94.8596 48.8979 97.9711 46.6407C101.083 44.3838 104.36 41.4539 107.506 38.0069C107.606 37.8974 107.776 37.8894 107.886 37.9895C107.995 38.0897 108.003 38.2601 107.903 38.3695C103.074 43.6603 97.9384 47.7464 93.5122 50.0863C91.2978 51.2553 89.261 51.9898 87.513 52.2126C86.6386 52.3234 85.8355 52.3063 85.1188 52.1441Z" fill="#F1F6F7"/>
<path d="M84.4318 57.3651C84.4694 57.2213 84.617 57.1356 84.7604 57.1737C88.6626 58.2003 92.2396 59.5097 95.2757 60.9578C98.3121 62.4061 100.807 63.9908 102.55 65.5803C103.563 66.5051 104.323 67.4317 104.783 68.3463C105.242 69.259 105.4 70.1724 105.174 71.0292C105.136 71.1729 104.989 71.2587 104.845 71.2209C104.702 71.1832 104.616 71.0361 104.654 70.8924C104.838 70.1901 104.72 69.4215 104.302 68.5878C103.885 67.756 103.167 66.8713 102.187 65.9775C100.502 64.4394 98.0456 62.8742 95.0442 61.4432C92.0425 60.012 88.495 58.7126 84.6231 57.6937C84.4797 57.6558 84.394 57.5087 84.4318 57.3651Z" fill="#F1F6F7"/>
<path d="M88.1524 19.1906C87.7753 19.6036 87.4275 20.0601 87.1822 20.4571C87.0595 20.6553 86.9626 20.8389 86.9005 20.9895C86.8372 21.1388 86.8148 21.2596 86.8187 21.2979C86.8253 21.4463 86.7106 21.572 86.5623 21.5789C86.4137 21.5856 86.2879 21.4707 86.2813 21.3224C86.2755 21.1434 86.3263 20.9742 86.4032 20.7842C86.5202 20.5017 86.7085 20.1803 86.9424 19.8428C87.1763 19.5061 87.456 19.1558 87.7549 18.828C88.0949 18.4558 88.4589 18.1128 88.8148 17.8533C88.9934 17.7233 89.1696 17.6139 89.3444 17.5326C89.5191 17.4517 89.6929 17.3972 89.8712 17.3886C90.0196 17.3818 90.1453 17.4964 90.1522 17.645C90.1589 17.7933 90.0442 17.919 89.8958 17.926C89.8166 17.9291 89.703 17.9587 89.5712 18.0206C89.3727 18.1123 89.1352 18.2725 88.8912 18.4762C88.6464 18.6799 88.3934 18.9265 88.1524 19.1906Z" fill="#F1F6F7"/>
<path d="M72.2728 18.17C72.1935 18.1732 72.0801 18.2029 71.9481 18.2647C71.7496 18.3565 71.5123 18.5167 71.268 18.7202C71.0233 18.9241 70.7703 19.1707 70.5294 19.4347C70.1522 19.8478 69.8044 20.3044 69.5591 20.7013C69.4364 20.8995 69.3396 21.083 69.2774 21.2337C69.2141 21.3827 69.1918 21.5036 69.1956 21.542C69.2023 21.6903 69.0875 21.8161 68.9392 21.823C68.7906 21.8297 68.6648 21.7149 68.6582 21.5666C68.6524 21.3876 68.7033 21.2183 68.7801 21.0284C68.8973 20.7458 69.0853 20.4243 69.3193 20.087C69.5532 19.7502 69.8329 19.3999 70.132 19.072C70.4719 18.6998 70.8359 18.357 71.1917 18.0972C71.3703 17.9674 71.5465 17.858 71.7214 17.7768C71.8961 17.6958 72.0698 17.6414 72.2482 17.6326C72.3966 17.626 72.5222 17.7406 72.5293 17.889C72.5358 18.0374 72.4211 18.1631 72.2728 18.17Z" fill="#F1F6F7"/>
<path d="M63.1301 27.4258C63.0511 27.4291 62.9373 27.4588 62.8055 27.5206C62.6069 27.6123 62.3697 27.7724 62.1255 27.976C61.8808 28.1799 61.6278 28.4265 61.3867 28.6906C61.0097 29.1036 60.6619 29.5601 60.4166 29.9571C60.2938 30.1552 60.1969 30.3387 60.1347 30.4894C60.0715 30.6388 60.0491 30.7593 60.0528 30.7979C60.0597 30.9462 59.945 31.072 59.7965 31.0787C59.648 31.0856 59.5222 30.9709 59.5155 30.8223C59.5096 30.6435 59.5608 30.4741 59.6373 30.2842C59.7546 30.0017 59.9428 29.6803 60.1767 29.3428C60.4105 29.0062 60.6904 28.6558 60.9893 28.328C61.3292 27.9558 61.6932 27.613 62.0493 27.3531C62.2276 27.2231 62.404 27.1138 62.5787 27.0325C62.7535 26.9517 62.9271 26.8971 63.1054 26.8884C63.254 26.8818 63.3797 26.9964 63.3864 27.1449C63.3933 27.2932 63.2785 27.4191 63.1301 27.4258Z" fill="#F1F6F7"/>
<path d="M53.9193 43.5228C53.9292 43.2629 53.9892 42.956 54.0833 42.6177C54.2249 42.1112 54.446 41.5375 54.7102 41.0006C54.9758 40.4635 55.2811 39.9649 55.6088 39.6047C55.8082 39.388 56.0147 39.2162 56.2565 39.1281C56.3963 39.0788 56.5502 39.1516 56.5999 39.2915C56.6495 39.4318 56.5763 39.5856 56.4365 39.6352C56.3286 39.6717 56.1697 39.7862 56.0061 39.9673C55.5873 40.423 55.1377 41.264 54.8379 42.0519C54.6875 42.4456 54.5722 42.8281 54.5099 43.1401C54.4787 43.2955 54.4609 43.4335 54.4568 43.5425C54.4521 43.651 54.4645 43.7305 54.4753 43.7578C54.5252 43.8978 54.452 44.0516 54.3121 44.1011C54.1723 44.1509 54.0182 44.078 53.9685 43.9378C53.923 43.8069 53.9146 43.672 53.9193 43.5228Z" fill="#F1F6F7"/>
<path d="M66.2378 51.5618C66.2478 51.3017 66.3075 50.9954 66.4015 50.657C66.5431 50.1502 66.7642 49.5767 67.0289 49.0395C67.2941 48.5026 67.5993 48.0041 67.927 47.6439C68.1267 47.4269 68.3334 47.2552 68.575 47.1673C68.7148 47.1175 68.8686 47.191 68.9184 47.3307C68.968 47.471 68.8947 47.6247 68.7548 47.6744C68.6468 47.7109 68.4883 47.8253 68.3246 48.0067C67.9059 48.4619 67.456 49.3035 67.1567 50.0908C67.0061 50.4846 66.8907 50.8671 66.8285 51.1789C66.7971 51.3347 66.7793 51.4726 66.7754 51.5813C66.7707 51.6899 66.7831 51.7698 66.7938 51.7968C66.8436 51.9369 66.7706 52.0905 66.6306 52.1403C66.4907 52.19 66.3367 52.117 66.287 51.9771C66.2416 51.8457 66.2329 51.7112 66.2378 51.5618Z" fill="#F1F6F7"/>
<path d="M71.1214 71.3956C70.7782 70.8295 70.449 69.9205 70.2544 69.0266C70.1582 68.58 70.0968 68.1392 70.0916 67.7457C70.0889 67.352 70.1316 67.0039 70.297 66.7242C70.3742 66.597 70.5395 66.5565 70.6669 66.6336C70.7936 66.7107 70.8341 66.876 70.7571 67.0031C70.7136 67.0734 70.6737 67.191 70.6515 67.3441C70.6122 67.6119 70.6259 67.981 70.6841 68.3821C70.7705 68.985 70.9538 69.663 71.1682 70.2317C71.275 70.5161 71.3904 70.7733 71.5018 70.9782C71.6121 71.183 71.7247 71.3361 71.7993 71.4027C71.8181 71.4199 71.8337 71.4312 71.8434 71.437C71.9706 71.5142 72.0108 71.6798 71.9336 71.8068C71.8566 71.9336 71.6912 71.974 71.5644 71.897C71.5178 71.8687 71.476 71.8363 71.4365 71.8003C71.321 71.694 71.2211 71.5582 71.1214 71.3956Z" fill="#F1F6F7"/>
<path d="M74.2405 36.3444C74.1605 36.3473 74.0452 36.377 73.9112 36.4399C73.7094 36.5332 73.4684 36.6958 73.2204 36.9025C72.9717 37.1093 72.7151 37.3594 72.4713 37.6265C72.0974 38.036 71.7537 38.4865 71.5113 38.8776C71.3902 39.0729 71.2944 39.2537 71.2329 39.402C71.1704 39.549 71.1479 39.668 71.1518 39.706C71.1581 39.8544 71.0429 39.9799 70.8943 39.986C70.746 39.9921 70.6206 39.8769 70.6142 39.7286C70.6089 39.5512 70.6599 39.3841 70.7358 39.1961C70.8519 38.9171 71.038 38.6003 71.2695 38.2674C71.501 37.935 71.7775 37.5887 72.0739 37.2639C72.4177 36.8875 72.787 36.5399 73.148 36.2764C73.3288 36.1449 73.5076 36.0341 73.6848 35.9518C73.8619 35.8701 74.0375 35.8151 74.2178 35.8067C74.3663 35.8007 74.4917 35.9159 74.4977 36.0644C74.5042 36.2128 74.389 36.3382 74.2405 36.3444Z" fill="#F1F6F7"/>
<path d="M80.5872 31.519C80.7373 31.2887 80.9372 31.0387 81.1705 30.783C81.6219 30.2887 82.1959 29.775 82.7625 29.3841C83.0462 29.1889 83.3279 29.0243 83.5974 28.9089C83.8675 28.795 84.1253 28.7244 84.3803 28.7443C84.5284 28.7567 84.6381 28.887 84.6255 29.035C84.6129 29.1831 84.4829 29.293 84.3349 29.2802C84.2219 29.269 84.0313 29.3072 83.8087 29.4037C83.4732 29.5463 83.0674 29.8076 82.6713 30.1208C82.2747 30.4334 81.8849 30.7982 81.5678 31.1456C81.3496 31.3848 81.1654 31.6165 81.0382 31.8124C80.9094 32.0052 80.8455 32.1737 80.8453 32.2242C80.8328 32.3719 80.7025 32.4818 80.5546 32.4691C80.4065 32.4567 80.2967 32.3263 80.3093 32.1783C80.3328 31.955 80.439 31.7526 80.5872 31.519Z" fill="#F1F6F7"/>
<path d="M95.1632 28.9958C95.0565 29.1125 94.9704 29.221 94.9113 29.3118C94.8515 29.4017 94.8213 29.4762 94.8166 29.5052C94.7869 29.6507 94.6447 29.7447 94.4992 29.7147C94.3537 29.685 94.2596 29.543 94.2895 29.3974C94.3182 29.2621 94.3801 29.1425 94.4608 29.0174C94.5423 28.8932 94.6452 28.7656 94.7659 28.6331C95.225 28.1314 95.9478 27.5567 96.6818 27.1159C97.0488 26.8961 97.4181 26.7107 97.7634 26.5883C98.1097 26.4683 98.4306 26.4018 98.7323 26.46C98.8777 26.4896 98.9716 26.6317 98.9421 26.7772C98.9122 26.9229 98.7701 27.0167 98.6248 26.9869C98.4913 26.9567 98.2392 26.9886 97.9427 27.0955C97.4963 27.2528 96.9499 27.5581 96.4442 27.91C95.9379 28.2615 95.468 28.6613 95.1632 28.9958Z" fill="#F1F6F7"/>
<path d="M76.2915 131.25C73.4325 131.97 67.9698 124.212 64.8223 118.845C63.0834 115.878 59.7665 127.291 58.3662 131.675C53.3797 147.284 51.5974 154.827 46.5122 153.025C42.2674 151.521 51.0159 124.375 51.0965 123.871C51.4362 121.756 49.7077 120.881 49.0686 123.686C48.7407 125.127 47.667 127.903 45.459 132.664C37.9217 148.913 36.3867 154.9 30.8924 151.703C26.9997 149.437 34.3939 133.525 38.6428 124.365C40.9206 119.454 40.5163 116.347 38.6651 120.338C28.5553 137.675 26.3531 146.552 20.1377 142.479C16.371 140.01 25.5001 125.048 29.7491 115.888C30.0844 115.165 30.4024 114.519 30.7082 113.929C32.0597 111.015 29.7978 109.406 28.6427 111.771C20.3656 123.6 19.1289 130.431 14.3778 126.752C10.8166 123.995 19.7399 109.322 23.989 100.161C24.6874 98.6555 25.3178 97.4563 25.8934 96.4987C26.1629 95.2459 26.5673 94.0112 27.123 92.8131C31.8064 82.7161 42.9486 66.5839 59.5598 78.6779C76.293 80.7627 76.116 95.4176 73.5465 104.268C70.7503 113.899 86.3691 128.712 76.2915 131.25Z" fill="#FF5528" fill-opacity="0.1"/>
<path d="M121.77 138.173C122.345 141.064 114.32 146.128 108.801 149C105.75 150.587 116.981 154.476 121.288 156.097C136.625 161.866 144.069 164.028 142.012 169.015C140.294 173.179 113.625 163.068 113.127 162.962C111.032 162.516 110.07 164.198 112.839 164.978C114.262 165.379 116.98 166.591 121.623 169.037C137.471 177.387 143.371 179.223 139.901 184.548C137.442 188.321 121.924 180.132 112.99 175.425C108.201 172.902 105.077 173.149 108.97 175.199C125.773 186.173 134.528 188.821 130.145 194.823C127.489 198.46 113.008 188.586 104.074 183.879C103.369 183.507 102.74 183.157 102.166 182.822C99.3248 181.325 97.6029 183.502 99.9065 184.776C111.302 193.64 118.061 195.221 114.147 199.78C111.214 203.197 97.0102 193.543 88.0763 188.836C86.6077 188.062 85.4419 187.372 84.5147 186.749C83.2771 186.416 82.0645 185.95 80.896 185.335C71.0488 180.147 55.5007 168.203 68.4193 152.224C71.3477 135.618 85.9749 136.536 94.6838 139.55C104.162 142.829 119.745 127.98 121.77 138.173Z" fill="#FF5528" fill-opacity="0.1"/>
<path d="M51.1551 112.333C51.2162 113.064 51.1106 113.759 50.819 114.387C50.7566 114.521 50.5967 114.58 50.462 114.517C50.3274 114.455 50.2686 114.295 50.3309 114.16C50.5793 113.624 50.6731 113.031 50.6192 112.377C50.5256 111.234 49.9672 109.907 48.99 108.487C47.5262 106.355 45.1303 104.019 42.042 101.73C38.9538 99.4405 35.1741 97.1961 30.9408 95.2326C30.8064 95.1702 30.7475 95.0102 30.81 94.8755C30.8726 94.7407 31.0328 94.6822 31.1672 94.7445C37.6651 97.7594 43.1064 101.429 46.6688 104.947C48.4496 106.707 49.7625 108.429 50.5006 110.029C50.8691 110.829 51.0944 111.6 51.1551 112.333Z" fill="#F1F6F7"/>
<path d="M56.3399 111.418C56.1914 111.425 56.0653 111.31 56.0585 111.162C55.8643 107.132 56.0376 103.326 56.5058 99.9955C56.974 96.6641 57.7353 93.8082 58.7272 91.6683C59.3046 90.424 59.9598 89.4205 60.6938 88.7067C61.4262 87.9942 62.2499 87.5691 63.1349 87.527C63.2833 87.5198 63.4094 87.6343 63.4165 87.7827C63.4239 87.9312 63.3092 88.057 63.1608 88.0642C62.4356 88.0995 61.7382 88.4436 61.0688 89.0927C60.4009 89.7407 59.7729 90.6912 59.2151 91.8946C58.2548 93.9641 57.5006 96.7775 57.0384 100.07C56.5759 103.363 56.4033 107.137 56.5957 111.137C56.6027 111.285 56.4882 111.411 56.3399 111.418Z" fill="#F1F6F7"/>
<path d="M18.8153 119.348C19.3225 119.583 19.8625 119.777 20.3149 119.892C20.5407 119.949 20.745 119.987 20.9073 120.001C21.0687 120.016 21.1907 120.001 21.226 119.986C21.3656 119.935 21.5199 120.007 21.5711 120.146C21.6221 120.286 21.5505 120.44 21.411 120.491C21.2421 120.55 21.0654 120.553 20.861 120.537C20.5565 120.51 20.1933 120.427 19.8011 120.306C19.4096 120.184 18.9914 120.022 18.5889 119.836C18.1317 119.623 17.6952 119.379 17.3406 119.118C17.1629 118.987 17.0056 118.852 16.8756 118.709C16.7459 118.567 16.6416 118.418 16.5798 118.25C16.5287 118.111 16.6002 117.956 16.7399 117.905C16.8793 117.854 17.0336 117.926 17.085 118.065C17.1118 118.14 17.1741 118.239 17.2727 118.346C17.42 118.508 17.6441 118.686 17.9117 118.858C18.1796 119.03 18.4909 119.197 18.8153 119.348Z" fill="#F1F6F7"/>
<path d="M22.618 134.8C22.6449 134.875 22.7073 134.974 22.8059 135.082C22.9531 135.243 23.1773 135.421 23.4448 135.593C23.7129 135.765 24.0242 135.933 24.3484 136.083C24.8558 136.318 25.3958 136.513 25.8481 136.627C26.074 136.685 26.2782 136.722 26.4405 136.736C26.6017 136.752 26.7237 136.737 26.7592 136.721C26.8987 136.67 27.0532 136.742 27.1043 136.881C27.1554 137.021 27.0837 137.176 26.9443 137.226C26.7753 137.286 26.5985 137.288 26.3943 137.272C26.0895 137.245 25.7265 137.163 25.3343 137.041C24.9429 136.919 24.5246 136.758 24.122 136.571C23.6648 136.359 23.2284 136.115 22.8736 135.853C22.6962 135.722 22.5388 135.587 22.4088 135.445C22.279 135.302 22.1749 135.153 22.1129 134.985C22.0619 134.846 22.1335 134.692 22.2729 134.64C22.4125 134.589 22.5668 134.661 22.618 134.8Z" fill="#F1F6F7"/>
<path d="M34.1942 140.737C34.2211 140.811 34.2836 140.911 34.3822 141.018C34.5293 141.18 34.7534 141.358 35.0209 141.53C35.289 141.702 35.6003 141.869 35.9246 142.019C36.4318 142.255 36.9719 142.449 37.4243 142.564C37.65 142.622 37.8543 142.659 38.0166 142.673C38.1781 142.688 38.2998 142.673 38.3355 142.658C38.4748 142.607 38.6293 142.679 38.6804 142.818C38.7316 142.958 38.66 143.112 38.5203 143.163C38.3515 143.223 38.1746 143.225 37.9705 143.209C37.6658 143.182 37.3027 143.099 36.9105 142.977C36.5192 142.856 36.1008 142.694 35.6983 142.508C35.2411 142.295 34.8047 142.051 34.4498 141.79C34.2722 141.659 34.1149 141.523 33.9849 141.381C33.8553 141.239 33.7509 141.09 33.6891 140.922C33.638 140.782 33.7096 140.628 33.8491 140.577C33.9886 140.526 34.1431 140.598 34.1942 140.737Z" fill="#F1F6F7"/>
<path d="M52.315 144.68C52.0641 144.749 51.7534 144.784 51.4025 144.796C50.8768 144.813 50.2631 144.775 49.6717 144.684C49.0795 144.593 48.5122 144.451 48.0702 144.247C47.8035 144.122 47.5775 143.977 47.4209 143.773C47.3318 143.654 47.355 143.486 47.4735 143.396C47.5924 143.307 47.761 143.33 47.8504 143.449C47.9176 143.541 48.0746 143.658 48.2965 143.759C48.8571 144.022 49.7944 144.198 50.6359 144.247C51.0566 144.272 51.4561 144.267 51.7723 144.232C51.93 144.215 52.0669 144.191 52.1721 144.162C52.277 144.134 52.3491 144.098 52.3719 144.079C52.4904 143.99 52.6591 144.013 52.7484 144.132C52.8379 144.25 52.8147 144.419 52.6959 144.509C52.5848 144.591 52.4586 144.64 52.315 144.68Z" fill="#F1F6F7"/>
<path d="M56.2777 130.515C56.0266 130.584 55.7166 130.619 55.3656 130.631C54.8396 130.648 54.2262 130.61 53.6343 130.519C53.0425 130.428 52.4753 130.286 52.0332 130.082C51.7662 129.957 51.5403 129.812 51.3838 129.608C51.2943 129.489 51.3181 129.32 51.4364 129.231C51.5553 129.141 51.7239 129.165 51.8134 129.284C51.8807 129.376 52.0374 129.492 52.2597 129.594C52.8198 129.856 53.7577 130.032 54.5986 130.081C55.0194 130.106 55.4189 130.101 55.7349 130.067C55.8929 130.05 56.0299 130.026 56.1347 129.997C56.2396 129.969 56.3121 129.933 56.3346 129.914C56.4534 129.825 56.6217 129.848 56.7114 129.967C56.8009 130.085 56.7774 130.254 56.659 130.343C56.5474 130.426 56.4217 130.475 56.2777 130.515Z" fill="#F1F6F7"/>
<path d="M73.7266 119.896C73.2898 120.393 72.5219 120.981 71.7279 121.435C71.3309 121.661 70.9289 121.852 70.5552 121.975C70.1805 122.096 69.8357 122.16 69.5192 122.087C69.3747 122.051 69.2864 121.906 69.3216 121.761C69.3571 121.617 69.5025 121.529 69.6468 121.564C69.727 121.584 69.8511 121.587 70.0039 121.562C70.2711 121.519 70.619 121.395 70.9841 121.219C71.533 120.955 72.1246 120.576 72.6025 120.201C72.8415 120.014 73.0522 119.826 73.2141 119.658C73.3762 119.492 73.4884 119.338 73.5295 119.247C73.5403 119.224 73.5463 119.206 73.549 119.195C73.5843 119.05 73.7302 118.962 73.8745 118.997C74.0186 119.033 74.1069 119.178 74.0716 119.322C74.0586 119.375 74.0403 119.425 74.0178 119.473C73.9512 119.616 73.8517 119.752 73.7266 119.896Z" fill="#F1F6F7"/>
<path d="M39.3581 127.457C39.3849 127.533 39.4479 127.634 39.5482 127.743C39.6978 127.907 39.9253 128.088 40.1971 128.262C40.4691 128.437 40.7848 128.607 41.1128 128.759C41.6158 128.993 42.1487 129.185 42.5946 129.298C42.8174 129.355 43.0186 129.392 43.1785 129.406C43.3375 129.422 43.4578 129.407 43.4928 129.392C43.6325 129.342 43.7868 129.414 43.8373 129.554C43.8878 129.693 43.8156 129.848 43.6761 129.898C43.5084 129.957 43.3337 129.958 43.1317 129.942C42.8306 129.915 42.4726 129.833 42.0854 129.713C41.6988 129.592 41.2854 129.432 40.8865 129.247C40.4241 129.032 39.9815 128.785 39.6217 128.52C39.442 128.387 39.2825 128.25 39.1507 128.105C39.0196 127.961 38.9143 127.81 38.8521 127.641C38.8017 127.501 38.8739 127.347 39.0137 127.296C39.1533 127.245 39.3075 127.317 39.3581 127.457Z" fill="#F1F6F7"/>
<path d="M32.8476 122.857C32.5828 122.783 32.2843 122.667 31.9703 122.522C31.3631 122.24 30.7006 121.847 30.1574 121.424C29.886 121.212 29.6443 120.993 29.4532 120.771C29.2634 120.547 29.1185 120.323 29.0608 120.073C29.0281 119.928 29.1194 119.785 29.2643 119.752C29.4094 119.72 29.5533 119.811 29.5856 119.956C29.6088 120.067 29.7025 120.237 29.8615 120.42C30.0985 120.697 30.4696 121.006 30.8874 121.289C31.3048 121.574 31.77 121.836 32.1967 122.034C32.4904 122.17 32.7667 122.276 32.9918 122.338C33.2144 122.403 33.3943 122.413 33.4425 122.398C33.5872 122.366 33.7312 122.457 33.7636 122.602C33.7963 122.747 33.7049 122.891 33.56 122.923C33.34 122.968 33.1149 122.928 32.8476 122.857Z" fill="#F1F6F7"/>
<path d="M26.0596 109.713C26.203 109.78 26.3324 109.829 26.4367 109.858C26.5405 109.888 26.6206 109.895 26.6496 109.891C26.7973 109.875 26.9298 109.983 26.9449 110.13C26.9603 110.278 26.8532 110.41 26.7053 110.426C26.5676 110.439 26.4349 110.416 26.2914 110.377C26.1484 110.336 25.9958 110.276 25.8332 110.201C25.2166 109.914 24.4511 109.398 23.8101 108.83C23.4901 108.546 23.2022 108.25 22.9817 107.957C22.7631 107.663 22.6032 107.377 22.568 107.072C22.5525 106.924 22.6598 106.792 22.8074 106.776C22.9553 106.761 23.0876 106.868 23.1028 107.016C23.1141 107.152 23.2203 107.383 23.4115 107.634C23.6957 108.012 24.1512 108.441 24.6389 108.818C25.1264 109.195 25.649 109.523 26.0596 109.713Z" fill="#F1F6F7"/>
</svg>
