<svg width="119" height="92" viewBox="0 0 119 92" fill="none" xmlns="http://www.w3.org/2000/svg">
<mask id="mask0_2073_78331" style="mask-type:alpha" maskUnits="userSpaceOnUse" x="0" y="0" width="119" height="92">
<path d="M49.7157 5.06169C37.8203 -4.84005 17.7553 0.938567 7.53358 12.4585C-2.67542 23.9642 -1.32109 41.2984 10.5595 51.1879L58.5182 91.1088C58.811 91.3526 59.085 91.618 59.3378 91.903C59.3704 91.95 59.4397 91.9499 59.4723 91.903C59.7251 91.6181 59.9991 91.3526 60.2919 91.1088L108.251 51.1879C120.131 41.2984 121.486 23.9642 111.277 12.4585C101.055 0.938567 80.8919 -4.84005 68.9965 5.06169L67.6521 6.33689C63.1073 10.6476 56.0113 10.7374 51.3588 6.54306L49.7157 5.06169Z" fill="#D9D9D9"/>
</mask>
<g mask="url(#mask0_2073_78331)">
<path d="M49.7157 5.06169C37.8203 -4.84005 17.7553 0.938567 7.53358 12.4585C-2.67542 23.9642 -1.32109 41.2984 10.5595 51.1879L58.5182 91.1088C58.811 91.3526 59.085 91.618 59.3378 91.903C59.3704 91.95 59.4397 91.9499 59.4723 91.903C59.7251 91.6181 59.9991 91.3526 60.2919 91.1088L108.251 51.1879C120.131 41.2984 121.486 23.9642 111.277 12.4585C101.055 0.938567 80.8919 -4.84005 68.9965 5.06169L67.6521 6.33689C63.1073 10.6476 56.0113 10.7374 51.3588 6.54306L49.7157 5.06169Z" fill="white" fill-opacity="0.3"/>
<path d="M57.9019 62.4542C59.7497 62.9837 61.1522 68.5449 61.4654 66.0992C61.7336 64.0019 60.1036 58.9986 60.2944 56.201C60.3449 55.4683 61.2947 55.3674 61.5359 56.0807C61.5435 56.1022 62.315 60.753 62.9177 62.1127C63.7687 64.031 63.0919 59.3421 63.1797 55.1067C63.1942 54.4217 63.6795 54.0913 64.1129 54.2109C64.7295 54.3809 64.5948 55.0397 64.6189 56.0296C64.6673 57.9817 64.4593 62.4749 65.0289 62.1632C65.5978 61.8521 65.3856 56.1319 65.8577 54.9595C66.0741 54.421 67.0004 54.5959 66.9623 55.6003C66.9616 55.6245 66.8455 58.9979 66.8448 59.0214C66.6962 64.8833 67.9031 63.2803 68.6089 59.0539C68.685 58.5956 68.8281 58.1891 69.2905 58.2347C70.4836 58.3509 69.238 62.2551 68.7638 64.7637C68.3504 66.9543 67.3916 68.8235 67.4912 71.7109C67.8499 79.0964 68.7361 85.8452 69.3444 93.2266L62.2928 93.0468C62.6011 89.8089 64.5471 74.7629 61.9624 72.5992C60.2011 71.1241 58.1584 64.4789 57.2155 63.1496C56.845 62.6277 57.4865 62.3353 57.9019 62.4542Z" fill="#181713" fill-opacity="0.5"/>
<path d="M58.2118 51.5648C55.9285 52.2187 54.1948 59.092 53.8077 56.069C53.4759 53.4775 55.4909 47.2934 55.2545 43.8357C55.193 42.9309 54.0186 42.8057 53.7206 43.6878C53.7116 43.7141 52.7584 49.4619 52.0132 51.1417C50.9617 53.5127 51.7975 47.7179 51.689 42.4836C51.6717 41.6375 51.0716 41.229 50.5358 41.3769C49.7739 41.587 49.9402 42.4007 49.9101 43.6242C49.8509 46.0367 50.1076 51.5896 49.404 51.2046C48.7005 50.8196 48.9633 43.7507 48.3798 42.3018C48.1119 41.6368 46.9679 41.8525 47.0141 43.0933C47.0153 43.1244 47.1587 47.2927 47.1595 47.3218C47.343 54.5669 45.8515 52.5858 44.9798 47.3619C44.8854 46.7957 44.7085 46.2932 44.1375 46.3492C42.6627 46.4936 44.202 51.3187 44.7878 54.419C45.2993 57.1253 46.4838 59.4355 46.3611 63.0038C45.9174 72.1313 44.8226 80.4721 44.0705 89.5947L52.7853 89.3721C52.4045 85.3704 49.9993 66.7761 53.1939 64.1015C55.3707 62.2794 57.8952 54.0665 59.0599 52.424C59.5183 51.7784 58.7247 51.4175 58.2118 51.5648Z" fill="#181713" fill-opacity="0.5"/>
<path d="M87.1141 42.2415C84.831 42.8955 83.097 49.7687 82.7101 46.7458C82.3784 44.1543 84.3935 37.9709 84.157 34.5132C84.0952 33.6083 82.9211 33.4832 82.6226 34.3646C82.6137 34.3908 81.6605 40.1387 80.9153 41.8192C79.864 44.1895 80.6998 38.3946 80.5914 33.1611C80.5739 32.3143 79.9739 31.9057 79.4381 32.0537C78.6763 32.2638 78.8425 33.0781 78.8125 34.3017C78.7533 36.7135 79.0099 42.2664 78.3064 41.8814C77.6028 41.497 77.8657 34.4282 77.2821 32.9786C77.0142 32.3136 75.8702 32.5299 75.9165 33.7701C75.9176 33.8012 76.061 37.9695 76.0618 37.9985C76.2454 45.2437 74.7538 43.2625 73.8821 38.0386C73.7876 37.4725 73.6108 36.9706 73.0398 37.0259C71.565 37.1704 73.1043 41.9954 73.6902 45.0958C74.2016 47.8028 75.3861 50.1123 75.2635 53.6813C74.8197 62.8081 73.725 71.1489 72.9728 80.2715L81.6876 80.0489C81.3065 76.0472 78.9016 57.4528 82.0962 54.7783C84.2731 52.9561 86.7972 44.7432 87.9622 43.1008C88.4203 42.4551 87.6272 42.0943 87.1141 42.2415Z" fill="#181713" fill-opacity="0.5"/>
<path d="M47.2123 32.1702C43.9059 33.2394 41.3951 44.4772 40.8348 39.535C40.3545 35.2979 43.2724 25.1873 42.9301 19.534C42.8406 18.0543 41.1405 17.8503 40.7082 19.2915C40.6952 19.3349 39.3149 28.7321 38.2359 31.4795C36.7136 35.3558 37.9238 25.8813 37.7667 17.3237C37.7413 15.9391 36.8726 15.2713 36.0968 15.5132C34.9936 15.8563 35.2343 17.1875 35.1908 19.1881C35.1051 23.1327 35.4768 32.2113 34.4579 31.5819C33.4392 30.953 33.8198 19.395 32.9748 17.0257C32.5869 15.938 30.9302 16.2917 30.9973 18.3201C30.9989 18.3702 31.2066 25.1856 31.2076 25.2329C31.4735 37.0789 29.3137 33.8394 28.0514 25.2985C27.9146 24.3733 27.6585 23.552 26.8317 23.6432C24.6961 23.8789 26.9251 31.7676 27.7734 36.8371C28.5141 41.2626 30.2293 45.0393 30.0517 50.8739C29.4091 65.7971 27.8238 79.4336 26.7346 94.3496L39.3541 93.986C38.8024 87.4429 35.32 57.0416 39.9459 52.6683C43.0982 49.689 46.7533 36.261 48.4405 33.5758C49.1034 32.5199 47.9549 31.9299 47.2123 32.1702Z" fill="#181713" fill-opacity="0.5"/>
</g>
</svg>
