<svg width="155" height="136" viewBox="0 0 155 136" fill="none" xmlns="http://www.w3.org/2000/svg">
<path d="M32.0939 37.944C33.6993 32.8657 35.3469 26.9222 37.4641 21.1393C40.1 13.9403 44.3274 7.57144 48.9263 1.47461C49.5713 0.623564 51.1835 -0.185667 52.0879 0.0375576C52.9922 0.260783 54.1 1.67686 54.3173 2.7302C57.1215 16.34 61.7416 29.6498 61.4962 43.7897C61.4962 43.9013 61.6222 44.013 61.7413 44.2222C63.1434 42.8271 64.5946 41.5016 65.9476 40.0925C73.6592 32.0704 83.3476 27.0687 93.2885 22.4787C93.8643 22.2883 94.4739 22.2203 95.0778 22.2792C95.6816 22.338 96.2661 22.5225 96.7938 22.8205C97.3195 23.1204 97.5651 24.976 97.1515 25.6108C92.5386 33.04 91.0803 41.6551 87.6171 49.5448C83.2356 59.5062 79.2958 69.6699 72.9653 78.6407C66.074 88.4068 56.4904 94.1339 45.0353 97.1196C42.497 97.798 40.0617 98.8114 37.7937 100.133C37.2273 100.53 36.7485 101.038 36.3868 101.626C36.0251 102.214 35.7882 102.869 35.6906 103.551C33.8538 122.993 35.8659 142.009 42.5398 160.446C43.4512 162.957 44.6428 165.378 45.8346 168.119C47.6643 167.031 49.4101 166.298 50.7772 165.126C58.7411 158.304 66.6138 151.356 72.9653 142.95C76.092 138.814 78.868 134.405 81.7212 130.073C81.9151 129.773 82.0373 129.433 82.0786 129.079C82.1199 128.724 82.0795 128.365 81.9598 128.029C78.6018 123.258 78.048 117.733 77.4451 112.215C76.2673 101.347 77.3327 90.6391 79.8495 80.0429C79.8908 79.549 80.0467 79.0714 80.3051 78.6477C81.1884 77.7269 82.1631 76.2898 83.1586 76.248C84.2873 76.1922 85.8577 77.1758 86.5307 78.1803C87.5166 79.8281 88.2578 81.609 88.7317 83.4679C90.0987 87.8766 91.3328 92.3271 92.6368 96.7219C92.77 97.1753 92.9733 97.6009 93.2187 98.2357C100.965 85.6793 111.383 75.9132 122.424 66.7122C123.28 65.9531 124.221 65.2952 125.228 64.7519C127.409 63.6567 129.358 64.7519 129.435 67.2074C129.438 68.6989 129.24 70.1841 128.846 71.623C127.577 76.5828 126.406 81.5706 124.822 86.4257C123.237 91.2809 121.191 95.9685 119.333 100.775C119.65 100.702 119.964 100.614 120.272 100.51C125.088 98.7519 129.869 96.8893 134.728 95.25C139.453 93.6595 144.248 92.2574 149.036 90.8344C150.901 90.2833 153.06 89.1741 154.49 91.3715C155.92 93.5689 154.013 94.9641 152.787 96.3662C147.76 102.1 142.586 107.702 137.644 113.499C124.759 128.587 107.828 132.836 88.8789 131.636C87.0141 131.517 85.9557 131.754 84.9742 133.477C77.1014 147.206 66.0458 158.2 54.0719 168.307C52.1931 169.884 49.9149 170.993 47.6365 172.444C48.1132 173.379 48.5406 174.425 49.1365 175.36C52.9642 181.443 56.8106 187.509 60.6757 193.56C60.7949 193.741 60.9353 193.902 61.0615 194.069C61.8958 195.234 62.2462 196.483 60.9773 197.48C59.7084 198.478 58.3694 197.927 57.4721 196.783C56.1891 195.171 54.9621 193.504 53.7984 191.802C36.2722 166.173 28.778 137.865 30.8671 106.997C31.0704 103.963 31.4842 100.949 31.7646 97.9288C31.8901 97.1584 31.878 96.372 31.7294 95.6058C29.7384 88.4417 27.1938 81.5566 22.0761 75.8644C15.5213 68.5677 9.91291 60.6223 5.95199 51.6165C1.52136 41.6272 -0.644883 31.2123 0.168334 20.2813C0.308398 18.5959 0.730167 16.9455 1.41622 15.3982C2.32057 13.3613 4.54288 12.9637 5.95199 14.6658C12.3806 22.4159 20.8003 27.9687 28.1262 34.7212C29.4302 36.0466 31.0354 37.1209 32.0939 37.944Z" fill="#CCE4AF"/>
</svg>
